<svg width="79" height="79" viewBox="0 0 79 79" fill="none" xmlns="http://www.w3.org/2000/svg">
<rect x="0.642578" y="1.39258" width="77" height="77" rx="7.5" fill="#F6F9FC"/>
<rect x="0.642578" y="1.39258" width="77" height="77" rx="7.5" stroke="#C4CCD8"/>
<path d="M24.3193 29.6093C23.6207 30.0127 23.1904 30.758 23.1904 31.5646V44.0652C23.1904 44.8718 23.6207 45.6171 24.3193 46.0204L35.1446 52.2706C35.8432 52.6739 36.7039 52.6739 37.4024 52.2706L48.2278 46.0204C48.9264 45.6171 49.3567 44.8718 49.3567 44.0652V31.5646C49.3567 30.758 48.9264 30.0127 48.2278 29.6093L37.4024 23.3591C36.7039 22.9558 35.8432 22.9558 35.1446 23.3591L24.3193 29.6093Z" stroke="#C4CCD8"/>
<path d="M34.7763 38.8546C34.0766 39.2577 33.6455 40.0036 33.6455 40.8111V50.1057C33.6455 50.9131 34.0766 51.6591 34.7763 52.0621L42.8505 56.713C43.5489 57.1154 44.4088 57.1148 45.1068 56.7116L53.154 52.0626C53.8522 51.6592 54.2824 50.914 54.2824 50.1076V40.8091C54.2824 40.0027 53.8522 39.2576 53.154 38.8542L45.1068 34.2051C44.4088 33.8019 43.5489 33.8014 42.8505 34.2037L34.7763 38.8546Z" stroke="#C4CCD8"/>
</svg>
