<svg width="79" height="79" viewBox="0 0 79 79" fill="none" xmlns="http://www.w3.org/2000/svg">
<rect x="0.642578" y="1.39258" width="77" height="77" rx="7.5" fill="#F6F9FC"/>
<rect x="0.642578" y="1.39258" width="77" height="77" rx="7.5" stroke="#C4CCD8"/>
<path d="M47.1175 35.0193C47.1175 34.7023 47.0518 34.3889 46.9247 34.0993L43.4497 26.1728C43.091 25.3551 42.2908 24.8281 41.4078 24.8281H23.6527C22.4185 24.8281 21.418 25.8421 21.418 27.0928V42.9458C21.418 44.1965 22.4185 45.2105 23.6527 45.2105H41.4078C42.2908 45.2105 43.091 44.6836 43.4497 43.8658L46.9247 35.9394C47.0518 35.6498 47.1175 35.3363 47.1175 35.0193Z" stroke="#C4CCD8"/>
<path d="M31.167 44.7674C31.167 45.0844 31.2327 45.3978 31.3597 45.6874L34.8348 53.6138C35.1935 54.4316 35.9937 54.9586 36.8767 54.9586H54.6318C55.866 54.9586 56.8665 53.9446 56.8665 52.6938V36.8409C56.8665 35.5902 55.866 34.5762 54.6318 34.5762H36.8767C35.9937 34.5762 35.1935 35.1031 34.8348 35.9209L31.3597 43.8473C31.2327 44.1369 31.167 44.4504 31.167 44.7674Z" stroke="#C4CCD8"/>
</svg>
