<svg width="20" height="21" viewBox="0 0 20 21" fill="none" xmlns="http://www.w3.org/2000/svg">
<path d="M6.25005 0.597656C5.5597 0.597656 5.00005 1.1573 5.00005 1.84766V18.2634C5.00005 18.8291 4.62014 19.3243 4.07373 19.4708L18.0736 15.7177C18.6201 15.5713 19 15.076 19 14.5103V1.84766C19 1.1573 18.4404 0.597656 17.75 0.597656H6.25005Z" fill="#00D924"/>
<path d="M0.62669 12.3708C0.0287879 12.716 -0.176046 13.4805 0.169169 14.0784L2.90761 18.8216C3.19049 19.3115 3.76719 19.5504 4.31367 19.4039L17.3872 15.9008L12.2935 7.07835C11.9485 6.48045 11.1838 6.2756 10.5859 6.62085L0.62669 12.3708Z" fill="url(#paint0_linear_7950_1442)"/>
<path d="M4.20068 19.4287C4.23837 19.4222 4.276 19.414 4.3135 19.4039L17.387 15.9008L12.2933 7.07835C11.9483 6.48045 11.1837 6.2756 10.5858 6.62085L4.99992 9.84585V18.2628C4.99992 18.7835 4.67801 19.2444 4.20068 19.4287Z" fill="url(#paint1_linear_7950_1442)"/>
<defs>
<linearGradient id="paint0_linear_7950_1442" x1="8.69485" y1="10.222" x2="8.69465" y2="19.097" gradientUnits="userSpaceOnUse">
<stop stop-color="#FFD748"/>
<stop offset="1" stop-color="#FFC148"/>
</linearGradient>
<linearGradient id="paint1_linear_7950_1442" x1="10.7943" y1="6.45315" x2="10.7939" y2="19.4287" gradientUnits="userSpaceOnUse">
<stop stop-color="#00A600"/>
<stop offset="1" stop-color="#00D924"/>
</linearGradient>
</defs>
</svg>
