<svg width="20" height="21" viewBox="0 0 20 21" fill="none" xmlns="http://www.w3.org/2000/svg">
<mask id="mask0_7950_1146" style="mask-type:luminance" maskUnits="userSpaceOnUse" x="0" y="0" width="20" height="21">
<path d="M0 0.777344H20V20.7773H0V0.777344Z" fill="white"/>
</mask>
<g mask="url(#mask0_7950_1146)">
<path d="M10.2547 0.925798C10.7547 0.925798 11.2147 1.2108 11.4347 1.6608L15.5447 9.8708L19.8697 18.5258C19.9574 18.7 20.0054 18.8914 20.0102 19.0863C20.0151 19.2813 19.9767 19.4749 19.8978 19.6532C19.8189 19.8315 19.7015 19.9901 19.554 20.1177C19.4065 20.2452 19.2326 20.3385 19.0447 20.3908L18.9597 20.4108C18.8997 20.4258 18.8397 20.4308 18.7797 20.4358H18.6897L10.2497 18.7708L4.96973 9.8708L9.06973 1.6608C9.17932 1.43912 9.34898 1.25268 9.55937 1.12273C9.76977 0.992778 10.0124 0.924543 10.2597 0.925798H10.2547Z" fill="#FFBB00"/>
<path d="M10.2548 0.925798C10.7548 0.925798 11.2148 1.2108 11.4348 1.6608L15.5448 9.8708L10.2498 18.7658L1.82476 20.4408C1.59875 20.4419 1.37623 20.385 1.17851 20.2755C0.980791 20.166 0.814502 20.0076 0.695572 19.8154C0.576642 19.6232 0.509054 19.4037 0.499281 19.1779C0.489509 18.9521 0.537881 18.7276 0.639762 18.5258L4.96976 9.8758L9.06976 1.6608C9.17935 1.43912 9.34901 1.25268 9.55941 1.12273C9.76981 0.992778 10.0125 0.924543 10.2598 0.925798H10.2548Z" fill="url(#paint0_linear_7950_1146)"/>
<path d="M10.2547 0.925781C10.7547 0.925781 11.2147 1.21078 11.4347 1.66078L15.5447 9.87078L10.2497 18.7658L4.96973 9.87078L9.06973 1.66078C9.17219 1.45232 9.32786 1.27458 9.521 1.14553C9.71414 1.01647 9.93792 0.940674 10.1697 0.925781H10.2597H10.2547Z" fill="url(#paint1_linear_7950_1146)"/>
</g>
<defs>
<linearGradient id="paint0_linear_7950_1146" x1="8.01476" y1="9.7808" x2="7.96976" y2="20.4408" gradientUnits="userSpaceOnUse">
<stop stop-color="#FFD748"/>
<stop offset="0.54" stop-color="#FFCD48"/>
<stop offset="1" stop-color="#FFCB48"/>
</linearGradient>
<linearGradient id="paint1_linear_7950_1146" x1="10.2547" y1="18.1358" x2="10.2547" y2="8.28078" gradientUnits="userSpaceOnUse">
<stop stop-color="#FFAD00"/>
<stop offset="1" stop-color="#FF7600"/>
</linearGradient>
</defs>
</svg>
