<svg width="20" height="21" viewBox="0 0 20 21" fill="none" xmlns="http://www.w3.org/2000/svg">
<path d="M15.77 2.09766H5.92C5.5 2.09766 5.105 2.31266 4.875 2.66766C4.76196 2.84371 4.69455 3.04514 4.67884 3.25377C4.66312 3.4624 4.69961 3.67166 4.785 3.86266L7.335 9.59266C7.485 9.91266 7.485 10.2827 7.335 10.6027L4 18.0977H15.77C16.255 18.0977 16.7 17.8077 16.9 17.3577L19.89 10.6077C20.04 10.2827 20.04 9.91266 19.89 9.58766L16.9 2.83766C16.8033 2.61828 16.6452 2.43163 16.4446 2.30029C16.2441 2.16896 16.0097 2.09857 15.77 2.09766Z" fill="#9966FF"/>
<path d="M3.61514 18.0977C3.44569 18.0975 3.27837 18.06 3.12514 17.9877H3.14514C2.87127 17.8656 2.65223 17.6465 2.53014 17.3727L0.110135 11.8627C0.0257592 11.6725 -0.0106169 11.4646 0.00420428 11.2571C0.0190255 11.0496 0.0845902 10.8489 0.195135 10.6727C0.305 10.4972 0.457556 10.3524 0.638554 10.2518C0.819551 10.1513 1.02308 10.0982 1.23014 10.0977H10.9801C11.4651 10.0977 11.9001 10.3827 12.0951 10.8277L14.4951 16.2527L14.8351 17.0177C14.8851 17.1277 14.9501 17.2277 15.0251 17.3177C15.2701 17.6377 15.6251 17.9677 16.0151 18.0727C15.9601 18.0877 15.8651 18.0977 15.7401 18.0977H3.61014H3.61514Z" fill="url(#paint0_linear_7950_1243)"/>
<path d="M10.985 10.0988C11.435 10.0988 11.845 10.3487 12.055 10.7487L12.095 10.8287L14.495 16.2538L14.835 17.0188C15.0871 17.4795 15.4946 17.8357 15.985 18.0237L16.075 18.0587C15.975 18.0837 15.875 18.0988 15.77 18.0988H4L7.335 10.5988C7.41 10.4388 7.445 10.2687 7.445 10.0938H10.985V10.0988Z" fill="url(#paint1_linear_7950_1243)"/>
<defs>
<linearGradient id="paint0_linear_7950_1243" x1="8.00513" y1="17.8927" x2="8.00513" y2="10.6777" gradientUnits="userSpaceOnUse">
<stop stop-color="#21CFE0"/>
<stop offset="0.17" stop-color="#20D1E0"/>
<stop offset="0.38" stop-color="#18E2E2"/>
<stop offset="0.61" stop-color="#13ECE3"/>
<stop offset="1" stop-color="#11EFE3"/>
</linearGradient>
<linearGradient id="paint1_linear_7950_1243" x1="10.535" y1="21.5987" x2="10.535" y2="7.34875" gradientUnits="userSpaceOnUse">
<stop stop-color="#0048E5"/>
<stop offset="1" stop-color="#9B66FF"/>
</linearGradient>
</defs>
</svg>
