<svg width="20" height="21" viewBox="0 0 20 21" fill="none" xmlns="http://www.w3.org/2000/svg">
<path d="M5.78015 8.88217C5.6158 8.46407 5.924 8.01172 6.37325 8.01172H14.2646C14.2646 8.16997 14.2351 8.32822 14.1762 8.47807L12.4224 12.9389C12.2307 13.4265 11.7602 13.7471 11.2363 13.7471H7.6454C7.6454 13.668 7.63065 13.5888 7.6012 13.5139L5.78015 8.88217Z" fill="url(#paint0_linear_7950_1365)"/>
<path d="M0.0448055 3.14778C-0.119568 2.7297 0.188644 2.27734 0.637875 2.27734H7.34975C7.359 2.27734 7.3682 2.27754 7.37735 2.27793C7.39025 2.27754 7.4032 2.27734 7.4162 2.27734H11.2363C11.7602 2.27734 12.2308 2.59794 12.4225 3.08552L14.1763 7.54634C14.2352 7.69624 14.2647 7.85444 14.2647 8.01269H6.37325C5.924 8.01269 5.6158 8.46504 5.78015 8.88314L7.6012 13.5149C7.63065 13.5898 7.6454 13.6689 7.6454 13.748H0.637875C0.188643 13.748 -0.119568 13.2957 0.0448058 12.8776L1.86584 8.24589C1.92476 8.09599 1.92476 7.92939 1.86584 7.77954L0.0448055 3.14778Z" fill="url(#paint1_linear_7950_1365)"/>
<path fill-rule="evenodd" clip-rule="evenodd" d="M7.6454 13.7471C7.6454 13.8262 7.63065 13.9053 7.6012 13.9803L5.78015 18.612C5.6158 19.0301 5.924 19.4824 6.37325 19.4824H16.9716C17.4955 19.4824 17.9661 19.1618 18.1578 18.6743L19.9116 14.2134C20.0294 13.9137 20.0294 13.5805 19.9116 13.2807L18.1578 8.81992C17.9661 8.33232 17.4955 8.01172 16.9716 8.01172H14.2646C14.2646 8.16997 14.2351 8.32822 14.1762 8.47807L12.4224 12.9389C12.2307 13.4265 11.7602 13.7471 11.2363 13.7471H7.6454Z" fill="#9966FF"/>
<defs>
<linearGradient id="paint0_linear_7950_1365" x1="7.0311" y1="13.1098" x2="14.6782" y2="7.05582" gradientUnits="userSpaceOnUse">
<stop stop-color="#0048E5"/>
<stop offset="0.63979" stop-color="#625AF5"/>
<stop offset="1" stop-color="#8A62FC"/>
</linearGradient>
<linearGradient id="paint1_linear_7950_1365" x1="7.1323" y1="3.03062" x2="7.0311" y2="13.1108" gradientUnits="userSpaceOnUse">
<stop stop-color="#11EFE3"/>
<stop offset="0.33" stop-color="#15E8E2"/>
<stop offset="0.74" stop-color="#1FD3E0"/>
<stop offset="1" stop-color="#21CFE0"/>
</linearGradient>
</defs>
</svg>
