<svg width="96" height="97" viewBox="0 0 96 97" fill="none" xmlns="http://www.w3.org/2000/svg">
<path d="M44 28.5898C45.0609 28.5898 46.0783 29.0113 46.8284 29.7614C47.5786 30.5116 48 31.529 48 32.5898V49.5898C48 50.6507 47.5786 51.6681 46.8284 52.4183C46.0783 53.1684 45.0609 53.5898 44 53.5898H20C18.9391 53.5898 17.9217 53.1684 17.1716 52.4183C16.4214 51.6681 16 50.6507 16 49.5898V32.5898C16 31.529 16.4214 30.5116 17.1716 29.7614C17.9217 29.0113 18.9391 28.5898 20 28.5898H44ZM20.8 33.7598L20.13 34.5098C20.0523 34.5973 20.0078 34.7093 20.0041 34.8262C20.0005 34.9432 20.0379 35.0577 20.11 35.1498L20.17 35.2098L23.46 38.1298L20.16 41.0498C20.0643 41.1393 20.0075 41.2628 20.0019 41.3937C19.9963 41.5246 20.0423 41.6525 20.13 41.7498L20.79 42.5098C20.97 42.7098 21.29 42.7298 21.49 42.5498L26.46 38.1298L21.5 33.7198C21.4014 33.6334 21.2728 33.5891 21.1418 33.5966C21.0109 33.6041 20.8881 33.6627 20.8 33.7598Z" fill="#00D4FF"/>
<path d="M27.64 40.5898H34.36C34.58 40.5898 34.66 40.6098 34.74 40.6598C34.83 40.6998 34.89 40.7598 34.94 40.8498C34.98 40.9298 35 41.0098 35 41.2298V41.9498C35 42.1698 34.98 42.2498 34.93 42.3298C34.8892 42.4148 34.8227 42.4847 34.74 42.5298C34.66 42.5698 34.58 42.5898 34.36 42.5898H27.64C27.42 42.5898 27.34 42.5698 27.26 42.5198C27.1751 42.479 27.1051 42.4126 27.06 42.3298C27.02 42.2498 27 42.1698 27 41.9498V41.2298C27 41.0098 27.02 40.9298 27.07 40.8498C27.11 40.7598 27.17 40.6998 27.26 40.6498C27.34 40.6098 27.42 40.5898 27.64 40.5898Z" fill="#0A2540"/>
<path d="M42.5 42.5898L43.63 45.7198L44.27 45.8498L46.51 43.3898L47.44 43.7698L47.28 47.0998C47.47 47.2098 47.65 47.3298 47.82 47.4598L50.84 46.0398L51.54 46.7498L50.13 49.7698C50.26 49.9398 50.38 50.1198 50.49 50.3098L53.82 50.1498L54.2 51.0798L51.74 53.3198C51.79 53.5298 51.84 53.7398 51.87 53.9598L55 55.0898V56.0898L51.87 57.2198C51.83 57.4698 51.77 57.7198 51.72 57.9498L54.2 60.0998L53.82 61.0298L50.54 60.7898C50.4 61.0298 50.24 61.2598 50.07 61.4898L51.55 64.4298L50.84 65.1298L47.9 63.6598C47.67 63.8298 47.44 63.9898 47.2 64.1298L47.44 67.4098L46.51 67.7898L44.36 65.3098C44.09 65.3698 43.82 65.4298 43.54 65.4698L42.5 68.5898H41.5L40.46 65.4698C40.18 65.4298 39.91 65.3698 39.64 65.3098L37.49 67.7898L36.56 67.4098L36.8 64.1298C36.56 63.9898 36.33 63.8298 36.1 63.6598L33.16 65.1398L32.46 64.4298L33.93 61.4898C33.76 61.2598 33.6 61.0298 33.46 60.7898L30.18 61.0298L29.8 60.0998L32.28 57.9498C32.2152 57.6789 32.1618 57.4053 32.12 57.1298L29 56.0898V55.0898L32.12 54.0498C32.16 53.7998 32.2 53.5598 32.26 53.3198L29.8 51.0798L30.18 50.1498L33.51 50.3098C33.62 50.1198 33.74 49.9398 33.87 49.7698L32.45 46.7498L33.16 46.0498L36.18 47.4598C36.35 47.3298 36.53 47.2098 36.72 47.0998L36.56 43.7698L37.49 43.3898L39.73 45.8498C39.73 45.8498 40.15 45.7498 40.37 45.7198L41.5 42.5898H42.5ZM42 53.5898C41.4696 53.5898 40.9609 53.8006 40.5858 54.1756C40.2107 54.5507 40 55.0594 40 55.5898C40 56.1203 40.2107 56.629 40.5858 57.0041C40.9609 57.3791 41.4696 57.5898 42 57.5898C42.5304 57.5898 43.0391 57.3791 43.4142 57.0041C43.7893 56.629 44 56.1203 44 55.5898C44 55.0594 43.7893 54.5507 43.4142 54.1756C43.0391 53.8006 42.5304 53.5898 42 53.5898Z" fill="#7A73FF"/>
<mask id="mask0_4003_1622" style="mask-type:luminance" maskUnits="userSpaceOnUse" x="16" y="28" width="32" height="26">
<path d="M44 28.5898C45.0609 28.5898 46.0783 29.0113 46.8284 29.7614C47.5786 30.5116 48 31.529 48 32.5898V49.5898C48 50.6507 47.5786 51.6681 46.8284 52.4183C46.0783 53.1684 45.0609 53.5898 44 53.5898H20C18.9391 53.5898 17.9217 53.1684 17.1716 52.4183C16.4214 51.6681 16 50.6507 16 49.5898V32.5898C16 31.529 16.4214 30.5116 17.1716 29.7614C17.9217 29.0113 18.9391 28.5898 20 28.5898H44ZM20.8 33.7598L20.13 34.5098C20.0523 34.5973 20.0078 34.7093 20.0041 34.8262C20.0005 34.9432 20.0379 35.0577 20.11 35.1498L20.17 35.2098L23.46 38.1298L20.16 41.0498C20.0643 41.1393 20.0075 41.2628 20.0019 41.3937C19.9963 41.5246 20.0423 41.6525 20.13 41.7498L20.79 42.5098C20.97 42.7098 21.29 42.7298 21.49 42.5498L26.46 38.1298L21.5 33.7198C21.4014 33.6334 21.2728 33.5891 21.1418 33.5966C21.0109 33.6041 20.8881 33.6627 20.8 33.7598Z" fill="white"/>
</mask>
<g mask="url(#mask0_4003_1622)">
<path d="M42.5 42.5898L43.63 45.7198L44.27 45.8498L46.51 43.3898L47.44 43.7698L47.28 47.0998C47.47 47.2098 47.65 47.3298 47.82 47.4598L50.84 46.0398L51.54 46.7498L50.13 49.7698C50.26 49.9398 50.38 50.1198 50.49 50.3098L53.82 50.1498L54.2 51.0798L51.74 53.3198C51.79 53.5298 51.84 53.7398 51.87 53.9598L55 55.0898V56.0898L51.87 57.2198C51.83 57.4698 51.77 57.7198 51.72 57.9498L54.2 60.0998L53.82 61.0298L50.54 60.7898C50.4 61.0298 50.24 61.2598 50.07 61.4898L51.55 64.4298L50.84 65.1298L47.9 63.6598C47.67 63.8298 47.44 63.9898 47.2 64.1298L47.44 67.4098L46.51 67.7898L44.36 65.3098C44.09 65.3698 43.82 65.4298 43.54 65.4698L42.5 68.5898H41.5L40.46 65.4698C40.18 65.4298 39.91 65.3698 39.64 65.3098L37.49 67.7898L36.56 67.4098L36.8 64.1298C36.56 63.9898 36.33 63.8298 36.1 63.6598L33.16 65.1398L32.46 64.4298L33.93 61.4898C33.76 61.2598 33.6 61.0298 33.46 60.7898L30.18 61.0298L29.8 60.0998L32.28 57.9498C32.2152 57.6789 32.1618 57.4053 32.12 57.1298L29 56.0898V55.0898L32.12 54.0498C32.16 53.7998 32.2 53.5598 32.26 53.3198L29.8 51.0798L30.18 50.1498L33.51 50.3098C33.62 50.1198 33.74 49.9398 33.87 49.7698L32.45 46.7498L33.16 46.0498L36.18 47.4598C36.35 47.3298 36.53 47.2098 36.72 47.0998L36.56 43.7698L37.49 43.3898L39.73 45.8498C39.73 45.8498 40.15 45.7498 40.37 45.7198L41.5 42.5898H42.5ZM42 53.5898C41.4696 53.5898 40.9609 53.8006 40.5858 54.1756C40.2107 54.5507 40 55.0594 40 55.5898C40 56.1203 40.2107 56.629 40.5858 57.0041C40.9609 57.3791 41.4696 57.5898 42 57.5898C42.5304 57.5898 43.0391 57.3791 43.4142 57.0041C43.7893 56.629 44 56.1203 44 55.5898C44 55.0594 43.7893 54.5507 43.4142 54.1756C43.0391 53.8006 42.5304 53.5898 42 53.5898Z" fill="#CCFFFF"/>
</g>
</svg>
