<svg width="40" height="41" viewBox="0 0 40 41" fill="none" xmlns="http://www.w3.org/2000/svg">
<path fill-rule="evenodd" clip-rule="evenodd" d="M4 2.58984C1.79086 2.58984 0 4.3807 0 6.58984V26.5898C0 28.7989 1.79086 30.5898 4 30.5898H32C34.2091 30.5898 36 28.7989 36 26.5898V6.58984C36 4.3807 34.2091 2.58984 32 2.58984H4ZM4.5 8.58984C5.32843 8.58984 6 7.91827 6 7.08984C6 6.26141 5.32843 5.58984 4.5 5.58984C3.67157 5.58984 3 6.26141 3 7.08984C3 7.91827 3.67157 8.58984 4.5 8.58984ZM11 7.08984C11 7.91827 10.3284 8.58984 9.5 8.58984C8.67157 8.58984 8 7.91827 8 7.08984C8 6.26141 8.67157 5.58984 9.5 5.58984C10.3284 5.58984 11 6.26141 11 7.08984ZM14.5 8.58984C15.3284 8.58984 16 7.91827 16 7.08984C16 6.26141 15.3284 5.58984 14.5 5.58984C13.6716 5.58984 13 6.26141 13 7.08984C13 7.91827 13.6716 8.58984 14.5 8.58984Z" fill="#00D4FF"/>
<path fill-rule="evenodd" clip-rule="evenodd" d="M24.5573 17.5898C24.2261 17.5898 23.9341 17.8071 23.839 18.1243L18.289 36.6243C18.1446 37.1055 18.5049 37.5898 19.0073 37.5898H21.4413C21.7725 37.5898 22.0645 37.3725 22.1597 37.0553L27.7097 18.5553C27.854 18.0741 27.4937 17.5898 26.9913 17.5898H24.5573ZM13.7428 20.2909C14.0238 19.9866 14.4983 19.9676 14.8026 20.2485L16.6396 21.9442C16.944 22.2252 16.963 22.6997 16.682 23.004L12.443 27.5964L16.682 32.1887C16.963 32.4931 16.944 32.9676 16.6396 33.2485L14.8026 34.9442C14.4983 35.2252 14.0238 35.2062 13.7428 34.9018L7.46892 28.1051C7.20372 27.8178 7.20373 27.375 7.46892 27.0877L13.7428 20.2909ZM32.2558 20.2909C31.9749 19.9866 31.5004 19.9676 31.196 20.2485L29.359 21.9442C29.0546 22.2252 29.0357 22.6997 29.3166 23.004L33.5557 27.5964L29.3166 32.1887C29.0357 32.4931 29.0546 32.9676 29.359 33.2485L31.196 34.9442C31.5004 35.2252 31.9749 35.2062 32.2558 34.9018L38.5297 28.1051C38.7949 27.8178 38.7949 27.375 38.5297 27.0877L32.2558 20.2909Z" fill="#7A73FF"/>
<mask id="mask0_4003_1717" style="mask-type:luminance" maskUnits="userSpaceOnUse" x="0" y="2" width="36" height="29">
<path fill-rule="evenodd" clip-rule="evenodd" d="M4 2.58984C1.79086 2.58984 0 4.3807 0 6.58984V26.5898C0 28.7989 1.79086 30.5898 4 30.5898H32C34.2091 30.5898 36 28.7989 36 26.5898V6.58984C36 4.3807 34.2091 2.58984 32 2.58984H4ZM4.5 8.58984C5.32843 8.58984 6 7.91827 6 7.08984C6 6.26141 5.32843 5.58984 4.5 5.58984C3.67157 5.58984 3 6.26141 3 7.08984C3 7.91827 3.67157 8.58984 4.5 8.58984ZM11 7.08984C11 7.91827 10.3284 8.58984 9.5 8.58984C8.67157 8.58984 8 7.91827 8 7.08984C8 6.26141 8.67157 5.58984 9.5 5.58984C10.3284 5.58984 11 6.26141 11 7.08984ZM14.5 8.58984C15.3284 8.58984 16 7.91827 16 7.08984C16 6.26141 15.3284 5.58984 14.5 5.58984C13.6716 5.58984 13 6.26141 13 7.08984C13 7.91827 13.6716 8.58984 14.5 8.58984Z" fill="white"/>
</mask>
<g mask="url(#mask0_4003_1717)">
<path fill-rule="evenodd" clip-rule="evenodd" d="M24.5573 17.5898C24.2261 17.5898 23.9341 17.8071 23.839 18.1243L18.289 36.6243C18.1446 37.1055 18.5049 37.5898 19.0073 37.5898H21.4413C21.7725 37.5898 22.0645 37.3725 22.1597 37.0553L27.7097 18.5553C27.854 18.0741 27.4937 17.5898 26.9913 17.5898H24.5573ZM13.7428 20.2909C14.0238 19.9866 14.4983 19.9676 14.8026 20.2485L16.6396 21.9442C16.944 22.2252 16.963 22.6997 16.682 23.004L12.443 27.5964L16.682 32.1887C16.963 32.4931 16.944 32.9676 16.6396 33.2485L14.8026 34.9442C14.4983 35.2252 14.0238 35.2062 13.7428 34.9018L7.46892 28.1051C7.20372 27.8178 7.20373 27.375 7.46892 27.0877L13.7428 20.2909ZM32.2558 20.2909C31.9749 19.9866 31.5004 19.9676 31.196 20.2485L29.359 21.9442C29.0546 22.2252 29.0357 22.6997 29.3166 23.004L33.5557 27.5964L29.3166 32.1887C29.0357 32.4931 29.0546 32.9676 29.359 33.2485L31.196 34.9442C31.5004 35.2252 31.9749 35.2062 32.2558 34.9018L38.5297 28.1051C38.7949 27.8178 38.7949 27.375 38.5297 27.0877L32.2558 20.2909Z" fill="#CCFFFF"/>
</g>
</svg>
