<svg width="96" height="97" viewBox="0 0 96 97" fill="none" xmlns="http://www.w3.org/2000/svg">
<path d="M42 39.7397V50.6297C42 51.3931 41.7815 52.1405 41.3704 52.7838C40.9593 53.427 40.3728 53.9391 39.68 54.2597L30.68 58.4097C30.1535 58.6534 29.5802 58.7797 29 58.7797C28.4198 58.7797 27.8465 58.6534 27.32 58.4097L18.32 54.2597C17.6272 53.9391 17.0407 53.427 16.6296 52.7838C16.2185 52.1405 16 51.3931 16 50.6297V39.7397C16.0023 39.1812 16.1215 38.6294 16.35 38.1197L29 43.9597L41.65 38.1197C41.8785 38.6294 41.9977 39.1812 42 39.7397ZM30.68 31.9597L39.68 36.1097C40.1168 36.3137 40.5132 36.5948 40.85 36.9397L29 42.4097L17.14 36.9397C17.4798 36.5938 17.8796 36.3126 18.32 36.1097L27.32 31.9597C27.8465 31.7161 28.4198 31.5898 29 31.5898C29.5802 31.5898 30.1535 31.7161 30.68 31.9597Z" fill="#00D4FF"/>
<path d="M55 45.7397V56.6297C55 57.3931 54.7815 58.1405 54.3704 58.7838C53.9593 59.427 53.3728 59.9391 52.68 60.2597L43.68 64.4097C43.1535 64.6534 42.5802 64.7797 42 64.7797C41.4198 64.7797 40.8465 64.6534 40.32 64.4097L31.32 60.2597C30.6272 59.9391 30.0407 59.427 29.6296 58.7838C29.2185 58.1405 29 57.3931 29 56.6297V45.7397C29.0023 45.1812 29.1215 44.6294 29.35 44.1197L42 49.9597L54.65 44.1197C54.8785 44.6294 54.9977 45.1812 55 45.7397ZM43.68 37.9597L52.68 42.1097C53.1168 42.3137 53.5132 42.5948 53.85 42.9397L42 48.4097L30.14 42.9397C30.4798 42.5938 30.8796 42.3126 31.32 42.1097L40.32 37.9597C40.8465 37.7161 41.4198 37.5898 42 37.5898C42.5802 37.5898 43.1535 37.7161 43.68 37.9597Z" fill="#7A73FF"/>
<mask id="mask0_4003_1674" style="mask-type:luminance" maskUnits="userSpaceOnUse" x="-36" y="7" width="78" height="52">
<path d="M42 39.7397V50.6297C42 51.3931 41.7815 52.1405 41.3704 52.7838C40.9593 53.427 40.3728 53.9391 39.68 54.2597L30.68 58.4097C30.1535 58.6534 29.5802 58.7797 29 58.7797C28.4198 58.7797 27.8465 58.6534 27.32 58.4097L18.32 54.2597C17.6272 53.9391 17.0407 53.427 16.6296 52.7838C16.2185 52.1405 16 51.3931 16 50.6297V39.7397C16.0023 39.1812 16.1215 38.6294 16.35 38.1197L29 43.9597L41.65 38.1197C41.8785 38.6294 41.9977 39.1812 42 39.7397ZM30.68 31.9597L39.68 36.1097C40.1168 36.3137 40.5132 36.5948 40.85 36.9397L29 42.4097L17.14 36.9397C17.4798 36.5938 17.8796 36.3126 18.32 36.1097L27.32 31.9597C27.8465 31.7161 28.4198 31.5898 29 31.5898C29.5802 31.5898 30.1535 31.7161 30.68 31.9597Z" fill="white"/>
</mask>
<g mask="url(#mask0_4003_1674)">
<path d="M55 45.7397V56.6297C55 57.3931 54.7815 58.1405 54.3704 58.7838C53.9593 59.427 53.3728 59.9391 52.68 60.2597L43.68 64.4097C43.1535 64.6534 42.5802 64.7797 42 64.7797C41.4198 64.7797 40.8465 64.6534 40.32 64.4097L31.32 60.2597C30.6272 59.9391 30.0407 59.427 29.6296 58.7838C29.2185 58.1405 29 57.3931 29 56.6297V45.7397C29.0023 45.1812 29.1215 44.6294 29.35 44.1197L42 49.9597L54.65 44.1197C54.8785 44.6294 54.9977 45.1812 55 45.7397ZM43.68 37.9597L52.68 42.1097C53.1168 42.3137 53.5132 42.5948 53.85 42.9397L42 48.4097L30.14 42.9397C30.4798 42.5938 30.8796 42.3126 31.32 42.1097L40.32 37.9597C40.8465 37.7161 41.4198 37.5898 42 37.5898C42.5802 37.5898 43.1535 37.7161 43.68 37.9597Z" fill="#CCFFFF"/>
</g>
</svg>
