<svg width="40" height="41" viewBox="0 0 40 41" fill="none" xmlns="http://www.w3.org/2000/svg">
<path fill-rule="evenodd" clip-rule="evenodd" d="M4 2.58984C1.79086 2.58984 0 4.3807 0 6.58984V26.5898C0 28.7989 1.79086 30.5898 4 30.5898H32C34.2091 30.5898 36 28.7989 36 26.5898V6.58984C36 4.3807 34.2091 2.58984 32 2.58984H4ZM4.5 8.58984C5.32843 8.58984 6 7.91827 6 7.08984C6 6.26141 5.32843 5.58984 4.5 5.58984C3.67157 5.58984 3 6.26141 3 7.08984C3 7.91827 3.67157 8.58984 4.5 8.58984ZM11 7.08984C11 7.91827 10.3284 8.58984 9.5 8.58984C8.67157 8.58984 8 7.91827 8 7.08984C8 6.26141 8.67157 5.58984 9.5 5.58984C10.3284 5.58984 11 6.26141 11 7.08984ZM14.5 8.58984C15.3284 8.58984 16 7.91827 16 7.08984C16 6.26141 15.3284 5.58984 14.5 5.58984C13.6716 5.58984 13 6.26141 13 7.08984C13 7.91827 13.6716 8.58984 14.5 8.58984Z" fill="#00D4FF"/>
<path fill-rule="evenodd" clip-rule="evenodd" d="M40 19.0898C40 16.0522 37.5376 13.5898 34.5 13.5898H17.5C14.4624 13.5898 12 16.0522 12 19.0898C12 22.1274 14.4624 24.5898 17.5 24.5898H34.5C37.5376 24.5898 40 22.1274 40 19.0898ZM14 19.0898C14 21.0228 15.567 22.5898 17.5 22.5898C19.433 22.5898 21 21.0228 21 19.0898C21 17.1568 19.433 15.5898 17.5 15.5898C15.567 15.5898 14 17.1568 14 19.0898ZM12 32.0898C12 29.0522 14.4624 26.5898 17.5 26.5898H34.5C37.5376 26.5898 40 29.0522 40 32.0898C40 35.1274 37.5376 37.5898 34.5 37.5898H17.5C14.4624 37.5898 12 35.1274 12 32.0898ZM31 32.0898C31 34.0228 32.567 35.5898 34.5 35.5898C36.433 35.5898 38 34.0228 38 32.0898C38 30.1568 36.433 28.5898 34.5 28.5898C32.567 28.5898 31 30.1568 31 32.0898Z" fill="#7A73FF"/>
<mask id="mask0_4003_1649" style="mask-type:luminance" maskUnits="userSpaceOnUse" x="0" y="2" width="36" height="29">
<path fill-rule="evenodd" clip-rule="evenodd" d="M4 2.58984C1.79086 2.58984 0 4.3807 0 6.58984V26.5898C0 28.7989 1.79086 30.5898 4 30.5898H32C34.2091 30.5898 36 28.7989 36 26.5898V6.58984C36 4.3807 34.2091 2.58984 32 2.58984H4ZM4.5 8.58984C5.32843 8.58984 6 7.91827 6 7.08984C6 6.26141 5.32843 5.58984 4.5 5.58984C3.67157 5.58984 3 6.26141 3 7.08984C3 7.91827 3.67157 8.58984 4.5 8.58984ZM11 7.08984C11 7.91827 10.3284 8.58984 9.5 8.58984C8.67157 8.58984 8 7.91827 8 7.08984C8 6.26141 8.67157 5.58984 9.5 5.58984C10.3284 5.58984 11 6.26141 11 7.08984ZM14.5 8.58984C15.3284 8.58984 16 7.91827 16 7.08984C16 6.26141 15.3284 5.58984 14.5 5.58984C13.6716 5.58984 13 6.26141 13 7.08984C13 7.91827 13.6716 8.58984 14.5 8.58984Z" fill="white"/>
</mask>
<g mask="url(#mask0_4003_1649)">
<path fill-rule="evenodd" clip-rule="evenodd" d="M40 19.0898C40 16.0522 37.5376 13.5898 34.5 13.5898H17.5C14.4624 13.5898 12 16.0522 12 19.0898C12 22.1274 14.4624 24.5898 17.5 24.5898H34.5C37.5376 24.5898 40 22.1274 40 19.0898ZM14 19.0898C14 21.0228 15.567 22.5898 17.5 22.5898C19.433 22.5898 21 21.0228 21 19.0898C21 17.1568 19.433 15.5898 17.5 15.5898C15.567 15.5898 14 17.1568 14 19.0898ZM12 32.0898C12 29.0522 14.4624 26.5898 17.5 26.5898H34.5C37.5376 26.5898 40 29.0522 40 32.0898C40 35.1274 37.5376 37.5898 34.5 37.5898H17.5C14.4624 37.5898 12 35.1274 12 32.0898ZM31 32.0898C31 34.0228 32.567 35.5898 34.5 35.5898C36.433 35.5898 38 34.0228 38 32.0898C38 30.1568 36.433 28.5898 34.5 28.5898C32.567 28.5898 31 30.1568 31 32.0898Z" fill="#CCFFFF"/>
</g>
</svg>
