<svg width="508" height="560" viewBox="0 0 508 560" fill="none" xmlns="http://www.w3.org/2000/svg">
<g filter="url(#filter0_dd_4003_11899)">
<rect x="80.8569" y="30.8574" width="347" height="213" rx="14" fill="white" fill-opacity="0.01" shape-rendering="crispEdges"/>
</g>
<mask id="mask0_4003_11899" style="mask-type:luminance" maskUnits="userSpaceOnUse" x="79" y="29" width="350" height="217">
<path d="M414.201 29.8574H94.5131C86.4187 29.8574 79.8569 36.4192 79.8569 44.5136V230.463C79.8569 238.558 86.4187 245.119 94.5131 245.119H414.201C422.295 245.119 428.857 238.558 428.857 230.463V44.5136C428.857 36.4192 422.295 29.8574 414.201 29.8574Z" fill="white"/>
</mask>
<g mask="url(#mask0_4003_11899)">
<path d="M414.683 29.8574H94.0306C86.2027 29.8574 79.8569 36.2032 79.8569 44.0311V230.946C79.8569 238.774 86.2027 245.119 94.0306 245.119H414.683C422.511 245.119 428.857 238.774 428.857 230.946V44.0311C428.857 36.2032 422.511 29.8574 414.683 29.8574Z" fill="black"/>
<mask id="mask1_4003_11899" style="mask-type:alpha" maskUnits="userSpaceOnUse" x="79" y="29" width="350" height="217">
<path d="M428.857 29.8574H79.8569V245.119H428.857V29.8574Z" fill="white"/>
</mask>
<g mask="url(#mask1_4003_11899)">
<mask id="mask2_4003_11899" style="mask-type:luminance" maskUnits="userSpaceOnUse" x="343" y="186" width="72" height="45">
<path d="M414.771 186.857H343.665V230.801H414.771V186.857Z" fill="white"/>
</mask>
<g mask="url(#mask2_4003_11899)">
<path d="M388.836 191.555H369.603V226.105H388.836V191.555Z" fill="#F16122"/>
<path d="M370.828 208.836C370.828 201.826 374.103 195.582 379.218 191.554C375.483 188.613 370.758 186.857 365.643 186.857C353.504 186.857 343.665 196.697 343.665 208.836C343.665 220.975 353.504 230.815 365.643 230.815C370.772 230.815 375.483 229.058 379.218 226.118C374.103 222.09 370.828 215.846 370.828 208.836Z" fill="#ED1C24"/>
<path d="M412.664 222.454V221.744H412.943V221.604H412.218V221.744H412.497V222.454H412.65H412.664ZM414.072 222.454V221.604H413.849L413.599 222.189L413.347 221.604H413.124V222.454H413.278V221.813L413.515 222.37H413.682L413.919 221.813V222.454H414.072Z" fill="#F99F1C"/>
<path d="M414.771 208.836C414.771 220.975 404.931 230.815 392.792 230.815C387.663 230.815 382.952 229.058 379.217 226.118C384.332 222.09 387.607 215.846 387.607 208.836C387.607 201.826 384.332 195.582 379.217 191.554C382.952 188.613 387.677 186.857 392.792 186.857C404.931 186.857 414.771 196.697 414.771 208.836Z" fill="#F99F1C"/>
</g>
<path d="M347.835 164.002C348.294 164.002 348.724 164.085 349.113 164.252C349.516 164.419 349.849 164.655 350.113 164.988L349.252 165.905C349.029 165.696 348.808 165.544 348.571 165.432C348.335 165.321 348.071 165.266 347.779 165.266C347.529 165.266 347.28 165.308 347.057 165.405C346.835 165.502 346.641 165.627 346.487 165.808C346.321 165.974 346.196 166.183 346.112 166.433C346.015 166.669 345.974 166.933 345.974 167.224C345.974 167.516 346.015 167.78 346.112 168.017C346.21 168.253 346.335 168.461 346.487 168.641C346.654 168.808 346.835 168.947 347.057 169.044C347.28 169.141 347.516 169.183 347.779 169.183C348.071 169.183 348.349 169.127 348.599 169.003C348.849 168.877 349.085 168.725 349.28 168.544L350.099 169.461C349.822 169.781 349.488 170.03 349.085 170.197C348.697 170.364 348.266 170.447 347.807 170.447C347.321 170.447 346.877 170.364 346.487 170.197C346.085 170.03 345.752 169.808 345.473 169.517C345.196 169.225 344.974 168.891 344.821 168.502C344.668 168.114 344.585 167.683 344.585 167.224C344.585 166.766 344.668 166.336 344.821 165.947C344.974 165.558 345.196 165.21 345.473 164.933C345.752 164.641 346.099 164.419 346.487 164.252C346.89 164.085 347.321 164.002 347.807 164.002H347.835Z" fill="white"/>
<path d="M354.335 164.002C354.808 164.002 355.252 164.085 355.655 164.252C356.058 164.419 356.405 164.641 356.696 164.933C356.988 165.224 357.225 165.558 357.391 165.947C357.558 166.336 357.641 166.766 357.641 167.224C357.641 167.683 357.558 168.114 357.391 168.502C357.225 168.891 356.988 169.239 356.696 169.517C356.405 169.808 356.058 170.03 355.655 170.197C355.252 170.364 354.821 170.447 354.335 170.447C353.849 170.447 353.419 170.364 353.016 170.197C352.613 170.03 352.266 169.808 351.974 169.517C351.683 169.225 351.446 168.891 351.293 168.502C351.127 168.114 351.044 167.683 351.044 167.224C351.044 166.766 351.127 166.336 351.293 165.947C351.46 165.558 351.683 165.21 351.974 164.933C352.266 164.641 352.613 164.419 353.016 164.252C353.419 164.085 353.863 164.002 354.335 164.002ZM354.335 165.266C354.058 165.266 353.807 165.308 353.571 165.405C353.335 165.502 353.141 165.627 352.96 165.808C352.793 165.974 352.654 166.183 352.557 166.433C352.46 166.669 352.405 166.933 352.405 167.224C352.405 167.516 352.46 167.78 352.557 168.017C352.654 168.253 352.793 168.461 352.96 168.641C353.127 168.808 353.335 168.947 353.571 169.044C353.807 169.141 354.058 169.183 354.335 169.183C354.613 169.183 354.863 169.141 355.099 169.044C355.335 168.947 355.53 168.808 355.71 168.641C355.877 168.475 356.016 168.266 356.113 168.017C356.21 167.78 356.266 167.516 356.266 167.224C356.266 166.933 356.21 166.669 356.113 166.433C356.016 166.197 355.877 165.988 355.71 165.808C355.543 165.627 355.335 165.502 355.099 165.405C354.863 165.308 354.613 165.266 354.335 165.266Z" fill="white"/>
<path d="M366.85 164.002C367.211 164.002 367.545 164.058 367.85 164.183C368.156 164.307 368.42 164.474 368.642 164.682C368.864 164.891 369.031 165.155 369.156 165.447C369.281 165.738 369.337 166.071 369.337 166.433V170.28H367.989V166.877C367.989 166.363 367.865 165.961 367.614 165.683C367.364 165.405 367.017 165.266 366.559 165.266C366.337 165.266 366.142 165.308 365.947 165.377C365.753 165.447 365.586 165.544 365.447 165.683C365.308 165.822 365.197 165.988 365.1 166.197C365.017 166.405 364.975 166.627 364.975 166.891V170.28H363.628V166.877C363.628 166.363 363.503 165.961 363.253 165.683C363.003 165.405 362.655 165.266 362.197 165.266C361.975 165.266 361.78 165.308 361.586 165.377C361.392 165.447 361.225 165.544 361.086 165.683C360.947 165.822 360.836 165.988 360.738 166.197C360.655 166.405 360.614 166.627 360.614 166.891V170.28H359.266V164.155H360.599V164.905C360.725 164.725 360.863 164.571 361.017 164.461C361.169 164.35 361.322 164.252 361.489 164.183C361.655 164.113 361.822 164.071 361.988 164.044C362.155 164.016 362.322 164.002 362.475 164.002C362.947 164.002 363.364 164.099 363.725 164.294C364.086 164.488 364.378 164.752 364.586 165.1C364.711 164.877 364.878 164.697 365.059 164.558C365.239 164.419 365.419 164.307 365.628 164.224C365.822 164.141 366.031 164.086 366.239 164.058C366.448 164.03 366.642 164.016 366.836 164.016L366.85 164.002Z" fill="white"/>
<path d="M378.923 164.002C379.284 164.002 379.617 164.058 379.923 164.183C380.228 164.307 380.492 164.474 380.715 164.682C380.937 164.891 381.103 165.155 381.229 165.447C381.353 165.738 381.409 166.071 381.409 166.433V170.28H380.061V166.877C380.061 166.363 379.937 165.961 379.686 165.683C379.437 165.405 379.09 165.266 378.631 165.266C378.409 165.266 378.214 165.308 378.02 165.377C377.825 165.447 377.659 165.544 377.519 165.683C377.381 165.822 377.27 165.988 377.172 166.197C377.089 166.405 377.048 166.627 377.048 166.891V170.28H375.7V166.877C375.7 166.363 375.575 165.961 375.325 165.683C375.075 165.405 374.728 165.266 374.27 165.266C374.047 165.266 373.852 165.308 373.659 165.377C373.464 165.447 373.297 165.544 373.158 165.683C373.019 165.822 372.908 165.988 372.811 166.197C372.728 166.405 372.686 166.627 372.686 166.891V170.28H371.338V164.155H372.672V164.905C372.797 164.725 372.936 164.571 373.089 164.461C373.241 164.35 373.394 164.252 373.561 164.183C373.728 164.113 373.895 164.071 374.061 164.044C374.227 164.016 374.394 164.002 374.547 164.002C375.02 164.002 375.436 164.099 375.798 164.294C376.158 164.488 376.45 164.752 376.659 165.1C376.784 164.877 376.95 164.697 377.131 164.558C377.311 164.419 377.492 164.307 377.7 164.224C377.895 164.141 378.103 164.086 378.312 164.058C378.52 164.03 378.715 164.016 378.908 164.016L378.923 164.002Z" fill="white"/>
<path d="M386.049 164.002C386.479 164.002 386.868 164.085 387.215 164.238C387.576 164.391 387.882 164.613 388.132 164.891C388.382 165.169 388.577 165.516 388.729 165.905C388.868 166.294 388.938 166.738 388.938 167.211C388.938 167.294 388.938 167.377 388.938 167.461C388.938 167.544 388.938 167.627 388.924 167.711H384.395C384.437 167.989 384.521 168.225 384.632 168.419C384.743 168.613 384.882 168.78 385.048 168.905C385.215 169.031 385.396 169.127 385.59 169.183C385.784 169.239 385.993 169.267 386.215 169.267C386.521 169.267 386.826 169.211 387.132 169.1C387.438 168.988 387.73 168.822 387.979 168.628L388.646 169.586C388.271 169.905 387.868 170.128 387.451 170.253C387.035 170.377 386.59 170.447 386.132 170.447C385.674 170.447 385.257 170.377 384.868 170.211C384.479 170.058 384.159 169.836 383.882 169.558C383.604 169.28 383.396 168.933 383.243 168.544C383.09 168.141 383.006 167.711 383.006 167.224C383.006 166.738 383.076 166.308 383.229 165.919C383.381 165.516 383.59 165.183 383.854 164.905C384.118 164.627 384.437 164.405 384.813 164.252C385.188 164.099 385.604 164.016 386.049 164.016V164.002ZM386.021 165.197C385.784 165.197 385.576 165.238 385.382 165.308C385.201 165.377 385.035 165.488 384.909 165.613C384.77 165.752 384.659 165.905 384.576 166.099C384.493 166.28 384.437 166.489 384.395 166.71H387.576C387.507 166.238 387.34 165.863 387.063 165.599C386.799 165.336 386.451 165.197 386.021 165.197Z" fill="white"/>
<path d="M393.701 164.002C393.909 164.002 394.09 164.016 394.256 164.044C394.423 164.071 394.576 164.113 394.729 164.169L394.409 165.488C394.27 165.419 394.103 165.363 393.923 165.321C393.728 165.28 393.562 165.266 393.395 165.266C393.187 165.266 392.993 165.308 392.812 165.377C392.631 165.447 392.478 165.558 392.354 165.696C392.228 165.835 392.131 166.016 392.048 166.21C391.979 166.419 391.936 166.641 391.936 166.905V170.267H390.603V164.155H391.923V164.849C392.131 164.558 392.381 164.335 392.687 164.21C392.993 164.071 393.325 164.002 393.701 164.002Z" fill="white"/>
<path d="M398.605 164.002C399.064 164.002 399.495 164.085 399.884 164.252C400.286 164.419 400.62 164.655 400.883 164.988L400.022 165.905C399.801 165.696 399.578 165.544 399.342 165.432C399.106 165.321 398.842 165.266 398.55 165.266C398.3 165.266 398.05 165.308 397.828 165.405C397.606 165.502 397.411 165.627 397.259 165.808C397.092 165.974 396.967 166.183 396.884 166.433C396.786 166.669 396.744 166.933 396.744 167.224C396.744 167.516 396.786 167.78 396.884 168.017C396.98 168.253 397.105 168.461 397.259 168.641C397.425 168.808 397.606 168.947 397.828 169.044C398.05 169.141 398.286 169.183 398.55 169.183C398.842 169.183 399.119 169.127 399.37 169.003C399.62 168.877 399.856 168.725 400.05 168.544L400.87 169.461C400.592 169.781 400.259 170.03 399.856 170.197C399.467 170.364 399.036 170.447 398.578 170.447C398.092 170.447 397.647 170.364 397.259 170.197C396.856 170.03 396.522 169.808 396.245 169.517C395.966 169.225 395.744 168.891 395.591 168.502C395.439 168.114 395.355 167.683 395.355 167.224C395.355 166.766 395.439 166.336 395.591 165.947C395.744 165.558 395.966 165.21 396.245 164.933C396.522 164.641 396.869 164.419 397.259 164.252C397.661 164.085 398.092 164.002 398.578 164.002H398.605Z" fill="white"/>
<path d="M403.729 170.279H402.382V164.154H403.729V170.279Z" fill="white"/>
<path d="M411.701 170.28H410.368V169.544C410.16 169.822 409.896 170.03 409.577 170.197C409.257 170.364 408.882 170.433 408.451 170.433C408.021 170.433 407.618 170.35 407.256 170.197C406.881 170.044 406.562 169.808 406.285 169.53C406.006 169.239 405.784 168.905 405.631 168.516C405.479 168.127 405.395 167.697 405.395 167.224C405.395 166.752 405.479 166.322 405.631 165.932C405.784 165.544 406.006 165.197 406.285 164.918C406.562 164.627 406.881 164.405 407.256 164.252C407.631 164.099 408.021 164.016 408.451 164.016C408.882 164.016 409.271 164.099 409.577 164.266C409.896 164.432 410.16 164.641 410.368 164.918V164.183H411.701V170.28ZM408.604 165.252C408.312 165.252 408.062 165.308 407.826 165.405C407.604 165.516 407.41 165.655 407.243 165.821C407.09 166.002 406.965 166.21 406.881 166.446C406.798 166.682 406.757 166.933 406.757 167.211C406.757 167.488 406.798 167.739 406.881 167.975C406.965 168.21 407.09 168.419 407.243 168.6C407.395 168.78 407.59 168.919 407.826 169.016C408.049 169.113 408.312 169.169 408.604 169.169C408.896 169.169 409.132 169.113 409.354 169.016C409.577 168.919 409.771 168.78 409.937 168.6C410.104 168.419 410.229 168.225 410.312 167.975C410.396 167.739 410.451 167.475 410.451 167.197C410.451 166.919 410.41 166.655 410.312 166.419C410.229 166.183 410.104 165.975 409.937 165.794C409.771 165.613 409.577 165.488 409.354 165.377C409.132 165.28 408.882 165.224 408.604 165.224V165.252Z" fill="white"/>
<path d="M415.148 170.277H413.8V161.652H415.148V170.277Z" fill="white"/>
<path d="M403.048 161.447C403.173 161.447 403.299 161.475 403.423 161.516C403.534 161.572 403.631 161.628 403.729 161.711C403.812 161.795 403.882 161.891 403.923 162.016C403.979 162.127 403.993 162.253 403.993 162.392C403.993 162.53 403.965 162.642 403.923 162.766C403.868 162.878 403.812 162.975 403.729 163.058C403.646 163.141 403.548 163.211 403.423 163.253C403.299 163.295 403.187 163.323 403.048 163.323C402.909 163.323 402.798 163.295 402.673 163.253C402.548 163.211 402.465 163.141 402.381 163.058C402.298 162.975 402.229 162.878 402.187 162.766C402.146 162.656 402.118 162.53 402.118 162.392C402.118 162.253 402.146 162.142 402.187 162.016C402.229 161.906 402.298 161.808 402.381 161.711C402.465 161.628 402.562 161.558 402.673 161.516C402.784 161.461 402.909 161.447 403.048 161.447Z" fill="white"/>
<path d="M302.814 62.4218L307.717 57.5852H305.035L298.132 64.5542V57.5852H296.263V71.831H298.132V66.8626L300.462 64.6861L301.231 63.9387C302.396 64.6861 304.903 66.9066 304.969 71.853H307.123C307.057 66.4229 304.441 63.6309 302.814 62.4218ZM318.09 57.5852H315.43L310.065 71.831H312.044L313.583 67.5661H319.695L321.146 71.831H323.256L318.09 57.5852ZM314.133 66.0052L316.419 59.6957H316.947L319.079 66.0052H314.133ZM334.296 57.5852L330.251 69.7205H329.943L325.92 57.5852H323.788L328.976 71.831H331.262L336.45 57.5852H334.296ZM349.507 57.5852V63.477H341.702V57.5852H339.768V71.831H341.702V65.1698H349.507V71.831H351.463V57.5852H349.507ZM362.402 57.1895C358.334 57.1895 355.279 60.5531 355.279 64.6861C355.279 68.8192 358.334 72.1828 362.402 72.1828C366.469 72.1828 369.546 68.8192 369.546 64.6861C369.546 60.5531 366.469 57.1895 362.402 57.1895ZM362.402 70.4021C359.302 70.4021 357.257 67.8299 357.257 64.6861C357.257 61.5204 359.302 58.9702 362.402 58.9702C365.501 58.9702 367.546 61.5424 367.546 64.6861C367.546 67.8299 365.501 70.4021 362.402 70.4021ZM375.285 70.0723V57.5852H373.372V71.831H382.914V70.0723H375.285ZM397.36 57.5852L393.293 67.72L389.182 57.5852H386.192V71.831H388.017V63.433C388.017 63.0813 388.017 62.5537 387.995 61.8502C387.973 61.1247 387.973 60.1574 387.973 59.8056H388.171L388.215 59.8276L392.304 69.9184H394.216L398.306 59.8276C398.306 59.8496 398.525 59.8056 398.525 59.8496C398.525 60.5531 398.525 61.3445 398.525 61.9821C398.503 62.6416 398.503 63.1253 398.503 63.433V71.831H400.35V57.5852H397.36Z" fill="white"/>
<path d="M107.684 216.873C108.12 216.963 108.504 217.002 108.992 217.002C110.774 217.002 111.8 216.181 111.8 214.334V207.691H110.569V214.244C110.569 215.501 109.992 215.899 108.851 215.899C108.44 215.899 108.132 215.86 107.684 215.77V216.873ZM118.444 215.437V211.975C118.444 210.743 117.52 210.064 116.033 210.064C114.597 210.064 113.481 210.743 113.378 212.167H114.507C114.597 211.449 115.084 211.077 115.969 211.077C116.79 211.077 117.328 211.397 117.328 212.141V212.552L115.661 212.885C114.161 213.18 113.109 213.744 113.109 215.078C113.109 216.283 114.109 217.014 115.328 217.014C116.2 217.014 116.943 216.694 117.354 216.206C117.367 216.476 117.379 216.707 117.405 216.899H118.546C118.482 216.476 118.444 215.937 118.444 215.437ZM117.328 214.616C117.328 215.476 116.469 216.078 115.481 216.078C114.75 216.078 114.263 215.681 114.263 215.027C114.263 214.219 114.943 213.937 115.969 213.731L117.328 213.449V214.616ZM120.309 216.899H121.463V212.898C121.463 211.782 122.31 211.141 123.143 211.141C124.144 211.141 124.541 211.846 124.541 212.782V216.899H125.695V212.475C125.695 211.051 124.887 210.064 123.464 210.064C122.515 210.064 121.848 210.551 121.463 211.102V210.192H120.309V216.899ZM130.228 217.04C131.562 217.04 132.575 216.309 132.985 215.116L131.972 214.757C131.767 215.552 131.126 216.04 130.228 216.04C129.061 216.04 128.253 215.142 128.189 213.731H133.037V213.347C133.037 211.487 132.049 210.064 130.177 210.064C128.356 210.064 127.086 211.551 127.086 213.552C127.086 215.617 128.369 217.04 130.228 217.04ZM130.164 211.051C131.331 211.051 131.844 211.898 131.87 212.847H128.253C128.458 211.705 129.189 211.051 130.164 211.051ZM137.23 216.899H140.154C142.949 216.899 144.719 215.104 144.719 212.295C144.719 209.487 142.949 207.691 140.154 207.691H137.23V216.899ZM138.435 215.835V208.756H140.141C142.244 208.756 143.514 210.141 143.514 212.295C143.514 214.437 142.244 215.835 140.154 215.835H138.435ZM146.119 209.025H147.376V207.691H146.119V209.025ZM147.325 210.192H146.17V216.899H147.325V210.192ZM154.086 215.437V211.975C154.086 210.743 153.163 210.064 151.675 210.064C150.239 210.064 149.123 210.743 149.02 212.167H150.149C150.239 211.449 150.726 211.077 151.611 211.077C152.432 211.077 152.97 211.397 152.97 212.141V212.552L151.303 212.885C149.803 213.18 148.751 213.744 148.751 215.078C148.751 216.283 149.751 217.014 150.97 217.014C151.842 217.014 152.586 216.694 152.996 216.206C153.009 216.476 153.022 216.707 153.047 216.899H154.189C154.125 216.476 154.086 215.937 154.086 215.437ZM152.97 214.616C152.97 215.476 152.111 216.078 151.124 216.078C150.393 216.078 149.905 215.681 149.905 215.027C149.905 214.219 150.585 213.937 151.611 213.731L152.97 213.449V214.616ZM160.799 215.912H156.964L160.76 211.077V210.192H155.567V211.179H159.388L155.515 216.027V216.899H160.799V215.912Z" fill="white"/>
</g>
</g>
<g filter="url(#filter1_dd_4003_11899)">
<rect x="80.8569" y="123.857" width="347" height="213" rx="14" fill="white" fill-opacity="0.01" shape-rendering="crispEdges"/>
</g>
<mask id="mask3_4003_11899" style="mask-type:luminance" maskUnits="userSpaceOnUse" x="79" y="122" width="350" height="216">
<path d="M414.212 122.857H94.5017C86.4136 122.857 79.8569 129.414 79.8569 137.502V323.309C79.8569 331.397 86.4136 337.953 94.5017 337.953H414.212C422.3 337.953 428.857 331.397 428.857 323.309V137.502C428.857 129.414 422.3 122.857 414.212 122.857Z" fill="white"/>
</mask>
<g mask="url(#mask3_4003_11899)">
<path d="M79.8589 325.697C79.8589 332.438 85.5077 337.953 92.4138 337.953H416.303C423.209 337.953 428.859 332.438 428.859 325.697V135.115C428.859 128.373 423.209 122.857 416.303 122.857H92.4138C85.5077 122.857 79.8589 128.373 79.8589 135.115V325.697Z" fill="#27BB86"/>
<g style="mix-blend-mode:overlay" opacity="0.65">
<path d="M5.99268 227.424C26.0148 199.31 52.6887 180.895 91.8489 176.642C213.136 163.471 319.68 268.033 438.902 210.681" stroke="url(#paint0_linear_4003_11899)" stroke-linecap="round"/>
<path d="M6.34619 235.021C26.3683 206.908 53.0423 188.493 92.2024 184.24C213.49 171.068 320.033 275.631 439.255 218.279" stroke="url(#paint1_linear_4003_11899)" stroke-linecap="round"/>
<path d="M5.57568 221.588C25.5978 193.474 52.2717 175.059 91.4319 170.806C212.719 157.635 319.263 262.197 438.485 204.845" stroke="url(#paint2_linear_4003_11899)" stroke-linecap="round"/>
<path d="M3.62646 214.521C23.6486 186.408 50.3225 167.993 89.4827 163.74C210.77 150.568 317.313 255.13 436.536 197.779" stroke="url(#paint3_linear_4003_11899)" stroke-linecap="round"/>
<path d="M2.80029 208.281C22.8224 180.168 49.4964 161.752 88.6565 157.5C209.944 144.328 316.487 248.891 435.709 191.539" stroke="url(#paint4_linear_4003_11899)" stroke-linecap="round"/>
<path d="M1.97217 202.043C21.9943 173.929 48.6682 155.514 87.8284 151.261C209.116 138.09 315.659 242.652 434.881 185.3" stroke="url(#paint5_linear_4003_11899)" stroke-linecap="round"/>
<path d="M10.4185 260.722C30.4406 232.609 57.1145 214.194 96.2747 209.941C217.562 196.769 324.105 301.332 443.328 243.98" stroke="url(#paint6_linear_4003_11899)" stroke-linecap="round"/>
<path d="M10.772 268.32C30.7941 240.206 57.468 221.791 96.6282 217.539C217.916 204.367 324.459 308.929 443.681 251.577" stroke="url(#paint7_linear_4003_11899)" stroke-linecap="round"/>
<path d="M10.0015 254.887C30.0236 226.773 56.6975 208.358 95.8577 204.105C217.145 190.934 323.688 295.496 442.911 238.144" stroke="url(#paint8_linear_4003_11899)" stroke-linecap="round"/>
<path d="M8.05225 247.82C28.0742 219.707 54.7482 201.291 93.9084 197.039C215.196 183.867 321.739 288.429 440.961 231.077" stroke="url(#paint9_linear_4003_11899)" stroke-linecap="round"/>
<path d="M7.22607 241.579C27.2482 213.466 53.9221 195.051 93.0823 190.798C214.37 177.627 320.913 282.189 440.135 224.837" stroke="url(#paint10_linear_4003_11899)" stroke-linecap="round"/>
<path d="M6.39795 235.342C26.4199 207.228 53.094 188.813 92.2542 184.56C213.542 171.389 320.085 275.951 439.307 218.599" stroke="url(#paint11_linear_4003_11899)" stroke-linecap="round"/>
</g>
<path d="M107.857 310.058V300.857H109.087V308.981H113.675V310.058H107.857ZM119.757 308.597C119.757 309.097 119.795 309.635 119.86 310.058H118.72C118.693 309.829 118.676 309.598 118.668 309.366C118.258 309.853 117.515 310.173 116.643 310.173C115.426 310.173 114.426 309.443 114.426 308.238C114.426 306.905 115.477 306.341 116.976 306.047L118.642 305.714V305.304C118.642 304.56 118.104 304.24 117.284 304.24C116.4 304.24 115.913 304.612 115.824 305.329H114.696C114.798 303.907 115.913 303.228 117.348 303.228C118.834 303.228 119.758 303.907 119.758 305.137L119.757 308.597ZM118.642 307.777V306.611L117.284 306.892C116.259 307.098 115.58 307.379 115.58 308.187C115.58 308.84 116.067 309.237 116.797 309.237C117.784 309.237 118.642 308.635 118.642 307.777ZM122.313 306.713C122.313 308.238 123.133 309.186 124.325 309.186C125.247 309.186 125.798 308.597 125.991 307.764L127.016 308.238C126.696 309.353 125.722 310.199 124.325 310.199C122.454 310.199 121.16 308.776 121.16 306.713C121.16 304.637 122.454 303.228 124.325 303.228C125.722 303.228 126.67 304.035 126.99 305.15L125.99 305.65C125.798 304.829 125.248 304.227 124.325 304.227C123.133 304.227 122.313 305.175 122.313 306.713ZM128.279 310.058V300.857H129.432V304.266C129.654 303.942 129.953 303.678 130.301 303.497C130.65 303.316 131.038 303.223 131.431 303.228C132.853 303.228 133.661 304.214 133.661 305.637V310.058H132.507V305.944C132.507 305.009 132.11 304.304 131.11 304.304C130.277 304.304 129.432 304.945 129.432 306.06V310.058H128.277H128.279ZM136.665 300.857V310.058H135.511V300.857H136.665ZM143.421 308.597C143.421 309.097 143.459 309.635 143.523 310.058H142.383C142.357 309.829 142.34 309.598 142.332 309.366C141.922 309.853 141.178 310.173 140.307 310.173C139.09 310.173 138.09 309.443 138.09 308.238C138.09 306.905 139.14 306.341 140.64 306.047L142.306 305.714V305.304C142.306 304.56 141.768 304.24 140.948 304.24C140.063 304.24 139.577 304.612 139.487 305.329H138.359C138.462 303.907 139.577 303.228 141.012 303.228C142.498 303.228 143.421 303.907 143.421 305.137V308.597ZM142.306 307.777V306.611L140.948 306.892C139.923 307.098 139.243 307.379 139.243 308.187C139.243 308.84 139.73 309.237 140.461 309.237C141.447 309.237 142.306 308.635 142.306 307.777ZM145.285 310.058V303.356H146.438V304.266C146.66 303.942 146.959 303.677 147.308 303.496C147.657 303.315 148.045 303.223 148.438 303.228C149.859 303.228 150.667 304.214 150.667 305.637V310.058H149.513V305.944C149.513 305.009 149.116 304.304 148.117 304.304C147.284 304.304 146.438 304.945 146.438 306.06V310.058H145.285ZM155.272 310.058V300.857H158.668C160.616 300.857 161.654 301.716 161.654 303.253C161.654 304.432 160.936 305.022 160.231 305.265C161.269 305.547 161.961 306.354 161.961 307.52C161.961 309.122 160.795 310.058 158.937 310.058H155.272ZM156.464 304.804H158.565C159.795 304.804 160.475 304.33 160.475 303.356C160.475 302.369 159.795 301.895 158.565 301.895H156.464V304.804ZM156.464 305.855V309.02H158.886C160.116 309.02 160.782 308.379 160.782 307.431C160.782 306.495 160.116 305.855 158.886 305.855H156.464ZM166.877 303.33V304.496C166.692 304.46 166.503 304.442 166.314 304.445C165.34 304.445 164.558 305.214 164.558 306.393V310.058H163.405V303.356H164.557V304.496C164.852 303.817 165.506 303.305 166.415 303.305C166.595 303.305 166.761 303.317 166.877 303.33ZM173.639 306.713C173.639 308.789 172.357 310.199 170.525 310.199C168.692 310.199 167.411 308.789 167.411 306.713C167.411 304.637 168.692 303.228 170.525 303.228C172.357 303.228 173.639 304.637 173.639 306.713ZM168.577 306.713C168.577 308.238 169.346 309.212 170.525 309.212C171.704 309.212 172.473 308.238 172.473 306.713C172.473 305.175 171.703 304.202 170.525 304.202C169.346 304.202 168.577 305.175 168.577 306.713ZM178.171 303.356H179.145L180.529 308.353L181.926 303.356H183.079L181.041 310.058H180.029L178.632 305.086L177.236 310.058H176.223L174.186 303.356H175.378L176.788 308.341L178.171 303.356ZM184.203 310.058V303.356H185.356V304.266C185.578 303.942 185.877 303.678 186.225 303.497C186.574 303.316 186.962 303.224 187.355 303.228C188.778 303.228 189.585 304.214 189.585 305.637V310.058H188.432V305.944C188.432 305.009 188.034 304.304 187.035 304.304C186.202 304.304 185.356 304.945 185.356 306.06V310.058H184.203Z" fill="white"/>
<path fill-rule="evenodd" clip-rule="evenodd" d="M270.195 154.668C270.195 155.059 269.874 155.38 269.483 155.38H258.186C257.794 155.38 257.473 155.059 257.473 154.668C257.473 154.276 257.794 153.955 258.186 153.955H269.483C269.874 153.955 270.195 154.276 270.195 154.668ZM271.005 157.503C271.005 157.894 270.684 158.215 270.293 158.215H262.221C261.83 158.215 261.509 157.894 261.509 157.503C261.509 157.111 261.83 156.79 262.221 156.79H270.293C270.684 156.79 271.005 157.111 271.005 157.503ZM270.293 152.545H263.031C262.64 152.545 262.319 152.224 262.319 151.833C262.319 151.442 262.64 151.121 263.031 151.121H270.293C270.684 151.121 271.005 151.442 271.005 151.833C271.005 152.224 270.684 152.545 270.293 152.545ZM278.657 154.668C278.657 156.623 277.08 158.201 275.124 158.201C273.17 158.201 271.592 156.609 271.592 154.668C271.592 152.726 273.17 151.135 275.124 151.135C277.08 151.135 278.657 152.726 278.657 154.668ZM273.016 154.668C273.016 155.841 273.966 156.79 275.138 156.79C276.311 156.79 277.261 155.841 277.261 154.668C277.261 153.495 276.311 152.545 275.138 152.545C273.966 152.545 273.016 153.495 273.016 154.668ZM275.138 148.3C278.644 148.3 281.492 151.163 281.492 154.668C281.492 158.173 278.644 161.035 275.138 161.035H265.461C265.07 161.035 264.749 160.714 264.749 160.323C264.749 159.933 265.07 159.612 265.461 159.612H275.138C277.861 159.612 280.082 157.391 280.082 154.654C280.082 151.917 277.861 149.696 275.138 149.696H259.805C259.414 149.696 259.093 149.375 259.093 148.984C259.093 148.593 259.414 148.272 259.805 148.272H275.138V148.3ZM299.702 157.028V152.322C299.702 149.501 301.601 147.518 304.339 147.518C307.076 147.518 308.975 149.501 308.975 152.322V157.028C308.975 159.835 307.061 161.789 304.339 161.789C301.615 161.789 299.702 159.821 299.702 157.028ZM306.28 157.126V152.224C306.28 150.674 305.358 150.101 304.339 150.101C303.375 150.101 302.425 150.618 302.425 152.196V157.098C302.425 158.648 303.333 159.192 304.339 159.192C305.26 159.192 306.28 158.703 306.28 157.111V157.126ZM315.873 150.101C314.937 150.101 313.96 150.618 313.96 152.196V157.098C313.96 158.731 314.937 159.22 315.873 159.22C317.13 159.22 317.814 158.606 317.814 156.595V156.414H320.523C320.523 159.946 319.015 161.804 315.887 161.804C313.15 161.804 311.251 159.835 311.251 157.014V152.266C311.251 149.459 313.15 147.504 315.887 147.504C318.959 147.504 320.523 149.529 320.523 152.741H317.814V152.545C317.814 150.506 316.823 150.088 315.873 150.088V150.101ZM329.418 161.594L326.681 155.841H325.662V161.594H322.953V147.755H325.662V153.453H326.681L329.418 147.755H332.449L329 154.626L332.449 161.594H329.418ZM337.49 150.367V153.509H341.233V155.869H337.49V159.011H342.545V161.594H334.795V147.755H342.545V150.367H337.49ZM349.807 150.367V161.594H347.098V150.367H344.221V147.755H352.683V150.367H349.807ZM371.243 161.594V147.755H373.952V161.594H371.243ZM377.121 147.755H381.66C384.397 147.755 386.296 149.445 386.296 152.825V156.469C386.296 159.807 384.397 161.594 381.66 161.594H377.121V147.755ZM379.831 159.024H381.353C382.652 159.024 383.629 158.508 383.629 155.813V153.118C383.629 151.623 383.238 150.353 381.353 150.353H379.831V159.024ZM391.771 150.367V153.509H395.513V155.869H391.771V159.011H396.825V161.594H389.076V147.755H396.825V150.367H391.771ZM398.683 151.568C398.683 149.04 400.484 147.504 403.221 147.504C405.958 147.504 407.732 149.292 407.732 152.14H405.064C405.064 150.674 404.338 149.976 403.18 149.976C402.021 149.976 401.378 150.52 401.378 151.568C401.378 154.319 407.899 152.685 407.899 157.628C407.899 160.254 406.014 161.831 403.221 161.831C400.428 161.831 398.502 160.002 398.502 157.042H401.21C401.21 158.648 402.034 159.318 403.221 159.318C404.408 159.318 405.204 158.788 405.204 157.656C405.204 155.031 398.683 156.483 398.683 151.568ZM295.443 157.391L297.775 161.594H294.815L292.957 158.019L292.622 157.419H291.156V161.594H288.447V147.755H292.832C296.728 147.755 297.454 150.995 297.454 152.755C297.454 154.709 296.476 156.12 295.08 156.777C295.206 157 295.331 157.223 295.429 157.391H295.443ZM291.156 150.353V154.864H292.511C293.641 154.864 294.787 154.361 294.787 152.587C294.787 150.8 293.698 150.353 292.511 150.353H291.156ZM366.48 157.391L368.813 161.594H365.853L363.995 158.019L363.66 157.419H362.194V161.594H359.498V147.755H363.883C367.779 147.755 368.505 150.995 368.505 152.755C368.505 154.709 367.528 156.12 366.131 156.777C366.257 157 366.383 157.223 366.48 157.391ZM362.194 150.353V154.864H363.548C364.679 154.864 365.824 154.361 365.824 152.587C365.824 150.8 364.735 150.353 363.548 150.353H362.194Z" fill="white"/>
<path d="M372.328 295.285L367.453 318.704H361.532L366.408 295.285H372.328ZM396.882 310.417L400.017 301.59L401.758 310.417H396.882ZM403.499 318.704H408.898L404.196 295.285H399.146C398.101 295.285 397.056 296.005 396.708 297.086L388.001 318.704H394.096L395.315 315.281H402.803L403.499 318.704ZM388.175 310.958C388.175 304.833 379.991 304.472 379.991 301.77C380.165 300.509 381.21 299.788 382.429 299.788C384.344 299.608 386.434 299.969 388.175 300.869L389.22 295.825C387.479 295.105 385.563 294.744 383.822 294.744C378.075 294.744 373.896 297.987 373.896 302.491C373.896 305.914 376.856 307.715 378.946 308.796C381.21 309.877 382.08 310.598 381.906 311.678C381.906 313.3 380.165 314.02 378.423 314.02C376.334 314.02 374.244 313.48 372.328 312.579L371.284 317.623C373.373 318.524 375.637 318.884 377.727 318.884C384.17 319.065 388.175 315.822 388.175 310.958ZM363.97 295.285L354.566 318.704H348.297L343.595 299.969C343.595 299.068 342.899 298.347 342.202 297.987C340.461 297.086 338.545 296.366 336.456 296.005L336.63 295.285H346.556C347.949 295.285 348.994 296.366 349.168 297.627L351.606 311.138L357.875 295.285H363.97Z" fill="white"/>
</g>
<g filter="url(#filter2_dd_4003_11899)">
<rect x="80.8569" y="216.857" width="347" height="213" rx="14" fill="white" fill-opacity="0.01" shape-rendering="crispEdges"/>
</g>
<path d="M414.683 215.857H94.0306C86.2027 215.857 79.8569 222.203 79.8569 230.031V416.946C79.8569 424.774 86.2027 431.119 94.0306 431.119H414.683C422.511 431.119 428.857 424.774 428.857 416.946V230.031C428.857 222.203 422.511 215.857 414.683 215.857Z" fill="white"/>
<mask id="mask4_4003_11899" style="mask-type:alpha" maskUnits="userSpaceOnUse" x="79" y="215" width="350" height="217">
<path d="M414.687 215.857H94.0269C86.2011 215.857 79.8569 222.202 79.8569 230.027V416.949C79.8569 424.775 86.2011 431.119 94.0269 431.119H414.687C422.513 431.119 428.857 424.775 428.857 416.949V230.027C428.857 222.202 422.513 215.857 414.687 215.857Z" fill="black"/>
</mask>
<g mask="url(#mask4_4003_11899)">
<path d="M251.428 452.155C230.257 451.201 223.83 428.701 224.775 417.642C222.777 403.341 237.062 400.862 248.025 396.477C258.989 392.091 278.27 401.434 283.941 417.642C289.611 433.85 272.599 453.108 251.428 452.155Z" fill="#C9EBDA"/>
<path d="M191.762 212.998C162.973 194.587 136.802 187.474 93.183 195.006C71.8099 197.098 25.4045 228.471 65.267 318.439C80.0984 351.913 109.758 367.394 142.036 374.507C174.314 381.62 178.24 364.465 184.783 347.728C191.325 330.991 199.613 324.715 227.965 299.192C256.317 273.668 220.55 231.408 191.762 212.998Z" fill="#C9EBDA"/>
<path d="M262.504 320.644C273.94 311.321 279.595 301.847 279.468 284.046C280.193 275.49 268.547 254.128 220.945 260.349C203.234 262.664 193.17 272.631 187.014 284.488C180.858 296.344 188.987 299.656 196.696 303.945C204.405 308.234 206.816 312.119 217.062 325.829C227.309 339.539 251.069 329.967 262.504 320.644Z" fill="#C9EBDA"/>
<path fill-rule="evenodd" clip-rule="evenodd" d="M234.22 259.27C230.142 259.379 225.725 259.726 220.946 260.35C203.235 262.665 193.17 272.632 187.014 284.488C181.281 295.529 187.936 299.16 195.104 303.071C195.633 303.36 196.166 303.65 196.696 303.946C202.066 306.934 204.865 309.725 209.533 315.779C212.699 312.882 216.284 309.67 220.371 306.009C222.73 303.895 225.256 301.632 227.965 299.193C240.431 287.971 240.502 273.513 234.22 259.27Z" fill="#9ED9BA"/>
<path d="M412.013 359.63C423.164 371.26 433.972 376.584 453.337 374.884C462.714 374.923 484.944 360.375 473.999 309.106C469.926 290.031 458.195 279.95 444.75 274.289C431.304 268.628 428.412 277.767 424.42 286.534C420.427 295.301 416.41 298.266 402.385 310.621C388.36 322.976 400.862 347.999 412.013 359.63Z" fill="#C9EBDA"/>
<path d="M108.903 401.899H107.683V392.691H113.633V393.768H108.903V396.731H112.903V397.808H108.903V401.899ZM117.871 395.166V396.333C117.685 396.296 117.496 396.279 117.307 396.282C116.332 396.282 115.55 397.051 115.55 398.231V401.899H114.396V395.192H115.55V396.333C115.845 395.654 116.499 395.141 117.41 395.141C117.59 395.141 117.757 395.153 117.871 395.166ZM123.839 400.437C123.839 400.937 123.878 401.476 123.942 401.899H122.8C122.774 401.669 122.757 401.438 122.75 401.206C122.339 401.694 121.595 402.014 120.723 402.014C119.505 402.014 118.503 401.283 118.503 400.078C118.503 398.744 119.556 398.18 121.056 397.885L122.723 397.552V397.141C122.723 396.397 122.185 396.077 121.363 396.077C120.479 396.077 119.992 396.449 119.902 397.167H118.774C118.876 395.743 119.992 395.064 121.428 395.064C122.916 395.064 123.838 395.743 123.838 396.975L123.839 400.437ZM122.723 399.616V398.449L121.363 398.731C120.338 398.937 119.659 399.219 119.659 400.027C119.659 400.681 120.146 401.078 120.877 401.078C121.864 401.078 122.723 400.476 122.723 399.616ZM125.705 401.899V395.192H126.859V396.102C127.081 395.778 127.38 395.514 127.729 395.333C128.078 395.152 128.466 395.06 128.859 395.064C130.283 395.064 131.091 396.051 131.091 397.475V401.899H129.937V397.782C129.937 396.846 129.539 396.141 128.539 396.141C127.705 396.141 126.859 396.782 126.859 397.898V401.899H125.705ZM134.097 392.691V398.321L137.073 395.192H138.509L135.893 397.834L138.727 401.899H137.38L135.072 398.667L134.097 399.655V401.899H132.943V392.691H134.097ZM147.501 401.899H146.513L143.703 394.32V401.899H142.551V392.691H144.231L147.027 400.258L149.835 392.691H151.464V401.899H150.321V394.32L147.501 401.899ZM154.137 398.552C154.137 400.078 154.957 401.027 156.15 401.027C157.074 401.027 157.625 400.437 157.817 399.603L158.843 400.078C158.523 401.194 157.548 402.04 156.15 402.04C154.278 402.04 152.983 400.617 152.983 398.552C152.983 396.474 154.278 395.064 156.15 395.064C157.548 395.064 158.497 395.872 158.818 396.987L157.818 397.487C157.625 396.667 157.074 396.064 156.15 396.064C154.958 396.064 154.137 397.013 154.137 398.552ZM167.43 392.691V401.899H166.365L161.338 394.487V401.899H160.157V392.691H161.453L166.236 399.809V392.691H167.43ZM174.234 400.437C174.234 400.937 174.273 401.476 174.337 401.899H173.195C173.169 401.669 173.152 401.438 173.144 401.206C172.734 401.694 171.99 402.014 171.118 402.014C169.9 402.014 168.898 401.283 168.898 400.078C168.898 398.744 169.951 398.18 171.451 397.885L173.118 397.552V397.141C173.118 396.397 172.58 396.077 171.758 396.077C170.874 396.077 170.387 396.449 170.297 397.167H169.169C169.271 395.743 170.387 395.064 171.823 395.064C173.311 395.064 174.233 395.743 174.233 396.975L174.234 400.437ZM173.118 399.616V398.449L171.758 398.731C170.733 398.937 170.053 399.219 170.053 400.027C170.053 400.681 170.541 401.078 171.272 401.078C172.259 401.078 173.118 400.476 173.118 399.616ZM177.254 397.885V401.899H176.1V395.192H177.254V396.102C177.461 395.778 177.747 395.512 178.086 395.33C178.425 395.149 178.805 395.057 179.19 395.064C180.088 395.064 180.716 395.513 181.05 396.205C181.285 395.853 181.603 395.565 181.977 395.365C182.351 395.166 182.768 395.063 183.191 395.064C184.576 395.064 185.41 396.051 185.41 397.475V401.899H184.256V397.782C184.256 396.846 183.871 396.141 182.922 396.141C182.153 396.141 181.332 396.795 181.332 397.885V401.899H180.178V397.782C180.178 396.846 179.793 396.141 178.844 396.141C178.074 396.141 177.254 396.795 177.254 397.885ZM192.105 400.437C192.105 400.937 192.144 401.476 192.208 401.899H191.067C191.04 401.669 191.023 401.438 191.015 401.206C190.605 401.694 189.861 402.014 188.989 402.014C187.771 402.014 186.77 401.283 186.77 400.078C186.77 398.744 187.822 398.18 189.322 397.885L190.99 397.552V397.141C190.99 396.397 190.451 396.077 189.63 396.077C188.745 396.077 188.258 396.449 188.168 397.167H187.04C187.142 395.743 188.258 395.064 189.694 395.064C191.182 395.064 192.105 395.743 192.105 396.975V400.437ZM190.99 399.616V398.449L189.63 398.731C188.604 398.937 187.925 399.219 187.925 400.027C187.925 400.681 188.412 401.078 189.143 401.078C190.13 401.078 190.99 400.476 190.99 399.616ZM197.446 395.166V396.333C197.26 396.296 197.071 396.279 196.882 396.282C195.907 396.282 195.125 397.051 195.125 398.231V401.899H193.971V395.192H195.125V396.333C195.42 395.654 196.074 395.141 196.984 395.141C197.164 395.141 197.331 395.153 197.446 395.166ZM203.414 400.437C203.414 400.937 203.453 401.476 203.517 401.899H202.375C202.349 401.669 202.332 401.438 202.324 401.206C201.914 401.694 201.17 402.014 200.298 402.014C199.08 402.014 198.079 401.283 198.079 400.078C198.079 398.744 199.131 398.18 200.631 397.885L202.298 397.552V397.141C202.298 396.397 201.76 396.077 200.939 396.077C200.054 396.077 199.567 396.449 199.477 397.167H198.349C198.451 395.743 199.567 395.064 201.003 395.064C202.491 395.064 203.414 395.743 203.414 396.975V400.437ZM202.298 399.616V398.449L200.939 398.731C199.913 398.937 199.233 399.219 199.233 400.027C199.233 400.681 199.721 401.078 200.452 401.078C201.439 401.078 202.298 400.476 202.298 399.616Z" fill="black"/>
<path d="M372.556 388.418L367.677 411.856H361.751L366.631 388.418H372.556ZM397.129 403.562L400.266 394.728L402.009 403.562H397.129ZM403.752 411.856H409.154L404.449 388.418H399.395C398.349 388.418 397.303 389.139 396.955 390.221L388.241 411.856H394.341L395.561 408.43H403.054L403.752 411.856ZM388.415 404.103C388.415 397.973 380.225 397.613 380.225 394.908C380.399 393.646 381.444 392.925 382.664 392.925C384.581 392.745 386.673 393.105 388.415 394.007L389.461 388.959C387.718 388.238 385.801 387.877 384.059 387.877C378.307 387.877 374.125 391.122 374.125 395.63C374.125 399.055 377.088 400.858 379.179 401.94C381.444 403.021 382.316 403.743 382.142 404.824C382.142 406.447 380.399 407.168 378.656 407.168C376.565 407.168 374.473 406.627 372.556 405.726L371.511 410.774C373.602 411.675 375.868 412.036 377.959 412.036C384.407 412.216 388.415 408.971 388.415 404.103ZM364.191 388.418L354.78 411.856H348.507L343.801 393.105C343.801 392.204 343.104 391.483 342.407 391.122C340.664 390.221 338.747 389.5 336.656 389.139L336.83 388.418H346.764C348.158 388.418 349.204 389.5 349.378 390.762L351.818 404.283L358.092 388.418H364.191Z" fill="black"/>
</g>
<path fill-rule="evenodd" clip-rule="evenodd" d="M375.542 250.018C375.542 250.834 375.663 251.428 375.906 251.8C376.15 252.172 376.585 252.358 377.21 252.358V252.917C376.671 252.863 376.132 252.837 375.594 252.837C374.046 252.837 372.778 252.961 371.788 253.209V250.923C371.196 252.517 370.068 253.315 368.399 253.315C366.765 253.315 365.462 252.713 364.489 251.507C363.533 250.284 363.064 248.449 363.081 246.003C363.081 244.442 363.325 243.13 363.811 242.067C364.315 240.986 365.001 240.179 365.87 239.647C366.757 239.097 367.764 238.823 368.894 238.823C370.163 238.823 371.127 239.159 371.788 239.833V235.313C371.788 234.497 371.657 233.903 371.396 233.531C371.153 233.158 370.727 232.972 370.119 232.972V232.414C370.675 232.467 371.214 232.494 371.736 232.494C373.248 232.494 374.517 232.369 375.542 232.121V250.018ZM369.468 252.172C370.041 252.172 370.545 251.96 370.98 251.534C371.431 251.108 371.701 250.533 371.788 249.805V240.498C371.354 239.895 370.719 239.594 369.884 239.594C368.964 239.594 368.251 240.134 367.747 241.216C367.243 242.297 367 243.91 367.018 246.056C367 248.219 367.2 249.779 367.616 250.736C368.051 251.694 368.668 252.172 369.468 252.172ZM317.791 239.186C318.695 239.186 319.495 239.44 320.19 239.95C320.902 240.459 321.458 241.223 321.858 242.241C322.258 243.261 322.458 244.507 322.458 245.98C322.458 248.581 321.91 250.582 320.815 251.983C319.738 253.366 318.27 254.057 316.41 254.057C315.889 254.057 315.393 253.984 314.924 253.838C314.472 253.693 314.081 253.475 313.751 253.184V255.912C313.751 256.713 313.942 257.268 314.324 257.577C314.707 257.886 315.298 258.04 316.097 258.04V258.614L315.393 258.586C313.465 258.532 312.239 258.504 311.718 258.504C311.197 258.504 310.101 258.541 308.433 258.614V258.04C309.006 258.04 309.406 257.905 309.632 257.632C309.875 257.376 309.997 256.895 309.997 256.185V242.542C309.997 241.706 309.867 241.096 309.606 240.714C309.363 240.332 308.937 240.14 308.329 240.14V239.567C308.885 239.622 309.424 239.649 309.945 239.649C311.457 239.649 312.725 239.522 313.751 239.268V241.778C314.116 240.942 314.646 240.305 315.341 239.868C316.036 239.413 316.853 239.186 317.791 239.186ZM315.393 253.32C316.505 253.32 317.305 252.747 317.791 251.602C318.278 250.436 318.521 248.745 318.521 246.526C318.521 244.306 318.322 242.724 317.922 241.778C317.54 240.832 316.984 240.359 316.253 240.359C315.662 240.359 315.133 240.568 314.664 240.987C314.211 241.405 313.908 241.987 313.751 242.733V252.584C314.168 253.075 314.716 253.32 315.393 253.32ZM331.29 239.186C333.5 239.186 335.23 239.756 336.48 240.897C337.729 242.02 338.354 243.81 338.354 246.264C338.354 248.718 337.729 250.507 336.48 251.63C335.23 252.754 333.5 253.315 331.29 253.315C329.098 253.315 327.368 252.754 326.098 251.63C324.85 250.507 324.224 248.718 324.224 246.264C324.224 243.81 324.85 242.02 326.098 240.897C327.368 239.756 329.098 239.186 331.29 239.186ZM331.29 239.704C330.463 239.704 329.799 240.249 329.3 241.337C328.819 242.409 328.578 244.051 328.578 246.264C328.578 248.476 328.819 250.118 329.3 251.19C329.799 252.261 330.463 252.797 331.29 252.797C332.135 252.797 332.799 252.27 333.279 251.216C333.759 250.144 334 248.494 334 246.264C334 244.033 333.75 242.383 333.251 241.311C332.77 240.24 332.115 239.704 331.29 239.704ZM359.285 239.294C360.194 239.294 360.87 239.267 361.314 239.212V239.756C360.941 239.865 360.603 240.091 360.3 240.435C359.997 240.779 359.73 241.332 359.5 242.092L355.949 253.315C355.754 253.297 355.46 253.288 355.068 253.288C354.694 253.288 354.41 253.297 354.214 253.315L350.583 243.234L347.621 253.315C347.443 253.297 347.158 253.288 346.766 253.288C346.375 253.288 346.081 253.297 345.885 253.315L341.668 241.304C341.455 240.671 341.215 240.263 340.948 240.082C340.681 239.883 340.404 239.783 340.12 239.783V239.212C341.277 239.321 342.54 239.376 343.91 239.376C344.8 239.376 345.957 239.321 347.381 239.212V239.783C346.793 239.783 346.367 239.829 346.099 239.919C345.85 240.01 345.725 240.227 345.725 240.571C345.725 240.807 345.77 241.051 345.859 241.304L348.261 248.994L351.171 239.186L352.159 239.212L353.119 239.186L356.59 249.565L358.271 244.104C358.521 243.252 358.645 242.564 358.645 242.039C358.645 240.625 357.942 239.865 356.536 239.756V239.212C357.373 239.267 358.289 239.294 359.285 239.294ZM391.329 250.109C391.329 250.909 391.46 251.491 391.718 251.855C391.996 252.221 392.458 252.403 393.105 252.403V252.951C392.531 252.898 391.959 252.872 391.385 252.872C389.776 252.872 388.427 252.994 387.335 253.238V250.891C386.485 252.508 384.996 253.315 382.869 253.315C381.482 253.315 380.474 252.977 379.845 252.298C379.549 251.969 379.328 251.542 379.18 251.021C379.05 250.483 378.986 249.779 378.986 248.91V242.314C378.986 241.515 378.847 240.932 378.569 240.567C378.311 240.203 377.857 240.019 377.21 240.019V239.472C377.783 239.524 378.356 239.55 378.93 239.55C380.539 239.55 381.888 239.429 382.98 239.186V249.979C382.98 250.709 383.09 251.257 383.312 251.621C383.553 251.986 383.998 252.169 384.644 252.169C385.384 252.169 386.013 251.882 386.53 251.308C387.067 250.717 387.335 249.996 387.335 249.144V242.314C387.335 241.515 387.197 240.932 386.919 240.567C386.66 240.203 386.207 240.019 385.56 240.019V239.472C386.151 239.524 386.725 239.55 387.28 239.55C388.889 239.55 390.238 239.429 391.329 239.186V250.109ZM406.58 239.904C406.146 239.425 405.501 239.186 404.648 239.186C403.796 239.186 403.028 239.425 402.346 239.904C401.664 240.366 401.143 240.977 400.784 241.74V239.266C399.703 239.514 398.32 239.638 396.634 239.638C396.066 239.638 395.478 239.611 394.871 239.558V240.117C395.554 240.117 396.028 240.304 396.293 240.676C396.558 241.049 396.69 241.643 396.69 242.458V250.84C396.69 251.568 396.558 252.073 396.293 252.358C396.028 252.623 395.554 252.756 394.871 252.756V253.315C395.099 253.315 395.288 253.306 395.44 253.289C397.258 253.235 398.424 253.208 398.935 253.208C399.58 253.208 400.868 253.235 402.801 253.289C402.972 253.306 403.189 253.315 403.455 253.315V252.756C402.527 252.756 401.844 252.597 401.408 252.277C400.991 251.958 400.784 251.39 400.784 250.574V243.523C400.784 242.778 401.029 242.05 401.522 241.34C402.034 240.632 402.649 240.224 403.369 240.117C403.484 240.081 403.634 240.063 403.824 240.063C403.976 240.063 404.09 240.073 404.165 240.09C403.332 240.622 402.915 241.315 402.915 242.166C402.915 242.681 403.104 243.098 403.483 243.416C403.863 243.719 404.374 243.869 405.018 243.869C405.681 243.869 406.212 243.665 406.609 243.257C407.026 242.831 407.235 242.29 407.235 241.633C407.235 240.96 407.017 240.383 406.58 239.904Z" fill="black"/>
<defs>
<filter id="filter0_dd_4003_11899" x="0.856934" y="0.857422" width="507" height="373" filterUnits="userSpaceOnUse" color-interpolation-filters="sRGB">
<feFlood flood-opacity="0" result="BackgroundImageFix"/>
<feColorMatrix in="SourceAlpha" type="matrix" values="0 0 0 0 0 0 0 0 0 0 0 0 0 0 0 0 0 0 127 0" result="hardAlpha"/>
<feMorphology radius="30" operator="erode" in="SourceAlpha" result="effect1_dropShadow_4003_11899"/>
<feOffset dy="30"/>
<feGaussianBlur stdDeviation="30"/>
<feComposite in2="hardAlpha" operator="out"/>
<feColorMatrix type="matrix" values="0 0 0 0 0 0 0 0 0 0 0 0 0 0 0 0 0 0 0.3 0"/>
<feBlend mode="normal" in2="BackgroundImageFix" result="effect1_dropShadow_4003_11899"/>
<feColorMatrix in="SourceAlpha" type="matrix" values="0 0 0 0 0 0 0 0 0 0 0 0 0 0 0 0 0 0 127 0" result="hardAlpha"/>
<feMorphology radius="20" operator="erode" in="SourceAlpha" result="effect2_dropShadow_4003_11899"/>
<feOffset dy="50"/>
<feGaussianBlur stdDeviation="50"/>
<feComposite in2="hardAlpha" operator="out"/>
<feColorMatrix type="matrix" values="0 0 0 0 0.196078 0 0 0 0 0.196078 0 0 0 0 0.364706 0 0 0 0.25 0"/>
<feBlend mode="normal" in2="effect1_dropShadow_4003_11899" result="effect2_dropShadow_4003_11899"/>
<feBlend mode="normal" in="SourceGraphic" in2="effect2_dropShadow_4003_11899" result="shape"/>
</filter>
<filter id="filter1_dd_4003_11899" x="0.856934" y="93.8574" width="507" height="373" filterUnits="userSpaceOnUse" color-interpolation-filters="sRGB">
<feFlood flood-opacity="0" result="BackgroundImageFix"/>
<feColorMatrix in="SourceAlpha" type="matrix" values="0 0 0 0 0 0 0 0 0 0 0 0 0 0 0 0 0 0 127 0" result="hardAlpha"/>
<feMorphology radius="30" operator="erode" in="SourceAlpha" result="effect1_dropShadow_4003_11899"/>
<feOffset dy="30"/>
<feGaussianBlur stdDeviation="30"/>
<feComposite in2="hardAlpha" operator="out"/>
<feColorMatrix type="matrix" values="0 0 0 0 0 0 0 0 0 0 0 0 0 0 0 0 0 0 0.3 0"/>
<feBlend mode="normal" in2="BackgroundImageFix" result="effect1_dropShadow_4003_11899"/>
<feColorMatrix in="SourceAlpha" type="matrix" values="0 0 0 0 0 0 0 0 0 0 0 0 0 0 0 0 0 0 127 0" result="hardAlpha"/>
<feMorphology radius="20" operator="erode" in="SourceAlpha" result="effect2_dropShadow_4003_11899"/>
<feOffset dy="50"/>
<feGaussianBlur stdDeviation="50"/>
<feComposite in2="hardAlpha" operator="out"/>
<feColorMatrix type="matrix" values="0 0 0 0 0.196078 0 0 0 0 0.196078 0 0 0 0 0.364706 0 0 0 0.25 0"/>
<feBlend mode="normal" in2="effect1_dropShadow_4003_11899" result="effect2_dropShadow_4003_11899"/>
<feBlend mode="normal" in="SourceGraphic" in2="effect2_dropShadow_4003_11899" result="shape"/>
</filter>
<filter id="filter2_dd_4003_11899" x="0.856934" y="186.857" width="507" height="373" filterUnits="userSpaceOnUse" color-interpolation-filters="sRGB">
<feFlood flood-opacity="0" result="BackgroundImageFix"/>
<feColorMatrix in="SourceAlpha" type="matrix" values="0 0 0 0 0 0 0 0 0 0 0 0 0 0 0 0 0 0 127 0" result="hardAlpha"/>
<feMorphology radius="30" operator="erode" in="SourceAlpha" result="effect1_dropShadow_4003_11899"/>
<feOffset dy="30"/>
<feGaussianBlur stdDeviation="30"/>
<feComposite in2="hardAlpha" operator="out"/>
<feColorMatrix type="matrix" values="0 0 0 0 0 0 0 0 0 0 0 0 0 0 0 0 0 0 0.3 0"/>
<feBlend mode="normal" in2="BackgroundImageFix" result="effect1_dropShadow_4003_11899"/>
<feColorMatrix in="SourceAlpha" type="matrix" values="0 0 0 0 0 0 0 0 0 0 0 0 0 0 0 0 0 0 127 0" result="hardAlpha"/>
<feMorphology radius="20" operator="erode" in="SourceAlpha" result="effect2_dropShadow_4003_11899"/>
<feOffset dy="50"/>
<feGaussianBlur stdDeviation="50"/>
<feComposite in2="hardAlpha" operator="out"/>
<feColorMatrix type="matrix" values="0 0 0 0 0.196078 0 0 0 0 0.196078 0 0 0 0 0.364706 0 0 0 0.25 0"/>
<feBlend mode="normal" in2="effect1_dropShadow_4003_11899" result="effect2_dropShadow_4003_11899"/>
<feBlend mode="normal" in="SourceGraphic" in2="effect2_dropShadow_4003_11899" result="shape"/>
</filter>
<linearGradient id="paint0_linear_4003_11899" x1="858.401" y1="92.7044" x2="847.289" y2="296.687" gradientUnits="userSpaceOnUse">
<stop offset="0.614583" stop-color="#27BB86"/>
<stop offset="1" stop-color="white"/>
</linearGradient>
<linearGradient id="paint1_linear_4003_11899" x1="858.755" y1="100.302" x2="847.642" y2="304.285" gradientUnits="userSpaceOnUse">
<stop offset="0.614583" stop-color="#27BB86"/>
<stop offset="1" stop-color="white"/>
</linearGradient>
<linearGradient id="paint2_linear_4003_11899" x1="857.984" y1="86.8684" x2="846.872" y2="290.851" gradientUnits="userSpaceOnUse">
<stop offset="0.614583" stop-color="#27BB86"/>
<stop offset="1" stop-color="white"/>
</linearGradient>
<linearGradient id="paint3_linear_4003_11899" x1="856.035" y1="79.8021" x2="844.923" y2="283.784" gradientUnits="userSpaceOnUse">
<stop offset="0.614583" stop-color="#27BB86"/>
<stop offset="1" stop-color="white"/>
</linearGradient>
<linearGradient id="paint4_linear_4003_11899" x1="855.209" y1="73.5618" x2="844.096" y2="277.545" gradientUnits="userSpaceOnUse">
<stop offset="0.614583" stop-color="#27BB86"/>
<stop offset="1" stop-color="white"/>
</linearGradient>
<linearGradient id="paint5_linear_4003_11899" x1="854.381" y1="67.3235" x2="843.268" y2="271.306" gradientUnits="userSpaceOnUse">
<stop offset="0.614583" stop-color="#27BB86"/>
<stop offset="1" stop-color="white"/>
</linearGradient>
<linearGradient id="paint6_linear_4003_11899" x1="862.827" y1="126.003" x2="851.715" y2="329.986" gradientUnits="userSpaceOnUse">
<stop offset="0.614583" stop-color="#27BB86"/>
<stop offset="1" stop-color="white"/>
</linearGradient>
<linearGradient id="paint7_linear_4003_11899" x1="863.18" y1="133.601" x2="852.068" y2="337.583" gradientUnits="userSpaceOnUse">
<stop offset="0.614583" stop-color="#27BB86"/>
<stop offset="1" stop-color="white"/>
</linearGradient>
<linearGradient id="paint8_linear_4003_11899" x1="862.41" y1="120.167" x2="851.298" y2="324.15" gradientUnits="userSpaceOnUse">
<stop offset="0.614583" stop-color="#27BB86"/>
<stop offset="1" stop-color="white"/>
</linearGradient>
<linearGradient id="paint9_linear_4003_11899" x1="860.461" y1="113.101" x2="849.348" y2="317.083" gradientUnits="userSpaceOnUse">
<stop offset="0.614583" stop-color="#27BB86"/>
<stop offset="1" stop-color="white"/>
</linearGradient>
<linearGradient id="paint10_linear_4003_11899" x1="859.635" y1="106.861" x2="848.522" y2="310.843" gradientUnits="userSpaceOnUse">
<stop offset="0.614583" stop-color="#27BB86"/>
<stop offset="1" stop-color="white"/>
</linearGradient>
<linearGradient id="paint11_linear_4003_11899" x1="858.806" y1="100.622" x2="847.694" y2="304.605" gradientUnits="userSpaceOnUse">
<stop offset="0.614583" stop-color="#27BB86"/>
<stop offset="1" stop-color="white"/>
</linearGradient>
</defs>
</svg>
