<svg width="39" height="36" viewBox="0 0 39 36" fill="none" xmlns="http://www.w3.org/2000/svg">
<path fill-rule="evenodd" clip-rule="evenodd" d="M4.14307 0.732422C1.93393 0.732422 0.143066 2.52328 0.143066 4.73242V24.7324C0.143066 26.9415 1.93393 28.7324 4.14307 28.7324H32.1431C34.3522 28.7324 36.1431 26.9415 36.1431 24.7324V4.73242C36.1431 2.52328 34.3522 0.732422 32.1431 0.732422H4.14307ZM4.64307 6.73242C5.4715 6.73242 6.14307 6.06085 6.14307 5.23242C6.14307 4.40399 5.4715 3.73242 4.64307 3.73242C3.81464 3.73242 3.14307 4.40399 3.14307 5.23242C3.14307 6.06085 3.81464 6.73242 4.64307 6.73242ZM11.1431 5.23242C11.1431 6.06085 10.4715 6.73242 9.64307 6.73242C8.81464 6.73242 8.14307 6.06085 8.14307 5.23242C8.14307 4.40399 8.81464 3.73242 9.64307 3.73242C10.4715 3.73242 11.1431 4.40399 11.1431 5.23242ZM14.6431 6.73242C15.4715 6.73242 16.1431 6.06085 16.1431 5.23242C16.1431 4.40399 15.4715 3.73242 14.6431 3.73242C13.8147 3.73242 13.1431 4.40399 13.1431 5.23242C13.1431 6.06085 13.8147 6.73242 14.6431 6.73242Z" fill="#00D4FF"/>
<path fill-rule="evenodd" clip-rule="evenodd" d="M24.7004 15.7324C24.3692 15.7324 24.0772 15.9497 23.9821 16.2669L18.4321 34.7669C18.2877 35.2481 18.648 35.7324 19.1504 35.7324H21.5844C21.9156 35.7324 22.2076 35.5151 22.3028 35.1979L27.8528 16.6979C27.9971 16.2167 27.6368 15.7324 27.1344 15.7324H24.7004ZM13.8859 18.4335C14.1669 18.1292 14.6414 18.1102 14.9457 18.3911L16.7827 20.0868C17.0871 20.3678 17.1061 20.8423 16.8251 21.1466L12.5861 25.739L16.8251 30.3313C17.1061 30.6357 17.0871 31.1102 16.7827 31.3911L14.9457 33.0868C14.6414 33.3678 14.1669 33.3488 13.8859 33.0444L7.61198 26.2477C7.34678 25.9604 7.34679 25.5176 7.61198 25.2303L13.8859 18.4335ZM32.3989 18.4335C32.118 18.1292 31.6435 18.1102 31.3391 18.3911L29.5021 20.0868C29.1977 20.3678 29.1788 20.8423 29.4597 21.1466L33.6988 25.739L29.4597 30.3313C29.1788 30.6357 29.1977 31.1102 29.5021 31.3911L31.3391 33.0868C31.6435 33.3678 32.118 33.3488 32.3989 33.0444L38.6728 26.2477C38.938 25.9604 38.938 25.5176 38.6728 25.2303L32.3989 18.4335Z" fill="#7A73FF"/>
<mask id="mask0_3_19" style="mask-type:luminance" maskUnits="userSpaceOnUse" x="0" y="0" width="37" height="29">
<path fill-rule="evenodd" clip-rule="evenodd" d="M4.14307 0.732422C1.93393 0.732422 0.143066 2.52328 0.143066 4.73242V24.7324C0.143066 26.9415 1.93393 28.7324 4.14307 28.7324H32.1431C34.3522 28.7324 36.1431 26.9415 36.1431 24.7324V4.73242C36.1431 2.52328 34.3522 0.732422 32.1431 0.732422H4.14307ZM4.64307 6.73242C5.4715 6.73242 6.14307 6.06085 6.14307 5.23242C6.14307 4.40399 5.4715 3.73242 4.64307 3.73242C3.81464 3.73242 3.14307 4.40399 3.14307 5.23242C3.14307 6.06085 3.81464 6.73242 4.64307 6.73242ZM11.1431 5.23242C11.1431 6.06085 10.4715 6.73242 9.64307 6.73242C8.81464 6.73242 8.14307 6.06085 8.14307 5.23242C8.14307 4.40399 8.81464 3.73242 9.64307 3.73242C10.4715 3.73242 11.1431 4.40399 11.1431 5.23242ZM14.6431 6.73242C15.4715 6.73242 16.1431 6.06085 16.1431 5.23242C16.1431 4.40399 15.4715 3.73242 14.6431 3.73242C13.8147 3.73242 13.1431 4.40399 13.1431 5.23242C13.1431 6.06085 13.8147 6.73242 14.6431 6.73242Z" fill="white"/>
</mask>
<g mask="url(#mask0_3_19)">
<path fill-rule="evenodd" clip-rule="evenodd" d="M24.7004 15.7324C24.3692 15.7324 24.0772 15.9497 23.9821 16.2669L18.4321 34.7669C18.2877 35.2481 18.648 35.7324 19.1504 35.7324H21.5844C21.9156 35.7324 22.2076 35.5151 22.3028 35.1979L27.8528 16.6979C27.9971 16.2167 27.6368 15.7324 27.1344 15.7324H24.7004ZM13.8859 18.4335C14.1669 18.1292 14.6414 18.1102 14.9457 18.3911L16.7827 20.0868C17.0871 20.3678 17.1061 20.8423 16.8251 21.1466L12.5861 25.739L16.8251 30.3313C17.1061 30.6357 17.0871 31.1102 16.7827 31.3911L14.9457 33.0868C14.6414 33.3678 14.1669 33.3488 13.8859 33.0444L7.61198 26.2477C7.34678 25.9604 7.34679 25.5176 7.61198 25.2303L13.8859 18.4335ZM32.3989 18.4335C32.118 18.1292 31.6435 18.1102 31.3391 18.3911L29.5021 20.0868C29.1977 20.3678 29.1788 20.8423 29.4597 21.1466L33.6988 25.739L29.4597 30.3313C29.1788 30.6357 29.1977 31.1102 29.5021 31.3911L31.3391 33.0868C31.6435 33.3678 32.118 33.3488 32.3989 33.0444L38.6728 26.2477C38.938 25.9604 38.938 25.5176 38.6728 25.2303L32.3989 18.4335Z" fill="#CCFFFF"/>
</g>
</svg>
