<svg width="40" height="34" viewBox="0 0 40 34" fill="none" xmlns="http://www.w3.org/2000/svg">
<path d="M26.1431 8.8823V19.7723C26.143 20.5357 25.9246 21.2831 25.5135 21.9263C25.1024 22.5696 24.5158 23.0817 23.8231 23.4023L14.8231 27.5523C14.2965 27.796 13.7233 27.9222 13.1431 27.9222C12.5629 27.9222 11.9896 27.796 11.4631 27.5523L2.4631 23.4023C1.7703 23.0817 1.1837 22.5696 0.7726 21.9263C0.3615 21.2831 0.143101 20.5357 0.143101 19.7723V8.8823C0.145401 8.3238 0.264599 7.772 0.493099 7.2623L13.1431 13.1023L25.7931 7.2623C26.0216 7.772 26.1408 8.3238 26.1431 8.8823ZM14.8231 1.1023L23.8231 5.2523C24.2599 5.4562 24.6563 5.7374 24.9931 6.0823L13.1431 11.5523L1.2831 6.0823C1.6228 5.7364 2.0227 5.4552 2.4631 5.2523L11.4631 1.1023C11.9896 0.858597 12.5629 0.732399 13.1431 0.732399C13.7233 0.732399 14.2965 0.858597 14.8231 1.1023Z" fill="#00D4FF"/>
<path d="M39.1431 14.8823V25.7723C39.143 26.5357 38.9246 27.2831 38.5135 27.9263C38.1024 28.5696 37.5158 29.0817 36.8231 29.4023L27.8231 33.5523C27.2965 33.796 26.7233 33.9222 26.1431 33.9222C25.5629 33.9222 24.9896 33.796 24.4631 33.5523L15.4631 29.4023C14.7703 29.0817 14.1837 28.5696 13.7726 27.9263C13.3615 27.2831 13.1431 26.5357 13.1431 25.7723V14.8823C13.1454 14.3238 13.2646 13.772 13.4931 13.2623L26.1431 19.1023L38.7931 13.2623C39.0216 13.772 39.1408 14.3238 39.1431 14.8823ZM27.8231 7.1023L36.8231 11.2523C37.2599 11.4562 37.6563 11.7374 37.9931 12.0823L26.1431 17.5523L14.2831 12.0823C14.6228 11.7364 15.0227 11.4552 15.4631 11.2523L24.4631 7.1023C24.9896 6.8586 25.5629 6.7324 26.1431 6.7324C26.7233 6.7324 27.2965 6.8586 27.8231 7.1023Z" fill="#7A73FF"/>
<mask id="mask0_4_29" style="mask-type:luminance" maskUnits="userSpaceOnUse" x="0" y="0" width="27" height="28">
<path d="M26.1431 8.8823V19.7723C26.143 20.5357 25.9246 21.2831 25.5135 21.9263C25.1024 22.5696 24.5158 23.0817 23.8231 23.4023L14.8231 27.5523C14.2965 27.796 13.7233 27.9222 13.1431 27.9222C12.5629 27.9222 11.9896 27.796 11.4631 27.5523L2.4631 23.4023C1.7703 23.0817 1.1837 22.5696 0.7726 21.9263C0.3615 21.2831 0.143101 20.5357 0.143101 19.7723V8.8823C0.145401 8.3238 0.264599 7.772 0.493099 7.2623L13.1431 13.1023L25.7931 7.2623C26.0216 7.772 26.1408 8.3238 26.1431 8.8823ZM14.8231 1.1023L23.8231 5.2523C24.2599 5.4562 24.6563 5.7374 24.9931 6.0823L13.1431 11.5523L1.2831 6.0823C1.6228 5.7364 2.0227 5.4552 2.4631 5.2523L11.4631 1.1023C11.9896 0.858597 12.5629 0.732399 13.1431 0.732399C13.7233 0.732399 14.2965 0.858597 14.8231 1.1023Z" fill="white"/>
</mask>
<g mask="url(#mask0_4_29)">
<path d="M39.1431 14.8823V25.7723C39.143 26.5357 38.9246 27.2831 38.5135 27.9263C38.1024 28.5696 37.5158 29.0817 36.8231 29.4023L27.8231 33.5523C27.2965 33.796 26.7233 33.9222 26.1431 33.9222C25.5629 33.9222 24.9896 33.796 24.4631 33.5523L15.4631 29.4023C14.7703 29.0817 14.1837 28.5696 13.7726 27.9263C13.3615 27.2831 13.1431 26.5357 13.1431 25.7723V14.8823C13.1454 14.3238 13.2646 13.772 13.4931 13.2623L26.1431 19.1023L38.7931 13.2623C39.0216 13.772 39.1408 14.3238 39.1431 14.8823ZM27.8231 7.1023L36.8231 11.2523C37.2599 11.4562 37.6563 11.7374 37.9931 12.0823L26.1431 17.5523L14.2831 12.0823C14.6228 11.7364 15.0227 11.4552 15.4631 11.2523L24.4631 7.1023C24.9896 6.8586 25.5629 6.7324 26.1431 6.7324C26.7233 6.7324 27.2965 6.8586 27.8231 7.1023Z" fill="#CCFFFF"/>
</g>
</svg>
