<svg width="40" height="41" viewBox="0 0 40 41" fill="none" xmlns="http://www.w3.org/2000/svg">
<path d="M28.1431 0.732407C29.2039 0.732407 30.2213 1.15391 30.9715 1.90401C31.7216 2.65411 32.1431 3.6716 32.1431 4.7324V21.7324C32.1431 22.7933 31.7216 23.8107 30.9715 24.5608C30.2213 25.311 29.2039 25.7324 28.1431 25.7324H4.1431C3.0822 25.7324 2.0648 25.311 1.3146 24.5608C0.564496 23.8107 0.143097 22.7933 0.143097 21.7324V4.7324C0.143097 3.6716 0.564496 2.65411 1.3146 1.90401C2.0648 1.15391 3.0822 0.732407 4.1431 0.732407H28.1431ZM4.9431 5.90241L4.2731 6.65241C4.1954 6.73991 4.1508 6.85191 4.1472 6.96881C4.1435 7.08571 4.181 7.20031 4.2531 7.29241L4.3131 7.35241L7.6031 10.2724L4.3031 13.1924C4.2073 13.2819 4.1506 13.4054 4.145 13.5363C4.1393 13.6672 4.1853 13.7951 4.2731 13.8924L4.9331 14.6524C5.1131 14.8524 5.4331 14.8724 5.6331 14.6924L10.6031 10.2724L5.6431 5.86241C5.5445 5.77601 5.4158 5.73171 5.2849 5.73921C5.1539 5.74661 5.0312 5.80531 4.9431 5.90241Z" fill="#00D4FF"/>
<path d="M11.7831 12.7324H18.5031C18.7231 12.7324 18.8031 12.7524 18.8831 12.8024C18.9731 12.8424 19.0331 12.9024 19.0831 12.9924C19.1231 13.0724 19.1431 13.1524 19.1431 13.3724V14.0924C19.1431 14.3124 19.1231 14.3924 19.0731 14.4724C19.0322 14.5573 18.9658 14.6273 18.8831 14.6724C18.8031 14.7124 18.7231 14.7324 18.5031 14.7324H11.7831C11.5631 14.7324 11.4831 14.7124 11.4031 14.6624C11.3182 14.6216 11.2482 14.5551 11.2031 14.4724C11.1631 14.3924 11.1431 14.3124 11.1431 14.0924V13.3724C11.1431 13.1524 11.1631 13.0724 11.2131 12.9924C11.2531 12.9024 11.3131 12.8424 11.4031 12.7924C11.4831 12.7524 11.5631 12.7324 11.7831 12.7324Z" fill="#0A2540"/>
<path d="M26.6431 14.7324L27.7731 17.8624L28.4131 17.9924L30.6531 15.5324L31.5831 15.9124L31.4231 19.2424C31.6131 19.3524 31.7931 19.4724 31.9631 19.6024L34.9831 18.1824L35.6831 18.8924L34.2731 21.9124C34.4031 22.0824 34.5231 22.2624 34.6331 22.4524L37.9631 22.2924L38.3431 23.2224L35.8831 25.4624C35.9331 25.6724 35.9831 25.8824 36.0131 26.1024L39.1431 27.2324V28.2324L36.0131 29.3624C35.9731 29.6124 35.9131 29.8624 35.8631 30.0924L38.3431 32.2424L37.9631 33.1724L34.6831 32.9324C34.5431 33.1724 34.3831 33.4024 34.2131 33.6324L35.6931 36.5724L34.9831 37.2724L32.0431 35.8024C31.8131 35.9724 31.5831 36.1324 31.3431 36.2724L31.5831 39.5524L30.6531 39.9324L28.5031 37.4524C28.2331 37.5124 27.9631 37.5724 27.6831 37.6124L26.6431 40.7324H25.6431L24.6031 37.6124C24.3231 37.5724 24.0531 37.5124 23.7831 37.4524L21.6331 39.9324L20.7031 39.5524L20.9431 36.2724C20.7031 36.1324 20.4731 35.9724 20.2431 35.8024L17.3031 37.2824L16.6031 36.5724L18.0731 33.6324C17.9031 33.4024 17.7431 33.1724 17.6031 32.9324L14.3231 33.1724L13.9431 32.2424L16.4231 30.0924C16.3583 29.8215 16.3049 29.5479 16.2631 29.2724L13.1431 28.2324V27.2324L16.2631 26.1924C16.3031 25.9424 16.3431 25.7024 16.4031 25.4624L13.9431 23.2224L14.3231 22.2924L17.6531 22.4524C17.7631 22.2624 17.8831 22.0824 18.0131 21.9124L16.5931 18.8924L17.3031 18.1924L20.3231 19.6024C20.4931 19.4724 20.6731 19.3524 20.8631 19.2424L20.7031 15.9124L21.6331 15.5324L23.8731 17.9924C23.8731 17.9924 24.2931 17.8924 24.5131 17.8624L25.6431 14.7324H26.6431ZM26.1431 25.7324C25.6126 25.7324 25.1039 25.9431 24.7289 26.3182C24.3538 26.6933 24.1431 27.202 24.1431 27.7324C24.1431 28.2629 24.3538 28.7716 24.7289 29.1466C25.1039 29.5217 25.6126 29.7324 26.1431 29.7324C26.6735 29.7324 27.1822 29.5217 27.5573 29.1466C27.9324 28.7716 28.1431 28.2629 28.1431 27.7324C28.1431 27.202 27.9324 26.6933 27.5573 26.3182C27.1822 25.9431 26.6735 25.7324 26.1431 25.7324Z" fill="#7A73FF"/>
<mask id="mask0_1_12" style="mask-type:luminance" maskUnits="userSpaceOnUse" x="0" y="0" width="33" height="26">
<path d="M28.1431 0.732407C29.2039 0.732407 30.2213 1.15391 30.9715 1.90401C31.7216 2.65411 32.1431 3.6716 32.1431 4.7324V21.7324C32.1431 22.7933 31.7216 23.8107 30.9715 24.5608C30.2213 25.311 29.2039 25.7324 28.1431 25.7324H4.1431C3.0822 25.7324 2.0648 25.311 1.3146 24.5608C0.564496 23.8107 0.143097 22.7933 0.143097 21.7324V4.7324C0.143097 3.6716 0.564496 2.65411 1.3146 1.90401C2.0648 1.15391 3.0822 0.732407 4.1431 0.732407H28.1431ZM4.9431 5.90241L4.2731 6.65241C4.1954 6.73991 4.1508 6.85191 4.1472 6.96881C4.1435 7.08571 4.181 7.20031 4.2531 7.29241L4.3131 7.35241L7.6031 10.2724L4.3031 13.1924C4.2073 13.2819 4.1506 13.4054 4.145 13.5363C4.1393 13.6672 4.1853 13.7951 4.2731 13.8924L4.9331 14.6524C5.1131 14.8524 5.4331 14.8724 5.6331 14.6924L10.6031 10.2724L5.6431 5.86241C5.5445 5.77601 5.4158 5.73171 5.2849 5.73921C5.1539 5.74661 5.0312 5.80531 4.9431 5.90241Z" fill="white"/>
</mask>
<g mask="url(#mask0_1_12)">
<path d="M26.6431 14.7324L27.7731 17.8624L28.4131 17.9924L30.6531 15.5324L31.5831 15.9124L31.4231 19.2424C31.6131 19.3524 31.7931 19.4724 31.9631 19.6024L34.9831 18.1824L35.6831 18.8924L34.2731 21.9124C34.4031 22.0824 34.5231 22.2624 34.6331 22.4524L37.9631 22.2924L38.3431 23.2224L35.8831 25.4624C35.9331 25.6724 35.9831 25.8824 36.0131 26.1024L39.1431 27.2324V28.2324L36.0131 29.3624C35.9731 29.6124 35.9131 29.8624 35.8631 30.0924L38.3431 32.2424L37.9631 33.1724L34.6831 32.9324C34.5431 33.1724 34.3831 33.4024 34.2131 33.6324L35.6931 36.5724L34.9831 37.2724L32.0431 35.8024C31.8131 35.9724 31.5831 36.1324 31.3431 36.2724L31.5831 39.5524L30.6531 39.9324L28.5031 37.4524C28.2331 37.5124 27.9631 37.5724 27.6831 37.6124L26.6431 40.7324H25.6431L24.6031 37.6124C24.3231 37.5724 24.0531 37.5124 23.7831 37.4524L21.6331 39.9324L20.7031 39.5524L20.9431 36.2724C20.7031 36.1324 20.4731 35.9724 20.2431 35.8024L17.3031 37.2824L16.6031 36.5724L18.0731 33.6324C17.9031 33.4024 17.7431 33.1724 17.6031 32.9324L14.3231 33.1724L13.9431 32.2424L16.4231 30.0924C16.3583 29.8215 16.3049 29.5479 16.2631 29.2724L13.1431 28.2324V27.2324L16.2631 26.1924C16.3031 25.9424 16.3431 25.7024 16.4031 25.4624L13.9431 23.2224L14.3231 22.2924L17.6531 22.4524C17.7631 22.2624 17.8831 22.0824 18.0131 21.9124L16.5931 18.8924L17.3031 18.1924L20.3231 19.6024C20.4931 19.4724 20.6731 19.3524 20.8631 19.2424L20.7031 15.9124L21.6331 15.5324L23.8731 17.9924C23.8731 17.9924 24.2931 17.8924 24.5131 17.8624L25.6431 14.7324H26.6431ZM26.1431 25.7324C25.6126 25.7324 25.1039 25.9431 24.7289 26.3182C24.3538 26.6933 24.1431 27.202 24.1431 27.7324C24.1431 28.2629 24.3538 28.7716 24.7289 29.1466C25.1039 29.5217 25.6126 29.7324 26.1431 29.7324C26.6735 29.7324 27.1822 29.5217 27.5573 29.1466C27.9324 28.7716 28.1431 28.2629 28.1431 27.7324C28.1431 27.202 27.9324 26.6933 27.5573 26.3182C27.1822 25.9431 26.6735 25.7324 26.1431 25.7324Z" fill="#CCFFFF"/>
</g>
</svg>
