<svg width="200" height="41" viewBox="0 0 200 41" fill="none" xmlns="http://www.w3.org/2000/svg">
<path fill-rule="evenodd" clip-rule="evenodd" d="M111.58 34.3565C106.18 38.3465 98.37 40.4465 91.64 40.4465C82.6447 40.4948 73.9548 37.1858 67.27 31.1665C66.77 30.7165 67.22 30.0865 67.83 30.4465C75.2523 34.6851 83.6528 36.9119 92.2 36.9065C98.18 36.9065 104.75 35.6665 110.8 33.1065C111.7 32.7165 112.47 33.7065 111.58 34.3565Z" fill="#EFA82E"/>
<path fill-rule="evenodd" clip-rule="evenodd" d="M113.82 31.806C113.13 30.926 109.26 31.386 107.52 31.596C107 31.656 106.92 31.196 107.39 30.866C110.48 28.696 115.54 29.326 116.12 30.046C116.72 30.786 115.97 35.846 113.08 38.256C112.63 38.636 112.21 38.436 112.41 37.946C113.06 36.316 114.51 32.686 113.82 31.806Z" fill="#EFA82E"/>
<path fill-rule="evenodd" clip-rule="evenodd" d="M107.65 15.5778V13.4778C107.65 13.1478 107.89 12.9378 108.18 12.9378H117.63C117.93 12.9378 118.17 13.1578 118.17 13.4678V15.2678C118.17 15.5678 117.91 15.9678 117.46 16.5978L112.56 23.5678C114.38 23.5278 116.3 23.7978 117.96 24.7278C118.32 24.9278 118.43 25.2378 118.46 25.5478V27.7878C118.46 28.0978 118.12 28.4578 117.76 28.2678C116.216 27.4754 114.504 27.0638 112.768 27.0673C111.032 27.0708 109.322 27.4892 107.78 28.2878C107.45 28.4578 107.11 28.1078 107.11 27.7978V25.6678C107.11 25.3278 107.11 24.7378 107.46 24.2178L113.13 16.1078H108.19C108.12 16.1091 108.05 16.0964 107.984 16.0704C107.919 16.0443 107.859 16.0055 107.809 15.9562C107.759 15.9068 107.719 15.8479 107.691 15.783C107.664 15.718 107.65 15.6483 107.65 15.5778ZM73.2002 28.7078H70.3202C70.1938 28.6992 70.0744 28.6464 69.983 28.5586C69.8916 28.4709 69.834 28.3538 69.8202 28.2278V13.5078C69.8202 13.2078 70.0602 12.9778 70.3702 12.9778H73.0402C73.3202 12.9878 73.5402 13.2078 73.5602 13.4778V15.3978H73.6202C74.3202 13.5378 75.6202 12.6678 77.4002 12.6678C79.2002 12.6678 80.3202 13.5378 81.1302 15.3978C81.4159 14.5819 81.9534 13.8779 82.6651 13.3872C83.3769 12.8966 84.226 12.6447 85.0902 12.6678C86.2902 12.6678 87.6102 13.1678 88.4202 14.2778C89.3202 15.5178 89.1402 17.3178 89.1402 18.8978V28.1778C89.1402 28.4778 88.8902 28.7078 88.5902 28.7078H85.7202C85.5839 28.7029 85.4545 28.6465 85.358 28.55C85.2615 28.4535 85.2052 28.3241 85.2002 28.1878V20.3878C85.2002 19.7578 85.2602 18.2078 85.1202 17.6278C84.9002 16.6278 84.2602 16.3578 83.4302 16.3578C82.7302 16.3578 82.0102 16.8178 81.7102 17.5578C81.4202 18.3078 81.4502 19.5478 81.4502 20.3778V28.1778C81.4502 28.4778 81.2002 28.7078 80.8902 28.7078H78.0202C77.8856 28.7004 77.7587 28.643 77.6643 28.5467C77.57 28.4505 77.515 28.3225 77.5102 28.1878V20.3878C77.5102 18.7378 77.7702 16.3278 75.7402 16.3278C73.6702 16.3278 73.7502 18.6778 73.7502 20.3778V28.1778C73.7502 28.4778 73.5002 28.7078 73.2002 28.7078ZM126.31 15.6778C124.2 15.6778 124.06 18.5578 124.06 20.3478C124.06 22.1478 124.04 25.9878 126.29 25.9878C128.51 25.9878 128.62 22.8878 128.62 20.9978C128.62 19.7578 128.57 18.2778 128.19 17.0978C127.87 16.0778 127.23 15.6778 126.31 15.6778ZM126.29 12.6678C130.55 12.6678 132.86 16.3278 132.86 20.9678C132.86 25.4678 130.31 29.0178 126.29 29.0178C122.1 29.0178 119.83 25.3678 119.83 20.8178C119.83 16.2278 122.13 12.6678 126.29 12.6678ZM138.39 28.7078H135.52C135.386 28.7004 135.259 28.643 135.164 28.5467C135.07 28.4505 135.015 28.3225 135.01 28.1878V13.4478C135.027 13.3144 135.093 13.1919 135.194 13.1034C135.295 13.015 135.426 12.9667 135.56 12.9678H138.22C138.47 12.9778 138.68 13.1478 138.73 13.3778V15.6278H138.78C139.59 13.6178 140.72 12.6578 142.7 12.6578C143.99 12.6578 145.25 13.1278 146.05 14.3978C146.8 15.5678 146.8 17.5578 146.8 18.9778V28.2378C146.779 28.3676 146.711 28.4854 146.61 28.5698C146.51 28.6542 146.382 28.6996 146.25 28.6978H143.37C143.247 28.69 143.13 28.64 143.039 28.5563C142.948 28.4726 142.888 28.3601 142.87 28.2378V20.2378C142.87 18.6378 143.05 16.2878 141.07 16.2878C140.37 16.2878 139.72 16.7478 139.4 17.4578C139 18.3578 138.94 19.2578 138.94 20.2478V28.1678C138.94 28.4678 138.69 28.6978 138.39 28.6978M103.01 28.6678C102.916 28.7457 102.801 28.7932 102.68 28.8039C102.558 28.8147 102.436 28.7881 102.33 28.7278C101.37 27.9378 101.2 27.5778 100.68 26.8278C99.1102 28.4278 97.9802 28.9078 95.9502 28.9078C93.5302 28.9078 91.6502 27.4078 91.6502 24.4378C91.6157 23.4362 91.891 22.4483 92.4387 21.609C92.9863 20.7697 93.7795 20.1197 94.7102 19.7478C96.2702 19.0678 98.4502 18.9478 100.11 18.7478V18.3878C100.11 17.6978 100.17 16.8878 99.7602 16.3078C99.4102 15.7778 98.7402 15.5578 98.1502 15.5578C97.0502 15.5578 96.0802 16.1178 95.8402 17.2778C95.7902 17.5378 95.6002 17.7978 95.3402 17.8078L92.5602 17.5078C92.3202 17.4578 92.0602 17.2678 92.1302 16.9078C92.7702 13.5378 95.8202 12.5078 98.5502 12.5078C99.9502 12.5078 101.78 12.8878 102.88 13.9478C104.28 15.2478 104.14 16.9878 104.14 18.8778V23.3478C104.14 24.6878 104.7 25.2778 105.23 26.0078C105.41 26.2678 105.45 26.5778 105.22 26.7678C104.63 27.2578 103.59 28.1678 103.02 28.6678H103.01ZM100.11 21.6678C100.11 22.7878 100.14 23.7178 99.5702 24.7178C99.1202 25.5178 98.3902 26.0178 97.5902 26.0178C96.4902 26.0178 95.8402 25.1778 95.8402 23.9378C95.8402 21.4978 98.0402 21.0578 100.11 21.0578V21.6678ZM65.3502 28.6678C65.2564 28.7457 65.141 28.7932 65.0196 28.8039C64.8981 28.8147 64.7762 28.7881 64.6702 28.7278C63.7202 27.9378 63.5502 27.5778 63.0202 26.8278C61.4502 28.4278 60.3302 28.9078 58.2902 28.9078C55.8702 28.9078 53.9902 27.4078 53.9902 24.4378C53.9557 23.4362 54.231 22.4483 54.7787 21.609C55.3263 20.7697 56.1195 20.1197 57.0502 19.7478C58.6102 19.0678 60.7902 18.9478 62.4502 18.7478V18.3878C62.4502 17.6978 62.5102 16.8878 62.1002 16.3078C61.7602 15.7778 61.0802 15.5578 60.5002 15.5578C59.4002 15.5578 58.4202 16.1178 58.1802 17.2778C58.1302 17.5378 57.9402 17.7978 57.6802 17.8078L54.9002 17.5078C54.6702 17.4578 54.4002 17.2678 54.4702 16.9078C55.1102 13.5378 58.1702 12.5078 60.9002 12.5078C62.3002 12.5078 64.1202 12.8878 65.2202 13.9478C66.6202 15.2478 66.4902 16.9878 66.4902 18.8778V23.3478C66.4902 24.6878 67.0402 25.2778 67.5702 26.0078C67.7502 26.2678 67.7902 26.5778 67.5602 26.7678C66.9702 27.2578 65.9302 28.1678 65.3602 28.6678H65.3502ZM62.4502 21.6678C62.4502 22.7878 62.4802 23.7178 61.9202 24.7178C61.4602 25.5178 60.7402 26.0178 59.9202 26.0178C58.8202 26.0178 58.1802 25.1778 58.1802 23.9378C58.1802 21.4978 60.3802 21.0578 62.4602 21.0578V21.6678H62.4502Z" fill="#1B1A19"/>
</svg>
