<svg width="22" height="22" viewBox="0 0 22 22" fill="none" xmlns="http://www.w3.org/2000/svg">
<path d="M14.9445 8.46146C14.9445 8.28849 14.9086 8.11745 14.8393 7.95942L12.9431 3.63414C12.7473 3.18794 12.3106 2.90039 11.8288 2.90039H2.14034C1.46686 2.90039 0.920898 3.45367 0.920898 4.13619V12.7867C0.920898 13.4692 1.46686 14.0225 2.14034 14.0225H11.8288C12.3106 14.0225 12.7473 13.735 12.9431 13.2888L14.8393 8.96351C14.9086 8.80548 14.9445 8.63444 14.9445 8.46146Z" stroke="#C4CCD8" stroke-width="1.83333"/>
<path d="M6.24023 13.7818C6.24023 13.9547 6.27607 14.1258 6.34541 14.2838L8.24164 18.6091C8.43739 19.0553 8.87405 19.3428 9.35589 19.3428H19.0444C19.7179 19.3428 20.2638 18.7895 20.2638 18.107V9.45652C20.2638 8.77401 19.7179 8.2207 19.0444 8.2207H9.35589C8.87405 8.2207 8.43739 8.50824 8.24164 8.95447L6.34541 13.2797C6.27607 13.4378 6.24023 13.6088 6.24023 13.7818Z" stroke="#C4CCD8" stroke-width="1.83333"/>
</svg>
