<svg width="200" height="41" viewBox="0 0 200 41" fill="none" xmlns="http://www.w3.org/2000/svg">
<path d="M111.852 20.4497C111.852 26.9997 106.55 32.3017 99.9999 32.3017V20.4497H111.852ZM99.9999 8.59766V20.4497H88.1479C88.1479 13.8997 93.4499 8.59766 99.9999 8.59766Z" fill="#AAB4C1"/>
<path d="M99.9999 8.59766C106.55 8.59766 111.852 13.8997 111.852 20.4477H99.9999V8.59766ZM88.1479 20.4477H99.9999V32.3007C93.4499 32.3007 88.1479 26.9977 88.1479 20.4477Z" fill="white"/>
<path d="M100 8.59722V9.24722C106.176 9.24722 111.202 14.2722 111.202 20.4492H111.851C111.851 13.9042 106.546 8.59722 100 8.59722ZM100 31.6512C93.824 31.6512 88.798 26.6262 88.798 20.4492H88.148C88.148 26.9942 93.454 32.3012 100 32.3012M100 0.449219C88.955 0.449219 80 9.40422 80 20.4492C80 31.4942 88.955 40.4492 100 40.4492C111.045 40.4492 120 31.4942 120 20.4492C120 9.40422 111.045 0.449219 100 0.449219ZM118.7 20.4492C118.7 30.7762 110.328 39.1492 100 39.1492C89.672 39.1492 81.3 30.7762 81.3 20.4492C81.3 10.1222 89.673 1.74922 100 1.74922C110.327 1.74922 118.7 10.1222 118.7 20.4492Z" fill="#AAB4C1"/>
<path d="M91.4528 10.8C92.0928 10.132 92.4538 9.35997 91.8158 8.62197C91.4678 8.22197 90.8828 8.13497 90.3998 8.33197L90.3508 8.34997L90.3668 8.30797C90.4378 8.11797 90.4838 7.51097 89.9628 7.09297C89.8376 6.99466 89.6941 6.92213 89.5406 6.87956C89.3872 6.837 89.2268 6.82524 89.0688 6.84497C88.4688 6.90497 88.0068 7.31297 86.7508 8.70497C86.3128 9.19497 85.8908 9.69897 85.4868 10.216L88.9398 13.469C90.0838 12.211 90.5498 11.745 91.4528 10.8ZM86.9478 10.005C87.6438 9.15897 88.3818 8.39297 88.7168 8.08997C88.8218 7.99397 88.9368 7.89997 89.0768 7.86097C89.3038 7.79897 89.5368 7.95897 89.5908 8.19097C89.6438 8.42297 89.4968 8.64297 89.3338 8.82497C88.9658 9.23697 87.6168 10.638 87.6168 10.638L86.9468 10.004L86.9478 10.005ZM88.2998 11.279C88.2998 11.279 89.6128 9.89897 90.0418 9.45897C90.2118 9.28397 90.3218 9.17797 90.4388 9.11997C90.5908 9.04697 90.7558 9.03197 90.9048 9.12997C90.9744 9.17516 91.0285 9.2406 91.0598 9.31749C91.0911 9.39437 91.0981 9.479 91.0798 9.55997C91.0368 9.75597 90.8748 9.94397 90.7398 10.088L88.9998 11.938L88.2998 11.279ZM100.395 6.92097L101.5 4.46097L101.571 4.24297L101.551 4.47097L101.667 7.75697C102.063 7.79497 102.458 7.84697 102.85 7.91297L102.67 3.04497C102.121 2.98512 101.57 2.94277 101.019 2.91797L99.9298 5.60197L99.8918 5.80197L99.8518 5.60197L98.7638 2.91797C98.2138 2.94097 97.6638 2.98397 97.1118 3.04497L96.9318 7.91297C97.3248 7.84797 97.7198 7.79597 98.1158 7.75697L98.2318 4.47097L98.2118 4.24297L98.2818 4.46297L99.3878 6.92097H100.395ZM109.576 12.009C109.848 12.299 110.239 12.765 110.459 13.049L114.504 10.498C114.256 10.1783 114.001 9.8642 113.739 9.55597L111.177 11.238L111.003 11.388L111.133 11.198L112.265 8.95597L111.465 8.16097L109.205 9.28497L109.015 9.41397L109.166 9.23997L110.862 6.69697C110.551 6.43516 110.234 6.18108 109.911 5.93497L107.343 9.94897C107.668 10.197 108.097 10.563 108.371 10.811L110.788 9.56497L110.944 9.45197L110.83 9.60497L109.576 12.009Z" fill="#AAB4C1"/>
</svg>
