<svg width="200" height="41" viewBox="0 0 200 41" fill="none" xmlns="http://www.w3.org/2000/svg">
<path fill-rule="evenodd" clip-rule="evenodd" d="M71.5601 27.1958V13.3408H75.2761L79.9831 23.6948L84.6201 13.3398H88.1791V27.1948H85.1151V19.1348L81.5811 27.1948H78.3161L74.7361 19.1788V27.1948L71.5601 27.1958ZM100.507 21.8318L97.9441 15.9578L95.4391 21.8308L100.507 21.8318ZM93.1481 27.1958H89.5451L95.7381 13.3408H100.173L106.41 27.1958H102.854L101.627 24.4358H94.3371L93.1481 27.1958ZM107.847 27.1958V13.3408H121.176V16.1108H111.066V18.8628H119.735V21.5668H111.066V24.4248H121.201V27.1958H107.847ZM127.058 19.7028H134.062V16.1098H127.058V19.7028ZM123.793 27.1958V13.3408H134.948C136.438 13.3408 137.303 14.1958 137.303 15.6638V20.3188C137.303 21.3898 136.348 22.3578 134.495 22.3578C134.39 22.3628 134.283 22.3578 134.173 22.3578L137.42 27.1958H133.837L130.758 22.4588H127.058V27.1958H123.793ZM143.177 27.2038H142.072C140.629 27.2038 139.934 26.3768 139.934 25.1718V23.3618H143.177V24.4338H150.067V21.5978H142.164C140.902 21.5978 139.993 20.7558 139.993 19.5878V15.4738C139.993 14.2288 140.982 13.3488 142.186 13.3488H151.221C152.442 13.3488 153.286 14.2538 153.286 15.5618V17.2148H150.067V16.1198H143.177V18.8488H151.057C152.221 18.8488 153.286 19.6128 153.286 21.0828V25.0378C153.286 26.3848 152.534 27.2038 151.126 27.2038H143.177ZM156.398 27.2038V13.3468H159.708V18.8888L166.012 13.3468H170.493L162.973 19.7838L170.764 27.2038H166.124L159.708 20.9018V27.2038H156.398Z" fill="#AAB4C1"/>
<path fill-rule="evenodd" clip-rule="evenodd" d="M54.397 4.44922H31.608C30.649 4.44922 29.73 4.82922 29.053 5.50422C28.7181 5.83783 28.4526 6.23451 28.2718 6.67134C28.0911 7.10817 27.9987 7.57648 28 8.04922V32.3562C28 34.3372 29.615 35.9442 31.608 35.9442H54.398C56.393 35.9442 58.011 34.3342 58.011 32.3502V8.04322C58.011 6.05822 56.393 4.44922 54.397 4.44922ZM53.711 11.9562L47.787 19.3132L56.347 23.3922L56.341 23.4212H46.838L48.956 32.5872L48.927 32.6042L43.003 25.2472L37.079 32.6042L37.055 32.5922L39.168 23.4202H29.67L29.659 23.3922L38.219 19.3122L32.295 11.9562L32.312 11.9332L40.872 16.0122L42.985 6.84522H43.02L45.133 16.0122L53.693 11.9322L53.711 11.9562Z" fill="#AAB4C1"/>
</svg>
