<svg width="200" height="41" viewBox="0 0 200 41" fill="none" xmlns="http://www.w3.org/2000/svg">
<path d="M64.4 16.7492C64.4 18.4492 63 19.8492 61.3 19.8492C59.6 19.8492 58.2 18.4492 58.2 16.7492C58.2 15.0492 59.6 13.6492 61.3 13.6492C63 13.6492 64.4 15.0492 64.4 16.7492ZM61.3 21.0492C59.6 21.0492 58.2 22.4492 58.2 24.1492C58.2 25.8492 59.6 27.2492 61.3 27.2492C63 27.2492 64.4 25.8492 64.4 24.1492C64.4 22.4492 63 21.0492 61.3 21.0492ZM80 20.4492C80 28.7492 73.3 35.4492 65 35.4492C56.7 35.4492 50 28.7492 50 20.4492C50 12.1492 56.7 5.44922 65 5.44922C73.3 5.44922 80 12.1492 80 20.4492ZM76 20.4492C76 14.3492 71.1 9.44922 65 9.44922C58.9 9.44922 54 14.3492 54 20.4492C54 26.5492 58.9 31.4492 65 31.4492C71.1 31.4492 76 26.5492 76 20.4492ZM68.7 21.0492C67 21.0492 65.6 22.4492 65.6 24.1492C65.6 25.8492 67 27.2492 68.7 27.2492C70.4 27.2492 71.8 25.8492 71.8 24.1492C71.8 22.4492 70.4 21.0492 68.7 21.0492ZM68.7 13.6492C67 13.6492 65.6 15.0492 65.6 16.7492C65.6 18.4492 67 19.8492 68.7 19.8492C70.4 19.8492 71.8 18.4492 71.8 16.7492C71.8 15.0492 70.4 13.6492 68.7 13.6492ZM120.3 11.3492C120.4 11.3492 120.5 11.4492 120.6 11.5492V14.7492C120.6 14.9492 120.4 15.0492 120.3 15.0492H115C114.8 15.0492 114.7 14.8492 114.7 14.7492V11.6492C114.7 11.4492 114.9 11.3492 115 11.3492H120.3ZM120.2 15.8492H110C109.9 15.8492 109.7 15.9492 109.7 16.1492L108.4 21.1492L108.3 21.4492L106.7 16.1492C106.7 16.0492 106.5 15.8492 106.4 15.8492H102.4C102.3 15.8492 102.1 15.9492 102.1 16.1492L100.6 21.1492L100.5 21.4492L100.4 21.1492L99.8 18.6492L99.2 16.1492C99.2 16.0492 99 15.8492 98.9 15.8492H90.9V11.5492C90.9 11.4492 90.7 11.2492 90.5 11.3492L85.5 12.9492C85.3 12.9492 85.2 13.0492 85.2 13.2492V15.9492H83.9C83.8 15.9492 83.6 16.0492 83.6 16.2492V20.0492C83.6 20.1492 83.7 20.3492 83.9 20.3492H85.2V25.0492C85.2 28.3492 87 29.8492 90.3 29.8492C91.7 29.8492 93 29.5492 93.9 29.0492V25.0492C93.9 24.8492 93.7 24.7492 93.6 24.8492C93.1 25.0492 92.6 25.1492 92.2 25.1492C91.3 25.1492 90.8 24.7492 90.8 23.7492V20.3492H93.7C93.8 20.3492 94 20.2492 94 20.0492V16.8492L97.8 29.4492C97.8 29.5492 98 29.7492 98.1 29.7492H102.3C102.4 29.7492 102.6 29.6492 102.6 29.4492L104.4 23.8492L105.3 26.7492L106.1 29.4492C106.1 29.5492 106.3 29.7492 106.4 29.7492H110.6C110.7 29.7492 110.9 29.6492 110.9 29.4492L114.7 16.8492V29.4492C114.7 29.5492 114.8 29.7492 115 29.7492H120.1C120.2 29.7492 120.4 29.6492 120.4 29.4492V16.1492C120.4 16.0492 120.3 15.8492 120.2 15.8492ZM126.9 11.3492H121.8C121.7 11.3492 121.5 11.4492 121.5 11.6492V29.3492C121.5 29.4492 121.6 29.6492 121.8 29.6492H126.9C127 29.6492 127.2 29.5492 127.2 29.3492V11.5492C127.2 11.4492 127.1 11.3492 126.9 11.3492ZM133.7 11.3492H128.4C128.3 11.3492 128.1 11.4492 128.1 11.6492V14.7492C128.1 14.8492 128.2 15.0492 128.4 15.0492H133.7C133.8 15.0492 134 14.9492 134 14.7492V11.5492C134 11.4492 133.9 11.3492 133.7 11.3492ZM133.6 15.8492H128.5C128.4 15.8492 128.2 15.9492 128.2 16.1492V29.2492C128.2 29.3492 128.3 29.5492 128.5 29.5492H133.6C133.7 29.5492 133.9 29.4492 133.9 29.2492V16.1492C133.9 16.0492 133.8 15.8492 133.6 15.8492ZM149.7 22.6492C149.7 26.4492 146.5 29.7492 142 29.7492C137.6 29.7492 134.4 26.4492 134.4 22.6492C134.4 18.8492 137.6 15.5492 142.1 15.5492C146.5 15.5492 149.7 18.8492 149.7 22.6492ZM144.3 22.7492C144.3 21.3492 143.3 20.2492 142.1 20.3492C140.8 20.3492 139.9 21.4492 139.9 22.7492C139.9 24.0492 140.9 25.1492 142.1 25.1492C143.4 25.1492 144.3 24.0492 144.3 22.7492Z" fill="#AAB4C1"/>
</svg>
