<svg width="23" height="8" viewBox="0 0 23 8" fill="none" xmlns="http://www.w3.org/2000/svg">
<path d="M2.59161 1.70374C2.05661 1.40774 1.44762 1.16976 0.765625 1.00476L0.794617 0.875763H3.58961C3.96861 0.888763 4.27563 1.00374 4.37563 1.41074L4.98361 4.33875L5.16962 5.21976L6.87062 0.875763H8.70761L5.97662 7.23975H4.13962L2.59161 1.70374ZM10.0596 7.24677H8.32162L9.40862 0.875763H11.1456L10.0596 7.24677ZM16.3576 1.03174L16.1206 2.40674L15.9636 2.33975C15.6496 2.21075 15.2346 2.08176 14.6696 2.09576C13.9836 2.09576 13.6756 2.37374 13.6686 2.64474C13.6686 2.94274 14.0406 3.13976 14.6486 3.43076C15.6496 3.88476 16.1136 4.44074 16.1066 5.16574C16.0926 6.48774 14.9066 7.34174 13.0836 7.34174C12.3036 7.33474 11.5536 7.17875 11.1456 7.00275L11.3886 5.57275L11.6176 5.67474C12.1826 5.91174 12.5536 6.01276 13.2476 6.01276C13.7476 6.01276 14.2846 5.81674 14.2906 5.38974C14.2906 5.11174 14.0626 4.90774 13.3906 4.59674C12.7326 4.29174 11.8536 3.78274 11.8676 2.86774C11.8746 1.62774 13.0836 0.759766 14.7986 0.759766C15.4706 0.759766 16.0146 0.902738 16.3576 1.03174ZM18.6666 4.98975H20.1106C20.0386 4.67075 19.7096 3.14575 19.7096 3.14575L19.5886 2.59674C19.5026 2.83474 19.3526 3.22076 19.3596 3.20676C19.3596 3.20676 18.8096 4.62375 18.6666 4.98975ZM20.8106 0.875763L22.2126 7.24677H20.6036C20.6036 7.24677 20.4466 6.51474 20.3966 6.29074H18.1656C18.1016 6.46074 17.8016 7.24677 17.8016 7.24677H15.9786L18.5586 1.40375C18.7376 0.990748 19.0526 0.875763 19.4666 0.875763H20.8106Z" fill="#171E6C"/>
</svg>
