<svg width="79" height="79" viewBox="0 0 79 79" fill="none" xmlns="http://www.w3.org/2000/svg">
<rect x="0.642578" y="1.39258" width="77" height="77" rx="7.5" fill="#F6F9FC"/>
<rect x="0.642578" y="1.39258" width="77" height="77" rx="7.5" stroke="#C4CCD8"/>
<path d="M38.3003 22.1787C41.3001 22.4586 44.2268 23.3044 46.9232 24.6782C49.6196 26.0521 52.0242 27.9228 54.0138 30.1852C54.824 31.1064 54.5966 32.5037 53.6041 33.2248L39.6091 43.3927C38.1407 44.4596 36.082 43.4106 36.082 41.5956V24.2969C36.082 23.07 37.0787 22.0648 38.3003 22.1787Z" stroke="#C4CCD8"/>
<path d="M50.9576 43.7332C50.9576 36.0655 44.7417 29.8496 37.074 29.8496C29.4063 29.8496 23.1904 36.0655 23.1904 43.7332C23.1904 51.4009 29.4063 57.6168 37.074 57.6168C44.7417 57.6168 50.9576 51.4009 50.9576 43.7332Z" stroke="#C4CCD8"/>
</svg>
