<svg width="116" height="117" viewBox="0 0 116 117" fill="none" xmlns="http://www.w3.org/2000/svg">
<g filter="url(#filter0_dd_4003_6802)">
<g clip-path="url(#clip0_4003_6802)">
<rect x="14.1426" y="1.89258" width="88" height="88" rx="8" fill="white"/>
<path d="M70.8776 30.4292L66.1451 31.4492L50.1401 34.8917L44.6276 36.0767C44.2056 36.1692 43.8281 36.4036 43.5579 36.7406C43.2877 37.0777 43.1411 37.4972 43.1426 37.9292V47.9942C43.1426 49.0442 43.9826 49.8917 45.0176 49.8917H71.2676C72.3026 49.8917 73.1426 49.0442 73.1426 47.9942V32.2892C73.1426 31.7117 72.8876 31.1717 72.4451 30.8117C72.2287 30.6356 71.9754 30.5105 71.7041 30.4456C71.4327 30.3807 71.1503 30.3776 70.8776 30.4367V30.4292Z" fill="#9B66FF"/>
<path d="M64.5851 19.8928H51.8276C51.5774 19.8888 51.3289 19.9342 51.0962 20.0263C50.8636 20.1184 50.6514 20.2554 50.4717 20.4295C50.292 20.6036 50.1484 20.8114 50.049 21.0411C49.9496 21.2707 49.8965 21.5176 49.8926 21.7678V40.5178C49.8926 41.5528 50.7551 42.3928 51.8276 42.3928H64.4576C64.7078 42.3968 64.9563 42.3514 65.1889 42.2594C65.4216 42.1673 65.6338 42.0303 65.8135 41.8561C65.9932 41.682 66.1368 41.4742 66.2362 41.2446C66.3355 41.015 66.3887 40.768 66.3926 40.5178V21.7678C66.3929 21.282 66.2046 20.8151 65.8675 20.4653C65.5303 20.1155 65.0706 19.9103 64.5851 19.8928Z" fill="url(#paint0_linear_4003_6802)"/>
<path d="M66.3926 31.3984V40.5184C66.3926 41.5534 65.5301 42.3934 64.4576 42.3934H51.8276C51.5774 42.3974 51.3289 42.3521 51.0962 42.26C50.8636 42.1679 50.6514 42.0309 50.4717 41.8568C50.292 41.6826 50.1484 41.4748 50.049 41.2452C49.9496 41.0156 49.8965 40.7686 49.8926 40.5184V34.9459L50.1401 34.8934L66.1451 31.4509L66.3926 31.3984Z" fill="url(#paint1_linear_4003_6802)"/>
<path d="M36.0379 67.1294V66.1199H42.0534V67.1294H39.6282V73.8926H38.4593V67.1294H36.0379ZM45.1587 74.0102C44.5843 74.0102 44.0897 73.8875 43.6747 73.6421C43.2623 73.3941 42.9435 73.0462 42.7183 72.5984C42.4957 72.148 42.3843 71.6205 42.3843 71.0158C42.3843 70.4186 42.4957 69.8924 42.7183 69.4369C42.9435 68.9815 43.2573 68.626 43.6596 68.3704C44.0644 68.1149 44.5375 67.9871 45.079 67.9871C45.4079 67.9871 45.7267 68.0415 46.0354 68.1503C46.3441 68.2591 46.6211 68.4299 46.8666 68.6627C47.112 68.8955 47.3055 69.1978 47.4472 69.5698C47.5889 69.9392 47.6598 70.3883 47.6598 70.9171V71.3194H43.0257V70.4692H46.5478C46.5478 70.1707 46.487 69.9063 46.3656 69.676C46.2441 69.4432 46.0733 69.2598 45.8532 69.1257C45.6356 68.9916 45.3801 68.9246 45.0866 68.9246C44.7678 68.9246 44.4895 69.003 44.2516 69.1599C44.0163 69.3142 43.8341 69.5166 43.7051 69.7671C43.5786 70.0151 43.5153 70.2845 43.5153 70.5755V71.2397C43.5153 71.6293 43.5836 71.9608 43.7203 72.234C43.8594 72.5073 44.053 72.716 44.301 72.8603C44.5489 73.002 44.8386 73.0728 45.1701 73.0728C45.3851 73.0728 45.5812 73.0424 45.7583 72.9817C45.9355 72.9185 46.0885 72.8248 46.2176 72.7009C46.3466 72.5769 46.4453 72.4238 46.5136 72.2416L47.5877 72.4352C47.5016 72.7515 47.3473 73.0285 47.1246 73.2664C46.9045 73.5017 46.6275 73.6851 46.2935 73.8167C45.962 73.9457 45.5838 74.0102 45.1587 74.0102ZM49.1189 73.8926V68.063H50.2157V68.9891H50.2764C50.3827 68.6753 50.5699 68.4286 50.8381 68.249C51.1088 68.0668 51.415 67.9757 51.7566 67.9757C51.8274 67.9757 51.9109 67.9783 52.0071 67.9833C52.1057 67.9884 52.1829 67.9947 52.2386 68.0023V69.0878C52.193 69.0751 52.1121 69.0612 51.9957 69.046C51.8793 69.0283 51.7629 69.0194 51.6465 69.0194C51.3783 69.0194 51.1392 69.0764 50.9292 69.1902C50.7217 69.3016 50.5573 69.4572 50.4358 69.657C50.3144 69.8544 50.2536 70.0796 50.2536 70.3326V73.8926H49.1189ZM53.4206 73.8926V68.063H54.5098V69.0119H54.582C54.7034 68.6905 54.902 68.44 55.1778 68.2604C55.4536 68.0782 55.7838 67.9871 56.1684 67.9871C56.558 67.9871 56.8844 68.0782 57.1476 68.2604C57.4132 68.4426 57.6093 68.693 57.7358 69.0119H57.7966C57.9357 68.7006 58.1571 68.4527 58.4607 68.268C58.7644 68.0807 59.1262 67.9871 59.5462 67.9871C60.075 67.9871 60.5064 68.1529 60.8404 68.4843C61.1769 68.8158 61.3451 69.3155 61.3451 69.9834V73.8926H60.2104V70.0897C60.2104 69.695 60.1028 69.4091 59.8878 69.232C59.6727 69.0549 59.4159 68.9663 59.1173 68.9663C58.7479 68.9663 58.4607 69.0802 58.2558 69.3079C58.0508 69.5331 57.9484 69.8228 57.9484 70.177V73.8926H56.8174V70.0176C56.8174 69.7013 56.7187 69.447 56.5213 69.2547C56.324 69.0625 56.0672 68.9663 55.7509 68.9663C55.5358 68.9663 55.3372 69.0232 55.155 69.1371C54.9754 69.2484 54.8299 69.404 54.7186 69.6039C54.6098 69.8038 54.5554 70.0353 54.5554 70.2985V73.8926H53.4206ZM63.0661 73.8926V68.063H64.2009V73.8926H63.0661ZM63.6392 67.1636C63.4418 67.1636 63.2723 67.0978 63.1306 66.9662C62.9915 66.8321 62.9219 66.6727 62.9219 66.488C62.9219 66.3008 62.9915 66.1414 63.1306 66.0098C63.2723 65.8757 63.4418 65.8086 63.6392 65.8086C63.8365 65.8086 64.0048 65.8757 64.144 66.0098C64.2856 66.1414 64.3565 66.3008 64.3565 66.488C64.3565 66.6727 64.2856 66.8321 64.144 66.9662C64.0048 67.0978 63.8365 67.1636 63.6392 67.1636ZM67.0623 70.4313V73.8926H65.9275V68.063H67.0168V69.0119H67.0889C67.223 68.7032 67.433 68.4552 67.7189 68.268C68.0073 68.0807 68.3704 67.9871 68.8082 67.9871C69.2054 67.9871 69.5533 68.0706 69.8519 68.2376C70.1504 68.4021 70.3819 68.6475 70.5464 68.9739C70.7108 69.3003 70.7931 69.7039 70.7931 70.1846V73.8926H69.6583V70.3212C69.6583 69.8987 69.5482 69.5685 69.3281 69.3307C69.108 69.0903 68.8056 68.9701 68.421 68.9701C68.1579 68.9701 67.9239 69.027 67.7189 69.1409C67.5165 69.2547 67.3558 69.4217 67.2369 69.6419C67.1205 69.8595 67.0623 70.1226 67.0623 70.4313ZM74.2115 74.0216C73.8421 74.0216 73.5081 73.9533 73.2095 73.8167C72.911 73.6775 72.6744 73.4764 72.4998 73.2132C72.3278 72.9501 72.2417 72.6275 72.2417 72.2454C72.2417 71.9165 72.305 71.6458 72.4315 71.4332C72.558 71.2207 72.7288 71.0524 72.9439 70.9285C73.1589 70.8045 73.3993 70.7109 73.665 70.6476C73.9306 70.5844 74.2014 70.5363 74.4771 70.5034C74.8263 70.4629 75.1097 70.43 75.3273 70.4047C75.5449 70.3769 75.703 70.3326 75.8017 70.2719C75.9004 70.2112 75.9497 70.1125 75.9497 69.9759V69.9493C75.9497 69.6178 75.8561 69.361 75.6689 69.1788C75.4842 68.9967 75.2084 68.9056 74.8415 68.9056C74.4594 68.9056 74.1583 68.9903 73.9382 69.1599C73.7206 69.3269 73.5701 69.5128 73.4866 69.7178L72.4201 69.4749C72.5466 69.1206 72.7313 68.8347 72.9742 68.6171C73.2196 68.397 73.5018 68.2376 73.8206 68.1389C74.1394 68.0377 74.4746 67.9871 74.8263 67.9871C75.0591 67.9871 75.3058 68.015 75.5664 68.0706C75.8295 68.1238 76.075 68.2224 76.3027 68.3667C76.5329 68.5109 76.7214 68.7171 76.8682 68.9853C77.0149 69.251 77.0883 69.5963 77.0883 70.0214V73.8926H75.9801V73.0956H75.9345C75.8612 73.2423 75.7511 73.3865 75.6043 73.5282C75.4576 73.6699 75.2691 73.7876 75.0388 73.8812C74.8086 73.9748 74.5328 74.0216 74.2115 74.0216ZM74.4582 73.1108C74.7719 73.1108 75.0401 73.0488 75.2628 72.9248C75.488 72.8008 75.6587 72.6389 75.7751 72.439C75.894 72.2366 75.9535 72.0202 75.9535 71.79V71.0385C75.913 71.079 75.8346 71.117 75.7182 71.1524C75.6043 71.1853 75.474 71.2144 75.3273 71.2397C75.1805 71.2625 75.0376 71.284 74.8984 71.3042C74.7593 71.3219 74.6429 71.3371 74.5493 71.3497C74.3291 71.3776 74.128 71.4244 73.9458 71.4902C73.7662 71.556 73.6219 71.6508 73.5131 71.7748C73.4069 71.8963 73.3537 72.0582 73.3537 72.2606C73.3537 72.5415 73.4575 72.754 73.665 72.8982C73.8724 73.0399 74.1368 73.1108 74.4582 73.1108ZM79.9346 66.1199V73.8926H78.7998V66.1199H79.9346Z" fill="#2E3A55"/>
</g>
</g>
<defs>
<filter id="filter0_dd_4003_6802" x="0.515878" y="0.865878" width="115.253" height="115.253" filterUnits="userSpaceOnUse" color-interpolation-filters="sRGB">
<feFlood flood-opacity="0" result="BackgroundImageFix"/>
<feColorMatrix in="SourceAlpha" type="matrix" values="0 0 0 0 0 0 0 0 0 0 0 0 0 0 0 0 0 0 127 0" result="hardAlpha"/>
<feMorphology radius="7.56" operator="erode" in="SourceAlpha" result="effect1_dropShadow_4003_6802"/>
<feOffset dy="7.56"/>
<feGaussianBlur stdDeviation="7.56"/>
<feComposite in2="hardAlpha" operator="out"/>
<feColorMatrix type="matrix" values="0 0 0 0 0 0 0 0 0 0 0 0 0 0 0 0 0 0 0.1 0"/>
<feBlend mode="normal" in2="BackgroundImageFix" result="effect1_dropShadow_4003_6802"/>
<feColorMatrix in="SourceAlpha" type="matrix" values="0 0 0 0 0 0 0 0 0 0 0 0 0 0 0 0 0 0 127 0" result="hardAlpha"/>
<feMorphology radius="11.5733" operator="erode" in="SourceAlpha" result="effect2_dropShadow_4003_6802"/>
<feOffset dy="12.6"/>
<feGaussianBlur stdDeviation="12.6"/>
<feComposite in2="hardAlpha" operator="out"/>
<feColorMatrix type="matrix" values="0 0 0 0 0.196078 0 0 0 0 0.196078 0 0 0 0 0.364706 0 0 0 0.25 0"/>
<feBlend mode="normal" in2="effect1_dropShadow_4003_6802" result="effect2_dropShadow_4003_6802"/>
<feBlend mode="normal" in="SourceGraphic" in2="effect2_dropShadow_4003_6802" result="shape"/>
</filter>
<linearGradient id="paint0_linear_4003_6802" x1="58.1426" y1="21.3703" x2="58.1426" y2="33.0928" gradientUnits="userSpaceOnUse">
<stop stop-color="#11EFE3"/>
<stop offset="0.33" stop-color="#15E8E2"/>
<stop offset="0.74" stop-color="#1FD3E0"/>
<stop offset="1" stop-color="#21CFE0"/>
</linearGradient>
<linearGradient id="paint1_linear_4003_6802" x1="66.3926" y1="36.8959" x2="47.1476" y2="36.8959" gradientUnits="userSpaceOnUse">
<stop stop-color="#0048E5"/>
<stop offset="0.64" stop-color="#625AF5"/>
<stop offset="1" stop-color="#8A62FC"/>
</linearGradient>
<clipPath id="clip0_4003_6802">
<rect x="14.1426" y="1.89258" width="88" height="88" rx="8" fill="white"/>
</clipPath>
</defs>
</svg>
