<svg width="116" height="117" viewBox="0 0 116 117" fill="none" xmlns="http://www.w3.org/2000/svg">
<g filter="url(#filter0_dd_4003_6770)">
<g clip-path="url(#clip0_4003_6770)">
<rect x="14.1426" y="1.89258" width="88" height="88" rx="8" fill="white"/>
<path d="M69.1001 28.353C68.8865 28.0017 68.5658 27.7283 68.1851 27.573L49.5476 20.043C49.2538 19.9232 48.9349 19.8778 48.6193 19.9109C48.3037 19.9439 48.0011 20.0544 47.7384 20.2325C47.4758 20.4106 47.2612 20.6507 47.1136 20.9317C46.9661 21.2126 46.8902 21.5257 46.8926 21.843V31.143C46.8926 31.9305 47.3726 32.643 48.1001 32.943L52.9301 34.893L69.1001 41.433C69.2951 41.133 69.4001 40.773 69.3926 40.413V29.373C69.3926 29.013 69.2951 28.653 69.1001 28.3455V28.353Z" fill="url(#paint0_linear_4003_6770)"/>
<path d="M69.1151 28.3535L52.9376 34.8935L48.1001 36.8435C47.7421 36.9887 47.4359 37.2378 47.2207 37.5586C47.0055 37.8794 46.8912 38.2572 46.8926 38.6435V47.9585C46.8932 48.2746 46.9712 48.5856 47.1197 48.8646C47.2683 49.1435 47.4829 49.3818 47.7449 49.5587C48.0068 49.7355 48.308 49.8455 48.6223 49.879C48.9366 49.9126 49.2542 49.8686 49.5476 49.751L68.1926 42.2135C68.5676 42.056 68.8901 41.786 69.1001 41.4335C69.2951 41.126 69.4001 40.7735 69.3926 40.4135V29.3735C69.3926 29.0135 69.3026 28.661 69.1151 28.3535Z" fill="#9966FF"/>
<path d="M69.1075 28.3535L69.1825 28.481C69.3175 28.7585 69.3925 29.0585 69.3925 29.3735V29.351V40.4135C69.3925 40.7735 69.295 41.126 69.1 41.4335L52.9375 34.8935L69.1075 28.3535Z" fill="url(#paint1_linear_4003_6770)"/>
<path d="M31.7985 74.8926V66.7108H34.7149C35.3514 66.7108 35.8787 66.8266 36.2969 67.0583C36.715 67.29 37.028 67.607 37.2357 68.0091C37.4435 68.4086 37.5473 68.8588 37.5473 69.3595C37.5473 69.8628 37.4421 70.3156 37.2317 70.7178C37.024 71.1173 36.7097 71.4342 36.2889 71.6686C35.8708 71.9003 35.3447 72.0162 34.7109 72.0162H32.7054V70.9695H34.599C35.0012 70.9695 35.3274 70.9002 35.5778 70.7617C35.8281 70.6206 36.0119 70.4288 36.1291 70.1864C36.2463 69.9441 36.3049 69.6684 36.3049 69.3595C36.3049 69.0505 36.2463 68.7762 36.1291 68.5365C36.0119 68.2968 35.8268 68.109 35.5738 67.9732C35.3234 67.8374 34.9932 67.7694 34.583 67.7694H33.033V74.8926H31.7985ZM40.8295 75.0284C40.4407 75.0284 40.0891 74.9565 39.7748 74.8127C39.4605 74.6662 39.2115 74.4545 39.0277 74.1775C38.8466 73.9005 38.7561 73.5609 38.7561 73.1587C38.7561 72.8125 38.8227 72.5275 38.9558 72.3038C39.089 72.0801 39.2688 71.903 39.4952 71.7725C39.7215 71.642 39.9746 71.5434 40.2542 71.4768C40.5339 71.4102 40.8188 71.3596 41.1092 71.325C41.4767 71.2824 41.775 71.2478 42.004 71.2211C42.2331 71.1919 42.3995 71.1452 42.5034 71.0813C42.6073 71.0174 42.6592 70.9135 42.6592 70.7697V70.7417C42.6592 70.3928 42.5607 70.1225 42.3636 69.9308C42.1692 69.739 41.8789 69.6431 41.4927 69.6431C41.0905 69.6431 40.7736 69.7323 40.5419 69.9108C40.3128 70.0866 40.1543 70.2823 40.0664 70.498L38.9438 70.2424C39.077 69.8695 39.2714 69.5685 39.5271 69.3395C39.7855 69.1078 40.0824 68.94 40.418 68.8361C40.7536 68.7296 41.1065 68.6763 41.4767 68.6763C41.7217 68.6763 41.9814 68.7056 42.2557 68.7642C42.5327 68.8201 42.7911 68.924 43.0308 69.0758C43.2731 69.2276 43.4715 69.4447 43.626 69.727C43.7805 70.0067 43.8577 70.3702 43.8577 70.8176V74.8926H42.6912V74.0536H42.6432C42.566 74.2081 42.4502 74.3599 42.2957 74.5091C42.1412 74.6582 41.9428 74.782 41.7004 74.8806C41.4581 74.9791 41.1677 75.0284 40.8295 75.0284ZM41.0892 74.0696C41.4194 74.0696 41.7017 74.0044 41.9361 73.8738C42.1732 73.7433 42.3529 73.5729 42.4755 73.3625C42.6006 73.1494 42.6632 72.9217 42.6632 72.6793V71.8883C42.6206 71.9309 42.538 71.9709 42.4155 72.0082C42.2957 72.0428 42.1585 72.0734 42.004 72.1001C41.8496 72.124 41.6991 72.1467 41.5526 72.168C41.4061 72.1866 41.2836 72.2026 41.1851 72.2159C40.9533 72.2452 40.7416 72.2945 40.5498 72.3637C40.3608 72.433 40.2089 72.5328 40.0944 72.6634C39.9826 72.7912 39.9266 72.9616 39.9266 73.1747C39.9266 73.4703 40.0358 73.6941 40.2542 73.8459C40.4726 73.995 40.7509 74.0696 41.0892 74.0696ZM46.1841 77.1937C46.0056 77.1937 45.8432 77.1791 45.6967 77.1498C45.5502 77.1231 45.441 77.0938 45.3691 77.0619L45.6567 76.0831C45.8751 76.1417 46.0696 76.167 46.24 76.159C46.4105 76.151 46.5609 76.0871 46.6915 75.9672C46.8246 75.8474 46.9418 75.6516 47.043 75.38L47.1908 74.9725L44.9456 68.7562H46.224L47.7781 73.5183H47.842L49.3961 68.7562H50.6785L48.1496 75.7116C48.0325 76.0312 47.8833 76.3015 47.7022 76.5225C47.5211 76.7463 47.3054 76.9141 47.055 77.0259C46.8046 77.1378 46.5143 77.1937 46.1841 77.1937ZM52.0011 74.8926V68.7562H53.1477V69.755H53.2236C53.3514 69.4167 53.5605 69.1531 53.8508 68.964C54.1411 68.7722 54.4887 68.6763 54.8935 68.6763C55.3037 68.6763 55.6472 68.7722 55.9242 68.964C56.2039 69.1557 56.4103 69.4194 56.5434 69.755H56.6074C56.7538 69.4274 56.9869 69.1664 57.3065 68.9719C57.6261 68.7749 58.007 68.6763 58.4491 68.6763C59.0057 68.6763 59.4598 68.8508 59.8114 69.1997C60.1656 69.5486 60.3427 70.0746 60.3427 70.7777V74.8926H59.1482V70.8896C59.1482 70.4741 59.035 70.1731 58.8086 69.9867C58.5822 69.8002 58.3119 69.707 57.9976 69.707C57.6088 69.707 57.3065 69.8269 57.0908 70.0666C56.875 70.3036 56.7672 70.6086 56.7672 70.9814V74.8926H55.5766V70.8137C55.5766 70.4807 55.4728 70.2131 55.265 70.0107C55.0573 69.8082 54.787 69.707 54.454 69.707C54.2277 69.707 54.0186 69.767 53.8268 69.8868C53.6377 70.004 53.4846 70.1678 53.3674 70.3782C53.2529 70.5886 53.1956 70.8323 53.1956 71.1093V74.8926H52.0011ZM64.7884 75.0164C64.1838 75.0164 63.6632 74.8873 63.2264 74.6289C62.7922 74.3679 62.4567 74.0017 62.2196 73.5303C61.9853 73.0562 61.8681 72.5009 61.8681 71.8643C61.8681 71.2358 61.9853 70.6818 62.2196 70.2024C62.4567 69.723 62.7869 69.3488 63.2104 69.0798C63.6365 68.8108 64.1346 68.6763 64.7045 68.6763C65.0508 68.6763 65.3864 68.7336 65.7113 68.8481C66.0362 68.9626 66.3278 69.1424 66.5862 69.3874C66.8445 69.6325 67.0483 69.9507 67.1974 70.3422C67.3466 70.7311 67.4212 71.2038 67.4212 71.7605V72.1839H62.5432V71.2891H66.2506C66.2506 70.9748 66.1867 70.6965 66.0588 70.4541C65.931 70.2091 65.7512 70.016 65.5195 69.8748C65.2905 69.7337 65.0215 69.6631 64.7125 69.6631C64.3769 69.6631 64.084 69.7456 63.8336 69.9108C63.5859 70.0732 63.3942 70.2863 63.2583 70.55C63.1252 70.811 63.0586 71.0946 63.0586 71.4009V72.1001C63.0586 72.5102 63.1305 72.8591 63.2743 73.1468C63.4208 73.4344 63.6245 73.6541 63.8856 73.8059C64.1466 73.9551 64.4515 74.0297 64.8004 74.0297C65.0268 74.0297 65.2332 73.9977 65.4196 73.9338C65.6061 73.8672 65.7672 73.7686 65.903 73.6381C66.0389 73.5076 66.1427 73.3465 66.2147 73.1547L67.3452 73.3585C67.2547 73.6914 67.0922 73.983 66.8579 74.2334C66.6261 74.4811 66.3345 74.6742 65.9829 74.8127C65.634 74.9485 65.2359 75.0164 64.7884 75.0164ZM70.141 71.2491V74.8926H68.9465V68.7562H70.0931V69.755H70.169C70.3101 69.43 70.5312 69.169 70.8322 68.9719C71.1358 68.7749 71.518 68.6763 71.9787 68.6763C72.3969 68.6763 72.7631 68.7642 73.0774 68.94C73.3916 69.1131 73.6353 69.3714 73.8085 69.715C73.9816 70.0586 74.0681 70.4834 74.0681 70.9894V74.8926H72.8736V71.1333C72.8736 70.6885 72.7578 70.3409 72.5261 70.0906C72.2943 69.8375 71.9761 69.711 71.5712 69.711C71.2943 69.711 71.0479 69.771 70.8322 69.8908C70.6191 70.0107 70.45 70.1864 70.3248 70.4181C70.2023 70.6472 70.141 70.9242 70.141 71.2491ZM78.7346 68.7562V69.715H75.3827V68.7562H78.7346ZM76.2816 67.286H77.4761V73.0908C77.4761 73.3225 77.5108 73.497 77.58 73.6142C77.6493 73.7287 77.7385 73.8073 77.8477 73.8499C77.9595 73.8898 78.0807 73.9098 78.2112 73.9098C78.3071 73.9098 78.391 73.9031 78.4629 73.8898C78.5348 73.8765 78.5908 73.8659 78.6307 73.8579L78.8464 74.8446C78.7772 74.8713 78.6786 74.8979 78.5508 74.9245C78.423 74.9538 78.2632 74.9698 78.0714 74.9725C77.7571 74.9778 77.4642 74.9219 77.1925 74.8047C76.9208 74.6875 76.7011 74.5064 76.5333 74.2614C76.3655 74.0163 76.2816 73.7087 76.2816 73.3385V67.286ZM84.7553 70.2544L83.6727 70.4461C83.6274 70.3076 83.5555 70.1758 83.4569 70.0506C83.3611 69.9254 83.2306 69.8229 83.0654 69.743C82.9003 69.6631 82.6939 69.6231 82.4462 69.6231C82.108 69.6231 81.8256 69.699 81.5993 69.8509C81.3729 70 81.2597 70.1931 81.2597 70.4301C81.2597 70.6352 81.3356 70.8003 81.4874 70.9255C81.6392 71.0507 81.8842 71.1532 82.2225 71.2331L83.1973 71.4569C83.7619 71.5874 84.1827 71.7884 84.4597 72.0601C84.7367 72.3318 84.8752 72.6847 84.8752 73.1188C84.8752 73.4863 84.7686 73.8139 84.5556 74.1016C84.3452 74.3865 84.0509 74.6103 83.6727 74.7727C83.2971 74.9352 82.8617 75.0164 82.3663 75.0164C81.6792 75.0164 81.1185 74.8699 80.6844 74.577C80.2503 74.2813 79.9839 73.8619 79.8854 73.3185L81.04 73.1428C81.1119 73.4437 81.2597 73.6714 81.4834 73.8259C81.7071 73.9777 81.9988 74.0536 82.3583 74.0536C82.7498 74.0536 83.0628 73.9724 83.2971 73.8099C83.5315 73.6448 83.6487 73.4437 83.6487 73.2067C83.6487 73.0149 83.5768 72.8538 83.433 72.7233C83.2918 72.5928 83.0748 72.4942 82.7818 72.4276L81.7431 72.1999C81.1705 72.0694 80.747 71.8617 80.4727 71.5767C80.201 71.2917 80.0652 70.9308 80.0652 70.4941C80.0652 70.1318 80.1664 69.8149 80.3688 69.5432C80.5712 69.2716 80.8509 69.0598 81.2077 68.908C81.5646 68.7536 81.9735 68.6763 82.4342 68.6763C83.0974 68.6763 83.6194 68.8201 84.0003 69.1078C84.3811 69.3928 84.6328 69.7749 84.7553 70.2544Z" fill="#2E3A55"/>
</g>
</g>
<defs>
<filter id="filter0_dd_4003_6770" x="0.515878" y="0.865878" width="115.253" height="115.253" filterUnits="userSpaceOnUse" color-interpolation-filters="sRGB">
<feFlood flood-opacity="0" result="BackgroundImageFix"/>
<feColorMatrix in="SourceAlpha" type="matrix" values="0 0 0 0 0 0 0 0 0 0 0 0 0 0 0 0 0 0 127 0" result="hardAlpha"/>
<feMorphology radius="7.56" operator="erode" in="SourceAlpha" result="effect1_dropShadow_4003_6770"/>
<feOffset dy="7.56"/>
<feGaussianBlur stdDeviation="7.56"/>
<feComposite in2="hardAlpha" operator="out"/>
<feColorMatrix type="matrix" values="0 0 0 0 0 0 0 0 0 0 0 0 0 0 0 0 0 0 0.1 0"/>
<feBlend mode="normal" in2="BackgroundImageFix" result="effect1_dropShadow_4003_6770"/>
<feColorMatrix in="SourceAlpha" type="matrix" values="0 0 0 0 0 0 0 0 0 0 0 0 0 0 0 0 0 0 127 0" result="hardAlpha"/>
<feMorphology radius="11.5733" operator="erode" in="SourceAlpha" result="effect2_dropShadow_4003_6770"/>
<feOffset dy="12.6"/>
<feGaussianBlur stdDeviation="12.6"/>
<feComposite in2="hardAlpha" operator="out"/>
<feColorMatrix type="matrix" values="0 0 0 0 0.196078 0 0 0 0 0.196078 0 0 0 0 0.364706 0 0 0 0.25 0"/>
<feBlend mode="normal" in2="effect1_dropShadow_4003_6770" result="effect2_dropShadow_4003_6770"/>
<feBlend mode="normal" in="SourceGraphic" in2="effect2_dropShadow_4003_6770" result="shape"/>
</filter>
<linearGradient id="paint0_linear_4003_6770" x1="58.1426" y1="22.9905" x2="58.1426" y2="35.7405" gradientUnits="userSpaceOnUse">
<stop stop-color="#11EFE3"/>
<stop offset="1" stop-color="#21CFE0"/>
</linearGradient>
<linearGradient id="paint1_linear_4003_6770" x1="69.3925" y1="28.3535" x2="69.3925" y2="41.4335" gradientUnits="userSpaceOnUse">
<stop stop-color="#0048E5"/>
<stop offset="1" stop-color="#9B66FF"/>
</linearGradient>
<clipPath id="clip0_4003_6770">
<rect x="14.1426" y="1.89258" width="88" height="88" rx="8" fill="white"/>
</clipPath>
</defs>
</svg>
