<svg width="499" height="528" viewBox="0 0 499 528" fill="none" xmlns="http://www.w3.org/2000/svg">
<path d="M36.3613 185.028V131.752C36.3613 119.505 42.4849 113.381 54.7319 113.381H96.9843" stroke="url(#paint0_linear_4003_4769)" stroke-width="2" stroke-dasharray="136.46 136.46"/>
<rect x="17.333" y="185.523" width="38.08" height="38.07" rx="7.5" fill="#F6F9FC"/>
<rect x="17.333" y="185.523" width="38.08" height="38.07" rx="7.5" stroke="#C4CCD8"/>
<path d="M41.4811 200.137L37.707 211.664L37.6975 211.707L37.686 211.75L37.672 211.791C37.6684 211.804 37.6642 211.816 37.6594 211.828L37.6297 211.9L37.595 211.969L37.5838 211.989L37.5449 212.054L37.5013 212.116L37.4873 212.135L37.4386 212.193L37.3865 212.248L37.3739 212.258C37.3373 212.294 37.298 212.327 37.2564 212.356L37.1882 212.4L37.1165 212.437L37.1025 212.445L37.0333 212.476L36.9626 212.503H36.9416L36.8681 212.524C36.8555 212.527 36.8468 212.512 36.8551 212.503L36.869 212.486C37.0475 212.258 37.1302 211.967 37.0971 211.677C37.0637 211.384 36.9038 211.195 36.6732 211.025L36.6086 210.979L31.8906 207.548L31.83 207.5C31.8084 207.482 31.7877 207.463 31.7677 207.444C31.7635 207.44 31.7589 207.435 31.7543 207.431C31.7405 207.417 31.7273 207.403 31.7145 207.388L31.6969 207.368C31.6865 207.356 31.6766 207.343 31.6669 207.331C31.6597 207.322 31.6524 207.312 31.6452 207.302L31.6331 207.285L31.6215 207.268C31.615 207.258 31.6086 207.249 31.6024 207.239C31.595 207.227 31.5879 207.215 31.5811 207.203C31.5764 207.195 31.5719 207.187 31.5674 207.179C31.5592 207.163 31.5513 207.148 31.5438 207.132L31.5324 207.108C31.5264 207.095 31.5205 207.081 31.515 207.067C31.5112 207.058 31.5076 207.049 31.5041 207.039C31.498 207.023 31.4922 207.006 31.4868 206.989C31.4845 206.982 31.4824 206.975 31.4803 206.968C31.4757 206.953 31.4713 206.937 31.4674 206.921L31.4604 206.892C31.4573 206.878 31.4545 206.864 31.452 206.851L31.4466 206.819C31.4402 206.777 31.4362 206.736 31.4345 206.694C31.4332 206.661 31.4333 206.627 31.435 206.594C31.4377 206.542 31.4436 206.492 31.4529 206.443C31.4555 206.429 31.4585 206.415 31.4617 206.401C31.4641 206.391 31.4667 206.38 31.4694 206.37L31.4799 206.332C31.4838 206.32 31.4878 206.307 31.4922 206.294L31.4951 206.285C31.5109 206.174 31.543 206.064 31.5923 205.959L31.6326 205.881L34.8648 200.119M41.4811 200.137L41.483 200.136C41.6327 199.677 41.4683 199.174 41.0765 198.891L38.1624 196.795C37.9077 196.612 37.5873 196.545 37.2806 196.611L37.198 196.632C36.9267 196.713 36.6952 196.894 36.5527 197.142L34.8628 200.119M41.4811 200.137L41.4882 200.119" stroke="#C4CCD8" stroke-width="1.83333"/>
<path d="M43.6944 200.119H29.0408C28.4277 200.119 27.9307 200.616 27.9307 201.229V211.442C27.9307 212.055 28.4277 212.552 29.0408 212.552H43.6944C44.3075 212.552 44.8045 212.055 44.8045 211.442V201.229C44.8045 200.616 44.3075 200.119 43.6944 200.119Z" stroke="#C4CCD8" stroke-width="1.83333"/>
<path d="M36.3613 359.548V300.761C36.3613 288.514 42.4849 282.391 54.7319 282.391H96.9843" stroke="url(#paint1_linear_4003_4769)" stroke-width="2" stroke-dasharray="142.46 142.46"/>
<g filter="url(#filter0_dd_4003_4769)">
<rect x="14.3232" y="357.033" width="44.09" height="44.09" rx="8" fill="white"/>
<path d="M32.6012 369.058C30.9255 369.164 29.3554 369.913 28.2181 371.148C27.0808 372.384 26.464 374.01 26.4963 375.689C26.5286 377.367 27.2075 378.969 28.3915 380.159C29.5754 381.35 31.1732 382.038 32.8517 382.079H38.1372C38.8236 382.079 39.3797 381.528 39.3797 380.837V375.571C39.3812 374.693 39.2048 373.824 38.8612 373.015C38.5177 372.207 38.0141 371.476 37.3807 370.868C36.7474 370.259 35.9974 369.785 35.176 369.474C34.3546 369.163 33.4787 369.022 32.6012 369.058Z" fill="url(#paint2_linear_4003_4769)"/>
<path d="M40.1457 389.087C41.8214 388.981 43.3915 388.233 44.5288 386.997C45.6661 385.762 46.2829 384.136 46.2506 382.457C46.2183 380.778 45.5394 379.177 44.3555 377.986C43.1715 376.796 41.5738 376.108 39.8952 376.066H34.6097C34.2801 376.066 33.9641 376.197 33.7311 376.43C33.4981 376.663 33.3672 376.979 33.3672 377.309V382.574C33.3658 383.453 33.5421 384.322 33.8857 385.131C34.2292 385.939 34.7328 386.669 35.3662 387.278C35.9995 387.886 36.7495 388.36 37.5709 388.671C38.3923 388.982 39.2682 389.124 40.1457 389.087Z" fill="#0073E6"/>
<path d="M39.3792 376.068V380.837C39.3792 381.167 39.2483 381.483 39.0153 381.716C38.7823 381.949 38.4662 382.08 38.1367 382.08H33.3672V377.31C33.3665 376.994 33.4864 376.689 33.7023 376.459C33.9183 376.228 34.2141 376.088 34.5295 376.068L34.6097 376.062H39.3792V376.068Z" fill="url(#paint3_linear_4003_4769)"/>
</g>
<path d="M463.919 136.82V146.435C463.919 158.681 457.795 164.804 445.548 164.804H403.281" stroke="url(#paint4_linear_4003_4769)" stroke-width="2" stroke-dasharray="88.95 88.95"/>
<rect x="444.873" y="98.2637" width="38.08" height="38.08" rx="7.5" fill="#F6F9FC"/>
<rect x="444.873" y="98.2637" width="38.08" height="38.08" rx="7.5" stroke="#C4CCD8"/>
<path d="M467.914 114.857C467.914 114.698 467.882 114.541 467.818 114.396L466.077 110.424C465.897 110.014 465.496 109.75 465.053 109.75H456.157C455.538 109.75 455.037 110.258 455.037 110.885V118.828C455.037 119.455 455.538 119.963 456.157 119.963H465.053C465.496 119.963 465.897 119.699 466.077 119.289L467.818 115.318C467.882 115.172 467.914 115.015 467.914 114.857Z" stroke="#C4CCD8" stroke-width="1.83333"/>
<path d="M459.921 119.741C459.921 119.9 459.954 120.057 460.017 120.202L461.759 124.174C461.938 124.584 462.339 124.848 462.782 124.848H471.679C472.297 124.848 472.798 124.34 472.798 123.713V115.77C472.798 115.143 472.297 114.635 471.679 114.635H462.782C462.339 114.635 461.938 114.899 461.759 115.309L460.017 119.28C459.954 119.425 459.921 119.582 459.921 119.741Z" stroke="#C4CCD8" stroke-width="1.83333"/>
<path d="M463.919 281.473V183.191C463.919 170.944 457.795 164.82 445.548 164.82H403.281" stroke="url(#paint5_linear_4003_4769)" stroke-width="2" stroke-dasharray="185.48 185.48"/>
<rect x="444.873" y="281.963" width="38.08" height="38.08" rx="7.5" fill="#F6F9FC"/>
<rect x="444.873" y="281.963" width="38.08" height="38.08" rx="7.5" stroke="#C4CCD8"/>
<path d="M465.674 298.359L461.347 299.301L455.939 300.422C455.398 300.557 455.037 301.006 455.037 301.544V308.768C455.037 309.396 455.533 309.889 456.164 309.889H467.026V299.48C467.026 298.762 466.395 298.224 465.674 298.359Z" stroke="#C4CCD8" stroke-width="1.83333"/>
<path d="M471.402 292.138L461.711 294.184C461.17 294.318 460.81 294.763 460.81 295.296V299.345V309.889H471.672C472.303 309.8 472.799 309.31 472.799 308.687V293.25C472.799 292.538 472.123 292.004 471.402 292.138Z" stroke="#C4CCD8" stroke-width="1.83333"/>
<g filter="url(#filter1_dd_4003_4769)">
<rect x="90.7822" y="30.7129" width="318.72" height="195.65" rx="14" fill="white" fill-opacity="0.01" shape-rendering="crispEdges"/>
</g>
<mask id="mask0_4003_4769" style="mask-type:luminance" maskUnits="userSpaceOnUse" x="89" y="29" width="322" height="199">
<path d="M396.962 29.791H103.323C95.8885 29.791 89.8613 35.8182 89.8613 43.2531V214.053C89.8613 221.487 95.8885 227.515 103.323 227.515H396.962C404.397 227.515 410.424 221.487 410.424 214.053V43.2531C410.424 35.8182 404.397 29.791 396.962 29.791Z" fill="white"/>
</mask>
<g mask="url(#mask0_4003_4769)">
<path d="M397.405 29.791H102.88C95.69 29.791 89.8613 35.6198 89.8613 42.8099V214.496C89.8613 221.686 95.69 227.515 102.88 227.515H397.405C404.596 227.515 410.424 221.686 410.424 214.496V42.8099C410.424 35.6198 404.596 29.791 397.405 29.791Z" fill="black"/>
<mask id="mask1_4003_4769" style="mask-type:alpha" maskUnits="userSpaceOnUse" x="89" y="29" width="322" height="199">
<path d="M410.424 29.791H89.8613V227.515H410.424V29.791Z" fill="white"/>
</mask>
<g mask="url(#mask1_4003_4769)">
<mask id="mask2_4003_4769" style="mask-type:luminance" maskUnits="userSpaceOnUse" x="332" y="174" width="66" height="41">
<path d="M397.486 174H332.174V214.364H397.486V174Z" fill="white"/>
</mask>
<g mask="url(#mask2_4003_4769)">
<path d="M373.664 178.314H355.998V210.05H373.664V178.314Z" fill="#F16122"/>
<path d="M357.124 194.188C357.124 187.749 360.132 182.014 364.83 178.314C361.399 175.613 357.059 174 352.361 174C341.211 174 332.174 183.038 332.174 194.188C332.174 205.338 341.211 214.377 352.361 214.377C357.072 214.377 361.399 212.763 364.83 210.062C360.132 206.362 357.124 200.627 357.124 194.188Z" fill="#ED1C24"/>
<path d="M395.55 206.697V206.045H395.807V205.916H395.141V206.045H395.397V206.697H395.537H395.55ZM396.844 206.697V205.916H396.639L396.409 206.453L396.178 205.916H395.973V206.697H396.114V206.108L396.332 206.62H396.485L396.703 206.108V206.697H396.844Z" fill="#F99F1C"/>
<path d="M397.486 194.188C397.486 205.338 388.448 214.377 377.298 214.377C372.587 214.377 368.26 212.763 364.829 210.062C369.527 206.362 372.535 200.627 372.535 194.188C372.535 187.749 369.527 182.014 364.829 178.314C368.26 175.613 372.6 174 377.298 174C388.448 174 397.486 183.038 397.486 194.188Z" fill="#F99F1C"/>
</g>
<path d="M336.005 153.006C336.426 153.006 336.821 153.082 337.179 153.235C337.549 153.389 337.855 153.606 338.097 153.912L337.306 154.754C337.101 154.562 336.898 154.422 336.681 154.319C336.464 154.217 336.221 154.167 335.953 154.167C335.724 154.167 335.495 154.205 335.29 154.295C335.086 154.384 334.908 154.498 334.767 154.665C334.614 154.817 334.499 155.009 334.422 155.239C334.333 155.456 334.295 155.698 334.295 155.965C334.295 156.234 334.333 156.476 334.422 156.694C334.512 156.911 334.627 157.102 334.767 157.267C334.92 157.42 335.086 157.548 335.29 157.637C335.495 157.726 335.712 157.765 335.953 157.765C336.221 157.765 336.477 157.713 336.706 157.599C336.936 157.484 337.153 157.344 337.332 157.178L338.084 158.02C337.83 158.314 337.523 158.543 337.153 158.696C336.796 158.85 336.401 158.926 335.979 158.926C335.533 158.926 335.125 158.85 334.767 158.696C334.397 158.543 334.091 158.339 333.835 158.072C333.581 157.803 333.377 157.497 333.236 157.139C333.096 156.783 333.02 156.387 333.02 155.965C333.02 155.545 333.096 155.15 333.236 154.792C333.377 154.435 333.581 154.115 333.835 153.861C334.091 153.593 334.41 153.389 334.767 153.235C335.137 153.082 335.533 153.006 335.979 153.006H336.005Z" fill="white"/>
<path d="M341.975 153.006C342.409 153.006 342.817 153.082 343.187 153.235C343.558 153.389 343.876 153.593 344.144 153.861C344.412 154.128 344.629 154.435 344.782 154.792C344.935 155.15 345.012 155.545 345.012 155.965C345.012 156.387 344.935 156.783 344.782 157.139C344.629 157.497 344.412 157.816 344.144 158.072C343.876 158.339 343.558 158.543 343.187 158.696C342.817 158.85 342.421 158.926 341.975 158.926C341.529 158.926 341.134 158.85 340.763 158.696C340.393 158.543 340.075 158.339 339.806 158.072C339.539 157.803 339.321 157.497 339.181 157.139C339.028 156.783 338.952 156.387 338.952 155.965C338.952 155.545 339.028 155.15 339.181 154.792C339.334 154.435 339.539 154.115 339.806 153.861C340.075 153.593 340.393 153.389 340.763 153.235C341.134 153.082 341.541 153.006 341.975 153.006ZM341.975 154.167C341.721 154.167 341.49 154.205 341.273 154.295C341.056 154.384 340.878 154.498 340.712 154.665C340.559 154.817 340.431 155.009 340.342 155.239C340.253 155.456 340.202 155.698 340.202 155.965C340.202 156.234 340.253 156.476 340.342 156.694C340.431 156.911 340.559 157.102 340.712 157.267C340.865 157.42 341.056 157.548 341.273 157.637C341.49 157.726 341.721 157.765 341.975 157.765C342.23 157.765 342.46 157.726 342.677 157.637C342.894 157.548 343.073 157.42 343.238 157.267C343.391 157.114 343.519 156.922 343.608 156.694C343.697 156.476 343.749 156.234 343.749 155.965C343.749 155.698 343.697 155.456 343.608 155.239C343.519 155.022 343.391 154.83 343.238 154.665C343.085 154.498 342.894 154.384 342.677 154.295C342.46 154.205 342.23 154.167 341.975 154.167Z" fill="white"/>
<path d="M353.47 153.006C353.802 153.006 354.108 153.057 354.388 153.172C354.67 153.286 354.912 153.439 355.116 153.63C355.32 153.822 355.473 154.065 355.588 154.333C355.703 154.6 355.754 154.906 355.754 155.239V158.772H354.516V155.647C354.516 155.174 354.402 154.805 354.172 154.55C353.942 154.295 353.623 154.167 353.203 154.167C352.999 154.167 352.82 154.205 352.641 154.269C352.462 154.333 352.309 154.422 352.181 154.55C352.054 154.678 351.952 154.83 351.863 155.022C351.786 155.213 351.748 155.417 351.748 155.659V158.772H350.51V155.647C350.51 155.174 350.396 154.805 350.166 154.55C349.936 154.295 349.617 154.167 349.196 154.167C348.992 154.167 348.813 154.205 348.635 154.269C348.457 154.333 348.303 154.422 348.176 154.55C348.048 154.678 347.946 154.83 347.856 155.022C347.78 155.213 347.742 155.417 347.742 155.659V158.772H346.504V153.146H347.728V153.835C347.844 153.67 347.971 153.528 348.112 153.427C348.252 153.326 348.392 153.235 348.546 153.172C348.698 153.108 348.852 153.069 349.004 153.044C349.158 153.019 349.311 153.006 349.451 153.006C349.885 153.006 350.268 153.095 350.6 153.274C350.931 153.452 351.199 153.695 351.39 154.014C351.505 153.81 351.659 153.644 351.825 153.517C351.99 153.389 352.156 153.286 352.348 153.21C352.526 153.134 352.718 153.083 352.909 153.057C353.101 153.032 353.279 153.019 353.457 153.019L353.47 153.006Z" fill="white"/>
<path d="M364.559 153.006C364.89 153.006 365.196 153.057 365.477 153.172C365.757 153.286 366 153.439 366.205 153.63C366.409 153.822 366.561 154.065 366.677 154.333C366.791 154.6 366.842 154.906 366.842 155.239V158.772H365.604V155.647C365.604 155.174 365.49 154.805 365.26 154.55C365.031 154.295 364.712 154.167 364.291 154.167C364.087 154.167 363.908 154.205 363.729 154.269C363.55 154.333 363.398 154.422 363.269 154.55C363.142 154.678 363.04 154.83 362.95 155.022C362.874 155.213 362.837 155.417 362.837 155.659V158.772H361.598V155.647C361.598 155.174 361.484 154.805 361.254 154.55C361.024 154.295 360.706 154.167 360.285 154.167C360.08 154.167 359.901 154.205 359.724 154.269C359.545 154.333 359.391 154.422 359.264 154.55C359.136 154.678 359.034 154.83 358.945 155.022C358.869 155.213 358.83 155.417 358.83 155.659V158.772H357.592V153.146H358.817V153.835C358.932 153.67 359.06 153.528 359.2 153.427C359.34 153.326 359.48 153.235 359.634 153.172C359.787 153.108 359.94 153.069 360.093 153.044C360.245 153.019 360.399 153.006 360.539 153.006C360.974 153.006 361.356 153.095 361.688 153.274C362.019 153.452 362.287 153.695 362.479 154.014C362.594 153.81 362.747 153.644 362.913 153.517C363.078 153.389 363.244 153.286 363.435 153.21C363.615 153.134 363.806 153.083 363.998 153.057C364.189 153.032 364.368 153.019 364.545 153.019L364.559 153.006Z" fill="white"/>
<path d="M371.105 153.006C371.5 153.006 371.857 153.082 372.176 153.223C372.507 153.363 372.788 153.567 373.018 153.822C373.248 154.078 373.427 154.397 373.566 154.754C373.694 155.111 373.758 155.519 373.758 155.953C373.758 156.03 373.758 156.106 373.758 156.183C373.758 156.259 373.758 156.336 373.745 156.413H369.585C369.624 156.668 369.701 156.885 369.803 157.063C369.905 157.241 370.033 157.395 370.185 157.509C370.339 157.625 370.505 157.713 370.683 157.765C370.861 157.816 371.053 157.842 371.257 157.842C371.538 157.842 371.818 157.79 372.099 157.689C372.38 157.586 372.649 157.433 372.877 157.255L373.49 158.135C373.146 158.428 372.775 158.633 372.392 158.748C372.01 158.861 371.602 158.926 371.181 158.926C370.76 158.926 370.377 158.861 370.02 158.709C369.663 158.568 369.369 158.365 369.114 158.109C368.859 157.854 368.668 157.535 368.527 157.178C368.387 156.808 368.31 156.413 368.31 155.965C368.31 155.519 368.374 155.124 368.514 154.767C368.654 154.397 368.846 154.091 369.088 153.835C369.331 153.58 369.624 153.376 369.969 153.235C370.314 153.095 370.696 153.019 371.105 153.019V153.006ZM371.079 154.104C370.861 154.104 370.67 154.141 370.492 154.205C370.326 154.269 370.173 154.371 370.058 154.486C369.93 154.613 369.828 154.754 369.752 154.932C369.675 155.098 369.624 155.29 369.585 155.493H372.507C372.444 155.06 372.29 154.715 372.036 154.473C371.794 154.231 371.474 154.104 371.079 154.104Z" fill="white"/>
<path d="M378.133 153.006C378.324 153.006 378.49 153.019 378.642 153.044C378.796 153.069 378.936 153.108 379.077 153.159L378.783 154.371C378.655 154.307 378.502 154.256 378.337 154.217C378.157 154.18 378.005 154.167 377.852 154.167C377.661 154.167 377.482 154.205 377.316 154.269C377.15 154.333 377.009 154.435 376.895 154.562C376.78 154.69 376.691 154.856 376.614 155.034C376.551 155.226 376.512 155.43 376.512 155.672V158.76H375.287V153.146H376.5V153.784C376.691 153.517 376.92 153.312 377.201 153.197C377.482 153.069 377.787 153.006 378.133 153.006Z" fill="white"/>
<path d="M382.638 153.006C383.059 153.006 383.455 153.082 383.812 153.235C384.182 153.389 384.488 153.606 384.73 153.912L383.939 154.754C383.736 154.562 383.531 154.422 383.314 154.319C383.098 154.217 382.855 154.167 382.587 154.167C382.357 154.167 382.128 154.205 381.924 154.295C381.72 154.384 381.541 154.498 381.401 154.665C381.248 154.817 381.133 155.009 381.057 155.239C380.967 155.456 380.928 155.698 380.928 155.965C380.928 156.234 380.967 156.476 381.057 156.694C381.145 156.911 381.26 157.102 381.401 157.267C381.554 157.42 381.72 157.548 381.924 157.637C382.128 157.726 382.345 157.765 382.587 157.765C382.855 157.765 383.11 157.713 383.34 157.599C383.57 157.484 383.787 157.344 383.965 157.178L384.718 158.02C384.463 158.314 384.157 158.543 383.787 158.696C383.429 158.85 383.033 158.926 382.613 158.926C382.166 158.926 381.758 158.85 381.401 158.696C381.031 158.543 380.724 158.339 380.47 158.072C380.214 157.803 380.01 157.497 379.869 157.139C379.73 156.783 379.652 156.387 379.652 155.965C379.652 155.545 379.73 155.15 379.869 154.792C380.01 154.435 380.214 154.115 380.47 153.861C380.724 153.593 381.043 153.389 381.401 153.235C381.77 153.082 382.166 153.006 382.613 153.006H382.638Z" fill="white"/>
<path d="M387.344 158.772H386.106V153.146H387.344V158.772Z" fill="white"/>
<path d="M394.666 158.773H393.442V158.097C393.251 158.352 393.008 158.544 392.715 158.697C392.421 158.85 392.077 158.914 391.681 158.914C391.286 158.914 390.916 158.837 390.583 158.697C390.239 158.556 389.946 158.34 389.692 158.084C389.435 157.817 389.231 157.51 389.091 157.153C388.951 156.796 388.874 156.401 388.874 155.966C388.874 155.533 388.951 155.138 389.091 154.779C389.231 154.423 389.435 154.104 389.692 153.848C389.946 153.581 390.239 153.377 390.583 153.236C390.928 153.096 391.286 153.02 391.681 153.02C392.077 153.02 392.434 153.096 392.715 153.249C393.008 153.402 393.251 153.594 393.442 153.848V153.173H394.666V158.773ZM391.822 154.155C391.553 154.155 391.324 154.206 391.107 154.295C390.903 154.397 390.725 154.525 390.571 154.677C390.431 154.844 390.316 155.035 390.239 155.252C390.163 155.468 390.125 155.699 390.125 155.954C390.125 156.209 390.163 156.439 390.239 156.656C390.316 156.872 390.431 157.064 390.571 157.23C390.711 157.395 390.89 157.523 391.107 157.612C391.312 157.701 391.553 157.753 391.822 157.753C392.09 157.753 392.307 157.701 392.51 157.612C392.715 157.523 392.893 157.395 393.046 157.23C393.199 157.064 393.314 156.886 393.39 156.656C393.468 156.439 393.518 156.197 393.518 155.941C393.518 155.686 393.48 155.444 393.39 155.227C393.314 155.01 393.199 154.819 393.046 154.653C392.893 154.486 392.715 154.372 392.51 154.27C392.307 154.181 392.077 154.129 391.822 154.129V154.155Z" fill="white"/>
<path d="M397.833 158.77H396.595V150.848H397.833V158.77Z" fill="white"/>
<path d="M386.719 150.658C386.833 150.658 386.949 150.684 387.063 150.722C387.165 150.773 387.254 150.824 387.344 150.901C387.42 150.978 387.485 151.066 387.522 151.181C387.574 151.283 387.586 151.399 387.586 151.526C387.586 151.653 387.561 151.756 387.522 151.87C387.472 151.973 387.42 152.062 387.344 152.138C387.268 152.214 387.178 152.278 387.063 152.317C386.949 152.356 386.846 152.381 386.719 152.381C386.591 152.381 386.489 152.356 386.374 152.317C386.259 152.278 386.183 152.214 386.106 152.138C386.03 152.062 385.966 151.973 385.928 151.87C385.89 151.769 385.864 151.653 385.864 151.526C385.864 151.399 385.89 151.297 385.928 151.181C385.966 151.08 386.03 150.99 386.106 150.901C386.183 150.824 386.272 150.76 386.374 150.722C386.476 150.671 386.591 150.658 386.719 150.658Z" fill="white"/>
<path d="M294.652 59.7025L299.155 55.2599H296.692L290.351 61.6611V55.2599H288.635V68.3451H290.351V63.7815L292.492 61.7823L293.198 61.0958C294.268 61.7823 296.571 63.8219 296.631 68.3653H298.61C298.549 63.3776 296.146 60.8131 294.652 59.7025ZM308.683 55.2599H306.24L301.312 68.3451H303.13L304.543 64.4277H310.157L311.49 68.3451H313.428L308.683 55.2599ZM305.049 62.9939L307.148 57.1985H307.633L309.592 62.9939H305.049ZM323.569 55.2599L319.853 66.4065H319.57L315.875 55.2599H313.917L318.682 68.3451H320.782L325.547 55.2599H323.569ZM337.54 55.2599V60.6717H330.371V55.2599H328.595V68.3451H330.371V62.2266H337.54V68.3451H339.337V55.2599H337.54ZM349.385 54.8965C345.648 54.8965 342.842 57.986 342.842 61.7823C342.842 65.5787 345.648 68.6682 349.385 68.6682C353.12 68.6682 355.947 65.5787 355.947 61.7823C355.947 57.986 353.12 54.8965 349.385 54.8965ZM349.385 67.0326C346.537 67.0326 344.659 64.67 344.659 61.7823C344.659 58.8745 346.537 56.5321 349.385 56.5321C352.231 56.5321 354.11 58.8947 354.11 61.7823C354.11 64.67 352.231 67.0326 349.385 67.0326ZM361.218 66.7297V55.2599H359.461V68.3451H368.225V66.7297H361.218ZM381.494 55.2599L377.759 64.569L373.983 55.2599H371.236V68.3451H372.913V60.6313C372.913 60.3083 372.913 59.8236 372.892 59.1775C372.872 58.5111 372.872 57.6226 372.872 57.2994H373.054L373.094 57.3196L376.85 66.5883H378.606L382.363 57.3196C382.363 57.3399 382.564 57.2994 382.564 57.3399C382.564 57.986 382.564 58.713 382.564 59.2986C382.544 59.9044 382.544 60.3487 382.544 60.6313V68.3451H384.241V55.2599H381.494Z" fill="white"/>
<path d="M115.421 201.571C115.821 201.653 116.175 201.689 116.622 201.689C118.26 201.689 119.202 200.935 119.202 199.238V193.137H118.071V199.156C118.071 200.31 117.541 200.676 116.493 200.676C116.116 200.676 115.833 200.64 115.421 200.557V201.571ZM125.304 200.252V197.072C125.304 195.94 124.456 195.316 123.09 195.316C121.771 195.316 120.746 195.94 120.652 197.248H121.688C121.771 196.589 122.218 196.247 123.031 196.247C123.785 196.247 124.28 196.541 124.28 197.224V197.602L122.748 197.908C121.37 198.179 120.404 198.697 120.404 199.922C120.404 201.029 121.323 201.7 122.442 201.7C123.243 201.7 123.926 201.406 124.303 200.958C124.315 201.206 124.327 201.418 124.35 201.595H125.399C125.34 201.206 125.304 200.711 125.304 200.252ZM124.28 199.498C124.28 200.287 123.49 200.84 122.583 200.84C121.912 200.84 121.464 200.476 121.464 199.875C121.464 199.133 122.089 198.874 123.031 198.685L124.28 198.426V199.498ZM127.018 201.595H128.078V197.919C128.078 196.894 128.855 196.306 129.621 196.306C130.54 196.306 130.905 196.953 130.905 197.813V201.595H131.965V197.531C131.965 196.223 131.223 195.316 129.915 195.316C129.044 195.316 128.431 195.764 128.078 196.27V195.434H127.018V201.595ZM136.129 201.724C137.354 201.724 138.284 201.053 138.661 199.957L137.731 199.627C137.542 200.357 136.953 200.805 136.129 200.805C135.057 200.805 134.315 199.981 134.256 198.685H138.708V198.332C138.708 196.623 137.801 195.316 136.081 195.316C134.409 195.316 133.243 196.682 133.243 198.52C133.243 200.417 134.421 201.724 136.129 201.724ZM136.07 196.223C137.141 196.223 137.613 197.001 137.636 197.873H134.315C134.503 196.824 135.174 196.223 136.07 196.223ZM142.56 201.595H145.245C147.813 201.595 149.439 199.946 149.439 197.366C149.439 194.786 147.813 193.137 145.245 193.137H142.56V201.595ZM143.667 200.617V194.115H145.234C147.165 194.115 148.332 195.387 148.332 197.366C148.332 199.333 147.165 200.617 145.245 200.617H143.667ZM150.725 194.362H151.879V193.137H150.725V194.362ZM151.832 195.434H150.772V201.595H151.832V195.434ZM158.042 200.252V197.072C158.042 195.94 157.194 195.316 155.828 195.316C154.509 195.316 153.484 195.94 153.39 197.248H154.426C154.509 196.589 154.956 196.247 155.769 196.247C156.523 196.247 157.018 196.541 157.018 197.224V197.602L155.486 197.908C154.108 198.179 153.142 198.697 153.142 199.922C153.142 201.029 154.061 201.7 155.18 201.7C155.981 201.7 156.664 201.406 157.041 200.958C157.053 201.206 157.065 201.418 157.088 201.595H158.137C158.078 201.206 158.042 200.711 158.042 200.252ZM157.018 199.498C157.018 200.287 156.228 200.84 155.321 200.84C154.65 200.84 154.202 200.476 154.202 199.875C154.202 199.133 154.827 198.874 155.769 198.685L157.018 198.426V199.498ZM164.208 200.688H160.686L164.173 196.247V195.434H159.402V196.341H162.913L159.355 200.794V201.595H164.208V200.688Z" fill="white"/>
</g>
</g>
<g filter="url(#filter2_dd_4003_4769)">
<rect x="90.7822" y="116.133" width="318.72" height="195.65" rx="14" fill="white" fill-opacity="0.01" shape-rendering="crispEdges"/>
</g>
<mask id="mask3_4003_4769" style="mask-type:luminance" maskUnits="userSpaceOnUse" x="89" y="115" width="322" height="198">
<path d="M396.973 115.221H103.313C95.8838 115.221 89.8613 121.243 89.8613 128.672V299.34C89.8613 306.769 95.8838 312.792 103.313 312.792H396.973C404.402 312.792 410.424 306.769 410.424 299.34V128.672C410.424 121.243 404.402 115.221 396.973 115.221Z" fill="white"/>
</mask>
<g mask="url(#mask3_4003_4769)">
<path d="M89.8633 301.534C89.8633 307.726 95.0518 312.791 101.395 312.791H398.893C405.237 312.791 410.426 307.726 410.426 301.534V126.479C410.426 120.287 405.237 115.221 398.893 115.221H101.395C95.0518 115.221 89.8633 120.287 89.8633 126.479V301.534Z" fill="#27BB86"/>
<g style="mix-blend-mode:overlay" opacity="0.65">
<path d="M22.0156 211.266C40.4063 185.443 64.9068 168.528 100.876 164.622C212.281 152.523 310.143 248.567 419.651 195.888" stroke="url(#paint6_linear_4003_4769)" stroke-linecap="round"/>
<path d="M22.3398 218.244C40.7305 192.422 65.2311 175.507 101.2 171.6C212.605 159.502 310.467 255.545 419.975 202.866" stroke="url(#paint7_linear_4003_4769)" stroke-linecap="round"/>
<path d="M21.6318 205.904C40.0225 180.082 64.523 163.167 100.492 159.261C211.897 147.162 309.76 243.206 419.267 190.526" stroke="url(#paint8_linear_4003_4769)" stroke-linecap="round"/>
<path d="M19.8418 199.414C38.2325 173.591 62.7329 156.677 98.7023 152.77C210.107 140.672 307.969 236.715 417.477 184.036" stroke="url(#paint9_linear_4003_4769)" stroke-linecap="round"/>
<path d="M19.083 193.684C37.4737 167.861 61.9742 150.946 97.9435 147.04C209.349 134.941 307.21 230.985 416.718 178.306" stroke="url(#paint10_linear_4003_4769)" stroke-linecap="round"/>
<path d="M18.3223 187.953C36.7129 162.13 61.2134 145.216 97.1828 141.309C208.588 129.211 306.45 225.254 415.957 172.575" stroke="url(#paint11_linear_4003_4769)" stroke-linecap="round"/>
<path d="M26.0801 241.851C44.4707 216.029 68.9712 199.114 104.941 195.208C216.345 183.109 314.207 279.153 423.716 226.473" stroke="url(#paint12_linear_4003_4769)" stroke-linecap="round"/>
<path d="M26.4053 248.831C44.7959 223.007 69.2964 206.093 105.266 202.186C216.671 190.088 314.533 286.131 424.04 233.452" stroke="url(#paint13_linear_4003_4769)" stroke-linecap="round"/>
<path d="M25.6973 236.493C44.0879 210.669 68.5884 193.755 104.558 189.848C215.963 177.75 313.824 273.793 423.333 221.114" stroke="url(#paint14_linear_4003_4769)" stroke-linecap="round"/>
<path d="M23.9072 230.003C42.2978 204.179 66.7984 187.264 102.768 183.358C214.173 171.26 312.034 267.303 421.542 214.624" stroke="url(#paint15_linear_4003_4769)" stroke-linecap="round"/>
<path d="M23.1484 224.269C41.5391 198.447 66.0396 181.532 102.009 177.626C213.414 165.527 311.276 261.571 420.783 208.891" stroke="url(#paint16_linear_4003_4769)" stroke-linecap="round"/>
<path d="M22.3877 218.54C40.7783 192.716 65.2788 175.802 101.248 171.895C212.653 159.797 310.515 255.84 420.023 203.161" stroke="url(#paint17_linear_4003_4769)" stroke-linecap="round"/>
</g>
<path d="M115.58 287.17V278.719H116.71V286.181H120.924V287.17H115.58ZM126.51 285.828C126.51 286.287 126.545 286.782 126.605 287.17H125.558C125.534 286.959 125.518 286.747 125.51 286.534C125.134 286.982 124.451 287.276 123.65 287.276C122.532 287.276 121.614 286.605 121.614 285.498C121.614 284.274 122.579 283.756 123.956 283.486L125.486 283.18V282.803C125.486 282.12 124.992 281.826 124.239 281.826C123.427 281.826 122.98 282.168 122.898 282.826H121.862C121.956 281.52 122.98 280.897 124.298 280.897C125.663 280.897 126.511 281.52 126.511 282.65L126.51 285.828ZM125.486 285.075V284.004L124.239 284.262C123.297 284.451 122.674 284.709 122.674 285.452C122.674 286.051 123.121 286.416 123.792 286.416C124.698 286.416 125.486 285.863 125.486 285.075ZM128.858 284.098C128.858 285.498 129.611 286.369 130.706 286.369C131.553 286.369 132.059 285.828 132.236 285.063L133.178 285.498C132.884 286.523 131.989 287.3 130.706 287.3C128.988 287.3 127.799 285.993 127.799 284.098C127.799 282.191 128.988 280.897 130.706 280.897C131.989 280.897 132.86 281.638 133.154 282.662L132.236 283.121C132.059 282.367 131.554 281.814 130.706 281.814C129.611 281.814 128.858 282.685 128.858 284.098ZM134.338 287.17V278.719H135.397V281.85C135.601 281.552 135.875 281.309 136.196 281.143C136.516 280.977 136.872 280.892 137.233 280.897C138.539 280.897 139.282 281.802 139.282 283.109V287.17H138.222V283.391C138.222 282.532 137.857 281.885 136.938 281.885C136.173 281.885 135.397 282.474 135.397 283.498V287.17H134.336H134.338ZM142.041 278.719V287.17H140.981V278.719H142.041ZM148.246 285.828C148.246 286.287 148.281 286.782 148.34 287.17H147.293C147.269 286.959 147.253 286.747 147.246 286.534C146.869 286.982 146.186 287.276 145.386 287.276C144.268 287.276 143.35 286.605 143.35 285.498C143.35 284.274 144.314 283.756 145.692 283.486L147.222 283.18V282.803C147.222 282.12 146.728 281.826 145.975 281.826C145.162 281.826 144.715 282.168 144.633 282.826H143.597C143.691 281.52 144.715 280.897 146.034 280.897C147.398 280.897 148.246 281.52 148.246 282.65V285.828ZM147.222 285.075V284.004L145.975 284.262C145.033 284.451 144.409 284.709 144.409 285.452C144.409 286.051 144.856 286.416 145.527 286.416C146.433 286.416 147.222 285.863 147.222 285.075ZM149.958 287.17V281.014H151.017V281.85C151.221 281.552 151.496 281.309 151.816 281.143C152.137 280.976 152.493 280.892 152.854 280.897C154.16 280.897 154.902 281.802 154.902 283.109V287.17H153.842V283.391C153.842 282.532 153.477 281.885 152.56 281.885C151.795 281.885 151.017 282.474 151.017 283.498V287.17H149.958ZM159.132 287.17V278.719H162.251C164.04 278.719 164.994 279.508 164.994 280.92C164.994 282.002 164.334 282.544 163.687 282.768C164.64 283.027 165.276 283.768 165.276 284.839C165.276 286.31 164.205 287.17 162.498 287.17H159.132ZM160.227 282.344H162.156C163.286 282.344 163.911 281.909 163.911 281.014C163.911 280.108 163.286 279.672 162.156 279.672H160.227V282.344ZM160.227 283.31V286.217H162.451C163.581 286.217 164.193 285.628 164.193 284.757C164.193 283.897 163.581 283.31 162.451 283.31H160.227ZM169.791 280.99V282.061C169.621 282.027 169.447 282.012 169.274 282.014C168.379 282.014 167.661 282.721 167.661 283.804V287.17H166.602V281.014H167.66V282.061C167.931 281.438 168.532 280.967 169.367 280.967C169.532 280.967 169.684 280.978 169.791 280.99ZM176.002 284.098C176.002 286.004 174.825 287.3 173.142 287.3C171.458 287.3 170.282 286.004 170.282 284.098C170.282 282.191 171.458 280.897 173.142 280.897C174.825 280.897 176.002 282.191 176.002 284.098ZM171.353 284.098C171.353 285.498 172.059 286.393 173.142 286.393C174.225 286.393 174.931 285.498 174.931 284.098C174.931 282.685 174.224 281.791 173.142 281.791C172.059 281.791 171.353 282.685 171.353 284.098ZM180.165 281.014H181.059L182.331 285.604L183.614 281.014H184.673L182.801 287.17H181.871L180.588 282.603L179.306 287.17H178.376L176.504 281.014H177.599L178.894 285.593L180.165 281.014ZM185.705 287.17V281.014H186.764V281.85C186.968 281.552 187.243 281.309 187.563 281.143C187.883 280.977 188.24 280.892 188.6 280.897C189.908 280.897 190.649 281.802 190.649 283.109V287.17H189.59V283.391C189.59 282.532 189.224 281.885 188.307 281.885C187.541 281.885 186.764 282.474 186.764 283.498V287.17H185.705Z" fill="white"/>
<path fill-rule="evenodd" clip-rule="evenodd" d="M264.69 144.44C264.69 144.799 264.395 145.094 264.036 145.094H253.66C253.3 145.094 253.005 144.799 253.005 144.44C253.005 144.08 253.3 143.785 253.66 143.785H264.036C264.395 143.785 264.69 144.08 264.69 144.44ZM265.434 147.044C265.434 147.403 265.139 147.698 264.78 147.698H257.366C257.007 147.698 256.712 147.403 256.712 147.044C256.712 146.684 257.007 146.389 257.366 146.389H264.78C265.139 146.389 265.434 146.684 265.434 147.044ZM264.78 142.49H258.11C257.751 142.49 257.456 142.195 257.456 141.836C257.456 141.476 257.751 141.181 258.11 141.181H264.78C265.139 141.181 265.434 141.476 265.434 141.836C265.434 142.195 265.139 142.49 264.78 142.49ZM272.463 144.44C272.463 146.235 271.014 147.684 269.218 147.684C267.423 147.684 265.973 146.223 265.973 144.44C265.973 142.656 267.423 141.194 269.218 141.194C271.014 141.194 272.463 142.656 272.463 144.44ZM267.281 144.44C267.281 145.517 268.154 146.389 269.231 146.389C270.308 146.389 271.181 145.517 271.181 144.44C271.181 143.362 270.308 142.49 269.231 142.49C268.154 142.49 267.281 143.362 267.281 144.44ZM269.231 138.591C272.451 138.591 275.067 141.22 275.067 144.44C275.067 147.659 272.451 150.288 269.231 150.288H260.342C259.983 150.288 259.688 149.993 259.688 149.634C259.688 149.275 259.983 148.981 260.342 148.981H269.231C271.732 148.981 273.772 146.941 273.772 144.427C273.772 141.913 271.732 139.873 269.231 139.873H255.147C254.788 139.873 254.493 139.578 254.493 139.219C254.493 138.86 254.788 138.565 255.147 138.565H269.231V138.591ZM291.793 146.607V142.285C291.793 139.693 293.537 137.872 296.052 137.872C298.566 137.872 300.31 139.693 300.31 142.285V146.607C300.31 149.186 298.552 150.981 296.052 150.981C293.55 150.981 291.793 149.172 291.793 146.607ZM297.835 146.697V142.195C297.835 140.771 296.988 140.245 296.052 140.245C295.167 140.245 294.294 140.719 294.294 142.169V146.672C294.294 148.095 295.128 148.595 296.052 148.595C296.898 148.595 297.835 148.146 297.835 146.684V146.697ZM306.646 140.245C305.787 140.245 304.889 140.719 304.889 142.169V146.672C304.889 148.172 305.787 148.621 306.646 148.621C307.801 148.621 308.429 148.057 308.429 146.21V146.043H310.917C310.917 149.288 309.532 150.994 306.659 150.994C304.145 150.994 302.401 149.186 302.401 146.594V142.233C302.401 139.655 304.145 137.859 306.659 137.859C309.481 137.859 310.917 139.72 310.917 142.669H308.429V142.49C308.429 140.617 307.519 140.233 306.646 140.233V140.245ZM319.088 150.801L316.574 145.517H315.638V150.801H313.149V138.09H315.638V143.323H316.574L319.088 138.09H321.872L318.704 144.401L321.872 150.801H319.088ZM326.502 140.489V143.375H329.94V145.543H326.502V148.429H331.145V150.801H324.027V138.09H331.145V140.489H326.502ZM337.815 140.489V150.801H335.327V140.489H332.685V138.09H340.457V140.489H337.815ZM357.505 150.801V138.09H359.993V150.801H357.505ZM362.904 138.09H367.073C369.587 138.09 371.331 139.642 371.331 142.747V146.094C371.331 149.16 369.587 150.801 367.073 150.801H362.904V138.09ZM365.393 148.441H366.791C367.984 148.441 368.882 147.967 368.882 145.491V143.016C368.882 141.643 368.522 140.476 366.791 140.476H365.393V148.441ZM376.36 140.489V143.375H379.797V145.543H376.36V148.429H381.002V150.801H373.885V138.09H381.002V140.489H376.36ZM382.709 141.592C382.709 139.27 384.363 137.859 386.877 137.859C389.391 137.859 391.021 139.501 391.021 142.118H388.57C388.57 140.771 387.903 140.13 386.839 140.13C385.775 140.13 385.184 140.63 385.184 141.592C385.184 144.119 391.174 142.618 391.174 147.159C391.174 149.57 389.443 151.02 386.877 151.02C384.312 151.02 382.543 149.34 382.543 146.62H385.03C385.03 148.095 385.787 148.711 386.877 148.711C387.967 148.711 388.699 148.224 388.699 147.185C388.699 144.773 382.709 146.107 382.709 141.592ZM287.881 146.941L290.023 150.801H287.304L285.598 147.518L285.29 146.966H283.943V150.801H281.455V138.09H285.483C289.061 138.09 289.728 141.066 289.728 142.682C289.728 144.478 288.83 145.773 287.548 146.377C287.663 146.582 287.778 146.787 287.868 146.941H287.881ZM283.943 140.476V144.619H285.188C286.226 144.619 287.278 144.157 287.278 142.529C287.278 140.886 286.278 140.476 285.188 140.476H283.943ZM353.13 146.941L355.273 150.801H352.554L350.847 147.518L350.54 146.966H349.193V150.801H346.717V138.09H350.744C354.323 138.09 354.99 141.066 354.99 142.682C354.99 144.478 354.092 145.773 352.809 146.377C352.925 146.582 353.041 146.787 353.13 146.941ZM349.193 140.476V144.619H350.437C351.476 144.619 352.527 144.157 352.527 142.529C352.527 140.886 351.527 140.476 350.437 140.476H349.193Z" fill="white"/>
<path d="M358.501 273.6L354.023 295.111H348.585L353.063 273.6H358.501ZM381.054 287.5L383.934 279.392L385.533 287.5H381.054ZM387.132 295.111H392.091L387.772 273.6H383.134C382.174 273.6 381.214 274.262 380.894 275.255L372.897 295.111H378.495L379.615 291.967H386.493L387.132 295.111ZM373.057 287.996C373.057 282.371 365.539 282.039 365.539 279.557C365.699 278.399 366.659 277.737 367.779 277.737C369.538 277.571 371.457 277.903 373.057 278.729L374.016 274.096C372.417 273.435 370.657 273.104 369.058 273.104C363.78 273.104 359.941 276.082 359.941 280.219C359.941 283.363 362.66 285.018 364.58 286.011C366.659 287.004 367.458 287.666 367.298 288.658C367.298 290.148 365.699 290.809 364.099 290.809C362.18 290.809 360.261 290.313 358.501 289.485L357.542 294.118C359.461 294.946 361.54 295.277 363.46 295.277C369.378 295.443 373.057 292.464 373.057 287.996ZM350.824 273.6L342.186 295.111H336.428L332.109 277.903C332.109 277.075 331.47 276.413 330.83 276.082C329.23 275.255 327.471 274.593 325.552 274.262L325.712 273.6H334.829C336.108 273.6 337.068 274.593 337.228 275.752L339.467 288.162L345.226 273.6H350.824Z" fill="white"/>
</g>
<g filter="url(#filter3_dd_4003_4769)">
<rect x="90.7822" y="201.562" width="318.72" height="195.64" rx="14" fill="white" fill-opacity="0.01" shape-rendering="crispEdges"/>
</g>
<path d="M397.405 200.641H102.88C95.69 200.641 89.8613 206.469 89.8613 213.66V385.345C89.8613 392.535 95.69 398.364 102.88 398.364H397.405C404.596 398.364 410.424 392.535 410.424 385.345V213.66C410.424 206.469 404.596 200.641 397.405 200.641Z" fill="white"/>
<mask id="mask4_4003_4769" style="mask-type:alpha" maskUnits="userSpaceOnUse" x="89" y="200" width="322" height="199">
<path d="M397.409 200.641H102.877C95.6885 200.641 89.8613 206.468 89.8613 213.656V385.349C89.8613 392.537 95.6885 398.364 102.877 398.364H397.409C404.597 398.364 410.424 392.537 410.424 385.349V213.656C410.424 206.468 404.597 200.641 397.409 200.641Z" fill="black"/>
</mask>
<g mask="url(#mask4_4003_4769)">
<path d="M247.452 417.687C228.006 416.811 222.103 396.144 222.971 385.986C221.136 372.85 234.257 370.573 244.327 366.545C254.397 362.517 272.107 371.099 277.316 385.986C282.524 400.873 266.898 418.562 247.452 417.687Z" fill="#C9EBDA"/>
<path d="M192.648 198.015C166.205 181.104 142.166 174.571 102.101 181.489C82.4698 183.41 39.8456 212.228 76.4601 294.866C90.083 325.612 117.326 339.832 146.974 346.366C176.622 352.899 180.228 337.142 186.238 321.768C192.247 306.395 199.859 300.63 225.901 277.187C251.943 253.742 219.09 214.925 192.648 198.015Z" fill="#C9EBDA"/>
<path d="M257.626 296.891C268.13 288.327 273.324 279.625 273.208 263.275C273.873 255.415 263.176 235.794 219.453 241.508C203.185 243.634 193.941 252.789 188.287 263.68C182.632 274.57 190.099 277.612 197.18 281.552C204.261 285.491 206.475 289.06 215.887 301.653C225.299 314.246 247.123 305.454 257.626 296.891Z" fill="#C9EBDA"/>
<path fill-rule="evenodd" clip-rule="evenodd" d="M231.647 240.516C227.901 240.616 223.844 240.934 219.454 241.508C203.186 243.634 193.941 252.789 188.287 263.68C183.021 273.821 189.134 277.156 195.718 280.748C196.204 281.014 196.693 281.281 197.18 281.552C202.113 284.296 204.684 286.86 208.971 292.421C211.879 289.76 215.172 286.81 218.926 283.447C221.093 281.505 223.413 279.426 225.901 277.186C237.352 266.878 237.417 253.599 231.647 240.516Z" fill="#9ED9BA"/>
<path d="M394.952 332.7C405.195 343.382 415.122 348.273 432.909 346.711C441.522 346.747 461.941 333.384 451.888 286.293C448.147 268.772 437.371 259.513 425.022 254.312C412.672 249.112 410.015 257.507 406.349 265.56C402.681 273.612 398.991 276.336 386.109 287.684C373.227 299.032 384.71 322.017 394.952 332.7Z" fill="#C9EBDA"/>
<path d="M116.541 371.526H115.42V363.068H120.885V364.058H116.541V366.779H120.215V367.768H116.541V371.526ZM124.778 365.342V366.414C124.607 366.38 124.434 366.364 124.26 366.367C123.364 366.367 122.646 367.073 122.646 368.157V371.526H121.586V365.366H122.646V366.414C122.917 365.79 123.518 365.319 124.354 365.319C124.52 365.319 124.673 365.33 124.778 365.342ZM130.26 370.183C130.26 370.643 130.295 371.138 130.354 371.526H129.305C129.281 371.315 129.266 371.102 129.259 370.89C128.882 371.338 128.198 371.632 127.397 371.632C126.279 371.632 125.358 370.96 125.358 369.853C125.358 368.628 126.325 368.11 127.703 367.839L129.234 367.533V367.156C129.234 366.472 128.74 366.178 127.985 366.178C127.173 366.178 126.726 366.52 126.643 367.18H125.607C125.701 365.872 126.726 365.248 128.045 365.248C129.412 365.248 130.259 365.872 130.259 367.003L130.26 370.183ZM129.234 369.429V368.357L127.985 368.616C127.044 368.805 126.42 369.064 126.42 369.807C126.42 370.407 126.867 370.772 127.539 370.772C128.445 370.772 129.234 370.219 129.234 369.429ZM131.973 371.526V365.366H133.033V366.201C133.238 365.904 133.512 365.661 133.833 365.495C134.153 365.328 134.509 365.244 134.87 365.248C136.178 365.248 136.921 366.155 136.921 367.463V371.526H135.861V367.745C135.861 366.885 135.495 366.237 134.577 366.237C133.81 366.237 133.033 366.826 133.033 367.851V371.526H131.973ZM139.682 363.068V368.24L142.415 365.366H143.734L141.331 367.792L143.934 371.526H142.697L140.577 368.557L139.682 369.465V371.526H138.622V363.068H139.682ZM151.993 371.526H151.086L148.505 364.565V371.526H147.447V363.068H148.99L151.558 370.019L154.137 363.068H155.634V371.526H154.584V364.565L151.993 371.526ZM158.089 368.452C158.089 369.854 158.842 370.725 159.938 370.725C160.786 370.725 161.293 370.183 161.469 369.417L162.411 369.853C162.117 370.879 161.222 371.656 159.938 371.656C158.218 371.656 157.029 370.349 157.029 368.452C157.029 366.543 158.218 365.248 159.938 365.248C161.222 365.248 162.094 365.99 162.388 367.014L161.47 367.474C161.293 366.72 160.786 366.167 159.938 366.167C158.843 366.167 158.089 367.038 158.089 368.452ZM170.299 363.068V371.526H169.32L164.703 364.718V371.526H163.618V363.068H164.809L169.202 369.606V363.068H170.299ZM176.548 370.183C176.548 370.643 176.584 371.138 176.643 371.526H175.594C175.57 371.315 175.554 371.102 175.547 370.89C175.17 371.338 174.487 371.632 173.686 371.632C172.567 371.632 171.647 370.96 171.647 369.853C171.647 368.628 172.614 368.11 173.992 367.839L175.523 367.533V367.156C175.523 366.472 175.029 366.178 174.274 366.178C173.462 366.178 173.015 366.52 172.932 367.18H171.896C171.99 365.872 173.015 365.248 174.334 365.248C175.7 365.248 176.547 365.872 176.547 367.003L176.548 370.183ZM175.523 369.429V368.357L174.274 368.616C173.333 368.805 172.708 369.064 172.708 369.807C172.708 370.407 173.156 370.772 173.828 370.772C174.734 370.772 175.523 370.219 175.523 369.429ZM179.322 367.839V371.526H178.262V365.366H179.322V366.201C179.512 365.903 179.775 365.659 180.087 365.492C180.398 365.325 180.747 365.241 181.1 365.248C181.925 365.248 182.502 365.66 182.809 366.296C183.025 365.972 183.317 365.707 183.66 365.525C184.003 365.342 184.387 365.247 184.775 365.248C186.048 365.248 186.814 366.155 186.814 367.463V371.526H185.754V367.745C185.754 366.885 185.4 366.237 184.528 366.237C183.822 366.237 183.068 366.838 183.068 367.839V371.526H182.008V367.745C182.008 366.885 181.654 366.237 180.783 366.237C180.075 366.237 179.322 366.838 179.322 367.839ZM192.963 370.183C192.963 370.643 192.999 371.138 193.058 371.526H192.01C191.985 371.315 191.969 371.102 191.962 370.89C191.585 371.338 190.902 371.632 190.101 371.632C188.982 371.632 188.063 370.96 188.063 369.853C188.063 368.628 189.029 368.11 190.407 367.839L191.939 367.533V367.156C191.939 366.472 191.444 366.178 190.69 366.178C189.877 366.178 189.43 366.52 189.347 367.18H188.311C188.404 365.872 189.43 365.248 190.749 365.248C192.115 365.248 192.963 365.872 192.963 367.003V370.183ZM191.939 369.429V368.357L190.69 368.616C189.747 368.805 189.124 369.064 189.124 369.807C189.124 370.407 189.571 370.772 190.242 370.772C191.149 370.772 191.939 370.219 191.939 369.429ZM197.869 365.342V366.414C197.698 366.38 197.525 366.364 197.351 366.367C196.455 366.367 195.737 367.073 195.737 368.157V371.526H194.677V365.366H195.737V366.414C196.008 365.79 196.609 365.319 197.445 365.319C197.61 365.319 197.763 365.33 197.869 365.342ZM203.351 370.183C203.351 370.643 203.386 371.138 203.445 371.526H202.396C202.372 371.315 202.357 371.102 202.349 370.89C201.973 371.338 201.289 371.632 200.489 371.632C199.37 371.632 198.45 370.96 198.45 369.853C198.45 368.628 199.417 368.11 200.794 367.839L202.326 367.533V367.156C202.326 366.472 201.831 366.178 201.077 366.178C200.264 366.178 199.817 366.52 199.734 367.18H198.698C198.792 365.872 199.817 365.248 201.136 365.248C202.503 365.248 203.351 365.872 203.351 367.003V370.183ZM202.326 369.429V368.357L201.077 368.616C200.135 368.805 199.51 369.064 199.51 369.807C199.51 370.407 199.959 370.772 200.63 370.772C201.537 370.772 202.326 370.219 202.326 369.429Z" fill="black"/>
<path d="M358.71 359.143L354.229 380.672H348.786L353.268 359.143H358.71ZM381.281 373.054L384.162 364.939L385.763 373.054H381.281ZM387.364 380.672H392.326L388.004 359.143H383.362C382.402 359.143 381.441 359.806 381.121 360.8L373.117 380.672H378.72L379.841 377.525H386.723L387.364 380.672ZM373.277 373.55C373.277 367.92 365.754 367.589 365.754 365.105C365.914 363.945 366.874 363.283 367.995 363.283C369.755 363.118 371.677 363.449 373.277 364.277L374.238 359.64C372.637 358.978 370.876 358.646 369.276 358.646C363.993 358.646 360.151 361.627 360.151 365.768C360.151 368.914 362.873 370.57 364.793 371.564C366.874 372.557 367.675 373.22 367.515 374.213C367.515 375.703 365.914 376.366 364.313 376.366C362.393 376.366 360.471 375.869 358.71 375.041L357.75 379.678C359.671 380.506 361.752 380.837 363.673 380.837C369.596 381.002 373.277 378.022 373.277 373.55ZM351.027 359.143L342.383 380.672H336.621L332.298 363.449C332.298 362.621 331.658 361.959 331.018 361.627C329.417 360.8 327.656 360.137 325.735 359.806L325.895 359.143H335.02C336.3 359.143 337.261 360.137 337.421 361.296L339.662 373.716L345.425 359.143H351.027Z" fill="black"/>
</g>
<path fill-rule="evenodd" clip-rule="evenodd" d="M361.453 232.019C361.453 232.768 361.564 233.314 361.788 233.655C362.012 233.998 362.411 234.168 362.985 234.168V234.681C362.49 234.632 361.995 234.608 361.501 234.608C360.079 234.608 358.914 234.722 358.005 234.95V232.85C357.461 234.315 356.425 235.047 354.892 235.047C353.391 235.047 352.195 234.494 351.301 233.386C350.423 232.263 349.992 230.577 350.008 228.331C350.008 226.897 350.232 225.692 350.678 224.715C351.141 223.722 351.771 222.982 352.569 222.493C353.384 221.988 354.309 221.736 355.347 221.736C356.512 221.736 357.398 222.045 358.005 222.664V218.512C358.005 217.762 357.885 217.217 357.645 216.875C357.422 216.533 357.031 216.362 356.472 216.362V215.849C356.983 215.898 357.478 215.923 357.957 215.923C359.346 215.923 360.512 215.808 361.453 215.58V232.019ZM355.874 233.998C356.4 233.998 356.863 233.802 357.263 233.411C357.677 233.02 357.925 232.492 358.005 231.824V223.274C357.606 222.721 357.023 222.444 356.256 222.444C355.411 222.444 354.756 222.94 354.293 223.934C353.83 224.927 353.607 226.409 353.624 228.38C353.607 230.367 353.791 231.799 354.173 232.678C354.573 233.558 355.139 233.998 355.874 233.998ZM308.408 222.069C309.238 222.069 309.973 222.303 310.611 222.771C311.265 223.239 311.776 223.941 312.143 224.876C312.511 225.812 312.695 226.957 312.695 228.31C312.695 230.699 312.191 232.537 311.185 233.824C310.196 235.094 308.848 235.728 307.139 235.728C306.661 235.728 306.205 235.662 305.774 235.528C305.359 235.394 305 235.194 304.697 234.927V237.433C304.697 238.169 304.872 238.678 305.223 238.962C305.575 239.246 306.118 239.388 306.852 239.388V239.914L306.205 239.889C304.434 239.839 303.308 239.814 302.83 239.814C302.351 239.814 301.344 239.848 299.812 239.914V239.388C300.339 239.388 300.706 239.263 300.914 239.012C301.137 238.778 301.249 238.336 301.249 237.683V225.152C301.249 224.384 301.129 223.824 300.89 223.473C300.667 223.122 300.275 222.946 299.717 222.946V222.42C300.227 222.47 300.723 222.495 301.201 222.495C302.59 222.495 303.755 222.378 304.697 222.145V224.45C305.032 223.682 305.519 223.097 306.157 222.695C306.796 222.278 307.546 222.069 308.408 222.069ZM306.205 235.052C307.227 235.052 307.961 234.525 308.408 233.473C308.855 232.403 309.078 230.85 309.078 228.811C309.078 226.773 308.896 225.319 308.528 224.45C308.177 223.581 307.667 223.146 306.995 223.146C306.452 223.146 305.966 223.339 305.536 223.723C305.12 224.108 304.841 224.642 304.697 225.327V234.375C305.08 234.826 305.583 235.052 306.205 235.052ZM320.807 222.069C322.837 222.069 324.426 222.593 325.574 223.641C326.721 224.673 327.295 226.316 327.295 228.571C327.295 230.824 326.721 232.468 325.574 233.5C324.426 234.532 322.837 235.047 320.807 235.047C318.794 235.047 317.204 234.532 316.038 233.5C314.892 232.468 314.317 230.824 314.317 228.571C314.317 226.316 314.892 224.673 316.038 223.641C317.204 222.593 318.794 222.069 320.807 222.069ZM320.807 222.546C320.047 222.546 319.437 223.046 318.979 224.045C318.537 225.03 318.316 226.538 318.316 228.571C318.316 230.602 318.537 232.111 318.979 233.095C319.437 234.079 320.047 234.571 320.807 234.571C321.583 234.571 322.193 234.087 322.634 233.119C323.075 232.135 323.296 230.619 323.296 228.571C323.296 226.522 323.066 225.006 322.608 224.022C322.166 223.037 321.565 222.546 320.807 222.546ZM346.521 222.168C347.356 222.168 347.977 222.143 348.385 222.093V222.593C348.042 222.693 347.731 222.9 347.453 223.217C347.175 223.533 346.93 224.04 346.718 224.739L343.457 235.047C343.278 235.03 343.007 235.023 342.647 235.023C342.304 235.023 342.043 235.03 341.863 235.047L338.528 225.787L335.807 235.047C335.644 235.03 335.382 235.023 335.022 235.023C334.663 235.023 334.393 235.03 334.213 235.047L330.339 224.015C330.144 223.434 329.923 223.059 329.678 222.892C329.433 222.71 329.178 222.618 328.917 222.618V222.093C329.98 222.194 331.14 222.244 332.399 222.244C333.216 222.244 334.279 222.194 335.587 222.093V222.618C335.047 222.618 334.655 222.66 334.409 222.743C334.181 222.826 334.066 223.026 334.066 223.341C334.066 223.558 334.107 223.783 334.189 224.015L336.395 231.079L339.068 222.069L339.975 222.093L340.857 222.069L344.045 231.603L345.589 226.586C345.819 225.805 345.933 225.172 345.933 224.69C345.933 223.391 345.287 222.693 343.996 222.593V222.093C344.765 222.143 345.606 222.168 346.521 222.168ZM375.954 232.102C375.954 232.837 376.074 233.372 376.311 233.707C376.566 234.042 376.991 234.21 377.585 234.21V234.713C377.058 234.665 376.533 234.641 376.005 234.641C374.527 234.641 373.288 234.752 372.285 234.976V232.821C371.505 234.306 370.137 235.047 368.183 235.047C366.909 235.047 365.983 234.737 365.406 234.114C365.134 233.811 364.931 233.419 364.795 232.94C364.675 232.446 364.617 231.799 364.617 231.001V224.942C364.617 224.208 364.489 223.674 364.234 223.338C363.997 223.003 363.58 222.835 362.985 222.835V222.332C363.512 222.38 364.038 222.404 364.565 222.404C366.043 222.404 367.282 222.292 368.285 222.069V231.983C368.285 232.653 368.386 233.157 368.59 233.491C368.811 233.827 369.22 233.994 369.814 233.994C370.493 233.994 371.071 233.731 371.546 233.204C372.039 232.661 372.285 231.998 372.285 231.216V224.942C372.285 224.208 372.159 223.674 371.903 223.338C371.665 223.003 371.249 222.835 370.655 222.835V222.332C371.198 222.38 371.725 222.404 372.235 222.404C373.713 222.404 374.952 222.292 375.954 222.069V232.102ZM389.962 222.729C389.564 222.289 388.971 222.069 388.188 222.069C387.405 222.069 386.7 222.289 386.073 222.729C385.447 223.153 384.968 223.715 384.638 224.416V222.143C383.646 222.371 382.375 222.485 380.827 222.485C380.305 222.485 379.765 222.46 379.207 222.411V222.924C379.835 222.924 380.27 223.096 380.513 223.438C380.757 223.78 380.878 224.326 380.878 225.075V232.774C380.878 233.442 380.757 233.907 380.513 234.168C380.27 234.411 379.835 234.534 379.207 234.534V235.047C379.417 235.047 379.59 235.039 379.73 235.023C381.4 234.974 382.471 234.949 382.94 234.949C383.533 234.949 384.716 234.974 386.491 235.023C386.648 235.039 386.847 235.047 387.092 235.047V234.534C386.239 234.534 385.612 234.388 385.212 234.094C384.829 233.801 384.638 233.279 384.638 232.529V226.053C384.638 225.369 384.863 224.7 385.316 224.048C385.787 223.397 386.351 223.023 387.013 222.924C387.118 222.892 387.256 222.875 387.431 222.875C387.57 222.875 387.675 222.884 387.744 222.9C386.979 223.389 386.596 224.025 386.596 224.806C386.596 225.279 386.769 225.662 387.118 225.955C387.467 226.233 387.936 226.371 388.527 226.371C389.136 226.371 389.624 226.184 389.989 225.809C390.372 225.418 390.564 224.92 390.564 224.317C390.564 223.699 390.364 223.169 389.962 222.729Z" fill="black"/>
<defs>
<filter id="filter0_dd_4003_4769" x="0.696542" y="356.007" width="71.3432" height="71.3432" filterUnits="userSpaceOnUse" color-interpolation-filters="sRGB">
<feFlood flood-opacity="0" result="BackgroundImageFix"/>
<feColorMatrix in="SourceAlpha" type="matrix" values="0 0 0 0 0 0 0 0 0 0 0 0 0 0 0 0 0 0 127 0" result="hardAlpha"/>
<feMorphology radius="7.56" operator="erode" in="SourceAlpha" result="effect1_dropShadow_4003_4769"/>
<feOffset dy="7.56"/>
<feGaussianBlur stdDeviation="7.56"/>
<feComposite in2="hardAlpha" operator="out"/>
<feColorMatrix type="matrix" values="0 0 0 0 0 0 0 0 0 0 0 0 0 0 0 0 0 0 0.1 0"/>
<feBlend mode="normal" in2="BackgroundImageFix" result="effect1_dropShadow_4003_4769"/>
<feColorMatrix in="SourceAlpha" type="matrix" values="0 0 0 0 0 0 0 0 0 0 0 0 0 0 0 0 0 0 127 0" result="hardAlpha"/>
<feMorphology radius="11.5733" operator="erode" in="SourceAlpha" result="effect2_dropShadow_4003_4769"/>
<feOffset dy="12.6"/>
<feGaussianBlur stdDeviation="12.6"/>
<feComposite in2="hardAlpha" operator="out"/>
<feColorMatrix type="matrix" values="0 0 0 0 0.196078 0 0 0 0 0.196078 0 0 0 0 0.364706 0 0 0 0.25 0"/>
<feBlend mode="normal" in2="effect1_dropShadow_4003_4769" result="effect2_dropShadow_4003_4769"/>
<feBlend mode="normal" in="SourceGraphic" in2="effect2_dropShadow_4003_4769" result="shape"/>
</filter>
<filter id="filter1_dd_4003_4769" x="10.7822" y="0.712891" width="478.72" height="355.65" filterUnits="userSpaceOnUse" color-interpolation-filters="sRGB">
<feFlood flood-opacity="0" result="BackgroundImageFix"/>
<feColorMatrix in="SourceAlpha" type="matrix" values="0 0 0 0 0 0 0 0 0 0 0 0 0 0 0 0 0 0 127 0" result="hardAlpha"/>
<feMorphology radius="30" operator="erode" in="SourceAlpha" result="effect1_dropShadow_4003_4769"/>
<feOffset dy="30"/>
<feGaussianBlur stdDeviation="30"/>
<feComposite in2="hardAlpha" operator="out"/>
<feColorMatrix type="matrix" values="0 0 0 0 0 0 0 0 0 0 0 0 0 0 0 0 0 0 0.3 0"/>
<feBlend mode="normal" in2="BackgroundImageFix" result="effect1_dropShadow_4003_4769"/>
<feColorMatrix in="SourceAlpha" type="matrix" values="0 0 0 0 0 0 0 0 0 0 0 0 0 0 0 0 0 0 127 0" result="hardAlpha"/>
<feMorphology radius="20" operator="erode" in="SourceAlpha" result="effect2_dropShadow_4003_4769"/>
<feOffset dy="50"/>
<feGaussianBlur stdDeviation="50"/>
<feComposite in2="hardAlpha" operator="out"/>
<feColorMatrix type="matrix" values="0 0 0 0 0.196078 0 0 0 0 0.196078 0 0 0 0 0.364706 0 0 0 0.25 0"/>
<feBlend mode="normal" in2="effect1_dropShadow_4003_4769" result="effect2_dropShadow_4003_4769"/>
<feBlend mode="normal" in="SourceGraphic" in2="effect2_dropShadow_4003_4769" result="shape"/>
</filter>
<filter id="filter2_dd_4003_4769" x="10.7822" y="86.1328" width="478.72" height="355.65" filterUnits="userSpaceOnUse" color-interpolation-filters="sRGB">
<feFlood flood-opacity="0" result="BackgroundImageFix"/>
<feColorMatrix in="SourceAlpha" type="matrix" values="0 0 0 0 0 0 0 0 0 0 0 0 0 0 0 0 0 0 127 0" result="hardAlpha"/>
<feMorphology radius="30" operator="erode" in="SourceAlpha" result="effect1_dropShadow_4003_4769"/>
<feOffset dy="30"/>
<feGaussianBlur stdDeviation="30"/>
<feComposite in2="hardAlpha" operator="out"/>
<feColorMatrix type="matrix" values="0 0 0 0 0 0 0 0 0 0 0 0 0 0 0 0 0 0 0.3 0"/>
<feBlend mode="normal" in2="BackgroundImageFix" result="effect1_dropShadow_4003_4769"/>
<feColorMatrix in="SourceAlpha" type="matrix" values="0 0 0 0 0 0 0 0 0 0 0 0 0 0 0 0 0 0 127 0" result="hardAlpha"/>
<feMorphology radius="20" operator="erode" in="SourceAlpha" result="effect2_dropShadow_4003_4769"/>
<feOffset dy="50"/>
<feGaussianBlur stdDeviation="50"/>
<feComposite in2="hardAlpha" operator="out"/>
<feColorMatrix type="matrix" values="0 0 0 0 0.196078 0 0 0 0 0.196078 0 0 0 0 0.364706 0 0 0 0.25 0"/>
<feBlend mode="normal" in2="effect1_dropShadow_4003_4769" result="effect2_dropShadow_4003_4769"/>
<feBlend mode="normal" in="SourceGraphic" in2="effect2_dropShadow_4003_4769" result="shape"/>
</filter>
<filter id="filter3_dd_4003_4769" x="10.7822" y="171.562" width="478.72" height="355.641" filterUnits="userSpaceOnUse" color-interpolation-filters="sRGB">
<feFlood flood-opacity="0" result="BackgroundImageFix"/>
<feColorMatrix in="SourceAlpha" type="matrix" values="0 0 0 0 0 0 0 0 0 0 0 0 0 0 0 0 0 0 127 0" result="hardAlpha"/>
<feMorphology radius="30" operator="erode" in="SourceAlpha" result="effect1_dropShadow_4003_4769"/>
<feOffset dy="30"/>
<feGaussianBlur stdDeviation="30"/>
<feComposite in2="hardAlpha" operator="out"/>
<feColorMatrix type="matrix" values="0 0 0 0 0 0 0 0 0 0 0 0 0 0 0 0 0 0 0.3 0"/>
<feBlend mode="normal" in2="BackgroundImageFix" result="effect1_dropShadow_4003_4769"/>
<feColorMatrix in="SourceAlpha" type="matrix" values="0 0 0 0 0 0 0 0 0 0 0 0 0 0 0 0 0 0 127 0" result="hardAlpha"/>
<feMorphology radius="20" operator="erode" in="SourceAlpha" result="effect2_dropShadow_4003_4769"/>
<feOffset dy="50"/>
<feGaussianBlur stdDeviation="50"/>
<feComposite in2="hardAlpha" operator="out"/>
<feColorMatrix type="matrix" values="0 0 0 0 0.196078 0 0 0 0 0.196078 0 0 0 0 0.364706 0 0 0 0.25 0"/>
<feBlend mode="normal" in2="effect1_dropShadow_4003_4769" result="effect2_dropShadow_4003_4769"/>
<feBlend mode="normal" in="SourceGraphic" in2="effect2_dropShadow_4003_4769" result="shape"/>
</filter>
<linearGradient id="paint0_linear_4003_4769" x1="35.4428" y1="112.462" x2="36.3613" y2="112.462" gradientUnits="userSpaceOnUse">
<stop stop-color="#FF80FF"/>
<stop offset="1" stop-color="#0073E6"/>
</linearGradient>
<linearGradient id="paint1_linear_4003_4769" x1="35.4428" y1="281.472" x2="36.3613" y2="281.472" gradientUnits="userSpaceOnUse">
<stop stop-color="#11EFE3"/>
<stop offset="1" stop-color="#0073E6"/>
</linearGradient>
<linearGradient id="paint2_linear_4003_4769" x1="32.8667" y1="369.91" x2="32.8667" y2="376.694" gradientUnits="userSpaceOnUse">
<stop stop-color="#11EFE3"/>
<stop offset="0.33" stop-color="#15E8E2"/>
<stop offset="0.74" stop-color="#1FD3E0"/>
<stop offset="1" stop-color="#21CFE0"/>
</linearGradient>
<linearGradient id="paint3_linear_4003_4769" x1="36.3732" y1="376.929" x2="36.3732" y2="382.701" gradientUnits="userSpaceOnUse">
<stop stop-color="#00299C"/>
<stop offset="1" stop-color="#0073E6"/>
</linearGradient>
<linearGradient id="paint4_linear_4003_4769" x1="402.363" y1="135.902" x2="403.281" y2="135.902" gradientUnits="userSpaceOnUse">
<stop stop-color="#1DF5E9"/>
<stop offset="1" stop-color="#00D924"/>
</linearGradient>
<linearGradient id="paint5_linear_4003_4769" x1="402.363" y1="163.902" x2="403.281" y2="163.902" gradientUnits="userSpaceOnUse">
<stop stop-color="#1DF5E9"/>
<stop offset="1" stop-color="#00D924"/>
</linearGradient>
<linearGradient id="paint6_linear_4003_4769" x1="804.969" y1="87.5229" x2="794.762" y2="274.886" gradientUnits="userSpaceOnUse">
<stop offset="0.614583" stop-color="#27BB86"/>
<stop offset="1" stop-color="white"/>
</linearGradient>
<linearGradient id="paint7_linear_4003_4769" x1="805.293" y1="94.5014" x2="795.086" y2="281.865" gradientUnits="userSpaceOnUse">
<stop offset="0.614583" stop-color="#27BB86"/>
<stop offset="1" stop-color="white"/>
</linearGradient>
<linearGradient id="paint8_linear_4003_4769" x1="804.585" y1="82.1616" x2="794.378" y2="269.525" gradientUnits="userSpaceOnUse">
<stop offset="0.614583" stop-color="#27BB86"/>
<stop offset="1" stop-color="white"/>
</linearGradient>
<linearGradient id="paint9_linear_4003_4769" x1="802.795" y1="75.6714" x2="792.588" y2="263.034" gradientUnits="userSpaceOnUse">
<stop offset="0.614583" stop-color="#27BB86"/>
<stop offset="1" stop-color="white"/>
</linearGradient>
<linearGradient id="paint10_linear_4003_4769" x1="802.036" y1="69.9409" x2="791.829" y2="257.304" gradientUnits="userSpaceOnUse">
<stop offset="0.614583" stop-color="#27BB86"/>
<stop offset="1" stop-color="white"/>
</linearGradient>
<linearGradient id="paint11_linear_4003_4769" x1="801.276" y1="64.2104" x2="791.068" y2="251.573" gradientUnits="userSpaceOnUse">
<stop offset="0.614583" stop-color="#27BB86"/>
<stop offset="1" stop-color="white"/>
</linearGradient>
<linearGradient id="paint12_linear_4003_4769" x1="809.033" y1="118.109" x2="798.826" y2="305.472" gradientUnits="userSpaceOnUse">
<stop offset="0.614583" stop-color="#27BB86"/>
<stop offset="1" stop-color="white"/>
</linearGradient>
<linearGradient id="paint13_linear_4003_4769" x1="809.358" y1="125.087" x2="799.151" y2="312.45" gradientUnits="userSpaceOnUse">
<stop offset="0.614583" stop-color="#27BB86"/>
<stop offset="1" stop-color="white"/>
</linearGradient>
<linearGradient id="paint14_linear_4003_4769" x1="808.65" y1="112.75" x2="798.444" y2="300.113" gradientUnits="userSpaceOnUse">
<stop offset="0.614583" stop-color="#27BB86"/>
<stop offset="1" stop-color="white"/>
</linearGradient>
<linearGradient id="paint15_linear_4003_4769" x1="806.861" y1="106.259" x2="796.653" y2="293.622" gradientUnits="userSpaceOnUse">
<stop offset="0.614583" stop-color="#27BB86"/>
<stop offset="1" stop-color="white"/>
</linearGradient>
<linearGradient id="paint16_linear_4003_4769" x1="806.102" y1="100.527" x2="795.894" y2="287.89" gradientUnits="userSpaceOnUse">
<stop offset="0.614583" stop-color="#27BB86"/>
<stop offset="1" stop-color="white"/>
</linearGradient>
<linearGradient id="paint17_linear_4003_4769" x1="805.34" y1="94.7964" x2="795.134" y2="282.159" gradientUnits="userSpaceOnUse">
<stop offset="0.614583" stop-color="#27BB86"/>
<stop offset="1" stop-color="white"/>
</linearGradient>
</defs>
</svg>
