<svg width="507" height="373" viewBox="0 0 507 373" fill="none" xmlns="http://www.w3.org/2000/svg">
<g filter="url(#filter0_dd_4003_508)">
<rect x="80" y="30" width="347" height="213" rx="14" fill="white" fill-opacity="0.01" shape-rendering="crispEdges"/>
</g>
<mask id="mask0_4003_508" style="mask-type:luminance" maskUnits="userSpaceOnUse" x="79" y="29" width="349" height="216">
<path d="M413.344 29H93.6562C85.5618 29 79 35.5618 79 43.6562V229.606C79 237.7 85.5618 244.262 93.6562 244.262H413.344C421.438 244.262 428 237.7 428 229.606V43.6562C428 35.5618 421.438 29 413.344 29Z" fill="white"/>
</mask>
<g mask="url(#mask0_4003_508)">
<path d="M413.826 29H93.1737C85.3458 29 79 35.3458 79 43.1737V230.088C79 237.916 85.3458 244.262 93.1737 244.262H413.826C421.654 244.262 428 237.916 428 230.088V43.1737C428 35.3458 421.654 29 413.826 29Z" fill="black"/>
<mask id="mask1_4003_508" style="mask-type:alpha" maskUnits="userSpaceOnUse" x="79" y="29" width="349" height="216">
<path d="M428 29H79V244.262H428V29Z" fill="white"/>
</mask>
<g mask="url(#mask1_4003_508)">
<mask id="mask2_4003_508" style="mask-type:luminance" maskUnits="userSpaceOnUse" x="342" y="186" width="72" height="44">
<path d="M413.914 186H342.808V229.944H413.914V186Z" fill="white"/>
</mask>
<g mask="url(#mask2_4003_508)">
<path d="M387.979 190.697H368.746V225.247H387.979V190.697Z" fill="#F16122"/>
<path d="M369.971 207.979C369.971 200.969 373.246 194.725 378.361 190.697C374.626 187.756 369.901 186 364.786 186C352.647 186 342.808 195.84 342.808 207.979C342.808 220.118 352.647 229.958 364.786 229.958C369.915 229.958 374.626 228.201 378.361 225.261C373.246 221.233 369.971 214.989 369.971 207.979Z" fill="#ED1C24"/>
<path d="M411.807 221.596V220.886H412.086V220.746H411.361V220.886H411.64V221.596H411.793H411.807ZM413.215 221.596V220.746H412.992L412.742 221.331L412.49 220.746H412.267V221.596H412.421V220.955L412.658 221.512H412.825L413.062 220.955V221.596H413.215Z" fill="#F99F1C"/>
<path d="M413.914 207.979C413.914 220.118 404.074 229.958 391.935 229.958C386.806 229.958 382.095 228.201 378.36 225.261C383.475 221.233 386.75 214.989 386.75 207.979C386.75 200.969 383.475 194.725 378.36 190.697C382.095 187.756 386.82 186 391.935 186C404.074 186 413.914 195.84 413.914 207.979Z" fill="#F99F1C"/>
</g>
<path d="M346.978 163.145C347.437 163.145 347.867 163.228 348.256 163.395C348.659 163.562 348.992 163.798 349.256 164.131L348.395 165.048C348.172 164.839 347.951 164.687 347.714 164.575C347.478 164.464 347.214 164.409 346.922 164.409C346.672 164.409 346.423 164.451 346.2 164.548C345.978 164.645 345.784 164.77 345.63 164.951C345.464 165.117 345.339 165.326 345.255 165.576C345.158 165.812 345.117 166.076 345.117 166.367C345.117 166.659 345.158 166.923 345.255 167.16C345.353 167.396 345.478 167.604 345.63 167.784C345.797 167.951 345.978 168.09 346.2 168.187C346.423 168.284 346.659 168.326 346.922 168.326C347.214 168.326 347.492 168.27 347.742 168.146C347.992 168.02 348.228 167.868 348.423 167.687L349.242 168.604C348.965 168.924 348.631 169.173 348.228 169.34C347.84 169.507 347.409 169.59 346.95 169.59C346.464 169.59 346.02 169.507 345.63 169.34C345.228 169.173 344.895 168.951 344.616 168.66C344.339 168.368 344.117 168.034 343.964 167.645C343.811 167.257 343.728 166.826 343.728 166.367C343.728 165.909 343.811 165.479 343.964 165.09C344.117 164.701 344.339 164.353 344.616 164.076C344.895 163.784 345.242 163.562 345.63 163.395C346.033 163.228 346.464 163.145 346.95 163.145H346.978Z" fill="white"/>
<path d="M353.478 163.145C353.951 163.145 354.395 163.228 354.798 163.395C355.201 163.562 355.548 163.784 355.839 164.076C356.131 164.367 356.368 164.701 356.534 165.09C356.701 165.479 356.784 165.909 356.784 166.367C356.784 166.826 356.701 167.257 356.534 167.645C356.368 168.034 356.131 168.382 355.839 168.66C355.548 168.951 355.201 169.173 354.798 169.34C354.395 169.507 353.964 169.59 353.478 169.59C352.992 169.59 352.562 169.507 352.159 169.34C351.756 169.173 351.409 168.951 351.117 168.66C350.826 168.368 350.589 168.034 350.436 167.645C350.27 167.257 350.187 166.826 350.187 166.367C350.187 165.909 350.27 165.479 350.436 165.09C350.603 164.701 350.826 164.353 351.117 164.076C351.409 163.784 351.756 163.562 352.159 163.395C352.562 163.228 353.006 163.145 353.478 163.145ZM353.478 164.409C353.201 164.409 352.95 164.451 352.714 164.548C352.478 164.645 352.284 164.77 352.103 164.951C351.936 165.117 351.797 165.326 351.7 165.576C351.603 165.812 351.548 166.076 351.548 166.367C351.548 166.659 351.603 166.923 351.7 167.16C351.797 167.396 351.936 167.604 352.103 167.784C352.27 167.951 352.478 168.09 352.714 168.187C352.95 168.284 353.201 168.326 353.478 168.326C353.756 168.326 354.006 168.284 354.242 168.187C354.478 168.09 354.673 167.951 354.853 167.784C355.02 167.618 355.159 167.409 355.256 167.16C355.353 166.923 355.409 166.659 355.409 166.367C355.409 166.076 355.353 165.812 355.256 165.576C355.159 165.34 355.02 165.131 354.853 164.951C354.686 164.77 354.478 164.645 354.242 164.548C354.006 164.451 353.756 164.409 353.478 164.409Z" fill="white"/>
<path d="M365.993 163.145C366.354 163.145 366.688 163.201 366.993 163.326C367.299 163.45 367.563 163.617 367.785 163.825C368.007 164.034 368.174 164.298 368.299 164.59C368.424 164.881 368.48 165.214 368.48 165.576V169.423H367.132V166.02C367.132 165.506 367.008 165.104 366.757 164.826C366.507 164.548 366.16 164.409 365.702 164.409C365.48 164.409 365.285 164.451 365.09 164.52C364.896 164.59 364.729 164.687 364.59 164.826C364.451 164.965 364.34 165.131 364.243 165.34C364.16 165.548 364.118 165.77 364.118 166.034V169.423H362.771V166.02C362.771 165.506 362.646 165.104 362.396 164.826C362.146 164.548 361.798 164.409 361.34 164.409C361.118 164.409 360.923 164.451 360.729 164.52C360.535 164.59 360.368 164.687 360.229 164.826C360.09 164.965 359.979 165.131 359.881 165.34C359.798 165.548 359.757 165.77 359.757 166.034V169.423H358.409V163.298H359.742V164.048C359.868 163.868 360.006 163.714 360.16 163.604C360.312 163.493 360.465 163.395 360.632 163.326C360.798 163.256 360.965 163.214 361.131 163.187C361.298 163.159 361.465 163.145 361.618 163.145C362.09 163.145 362.507 163.242 362.868 163.437C363.229 163.631 363.521 163.895 363.729 164.243C363.854 164.02 364.021 163.84 364.202 163.701C364.382 163.562 364.562 163.45 364.771 163.367C364.965 163.284 365.174 163.229 365.382 163.201C365.591 163.173 365.785 163.159 365.979 163.159L365.993 163.145Z" fill="white"/>
<path d="M378.066 163.145C378.427 163.145 378.76 163.201 379.066 163.326C379.371 163.45 379.635 163.617 379.858 163.825C380.08 164.034 380.246 164.298 380.372 164.59C380.496 164.881 380.552 165.214 380.552 165.576V169.423H379.204V166.02C379.204 165.506 379.08 165.104 378.829 164.826C378.58 164.548 378.233 164.409 377.774 164.409C377.552 164.409 377.357 164.451 377.163 164.52C376.968 164.59 376.802 164.687 376.662 164.826C376.524 164.965 376.413 165.131 376.315 165.34C376.232 165.548 376.191 165.77 376.191 166.034V169.423H374.843V166.02C374.843 165.506 374.718 165.104 374.468 164.826C374.218 164.548 373.871 164.409 373.413 164.409C373.19 164.409 372.995 164.451 372.802 164.52C372.607 164.59 372.44 164.687 372.301 164.826C372.162 164.965 372.051 165.131 371.954 165.34C371.871 165.548 371.829 165.77 371.829 166.034V169.423H370.481V163.298H371.815V164.048C371.94 163.868 372.079 163.714 372.232 163.604C372.384 163.493 372.537 163.395 372.704 163.326C372.871 163.256 373.038 163.214 373.204 163.187C373.37 163.159 373.537 163.145 373.69 163.145C374.163 163.145 374.579 163.242 374.941 163.437C375.301 163.631 375.593 163.895 375.802 164.243C375.927 164.02 376.093 163.84 376.274 163.701C376.454 163.562 376.635 163.45 376.843 163.367C377.038 163.284 377.246 163.229 377.455 163.201C377.663 163.173 377.858 163.159 378.051 163.159L378.066 163.145Z" fill="white"/>
<path d="M385.192 163.145C385.622 163.145 386.011 163.228 386.358 163.381C386.719 163.534 387.025 163.756 387.275 164.034C387.525 164.312 387.72 164.659 387.872 165.048C388.011 165.437 388.081 165.881 388.081 166.354C388.081 166.437 388.081 166.52 388.081 166.604C388.081 166.687 388.081 166.77 388.067 166.854H383.538C383.58 167.132 383.664 167.368 383.775 167.562C383.886 167.756 384.025 167.923 384.191 168.048C384.358 168.174 384.539 168.27 384.733 168.326C384.927 168.382 385.136 168.41 385.358 168.41C385.664 168.41 385.969 168.354 386.275 168.243C386.581 168.131 386.873 167.965 387.122 167.771L387.789 168.729C387.414 169.048 387.011 169.271 386.594 169.396C386.178 169.52 385.733 169.59 385.275 169.59C384.817 169.59 384.4 169.52 384.011 169.354C383.622 169.201 383.302 168.979 383.025 168.701C382.747 168.423 382.539 168.076 382.386 167.687C382.233 167.284 382.149 166.854 382.149 166.367C382.149 165.881 382.219 165.451 382.372 165.062C382.524 164.659 382.733 164.326 382.997 164.048C383.261 163.77 383.58 163.548 383.956 163.395C384.331 163.242 384.747 163.159 385.192 163.159V163.145ZM385.164 164.34C384.927 164.34 384.719 164.381 384.525 164.451C384.344 164.52 384.178 164.631 384.052 164.756C383.913 164.895 383.802 165.048 383.719 165.242C383.636 165.423 383.58 165.632 383.538 165.853H386.719C386.65 165.381 386.483 165.006 386.206 164.742C385.942 164.479 385.594 164.34 385.164 164.34Z" fill="white"/>
<path d="M392.844 163.145C393.052 163.145 393.233 163.159 393.399 163.187C393.566 163.214 393.719 163.256 393.872 163.312L393.552 164.631C393.413 164.562 393.246 164.506 393.066 164.464C392.871 164.423 392.705 164.409 392.538 164.409C392.33 164.409 392.136 164.451 391.955 164.52C391.774 164.59 391.621 164.701 391.497 164.839C391.371 164.978 391.274 165.159 391.191 165.353C391.122 165.562 391.079 165.784 391.079 166.048V169.41H389.746V163.298H391.066V163.992C391.274 163.701 391.524 163.478 391.83 163.353C392.136 163.214 392.468 163.145 392.844 163.145Z" fill="white"/>
<path d="M397.748 163.145C398.207 163.145 398.638 163.228 399.027 163.395C399.429 163.562 399.763 163.798 400.026 164.131L399.165 165.048C398.944 164.839 398.721 164.687 398.485 164.575C398.249 164.464 397.985 164.409 397.693 164.409C397.443 164.409 397.193 164.451 396.971 164.548C396.749 164.645 396.554 164.77 396.402 164.951C396.235 165.117 396.11 165.326 396.027 165.576C395.929 165.812 395.887 166.076 395.887 166.367C395.887 166.659 395.929 166.923 396.027 167.16C396.123 167.396 396.248 167.604 396.402 167.784C396.568 167.951 396.749 168.09 396.971 168.187C397.193 168.284 397.429 168.326 397.693 168.326C397.985 168.326 398.262 168.27 398.513 168.146C398.763 168.02 398.999 167.868 399.193 167.687L400.013 168.604C399.735 168.924 399.402 169.173 398.999 169.34C398.61 169.507 398.179 169.59 397.721 169.59C397.235 169.59 396.79 169.507 396.402 169.34C395.999 169.173 395.665 168.951 395.388 168.66C395.109 168.368 394.887 168.034 394.734 167.645C394.582 167.257 394.498 166.826 394.498 166.367C394.498 165.909 394.582 165.479 394.734 165.09C394.887 164.701 395.109 164.353 395.388 164.076C395.665 163.784 396.012 163.562 396.402 163.395C396.804 163.228 397.235 163.145 397.721 163.145H397.748Z" fill="white"/>
<path d="M402.872 169.422H401.525V163.297H402.872V169.422Z" fill="white"/>
<path d="M410.844 169.422H409.511V168.686C409.303 168.964 409.039 169.172 408.72 169.339C408.4 169.506 408.025 169.575 407.594 169.575C407.164 169.575 406.761 169.492 406.399 169.339C406.024 169.186 405.705 168.95 405.428 168.672C405.149 168.381 404.927 168.047 404.774 167.658C404.622 167.269 404.538 166.839 404.538 166.366C404.538 165.894 404.622 165.464 404.774 165.074C404.927 164.686 405.149 164.339 405.428 164.06C405.705 163.769 406.024 163.547 406.399 163.394C406.774 163.241 407.164 163.158 407.594 163.158C408.025 163.158 408.414 163.241 408.72 163.408C409.039 163.574 409.303 163.783 409.511 164.06V163.325H410.844V169.422ZM407.747 164.394C407.455 164.394 407.205 164.45 406.969 164.547C406.747 164.658 406.553 164.797 406.386 164.963C406.233 165.144 406.108 165.352 406.024 165.588C405.941 165.824 405.9 166.075 405.9 166.353C405.9 166.63 405.941 166.881 406.024 167.117C406.108 167.352 406.233 167.561 406.386 167.742C406.538 167.922 406.733 168.061 406.969 168.158C407.192 168.255 407.455 168.311 407.747 168.311C408.039 168.311 408.275 168.255 408.497 168.158C408.72 168.061 408.914 167.922 409.08 167.742C409.247 167.561 409.372 167.367 409.455 167.117C409.539 166.881 409.594 166.617 409.594 166.339C409.594 166.061 409.553 165.797 409.455 165.561C409.372 165.325 409.247 165.117 409.08 164.936C408.914 164.755 408.72 164.63 408.497 164.519C408.275 164.422 408.025 164.366 407.747 164.366V164.394Z" fill="white"/>
<path d="M414.291 169.42H412.943V160.795H414.291V169.42Z" fill="white"/>
<path d="M402.191 160.59C402.316 160.59 402.442 160.618 402.566 160.659C402.677 160.715 402.774 160.771 402.872 160.854C402.955 160.938 403.025 161.034 403.066 161.159C403.122 161.27 403.136 161.396 403.136 161.535C403.136 161.673 403.108 161.785 403.066 161.909C403.011 162.021 402.955 162.118 402.872 162.201C402.789 162.284 402.691 162.354 402.566 162.396C402.442 162.438 402.33 162.466 402.191 162.466C402.052 162.466 401.941 162.438 401.816 162.396C401.691 162.354 401.608 162.284 401.524 162.201C401.441 162.118 401.372 162.021 401.33 161.909C401.289 161.799 401.261 161.673 401.261 161.535C401.261 161.396 401.289 161.285 401.33 161.159C401.372 161.049 401.441 160.951 401.524 160.854C401.608 160.771 401.705 160.701 401.816 160.659C401.927 160.604 402.052 160.59 402.191 160.59Z" fill="white"/>
<path d="M301.957 61.5643L306.86 56.7277H304.178L297.275 63.6967V56.7277H295.406V70.9735H297.275V66.0051L299.605 63.8286L300.374 63.0812C301.539 63.8286 304.046 66.0491 304.112 70.9955H306.266C306.2 65.5654 303.584 62.7734 301.957 61.5643ZM317.233 56.7277H314.573L309.208 70.9735H311.187L312.726 66.7086H318.838L320.289 70.9735H322.399L317.233 56.7277ZM313.276 65.1477L315.562 58.8382H316.09L318.222 65.1477H313.276ZM333.439 56.7277L329.394 68.863H329.086L325.063 56.7277H322.931L328.119 70.9735H330.405L335.593 56.7277H333.439ZM348.65 56.7277V62.6195H340.845V56.7277H338.911V70.9735H340.845V64.3123H348.65V70.9735H350.606V56.7277H348.65ZM361.545 56.332C357.477 56.332 354.422 59.6956 354.422 63.8286C354.422 67.9617 357.477 71.3253 361.545 71.3253C365.612 71.3253 368.689 67.9617 368.689 63.8286C368.689 59.6956 365.612 56.332 361.545 56.332ZM361.545 69.5446C358.445 69.5446 356.4 66.9724 356.4 63.8286C356.4 60.6629 358.445 58.1127 361.545 58.1127C364.644 58.1127 366.689 60.6849 366.689 63.8286C366.689 66.9724 364.644 69.5446 361.545 69.5446ZM374.428 69.2148V56.7277H372.515V70.9735H382.057V69.2148H374.428ZM396.503 56.7277L392.436 66.8625L388.325 56.7277H385.335V70.9735H387.16V62.5755C387.16 62.2238 387.16 61.6962 387.138 60.9927C387.116 60.2672 387.116 59.2999 387.116 58.9481H387.314L387.358 58.9701L391.447 69.0609H393.359L397.449 58.9701C397.449 58.9921 397.668 58.9481 397.668 58.9921C397.668 59.6956 397.668 60.487 397.668 61.1246C397.646 61.7841 397.646 62.2678 397.646 62.5755V70.9735H399.493V56.7277H396.503Z" fill="white"/>
<path d="M106.827 216.016C107.263 216.106 107.647 216.145 108.135 216.145C109.917 216.145 110.943 215.324 110.943 213.477V206.834H109.712V213.387C109.712 214.644 109.135 215.042 107.994 215.042C107.583 215.042 107.276 215.003 106.827 214.913V216.016ZM117.587 214.58V211.118C117.587 209.886 116.664 209.207 115.176 209.207C113.74 209.207 112.624 209.886 112.521 211.31H113.65C113.74 210.592 114.227 210.22 115.112 210.22C115.933 210.22 116.471 210.54 116.471 211.284V211.695L114.804 212.028C113.304 212.323 112.252 212.887 112.252 214.221C112.252 215.426 113.252 216.157 114.471 216.157C115.343 216.157 116.087 215.837 116.497 215.349C116.51 215.619 116.523 215.85 116.548 216.042H117.69C117.625 215.619 117.587 215.08 117.587 214.58ZM116.471 213.759C116.471 214.619 115.612 215.221 114.625 215.221C113.894 215.221 113.406 214.824 113.406 214.17C113.406 213.362 114.086 213.08 115.112 212.874L116.471 212.592V213.759ZM119.452 216.042H120.607V212.041C120.607 210.925 121.453 210.284 122.286 210.284C123.287 210.284 123.684 210.989 123.684 211.925V216.042H124.838V211.618C124.838 210.194 124.031 209.207 122.607 209.207C121.658 209.207 120.991 209.694 120.607 210.245V209.335H119.452V216.042ZM129.371 216.183C130.705 216.183 131.718 215.452 132.128 214.259L131.115 213.9C130.91 214.695 130.269 215.183 129.371 215.183C128.204 215.183 127.396 214.285 127.332 212.874H132.18V212.49C132.18 210.63 131.192 209.207 129.32 209.207C127.499 209.207 126.229 210.694 126.229 212.695C126.229 214.76 127.512 216.183 129.371 216.183ZM129.307 210.194C130.474 210.194 130.987 211.041 131.013 211.99H127.396C127.601 210.848 128.332 210.194 129.307 210.194ZM136.373 216.042H139.297C142.092 216.042 143.862 214.247 143.862 211.438C143.862 208.63 142.092 206.834 139.297 206.834H136.373V216.042ZM137.578 214.978V207.899H139.284C141.387 207.899 142.657 209.284 142.657 211.438C142.657 213.58 141.387 214.978 139.297 214.978H137.578ZM145.262 208.168H146.519V206.834H145.262V208.168ZM146.468 209.335H145.314V216.042H146.468V209.335ZM153.229 214.58V211.118C153.229 209.886 152.306 209.207 150.818 209.207C149.382 209.207 148.266 209.886 148.164 211.31H149.292C149.382 210.592 149.869 210.22 150.754 210.22C151.575 210.22 152.113 210.54 152.113 211.284V211.695L150.446 212.028C148.946 212.323 147.894 212.887 147.894 214.221C147.894 215.426 148.894 216.157 150.113 216.157C150.985 216.157 151.729 215.837 152.139 215.349C152.152 215.619 152.165 215.85 152.19 216.042H153.332C153.268 215.619 153.229 215.08 153.229 214.58ZM152.113 213.759C152.113 214.619 151.254 215.221 150.267 215.221C149.536 215.221 149.048 214.824 149.048 214.17C149.048 213.362 149.728 213.08 150.754 212.874L152.113 212.592V213.759ZM159.942 215.055H156.108L159.904 210.22V209.335H154.71V210.322H158.531L154.658 215.17V216.042H159.942V215.055Z" fill="white"/>
</g>
</g>
<defs>
<filter id="filter0_dd_4003_508" x="0" y="0" width="507" height="373" filterUnits="userSpaceOnUse" color-interpolation-filters="sRGB">
<feFlood flood-opacity="0" result="BackgroundImageFix"/>
<feColorMatrix in="SourceAlpha" type="matrix" values="0 0 0 0 0 0 0 0 0 0 0 0 0 0 0 0 0 0 127 0" result="hardAlpha"/>
<feMorphology radius="30" operator="erode" in="SourceAlpha" result="effect1_dropShadow_4003_508"/>
<feOffset dy="30"/>
<feGaussianBlur stdDeviation="30"/>
<feComposite in2="hardAlpha" operator="out"/>
<feColorMatrix type="matrix" values="0 0 0 0 0 0 0 0 0 0 0 0 0 0 0 0 0 0 0.3 0"/>
<feBlend mode="normal" in2="BackgroundImageFix" result="effect1_dropShadow_4003_508"/>
<feColorMatrix in="SourceAlpha" type="matrix" values="0 0 0 0 0 0 0 0 0 0 0 0 0 0 0 0 0 0 127 0" result="hardAlpha"/>
<feMorphology radius="20" operator="erode" in="SourceAlpha" result="effect2_dropShadow_4003_508"/>
<feOffset dy="50"/>
<feGaussianBlur stdDeviation="50"/>
<feComposite in2="hardAlpha" operator="out"/>
<feColorMatrix type="matrix" values="0 0 0 0 0.196078 0 0 0 0 0.196078 0 0 0 0 0.364706 0 0 0 0.25 0"/>
<feBlend mode="normal" in2="effect1_dropShadow_4003_508" result="effect2_dropShadow_4003_508"/>
<feBlend mode="normal" in="SourceGraphic" in2="effect2_dropShadow_4003_508" result="shape"/>
</filter>
</defs>
</svg>
