<svg width="508" height="373" viewBox="0 0 508 373" fill="none" xmlns="http://www.w3.org/2000/svg">
<g filter="url(#filter0_dd_4003_585)">
<rect x="80.5" y="30" width="347" height="213" rx="14" fill="white" fill-opacity="0.01" shape-rendering="crispEdges"/>
</g>
<path d="M414.326 29H93.6737C85.8458 29 79.5 35.3458 79.5 43.1737V230.088C79.5 237.916 85.8458 244.262 93.6737 244.262H414.326C422.154 244.262 428.5 237.916 428.5 230.088V43.1737C428.5 35.3458 422.154 29 414.326 29Z" fill="white"/>
<mask id="mask0_4003_585" style="mask-type:alpha" maskUnits="userSpaceOnUse" x="79" y="29" width="350" height="216">
<path d="M414.33 29H93.67C85.8441 29 79.5 35.3441 79.5 43.17V230.092C79.5 237.918 85.8441 244.262 93.67 244.262H414.33C422.156 244.262 428.5 237.918 428.5 230.092V43.17C428.5 35.3441 422.156 29 414.33 29Z" fill="black"/>
</mask>
<g mask="url(#mask0_4003_585)">
<path d="M251.071 265.298C229.9 264.344 223.473 241.844 224.418 230.785C222.42 216.484 236.705 214.005 247.668 209.62C258.632 205.234 277.913 214.577 283.584 230.785C289.254 246.993 272.242 266.251 251.071 265.298Z" fill="#C9EBDA"/>
<path d="M191.405 26.1401C162.616 7.72969 136.445 0.616792 92.8261 8.14809C71.4529 10.2402 25.0476 41.6137 64.9101 131.582C79.7415 165.056 109.401 180.537 141.679 187.65C173.957 194.763 177.883 177.608 184.426 160.871C190.968 144.134 199.256 137.858 227.608 112.335C255.96 86.811 220.193 44.5506 191.405 26.1401Z" fill="#C9EBDA"/>
<path d="M262.147 133.787C273.583 124.464 279.238 114.99 279.111 97.1891C279.836 88.6324 268.19 67.2709 220.588 73.492C202.877 75.8066 192.813 85.7736 186.657 97.6303C180.501 109.487 188.63 112.798 196.339 117.087C204.048 121.377 206.459 125.261 216.705 138.972C226.952 152.682 250.712 143.11 262.147 133.787Z" fill="#C9EBDA"/>
<path fill-rule="evenodd" clip-rule="evenodd" d="M233.863 72.4121C229.785 72.5215 225.368 72.8681 220.589 73.4927C202.878 75.8073 192.813 85.7743 186.657 97.631C180.924 108.672 187.579 112.303 194.747 116.214C195.276 116.503 195.809 116.793 196.339 117.088C201.709 120.076 204.508 122.868 209.176 128.922C212.342 126.024 215.927 122.813 220.014 119.151C222.373 117.038 224.899 114.774 227.608 112.335C240.074 101.113 240.145 86.6555 233.863 72.4121Z" fill="#9ED9BA"/>
<path d="M411.656 172.772C422.807 184.402 433.615 189.726 452.98 188.026C462.357 188.065 484.587 173.517 473.642 122.249C469.569 103.174 457.838 93.093 444.393 87.4316C430.947 81.7701 428.055 90.9096 424.063 99.6764C420.07 108.443 416.053 111.409 402.028 123.764C388.003 136.118 400.505 161.141 411.656 172.772Z" fill="#C9EBDA"/>
<path d="M108.546 215.042H107.326V205.834H113.276V206.911H108.546V209.874H112.546V210.951H108.546V215.042ZM117.514 208.309V209.476C117.329 209.439 117.139 209.422 116.95 209.425C115.975 209.425 115.193 210.194 115.193 211.374V215.042H114.039V208.335H115.193V209.476C115.488 208.797 116.142 208.284 117.053 208.284C117.233 208.284 117.4 208.296 117.514 208.309ZM123.482 213.58C123.482 214.08 123.521 214.619 123.585 215.042H122.443C122.417 214.812 122.4 214.581 122.393 214.349C121.982 214.837 121.238 215.157 120.366 215.157C119.148 215.157 118.146 214.426 118.146 213.221C118.146 211.887 119.199 211.323 120.699 211.028L122.366 210.695V210.284C122.366 209.54 121.828 209.22 121.006 209.22C120.122 209.22 119.635 209.592 119.545 210.31H118.417C118.519 208.886 119.635 208.207 121.071 208.207C122.559 208.207 123.481 208.886 123.481 210.118L123.482 213.58ZM122.366 212.759V211.592L121.006 211.874C119.981 212.08 119.302 212.362 119.302 213.17C119.302 213.824 119.789 214.221 120.52 214.221C121.507 214.221 122.366 213.619 122.366 212.759ZM125.348 215.042V208.335H126.502V209.245C126.724 208.921 127.023 208.657 127.372 208.475C127.721 208.294 128.109 208.202 128.502 208.207C129.926 208.207 130.734 209.194 130.734 210.618V215.042H129.58V210.925C129.58 209.989 129.182 209.284 128.182 209.284C127.348 209.284 126.502 209.925 126.502 211.041V215.042H125.348ZM133.74 205.834V211.464L136.716 208.335H138.152L135.536 210.977L138.37 215.042H137.023L134.715 211.81L133.74 212.798V215.042H132.586V205.834H133.74ZM147.144 215.042H146.156L143.346 207.463V215.042H142.194V205.834H143.874L146.67 213.401L149.478 205.834H151.107V215.042H149.964V207.463L147.144 215.042ZM153.78 211.695C153.78 213.221 154.6 214.17 155.793 214.17C156.717 214.17 157.268 213.58 157.46 212.746L158.486 213.221C158.166 214.337 157.191 215.183 155.793 215.183C153.921 215.183 152.626 213.76 152.626 211.695C152.626 209.617 153.921 208.207 155.793 208.207C157.191 208.207 158.14 209.015 158.461 210.13L157.461 210.63C157.268 209.81 156.717 209.207 155.793 209.207C154.601 209.207 153.78 210.156 153.78 211.695ZM167.073 205.834V215.042H166.008L160.981 207.63V215.042H159.8V205.834H161.096L165.879 212.952V205.834H167.073ZM173.877 213.58C173.877 214.08 173.916 214.619 173.98 215.042H172.838C172.812 214.812 172.795 214.581 172.787 214.349C172.377 214.837 171.633 215.157 170.761 215.157C169.543 215.157 168.541 214.426 168.541 213.221C168.541 211.887 169.594 211.323 171.094 211.028L172.761 210.695V210.284C172.761 209.54 172.223 209.22 171.401 209.22C170.517 209.22 170.03 209.592 169.94 210.31H168.812C168.914 208.886 170.03 208.207 171.466 208.207C172.954 208.207 173.876 208.886 173.876 210.118L173.877 213.58ZM172.761 212.759V211.592L171.401 211.874C170.376 212.08 169.696 212.362 169.696 213.17C169.696 213.824 170.184 214.221 170.915 214.221C171.902 214.221 172.761 213.619 172.761 212.759ZM176.897 211.028V215.042H175.743V208.335H176.897V209.245C177.104 208.921 177.39 208.655 177.729 208.473C178.069 208.291 178.449 208.2 178.833 208.207C179.731 208.207 180.359 208.656 180.693 209.348C180.928 208.996 181.246 208.707 181.62 208.508C181.994 208.309 182.411 208.205 182.834 208.207C184.219 208.207 185.053 209.194 185.053 210.618V215.042H183.899V210.925C183.899 209.989 183.514 209.284 182.565 209.284C181.796 209.284 180.975 209.938 180.975 211.028V215.042H179.821V210.925C179.821 209.989 179.436 209.284 178.487 209.284C177.717 209.284 176.897 209.938 176.897 211.028ZM191.748 213.58C191.748 214.08 191.787 214.619 191.851 215.042H190.71C190.683 214.812 190.666 214.581 190.658 214.349C190.248 214.837 189.504 215.157 188.632 215.157C187.414 215.157 186.413 214.426 186.413 213.221C186.413 211.887 187.465 211.323 188.965 211.028L190.633 210.695V210.284C190.633 209.54 190.094 209.22 189.273 209.22C188.388 209.22 187.901 209.592 187.811 210.31H186.683C186.785 208.886 187.901 208.207 189.337 208.207C190.825 208.207 191.748 208.886 191.748 210.118V213.58ZM190.633 212.759V211.592L189.273 211.874C188.247 212.08 187.568 212.362 187.568 213.17C187.568 213.824 188.055 214.221 188.786 214.221C189.773 214.221 190.633 213.619 190.633 212.759ZM197.089 208.309V209.476C196.904 209.439 196.714 209.422 196.525 209.425C195.55 209.425 194.768 210.194 194.768 211.374V215.042H193.614V208.335H194.768V209.476C195.063 208.797 195.717 208.284 196.627 208.284C196.807 208.284 196.974 208.296 197.089 208.309ZM203.057 213.58C203.057 214.08 203.096 214.619 203.16 215.042H202.018C201.992 214.812 201.975 214.581 201.967 214.349C201.557 214.837 200.813 215.157 199.941 215.157C198.723 215.157 197.722 214.426 197.722 213.221C197.722 211.887 198.774 211.323 200.274 211.028L201.941 210.695V210.284C201.941 209.54 201.403 209.22 200.582 209.22C199.697 209.22 199.21 209.592 199.12 210.31H197.992C198.094 208.886 199.21 208.207 200.646 208.207C202.134 208.207 203.057 208.886 203.057 210.118V213.58ZM201.941 212.759V211.592L200.582 211.874C199.556 212.08 198.876 212.362 198.876 213.17C198.876 213.824 199.364 214.221 200.095 214.221C201.082 214.221 201.941 213.619 201.941 212.759Z" fill="black"/>
<path d="M372.199 201.561L367.32 224.999H361.394L366.274 201.561H372.199ZM396.772 216.705L399.909 207.871L401.652 216.705H396.772ZM403.395 224.999H408.797L404.092 201.561H399.038C397.992 201.561 396.946 202.282 396.598 203.364L387.884 224.999H393.984L395.204 221.573H402.697L403.395 224.999ZM388.058 217.246C388.058 211.116 379.868 210.756 379.868 208.051C380.042 206.789 381.087 206.068 382.307 206.068C384.224 205.888 386.316 206.248 388.058 207.15L389.104 202.102C387.361 201.381 385.444 201.02 383.702 201.02C377.95 201.02 373.768 204.265 373.768 208.773C373.768 212.198 376.731 214.001 378.822 215.083C381.087 216.164 381.959 216.886 381.785 217.967C381.785 219.59 380.042 220.311 378.299 220.311C376.208 220.311 374.116 219.77 372.199 218.869L371.154 223.917C373.245 224.818 375.511 225.179 377.602 225.179C384.05 225.359 388.058 222.114 388.058 217.246ZM363.834 201.561L354.423 224.999H348.15L343.444 206.248C343.444 205.347 342.747 204.626 342.05 204.265C340.307 203.364 338.39 202.643 336.299 202.282L336.473 201.561H346.407C347.801 201.561 348.847 202.643 349.021 203.905L351.461 217.426L357.735 201.561H363.834Z" fill="black"/>
</g>
<path fill-rule="evenodd" clip-rule="evenodd" d="M375.185 63.1606C375.185 63.9766 375.306 64.5706 375.549 64.9422C375.793 65.315 376.228 65.5008 376.853 65.5008V66.0594C376.314 66.0061 375.775 65.9794 375.237 65.9794C373.689 65.9794 372.421 66.1032 371.431 66.3521V64.0652C370.839 65.6599 369.711 66.4579 368.042 66.4579C366.408 66.4579 365.105 65.8554 364.132 64.6495C363.176 63.4264 362.707 61.5914 362.724 59.1454C362.724 57.5848 362.968 56.2731 363.454 55.2093C363.958 54.1283 364.644 53.3218 365.513 52.7899C366.4 52.2398 367.407 51.9653 368.537 51.9653C369.806 51.9653 370.77 52.3018 371.431 52.9758V48.4554C371.431 47.6393 371.3 47.0454 371.039 46.6737C370.796 46.3009 370.37 46.1151 369.762 46.1151V45.5564C370.318 45.6098 370.857 45.6365 371.379 45.6365C372.891 45.6365 374.16 45.5116 375.185 45.2637V63.1606ZM369.111 65.315C369.684 65.315 370.188 65.1024 370.623 64.6762C371.074 64.2511 371.344 63.6755 371.431 62.948V53.6402C370.997 53.0377 370.362 52.7365 369.527 52.7365C368.607 52.7365 367.894 53.277 367.39 54.359C366.886 55.44 366.643 57.0529 366.661 59.1988C366.643 61.3618 366.843 62.9213 367.259 63.8784C367.694 64.8364 368.311 65.315 369.111 65.315ZM317.434 52.3285C318.338 52.3285 319.138 52.5827 319.833 53.0924C320.545 53.602 321.101 54.366 321.501 55.3841C321.901 56.4034 322.101 57.6496 322.101 59.1227C322.101 61.7235 321.553 63.7249 320.458 65.1255C319.381 66.5088 317.913 67.1992 316.053 67.1992C315.532 67.1992 315.036 67.1269 314.567 66.981C314.115 66.8353 313.724 66.6172 313.394 66.3268V69.0547C313.394 69.856 313.585 70.4106 313.967 70.7197C314.35 71.0286 314.941 71.1831 315.74 71.1831V71.7564L315.036 71.7291C313.108 71.6743 311.882 71.6467 311.361 71.6467C310.84 71.6467 309.744 71.684 308.076 71.7564V71.1831C308.649 71.1831 309.049 71.0473 309.275 70.7744C309.518 70.519 309.64 70.0379 309.64 69.3276V55.6845C309.64 54.8482 309.51 54.2388 309.249 53.8563C309.006 53.4749 308.58 53.2831 307.972 53.2831V52.7099C308.528 52.7647 309.067 52.7921 309.588 52.7921C311.1 52.7921 312.368 52.6649 313.394 52.4107V54.9205C313.759 54.0843 314.289 53.4475 314.984 53.0102C315.679 52.5553 316.496 52.3285 317.434 52.3285ZM315.036 66.4627C316.148 66.4627 316.948 65.8895 317.434 64.7442C317.921 63.579 318.164 61.8879 318.164 59.6685C318.164 57.449 317.965 55.8664 317.565 54.9205C317.183 53.9747 316.627 53.5012 315.896 53.5012C315.305 53.5012 314.776 53.7105 314.307 54.1292C313.854 54.5479 313.551 55.1299 313.394 55.8752V65.7262C313.811 66.2172 314.359 66.4627 315.036 66.4627ZM330.933 52.3285C333.143 52.3285 334.873 52.8991 336.123 54.0394C337.372 55.1631 337.997 56.9522 337.997 59.4067C337.997 61.8602 337.372 63.6493 336.123 64.773C334.873 65.8966 333.143 66.4579 330.933 66.4579C328.741 66.4579 327.011 65.8966 325.741 64.773C324.493 63.6493 323.867 61.8602 323.867 59.4067C323.867 56.9522 324.493 55.1631 325.741 54.0394C327.011 52.8991 328.741 52.3285 330.933 52.3285ZM330.933 52.8471C330.106 52.8471 329.442 53.3917 328.943 54.48C328.462 55.5515 328.221 57.1938 328.221 59.4067C328.221 61.6186 328.462 63.2609 328.943 64.3325C329.442 65.404 330.106 65.9393 330.933 65.9393C331.778 65.9393 332.442 65.4123 332.922 64.3584C333.402 63.2869 333.643 61.6363 333.643 59.4067C333.643 57.1761 333.393 55.5255 332.894 54.4539C332.413 53.3823 331.758 52.8471 330.933 52.8471ZM358.928 52.4365C359.837 52.4365 360.513 52.4092 360.957 52.3547V52.8982C360.584 53.0073 360.246 53.2332 359.943 53.5781C359.64 53.9219 359.373 54.4742 359.143 55.2349L355.592 66.4579C355.397 66.4393 355.103 66.4307 354.711 66.4307C354.337 66.4307 354.053 66.4393 353.857 66.4579L350.226 56.3765L347.264 66.4579C347.086 66.4393 346.801 66.4307 346.409 66.4307C346.018 66.4307 345.724 66.4393 345.528 66.4579L341.311 54.4469C341.098 53.8139 340.858 53.4057 340.591 53.2245C340.324 53.0259 340.047 52.9255 339.763 52.9255V52.3547C340.92 52.4638 342.183 52.5184 343.553 52.5184C344.443 52.5184 345.6 52.4638 347.024 52.3547V52.9255C346.436 52.9255 346.01 52.9713 345.742 53.0619C345.493 53.1525 345.368 53.3697 345.368 53.7135C345.368 53.9492 345.413 54.1937 345.502 54.4469L347.904 62.137L350.814 52.3285L351.802 52.3547L352.762 52.3285L356.233 62.7078L357.914 57.2464C358.164 56.3951 358.288 55.7064 358.288 55.1814C358.288 53.768 357.585 53.0073 356.179 52.8982V52.3547C357.016 52.4092 357.932 52.4365 358.928 52.4365ZM390.972 63.2514C390.972 64.0515 391.103 64.6338 391.361 64.9981C391.639 65.3636 392.101 65.5458 392.748 65.5458V66.0935C392.174 66.0411 391.602 66.0149 391.028 66.0149C389.419 66.0149 388.07 66.1364 386.978 66.3804V64.0336C386.128 65.6506 384.639 66.4579 382.512 66.4579C381.125 66.4579 380.117 66.1197 379.488 65.4411C379.192 65.1112 378.971 64.685 378.823 64.1636C378.693 63.6253 378.629 62.9216 378.629 62.0525V55.4563C378.629 54.6574 378.49 54.0751 378.212 53.7097C377.954 53.3453 377.5 53.162 376.853 53.162V52.6143C377.426 52.6667 377.999 52.6929 378.573 52.6929C380.182 52.6929 381.531 52.5714 382.623 52.3285V63.1216C382.623 63.8515 382.733 64.3992 382.955 64.7636C383.196 65.129 383.641 65.3113 384.287 65.3113C385.027 65.3113 385.656 65.0243 386.173 64.4505C386.71 63.8598 386.978 63.1384 386.978 62.287V55.4563C386.978 54.6574 386.84 54.0751 386.562 53.7097C386.303 53.3453 385.85 53.162 385.203 53.162V52.6143C385.794 52.6667 386.368 52.6929 386.923 52.6929C388.532 52.6929 389.881 52.5714 390.972 52.3285V63.2514ZM406.223 53.0467C405.789 52.5679 405.144 52.3285 404.291 52.3285C403.439 52.3285 402.671 52.5679 401.989 53.0467C401.307 53.5084 400.786 54.1198 400.427 54.8829V52.4086C399.346 52.6566 397.963 52.7806 396.277 52.7806C395.709 52.7806 395.121 52.7538 394.514 52.7004V53.2594C395.197 53.2594 395.671 53.4464 395.936 53.8184C396.201 54.1914 396.333 54.7856 396.333 55.6011V63.9826C396.333 64.7104 396.201 65.2159 395.936 65.5003C395.671 65.7654 395.197 65.8989 394.514 65.8989V66.4579C394.742 66.4579 394.931 66.4484 395.083 66.4312C396.901 66.3777 398.067 66.351 398.578 66.351C399.223 66.351 400.511 66.3777 402.444 66.4312C402.615 66.4484 402.832 66.4579 403.098 66.4579V65.8989C402.17 65.8989 401.487 65.7396 401.051 65.4201C400.634 65.1006 400.427 64.5329 400.427 63.7164V56.6656C400.427 55.9207 400.672 55.1928 401.165 54.4831C401.677 53.7745 402.292 53.3663 403.012 53.2594C403.127 53.2241 403.277 53.2059 403.467 53.2059C403.619 53.2059 403.733 53.2156 403.808 53.2327C402.975 53.7649 402.558 54.4575 402.558 55.3083C402.558 55.8234 402.747 56.2402 403.126 56.5587C403.506 56.8612 404.017 57.0119 404.661 57.0119C405.324 57.0119 405.855 56.8078 406.252 56.3995C406.669 55.9741 406.878 55.4322 406.878 54.776C406.878 54.1027 406.66 53.5255 406.223 53.0467Z" fill="black"/>
<defs>
<filter id="filter0_dd_4003_585" x="0.5" y="0" width="507" height="373" filterUnits="userSpaceOnUse" color-interpolation-filters="sRGB">
<feFlood flood-opacity="0" result="BackgroundImageFix"/>
<feColorMatrix in="SourceAlpha" type="matrix" values="0 0 0 0 0 0 0 0 0 0 0 0 0 0 0 0 0 0 127 0" result="hardAlpha"/>
<feMorphology radius="30" operator="erode" in="SourceAlpha" result="effect1_dropShadow_4003_585"/>
<feOffset dy="30"/>
<feGaussianBlur stdDeviation="30"/>
<feComposite in2="hardAlpha" operator="out"/>
<feColorMatrix type="matrix" values="0 0 0 0 0 0 0 0 0 0 0 0 0 0 0 0 0 0 0.3 0"/>
<feBlend mode="normal" in2="BackgroundImageFix" result="effect1_dropShadow_4003_585"/>
<feColorMatrix in="SourceAlpha" type="matrix" values="0 0 0 0 0 0 0 0 0 0 0 0 0 0 0 0 0 0 127 0" result="hardAlpha"/>
<feMorphology radius="20" operator="erode" in="SourceAlpha" result="effect2_dropShadow_4003_585"/>
<feOffset dy="50"/>
<feGaussianBlur stdDeviation="50"/>
<feComposite in2="hardAlpha" operator="out"/>
<feColorMatrix type="matrix" values="0 0 0 0 0.196078 0 0 0 0 0.196078 0 0 0 0 0.364706 0 0 0 0.25 0"/>
<feBlend mode="normal" in2="effect1_dropShadow_4003_585" result="effect2_dropShadow_4003_585"/>
<feBlend mode="normal" in="SourceGraphic" in2="effect2_dropShadow_4003_585" result="shape"/>
</filter>
</defs>
</svg>
