<svg width="508" height="373" viewBox="0 0 508 373" fill="none" xmlns="http://www.w3.org/2000/svg">
<g filter="url(#filter0_dd_4003_546)">
<rect x="80.5" y="30" width="347" height="213" rx="14" fill="white" fill-opacity="0.01" shape-rendering="crispEdges"/>
</g>
<mask id="mask0_4003_546" style="mask-type:luminance" maskUnits="userSpaceOnUse" x="78" y="27" width="350" height="216">
<path d="M413.212 27.8574H93.5017C85.4136 27.8574 78.8569 34.4141 78.8569 42.5022V228.309C78.8569 236.397 85.4136 242.953 93.5017 242.953H413.212C421.3 242.953 427.857 236.397 427.857 228.309V42.5022C427.857 34.4141 421.3 27.8574 413.212 27.8574Z" fill="white"/>
</mask>
<g mask="url(#mask0_4003_546)">
<path d="M78.8589 230.697C78.8589 237.438 84.5077 242.953 91.4138 242.953H415.303C422.209 242.953 427.859 237.438 427.859 230.697V40.1146C427.859 33.3726 422.209 27.8574 415.303 27.8574H91.4138C84.5077 27.8574 78.8589 33.3726 78.8589 40.1146V230.697Z" fill="#27BB86"/>
<g style="mix-blend-mode:overlay" opacity="0.65">
<path d="M4.99268 132.424C25.0148 104.31 51.6887 85.8949 90.8489 81.6422C212.136 68.4706 318.68 173.033 437.902 115.681" stroke="url(#paint0_linear_4003_546)" stroke-linecap="round"/>
<path d="M5.34619 140.021C25.3683 111.908 52.0423 93.4926 91.2024 89.2399C212.49 76.0683 319.033 180.631 438.255 123.279" stroke="url(#paint1_linear_4003_546)" stroke-linecap="round"/>
<path d="M4.57568 126.588C24.5978 98.4743 51.2717 80.0589 90.4319 75.8062C211.719 62.6347 318.263 167.197 437.485 109.845" stroke="url(#paint2_linear_4003_546)" stroke-linecap="round"/>
<path d="M2.62646 119.521C22.6486 91.4078 49.3225 72.9925 88.4827 68.7398C209.77 55.5683 316.313 160.13 435.536 102.779" stroke="url(#paint3_linear_4003_546)" stroke-linecap="round"/>
<path d="M1.80029 113.281C21.8224 85.1675 48.4964 66.7523 87.6565 62.4996C208.944 49.328 315.487 153.891 434.709 96.5387" stroke="url(#paint4_linear_4003_546)" stroke-linecap="round"/>
<path d="M0.972168 107.043C20.9943 78.9292 47.6682 60.514 86.8284 56.2613C208.116 43.0897 314.659 147.652 433.881 90.3004" stroke="url(#paint5_linear_4003_546)" stroke-linecap="round"/>
<path d="M9.41846 165.722C29.4406 137.609 56.1145 119.194 95.2747 114.941C216.562 101.769 323.105 206.332 442.328 148.98" stroke="url(#paint6_linear_4003_546)" stroke-linecap="round"/>
<path d="M9.77197 173.32C29.7941 145.206 56.468 126.791 95.6282 122.539C216.916 109.367 323.459 213.929 442.681 156.577" stroke="url(#paint7_linear_4003_546)" stroke-linecap="round"/>
<path d="M9.00146 159.887C29.0236 131.773 55.6975 113.358 94.8577 109.105C216.145 95.9336 322.688 200.496 441.911 143.144" stroke="url(#paint8_linear_4003_546)" stroke-linecap="round"/>
<path d="M7.05225 152.82C27.0742 124.707 53.7482 106.291 92.9084 102.039C214.196 88.8672 320.739 193.429 439.961 136.077" stroke="url(#paint9_linear_4003_546)" stroke-linecap="round"/>
<path d="M6.22607 146.579C26.2482 118.466 52.9221 100.051 92.0823 95.7985C213.37 82.6269 319.913 187.189 439.135 129.837" stroke="url(#paint10_linear_4003_546)" stroke-linecap="round"/>
<path d="M5.39795 140.342C25.4199 112.228 52.094 93.8129 91.2542 89.5602C212.542 76.3886 319.085 180.951 438.307 123.599" stroke="url(#paint11_linear_4003_546)" stroke-linecap="round"/>
</g>
<path d="M106.857 215.058V205.857H108.087V213.981H112.675V215.058H106.857ZM118.757 213.597C118.757 214.097 118.795 214.635 118.86 215.058H117.72C117.693 214.829 117.676 214.598 117.668 214.366C117.258 214.853 116.515 215.173 115.643 215.173C114.426 215.173 113.426 214.443 113.426 213.238C113.426 211.905 114.477 211.341 115.976 211.047L117.642 210.714V210.304C117.642 209.56 117.104 209.24 116.284 209.24C115.4 209.24 114.913 209.612 114.824 210.329H113.696C113.798 208.907 114.913 208.228 116.348 208.228C117.834 208.228 118.758 208.907 118.758 210.137L118.757 213.597ZM117.642 212.777V211.611L116.284 211.892C115.259 212.098 114.58 212.379 114.58 213.187C114.58 213.84 115.067 214.237 115.797 214.237C116.784 214.237 117.642 213.635 117.642 212.777ZM121.313 211.713C121.313 213.238 122.133 214.186 123.325 214.186C124.247 214.186 124.798 213.597 124.991 212.764L126.016 213.238C125.696 214.353 124.722 215.199 123.325 215.199C121.454 215.199 120.16 213.776 120.16 211.713C120.16 209.637 121.454 208.228 123.325 208.228C124.722 208.228 125.67 209.035 125.99 210.15L124.99 210.65C124.798 209.829 124.248 209.227 123.325 209.227C122.133 209.227 121.313 210.175 121.313 211.713ZM127.279 215.058V205.857H128.432V209.266C128.654 208.942 128.953 208.678 129.301 208.497C129.65 208.316 130.038 208.223 130.431 208.228C131.853 208.228 132.661 209.214 132.661 210.637V215.058H131.507V210.944C131.507 210.009 131.11 209.304 130.11 209.304C129.277 209.304 128.432 209.945 128.432 211.06V215.058H127.277H127.279ZM135.665 205.857V215.058H134.511V205.857H135.665ZM142.421 213.597C142.421 214.097 142.459 214.635 142.523 215.058H141.383C141.357 214.829 141.34 214.598 141.332 214.366C140.922 214.853 140.178 215.173 139.307 215.173C138.09 215.173 137.09 214.443 137.09 213.238C137.09 211.905 138.14 211.341 139.64 211.047L141.306 210.714V210.304C141.306 209.56 140.768 209.24 139.948 209.24C139.063 209.24 138.577 209.612 138.487 210.329H137.359C137.462 208.907 138.577 208.228 140.012 208.228C141.498 208.228 142.421 208.907 142.421 210.137V213.597ZM141.306 212.777V211.611L139.948 211.892C138.923 212.098 138.243 212.379 138.243 213.187C138.243 213.84 138.73 214.237 139.461 214.237C140.447 214.237 141.306 213.635 141.306 212.777ZM144.285 215.058V208.356H145.438V209.266C145.66 208.942 145.959 208.677 146.308 208.496C146.657 208.315 147.045 208.223 147.438 208.228C148.859 208.228 149.667 209.214 149.667 210.637V215.058H148.513V210.944C148.513 210.009 148.116 209.304 147.117 209.304C146.284 209.304 145.438 209.945 145.438 211.06V215.058H144.285ZM154.272 215.058V205.857H157.668C159.616 205.857 160.654 206.716 160.654 208.253C160.654 209.432 159.936 210.022 159.231 210.265C160.269 210.547 160.961 211.354 160.961 212.52C160.961 214.122 159.795 215.058 157.937 215.058H154.272ZM155.464 209.804H157.565C158.795 209.804 159.475 209.33 159.475 208.356C159.475 207.369 158.795 206.895 157.565 206.895H155.464V209.804ZM155.464 210.855V214.02H157.886C159.116 214.02 159.782 213.379 159.782 212.431C159.782 211.495 159.116 210.855 157.886 210.855H155.464ZM165.877 208.33V209.496C165.692 209.46 165.503 209.442 165.314 209.445C164.34 209.445 163.558 210.214 163.558 211.393V215.058H162.405V208.356H163.557V209.496C163.852 208.817 164.506 208.305 165.415 208.305C165.595 208.305 165.761 208.317 165.877 208.33ZM172.639 211.713C172.639 213.789 171.357 215.199 169.525 215.199C167.692 215.199 166.411 213.789 166.411 211.713C166.411 209.637 167.692 208.228 169.525 208.228C171.357 208.228 172.639 209.637 172.639 211.713ZM167.577 211.713C167.577 213.238 168.346 214.212 169.525 214.212C170.704 214.212 171.473 213.238 171.473 211.713C171.473 210.175 170.703 209.202 169.525 209.202C168.346 209.202 167.577 210.175 167.577 211.713ZM177.171 208.356H178.145L179.529 213.353L180.926 208.356H182.079L180.041 215.058H179.029L177.632 210.086L176.236 215.058H175.223L173.186 208.356H174.378L175.788 213.341L177.171 208.356ZM183.203 215.058V208.356H184.356V209.266C184.578 208.942 184.877 208.678 185.225 208.497C185.574 208.316 185.962 208.224 186.355 208.228C187.778 208.228 188.585 209.214 188.585 210.637V215.058H187.432V210.944C187.432 210.009 187.034 209.304 186.035 209.304C185.202 209.304 184.356 209.945 184.356 211.06V215.058H183.203Z" fill="white"/>
<path fill-rule="evenodd" clip-rule="evenodd" d="M269.195 59.668C269.195 60.0589 268.874 60.3799 268.483 60.3799H257.186C256.794 60.3799 256.473 60.0589 256.473 59.668C256.473 59.2764 256.794 58.9554 257.186 58.9554H268.483C268.874 58.9554 269.195 59.2764 269.195 59.668ZM270.005 62.5028C270.005 62.8937 269.684 63.2148 269.293 63.2148H261.221C260.83 63.2148 260.509 62.8937 260.509 62.5028C260.509 62.1112 260.83 61.7902 261.221 61.7902H269.293C269.684 61.7902 270.005 62.1112 270.005 62.5028ZM269.293 57.5451H262.031C261.64 57.5451 261.319 57.2241 261.319 56.8331C261.319 56.4415 261.64 56.1205 262.031 56.1205H269.293C269.684 56.1205 270.005 56.4415 270.005 56.8331C270.005 57.2241 269.684 57.5451 269.293 57.5451ZM277.657 59.668C277.657 61.6226 276.08 63.2005 274.124 63.2005C272.17 63.2005 270.592 61.609 270.592 59.668C270.592 57.7263 272.17 56.1348 274.124 56.1348C276.08 56.1348 277.657 57.7263 277.657 59.668ZM272.016 59.668C272.016 60.8407 272.966 61.7902 274.138 61.7902C275.311 61.7902 276.261 60.8407 276.261 59.668C276.261 58.4945 275.311 57.5451 274.138 57.5451C272.966 57.5451 272.016 58.4945 272.016 59.668ZM274.138 53.3C277.644 53.3 280.492 56.1626 280.492 59.668C280.492 63.1727 277.644 66.0353 274.138 66.0353H264.461C264.07 66.0353 263.749 65.7143 263.749 65.3234C263.749 64.9325 264.07 64.6115 264.461 64.6115H274.138C276.861 64.6115 279.082 62.3908 279.082 59.6537C279.082 56.9166 276.861 54.696 274.138 54.696H258.805C258.414 54.696 258.093 54.375 258.093 53.9841C258.093 53.5931 258.414 53.2721 258.805 53.2721H274.138V53.3ZM298.702 62.0277V57.3218C298.702 54.5006 300.601 52.5181 303.339 52.5181C306.076 52.5181 307.975 54.5006 307.975 57.3218V62.0277C307.975 64.8347 306.061 66.7894 303.339 66.7894C300.615 66.7894 298.702 64.8205 298.702 62.0277ZM305.28 62.1255V57.2241C305.28 55.674 304.358 55.1012 303.339 55.1012C302.375 55.1012 301.425 55.6177 301.425 57.1963V62.0977C301.425 63.6478 302.333 64.1921 303.339 64.1921C304.26 64.1921 305.28 63.7034 305.28 62.1112V62.1255ZM314.873 55.1012C313.937 55.1012 312.96 55.6177 312.96 57.1963V62.0977C312.96 63.7312 313.937 64.2199 314.873 64.2199C316.13 64.2199 316.814 63.6057 316.814 61.5947V61.4136H319.523C319.523 64.9461 318.015 66.8036 314.887 66.8036C312.15 66.8036 310.251 64.8347 310.251 62.0135V57.2655C310.251 54.4591 312.15 52.5039 314.887 52.5039C317.959 52.5039 319.523 54.5291 319.523 57.7406H316.814V57.5451C316.814 55.5063 315.823 55.0876 314.873 55.0876V55.1012ZM328.418 66.5939L325.681 60.8408H324.662V66.5939H321.953V52.755H324.662V58.4525H325.681L328.418 52.755H331.449L328 59.6259L331.449 66.5939H328.418ZM336.49 55.3665V58.5088H340.233V60.8686H336.49V64.0108H341.545V66.5939H333.795V52.755H341.545V55.3665H336.49ZM348.807 55.3665V66.5939H346.098V55.3665H343.221V52.755H351.683V55.3665H348.807ZM370.243 66.5939V52.755H372.952V66.5939H370.243ZM376.121 52.755H380.66C383.397 52.755 385.296 54.4449 385.296 57.8247V61.4692C385.296 64.8069 383.397 66.5939 380.66 66.5939H376.121V52.755ZM378.831 64.0244H380.353C381.652 64.0244 382.629 63.5079 382.629 60.8129V58.1179C382.629 56.6234 382.238 55.353 380.353 55.353H378.831V64.0244ZM390.771 55.3665V58.5088H394.513V60.8686H390.771V64.0108H395.825V66.5939H388.076V52.755H395.825V55.3665H390.771ZM397.683 56.5678C397.683 54.0397 399.484 52.5039 402.221 52.5039C404.958 52.5039 406.732 54.2915 406.732 57.1399H404.064C404.064 55.674 403.338 54.9756 402.18 54.9756C401.021 54.9756 400.378 55.5199 400.378 56.5678C400.378 59.3185 406.899 57.6849 406.899 62.6284C406.899 65.2535 405.014 66.8314 402.221 66.8314C399.428 66.8314 397.502 65.0024 397.502 62.042H400.21C400.21 63.6477 401.034 64.3176 402.221 64.3176C403.408 64.3176 404.204 63.7876 404.204 62.6562C404.204 60.0311 397.683 61.4828 397.683 56.5678ZM294.443 62.3908L296.775 66.5939H293.815L291.957 63.0193L291.622 62.4187H290.156V66.5939H287.447V52.755H291.832C295.728 52.755 296.454 55.995 296.454 57.7548C296.454 59.7094 295.476 61.1197 294.08 61.7766C294.206 61.9999 294.331 62.2232 294.429 62.3908H294.443ZM290.156 55.353V59.8635H291.511C292.641 59.8635 293.787 59.3606 293.787 57.5872C293.787 55.7995 292.698 55.353 291.511 55.353H290.156ZM365.48 62.3908L367.813 66.5939H364.853L362.995 63.0193L362.66 62.4187H361.194V66.5939H358.498V52.755H362.883C366.779 52.755 367.505 55.995 367.505 57.7548C367.505 59.7094 366.528 61.1197 365.131 61.7766C365.257 61.9999 365.383 62.2232 365.48 62.3908ZM361.194 55.353V59.8635H362.548C363.679 59.8635 364.824 59.3606 364.824 57.5872C364.824 55.7995 363.735 55.353 362.548 55.353H361.194Z" fill="white"/>
<path d="M371.328 200.285L366.453 223.704H360.532L365.408 200.285H371.328ZM395.882 215.417L399.017 206.59L400.758 215.417H395.882ZM402.499 223.704H407.898L403.196 200.285H398.146C397.101 200.285 396.056 201.005 395.708 202.086L387.001 223.704H393.096L394.315 220.281H401.803L402.499 223.704ZM387.175 215.958C387.175 209.833 378.991 209.472 378.991 206.77C379.165 205.509 380.21 204.788 381.429 204.788C383.344 204.608 385.434 204.969 387.175 205.869L388.22 200.825C386.479 200.105 384.563 199.744 382.822 199.744C377.075 199.744 372.896 202.987 372.896 207.491C372.896 210.914 375.856 212.715 377.946 213.796C380.21 214.877 381.08 215.598 380.906 216.678C380.906 218.3 379.165 219.02 377.423 219.02C375.334 219.02 373.244 218.48 371.328 217.579L370.284 222.623C372.373 223.524 374.637 223.884 376.727 223.884C383.17 224.065 387.175 220.822 387.175 215.958ZM362.97 200.285L353.566 223.704H347.297L342.595 204.969C342.595 204.068 341.899 203.347 341.202 202.987C339.461 202.086 337.545 201.366 335.456 201.005L335.63 200.285H345.556C346.949 200.285 347.994 201.366 348.168 202.627L350.606 216.138L356.875 200.285H362.97Z" fill="white"/>
</g>
<defs>
<filter id="filter0_dd_4003_546" x="0.5" y="0" width="507" height="373" filterUnits="userSpaceOnUse" color-interpolation-filters="sRGB">
<feFlood flood-opacity="0" result="BackgroundImageFix"/>
<feColorMatrix in="SourceAlpha" type="matrix" values="0 0 0 0 0 0 0 0 0 0 0 0 0 0 0 0 0 0 127 0" result="hardAlpha"/>
<feMorphology radius="30" operator="erode" in="SourceAlpha" result="effect1_dropShadow_4003_546"/>
<feOffset dy="30"/>
<feGaussianBlur stdDeviation="30"/>
<feComposite in2="hardAlpha" operator="out"/>
<feColorMatrix type="matrix" values="0 0 0 0 0 0 0 0 0 0 0 0 0 0 0 0 0 0 0.3 0"/>
<feBlend mode="normal" in2="BackgroundImageFix" result="effect1_dropShadow_4003_546"/>
<feColorMatrix in="SourceAlpha" type="matrix" values="0 0 0 0 0 0 0 0 0 0 0 0 0 0 0 0 0 0 127 0" result="hardAlpha"/>
<feMorphology radius="20" operator="erode" in="SourceAlpha" result="effect2_dropShadow_4003_546"/>
<feOffset dy="50"/>
<feGaussianBlur stdDeviation="50"/>
<feComposite in2="hardAlpha" operator="out"/>
<feColorMatrix type="matrix" values="0 0 0 0 0.196078 0 0 0 0 0.196078 0 0 0 0 0.364706 0 0 0 0.25 0"/>
<feBlend mode="normal" in2="effect1_dropShadow_4003_546" result="effect2_dropShadow_4003_546"/>
<feBlend mode="normal" in="SourceGraphic" in2="effect2_dropShadow_4003_546" result="shape"/>
</filter>
<linearGradient id="paint0_linear_4003_546" x1="857.401" y1="-2.2956" x2="846.289" y2="201.687" gradientUnits="userSpaceOnUse">
<stop offset="0.614583" stop-color="#27BB86"/>
<stop offset="1" stop-color="white"/>
</linearGradient>
<linearGradient id="paint1_linear_4003_546" x1="857.755" y1="5.30206" x2="846.642" y2="209.285" gradientUnits="userSpaceOnUse">
<stop offset="0.614583" stop-color="#27BB86"/>
<stop offset="1" stop-color="white"/>
</linearGradient>
<linearGradient id="paint2_linear_4003_546" x1="856.984" y1="-8.13156" x2="845.872" y2="195.851" gradientUnits="userSpaceOnUse">
<stop offset="0.614583" stop-color="#27BB86"/>
<stop offset="1" stop-color="white"/>
</linearGradient>
<linearGradient id="paint3_linear_4003_546" x1="855.035" y1="-15.1979" x2="843.923" y2="188.784" gradientUnits="userSpaceOnUse">
<stop offset="0.614583" stop-color="#27BB86"/>
<stop offset="1" stop-color="white"/>
</linearGradient>
<linearGradient id="paint4_linear_4003_546" x1="854.209" y1="-21.4382" x2="843.096" y2="182.545" gradientUnits="userSpaceOnUse">
<stop offset="0.614583" stop-color="#27BB86"/>
<stop offset="1" stop-color="white"/>
</linearGradient>
<linearGradient id="paint5_linear_4003_546" x1="853.381" y1="-27.6765" x2="842.268" y2="176.306" gradientUnits="userSpaceOnUse">
<stop offset="0.614583" stop-color="#27BB86"/>
<stop offset="1" stop-color="white"/>
</linearGradient>
<linearGradient id="paint6_linear_4003_546" x1="861.827" y1="31.0032" x2="850.715" y2="234.986" gradientUnits="userSpaceOnUse">
<stop offset="0.614583" stop-color="#27BB86"/>
<stop offset="1" stop-color="white"/>
</linearGradient>
<linearGradient id="paint7_linear_4003_546" x1="862.18" y1="38.6009" x2="851.068" y2="242.583" gradientUnits="userSpaceOnUse">
<stop offset="0.614583" stop-color="#27BB86"/>
<stop offset="1" stop-color="white"/>
</linearGradient>
<linearGradient id="paint8_linear_4003_546" x1="861.41" y1="25.1673" x2="850.298" y2="229.15" gradientUnits="userSpaceOnUse">
<stop offset="0.614583" stop-color="#27BB86"/>
<stop offset="1" stop-color="white"/>
</linearGradient>
<linearGradient id="paint9_linear_4003_546" x1="859.461" y1="18.1009" x2="848.348" y2="222.083" gradientUnits="userSpaceOnUse">
<stop offset="0.614583" stop-color="#27BB86"/>
<stop offset="1" stop-color="white"/>
</linearGradient>
<linearGradient id="paint10_linear_4003_546" x1="858.635" y1="11.8607" x2="847.522" y2="215.843" gradientUnits="userSpaceOnUse">
<stop offset="0.614583" stop-color="#27BB86"/>
<stop offset="1" stop-color="white"/>
</linearGradient>
<linearGradient id="paint11_linear_4003_546" x1="857.806" y1="5.62236" x2="846.694" y2="209.605" gradientUnits="userSpaceOnUse">
<stop offset="0.614583" stop-color="#27BB86"/>
<stop offset="1" stop-color="white"/>
</linearGradient>
</defs>
</svg>
