<svg width="201" height="41" viewBox="0 0 201 41" fill="none" xmlns="http://www.w3.org/2000/svg">
<path fill-rule="evenodd" clip-rule="evenodd" d="M111.723 34.0538C106.323 38.0438 98.5131 40.1438 91.7831 40.1438C82.7877 40.1921 74.0979 36.883 67.4131 30.8638C66.9131 30.4138 67.3631 29.7838 67.9731 30.1438C75.3953 34.3824 83.7958 36.6092 92.3431 36.6038C98.3231 36.6038 104.893 35.3638 110.943 32.8038C111.843 32.4138 112.613 33.4038 111.723 34.0538Z" fill="#EFA82E"/>
<path fill-rule="evenodd" clip-rule="evenodd" d="M113.963 31.5033C113.273 30.6233 109.403 31.0833 107.663 31.2933C107.143 31.3533 107.063 30.8933 107.533 30.5633C110.623 28.3933 115.683 29.0233 116.263 29.7433C116.863 30.4833 116.113 35.5433 113.223 37.9533C112.773 38.3333 112.353 38.1333 112.553 37.6433C113.203 36.0133 114.653 32.3833 113.963 31.5033Z" fill="#EFA82E"/>
<path fill-rule="evenodd" clip-rule="evenodd" d="M107.793 15.2731V13.1731C107.793 12.8431 108.033 12.6331 108.323 12.6331H117.773C118.073 12.6331 118.313 12.8531 118.313 13.1631V14.9631C118.313 15.2631 118.053 15.6631 117.603 16.2931L112.703 23.2631C114.523 23.2231 116.443 23.4931 118.103 24.4231C118.463 24.6231 118.573 24.9331 118.603 25.2431V27.4831C118.603 27.7931 118.263 28.1531 117.903 27.9631C116.359 27.1707 114.647 26.7591 112.911 26.7626C111.175 26.7661 109.465 27.1845 107.923 27.9831C107.593 28.1531 107.253 27.8031 107.253 27.4931V25.3631C107.253 25.0231 107.253 24.4331 107.603 23.9131L113.273 15.8031H108.333C108.263 15.8045 108.193 15.7917 108.127 15.7657C108.062 15.7396 108.002 15.7008 107.952 15.6515C107.902 15.6021 107.862 15.5432 107.835 15.4783C107.807 15.4133 107.793 15.3436 107.793 15.2731ZM73.3433 28.4031H70.4633C70.3368 28.3945 70.2175 28.3417 70.1261 28.2539C70.0347 28.1662 69.977 28.0491 69.9633 27.9231V13.2031C69.9633 12.9031 70.2033 12.6731 70.5133 12.6731H73.1833C73.4633 12.6831 73.6833 12.9031 73.7033 13.1731V15.0931H73.7633C74.4633 13.2331 75.7633 12.3631 77.5433 12.3631C79.3433 12.3631 80.4633 13.2331 81.2733 15.0931C81.559 14.2772 82.0965 13.5732 82.8082 13.0825C83.5199 12.5919 84.3691 12.34 85.2333 12.3631C86.4333 12.3631 87.7533 12.8631 88.5633 13.9731C89.4633 15.2131 89.2833 17.0131 89.2833 18.5931V27.8731C89.2833 28.1731 89.0333 28.4031 88.7333 28.4031H85.8633C85.7269 28.3982 85.5975 28.3418 85.5011 28.2453C85.4046 28.1489 85.3482 28.0195 85.3433 27.8831V20.0831C85.3433 19.4531 85.4033 17.9031 85.2633 17.3231C85.0433 16.3231 84.4033 16.0531 83.5733 16.0531C82.8733 16.0531 82.1533 16.5131 81.8533 17.2531C81.5633 18.0031 81.5933 19.2431 81.5933 20.0731V27.8731C81.5933 28.1731 81.3433 28.4031 81.0333 28.4031H78.1633C78.0287 28.3957 77.9018 28.3383 77.8074 28.2421C77.713 28.1458 77.658 28.0178 77.6533 27.8831V20.0831C77.6533 18.4331 77.9133 16.0231 75.8833 16.0231C73.8133 16.0231 73.8933 18.3731 73.8933 20.0731V27.8731C73.8933 28.1731 73.6433 28.4031 73.3433 28.4031ZM126.453 15.3731C124.343 15.3731 124.203 18.2531 124.203 20.0431C124.203 21.8431 124.183 25.6831 126.433 25.6831C128.653 25.6831 128.763 22.5831 128.763 20.6931C128.763 19.4531 128.713 17.9731 128.333 16.7931C128.013 15.7731 127.373 15.3731 126.453 15.3731ZM126.433 12.3631C130.693 12.3631 133.003 16.0231 133.003 20.6631C133.003 25.1631 130.453 28.7131 126.433 28.7131C122.243 28.7131 119.973 25.0631 119.973 20.5131C119.973 15.9231 122.273 12.3631 126.433 12.3631ZM138.533 28.4031H135.663C135.529 28.3957 135.402 28.3383 135.307 28.2421C135.213 28.1458 135.158 28.0178 135.153 27.8831V13.1431C135.17 13.0097 135.236 12.8872 135.337 12.7987C135.438 12.7103 135.569 12.662 135.703 12.6631H138.363C138.613 12.6731 138.823 12.8431 138.873 13.0731V15.3231H138.923C139.733 13.3131 140.863 12.3531 142.843 12.3531C144.133 12.3531 145.393 12.8231 146.193 14.0931C146.943 15.2631 146.943 17.2531 146.943 18.6731V27.9331C146.922 28.0629 146.854 28.1807 146.754 28.2651C146.653 28.3495 146.525 28.3949 146.393 28.3931H143.513C143.39 28.3853 143.273 28.3353 143.182 28.2516C143.091 28.1679 143.031 28.0555 143.013 27.9331V19.9331C143.013 18.3331 143.193 15.9831 141.213 15.9831C140.513 15.9831 139.863 16.4431 139.543 17.1531C139.143 18.0531 139.083 18.9531 139.083 19.9431V27.8631C139.083 28.1631 138.833 28.3931 138.533 28.3931M103.153 28.3631C103.059 28.441 102.944 28.4885 102.823 28.4993C102.701 28.51 102.579 28.4834 102.473 28.4231C101.513 27.6331 101.343 27.2731 100.823 26.5231C99.2533 28.1231 98.1233 28.6031 96.0933 28.6031C93.6733 28.6031 91.7933 27.1031 91.7933 24.1331C91.7587 23.1315 92.0341 22.1437 92.5817 21.3043C93.1294 20.465 93.9226 19.815 94.8533 19.4431C96.4133 18.7631 98.5933 18.6431 100.253 18.4431V18.0831C100.253 17.3931 100.313 16.5831 99.9033 16.0031C99.5533 15.4731 98.8833 15.2531 98.2933 15.2531C97.1933 15.2531 96.2233 15.8131 95.9833 16.9731C95.9333 17.2331 95.7433 17.4931 95.4833 17.5031L92.7033 17.2031C92.4633 17.1531 92.2033 16.9631 92.2733 16.6031C92.9133 13.2331 95.9633 12.2031 98.6933 12.2031C100.093 12.2031 101.923 12.5831 103.023 13.6431C104.423 14.9431 104.283 16.6831 104.283 18.5731V23.0431C104.283 24.3831 104.843 24.9731 105.373 25.7031C105.553 25.9631 105.593 26.2731 105.363 26.4631C104.773 26.9531 103.733 27.8631 103.163 28.3631H103.153ZM100.253 21.3631C100.253 22.4831 100.283 23.4131 99.7133 24.4131C99.2633 25.2131 98.5333 25.7131 97.7333 25.7131C96.6333 25.7131 95.9833 24.8731 95.9833 23.6331C95.9833 21.1931 98.1833 20.7531 100.253 20.7531V21.3631ZM65.4933 28.3631C65.3994 28.441 65.2841 28.4885 65.1626 28.4993C65.0411 28.51 64.9193 28.4834 64.8133 28.4231C63.8633 27.6331 63.6933 27.2731 63.1633 26.5231C61.5933 28.1231 60.4733 28.6031 58.4333 28.6031C56.0133 28.6031 54.1333 27.1031 54.1333 24.1331C54.0988 23.1315 54.3741 22.1437 54.9217 21.3043C55.4694 20.465 56.2626 19.815 57.1933 19.4431C58.7533 18.7631 60.9333 18.6431 62.5933 18.4431V18.0831C62.5933 17.3931 62.6533 16.5831 62.2433 16.0031C61.9033 15.4731 61.2233 15.2531 60.6433 15.2531C59.5433 15.2531 58.5633 15.8131 58.3233 16.9731C58.2733 17.2331 58.0833 17.4931 57.8233 17.5031L55.0433 17.2031C54.8133 17.1531 54.5433 16.9631 54.6133 16.6031C55.2533 13.2331 58.3133 12.2031 61.0433 12.2031C62.4433 12.2031 64.2633 12.5831 65.3633 13.6431C66.7633 14.9431 66.6333 16.6831 66.6333 18.5731V23.0431C66.6333 24.3831 67.1833 24.9731 67.7133 25.7031C67.8933 25.9631 67.9333 26.2731 67.7033 26.4631C67.1133 26.9531 66.0733 27.8631 65.5033 28.3631H65.4933ZM62.5933 21.3631C62.5933 22.4831 62.6233 23.4131 62.0633 24.4131C61.6033 25.2131 60.8833 25.7131 60.0633 25.7131C58.9633 25.7131 58.3233 24.8731 58.3233 23.6331C58.3233 21.1931 60.5233 20.7531 62.6033 20.7531V21.3631H62.5933Z" fill="#1B1A19"/>
</svg>
