<svg width="542" height="668" viewBox="0 0 542 668" fill="none" xmlns="http://www.w3.org/2000/svg">
<path d="M38.4121 306.143V248.143C38.4121 234.809 45.0788 228.143 58.4121 228.143H104.412" stroke="url(#paint0_linear_4003_2633)" stroke-width="2" stroke-dasharray="136.46 136.46"/>
<rect x="17.6328" y="306.633" width="41.55" height="41.55" rx="7.5" fill="#F6F9FC"/>
<rect x="17.6328" y="306.633" width="41.55" height="41.55" rx="7.5" stroke="#C4CCD8"/>
<path d="M43.976 322.59L39.8659 335.143L39.8556 335.19L39.8431 335.237L39.8278 335.281C39.8239 335.295 39.8194 335.308 39.8141 335.321L39.7818 335.4L39.744 335.475L39.7318 335.497L39.6894 335.568L39.6419 335.635L39.6267 335.655L39.5737 335.718L39.517 335.778L39.5032 335.789C39.4634 335.828 39.4206 335.864 39.3753 335.897L39.301 335.944L39.2229 335.985L39.2076 335.994L39.1323 336.027L39.0553 336.057H39.0324L38.9524 336.08C38.9387 336.083 38.9292 336.067 38.9382 336.056L38.9534 336.038C39.1478 335.789 39.2379 335.473 39.2018 335.157C39.1654 334.838 38.9912 334.632 38.7401 334.447L38.6698 334.397L33.5319 330.66L33.4659 330.608C33.4424 330.589 33.4198 330.568 33.3981 330.547C33.3935 330.543 33.3884 330.538 33.3834 330.532C33.3684 330.517 33.354 330.502 33.3401 330.486L33.3209 330.464C33.3096 330.451 33.2988 330.438 33.2882 330.424C33.2804 330.414 33.2724 330.403 33.2646 330.393L33.2514 330.374L33.2388 330.356C33.2318 330.345 33.2248 330.334 33.218 330.323C33.2099 330.311 33.2023 330.298 33.1948 330.285C33.1897 330.276 33.1848 330.267 33.1799 330.258C33.171 330.242 33.1624 330.225 33.1542 330.208L33.1418 330.181C33.1352 330.167 33.1289 330.152 33.1228 330.137C33.1187 330.127 33.1148 330.117 33.111 330.106C33.1043 330.089 33.098 330.07 33.0922 330.052C33.0896 330.044 33.0873 330.037 33.085 330.029C33.08 330.012 33.0753 329.995 33.071 329.978L33.0634 329.946C33.06 329.931 33.057 329.916 33.0542 329.901L33.0483 329.866C33.0414 329.821 33.037 329.776 33.0352 329.73C33.0337 329.694 33.0339 329.658 33.0357 329.621C33.0386 329.565 33.0451 329.511 33.0552 329.457C33.0581 329.442 33.0613 329.427 33.0648 329.412C33.0675 329.4 33.0702 329.389 33.0732 329.377L33.0846 329.337C33.0888 329.323 33.0933 329.309 33.098 329.295L33.1012 329.285C33.1184 329.164 33.1533 329.044 33.207 328.93L33.2509 328.845L36.7708 322.571M43.976 322.59L43.9781 322.589C44.1411 322.089 43.9621 321.541 43.5354 321.233L40.3619 318.95C40.0845 318.751 39.7356 318.678 39.4016 318.75L39.3117 318.773C39.0162 318.861 38.7641 319.059 38.609 319.328L36.7686 322.57M43.976 322.59L43.9837 322.571" stroke="#C4CCD8" stroke-width="1.83333"/>
<path d="M46.3865 322.57H30.4287C29.761 322.57 29.2197 323.112 29.2197 323.779V334.901C29.2197 335.569 29.761 336.11 30.4287 336.11H46.3865C47.0542 336.11 47.5954 335.569 47.5954 334.901V323.779C47.5954 323.112 47.0542 322.57 46.3865 322.57Z" stroke="#C4CCD8" stroke-width="1.83333"/>
<path d="M38.4121 496.143V432.143C38.4121 418.809 45.0788 412.143 58.4121 412.143H104.412" stroke="url(#paint1_linear_4003_2633)" stroke-width="2" stroke-dasharray="142.46 142.46"/>
<g filter="url(#filter0_dd_4003_2633)">
<rect x="14.4121" y="493.412" width="48" height="48" rx="8" fill="white"/>
<path d="M34.3016 506.508C32.4779 506.624 30.7692 507.438 29.5314 508.783C28.2937 510.127 27.6224 511.897 27.6576 513.724C27.6927 515.551 28.4315 517.294 29.7201 518.59C31.0086 519.885 32.7475 520.634 34.5743 520.679H40.3266C41.0736 520.679 41.6789 520.079 41.6789 519.327V513.596C41.6804 512.64 41.4885 511.694 41.1146 510.814C40.7407 509.935 40.1926 509.14 39.5033 508.477C38.8141 507.815 37.9978 507.299 37.1039 506.961C36.2099 506.622 35.2567 506.468 34.3016 506.508Z" fill="url(#paint2_linear_4003_2633)"/>
<path d="M42.513 528.306C44.3367 528.19 46.0454 527.376 47.2832 526.031C48.521 524.687 49.1922 522.917 49.1571 521.09C49.1219 519.263 48.3831 517.52 47.0945 516.224C45.806 514.928 44.0671 514.18 42.2404 514.135H36.488C36.1293 514.135 35.7854 514.277 35.5318 514.531C35.2782 514.784 35.1358 515.128 35.1358 515.487V521.218C35.1342 522.173 35.3261 523.12 35.7 523.999C36.0739 524.879 36.622 525.674 37.3113 526.336C38.0006 526.999 38.8168 527.515 39.7107 527.853C40.6047 528.192 41.5579 528.346 42.513 528.306Z" fill="#0073E6"/>
<path d="M41.6787 514.136V519.327C41.6787 519.686 41.5363 520.03 41.2827 520.283C41.0291 520.537 40.6852 520.679 40.3265 520.679H35.1357V515.489C35.135 515.145 35.2655 514.813 35.5005 514.562C35.7355 514.311 36.0574 514.159 36.4007 514.136L36.488 514.131H41.6787V514.136Z" fill="url(#paint3_linear_4003_2633)"/>
</g>
<path d="M503.882 253.672V264.141C503.882 277.475 497.215 284.142 483.881 284.142H437.862" stroke="url(#paint4_linear_4003_2633)" stroke-width="2" stroke-dasharray="88.95 88.95"/>
<rect x="483.103" y="211.633" width="41.55" height="41.55" rx="7.5" fill="#F6F9FC"/>
<rect x="483.103" y="211.633" width="41.55" height="41.55" rx="7.5" stroke="#C4CCD8"/>
<path d="M508.23 229.747C508.23 229.574 508.194 229.403 508.124 229.245L506.228 224.919C506.032 224.473 505.596 224.186 505.114 224.186H495.425C494.752 224.186 494.206 224.739 494.206 225.421V234.072C494.206 234.754 494.752 235.308 495.425 235.308H505.114C505.596 235.308 506.032 235.02 506.228 234.574L508.124 230.249C508.194 230.091 508.23 229.92 508.23 229.747Z" stroke="#C4CCD8" stroke-width="1.83333"/>
<path d="M499.525 235.067C499.525 235.24 499.561 235.411 499.631 235.569L501.527 239.894C501.723 240.34 502.159 240.628 502.641 240.628H512.33C513.003 240.628 513.549 240.075 513.549 239.392V230.742C513.549 230.059 513.003 229.506 512.33 229.506H502.641C502.159 229.506 501.723 229.793 501.527 230.24L499.631 234.565C499.561 234.723 499.525 234.894 499.525 235.067Z" stroke="#C4CCD8" stroke-width="1.83333"/>
<path d="M503.882 411.143V304.143C503.882 290.809 497.215 284.143 483.881 284.143H437.862" stroke="url(#paint5_linear_4003_2633)" stroke-width="2" stroke-dasharray="185.48 185.48"/>
<rect x="483.103" y="411.633" width="41.55" height="41.55" rx="7.5" fill="#F6F9FC"/>
<rect x="483.103" y="411.633" width="41.55" height="41.55" rx="7.5" stroke="#C4CCD8"/>
<path d="M505.79 429.528L501.078 430.554L495.188 431.775C494.599 431.921 494.206 432.41 494.206 432.996V440.858C494.206 441.542 494.746 442.079 495.433 442.079H507.262V430.749C507.262 429.968 506.575 429.382 505.79 429.528Z" stroke="#C4CCD8" stroke-width="1.83333"/>
<path d="M512.027 422.759L501.474 424.986C500.885 425.131 500.492 425.616 500.492 426.197V430.603V442.079H512.322C513.009 441.982 513.549 441.45 513.549 440.772V423.969C513.549 423.194 512.812 422.613 512.027 422.759Z" stroke="#C4CCD8" stroke-width="1.83333"/>
<g filter="url(#filter1_dd_4003_2633)">
<rect x="97.6426" y="138.143" width="347" height="213" rx="14" fill="white" fill-opacity="0.01" shape-rendering="crispEdges"/>
</g>
<mask id="mask0_4003_2633" style="mask-type:luminance" maskUnits="userSpaceOnUse" x="96" y="137" width="350" height="216">
<path d="M430.986 137.143H111.299C103.204 137.143 96.6426 143.704 96.6426 151.799V337.748C96.6426 345.843 103.204 352.405 111.299 352.405H430.986C439.081 352.405 445.643 345.843 445.643 337.748V151.799C445.643 143.704 439.081 137.143 430.986 137.143Z" fill="white"/>
</mask>
<g mask="url(#mask0_4003_2633)">
<path d="M431.469 137.143H110.816C102.988 137.143 96.6426 143.488 96.6426 151.316V338.231C96.6426 346.059 102.988 352.405 110.816 352.405H431.469C439.297 352.405 445.643 346.059 445.643 338.231V151.316C445.643 143.488 439.297 137.143 431.469 137.143Z" fill="black"/>
<mask id="mask1_4003_2633" style="mask-type:alpha" maskUnits="userSpaceOnUse" x="96" y="137" width="350" height="216">
<path d="M445.643 137.143H96.6426V352.405H445.643V137.143Z" fill="white"/>
</mask>
<g mask="url(#mask1_4003_2633)">
<mask id="mask2_4003_2633" style="mask-type:luminance" maskUnits="userSpaceOnUse" x="360" y="294" width="72" height="45">
<path d="M431.557 294.143H360.451V338.087H431.557V294.143Z" fill="white"/>
</mask>
<g mask="url(#mask2_4003_2633)">
<path d="M405.622 298.84H386.389V333.39H405.622V298.84Z" fill="#F16122"/>
<path d="M387.614 316.122C387.614 309.112 390.889 302.868 396.004 298.84C392.269 295.899 387.544 294.143 382.429 294.143C370.29 294.143 360.451 303.983 360.451 316.122C360.451 328.261 370.29 338.101 382.429 338.101C387.558 338.101 392.269 336.344 396.004 333.404C390.889 329.376 387.614 323.132 387.614 316.122Z" fill="#ED1C24"/>
<path d="M429.45 329.739V329.029H429.729V328.889H429.004V329.029H429.283V329.739H429.436H429.45ZM430.858 329.739V328.889H430.635L430.385 329.474L430.133 328.889H429.91V329.739H430.064V329.098L430.301 329.655H430.468L430.705 329.098V329.739H430.858Z" fill="#F99F1C"/>
<path d="M431.557 316.122C431.557 328.261 421.717 338.101 409.578 338.101C404.449 338.101 399.738 336.344 396.003 333.404C401.118 329.376 404.393 323.132 404.393 316.122C404.393 309.112 401.118 302.868 396.003 298.84C399.738 295.899 404.463 294.143 409.578 294.143C421.717 294.143 431.557 303.983 431.557 316.122Z" fill="#F99F1C"/>
</g>
<path d="M364.621 271.287C365.08 271.287 365.51 271.37 365.899 271.537C366.302 271.704 366.635 271.94 366.899 272.273L366.038 273.19C365.815 272.981 365.594 272.829 365.357 272.717C365.121 272.606 364.857 272.551 364.565 272.551C364.315 272.551 364.066 272.593 363.843 272.69C363.621 272.787 363.427 272.912 363.273 273.093C363.107 273.259 362.982 273.468 362.898 273.718C362.801 273.954 362.76 274.218 362.76 274.509C362.76 274.801 362.801 275.065 362.898 275.302C362.996 275.538 363.121 275.746 363.273 275.926C363.44 276.093 363.621 276.232 363.843 276.329C364.066 276.426 364.302 276.468 364.565 276.468C364.857 276.468 365.135 276.412 365.385 276.288C365.635 276.162 365.871 276.01 366.066 275.829L366.885 276.746C366.608 277.066 366.274 277.315 365.871 277.482C365.483 277.649 365.052 277.732 364.593 277.732C364.107 277.732 363.663 277.649 363.273 277.482C362.871 277.315 362.538 277.093 362.259 276.802C361.982 276.51 361.76 276.176 361.607 275.787C361.454 275.399 361.371 274.968 361.371 274.509C361.371 274.051 361.454 273.621 361.607 273.232C361.76 272.843 361.982 272.495 362.259 272.218C362.538 271.926 362.885 271.704 363.273 271.537C363.676 271.37 364.107 271.287 364.593 271.287H364.621Z" fill="white"/>
<path d="M371.121 271.287C371.594 271.287 372.038 271.37 372.441 271.537C372.844 271.704 373.191 271.926 373.482 272.218C373.774 272.509 374.011 272.843 374.177 273.232C374.344 273.621 374.427 274.051 374.427 274.509C374.427 274.968 374.344 275.399 374.177 275.787C374.011 276.176 373.774 276.524 373.482 276.802C373.191 277.093 372.844 277.315 372.441 277.482C372.038 277.649 371.607 277.732 371.121 277.732C370.635 277.732 370.205 277.649 369.802 277.482C369.399 277.315 369.052 277.093 368.76 276.802C368.469 276.51 368.232 276.176 368.079 275.787C367.913 275.399 367.83 274.968 367.83 274.509C367.83 274.051 367.913 273.621 368.079 273.232C368.246 272.843 368.469 272.495 368.76 272.218C369.052 271.926 369.399 271.704 369.802 271.537C370.205 271.37 370.649 271.287 371.121 271.287ZM371.121 272.551C370.844 272.551 370.593 272.593 370.357 272.69C370.121 272.787 369.927 272.912 369.746 273.093C369.579 273.259 369.44 273.468 369.343 273.718C369.246 273.954 369.191 274.218 369.191 274.509C369.191 274.801 369.246 275.065 369.343 275.302C369.44 275.538 369.579 275.746 369.746 275.926C369.913 276.093 370.121 276.232 370.357 276.329C370.593 276.426 370.844 276.468 371.121 276.468C371.399 276.468 371.649 276.426 371.885 276.329C372.121 276.232 372.316 276.093 372.496 275.926C372.663 275.76 372.802 275.551 372.899 275.302C372.996 275.065 373.052 274.801 373.052 274.509C373.052 274.218 372.996 273.954 372.899 273.718C372.802 273.482 372.663 273.273 372.496 273.093C372.329 272.912 372.121 272.787 371.885 272.69C371.649 272.593 371.399 272.551 371.121 272.551Z" fill="white"/>
<path d="M383.636 271.287C383.997 271.287 384.331 271.343 384.636 271.468C384.942 271.592 385.206 271.759 385.428 271.967C385.65 272.176 385.817 272.44 385.942 272.732C386.067 273.023 386.123 273.356 386.123 273.718V277.565H384.775V274.162C384.775 273.648 384.651 273.246 384.4 272.968C384.15 272.69 383.803 272.551 383.345 272.551C383.123 272.551 382.928 272.593 382.733 272.662C382.539 272.732 382.372 272.829 382.233 272.968C382.094 273.107 381.983 273.273 381.886 273.482C381.803 273.69 381.761 273.912 381.761 274.176V277.565H380.414V274.162C380.414 273.648 380.289 273.246 380.039 272.968C379.789 272.69 379.441 272.551 378.983 272.551C378.761 272.551 378.566 272.593 378.372 272.662C378.178 272.732 378.011 272.829 377.872 272.968C377.733 273.107 377.622 273.273 377.524 273.482C377.441 273.69 377.4 273.912 377.4 274.176V277.565H376.052V271.44H377.385V272.19C377.511 272.01 377.649 271.856 377.803 271.746C377.955 271.635 378.108 271.537 378.275 271.468C378.441 271.398 378.608 271.356 378.774 271.329C378.941 271.301 379.108 271.287 379.261 271.287C379.733 271.287 380.15 271.384 380.511 271.579C380.872 271.773 381.164 272.037 381.372 272.385C381.497 272.162 381.664 271.982 381.845 271.843C382.025 271.704 382.205 271.592 382.414 271.509C382.608 271.426 382.817 271.371 383.025 271.343C383.234 271.315 383.428 271.301 383.622 271.301L383.636 271.287Z" fill="white"/>
<path d="M395.709 271.287C396.07 271.287 396.403 271.343 396.709 271.468C397.014 271.592 397.278 271.759 397.501 271.967C397.723 272.176 397.889 272.44 398.015 272.732C398.139 273.023 398.195 273.356 398.195 273.718V277.565H396.847V274.162C396.847 273.648 396.723 273.246 396.472 272.968C396.223 272.69 395.876 272.551 395.417 272.551C395.195 272.551 395 272.593 394.806 272.662C394.611 272.732 394.445 272.829 394.305 272.968C394.167 273.107 394.056 273.273 393.958 273.482C393.875 273.69 393.834 273.912 393.834 274.176V277.565H392.486V274.162C392.486 273.648 392.361 273.246 392.111 272.968C391.861 272.69 391.514 272.551 391.056 272.551C390.833 272.551 390.638 272.593 390.445 272.662C390.25 272.732 390.083 272.829 389.944 272.968C389.805 273.107 389.694 273.273 389.597 273.482C389.514 273.69 389.472 273.912 389.472 274.176V277.565H388.124V271.44H389.458V272.19C389.583 272.01 389.722 271.856 389.875 271.746C390.027 271.635 390.18 271.537 390.347 271.468C390.514 271.398 390.681 271.356 390.847 271.329C391.013 271.301 391.18 271.287 391.333 271.287C391.806 271.287 392.222 271.384 392.584 271.579C392.944 271.773 393.236 272.037 393.445 272.385C393.57 272.162 393.736 271.982 393.917 271.843C394.097 271.704 394.278 271.592 394.486 271.509C394.681 271.426 394.889 271.371 395.098 271.343C395.306 271.315 395.501 271.301 395.694 271.301L395.709 271.287Z" fill="white"/>
<path d="M402.835 271.287C403.265 271.287 403.654 271.37 404.001 271.523C404.362 271.676 404.668 271.898 404.918 272.176C405.168 272.454 405.363 272.801 405.515 273.19C405.654 273.579 405.724 274.023 405.724 274.496C405.724 274.579 405.724 274.662 405.724 274.746C405.724 274.829 405.724 274.912 405.71 274.996H401.181C401.223 275.274 401.307 275.51 401.418 275.704C401.529 275.898 401.668 276.065 401.834 276.19C402.001 276.316 402.182 276.412 402.376 276.468C402.57 276.524 402.779 276.552 403.001 276.552C403.307 276.552 403.612 276.496 403.918 276.385C404.224 276.273 404.516 276.107 404.765 275.913L405.432 276.871C405.057 277.19 404.654 277.413 404.237 277.538C403.821 277.662 403.376 277.732 402.918 277.732C402.46 277.732 402.043 277.662 401.654 277.496C401.265 277.343 400.945 277.121 400.668 276.843C400.39 276.565 400.182 276.218 400.029 275.829C399.876 275.426 399.792 274.996 399.792 274.509C399.792 274.023 399.862 273.593 400.015 273.204C400.167 272.801 400.376 272.468 400.64 272.19C400.904 271.912 401.223 271.69 401.599 271.537C401.974 271.384 402.39 271.301 402.835 271.301V271.287ZM402.807 272.482C402.57 272.482 402.362 272.523 402.168 272.593C401.987 272.662 401.821 272.773 401.695 272.898C401.556 273.037 401.445 273.19 401.362 273.384C401.279 273.565 401.223 273.774 401.181 273.995H404.362C404.293 273.523 404.126 273.148 403.849 272.884C403.585 272.621 403.237 272.482 402.807 272.482Z" fill="white"/>
<path d="M410.487 271.287C410.695 271.287 410.876 271.301 411.042 271.329C411.209 271.356 411.362 271.398 411.515 271.454L411.195 272.773C411.056 272.704 410.889 272.648 410.709 272.606C410.514 272.565 410.348 272.551 410.181 272.551C409.973 272.551 409.779 272.593 409.598 272.662C409.417 272.732 409.264 272.843 409.14 272.981C409.014 273.12 408.917 273.301 408.834 273.495C408.765 273.704 408.722 273.926 408.722 274.19V277.552H407.389V271.44H408.709V272.134C408.917 271.843 409.167 271.62 409.473 271.495C409.779 271.356 410.111 271.287 410.487 271.287Z" fill="white"/>
<path d="M415.391 271.287C415.85 271.287 416.281 271.37 416.67 271.537C417.072 271.704 417.406 271.94 417.669 272.273L416.808 273.19C416.587 272.981 416.364 272.829 416.128 272.717C415.892 272.606 415.628 272.551 415.336 272.551C415.086 272.551 414.836 272.593 414.614 272.69C414.392 272.787 414.197 272.912 414.045 273.093C413.878 273.259 413.753 273.468 413.67 273.718C413.572 273.954 413.53 274.218 413.53 274.509C413.53 274.801 413.572 275.065 413.67 275.302C413.766 275.538 413.891 275.746 414.045 275.926C414.211 276.093 414.392 276.232 414.614 276.329C414.836 276.426 415.072 276.468 415.336 276.468C415.628 276.468 415.905 276.412 416.156 276.288C416.406 276.162 416.642 276.01 416.836 275.829L417.656 276.746C417.378 277.066 417.045 277.315 416.642 277.482C416.253 277.649 415.822 277.732 415.364 277.732C414.878 277.732 414.433 277.649 414.045 277.482C413.642 277.315 413.308 277.093 413.031 276.802C412.752 276.51 412.53 276.176 412.377 275.787C412.225 275.399 412.141 274.968 412.141 274.509C412.141 274.051 412.225 273.621 412.377 273.232C412.53 272.843 412.752 272.495 413.031 272.218C413.308 271.926 413.655 271.704 414.045 271.537C414.447 271.37 414.878 271.287 415.364 271.287H415.391Z" fill="white"/>
<path d="M420.515 277.564H419.168V271.439H420.515V277.564Z" fill="white"/>
<path d="M428.487 277.565H427.154V276.829C426.946 277.107 426.682 277.315 426.363 277.482C426.043 277.649 425.668 277.718 425.237 277.718C424.807 277.718 424.404 277.635 424.042 277.482C423.667 277.329 423.348 277.093 423.071 276.815C422.792 276.524 422.57 276.19 422.417 275.801C422.265 275.412 422.181 274.982 422.181 274.509C422.181 274.037 422.265 273.607 422.417 273.217C422.57 272.829 422.792 272.482 423.071 272.203C423.348 271.912 423.667 271.69 424.042 271.537C424.417 271.384 424.807 271.301 425.237 271.301C425.668 271.301 426.057 271.384 426.363 271.551C426.682 271.717 426.946 271.926 427.154 272.203V271.468H428.487V277.565ZM425.39 272.537C425.098 272.537 424.848 272.593 424.612 272.69C424.39 272.801 424.196 272.94 424.029 273.106C423.876 273.287 423.751 273.495 423.667 273.731C423.584 273.967 423.543 274.218 423.543 274.496C423.543 274.773 423.584 275.024 423.667 275.26C423.751 275.495 423.876 275.704 424.029 275.885C424.181 276.065 424.376 276.204 424.612 276.301C424.835 276.398 425.098 276.454 425.39 276.454C425.682 276.454 425.918 276.398 426.14 276.301C426.363 276.204 426.557 276.065 426.723 275.885C426.89 275.704 427.015 275.51 427.098 275.26C427.182 275.024 427.237 274.76 427.237 274.482C427.237 274.204 427.196 273.94 427.098 273.704C427.015 273.468 426.89 273.26 426.723 273.079C426.557 272.898 426.363 272.773 426.14 272.662C425.918 272.565 425.668 272.509 425.39 272.509V272.537Z" fill="white"/>
<path d="M431.934 277.562H430.586V268.938H431.934V277.562Z" fill="white"/>
<path d="M419.834 268.732C419.959 268.732 420.085 268.76 420.209 268.801C420.32 268.857 420.417 268.913 420.515 268.996C420.598 269.08 420.668 269.176 420.709 269.301C420.765 269.412 420.779 269.538 420.779 269.677C420.779 269.815 420.751 269.927 420.709 270.051C420.654 270.163 420.598 270.26 420.515 270.343C420.432 270.426 420.334 270.496 420.209 270.538C420.085 270.58 419.973 270.608 419.834 270.608C419.695 270.608 419.584 270.58 419.459 270.538C419.334 270.496 419.251 270.426 419.167 270.343C419.084 270.26 419.015 270.163 418.973 270.051C418.932 269.941 418.904 269.815 418.904 269.677C418.904 269.538 418.932 269.427 418.973 269.301C419.015 269.191 419.084 269.093 419.167 268.996C419.251 268.913 419.348 268.843 419.459 268.801C419.57 268.746 419.695 268.732 419.834 268.732Z" fill="white"/>
<path d="M319.6 169.707L324.503 164.87H321.821L314.918 171.839V164.87H313.049V179.116H314.918V174.148L317.248 171.971L318.017 171.224C319.182 171.971 321.689 174.192 321.755 179.138H323.909C323.843 173.708 321.227 170.916 319.6 169.707ZM334.876 164.87H332.216L326.851 179.116H328.83L330.369 174.851H336.481L337.932 179.116H340.042L334.876 164.87ZM330.919 173.29L333.205 166.981H333.733L335.865 173.29H330.919ZM351.082 164.87L347.037 177.006H346.729L342.706 164.87H340.574L345.762 179.116H348.048L353.236 164.87H351.082ZM366.293 164.87V170.762H358.488V164.87H356.554V179.116H358.488V172.455H366.293V179.116H368.249V164.87H366.293ZM379.188 164.475C375.12 164.475 372.065 167.838 372.065 171.971C372.065 176.104 375.12 179.468 379.188 179.468C383.255 179.468 386.332 176.104 386.332 171.971C386.332 167.838 383.255 164.475 379.188 164.475ZM379.188 177.687C376.088 177.687 374.043 175.115 374.043 171.971C374.043 168.806 376.088 166.255 379.188 166.255C382.287 166.255 384.332 168.828 384.332 171.971C384.332 175.115 382.287 177.687 379.188 177.687ZM392.071 177.357V164.87H390.158V179.116H399.7V177.357H392.071ZM414.146 164.87L410.079 175.005L405.968 164.87H402.978V179.116H404.803V170.718C404.803 170.366 404.803 169.839 404.781 169.135C404.759 168.41 404.759 167.443 404.759 167.091H404.957L405.001 167.113L409.09 177.204H411.002L415.092 167.113C415.092 167.135 415.311 167.091 415.311 167.135C415.311 167.838 415.311 168.63 415.311 169.267C415.289 169.927 415.289 170.41 415.289 170.718V179.116H417.136V164.87H414.146Z" fill="white"/>
<path d="M124.47 324.159C124.906 324.249 125.291 324.288 125.778 324.288C127.56 324.288 128.586 323.467 128.586 321.62V314.977H127.355V321.53C127.355 322.787 126.778 323.185 125.637 323.185C125.226 323.185 124.919 323.146 124.47 323.056V324.159ZM135.23 322.723V319.261C135.23 318.029 134.307 317.35 132.819 317.35C131.383 317.35 130.267 318.029 130.164 319.453H131.293C131.383 318.735 131.87 318.363 132.755 318.363C133.576 318.363 134.114 318.683 134.114 319.427V319.838L132.447 320.171C130.947 320.466 129.895 321.03 129.895 322.364C129.895 323.569 130.895 324.3 132.114 324.3C132.986 324.3 133.73 323.98 134.14 323.492C134.153 323.762 134.166 323.993 134.191 324.185H135.333C135.269 323.762 135.23 323.223 135.23 322.723ZM134.114 321.902C134.114 322.762 133.255 323.364 132.268 323.364C131.537 323.364 131.049 322.967 131.049 322.313C131.049 321.505 131.729 321.223 132.755 321.017L134.114 320.735V321.902ZM137.095 324.185H138.25V320.184C138.25 319.068 139.096 318.427 139.93 318.427C140.93 318.427 141.327 319.132 141.327 320.068V324.185H142.482V319.761C142.482 318.337 141.674 317.35 140.25 317.35C139.301 317.35 138.634 317.837 138.25 318.388V317.478H137.095V324.185ZM147.014 324.326C148.348 324.326 149.361 323.595 149.772 322.402L148.758 322.043C148.553 322.838 147.912 323.326 147.014 323.326C145.847 323.326 145.039 322.428 144.975 321.017H149.823V320.633C149.823 318.773 148.835 317.35 146.963 317.35C145.142 317.35 143.872 318.837 143.872 320.838C143.872 322.903 145.155 324.326 147.014 324.326ZM146.95 318.337C148.117 318.337 148.63 319.184 148.656 320.133H145.039C145.245 318.991 145.976 318.337 146.95 318.337ZM154.016 324.185H156.94C159.736 324.185 161.505 322.39 161.505 319.581C161.505 316.773 159.736 314.977 156.94 314.977H154.016V324.185ZM155.221 323.121V316.042H156.927C159.03 316.042 160.3 317.427 160.3 319.581C160.3 321.723 159.03 323.121 156.94 323.121H155.221ZM162.905 316.311H164.162V314.977H162.905V316.311ZM164.111 317.478H162.957V324.185H164.111V317.478ZM170.872 322.723V319.261C170.872 318.029 169.949 317.35 168.461 317.35C167.025 317.35 165.909 318.029 165.807 319.453H166.935C167.025 318.735 167.512 318.363 168.397 318.363C169.218 318.363 169.756 318.683 169.756 319.427V319.838L168.089 320.171C166.589 320.466 165.537 321.03 165.537 322.364C165.537 323.569 166.538 324.3 167.756 324.3C168.628 324.3 169.372 323.98 169.782 323.492C169.795 323.762 169.808 323.993 169.833 324.185H170.975C170.911 323.762 170.872 323.223 170.872 322.723ZM169.756 321.902C169.756 322.762 168.897 323.364 167.91 323.364C167.179 323.364 166.691 322.967 166.691 322.313C166.691 321.505 167.371 321.223 168.397 321.017L169.756 320.735V321.902ZM177.585 323.198H173.751L177.547 318.363V317.478H172.353V318.465H176.174L172.302 323.313V324.185H177.585V323.198Z" fill="white"/>
</g>
</g>
<g filter="url(#filter2_dd_4003_2633)">
<rect x="97.6426" y="231.143" width="347" height="213" rx="14" fill="white" fill-opacity="0.01" shape-rendering="crispEdges"/>
</g>
<mask id="mask3_4003_2633" style="mask-type:luminance" maskUnits="userSpaceOnUse" x="96" y="230" width="350" height="216">
<path d="M430.998 230.143H111.287C103.199 230.143 96.6426 236.699 96.6426 244.787V430.594C96.6426 438.682 103.199 445.239 111.287 445.239H430.998C439.086 445.239 445.643 438.682 445.643 430.594V244.787C445.643 236.699 439.086 230.143 430.998 230.143Z" fill="white"/>
</mask>
<g mask="url(#mask3_4003_2633)">
<path d="M96.6445 432.982C96.6445 439.723 102.293 445.238 109.199 445.238H433.089C439.995 445.238 445.645 439.723 445.645 432.982V242.4C445.645 235.658 439.995 230.143 433.089 230.143H109.199C102.293 230.143 96.6445 235.658 96.6445 242.4V432.982Z" fill="#27BB86"/>
<g style="mix-blend-mode:overlay" opacity="0.65">
<path d="M22.7783 334.709C42.8004 306.595 69.4743 288.18 108.635 283.927C229.922 270.756 336.466 375.318 455.688 317.966" stroke="url(#paint6_linear_4003_2633)" stroke-linecap="round"/>
<path d="M23.1318 342.306C43.1539 314.193 69.8279 295.778 108.988 291.525C230.276 278.353 336.819 382.916 456.041 325.564" stroke="url(#paint7_linear_4003_2633)" stroke-linecap="round"/>
<path d="M22.3613 328.873C42.3834 300.759 69.0573 282.344 108.218 278.091C229.505 264.92 336.049 369.483 455.271 312.131" stroke="url(#paint8_linear_4003_2633)" stroke-linecap="round"/>
<path d="M20.4121 321.806C40.4342 293.693 67.1081 275.278 106.268 271.025C227.556 257.854 334.099 362.416 453.322 305.064" stroke="url(#paint9_linear_4003_2633)" stroke-linecap="round"/>
<path d="M19.5859 315.566C39.608 287.453 66.282 269.037 105.442 264.785C226.73 251.613 333.273 356.176 452.495 298.824" stroke="url(#paint10_linear_4003_2633)" stroke-linecap="round"/>
<path d="M18.7578 309.328C38.7799 281.214 65.4538 262.799 104.614 258.547C225.902 245.375 332.445 349.937 451.667 292.586" stroke="url(#paint11_linear_4003_2633)" stroke-linecap="round"/>
<path d="M27.2041 368.007C47.2262 339.894 73.9001 321.479 113.06 317.226C234.348 304.055 340.891 408.617 460.114 351.265" stroke="url(#paint12_linear_4003_2633)" stroke-linecap="round"/>
<path d="M27.5576 375.606C47.5797 347.492 74.2536 329.077 113.414 324.824C234.702 311.652 341.245 416.215 460.467 358.863" stroke="url(#paint13_linear_4003_2633)" stroke-linecap="round"/>
<path d="M26.7871 362.172C46.8092 334.058 73.4831 315.643 112.643 311.39C233.931 298.219 340.474 402.781 459.697 345.429" stroke="url(#paint14_linear_4003_2633)" stroke-linecap="round"/>
<path d="M24.8379 355.106C44.8599 326.992 71.5339 308.577 110.694 304.324C231.982 291.152 338.525 395.715 457.747 338.363" stroke="url(#paint15_linear_4003_2633)" stroke-linecap="round"/>
<path d="M24.0117 348.865C44.0338 320.752 70.7077 302.336 109.868 298.084C231.156 284.912 337.699 389.475 456.921 332.123" stroke="url(#paint16_linear_4003_2633)" stroke-linecap="round"/>
<path d="M23.1836 342.627C43.2056 314.513 69.8796 296.098 109.04 291.845C230.328 278.674 336.871 383.236 456.093 325.884" stroke="url(#paint17_linear_4003_2633)" stroke-linecap="round"/>
</g>
<path d="M124.643 417.344V408.143H125.873V416.267H130.461V417.344H124.643ZM136.543 415.883C136.543 416.383 136.581 416.921 136.646 417.344H135.506C135.479 417.114 135.462 416.883 135.454 416.652C135.044 417.139 134.301 417.459 133.429 417.459C132.212 417.459 131.212 416.729 131.212 415.524C131.212 414.191 132.263 413.627 133.762 413.333L135.428 413V412.59C135.428 411.846 134.89 411.526 134.07 411.526C133.186 411.526 132.699 411.898 132.61 412.615H131.482C131.584 411.193 132.699 410.514 134.134 410.514C135.62 410.514 136.544 411.193 136.544 412.423L136.543 415.883ZM135.428 415.063V413.897L134.07 414.178C133.045 414.384 132.366 414.665 132.366 415.473C132.366 416.126 132.853 416.523 133.583 416.523C134.57 416.523 135.428 415.921 135.428 415.063ZM139.099 413.999C139.099 415.524 139.919 416.472 141.111 416.472C142.033 416.472 142.584 415.883 142.777 415.05L143.802 415.524C143.482 416.639 142.508 417.485 141.111 417.485C139.24 417.485 137.946 416.062 137.946 413.999C137.946 411.923 139.24 410.514 141.111 410.514C142.508 410.514 143.456 411.321 143.776 412.436L142.776 412.936C142.584 412.115 142.034 411.513 141.111 411.513C139.919 411.513 139.099 412.461 139.099 413.999ZM145.065 417.344V408.143H146.218V411.552C146.44 411.227 146.738 410.963 147.087 410.782C147.436 410.601 147.824 410.509 148.217 410.514C149.639 410.514 150.447 411.5 150.447 412.923V417.344H149.293V413.23C149.293 412.295 148.896 411.59 147.896 411.59C147.063 411.59 146.218 412.231 146.218 413.346V417.344H145.063H145.065ZM153.451 408.143V417.344H152.297V408.143H153.451ZM160.207 415.883C160.207 416.383 160.245 416.921 160.309 417.344H159.169C159.142 417.114 159.125 416.883 159.118 416.652C158.708 417.139 157.964 417.459 157.093 417.459C155.876 417.459 154.876 416.729 154.876 415.524C154.876 414.191 155.926 413.627 157.426 413.333L159.092 413V412.59C159.092 411.846 158.554 411.526 157.734 411.526C156.849 411.526 156.363 411.898 156.273 412.615H155.145C155.248 411.193 156.363 410.514 157.798 410.514C159.284 410.514 160.207 411.193 160.207 412.423V415.883ZM159.092 415.063V413.897L157.734 414.178C156.709 414.384 156.029 414.665 156.029 415.473C156.029 416.126 156.516 416.523 157.247 416.523C158.233 416.523 159.092 415.921 159.092 415.063ZM162.071 417.344V410.642H163.224V411.552C163.446 411.227 163.744 410.963 164.093 410.781C164.442 410.6 164.83 410.508 165.224 410.514C166.645 410.514 167.453 411.5 167.453 412.923V417.344H166.299V413.23C166.299 412.295 165.902 411.59 164.903 411.59C164.07 411.59 163.224 412.231 163.224 413.346V417.344H162.071ZM172.058 417.344V408.143H175.454C177.402 408.143 178.44 409.002 178.44 410.539C178.44 411.718 177.722 412.308 177.017 412.551C178.055 412.833 178.747 413.64 178.747 414.806C178.747 416.408 177.581 417.344 175.723 417.344H172.058ZM173.25 412.09H175.351C176.581 412.09 177.261 411.616 177.261 410.642C177.261 409.655 176.581 409.181 175.351 409.181H173.25V412.09ZM173.25 413.141V416.306H175.672C176.902 416.306 177.568 415.665 177.568 414.717C177.568 413.781 176.902 413.141 175.672 413.141H173.25ZM183.663 410.616V411.782C183.477 411.745 183.289 411.728 183.1 411.731C182.126 411.731 181.344 412.5 181.344 413.679V417.344H180.191V410.642H181.343V411.782C181.638 411.103 182.292 410.591 183.201 410.591C183.381 410.591 183.547 410.603 183.663 410.616ZM190.425 413.999C190.425 416.075 189.143 417.485 187.311 417.485C185.478 417.485 184.197 416.075 184.197 413.999C184.197 411.923 185.478 410.514 187.311 410.514C189.143 410.514 190.425 411.923 190.425 413.999ZM185.363 413.999C185.363 415.524 186.132 416.498 187.311 416.498C188.49 416.498 189.259 415.524 189.259 413.999C189.259 412.461 188.489 411.488 187.311 411.488C186.132 411.488 185.363 412.461 185.363 413.999ZM194.957 410.642H195.931L197.315 415.639L198.712 410.642H199.865L197.827 417.344H196.815L195.418 412.372L194.022 417.344H193.009L190.972 410.642H192.164L193.574 415.627L194.957 410.642ZM200.989 417.344V410.642H202.142V411.552C202.364 411.227 202.662 410.963 203.011 410.782C203.36 410.601 203.748 410.509 204.141 410.514C205.564 410.514 206.371 411.5 206.371 412.923V417.344H205.218V413.23C205.218 412.295 204.82 411.59 203.821 411.59C202.988 411.59 202.142 412.231 202.142 413.346V417.344H200.989Z" fill="white"/>
<path fill-rule="evenodd" clip-rule="evenodd" d="M286.981 261.953C286.981 262.344 286.66 262.665 286.269 262.665H274.972C274.58 262.665 274.259 262.344 274.259 261.953C274.259 261.562 274.58 261.241 274.972 261.241H286.269C286.66 261.241 286.981 261.562 286.981 261.953ZM287.791 264.788C287.791 265.179 287.47 265.5 287.079 265.5H279.007C278.616 265.5 278.295 265.179 278.295 264.788C278.295 264.396 278.616 264.075 279.007 264.075H287.079C287.47 264.075 287.791 264.396 287.791 264.788ZM287.079 259.83H279.817C279.426 259.83 279.105 259.509 279.105 259.118C279.105 258.727 279.426 258.406 279.817 258.406H287.079C287.47 258.406 287.791 258.727 287.791 259.118C287.791 259.509 287.47 259.83 287.079 259.83ZM295.443 261.953C295.443 263.908 293.866 265.486 291.91 265.486C289.956 265.486 288.378 263.894 288.378 261.953C288.378 260.011 289.956 258.42 291.91 258.42C293.866 258.42 295.443 260.011 295.443 261.953ZM289.802 261.953C289.802 263.126 290.752 264.075 291.924 264.075C293.097 264.075 294.047 263.126 294.047 261.953C294.047 260.78 293.097 259.83 291.924 259.83C290.752 259.83 289.802 260.78 289.802 261.953ZM291.924 255.585C295.43 255.585 298.278 258.448 298.278 261.953C298.278 265.458 295.43 268.32 291.924 268.32H282.247C281.856 268.32 281.535 267.999 281.535 267.609C281.535 267.218 281.856 266.897 282.247 266.897H291.924C294.647 266.897 296.868 264.676 296.868 261.939C296.868 259.202 294.647 256.981 291.924 256.981H276.591C276.2 256.981 275.879 256.66 275.879 256.269C275.879 255.878 276.2 255.557 276.591 255.557H291.924V255.585ZM316.488 264.313V259.607C316.488 256.786 318.387 254.803 321.125 254.803C323.862 254.803 325.761 256.786 325.761 259.607V264.313C325.761 267.12 323.847 269.075 321.125 269.075C318.401 269.075 316.488 267.106 316.488 264.313ZM323.066 264.411V259.509C323.066 257.959 322.144 257.386 321.125 257.386C320.161 257.386 319.211 257.903 319.211 259.481V264.383C319.211 265.933 320.119 266.477 321.125 266.477C322.046 266.477 323.066 265.989 323.066 264.396V264.411ZM332.659 257.386C331.723 257.386 330.746 257.903 330.746 259.481V264.383C330.746 266.016 331.723 266.505 332.659 266.505C333.916 266.505 334.6 265.891 334.6 263.88V263.699H337.309C337.309 267.231 335.801 269.089 332.673 269.089C329.936 269.089 328.037 267.12 328.037 264.299V259.551C328.037 256.744 329.936 254.789 332.673 254.789C335.745 254.789 337.309 256.814 337.309 260.026H334.6V259.83C334.6 257.791 333.609 257.373 332.659 257.373V257.386ZM346.204 268.879L343.467 263.126H342.448V268.879H339.739V255.04H342.448V260.738H343.467L346.204 255.04H349.235L345.786 261.911L349.235 268.879H346.204ZM354.276 257.652V260.794H358.019V263.154H354.276V266.296H359.331V268.879H351.581V255.04H359.331V257.652H354.276ZM366.593 257.652V268.879H363.884V257.652H361.007V255.04H369.469V257.652H366.593ZM388.029 268.879V255.04H390.738V268.879H388.029ZM393.907 255.04H398.446C401.183 255.04 403.082 256.73 403.082 260.11V263.754C403.082 267.092 401.183 268.879 398.446 268.879H393.907V255.04ZM396.617 266.31H398.139C399.438 266.31 400.415 265.793 400.415 263.098V260.403C400.415 258.909 400.024 257.638 398.139 257.638H396.617V266.31ZM408.557 257.652V260.794H412.299V263.154H408.557V266.296H413.611V268.879H405.862V255.04H413.611V257.652H408.557ZM415.469 258.853C415.469 256.325 417.27 254.789 420.007 254.789C422.744 254.789 424.518 256.577 424.518 259.425H421.85C421.85 257.959 421.124 257.261 419.966 257.261C418.807 257.261 418.164 257.805 418.164 258.853C418.164 261.604 424.685 259.97 424.685 264.914C424.685 267.539 422.8 269.117 420.007 269.117C417.214 269.117 415.288 267.288 415.288 264.327H417.996C417.996 265.933 418.82 266.603 420.007 266.603C421.194 266.603 421.99 266.073 421.99 264.941C421.99 262.316 415.469 263.768 415.469 258.853ZM312.229 264.676L314.561 268.879H311.601L309.743 265.304L309.408 264.704H307.942V268.879H305.233V255.04H309.618C313.514 255.04 314.24 258.28 314.24 260.04C314.24 261.995 313.262 263.405 311.866 264.062C311.992 264.285 312.117 264.508 312.215 264.676H312.229ZM307.942 257.638V262.149H309.297C310.427 262.149 311.573 261.646 311.573 259.872C311.573 258.085 310.484 257.638 309.297 257.638H307.942ZM383.266 264.676L385.599 268.879H382.639L380.781 265.304L380.446 264.704H378.98V268.879H376.284V255.04H380.669C384.565 255.04 385.291 258.28 385.291 260.04C385.291 261.995 384.314 263.405 382.917 264.062C383.043 264.285 383.169 264.508 383.266 264.676ZM378.98 257.638V262.149H380.334C381.465 262.149 382.61 261.646 382.61 259.872C382.61 258.085 381.521 257.638 380.334 257.638H378.98Z" fill="white"/>
<path d="M389.114 402.57L384.239 425.989H378.318L383.194 402.57H389.114ZM413.668 417.702L416.803 408.875L418.544 417.702H413.668ZM420.285 425.989H425.684L420.982 402.57H415.932C414.887 402.57 413.842 403.29 413.494 404.371L404.787 425.989H410.882L412.101 422.566H419.589L420.285 425.989ZM404.961 418.243C404.961 412.118 396.777 411.757 396.777 409.055C396.951 407.794 397.996 407.073 399.215 407.073C401.13 406.893 403.22 407.254 404.961 408.154L406.006 403.11C404.265 402.39 402.349 402.029 400.608 402.029C394.861 402.029 390.682 405.272 390.682 409.776C390.682 413.199 393.642 415 395.732 416.081C397.996 417.162 398.866 417.883 398.692 418.963C398.692 420.585 396.951 421.305 395.209 421.305C393.12 421.305 391.03 420.765 389.114 419.864L388.07 424.908C390.159 425.809 392.423 426.169 394.513 426.169C400.956 426.35 404.961 423.107 404.961 418.243ZM380.756 402.57L371.352 425.989H365.083L360.381 407.254C360.381 406.353 359.685 405.632 358.988 405.272C357.247 404.371 355.331 403.651 353.242 403.29L353.416 402.57H363.342C364.735 402.57 365.78 403.651 365.954 404.912L368.392 418.423L374.661 402.57H380.756Z" fill="white"/>
</g>
<g filter="url(#filter3_dd_4003_2633)">
<rect x="97.6426" y="324.143" width="347" height="213" rx="14" fill="white" fill-opacity="0.01" shape-rendering="crispEdges"/>
</g>
<path d="M431.469 323.143H110.816C102.988 323.143 96.6426 329.488 96.6426 337.316V524.231C96.6426 532.059 102.988 538.405 110.816 538.405H431.469C439.297 538.405 445.643 532.059 445.643 524.231V337.316C445.643 329.488 439.297 323.143 431.469 323.143Z" fill="white"/>
<mask id="mask4_4003_2633" style="mask-type:alpha" maskUnits="userSpaceOnUse" x="96" y="323" width="350" height="216">
<path d="M431.473 323.143H110.813C102.987 323.143 96.6426 329.487 96.6426 337.313V524.235C96.6426 532.06 102.987 538.405 110.813 538.405H431.473C439.298 538.405 445.643 532.06 445.643 524.235V337.313C445.643 329.487 439.298 323.143 431.473 323.143Z" fill="black"/>
</mask>
<g mask="url(#mask4_4003_2633)">
<path d="M268.214 559.44C247.043 558.486 240.616 535.986 241.561 524.927C239.563 510.626 253.848 508.147 264.811 503.762C275.775 499.376 295.056 508.719 300.727 524.927C306.397 541.135 289.385 560.393 268.214 559.44Z" fill="#C9EBDA"/>
<path d="M208.548 320.283C179.759 301.872 153.588 294.759 109.969 302.291C88.5955 304.383 42.1902 335.756 82.0527 425.725C96.8841 459.199 126.544 474.68 158.822 481.793C191.1 488.906 195.025 471.751 201.569 455.014C208.111 438.277 216.399 432.001 244.751 406.477C273.103 380.954 237.336 338.693 208.548 320.283Z" fill="#C9EBDA"/>
<path d="M279.29 427.93C290.726 418.606 296.381 409.133 296.254 391.332C296.979 382.775 285.333 361.413 237.731 367.635C220.02 369.949 209.956 379.916 203.8 391.773C197.644 403.629 205.773 406.941 213.482 411.23C221.191 415.519 223.602 419.404 233.848 433.115C244.095 446.825 267.855 437.253 279.29 427.93Z" fill="#C9EBDA"/>
<path fill-rule="evenodd" clip-rule="evenodd" d="M251.006 366.555C246.928 366.664 242.511 367.011 237.732 367.635C220.021 369.95 209.956 379.917 203.8 391.774C198.067 402.814 204.722 406.445 211.89 410.356C212.419 410.645 212.952 410.936 213.482 411.231C218.852 414.219 221.651 417.01 226.319 423.064C229.485 420.167 233.07 416.955 237.157 413.294C239.516 411.18 242.042 408.917 244.751 406.478C257.217 395.256 257.288 380.798 251.006 366.555Z" fill="#9ED9BA"/>
<path d="M428.798 466.915C439.949 478.545 450.757 483.869 470.122 482.169C479.499 482.208 501.729 467.66 490.784 416.391C486.711 397.316 474.98 387.236 461.535 381.574C448.089 375.913 445.197 385.052 441.205 393.819C437.212 402.586 433.195 405.551 419.17 417.906C405.145 430.261 417.647 455.284 428.798 466.915Z" fill="#C9EBDA"/>
<path d="M125.689 509.185H124.469V499.977H130.419V501.054H125.689V504.017H129.689V505.094H125.689V509.185ZM134.657 502.452V503.619C134.471 503.582 134.282 503.565 134.093 503.568C133.118 503.568 132.336 504.337 132.336 505.517V509.185H131.182V502.478H132.336V503.619C132.631 502.94 133.285 502.427 134.196 502.427C134.376 502.427 134.543 502.439 134.657 502.452ZM140.625 507.723C140.625 508.223 140.664 508.762 140.728 509.185H139.586C139.56 508.954 139.543 508.723 139.536 508.492C139.125 508.98 138.381 509.3 137.509 509.3C136.291 509.3 135.289 508.569 135.289 507.364C135.289 506.03 136.342 505.466 137.842 505.171L139.509 504.838V504.427C139.509 503.683 138.971 503.363 138.149 503.363C137.265 503.363 136.778 503.735 136.688 504.453H135.56C135.662 503.029 136.778 502.35 138.214 502.35C139.702 502.35 140.624 503.029 140.624 504.261L140.625 507.723ZM139.509 506.902V505.735L138.149 506.017C137.124 506.223 136.445 506.505 136.445 507.313C136.445 507.967 136.932 508.364 137.663 508.364C138.65 508.364 139.509 507.762 139.509 506.902ZM142.491 509.185V502.478H143.645V503.388C143.867 503.063 144.166 502.799 144.515 502.618C144.864 502.437 145.252 502.345 145.645 502.35C147.069 502.35 147.877 503.337 147.877 504.761V509.185H146.723V505.068C146.723 504.132 146.325 503.427 145.325 503.427C144.491 503.427 143.645 504.068 143.645 505.184V509.185H142.491ZM150.883 499.977V505.607L153.859 502.478H155.295L152.679 505.12L155.513 509.185H154.166L151.858 505.953L150.883 506.941V509.185H149.729V499.977H150.883ZM164.287 509.185H163.299L160.489 501.606V509.185H159.337V499.977H161.017L163.813 507.544L166.621 499.977H168.25V509.185H167.107V501.606L164.287 509.185ZM170.923 505.838C170.923 507.364 171.743 508.313 172.936 508.313C173.86 508.313 174.411 507.723 174.603 506.889L175.629 507.364C175.309 508.48 174.334 509.326 172.936 509.326C171.064 509.326 169.769 507.903 169.769 505.838C169.769 503.76 171.064 502.35 172.936 502.35C174.334 502.35 175.283 503.158 175.604 504.273L174.604 504.773C174.411 503.953 173.86 503.35 172.936 503.35C171.744 503.35 170.923 504.299 170.923 505.838ZM184.216 499.977V509.185H183.151L178.124 501.773V509.185H176.943V499.977H178.239L183.022 507.095V499.977H184.216ZM191.02 507.723C191.02 508.223 191.059 508.762 191.123 509.185H189.981C189.955 508.954 189.938 508.723 189.93 508.492C189.52 508.98 188.776 509.3 187.904 509.3C186.686 509.3 185.684 508.569 185.684 507.364C185.684 506.03 186.737 505.466 188.237 505.171L189.904 504.838V504.427C189.904 503.683 189.366 503.363 188.544 503.363C187.66 503.363 187.173 503.735 187.083 504.453H185.955C186.057 503.029 187.173 502.35 188.609 502.35C190.097 502.35 191.019 503.029 191.019 504.261L191.02 507.723ZM189.904 506.902V505.735L188.544 506.017C187.519 506.223 186.839 506.505 186.839 507.313C186.839 507.967 187.327 508.364 188.058 508.364C189.045 508.364 189.904 507.762 189.904 506.902ZM194.04 505.171V509.185H192.886V502.478H194.04V503.388C194.246 503.063 194.533 502.797 194.872 502.615C195.211 502.434 195.591 502.342 195.976 502.35C196.874 502.35 197.502 502.799 197.836 503.491C198.071 503.138 198.389 502.85 198.763 502.651C199.136 502.451 199.553 502.348 199.977 502.35C201.362 502.35 202.196 503.337 202.196 504.761V509.185H201.042V505.068C201.042 504.132 200.657 503.427 199.708 503.427C198.939 503.427 198.118 504.081 198.118 505.171V509.185H196.964V505.068C196.964 504.132 196.579 503.427 195.63 503.427C194.86 503.427 194.04 504.081 194.04 505.171ZM208.891 507.723C208.891 508.223 208.93 508.762 208.994 509.185H207.853C207.826 508.954 207.809 508.723 207.801 508.492C207.391 508.98 206.647 509.3 205.775 509.3C204.557 509.3 203.556 508.569 203.556 507.364C203.556 506.03 204.608 505.466 206.108 505.171L207.776 504.838V504.427C207.776 503.683 207.237 503.363 206.416 503.363C205.531 503.363 205.044 503.735 204.954 504.453H203.826C203.928 503.029 205.044 502.35 206.48 502.35C207.968 502.35 208.891 503.029 208.891 504.261V507.723ZM207.776 506.902V505.735L206.416 506.017C205.39 506.223 204.711 506.505 204.711 507.313C204.711 507.967 205.198 508.364 205.929 508.364C206.916 508.364 207.776 507.762 207.776 506.902ZM214.232 502.452V503.619C214.046 503.582 213.857 503.565 213.668 503.568C212.693 503.568 211.911 504.337 211.911 505.517V509.185H210.757V502.478H211.911V503.619C212.206 502.94 212.86 502.427 213.77 502.427C213.95 502.427 214.117 502.439 214.232 502.452ZM220.2 507.723C220.2 508.223 220.239 508.762 220.303 509.185H219.161C219.135 508.954 219.118 508.723 219.11 508.492C218.7 508.98 217.956 509.3 217.084 509.3C215.866 509.3 214.865 508.569 214.865 507.364C214.865 506.03 215.917 505.466 217.417 505.171L219.084 504.838V504.427C219.084 503.683 218.546 503.363 217.725 503.363C216.84 503.363 216.353 503.735 216.263 504.453H215.135C215.237 503.029 216.353 502.35 217.789 502.35C219.277 502.35 220.2 503.029 220.2 504.261V507.723ZM219.084 506.902V505.735L217.725 506.017C216.699 506.223 216.019 506.505 216.019 507.313C216.019 507.967 216.507 508.364 217.238 508.364C218.225 508.364 219.084 507.762 219.084 506.902Z" fill="black"/>
<path d="M389.341 495.703L384.462 519.141H378.536L383.416 495.703H389.341ZM413.914 510.847L417.051 502.013L418.794 510.847H413.914ZM420.537 519.141H425.939L421.234 495.703H416.18C415.134 495.703 414.088 496.424 413.74 497.506L405.026 519.141H411.126L412.346 515.715H419.839L420.537 519.141ZM405.2 511.388C405.2 505.258 397.01 504.898 397.01 502.193C397.184 500.931 398.229 500.21 399.449 500.21C401.366 500.03 403.458 500.39 405.2 501.292L406.246 496.244C404.503 495.523 402.586 495.162 400.844 495.162C395.092 495.162 390.91 498.407 390.91 502.915C390.91 506.34 393.873 508.143 395.964 509.225C398.229 510.306 399.101 511.028 398.927 512.109C398.927 513.732 397.184 514.453 395.441 514.453C393.35 514.453 391.258 513.912 389.341 513.011L388.296 518.059C390.387 518.96 392.653 519.321 394.744 519.321C401.192 519.501 405.2 516.256 405.2 511.388ZM380.976 495.703L371.565 519.141H365.292L360.586 500.39C360.586 499.489 359.889 498.768 359.192 498.407C357.449 497.506 355.532 496.785 353.441 496.424L353.615 495.703H363.549C364.943 495.703 365.989 496.785 366.163 498.047L368.603 511.568L374.877 495.703H380.976Z" fill="black"/>
</g>
<path fill-rule="evenodd" clip-rule="evenodd" d="M392.327 357.303C392.327 358.119 392.448 358.713 392.691 359.085C392.935 359.458 393.37 359.643 393.995 359.643V360.202C393.456 360.149 392.917 360.122 392.379 360.122C390.831 360.122 389.563 360.246 388.573 360.495V358.208C387.981 359.802 386.853 360.6 385.184 360.6C383.55 360.6 382.247 359.998 381.274 358.792C380.318 357.569 379.849 355.734 379.866 353.288C379.866 351.727 380.11 350.416 380.596 349.352C381.1 348.271 381.786 347.464 382.655 346.932C383.542 346.382 384.549 346.108 385.679 346.108C386.948 346.108 387.912 346.444 388.573 347.118V342.598C388.573 341.782 388.442 341.188 388.181 340.816C387.938 340.443 387.512 340.258 386.904 340.258V339.699C387.46 339.752 387.999 339.779 388.521 339.779C390.033 339.779 391.302 339.654 392.327 339.406V357.303ZM386.253 359.458C386.826 359.458 387.33 359.245 387.765 358.819C388.216 358.394 388.486 357.818 388.573 357.091V347.783C388.139 347.18 387.504 346.879 386.669 346.879C385.749 346.879 385.036 347.42 384.532 348.502C384.028 349.583 383.785 351.195 383.803 353.341C383.785 355.504 383.985 357.064 384.401 358.021C384.836 358.979 385.453 359.458 386.253 359.458ZM334.576 346.471C335.48 346.471 336.28 346.725 336.975 347.235C337.687 347.745 338.243 348.509 338.643 349.527C339.043 350.546 339.243 351.792 339.243 353.265C339.243 355.866 338.695 357.867 337.6 359.268C336.523 360.651 335.055 361.342 333.195 361.342C332.674 361.342 332.178 361.269 331.709 361.124C331.257 360.978 330.866 360.76 330.536 360.469V363.197C330.536 363.999 330.727 364.553 331.109 364.862C331.492 365.171 332.083 365.326 332.882 365.326V365.899L332.178 365.872C330.25 365.817 329.024 365.789 328.503 365.789C327.982 365.789 326.886 365.827 325.218 365.899V365.326C325.791 365.326 326.191 365.19 326.417 364.917C326.66 364.662 326.782 364.18 326.782 363.47V349.827C326.782 348.991 326.652 348.381 326.391 347.999C326.148 347.617 325.722 347.426 325.114 347.426V346.852C325.67 346.907 326.209 346.935 326.73 346.935C328.242 346.935 329.51 346.807 330.536 346.553V349.063C330.901 348.227 331.431 347.59 332.126 347.153C332.821 346.698 333.638 346.471 334.576 346.471ZM332.178 360.605C333.29 360.605 334.09 360.032 334.576 358.887C335.063 357.722 335.306 356.03 335.306 353.811C335.306 351.592 335.107 350.009 334.707 349.063C334.325 348.117 333.769 347.644 333.038 347.644C332.447 347.644 331.918 347.853 331.449 348.272C330.996 348.69 330.693 349.272 330.536 350.018V359.869C330.953 360.36 331.501 360.605 332.178 360.605ZM348.075 346.471C350.285 346.471 352.015 347.042 353.265 348.182C354.514 349.306 355.139 351.095 355.139 353.549C355.139 356.003 354.514 357.792 353.265 358.916C352.015 360.039 350.285 360.6 348.075 360.6C345.883 360.6 344.153 360.039 342.883 358.916C341.635 357.792 341.009 356.003 341.009 353.549C341.009 351.095 341.635 349.306 342.883 348.182C344.153 347.042 345.883 346.471 348.075 346.471ZM348.075 346.99C347.248 346.99 346.584 347.534 346.085 348.623C345.604 349.694 345.363 351.336 345.363 353.549C345.363 355.761 345.604 357.403 346.085 358.475C346.584 359.547 347.248 360.082 348.075 360.082C348.92 360.082 349.584 359.555 350.064 358.501C350.544 357.429 350.785 355.779 350.785 353.549C350.785 351.319 350.535 349.668 350.036 348.596C349.555 347.525 348.9 346.99 348.075 346.99ZM376.07 346.579C376.979 346.579 377.655 346.552 378.099 346.497V347.041C377.726 347.15 377.388 347.376 377.085 347.721C376.782 348.064 376.515 348.617 376.285 349.377L372.734 360.6C372.539 360.582 372.245 360.573 371.853 360.573C371.479 360.573 371.195 360.582 370.999 360.6L367.368 350.519L364.406 360.6C364.228 360.582 363.943 360.573 363.551 360.573C363.16 360.573 362.866 360.582 362.67 360.6L358.453 348.589C358.24 347.956 358 347.548 357.733 347.367C357.466 347.168 357.189 347.068 356.905 347.068V346.497C358.062 346.606 359.325 346.661 360.695 346.661C361.585 346.661 362.742 346.606 364.166 346.497V347.068C363.578 347.068 363.152 347.114 362.884 347.204C362.635 347.295 362.51 347.512 362.51 347.856C362.51 348.092 362.555 348.336 362.644 348.589L365.046 356.28L367.956 346.471L368.944 346.497L369.904 346.471L373.375 356.85L375.056 351.389C375.306 350.538 375.43 349.849 375.43 349.324C375.43 347.911 374.727 347.15 373.321 347.041V346.497C374.158 346.552 375.074 346.579 376.07 346.579ZM408.114 357.394C408.114 358.194 408.245 358.776 408.503 359.141C408.781 359.506 409.243 359.688 409.89 359.688V360.236C409.316 360.184 408.744 360.157 408.17 360.157C406.561 360.157 405.212 360.279 404.12 360.523V358.176C403.27 359.793 401.781 360.6 399.654 360.6C398.267 360.6 397.259 360.262 396.63 359.584C396.334 359.254 396.113 358.828 395.965 358.306C395.835 357.768 395.771 357.064 395.771 356.195V349.599C395.771 348.8 395.632 348.218 395.354 347.852C395.096 347.488 394.642 347.305 393.995 347.305V346.757C394.568 346.809 395.141 346.835 395.715 346.835C397.324 346.835 398.673 346.714 399.765 346.471V357.264C399.765 357.994 399.875 358.542 400.097 358.906C400.338 359.272 400.783 359.454 401.429 359.454C402.169 359.454 402.798 359.167 403.315 358.593C403.852 358.002 404.12 357.281 404.12 356.43V349.599C404.12 348.8 403.982 348.218 403.704 347.852C403.445 347.488 402.992 347.305 402.345 347.305V346.757C402.936 346.809 403.51 346.835 404.065 346.835C405.674 346.835 407.023 346.714 408.114 346.471V357.394ZM423.365 347.189C422.931 346.71 422.286 346.471 421.433 346.471C420.581 346.471 419.813 346.71 419.131 347.189C418.449 347.651 417.928 348.262 417.569 349.025V346.551C416.488 346.799 415.105 346.923 413.419 346.923C412.851 346.923 412.263 346.896 411.656 346.843V347.402C412.339 347.402 412.813 347.589 413.078 347.961C413.343 348.334 413.475 348.928 413.475 349.744V358.125C413.475 358.853 413.343 359.358 413.078 359.643C412.813 359.908 412.339 360.041 411.656 360.041V360.6C411.884 360.6 412.073 360.591 412.225 360.574C414.043 360.52 415.209 360.494 415.72 360.494C416.365 360.494 417.653 360.52 419.586 360.574C419.757 360.591 419.974 360.6 420.24 360.6V360.041C419.312 360.041 418.629 359.882 418.193 359.563C417.776 359.243 417.569 358.675 417.569 357.859V350.808C417.569 350.063 417.814 349.335 418.307 348.626C418.819 347.917 419.434 347.509 420.154 347.402C420.269 347.367 420.419 347.348 420.609 347.348C420.761 347.348 420.875 347.358 420.95 347.375C420.117 347.907 419.7 348.6 419.7 349.451C419.7 349.966 419.889 350.383 420.268 350.701C420.648 351.004 421.159 351.154 421.803 351.154C422.466 351.154 422.997 350.95 423.394 350.542C423.811 350.117 424.02 349.575 424.02 348.919C424.02 348.245 423.802 347.668 423.365 347.189Z" fill="black"/>
<defs>
<filter id="filter0_dd_4003_2633" x="0.785409" y="492.385" width="75.2534" height="75.2534" filterUnits="userSpaceOnUse" color-interpolation-filters="sRGB">
<feFlood flood-opacity="0" result="BackgroundImageFix"/>
<feColorMatrix in="SourceAlpha" type="matrix" values="0 0 0 0 0 0 0 0 0 0 0 0 0 0 0 0 0 0 127 0" result="hardAlpha"/>
<feMorphology radius="7.56" operator="erode" in="SourceAlpha" result="effect1_dropShadow_4003_2633"/>
<feOffset dy="7.56"/>
<feGaussianBlur stdDeviation="7.56"/>
<feComposite in2="hardAlpha" operator="out"/>
<feColorMatrix type="matrix" values="0 0 0 0 0 0 0 0 0 0 0 0 0 0 0 0 0 0 0.1 0"/>
<feBlend mode="normal" in2="BackgroundImageFix" result="effect1_dropShadow_4003_2633"/>
<feColorMatrix in="SourceAlpha" type="matrix" values="0 0 0 0 0 0 0 0 0 0 0 0 0 0 0 0 0 0 127 0" result="hardAlpha"/>
<feMorphology radius="11.5733" operator="erode" in="SourceAlpha" result="effect2_dropShadow_4003_2633"/>
<feOffset dy="12.6"/>
<feGaussianBlur stdDeviation="12.6"/>
<feComposite in2="hardAlpha" operator="out"/>
<feColorMatrix type="matrix" values="0 0 0 0 0.196078 0 0 0 0 0.196078 0 0 0 0 0.364706 0 0 0 0.25 0"/>
<feBlend mode="normal" in2="effect1_dropShadow_4003_2633" result="effect2_dropShadow_4003_2633"/>
<feBlend mode="normal" in="SourceGraphic" in2="effect2_dropShadow_4003_2633" result="shape"/>
</filter>
<filter id="filter1_dd_4003_2633" x="17.6426" y="108.143" width="507" height="373" filterUnits="userSpaceOnUse" color-interpolation-filters="sRGB">
<feFlood flood-opacity="0" result="BackgroundImageFix"/>
<feColorMatrix in="SourceAlpha" type="matrix" values="0 0 0 0 0 0 0 0 0 0 0 0 0 0 0 0 0 0 127 0" result="hardAlpha"/>
<feMorphology radius="30" operator="erode" in="SourceAlpha" result="effect1_dropShadow_4003_2633"/>
<feOffset dy="30"/>
<feGaussianBlur stdDeviation="30"/>
<feComposite in2="hardAlpha" operator="out"/>
<feColorMatrix type="matrix" values="0 0 0 0 0 0 0 0 0 0 0 0 0 0 0 0 0 0 0.3 0"/>
<feBlend mode="normal" in2="BackgroundImageFix" result="effect1_dropShadow_4003_2633"/>
<feColorMatrix in="SourceAlpha" type="matrix" values="0 0 0 0 0 0 0 0 0 0 0 0 0 0 0 0 0 0 127 0" result="hardAlpha"/>
<feMorphology radius="20" operator="erode" in="SourceAlpha" result="effect2_dropShadow_4003_2633"/>
<feOffset dy="50"/>
<feGaussianBlur stdDeviation="50"/>
<feComposite in2="hardAlpha" operator="out"/>
<feColorMatrix type="matrix" values="0 0 0 0 0.196078 0 0 0 0 0.196078 0 0 0 0 0.364706 0 0 0 0.25 0"/>
<feBlend mode="normal" in2="effect1_dropShadow_4003_2633" result="effect2_dropShadow_4003_2633"/>
<feBlend mode="normal" in="SourceGraphic" in2="effect2_dropShadow_4003_2633" result="shape"/>
</filter>
<filter id="filter2_dd_4003_2633" x="17.6426" y="201.143" width="507" height="373" filterUnits="userSpaceOnUse" color-interpolation-filters="sRGB">
<feFlood flood-opacity="0" result="BackgroundImageFix"/>
<feColorMatrix in="SourceAlpha" type="matrix" values="0 0 0 0 0 0 0 0 0 0 0 0 0 0 0 0 0 0 127 0" result="hardAlpha"/>
<feMorphology radius="30" operator="erode" in="SourceAlpha" result="effect1_dropShadow_4003_2633"/>
<feOffset dy="30"/>
<feGaussianBlur stdDeviation="30"/>
<feComposite in2="hardAlpha" operator="out"/>
<feColorMatrix type="matrix" values="0 0 0 0 0 0 0 0 0 0 0 0 0 0 0 0 0 0 0.3 0"/>
<feBlend mode="normal" in2="BackgroundImageFix" result="effect1_dropShadow_4003_2633"/>
<feColorMatrix in="SourceAlpha" type="matrix" values="0 0 0 0 0 0 0 0 0 0 0 0 0 0 0 0 0 0 127 0" result="hardAlpha"/>
<feMorphology radius="20" operator="erode" in="SourceAlpha" result="effect2_dropShadow_4003_2633"/>
<feOffset dy="50"/>
<feGaussianBlur stdDeviation="50"/>
<feComposite in2="hardAlpha" operator="out"/>
<feColorMatrix type="matrix" values="0 0 0 0 0.196078 0 0 0 0 0.196078 0 0 0 0 0.364706 0 0 0 0.25 0"/>
<feBlend mode="normal" in2="effect1_dropShadow_4003_2633" result="effect2_dropShadow_4003_2633"/>
<feBlend mode="normal" in="SourceGraphic" in2="effect2_dropShadow_4003_2633" result="shape"/>
</filter>
<filter id="filter3_dd_4003_2633" x="17.6426" y="294.143" width="507" height="373" filterUnits="userSpaceOnUse" color-interpolation-filters="sRGB">
<feFlood flood-opacity="0" result="BackgroundImageFix"/>
<feColorMatrix in="SourceAlpha" type="matrix" values="0 0 0 0 0 0 0 0 0 0 0 0 0 0 0 0 0 0 127 0" result="hardAlpha"/>
<feMorphology radius="30" operator="erode" in="SourceAlpha" result="effect1_dropShadow_4003_2633"/>
<feOffset dy="30"/>
<feGaussianBlur stdDeviation="30"/>
<feComposite in2="hardAlpha" operator="out"/>
<feColorMatrix type="matrix" values="0 0 0 0 0 0 0 0 0 0 0 0 0 0 0 0 0 0 0.3 0"/>
<feBlend mode="normal" in2="BackgroundImageFix" result="effect1_dropShadow_4003_2633"/>
<feColorMatrix in="SourceAlpha" type="matrix" values="0 0 0 0 0 0 0 0 0 0 0 0 0 0 0 0 0 0 127 0" result="hardAlpha"/>
<feMorphology radius="20" operator="erode" in="SourceAlpha" result="effect2_dropShadow_4003_2633"/>
<feOffset dy="50"/>
<feGaussianBlur stdDeviation="50"/>
<feComposite in2="hardAlpha" operator="out"/>
<feColorMatrix type="matrix" values="0 0 0 0 0.196078 0 0 0 0 0.196078 0 0 0 0 0.364706 0 0 0 0.25 0"/>
<feBlend mode="normal" in2="effect1_dropShadow_4003_2633" result="effect2_dropShadow_4003_2633"/>
<feBlend mode="normal" in="SourceGraphic" in2="effect2_dropShadow_4003_2633" result="shape"/>
</filter>
<linearGradient id="paint0_linear_4003_2633" x1="37.4121" y1="227.143" x2="38.4121" y2="227.143" gradientUnits="userSpaceOnUse">
<stop stop-color="#FF80FF"/>
<stop offset="1" stop-color="#0073E6"/>
</linearGradient>
<linearGradient id="paint1_linear_4003_2633" x1="37.4121" y1="411.143" x2="38.4121" y2="411.143" gradientUnits="userSpaceOnUse">
<stop stop-color="#11EFE3"/>
<stop offset="1" stop-color="#0073E6"/>
</linearGradient>
<linearGradient id="paint2_linear_4003_2633" x1="34.5906" y1="507.435" x2="34.5906" y2="514.818" gradientUnits="userSpaceOnUse">
<stop stop-color="#11EFE3"/>
<stop offset="0.33" stop-color="#15E8E2"/>
<stop offset="0.74" stop-color="#1FD3E0"/>
<stop offset="1" stop-color="#21CFE0"/>
</linearGradient>
<linearGradient id="paint3_linear_4003_2633" x1="38.4072" y1="515.074" x2="38.4072" y2="521.355" gradientUnits="userSpaceOnUse">
<stop stop-color="#00299C"/>
<stop offset="1" stop-color="#0073E6"/>
</linearGradient>
<linearGradient id="paint4_linear_4003_2633" x1="436.862" y1="252.672" x2="437.862" y2="252.672" gradientUnits="userSpaceOnUse">
<stop stop-color="#1DF5E9"/>
<stop offset="1" stop-color="#00D924"/>
</linearGradient>
<linearGradient id="paint5_linear_4003_2633" x1="436.862" y1="283.143" x2="437.862" y2="283.143" gradientUnits="userSpaceOnUse">
<stop stop-color="#1DF5E9"/>
<stop offset="1" stop-color="#00D924"/>
</linearGradient>
<linearGradient id="paint6_linear_4003_2633" x1="875.187" y1="199.99" x2="864.075" y2="403.972" gradientUnits="userSpaceOnUse">
<stop offset="0.614583" stop-color="#27BB86"/>
<stop offset="1" stop-color="white"/>
</linearGradient>
<linearGradient id="paint7_linear_4003_2633" x1="875.541" y1="207.587" x2="864.428" y2="411.57" gradientUnits="userSpaceOnUse">
<stop offset="0.614583" stop-color="#27BB86"/>
<stop offset="1" stop-color="white"/>
</linearGradient>
<linearGradient id="paint8_linear_4003_2633" x1="874.77" y1="194.154" x2="863.658" y2="398.137" gradientUnits="userSpaceOnUse">
<stop offset="0.614583" stop-color="#27BB86"/>
<stop offset="1" stop-color="white"/>
</linearGradient>
<linearGradient id="paint9_linear_4003_2633" x1="872.821" y1="187.087" x2="861.709" y2="391.07" gradientUnits="userSpaceOnUse">
<stop offset="0.614583" stop-color="#27BB86"/>
<stop offset="1" stop-color="white"/>
</linearGradient>
<linearGradient id="paint10_linear_4003_2633" x1="871.995" y1="180.847" x2="860.882" y2="384.83" gradientUnits="userSpaceOnUse">
<stop offset="0.614583" stop-color="#27BB86"/>
<stop offset="1" stop-color="white"/>
</linearGradient>
<linearGradient id="paint11_linear_4003_2633" x1="871.167" y1="174.609" x2="860.054" y2="378.591" gradientUnits="userSpaceOnUse">
<stop offset="0.614583" stop-color="#27BB86"/>
<stop offset="1" stop-color="white"/>
</linearGradient>
<linearGradient id="paint12_linear_4003_2633" x1="879.613" y1="233.288" x2="868.501" y2="437.271" gradientUnits="userSpaceOnUse">
<stop offset="0.614583" stop-color="#27BB86"/>
<stop offset="1" stop-color="white"/>
</linearGradient>
<linearGradient id="paint13_linear_4003_2633" x1="879.966" y1="240.886" x2="868.854" y2="444.869" gradientUnits="userSpaceOnUse">
<stop offset="0.614583" stop-color="#27BB86"/>
<stop offset="1" stop-color="white"/>
</linearGradient>
<linearGradient id="paint14_linear_4003_2633" x1="879.196" y1="227.452" x2="868.084" y2="431.435" gradientUnits="userSpaceOnUse">
<stop offset="0.614583" stop-color="#27BB86"/>
<stop offset="1" stop-color="white"/>
</linearGradient>
<linearGradient id="paint15_linear_4003_2633" x1="877.247" y1="220.386" x2="866.134" y2="424.369" gradientUnits="userSpaceOnUse">
<stop offset="0.614583" stop-color="#27BB86"/>
<stop offset="1" stop-color="white"/>
</linearGradient>
<linearGradient id="paint16_linear_4003_2633" x1="876.421" y1="214.146" x2="865.308" y2="418.129" gradientUnits="userSpaceOnUse">
<stop offset="0.614583" stop-color="#27BB86"/>
<stop offset="1" stop-color="white"/>
</linearGradient>
<linearGradient id="paint17_linear_4003_2633" x1="875.592" y1="207.908" x2="864.48" y2="411.89" gradientUnits="userSpaceOnUse">
<stop offset="0.614583" stop-color="#27BB86"/>
<stop offset="1" stop-color="white"/>
</linearGradient>
</defs>
</svg>
