<svg width="21" height="21" viewBox="0 0 21 21" fill="none" xmlns="http://www.w3.org/2000/svg">
<path d="M13.1426 1.87258C13.1426 1.19258 12.5926 0.642578 11.9076 0.642578H1.37758C1.05091 0.642575 0.737533 0.772005 0.506069 1.00253C0.274605 1.23306 0.143906 1.5459 0.142583 1.87258V16.9126C0.142006 17.1183 0.19304 17.3209 0.291015 17.5018C0.38899 17.6827 0.530775 17.8361 0.703393 17.9481C0.87601 18.06 1.07395 18.1268 1.27908 18.1425C1.48421 18.1581 1.68999 18.122 1.87758 18.0376L6.97758 15.7726L12.4076 13.3576C12.8576 13.1576 13.1426 12.7226 13.1426 12.2326V1.87258Z" fill="url(#paint0_linear_4003_2806)"/>
<path d="M13.3926 20.1426C15.1828 20.1426 16.8997 19.4314 18.1655 18.1655C19.4314 16.8997 20.1426 15.1828 20.1426 13.3926C20.1426 11.6024 19.4314 9.88548 18.1655 8.61961C16.8997 7.35374 15.1828 6.64258 13.3926 6.64258C11.6024 6.64258 9.88548 7.35374 8.61961 8.61961C7.35374 9.88548 6.64258 11.6024 6.64258 13.3926C6.64258 15.1828 7.35374 16.8997 8.61961 18.1655C9.88548 19.4314 11.6024 20.1426 13.3926 20.1426Z" fill="#00D924"/>
<path d="M13.1428 6.64258V12.2326C13.1428 12.7226 12.8578 13.1626 12.4078 13.3576L7.05779 15.7376C6.68598 14.7361 6.55717 13.6607 6.68195 12.5997C6.80674 11.5388 7.18155 10.5226 7.77558 9.63473C8.36961 8.74686 9.16589 8.01266 10.099 7.49248C11.032 6.97231 12.0752 6.68103 13.1428 6.64258Z" fill="url(#paint1_linear_4003_2806)"/>
<defs>
<linearGradient id="paint0_linear_4003_2806" x1="6.64258" y1="3.81758" x2="6.64258" y2="18.1576" gradientUnits="userSpaceOnUse">
<stop stop-color="#FFD748"/>
<stop offset="1" stop-color="#FFC148"/>
</linearGradient>
<linearGradient id="paint1_linear_4003_2806" x1="9.89279" y1="6.64758" x2="9.89279" y2="15.7376" gradientUnits="userSpaceOnUse">
<stop stop-color="#00A600"/>
<stop offset="1" stop-color="#00D924"/>
</linearGradient>
</defs>
</svg>
