<svg width="21" height="21" viewBox="0 0 21 21" fill="none" xmlns="http://www.w3.org/2000/svg">
<path d="M6.37806 0.648193C4.70572 0.754097 3.13876 1.50127 2.00373 2.734C0.868694 3.96674 0.253153 5.58993 0.285384 7.26531C0.317616 8.94069 0.995132 10.539 2.17674 11.7272C3.35835 12.9153 4.95289 13.6017 6.62806 13.6432H11.9031C12.5881 13.6432 13.1431 13.0932 13.1431 12.4032V7.14819C13.1445 6.27163 12.9685 5.40385 12.6256 4.59713C12.2828 3.7904 11.7802 3.06142 11.1481 2.45411C10.516 1.84679 9.76754 1.3737 8.94776 1.06333C8.12798 0.752968 7.25387 0.611753 6.37806 0.648193Z" fill="url(#paint0_linear_4003_2840)"/>
<path d="M13.9076 20.6376C15.5799 20.5317 17.1469 19.7845 18.2819 18.5518C19.417 17.319 20.0325 15.6958 20.0003 14.0205C19.968 12.3451 19.2905 10.7468 18.1089 9.5586C16.9273 8.37043 15.3328 7.68408 13.6576 7.64258H8.38259C8.05372 7.64258 7.73832 7.77322 7.50577 8.00577C7.27323 8.23831 7.14259 8.55371 7.14259 8.88258V14.1376C7.14115 15.0141 7.31717 15.8819 7.66003 16.6886C8.00288 17.4954 8.50549 18.2243 9.13757 18.8317C9.76964 19.439 10.5181 19.9121 11.3379 20.2224C12.1577 20.5328 13.0318 20.674 13.9076 20.6376Z" fill="#0073E6"/>
<path d="M13.1426 7.64172V12.4017C13.1426 12.7306 13.0119 13.046 12.7794 13.2785C12.5468 13.5111 12.2314 13.6417 11.9026 13.6417H7.14258V8.88172C7.14192 8.56625 7.26153 8.2624 7.47704 8.03202C7.69255 7.80164 7.98777 7.66207 8.30258 7.64172L8.38258 7.63672H13.1426V7.64172Z" fill="url(#paint1_linear_4003_2840)"/>
<defs>
<linearGradient id="paint0_linear_4003_2840" x1="6.64306" y1="1.49819" x2="6.64306" y2="8.26819" gradientUnits="userSpaceOnUse">
<stop stop-color="#11EFE3"/>
<stop offset="0.33" stop-color="#15E8E2"/>
<stop offset="0.74" stop-color="#1FD3E0"/>
<stop offset="1" stop-color="#21CFE0"/>
</linearGradient>
<linearGradient id="paint1_linear_4003_2840" x1="10.1426" y1="8.50172" x2="10.1426" y2="14.2617" gradientUnits="userSpaceOnUse">
<stop stop-color="#00299C"/>
<stop offset="1" stop-color="#0073E6"/>
</linearGradient>
</defs>
</svg>
