<svg width="339" height="225" viewBox="0 0 339 225" fill="none" xmlns="http://www.w3.org/2000/svg">
<g clip-path="url(#clip0_4003_3819)">
<rect x="4.14258" y="4.17383" width="330.66" height="220.44" rx="4" fill="#F6F9FC"/>
<g clip-path="url(#clip1_4003_3819)">
<g clip-path="url(#clip2_4003_3819)">
<g clip-path="url(#clip3_4003_3819)">
<g clip-path="url(#clip4_4003_3819)">
<g clip-path="url(#clip5_4003_3819)">
<mask id="mask0_4003_3819" style="mask-type:luminance" maskUnits="userSpaceOnUse" x="4" y="7" width="359" height="251">
<path d="M362.433 7.13672H4.14258V257.841H362.433V7.13672Z" fill="white"/>
</mask>
<g mask="url(#mask0_4003_3819)">
<path d="M98.7135 257.852C125.969 257.852 148.065 235.533 148.065 208.002C148.065 180.471 125.969 158.152 98.7135 158.152C71.4576 158.152 49.3623 180.471 49.3623 208.002C49.3623 235.533 71.4576 257.852 98.7135 257.852Z" fill="#0077C5"/>
<path fill-rule="evenodd" clip-rule="evenodd" d="M118.704 213.569C118.575 213.568 118.452 213.514 118.361 213.421C118.27 213.326 118.218 213.198 118.218 213.064C118.223 212.934 118.277 212.812 118.367 212.722C118.458 212.632 118.578 212.582 118.704 212.582C118.829 212.582 118.95 212.632 119.04 212.722C119.131 212.812 119.184 212.934 119.19 213.064C119.19 213.341 118.973 213.569 118.704 213.569ZM118.704 212.467C118.385 212.467 118.126 212.733 118.126 213.064C118.126 213.396 118.385 213.656 118.704 213.656C119.024 213.656 119.282 213.395 119.282 213.064C119.282 212.733 119.024 212.467 118.704 212.467ZM118.595 213.019V212.827H118.702C118.763 212.827 118.831 212.847 118.831 212.92C118.831 213.001 118.755 213.019 118.689 213.019H118.595ZM118.948 212.922C118.948 212.778 118.828 212.725 118.707 212.725H118.48V213.397H118.595V213.117H118.679L118.831 213.398H118.973L118.798 213.104C118.889 213.083 118.948 213.02 118.948 212.922ZM115.311 204.395C115.468 204.399 115.624 204.37 115.77 204.309C115.916 204.249 116.05 204.159 116.162 204.046C116.274 203.931 116.364 203.795 116.424 203.645C116.485 203.495 116.517 203.333 116.517 203.17C116.517 203.008 116.485 202.847 116.424 202.696C116.364 202.546 116.275 202.409 116.162 202.296C116.05 202.181 115.917 202.092 115.771 202.031C115.625 201.971 115.469 201.943 115.312 201.946C115.003 201.951 114.709 202.084 114.492 202.313C114.276 202.542 114.155 202.85 114.155 203.17C114.155 203.491 114.276 203.799 114.492 204.028C114.709 204.257 115.003 204.389 115.312 204.395H115.311ZM112.144 205.453V207.251H114.334V213.57H116.289V207.251H118.479V205.453H112.144ZM95.0956 204.395C95.2507 204.395 95.4043 204.364 95.5475 204.303C95.6907 204.24 95.8209 204.151 95.9306 204.037C96.0402 203.924 96.1272 203.788 96.1865 203.639C96.2459 203.49 96.2764 203.331 96.2764 203.17C96.2764 203.01 96.2459 202.851 96.1865 202.702C96.1272 202.553 96.0402 202.418 95.9306 202.304C95.8209 202.19 95.6907 202.1 95.5475 202.038C95.4043 201.977 95.2507 201.946 95.0956 201.946C94.7867 201.951 94.4924 202.084 94.2761 202.313C94.0598 202.542 93.9386 202.85 93.9386 203.17C93.9386 203.491 94.0598 203.799 94.2761 204.028C94.4924 204.257 94.7867 204.389 95.0956 204.395ZM91.9279 207.25H94.1184V213.57H96.072V207.251H98.263V205.453H91.9284V207.251L91.9279 207.25ZM108.821 213.57H110.775V205.458H108.821V213.57ZM104.867 209.92C104.867 211.001 104.279 212.116 103.043 212.116C101.789 212.116 101.578 210.917 101.578 209.953V205.458H99.6233V210.528C99.6233 212.184 100.47 213.806 102.506 213.806C103.662 213.806 104.589 213.079 104.932 212.268H104.964V213.57H106.82V205.458H104.867V209.92ZM88.0507 205.221C86.8946 205.221 85.9667 205.949 85.6247 206.759H85.5918V205.458H83.736V213.57H85.6897V209.108C85.6897 208.027 86.2762 206.911 87.5135 206.911C88.7668 206.911 88.979 208.111 88.979 209.075V213.57H90.9327V208.499C90.9327 206.844 90.0867 205.221 88.0507 205.221ZM79.7803 213.57H81.7339V205.458H79.7803V213.57Z" fill="white"/>
<path d="M176.166 136.437C203.422 136.437 225.517 114.342 225.517 87.0856C225.517 59.8297 203.422 37.7344 176.166 37.7344C148.91 37.7344 126.814 59.8297 126.814 87.0856C126.814 114.342 148.91 136.437 176.166 136.437Z" fill="black"/>
<path fill-rule="evenodd" clip-rule="evenodd" d="M146.155 84.7673C146.889 84.7673 147.579 85.0647 148.096 85.6048C149.167 86.7218 149.167 88.5393 148.096 89.6561L144.015 93.9134L143.278 93.1446L147.359 88.8871C147.681 88.552 147.858 88.1058 147.858 87.6303C147.858 87.1551 147.681 86.7089 147.359 86.3739C146.695 85.6813 145.614 85.6811 144.95 86.374L140.22 91.3084L139.483 90.5393L144.213 85.6052C144.731 85.0649 145.421 84.7675 146.155 84.7673ZM145.782 87.2393L146.515 88.0094L141.807 92.9508C141.292 93.4919 140.606 93.7896 139.876 93.7898C139.144 93.7898 138.458 93.492 137.943 92.9512L137.576 92.5661L138.309 91.796L138.676 92.181C139.338 92.8749 140.412 92.8746 141.074 92.1808L145.782 87.2393ZM161.049 84.3965C161.496 84.3965 161.905 84.4765 162.275 84.6363C162.644 84.7962 162.959 85.0197 163.219 85.3075C163.477 85.5953 163.679 85.9395 163.823 86.3405C163.966 86.7415 164.038 87.1802 164.038 87.6567C164.038 88.1509 163.962 88.5968 163.81 88.9949C163.658 89.393 163.442 89.7372 163.16 90.0277L163.955 91.0128V91.3179H162.945L162.391 90.6033C162.197 90.6962 161.99 90.7688 161.77 90.8211C161.549 90.8734 161.312 90.8995 161.058 90.8995C160.6 90.8995 160.188 90.8195 159.82 90.6599C159.453 90.5 159.141 90.2762 158.885 89.9886C158.628 89.7009 158.43 89.3582 158.289 88.9598C158.148 88.5619 158.078 88.1276 158.078 87.6567C158.078 87.1802 158.148 86.7431 158.289 86.3447C158.43 85.9468 158.63 85.6039 158.89 85.3161C159.148 85.0285 159.461 84.8034 159.828 84.6405C160.195 84.4781 160.603 84.3965 161.049 84.3965ZM166.746 84.3965V88.2317C166.746 88.8039 166.864 89.2285 167.101 89.5059C167.338 89.7832 167.667 89.9217 168.091 89.9217C168.514 89.9217 168.844 89.7832 169.081 89.5059C169.316 89.2285 169.435 88.8039 169.435 88.2317V84.3965H170.474V88.258C170.474 88.7134 170.42 89.1029 170.309 89.427C170.199 89.7509 170.043 90.0165 169.84 90.2239C169.636 90.4312 169.386 90.5829 169.088 90.6792C168.791 90.7756 168.459 90.8235 168.091 90.8235C167.717 90.8235 167.382 90.7756 167.089 90.6792C166.794 90.5829 166.545 90.4312 166.342 90.2239C166.138 90.0165 165.981 89.7509 165.872 89.427C165.761 89.1029 165.707 88.7134 165.707 88.258V84.3965H166.746ZM154.531 84.2729C155.144 84.2729 155.629 84.4261 155.989 84.7326C156.347 85.0393 156.557 85.4494 156.617 85.9631L155.624 86.0507C155.563 85.7879 155.442 85.5836 155.259 85.4377C155.078 85.2918 154.823 85.2187 154.498 85.2187C154.194 85.2187 153.956 85.2931 153.786 85.4421C153.614 85.591 153.529 85.7823 153.529 86.0157C153.529 86.15 153.554 86.2622 153.603 86.3527C153.653 86.4434 153.724 86.5222 153.819 86.5892C153.913 86.6564 154.027 86.7162 154.163 86.7686C154.298 86.8213 154.451 86.877 154.622 86.9352L155.044 87.0753C155.31 87.1629 155.548 87.2547 155.761 87.3511C155.973 87.4474 156.154 87.5628 156.303 87.6971C156.452 87.8314 156.567 87.992 156.646 88.1788C156.727 88.3656 156.766 88.5963 156.766 88.8706C156.766 89.1627 156.711 89.4298 156.602 89.6719C156.49 89.9143 156.336 90.1201 156.138 90.2893C155.938 90.4586 155.702 90.5901 155.429 90.6833C155.156 90.7767 154.854 90.8235 154.523 90.8235C153.91 90.8235 153.399 90.6718 152.991 90.3681C152.582 90.0645 152.331 89.6062 152.237 88.9931L153.248 88.8968C153.308 89.212 153.45 89.4589 153.674 89.6367C153.897 89.815 154.191 89.9039 154.556 89.9039C154.915 89.9039 155.192 89.8164 155.388 89.6412C155.584 89.4662 155.682 89.2355 155.682 88.9494C155.682 88.8092 155.656 88.6911 155.604 88.5946C155.55 88.4983 155.477 88.4167 155.384 88.3495C155.29 88.2825 155.174 88.2254 155.036 88.1788C154.898 88.132 154.743 88.0825 154.572 88.0299L154.125 87.8986C153.86 87.8227 153.623 87.7308 153.413 87.6226C153.203 87.5146 153.024 87.3876 152.875 87.2417C152.726 87.0957 152.612 86.928 152.535 86.7381C152.458 86.5484 152.42 86.3278 152.42 86.0769C152.42 85.8142 152.469 85.572 152.569 85.35C152.667 85.1284 152.809 84.9383 152.991 84.7808C153.173 84.6232 153.394 84.4992 153.653 84.4085C153.913 84.3184 154.205 84.2729 154.531 84.2729ZM210.045 84.3965C210.702 84.3965 211.253 84.5547 211.696 84.8704C212.14 85.1861 212.453 85.6055 212.638 86.1282L211.576 86.3434C211.431 86.0277 211.229 85.7791 210.969 85.5982C210.71 85.4174 210.396 85.327 210.028 85.327C209.733 85.327 209.47 85.3856 209.239 85.503C209.007 85.6203 208.812 85.7819 208.653 85.9879C208.494 86.1938 208.373 86.437 208.289 86.7175C208.206 86.9978 208.164 87.2982 208.164 87.6186C208.164 87.9447 208.207 88.2466 208.293 88.5242C208.38 88.8019 208.505 89.042 208.67 89.2452C208.834 89.4483 209.033 89.6069 209.267 89.7213C209.501 89.8359 209.77 89.8932 210.071 89.8932C210.461 89.8932 210.782 89.7955 211.036 89.6001C211.29 89.4049 211.486 89.1665 211.625 88.885L212.671 89.066C212.576 89.3074 212.452 89.5344 212.298 89.7474C212.145 89.9604 211.96 90.1469 211.743 90.3063C211.526 90.4656 211.273 90.5917 210.986 90.6844C210.699 90.7771 210.38 90.8235 210.028 90.8235C209.582 90.8235 209.177 90.743 208.812 90.5821C208.447 90.4215 208.135 90.1989 207.877 89.9147C207.619 89.6302 207.42 89.2916 207.279 88.898C207.138 88.5047 207.068 88.0782 207.068 87.6186C207.068 87.1593 207.138 86.7328 207.279 86.3393C207.42 85.946 207.62 85.6055 207.882 85.3183C208.142 85.0314 208.455 84.8056 208.82 84.6422C209.185 84.4783 209.594 84.3965 210.045 84.3965ZM192.078 84.2729C192.691 84.2729 193.177 84.4261 193.536 84.7326C193.894 85.0393 194.105 85.4494 194.165 85.9631L193.172 86.0507C193.111 85.7879 192.989 85.5836 192.808 85.4377C192.625 85.2918 192.371 85.2187 192.046 85.2187C191.742 85.2187 191.504 85.2931 191.333 85.4421C191.162 85.591 191.076 85.7823 191.076 86.0157C191.076 86.15 191.101 86.2622 191.151 86.3527C191.201 86.4434 191.273 86.5222 191.367 86.5892C191.46 86.6564 191.575 86.7162 191.71 86.7686C191.845 86.8213 191.998 86.877 192.169 86.9352L192.592 87.0753C192.857 87.1629 193.096 87.2547 193.308 87.3511C193.52 87.4474 193.702 87.5628 193.85 87.6971C193.999 87.8314 194.114 87.992 194.194 88.1788C194.274 88.3656 194.314 88.5963 194.314 88.8706C194.314 89.1627 194.259 89.4298 194.149 89.6719C194.038 89.9143 193.884 90.1201 193.685 90.2893C193.486 90.4586 193.25 90.5901 192.976 90.6833C192.703 90.7767 192.401 90.8235 192.07 90.8235C191.457 90.8235 190.947 90.6718 190.539 90.3681C190.13 90.0645 189.878 89.6062 189.784 88.9931L190.795 88.8968C190.855 89.212 190.997 89.4589 191.222 89.6367C191.445 89.815 191.739 89.9039 192.103 89.9039C192.462 89.9039 192.74 89.8164 192.936 89.6412C193.131 89.4662 193.229 89.2355 193.229 88.9494C193.229 88.8092 193.203 88.6911 193.151 88.5946C193.099 88.4983 193.025 88.4167 192.931 88.3495C192.837 88.2825 192.722 88.2254 192.584 88.1788C192.445 88.132 192.29 88.0825 192.12 88.0299L191.673 87.8986C191.408 87.8227 191.17 87.7308 190.961 87.6226C190.751 87.5146 190.571 87.3876 190.423 87.2417C190.273 87.0957 190.16 86.928 190.083 86.7381C190.006 86.5484 189.967 86.3278 189.967 86.0769C189.967 85.8142 190.016 85.572 190.116 85.35C190.216 85.1284 190.356 84.9383 190.539 84.7808C190.72 84.6232 190.941 84.4992 191.201 84.4085C191.46 84.3184 191.753 84.2729 192.078 84.2729ZM175.273 84.5202L177.388 90.3987V90.7H176.347L175.743 88.9355H173.133L172.529 90.7H171.547V90.3987L173.687 84.5202H175.273ZM180.636 84.5202C180.941 84.5202 181.23 84.5416 181.504 84.5847C181.779 84.6277 182.026 84.7267 182.248 84.8815C182.719 85.2027 182.954 85.6876 182.954 86.3357C182.954 86.6169 182.915 86.8622 182.834 87.0717C182.754 87.281 182.647 87.4588 182.514 87.6051C182.381 87.7515 182.227 87.8705 182.053 87.9621C181.878 88.0539 181.697 88.1227 181.508 88.1685L183.229 90.3985V90.7H182.223L180.403 88.2728H179.73V90.7H178.699V84.5202H180.636ZM188.415 84.5202V85.4669H185.565V87.085H188.215V88.0145H185.565V89.7531H188.474V90.7H184.54V84.5202H188.415ZM198.077 84.5202C198.489 84.5202 198.833 84.5689 199.113 84.6665C199.391 84.764 199.616 84.8987 199.789 85.0711C199.96 85.2431 200.084 85.4453 200.16 85.6779C200.236 85.9101 200.275 86.1612 200.275 86.4309C200.275 86.7524 200.222 87.0319 200.118 87.27C200.014 87.5081 199.863 87.7045 199.666 87.8596C199.469 88.0145 199.229 88.1306 198.948 88.2082C198.666 88.2857 198.348 88.3244 197.994 88.3244H196.92V90.7H195.864V84.5202H198.077ZM204.238 84.5202L206.354 90.3987V90.7H205.313L204.708 88.9355H202.099L201.494 90.7H200.512V90.3987L202.652 84.5202H204.238ZM217.931 84.4456V85.4014H215.065V87.0352H217.731V87.9737H215.065V89.7292H217.991V90.6853H214.035V84.4456H217.931ZM138.885 81.3066L139.622 82.0755L135.54 86.333C134.875 87.0259 134.875 88.1533 135.54 88.8462C136.204 89.5389 137.285 89.5388 137.949 88.8459L142.679 83.9117L143.416 84.6808L138.686 89.6149C138.168 90.155 137.479 90.4528 136.744 90.4528C136.01 90.4528 135.32 90.1551 134.803 89.6151C133.732 88.4984 133.732 86.681 134.803 85.5641L138.885 81.3066ZM161.041 85.338C160.743 85.338 160.477 85.3961 160.243 85.5121C160.008 85.6281 159.809 85.789 159.647 85.9948C159.484 86.2008 159.359 86.4446 159.274 86.7256C159.189 87.0072 159.146 87.3132 159.146 87.6436C159.146 87.9744 159.19 88.2818 159.278 88.5661C159.366 88.8503 159.492 89.0967 159.655 89.3057C159.817 89.5143 160.016 89.6782 160.251 89.7973C160.486 89.9161 160.751 89.9754 161.049 89.9754C161.347 89.9754 161.614 89.919 161.849 89.8059C162.083 89.6928 162.282 89.5348 162.445 89.3315C162.607 89.1287 162.733 88.8834 162.821 88.5965C162.909 88.3093 162.953 87.9946 162.953 87.6524C162.953 87.316 162.909 87.0056 162.821 86.7215C162.733 86.4374 162.607 86.1937 162.445 85.9906C162.282 85.7877 162.082 85.6281 161.844 85.5121C161.607 85.3961 161.339 85.338 161.041 85.338ZM174.594 85.4499H174.334L174.233 85.7424C174.199 85.84 174.162 85.9491 174.119 86.0694C174.078 86.1899 174.032 86.3276 173.981 86.4827C173.931 86.6374 173.869 86.8183 173.797 87.0248L173.452 88.006H175.441L175.114 87.0248C174.985 86.6405 174.881 86.3276 174.803 86.0868C174.725 85.8458 174.655 85.6335 174.594 85.4499ZM203.559 85.4499H203.299L203.198 85.7424C203.165 85.84 203.127 85.9491 203.085 86.0694C203.043 86.1899 202.997 86.3276 202.946 86.4827C202.896 86.6374 202.835 86.8183 202.762 87.0248L202.417 88.006H204.406L204.079 87.0248C203.95 86.6405 203.847 86.3276 203.769 86.0868C203.691 85.8458 203.621 85.6335 203.559 85.4499ZM143.024 81.4302C143.756 81.4302 144.441 81.7281 144.957 82.269L145.324 82.6539L144.59 83.4241L144.223 83.0392C143.904 82.7034 143.478 82.519 143.024 82.519C142.571 82.519 142.146 82.7036 141.825 83.0394L137.118 87.9808L136.383 87.2106L141.092 82.2693C141.607 81.7283 142.294 81.4304 143.024 81.4302ZM197.951 85.4497H196.92V87.3948H197.934C198.12 87.3948 198.291 87.3792 198.446 87.3478C198.6 87.3166 198.735 87.2641 198.85 87.1901C198.966 87.1162 199.057 87.0167 199.121 86.8914C199.186 86.7664 199.218 86.6128 199.218 86.4307C199.218 86.2431 199.186 86.0854 199.121 85.9574C199.057 85.8295 198.968 85.7285 198.855 85.6545C198.742 85.5805 198.608 85.5279 198.453 85.4967C198.299 85.4655 198.131 85.4497 197.951 85.4497ZM180.636 85.4497H179.73V87.3433H180.636C181.034 87.3433 181.349 87.2678 181.579 87.1173C181.809 86.9666 181.924 86.7207 181.924 86.3793C181.924 86.0324 181.807 85.7908 181.574 85.6543C181.342 85.518 181.03 85.4497 180.636 85.4497Z" fill="white"/>
<path d="M255.834 243.036C283.09 243.036 305.185 220.941 305.185 193.685C305.185 166.429 283.09 144.334 255.834 144.334C228.578 144.334 206.482 166.429 206.482 193.685C206.482 220.941 228.578 243.036 255.834 243.036Z" fill="white"/>
<path d="M254.801 179.535L256.182 182.046C256.458 182.565 256.458 183.2 256.182 183.719L247.952 198.639L251.846 205.68C252.454 206.777 253.586 207.47 254.801 207.47C256.016 207.47 257.148 206.777 257.756 205.68L261.65 198.639L260.628 196.734L256.209 204.728C255.933 205.247 255.381 205.565 254.828 205.565C254.248 205.565 253.724 205.247 253.448 204.728L250.05 198.639L257.701 184.787L259.082 187.298C259.358 187.817 259.358 188.452 259.082 188.972L253.752 198.639L254.801 200.544L260.601 190.039L264.411 196.936C264.992 198.004 264.992 199.303 264.411 200.37L260.545 207.383C259.966 208.451 258.115 210.846 254.801 210.846C251.486 210.846 249.664 208.451 249.056 207.383L245.19 200.37C244.61 199.303 244.61 198.004 245.19 196.936L254.801 179.535Z" fill="#ED5153"/>
<path d="M312.071 105.839C339.327 105.839 361.422 83.7439 361.422 56.488C361.422 29.232 339.327 7.13672 312.071 7.13672C284.815 7.13672 262.72 29.232 262.72 56.488C262.72 83.7439 284.815 105.839 312.071 105.839Z" fill="#FF7A59"/>
<path d="M315.51 50.8381V46.6118C316.049 46.351 316.506 45.9368 316.827 45.4175C317.148 44.8983 317.32 44.2953 317.323 43.6789V43.5803C317.321 42.7188 316.989 41.8933 316.401 41.2842C315.812 40.675 315.015 40.3318 314.182 40.3294H314.087C313.255 40.3318 312.458 40.675 311.869 41.2842C311.28 41.8933 310.949 42.7188 310.946 43.5803V43.6789C310.949 44.2953 311.121 44.8983 311.442 45.4175C311.763 45.9368 312.22 46.351 312.76 46.6118V50.8381C311.208 51.0836 309.747 51.749 308.524 52.767L297.314 43.7381C297.394 43.4402 297.436 43.1331 297.441 42.824C297.442 42.0987 297.235 41.3894 296.846 40.7858C296.457 40.1822 295.904 39.7115 295.258 39.4332C294.61 39.1548 293.899 39.0813 293.211 39.222C292.524 39.3626 291.892 39.7111 291.395 40.2233C290.9 40.7356 290.561 41.3887 290.424 42.0998C290.287 42.8111 290.356 43.5485 290.624 44.219C290.891 44.8894 291.344 45.4627 291.926 45.8664C292.509 46.27 293.193 46.486 293.894 46.4869C294.509 46.4845 295.114 46.3144 295.645 45.9937L306.667 54.8758C305.675 56.4262 305.157 58.2505 305.181 60.1104C305.206 61.9703 305.771 63.7793 306.805 65.301L303.45 68.7732C303.181 68.6845 302.901 68.6372 302.618 68.6329C302.042 68.6329 301.479 68.8097 301 69.1409C300.521 69.4721 300.148 69.9428 299.928 70.4936C299.708 71.0443 299.65 71.6504 299.762 72.235C299.875 72.8197 300.152 73.3567 300.559 73.7782C300.967 74.1998 301.486 74.4868 302.05 74.6032C302.615 74.7194 303.2 74.6597 303.732 74.4316C304.264 74.2035 304.719 73.8172 305.039 73.3215C305.359 72.8258 305.53 72.2431 305.53 71.647C305.526 71.3545 305.48 71.0642 305.394 70.7855L308.713 67.3506C309.796 68.207 311.054 68.796 312.39 69.0725C313.727 69.3489 315.107 69.3056 316.424 68.9458C317.743 68.5861 318.964 67.9193 319.994 66.9966C321.026 66.0738 321.84 64.9193 322.374 63.6213C322.908 62.3233 323.149 60.9161 323.078 59.5071C323.007 58.098 322.626 56.7245 321.964 55.4913C321.301 54.258 320.375 53.1978 319.257 52.3913C318.139 51.5849 316.857 51.0535 315.51 50.8381ZM314.135 64.7399C313.227 64.7399 312.34 64.4612 311.585 63.9389C310.83 63.4168 310.242 62.6746 309.894 61.8062C309.547 60.9378 309.456 59.9823 309.633 59.0605C309.81 58.1386 310.248 57.2918 310.889 56.6272C311.532 55.9625 312.35 55.51 313.24 55.3266C314.131 55.1432 315.053 55.2373 315.892 55.597C316.731 55.9567 317.449 56.5658 317.953 57.3473C318.458 58.1288 318.727 59.0477 318.727 59.9876C318.727 61.2479 318.242 62.4567 317.382 63.348C316.521 64.2392 315.353 64.7399 314.135 64.7399Z" fill="white"/>
</g>
</g>
</g>
</g>
</g>
</g>
<g opacity="0.3">
<path d="M4.14258 4.17383H334.803V220.614C334.803 222.823 333.012 224.614 330.803 224.614H8.14257C5.93343 224.614 4.14258 222.823 4.14258 220.614V4.17383Z" fill="url(#paint0_linear_4003_3819)"/>
</g>
</g>
<defs>
<linearGradient id="paint0_linear_4003_3819" x1="169.473" y1="4.17383" x2="169.473" y2="224.614" gradientUnits="userSpaceOnUse">
<stop stop-color="#BEC9DC" stop-opacity="0"/>
<stop offset="1" stop-color="#BEC9DC" stop-opacity="0.4"/>
</linearGradient>
<clipPath id="clip0_4003_3819">
<rect x="4.14258" y="4.17383" width="330.66" height="220.44" rx="4" fill="white"/>
</clipPath>
<clipPath id="clip1_4003_3819">
<rect x="4.14258" y="4.17383" width="330.66" height="220.44" rx="4" fill="white"/>
</clipPath>
<clipPath id="clip2_4003_3819">
<rect width="330.66" height="220.44" fill="white" transform="translate(4.14258 4.17383)"/>
</clipPath>
<clipPath id="clip3_4003_3819">
<rect width="358.29" height="256.63" fill="white" transform="translate(4.14258 4.17383)"/>
</clipPath>
<clipPath id="clip4_4003_3819">
<rect width="358.29" height="256.63" fill="white" transform="translate(4.14258 4.17383)"/>
</clipPath>
<clipPath id="clip5_4003_3819">
<rect width="358.29" height="250.704" fill="white" transform="translate(4.14258 7.13672)"/>
</clipPath>
</defs>
</svg>
