<svg width="201" height="41" viewBox="0 0 201 41" fill="none" xmlns="http://www.w3.org/2000/svg">
<path d="M92.7432 21.7935C92.7567 22.9002 92.5481 23.9985 92.1299 25.0233C91.7117 26.048 91.0922 26.9786 90.3082 27.7598C89.5241 28.5411 88.5914 29.1572 87.5651 29.5718C86.5389 29.9863 85.4399 30.191 84.3332 30.1735C83.2273 30.1896 82.1294 29.984 81.1043 29.5688C80.0792 29.1536 79.1477 28.5373 78.3647 27.7562C77.5817 26.9751 76.9632 26.045 76.5455 25.0209C76.1279 23.9968 75.9197 22.8994 75.9332 21.7935C75.9155 20.6865 76.1209 19.5872 76.5371 18.5612C76.9532 17.5352 77.5716 16.6035 78.3555 15.8215C79.1393 15.0396 80.0725 14.4234 81.0995 14.0097C82.1264 13.596 83.2262 13.3932 84.3332 13.4135C88.9632 13.4135 92.7332 16.9335 92.7332 21.7935H92.7432ZM89.0532 21.7935C89.0532 18.7735 86.8632 16.7135 84.3332 16.7135C81.7932 16.7135 79.6032 18.7735 79.6032 21.7935C79.6032 24.7735 81.7932 26.8635 84.3332 26.8635C86.8632 26.8635 89.0532 24.7635 89.0532 21.7935Z" fill="#EA4335"/>
<path d="M110.873 21.7933C110.886 22.9001 110.678 23.9983 110.26 25.0231C109.841 26.0479 109.222 26.9784 108.438 27.7596C107.654 28.5409 106.721 29.157 105.695 29.5716C104.669 29.9862 103.57 30.1908 102.463 30.1733C101.357 30.1894 100.259 29.9838 99.234 29.5686C98.2089 29.1535 97.2774 28.5371 96.4944 27.756C95.7114 26.9749 95.0929 26.0448 94.6753 25.0207C94.2576 23.9966 94.0494 22.8992 94.0629 21.7933C94.0467 20.6867 94.253 19.588 94.6696 18.5627C95.0863 17.5373 95.7047 16.6061 96.4883 15.8244C97.2718 15.0428 98.2045 14.4265 99.2308 14.0123C100.257 13.5981 101.356 13.3944 102.463 13.4133C107.093 13.4133 110.863 16.9333 110.863 21.7933H110.873ZM107.193 21.7933C107.193 18.7733 104.993 16.7133 102.463 16.7133C99.9229 16.7133 97.7329 18.7733 97.7329 21.7933C97.7329 24.7733 99.9329 26.8633 102.463 26.8633C105.003 26.8633 107.193 24.7633 107.193 21.7933Z" fill="#FBBC05"/>
<path d="M128.243 13.9121V28.9621C128.243 35.1421 124.593 37.6721 120.283 37.6721C118.693 37.6824 117.137 37.2177 115.813 36.3375C114.489 35.4574 113.459 34.2019 112.853 32.7321L116.053 31.4021C116.383 32.2616 116.962 33.0033 117.715 33.5323C118.469 34.0613 119.363 34.3537 120.283 34.3721C123.043 34.3721 124.753 32.6721 124.753 29.4721V28.2621H124.623C124.071 28.8806 123.39 29.371 122.628 29.6992C121.866 30.0273 121.042 30.1853 120.213 30.1621C116.013 30.1621 112.183 26.5121 112.183 21.8221C112.183 17.0921 116.023 13.4121 120.213 13.4121C122.213 13.4121 123.793 14.2921 124.623 15.2821H124.753V13.9221H128.253L128.243 13.9121ZM125.013 21.8121C125.013 18.8721 123.043 16.7121 120.543 16.7121C118.003 16.7121 115.873 18.8721 115.873 21.8121C115.873 24.7421 118.003 26.8621 120.543 26.8621C123.043 26.8621 125.013 24.7421 125.013 21.8221V21.8121Z" fill="#4285F4"/>
<path d="M134.003 5.10352V29.6435H130.413V5.10352H134.003Z" fill="#34A853"/>
<path d="M147.993 24.5423L150.853 26.4423C150.088 27.5931 149.048 28.5355 147.828 29.1848C146.608 29.8341 145.245 30.17 143.863 30.1623C142.762 30.1774 141.669 29.9704 140.649 29.5537C139.63 29.137 138.704 28.5191 137.929 27.737C137.153 26.9549 136.543 26.0245 136.135 25.0014C135.727 23.9784 135.529 22.8836 135.553 21.7823C135.553 16.8023 139.133 13.4023 143.453 13.4023C147.803 13.4023 149.933 16.8623 150.623 18.7323L151.003 19.6923L139.803 24.3223C140.147 25.1039 140.719 25.7639 141.443 26.2169C142.167 26.6698 143.01 26.8947 143.863 26.8623C145.743 26.8623 147.043 25.9423 147.993 24.5423ZM139.193 21.5323L146.693 18.4223C146.273 17.3723 145.043 16.6423 143.583 16.6423C142.973 16.6703 142.374 16.8197 141.822 17.0817C141.27 17.3437 140.775 17.7132 140.367 18.1684C139.96 18.6237 139.647 19.1556 139.447 19.7332C139.247 20.3108 139.164 20.9224 139.203 21.5323H139.193Z" fill="#EA4335"/>
<path d="M62.3431 19.6126V16.0426H74.3231C74.4331 16.6626 74.4931 17.3926 74.4931 18.1926C74.4931 20.8526 73.7631 24.1526 71.4131 26.5026C69.1331 28.8826 66.2131 30.1526 62.3431 30.1526C55.1731 30.1526 49.1431 24.3126 49.1431 17.1526C49.1431 9.97258 55.1731 4.14258 62.3431 4.14258C66.3131 4.14258 69.1431 5.70258 71.2631 7.73258L68.7531 10.2326C67.0347 8.5742 64.731 7.66135 62.3431 7.69258C61.106 7.69113 59.881 7.93572 58.7393 8.41211C57.5976 8.88851 56.562 9.58719 55.6929 10.4675C54.8237 11.3478 54.1383 12.3922 53.6765 13.5399C53.2148 14.6876 52.9858 15.9156 53.0031 17.1526C53.0031 22.3926 57.1031 26.6126 62.3431 26.6126C63.5591 26.6629 64.7722 26.4574 65.9039 26.0096C67.0356 25.5617 68.0607 24.8814 68.9131 24.0126C69.9131 23.0026 70.5731 21.5626 70.8331 19.6126H62.3331H62.3431Z" fill="#4285F4"/>
</svg>
