<svg width="21" height="21" viewBox="0 0 21 21" fill="none" xmlns="http://www.w3.org/2000/svg">
<path d="M3.95238 13.3826L3.94238 13.3676C3.74397 13.1686 3.62034 12.9072 3.59238 12.6276C3.57298 12.4507 3.59173 12.2716 3.64738 12.1026C3.67238 11.9626 3.71238 11.8326 3.76738 11.7176L3.80738 11.6326L7.47738 5.14258H18.4024C18.7205 5.14707 19.0251 5.27172 19.2551 5.49153C19.4851 5.71133 19.6235 6.01 19.6424 6.32758L19.6474 6.40758V17.8676C19.652 18.1893 19.5334 18.5006 19.3159 18.7377C19.0983 18.9748 18.7983 19.1196 18.4774 19.1426L18.3974 19.1476H9.64238C9.76301 19.0158 9.85399 18.8597 9.90919 18.6898C9.96439 18.5199 9.98253 18.3401 9.96238 18.1626C9.92738 17.8326 9.74738 17.6176 9.48738 17.4276L9.41238 17.3776L4.10238 13.5126L4.03238 13.4626V13.4576L4.10238 13.5076C4.05506 13.4757 4.00995 13.4406 3.96738 13.4026L3.95238 13.3876V13.3826Z" fill="url(#paint0_linear_4003_2874)"/>
<path d="M11.1676 1.19251C11.5176 1.11751 11.8726 1.19251 12.1626 1.39751L15.4426 3.75751C15.6577 3.91203 15.8182 4.13089 15.9009 4.38251C15.9835 4.63414 15.9842 4.90551 15.9026 5.15751V5.14251L11.6526 18.1425L11.6276 18.2425L11.6126 18.2825L11.5976 18.3275L11.5226 18.4875L11.5126 18.5075L11.4176 18.6525L11.4026 18.6725C11.3668 18.7164 11.3284 18.7581 11.2876 18.7975L11.2726 18.8075C11.1871 18.8891 11.0892 18.9566 10.9826 19.0075L10.9676 19.0225C10.9176 19.0475 10.8676 19.0725 10.8126 19.0875H10.7876L10.6226 19.1275H10.5976C10.5381 19.1372 10.4779 19.1422 10.4176 19.1425H1.90762C1.74065 19.1425 1.57533 19.1095 1.4212 19.0453C1.26707 18.9811 1.12717 18.887 1.00957 18.7685C0.891976 18.6499 0.799006 18.5093 0.736025 18.3547C0.673044 18.2 0.641298 18.0345 0.642618 17.8675V6.41751C0.642618 5.71251 1.20762 5.14251 1.90762 5.14251H8.44262L10.3426 1.79251C10.503 1.51415 10.7644 1.30824 11.0726 1.21751L11.1626 1.19251H11.1676Z" fill="#0073E6"/>
<path d="M15.8326 5.14258L11.6476 18.1426L11.6376 18.1926L11.6276 18.2426L11.6126 18.2826L11.5976 18.3276L11.5626 18.4076L11.5226 18.4876L11.5126 18.5076L11.4626 18.5826L11.4176 18.6526L11.4026 18.6726L11.3476 18.7376L11.2876 18.7976L11.2726 18.8076C11.2326 18.8526 11.1876 18.8876 11.1426 18.9226L11.0676 18.9726L10.9826 19.0126L10.9676 19.0226L10.8926 19.0576L10.8126 19.0876H10.7876L10.7076 19.1126L10.6576 19.1176L10.7076 19.0676C10.9076 18.8126 11.0026 18.4826 10.9626 18.1576C10.9276 17.8276 10.7476 17.6126 10.4876 17.4226L10.4126 17.3726L5.10262 13.5076L5.03262 13.4576C4.9862 13.4174 4.94276 13.374 4.90262 13.3276L4.88262 13.3026C4.86176 13.28 4.84175 13.2566 4.82262 13.2326L4.81262 13.2126L4.79762 13.1926C4.76577 13.1447 4.73737 13.0945 4.71262 13.0426L4.69762 13.0126C4.66641 12.945 4.64131 12.8747 4.62262 12.8026L4.61762 12.7676L4.60762 12.7176L4.60262 12.6876C4.57661 12.5193 4.58511 12.3475 4.62762 12.1826L4.63762 12.1376C4.64393 12.1208 4.6506 12.1041 4.65762 12.0876C4.67262 11.9626 4.70762 11.8376 4.76262 11.7176L4.81262 11.6326L8.47262 5.14258H15.8276H15.8326Z" fill="url(#paint1_linear_4003_2874)"/>
<defs>
<linearGradient id="paint0_linear_4003_2874" x1="11.6024" y1="5.98258" x2="11.6024" y2="19.9826" gradientUnits="userSpaceOnUse">
<stop offset="0.1" stop-color="#FF80FF"/>
<stop offset="0.39" stop-color="#FF7BF9"/>
<stop offset="0.77" stop-color="#FF6EEA"/>
<stop offset="1" stop-color="#FF62DC"/>
</linearGradient>
<linearGradient id="paint1_linear_4003_2874" x1="15.8326" y1="14.1076" x2="5.95262" y2="14.1076" gradientUnits="userSpaceOnUse">
<stop stop-color="#0073E6"/>
<stop offset="1" stop-color="#00299C"/>
</linearGradient>
</defs>
</svg>
