<svg width="507" height="559" viewBox="0 0 507 559" fill="none" xmlns="http://www.w3.org/2000/svg">
<g filter="url(#filter0_dd_4003_11333)">
<rect x="80" y="30" width="347" height="213" rx="14" fill="white" fill-opacity="0.01" shape-rendering="crispEdges"/>
</g>
<mask id="mask0_4003_11333" style="mask-type:luminance" maskUnits="userSpaceOnUse" x="79" y="29" width="349" height="216">
<path d="M413.344 29H93.6562C85.5618 29 79 35.5618 79 43.6562V229.606C79 237.7 85.5618 244.262 93.6562 244.262H413.344C421.438 244.262 428 237.7 428 229.606V43.6562C428 35.5618 421.438 29 413.344 29Z" fill="white"/>
</mask>
<g mask="url(#mask0_4003_11333)">
<path d="M413.826 29H93.1737C85.3458 29 79 35.3458 79 43.1737V230.088C79 237.916 85.3458 244.262 93.1737 244.262H413.826C421.654 244.262 428 237.916 428 230.088V43.1737C428 35.3458 421.654 29 413.826 29Z" fill="black"/>
<mask id="mask1_4003_11333" style="mask-type:alpha" maskUnits="userSpaceOnUse" x="79" y="29" width="349" height="216">
<path d="M428 29H79V244.262H428V29Z" fill="white"/>
</mask>
<g mask="url(#mask1_4003_11333)">
<mask id="mask2_4003_11333" style="mask-type:luminance" maskUnits="userSpaceOnUse" x="342" y="186" width="72" height="44">
<path d="M413.915 186H342.809V229.944H413.915V186Z" fill="white"/>
</mask>
<g mask="url(#mask2_4003_11333)">
<path d="M387.979 190.697H368.746V225.247H387.979V190.697Z" fill="#F16122"/>
<path d="M369.972 207.979C369.972 200.969 373.247 194.725 378.362 190.697C374.627 187.756 369.902 186 364.787 186C352.648 186 342.809 195.84 342.809 207.979C342.809 220.118 352.648 229.958 364.787 229.958C369.916 229.958 374.627 228.201 378.362 225.261C373.247 221.233 369.972 214.989 369.972 207.979Z" fill="#ED1C24"/>
<path d="M411.807 221.596V220.886H412.086V220.746H411.361V220.886H411.64V221.596H411.793H411.807ZM413.215 221.596V220.746H412.992L412.742 221.331L412.49 220.746H412.267V221.596H412.421V220.955L412.658 221.512H412.825L413.062 220.955V221.596H413.215Z" fill="#F99F1C"/>
<path d="M413.914 207.979C413.914 220.118 404.074 229.958 391.935 229.958C386.806 229.958 382.095 228.201 378.36 225.261C383.475 221.233 386.75 214.989 386.75 207.979C386.75 200.969 383.475 194.725 378.36 190.697C382.095 187.756 386.82 186 391.935 186C404.074 186 413.914 195.84 413.914 207.979Z" fill="#F99F1C"/>
</g>
<path d="M346.979 163.145C347.438 163.145 347.868 163.228 348.257 163.395C348.66 163.562 348.993 163.798 349.257 164.131L348.396 165.048C348.173 164.839 347.952 164.687 347.715 164.575C347.479 164.464 347.215 164.409 346.923 164.409C346.673 164.409 346.424 164.451 346.201 164.548C345.979 164.645 345.785 164.77 345.631 164.951C345.465 165.117 345.34 165.326 345.256 165.576C345.159 165.812 345.118 166.076 345.118 166.367C345.118 166.659 345.159 166.923 345.256 167.16C345.354 167.396 345.479 167.604 345.631 167.784C345.798 167.951 345.979 168.09 346.201 168.187C346.424 168.284 346.66 168.326 346.923 168.326C347.215 168.326 347.493 168.27 347.743 168.146C347.993 168.02 348.229 167.868 348.424 167.687L349.243 168.604C348.966 168.924 348.632 169.173 348.229 169.34C347.841 169.507 347.41 169.59 346.951 169.59C346.465 169.59 346.021 169.507 345.631 169.34C345.229 169.173 344.896 168.951 344.617 168.66C344.34 168.368 344.118 168.034 343.965 167.645C343.812 167.257 343.729 166.826 343.729 166.367C343.729 165.909 343.812 165.479 343.965 165.09C344.118 164.701 344.34 164.353 344.617 164.076C344.896 163.784 345.243 163.562 345.631 163.395C346.034 163.228 346.465 163.145 346.951 163.145H346.979Z" fill="white"/>
<path d="M353.478 163.145C353.951 163.145 354.395 163.228 354.798 163.395C355.201 163.562 355.548 163.784 355.839 164.076C356.131 164.367 356.368 164.701 356.534 165.09C356.701 165.479 356.784 165.909 356.784 166.367C356.784 166.826 356.701 167.257 356.534 167.645C356.368 168.034 356.131 168.382 355.839 168.66C355.548 168.951 355.201 169.173 354.798 169.34C354.395 169.507 353.964 169.59 353.478 169.59C352.992 169.59 352.562 169.507 352.159 169.34C351.756 169.173 351.409 168.951 351.117 168.66C350.826 168.368 350.589 168.034 350.436 167.645C350.27 167.257 350.188 166.826 350.188 166.367C350.188 165.909 350.27 165.479 350.436 165.09C350.603 164.701 350.826 164.353 351.117 164.076C351.409 163.784 351.756 163.562 352.159 163.395C352.562 163.228 353.006 163.145 353.478 163.145ZM353.478 164.409C353.201 164.409 352.95 164.451 352.714 164.548C352.478 164.645 352.284 164.77 352.103 164.951C351.936 165.117 351.798 165.326 351.701 165.576C351.604 165.812 351.548 166.076 351.548 166.367C351.548 166.659 351.604 166.923 351.701 167.16C351.798 167.396 351.936 167.604 352.103 167.784C352.27 167.951 352.478 168.09 352.714 168.187C352.95 168.284 353.201 168.326 353.478 168.326C353.756 168.326 354.006 168.284 354.242 168.187C354.478 168.09 354.673 167.951 354.853 167.784C355.02 167.618 355.16 167.409 355.257 167.16C355.354 166.923 355.409 166.659 355.409 166.367C355.409 166.076 355.354 165.812 355.257 165.576C355.16 165.34 355.02 165.131 354.853 164.951C354.686 164.77 354.478 164.645 354.242 164.548C354.006 164.451 353.756 164.409 353.478 164.409Z" fill="white"/>
<path d="M365.993 163.145C366.354 163.145 366.688 163.201 366.993 163.326C367.299 163.45 367.563 163.617 367.785 163.825C368.007 164.034 368.174 164.298 368.299 164.59C368.424 164.881 368.48 165.214 368.48 165.576V169.423H367.132V166.02C367.132 165.506 367.008 165.104 366.757 164.826C366.507 164.548 366.16 164.409 365.702 164.409C365.48 164.409 365.285 164.451 365.09 164.52C364.896 164.59 364.729 164.687 364.59 164.826C364.451 164.965 364.34 165.131 364.243 165.34C364.16 165.548 364.118 165.77 364.118 166.034V169.423H362.771V166.02C362.771 165.506 362.646 165.104 362.396 164.826C362.146 164.548 361.798 164.409 361.34 164.409C361.118 164.409 360.923 164.451 360.729 164.52C360.535 164.59 360.368 164.687 360.229 164.826C360.09 164.965 359.979 165.131 359.881 165.34C359.798 165.548 359.757 165.77 359.757 166.034V169.423H358.409V163.298H359.742V164.048C359.868 163.868 360.006 163.714 360.16 163.604C360.312 163.493 360.465 163.395 360.632 163.326C360.798 163.256 360.965 163.214 361.131 163.187C361.298 163.159 361.465 163.145 361.618 163.145C362.09 163.145 362.507 163.242 362.868 163.437C363.229 163.631 363.521 163.895 363.729 164.243C363.854 164.02 364.021 163.84 364.202 163.701C364.382 163.562 364.562 163.45 364.771 163.367C364.965 163.284 365.174 163.229 365.382 163.201C365.591 163.173 365.785 163.159 365.979 163.159L365.993 163.145Z" fill="white"/>
<path d="M378.066 163.145C378.427 163.145 378.76 163.201 379.066 163.326C379.371 163.45 379.635 163.617 379.858 163.825C380.08 164.034 380.246 164.298 380.372 164.59C380.496 164.881 380.552 165.214 380.552 165.576V169.423H379.204V166.02C379.204 165.506 379.08 165.104 378.829 164.826C378.58 164.548 378.233 164.409 377.774 164.409C377.552 164.409 377.357 164.451 377.163 164.52C376.968 164.59 376.802 164.687 376.662 164.826C376.524 164.965 376.413 165.131 376.315 165.34C376.232 165.548 376.191 165.77 376.191 166.034V169.423H374.843V166.02C374.843 165.506 374.718 165.104 374.468 164.826C374.218 164.548 373.871 164.409 373.413 164.409C373.19 164.409 372.995 164.451 372.802 164.52C372.607 164.59 372.44 164.687 372.301 164.826C372.162 164.965 372.051 165.131 371.954 165.34C371.871 165.548 371.829 165.77 371.829 166.034V169.423H370.481V163.298H371.815V164.048C371.94 163.868 372.079 163.714 372.232 163.604C372.384 163.493 372.537 163.395 372.704 163.326C372.871 163.256 373.038 163.214 373.204 163.187C373.37 163.159 373.537 163.145 373.69 163.145C374.163 163.145 374.579 163.242 374.941 163.437C375.301 163.631 375.593 163.895 375.802 164.243C375.927 164.02 376.093 163.84 376.274 163.701C376.454 163.562 376.635 163.45 376.843 163.367C377.038 163.284 377.246 163.229 377.455 163.201C377.663 163.173 377.858 163.159 378.051 163.159L378.066 163.145Z" fill="white"/>
<path d="M385.192 163.145C385.622 163.145 386.011 163.228 386.358 163.381C386.719 163.534 387.025 163.756 387.275 164.034C387.525 164.312 387.72 164.659 387.872 165.048C388.011 165.437 388.081 165.881 388.081 166.354C388.081 166.437 388.081 166.52 388.081 166.604C388.081 166.687 388.081 166.77 388.067 166.854H383.538C383.58 167.132 383.664 167.368 383.775 167.562C383.886 167.756 384.025 167.923 384.191 168.048C384.358 168.174 384.539 168.27 384.733 168.326C384.927 168.382 385.136 168.41 385.358 168.41C385.664 168.41 385.969 168.354 386.275 168.243C386.581 168.131 386.873 167.965 387.122 167.771L387.789 168.729C387.414 169.048 387.011 169.271 386.594 169.396C386.178 169.52 385.733 169.59 385.275 169.59C384.817 169.59 384.4 169.52 384.011 169.354C383.622 169.201 383.302 168.979 383.025 168.701C382.747 168.423 382.539 168.076 382.386 167.687C382.233 167.284 382.149 166.854 382.149 166.367C382.149 165.881 382.219 165.451 382.372 165.062C382.524 164.659 382.733 164.326 382.997 164.048C383.261 163.77 383.58 163.548 383.956 163.395C384.331 163.242 384.747 163.159 385.192 163.159V163.145ZM385.164 164.34C384.927 164.34 384.719 164.381 384.525 164.451C384.344 164.52 384.178 164.631 384.052 164.756C383.913 164.895 383.802 165.048 383.719 165.242C383.636 165.423 383.58 165.632 383.538 165.853H386.719C386.65 165.381 386.483 165.006 386.206 164.742C385.942 164.479 385.594 164.34 385.164 164.34Z" fill="white"/>
<path d="M392.844 163.145C393.052 163.145 393.233 163.159 393.399 163.187C393.566 163.214 393.719 163.256 393.872 163.312L393.552 164.631C393.413 164.562 393.246 164.506 393.066 164.464C392.871 164.423 392.705 164.409 392.538 164.409C392.33 164.409 392.136 164.451 391.955 164.52C391.774 164.59 391.621 164.701 391.497 164.839C391.371 164.978 391.274 165.159 391.191 165.353C391.122 165.562 391.079 165.784 391.079 166.048V169.41H389.746V163.298H391.066V163.992C391.274 163.701 391.524 163.478 391.83 163.353C392.136 163.214 392.468 163.145 392.844 163.145Z" fill="white"/>
<path d="M397.748 163.145C398.207 163.145 398.638 163.228 399.027 163.395C399.429 163.562 399.763 163.798 400.026 164.131L399.165 165.048C398.944 164.839 398.721 164.687 398.485 164.575C398.249 164.464 397.985 164.409 397.693 164.409C397.443 164.409 397.193 164.451 396.971 164.548C396.749 164.645 396.554 164.77 396.402 164.951C396.235 165.117 396.11 165.326 396.027 165.576C395.929 165.812 395.887 166.076 395.887 166.367C395.887 166.659 395.929 166.923 396.027 167.16C396.123 167.396 396.248 167.604 396.402 167.784C396.568 167.951 396.749 168.09 396.971 168.187C397.193 168.284 397.429 168.326 397.693 168.326C397.985 168.326 398.262 168.27 398.513 168.146C398.763 168.02 398.999 167.868 399.193 167.687L400.013 168.604C399.735 168.924 399.402 169.173 398.999 169.34C398.61 169.507 398.179 169.59 397.721 169.59C397.235 169.59 396.79 169.507 396.402 169.34C395.999 169.173 395.665 168.951 395.388 168.66C395.109 168.368 394.887 168.034 394.734 167.645C394.582 167.257 394.498 166.826 394.498 166.367C394.498 165.909 394.582 165.479 394.734 165.09C394.887 164.701 395.109 164.353 395.388 164.076C395.665 163.784 396.012 163.562 396.402 163.395C396.804 163.228 397.235 163.145 397.721 163.145H397.748Z" fill="white"/>
<path d="M402.872 169.422H401.525V163.297H402.872V169.422Z" fill="white"/>
<path d="M410.844 169.422H409.511V168.686C409.303 168.964 409.039 169.172 408.72 169.339C408.4 169.506 408.025 169.575 407.594 169.575C407.164 169.575 406.761 169.492 406.399 169.339C406.024 169.186 405.705 168.95 405.428 168.672C405.149 168.381 404.927 168.047 404.774 167.658C404.622 167.269 404.538 166.839 404.538 166.366C404.538 165.894 404.622 165.464 404.774 165.074C404.927 164.686 405.149 164.339 405.428 164.06C405.705 163.769 406.024 163.547 406.399 163.394C406.774 163.241 407.164 163.158 407.594 163.158C408.025 163.158 408.414 163.241 408.72 163.408C409.039 163.574 409.303 163.783 409.511 164.06V163.325H410.844V169.422ZM407.747 164.394C407.455 164.394 407.205 164.45 406.969 164.547C406.747 164.658 406.553 164.797 406.386 164.963C406.233 165.144 406.108 165.352 406.024 165.588C405.941 165.824 405.9 166.075 405.9 166.353C405.9 166.63 405.941 166.881 406.024 167.117C406.108 167.352 406.233 167.561 406.386 167.742C406.538 167.922 406.733 168.061 406.969 168.158C407.192 168.255 407.455 168.311 407.747 168.311C408.039 168.311 408.275 168.255 408.497 168.158C408.72 168.061 408.914 167.922 409.08 167.742C409.247 167.561 409.372 167.367 409.455 167.117C409.539 166.881 409.594 166.617 409.594 166.339C409.594 166.061 409.553 165.797 409.455 165.561C409.372 165.325 409.247 165.117 409.08 164.936C408.914 164.755 408.72 164.63 408.497 164.519C408.275 164.422 408.025 164.366 407.747 164.366V164.394Z" fill="white"/>
<path d="M414.291 169.42H412.943V160.795H414.291V169.42Z" fill="white"/>
<path d="M402.192 160.59C402.317 160.59 402.443 160.618 402.567 160.659C402.678 160.715 402.775 160.771 402.873 160.854C402.956 160.938 403.026 161.034 403.067 161.159C403.123 161.27 403.137 161.396 403.137 161.535C403.137 161.673 403.109 161.785 403.067 161.909C403.012 162.021 402.956 162.118 402.873 162.201C402.79 162.284 402.692 162.354 402.567 162.396C402.443 162.438 402.331 162.466 402.192 162.466C402.053 162.466 401.942 162.438 401.817 162.396C401.692 162.354 401.609 162.284 401.525 162.201C401.442 162.118 401.373 162.021 401.331 161.909C401.29 161.799 401.262 161.673 401.262 161.535C401.262 161.396 401.29 161.285 401.331 161.159C401.373 161.049 401.442 160.951 401.525 160.854C401.609 160.771 401.706 160.701 401.817 160.659C401.928 160.604 402.053 160.59 402.192 160.59Z" fill="white"/>
<path d="M301.957 61.5643L306.86 56.7277H304.178L297.275 63.6967V56.7277H295.406V70.9735H297.275V66.0051L299.605 63.8286L300.374 63.0812C301.539 63.8286 304.046 66.0491 304.112 70.9955H306.266C306.2 65.5654 303.584 62.7734 301.957 61.5643ZM317.233 56.7277H314.573L309.208 70.9735H311.187L312.726 66.7086H318.838L320.289 70.9735H322.399L317.233 56.7277ZM313.276 65.1477L315.562 58.8382H316.09L318.222 65.1477H313.276ZM333.439 56.7277L329.394 68.863H329.086L325.063 56.7277H322.931L328.119 70.9735H330.405L335.593 56.7277H333.439ZM348.65 56.7277V62.6195H340.845V56.7277H338.911V70.9735H340.845V64.3123H348.65V70.9735H350.606V56.7277H348.65ZM361.545 56.332C357.477 56.332 354.422 59.6956 354.422 63.8286C354.422 67.9617 357.477 71.3253 361.545 71.3253C365.612 71.3253 368.689 67.9617 368.689 63.8286C368.689 59.6956 365.612 56.332 361.545 56.332ZM361.545 69.5446C358.445 69.5446 356.4 66.9724 356.4 63.8286C356.4 60.6629 358.445 58.1127 361.545 58.1127C364.644 58.1127 366.689 60.6849 366.689 63.8286C366.689 66.9724 364.644 69.5446 361.545 69.5446ZM374.428 69.2148V56.7277H372.515V70.9735H382.057V69.2148H374.428ZM396.503 56.7277L392.436 66.8625L388.325 56.7277H385.335V70.9735H387.16V62.5755C387.16 62.2238 387.16 61.6962 387.138 60.9927C387.116 60.2672 387.116 59.2999 387.116 58.9481H387.314L387.358 58.9701L391.447 69.0609H393.359L397.449 58.9701C397.449 58.9921 397.668 58.9481 397.668 58.9921C397.668 59.6956 397.668 60.487 397.668 61.1246C397.646 61.7841 397.646 62.2678 397.646 62.5755V70.9735H399.493V56.7277H396.503Z" fill="white"/>
<path d="M106.827 216.016C107.263 216.106 107.648 216.145 108.135 216.145C109.918 216.145 110.944 215.324 110.944 213.477V206.834H109.713V213.387C109.713 214.644 109.136 215.042 107.994 215.042C107.584 215.042 107.276 215.003 106.827 214.913V216.016ZM117.587 214.58V211.118C117.587 209.886 116.664 209.207 115.176 209.207C113.74 209.207 112.624 209.886 112.522 211.31H113.65C113.74 210.592 114.228 210.22 115.112 210.22C115.933 210.22 116.472 210.54 116.472 211.284V211.695L114.805 212.028C113.304 212.323 112.253 212.887 112.253 214.221C112.253 215.426 113.253 216.157 114.471 216.157C115.343 216.157 116.087 215.837 116.497 215.349C116.51 215.619 116.523 215.85 116.549 216.042H117.69C117.626 215.619 117.587 215.08 117.587 214.58ZM116.472 213.759C116.472 214.619 115.613 215.221 114.625 215.221C113.894 215.221 113.407 214.824 113.407 214.17C113.407 213.362 114.086 213.08 115.112 212.874L116.472 212.592V213.759ZM119.453 216.042H120.607V212.041C120.607 210.925 121.453 210.284 122.287 210.284C123.287 210.284 123.685 210.989 123.685 211.925V216.042H124.839V211.618C124.839 210.194 124.031 209.207 122.608 209.207C121.659 209.207 120.992 209.694 120.607 210.245V209.335H119.453V216.042ZM129.372 216.183C130.705 216.183 131.719 215.452 132.129 214.259L131.116 213.9C130.911 214.695 130.269 215.183 129.372 215.183C128.205 215.183 127.397 214.285 127.333 212.874H132.18V212.49C132.18 210.63 131.193 209.207 129.32 209.207C127.499 209.207 126.23 210.694 126.23 212.695C126.23 214.76 127.512 216.183 129.372 216.183ZM129.308 210.194C130.475 210.194 130.988 211.041 131.013 211.99H127.397C127.602 210.848 128.333 210.194 129.308 210.194ZM136.373 216.042H139.297C142.093 216.042 143.863 214.247 143.863 211.438C143.863 208.63 142.093 206.834 139.297 206.834H136.373V216.042ZM137.579 214.978V207.899H139.284C141.388 207.899 142.657 209.284 142.657 211.438C142.657 213.58 141.388 214.978 139.297 214.978H137.579ZM145.263 208.168H146.52V206.834H145.263V208.168ZM146.468 209.335H145.314V216.042H146.468V209.335ZM153.23 214.58V211.118C153.23 209.886 152.306 209.207 150.819 209.207C149.382 209.207 148.267 209.886 148.164 211.31H149.293C149.382 210.592 149.87 210.22 150.754 210.22C151.575 210.22 152.114 210.54 152.114 211.284V211.695L150.447 212.028C148.946 212.323 147.895 212.887 147.895 214.221C147.895 215.426 148.895 216.157 150.113 216.157C150.985 216.157 151.729 215.837 152.139 215.349C152.152 215.619 152.165 215.85 152.191 216.042H153.332C153.268 215.619 153.23 215.08 153.23 214.58ZM152.114 213.759C152.114 214.619 151.255 215.221 150.267 215.221C149.536 215.221 149.049 214.824 149.049 214.17C149.049 213.362 149.729 213.08 150.754 212.874L152.114 212.592V213.759ZM159.942 215.055H156.108L159.904 210.22V209.335H154.71V210.322H158.532L154.659 215.17V216.042H159.942V215.055Z" fill="white"/>
</g>
</g>
<g filter="url(#filter1_dd_4003_11333)">
<rect x="80" y="123" width="347" height="213" rx="14" fill="white" fill-opacity="0.01" shape-rendering="crispEdges"/>
</g>
<mask id="mask3_4003_11333" style="mask-type:luminance" maskUnits="userSpaceOnUse" x="79" y="122" width="349" height="216">
<path d="M413.355 122H93.6448C85.5567 122 79 128.557 79 136.645V322.451C79 330.539 85.5567 337.096 93.6448 337.096H413.355C421.443 337.096 428 330.539 428 322.451V136.645C428 128.557 421.443 122 413.355 122Z" fill="white"/>
</mask>
<g mask="url(#mask3_4003_11333)">
<path d="M79.002 324.839C79.002 331.58 84.6507 337.095 91.5569 337.095H415.446C422.352 337.095 428.002 331.58 428.002 324.839V134.257C428.002 127.515 422.352 122 415.446 122H91.5569C84.6507 122 79.002 127.515 79.002 134.257V324.839Z" fill="#27BB86"/>
<g style="mix-blend-mode:overlay" opacity="0.65">
<path d="M5.13574 226.566C25.1578 198.453 51.8317 180.037 90.9919 175.785C212.279 162.613 318.823 267.175 438.045 209.824" stroke="url(#paint0_linear_4003_11333)" stroke-linecap="round"/>
<path d="M5.48926 234.163C25.5114 206.05 52.1854 187.635 91.3455 183.382C212.633 170.211 319.176 274.773 438.398 217.422" stroke="url(#paint1_linear_4003_11333)" stroke-linecap="round"/>
<path d="M4.71875 220.73C24.7409 192.617 51.4148 174.202 90.575 169.949C211.862 156.777 318.406 261.34 437.628 203.988" stroke="url(#paint2_linear_4003_11333)" stroke-linecap="round"/>
<path d="M2.76953 213.664C22.7916 185.55 49.4655 167.135 88.6257 162.882C209.913 149.711 316.456 254.273 435.679 196.922" stroke="url(#paint3_linear_4003_11333)" stroke-linecap="round"/>
<path d="M1.94336 207.423C21.9655 179.31 48.6395 160.895 87.7996 156.642C209.087 143.471 315.63 248.033 434.852 190.681" stroke="url(#paint4_linear_4003_11333)" stroke-linecap="round"/>
<path d="M1.11523 201.185C21.1373 173.072 47.8112 154.657 86.9714 150.404C208.259 137.232 314.802 241.794 434.024 184.443" stroke="url(#paint5_linear_4003_11333)" stroke-linecap="round"/>
<path d="M9.56152 259.864C29.5836 231.751 56.2575 213.336 95.4177 209.084C216.705 195.912 323.248 300.474 442.471 243.122" stroke="url(#paint6_linear_4003_11333)" stroke-linecap="round"/>
<path d="M9.91504 267.463C29.9371 239.349 56.611 220.934 95.7712 216.681C217.059 203.51 323.602 308.072 442.824 250.72" stroke="url(#paint7_linear_4003_11333)" stroke-linecap="round"/>
<path d="M9.14453 254.029C29.1666 225.915 55.8405 207.5 95.0007 203.248C216.288 190.076 322.831 294.638 442.054 237.286" stroke="url(#paint8_linear_4003_11333)" stroke-linecap="round"/>
<path d="M7.19531 246.963C27.2173 218.849 53.8913 200.434 93.0515 196.181C214.339 183.01 320.882 287.572 440.104 230.22" stroke="url(#paint9_linear_4003_11333)" stroke-linecap="round"/>
<path d="M6.36914 240.722C26.3912 212.609 53.0651 194.194 92.2253 189.941C213.513 176.769 320.056 281.332 439.278 223.98" stroke="url(#paint10_linear_4003_11333)" stroke-linecap="round"/>
<path d="M5.54102 234.484C25.563 206.371 52.237 187.955 91.3972 183.703C212.685 170.531 319.228 275.093 438.45 217.742" stroke="url(#paint11_linear_4003_11333)" stroke-linecap="round"/>
</g>
<path d="M107 309.201V300H108.23V308.124H112.818V309.201H107ZM118.9 307.74C118.9 308.24 118.938 308.778 119.003 309.201H117.863C117.836 308.971 117.819 308.74 117.811 308.509C117.401 308.996 116.658 309.316 115.786 309.316C114.569 309.316 113.569 308.586 113.569 307.381C113.569 306.048 114.62 305.484 116.119 305.19L117.785 304.857V304.447C117.785 303.703 117.247 303.383 116.427 303.383C115.543 303.383 115.056 303.755 114.967 304.472H113.839C113.941 303.05 115.056 302.371 116.491 302.371C117.977 302.371 118.901 303.05 118.901 304.28L118.9 307.74ZM117.785 306.92V305.754L116.427 306.035C115.402 306.241 114.723 306.522 114.723 307.33C114.723 307.983 115.21 308.38 115.94 308.38C116.927 308.38 117.785 307.778 117.785 306.92ZM121.456 305.856C121.456 307.381 122.276 308.329 123.468 308.329C124.39 308.329 124.941 307.74 125.134 306.907L126.159 307.381C125.839 308.496 124.865 309.342 123.468 309.342C121.597 309.342 120.303 307.919 120.303 305.856C120.303 303.78 121.597 302.371 123.468 302.371C124.865 302.371 125.813 303.178 126.133 304.293L125.133 304.793C124.941 303.972 124.391 303.37 123.468 303.37C122.276 303.37 121.456 304.318 121.456 305.856ZM127.422 309.201V300H128.575V303.409C128.797 303.085 129.096 302.82 129.444 302.639C129.793 302.458 130.181 302.366 130.574 302.371C131.996 302.371 132.804 303.357 132.804 304.78V309.201H131.65V305.087C131.65 304.152 131.253 303.447 130.253 303.447C129.42 303.447 128.575 304.088 128.575 305.203V309.201H127.42H127.422ZM135.808 300V309.201H134.654V300H135.808ZM142.564 307.74C142.564 308.24 142.602 308.778 142.666 309.201H141.526C141.5 308.971 141.483 308.74 141.475 308.509C141.065 308.996 140.321 309.316 139.45 309.316C138.233 309.316 137.233 308.586 137.233 307.381C137.233 306.048 138.283 305.484 139.783 305.19L141.449 304.857V304.447C141.449 303.703 140.911 303.383 140.091 303.383C139.206 303.383 138.72 303.755 138.63 304.472H137.502C137.605 303.05 138.72 302.371 140.155 302.371C141.641 302.371 142.564 303.05 142.564 304.28V307.74ZM141.449 306.92V305.754L140.091 306.035C139.066 306.241 138.386 306.522 138.386 307.33C138.386 307.983 138.873 308.38 139.604 308.38C140.59 308.38 141.449 307.778 141.449 306.92ZM144.428 309.201V302.499H145.581V303.409C145.803 303.085 146.102 302.82 146.451 302.639C146.8 302.458 147.188 302.366 147.581 302.371C149.002 302.371 149.81 303.357 149.81 304.78V309.201H148.656V305.087C148.656 304.152 148.259 303.447 147.26 303.447C146.427 303.447 145.581 304.088 145.581 305.203V309.201H144.428ZM154.415 309.201V300H157.811C159.759 300 160.797 300.859 160.797 302.396C160.797 303.575 160.079 304.165 159.374 304.408C160.412 304.69 161.104 305.497 161.104 306.663C161.104 308.265 159.938 309.201 158.08 309.201H154.415ZM155.607 303.947H157.708C158.938 303.947 159.618 303.473 159.618 302.499C159.618 301.512 158.938 301.038 157.708 301.038H155.607V303.947ZM155.607 304.998V308.163H158.029C159.259 308.163 159.925 307.522 159.925 306.574C159.925 305.638 159.259 304.998 158.029 304.998H155.607ZM166.02 302.473V303.639C165.835 303.602 165.646 303.585 165.457 303.588C164.483 303.588 163.701 304.357 163.701 305.536V309.201H162.548V302.499H163.7V303.639C163.995 302.96 164.649 302.448 165.558 302.448C165.738 302.448 165.904 302.46 166.02 302.473ZM172.782 305.856C172.782 307.932 171.5 309.342 169.668 309.342C167.835 309.342 166.554 307.932 166.554 305.856C166.554 303.78 167.835 302.371 169.668 302.371C171.5 302.371 172.782 303.78 172.782 305.856ZM167.72 305.856C167.72 307.381 168.489 308.355 169.668 308.355C170.847 308.355 171.616 307.381 171.616 305.856C171.616 304.318 170.846 303.345 169.668 303.345C168.489 303.345 167.72 304.318 167.72 305.856ZM177.314 302.499H178.288L179.672 307.496L181.069 302.499H182.222L180.184 309.201H179.172L177.775 304.229L176.379 309.201H175.366L173.329 302.499H174.521L175.931 307.484L177.314 302.499ZM183.346 309.201V302.499H184.499V303.409C184.721 303.085 185.02 302.82 185.368 302.639C185.717 302.458 186.105 302.366 186.498 302.371C187.921 302.371 188.728 303.357 188.728 304.78V309.201H187.575V305.087C187.575 304.152 187.177 303.447 186.178 303.447C185.345 303.447 184.499 304.088 184.499 305.203V309.201H183.346Z" fill="white"/>
<path fill-rule="evenodd" clip-rule="evenodd" d="M269.338 153.811C269.338 154.201 269.017 154.522 268.626 154.522H257.329C256.937 154.522 256.616 154.201 256.616 153.811C256.616 153.419 256.937 153.098 257.329 153.098H268.626C269.017 153.098 269.338 153.419 269.338 153.811ZM270.148 156.645C270.148 157.036 269.827 157.357 269.436 157.357H261.364C260.973 157.357 260.652 157.036 260.652 156.645C260.652 156.254 260.973 155.933 261.364 155.933H269.436C269.827 155.933 270.148 156.254 270.148 156.645ZM269.436 151.688H262.174C261.783 151.688 261.462 151.367 261.462 150.976C261.462 150.584 261.783 150.263 262.174 150.263H269.436C269.827 150.263 270.148 150.584 270.148 150.976C270.148 151.367 269.827 151.688 269.436 151.688ZM277.8 153.811C277.8 155.765 276.223 157.343 274.267 157.343C272.313 157.343 270.735 155.752 270.735 153.811C270.735 151.869 272.313 150.277 274.267 150.277C276.223 150.277 277.8 151.869 277.8 153.811ZM272.159 153.811C272.159 154.983 273.109 155.933 274.281 155.933C275.454 155.933 276.404 154.983 276.404 153.811C276.404 152.637 275.454 151.688 274.281 151.688C273.109 151.688 272.159 152.637 272.159 153.811ZM274.281 147.443C277.787 147.443 280.635 150.305 280.635 153.811C280.635 157.315 277.787 160.178 274.281 160.178H264.604C264.213 160.178 263.892 159.857 263.892 159.466C263.892 159.075 264.213 158.754 264.604 158.754H274.281C277.004 158.754 279.225 156.533 279.225 153.796C279.225 151.059 277.004 148.839 274.281 148.839H258.948C258.557 148.839 258.236 148.518 258.236 148.127C258.236 147.736 258.557 147.415 258.948 147.415H274.281V147.443ZM298.845 156.17V151.464C298.845 148.643 300.744 146.661 303.482 146.661C306.219 146.661 308.118 148.643 308.118 151.464V156.17C308.118 158.977 306.204 160.932 303.482 160.932C300.758 160.932 298.845 158.963 298.845 156.17ZM305.423 156.268V151.367C305.423 149.817 304.501 149.244 303.482 149.244C302.518 149.244 301.568 149.76 301.568 151.339V156.24C301.568 157.79 302.476 158.335 303.482 158.335C304.403 158.335 305.423 157.846 305.423 156.254V156.268ZM315.016 149.244C314.08 149.244 313.103 149.76 313.103 151.339V156.24C313.103 157.874 314.08 158.362 315.016 158.362C316.273 158.362 316.957 157.748 316.957 155.737V155.556H319.666C319.666 159.089 318.158 160.946 315.03 160.946C312.293 160.946 310.394 158.977 310.394 156.156V151.408C310.394 148.602 312.293 146.646 315.03 146.646C318.102 146.646 319.666 148.672 319.666 151.883H316.957V151.688C316.957 149.649 315.966 149.23 315.016 149.23V149.244ZM328.561 160.736L325.824 154.983H324.805V160.736H322.096V146.898H324.805V152.595H325.824L328.561 146.898H331.592L328.143 153.768L331.592 160.736H328.561ZM336.633 149.509V152.651H340.376V155.011H336.633V158.153H341.688V160.736H333.938V146.898H341.688V149.509H336.633ZM348.95 149.509V160.736H346.241V149.509H343.364V146.898H351.826V149.509H348.95ZM370.386 160.736V146.898H373.095V160.736H370.386ZM376.264 146.898H380.803C383.54 146.898 385.439 148.587 385.439 151.967V155.612C385.439 158.949 383.54 160.736 380.803 160.736H376.264V146.898ZM378.974 158.167H380.496C381.795 158.167 382.772 157.65 382.772 154.955V152.26C382.772 150.766 382.381 149.496 380.496 149.496H378.974V158.167ZM390.914 149.509V152.651H394.656V155.011H390.914V158.153H395.968V160.736H388.219V146.898H395.968V149.509H390.914ZM397.826 150.71C397.826 148.182 399.627 146.646 402.364 146.646C405.101 146.646 406.875 148.434 406.875 151.282H404.207C404.207 149.817 403.481 149.118 402.323 149.118C401.164 149.118 400.521 149.662 400.521 150.71C400.521 153.461 407.042 151.827 407.042 156.771C407.042 159.396 405.157 160.974 402.364 160.974C399.571 160.974 397.645 159.145 397.645 156.185H400.353C400.353 157.79 401.177 158.46 402.364 158.46C403.551 158.46 404.347 157.93 404.347 156.799C404.347 154.174 397.826 155.625 397.826 150.71ZM294.586 156.533L296.918 160.736H293.958L292.1 157.162L291.765 156.561H290.299V160.736H287.59V146.898H291.975C295.871 146.898 296.597 150.138 296.597 151.897C296.597 153.852 295.619 155.262 294.223 155.919C294.349 156.142 294.474 156.366 294.572 156.533H294.586ZM290.299 149.496V154.006H291.654C292.784 154.006 293.93 153.503 293.93 151.73C293.93 149.942 292.841 149.496 291.654 149.496H290.299ZM365.623 156.533L367.956 160.736H364.996L363.138 157.162L362.803 156.561H361.337V160.736H358.641V146.898H363.026C366.922 146.898 367.648 150.138 367.648 151.897C367.648 153.852 366.671 155.262 365.274 155.919C365.4 156.142 365.526 156.366 365.623 156.533ZM361.337 149.496V154.006H362.691C363.822 154.006 364.967 153.503 364.967 151.73C364.967 149.942 363.878 149.496 362.691 149.496H361.337Z" fill="white"/>
<path d="M371.472 294.428L366.597 317.847H360.676L365.552 294.428H371.472ZM396.026 309.56L399.161 300.733L400.902 309.56H396.026ZM402.643 317.847H408.042L403.34 294.428H398.29C397.245 294.428 396.2 295.148 395.852 296.229L387.145 317.847H393.24L394.459 314.424H401.947L402.643 317.847ZM387.319 310.101C387.319 303.976 379.135 303.615 379.135 300.913C379.309 299.652 380.354 298.931 381.573 298.931C383.488 298.751 385.578 299.112 387.319 300.012L388.364 294.968C386.623 294.248 384.707 293.887 382.966 293.887C377.219 293.887 373.04 297.13 373.04 301.634C373.04 305.057 376 306.858 378.09 307.939C380.354 309.02 381.224 309.741 381.05 310.821C381.05 312.443 379.309 313.163 377.567 313.163C375.478 313.163 373.388 312.623 371.472 311.722L370.428 316.766C372.517 317.667 374.781 318.027 376.871 318.027C383.314 318.208 387.319 314.965 387.319 310.101ZM363.114 294.428L353.71 317.847H347.441L342.739 299.112C342.739 298.211 342.043 297.49 341.346 297.13C339.605 296.229 337.689 295.509 335.6 295.148L335.774 294.428H345.7C347.093 294.428 348.138 295.509 348.312 296.77L350.75 310.281L357.019 294.428H363.114Z" fill="white"/>
</g>
<g filter="url(#filter2_dd_4003_11333)">
<rect x="80" y="216" width="347" height="213" rx="14" fill="white" fill-opacity="0.01" shape-rendering="crispEdges"/>
</g>
<path d="M413.826 215H93.1737C85.3458 215 79 221.346 79 229.174V416.088C79 423.916 85.3458 430.262 93.1737 430.262H413.826C421.654 430.262 428 423.916 428 416.088V229.174C428 221.346 421.654 215 413.826 215Z" fill="white"/>
<mask id="mask4_4003_11333" style="mask-type:alpha" maskUnits="userSpaceOnUse" x="79" y="215" width="349" height="216">
<path d="M413.83 215H93.17C85.3441 215 79 221.344 79 229.17V416.092C79 423.918 85.3441 430.262 93.17 430.262H413.83C421.656 430.262 428 423.918 428 416.092V229.17C428 221.344 421.656 215 413.83 215Z" fill="black"/>
</mask>
<g mask="url(#mask4_4003_11333)">
<path d="M250.571 451.298C229.4 450.344 222.973 427.844 223.918 416.785C221.92 402.484 236.205 400.005 247.168 395.62C258.132 391.234 277.413 400.577 283.084 416.785C288.754 432.993 271.742 452.251 250.571 451.298Z" fill="#C9EBDA"/>
<path d="M190.905 212.14C162.116 193.73 135.945 186.617 92.3261 194.148C70.9529 196.24 24.5476 227.614 64.4101 317.582C79.2415 351.056 108.901 366.537 141.179 373.65C173.457 380.763 177.383 363.608 183.926 346.871C190.468 330.134 198.756 323.858 227.108 298.335C255.46 272.811 219.693 230.551 190.905 212.14Z" fill="#C9EBDA"/>
<path d="M261.647 319.787C273.083 310.464 278.738 300.99 278.611 283.189C279.336 274.632 267.69 253.271 220.088 259.492C202.377 261.807 192.313 271.774 186.157 283.63C180.001 295.487 188.13 298.798 195.839 303.087C203.548 307.377 205.959 311.261 216.205 324.972C226.452 338.682 250.212 329.11 261.647 319.787Z" fill="#C9EBDA"/>
<path fill-rule="evenodd" clip-rule="evenodd" d="M233.363 258.412C229.285 258.522 224.868 258.868 220.089 259.493C202.378 261.807 192.313 271.774 186.157 283.631C180.424 294.672 187.079 298.303 194.247 302.214C194.776 302.503 195.309 302.793 195.839 303.088C201.209 306.076 204.008 308.868 208.676 314.922C211.842 312.024 215.427 308.813 219.514 305.151C221.873 303.038 224.399 300.774 227.108 298.335C239.574 287.113 239.645 272.656 233.363 258.412Z" fill="#9ED9BA"/>
<path d="M411.156 358.772C422.307 370.402 433.115 375.726 452.48 374.026C461.857 374.065 484.087 359.517 473.142 308.249C469.069 289.174 457.338 279.093 443.893 273.432C430.447 267.77 427.555 276.91 423.563 285.676C419.57 294.443 415.553 297.409 401.528 309.764C387.503 322.118 400.005 347.141 411.156 358.772Z" fill="#C9EBDA"/>
<path d="M108.046 401.042H106.826V391.834H112.776V392.911H108.046V395.874H112.046V396.951H108.046V401.042ZM117.014 394.309V395.476C116.829 395.439 116.639 395.422 116.45 395.425C115.475 395.425 114.693 396.194 114.693 397.374V401.042H113.539V394.335H114.693V395.476C114.988 394.797 115.642 394.284 116.553 394.284C116.733 394.284 116.9 394.296 117.014 394.309ZM122.982 399.58C122.982 400.08 123.021 400.619 123.085 401.042H121.943C121.917 400.812 121.9 400.581 121.893 400.349C121.482 400.837 120.738 401.157 119.866 401.157C118.648 401.157 117.646 400.426 117.646 399.221C117.646 397.887 118.699 397.323 120.199 397.028L121.866 396.695V396.284C121.866 395.54 121.328 395.22 120.506 395.22C119.622 395.22 119.135 395.592 119.045 396.31H117.917C118.019 394.886 119.135 394.207 120.571 394.207C122.059 394.207 122.981 394.886 122.981 396.118L122.982 399.58ZM121.866 398.759V397.592L120.506 397.874C119.481 398.08 118.802 398.362 118.802 399.17C118.802 399.824 119.289 400.221 120.02 400.221C121.007 400.221 121.866 399.619 121.866 398.759ZM124.848 401.042V394.335H126.002V395.245C126.224 394.921 126.523 394.657 126.872 394.475C127.221 394.294 127.609 394.202 128.002 394.207C129.426 394.207 130.234 395.194 130.234 396.618V401.042H129.08V396.925C129.08 395.989 128.682 395.284 127.682 395.284C126.848 395.284 126.002 395.925 126.002 397.041V401.042H124.848ZM133.24 391.834V397.464L136.216 394.335H137.652L135.036 396.977L137.87 401.042H136.523L134.215 397.81L133.24 398.798V401.042H132.086V391.834H133.24ZM146.644 401.042H145.656L142.846 393.463V401.042H141.694V391.834H143.374L146.17 399.401L148.978 391.834H150.607V401.042H149.464V393.463L146.644 401.042ZM153.28 397.695C153.28 399.221 154.1 400.17 155.293 400.17C156.217 400.17 156.768 399.58 156.96 398.746L157.986 399.221C157.666 400.337 156.691 401.183 155.293 401.183C153.421 401.183 152.126 399.76 152.126 397.695C152.126 395.617 153.421 394.207 155.293 394.207C156.691 394.207 157.64 395.015 157.961 396.13L156.961 396.63C156.768 395.81 156.217 395.207 155.293 395.207C154.101 395.207 153.28 396.156 153.28 397.695ZM166.573 391.834V401.042H165.508L160.481 393.63V401.042H159.3V391.834H160.596L165.379 398.952V391.834H166.573ZM173.377 399.58C173.377 400.08 173.416 400.619 173.48 401.042H172.338C172.312 400.812 172.295 400.581 172.287 400.349C171.877 400.837 171.133 401.157 170.261 401.157C169.043 401.157 168.041 400.426 168.041 399.221C168.041 397.887 169.094 397.323 170.594 397.028L172.261 396.695V396.284C172.261 395.54 171.723 395.22 170.901 395.22C170.017 395.22 169.53 395.592 169.44 396.31H168.312C168.414 394.886 169.53 394.207 170.966 394.207C172.454 394.207 173.376 394.886 173.376 396.118L173.377 399.58ZM172.261 398.759V397.592L170.901 397.874C169.876 398.08 169.196 398.362 169.196 399.17C169.196 399.824 169.684 400.221 170.415 400.221C171.402 400.221 172.261 399.619 172.261 398.759ZM176.397 397.028V401.042H175.243V394.335H176.397V395.245C176.604 394.921 176.89 394.655 177.229 394.473C177.569 394.291 177.949 394.2 178.333 394.207C179.231 394.207 179.859 394.656 180.193 395.348C180.428 394.996 180.746 394.707 181.12 394.508C181.494 394.309 181.911 394.205 182.334 394.207C183.719 394.207 184.553 395.194 184.553 396.618V401.042H183.399V396.925C183.399 395.989 183.014 395.284 182.065 395.284C181.296 395.284 180.475 395.938 180.475 397.028V401.042H179.321V396.925C179.321 395.989 178.936 395.284 177.987 395.284C177.217 395.284 176.397 395.938 176.397 397.028ZM191.248 399.58C191.248 400.08 191.287 400.619 191.351 401.042H190.21C190.183 400.812 190.166 400.581 190.158 400.349C189.748 400.837 189.004 401.157 188.132 401.157C186.914 401.157 185.913 400.426 185.913 399.221C185.913 397.887 186.965 397.323 188.465 397.028L190.133 396.695V396.284C190.133 395.54 189.594 395.22 188.773 395.22C187.888 395.22 187.401 395.592 187.311 396.31H186.183C186.285 394.886 187.401 394.207 188.837 394.207C190.325 394.207 191.248 394.886 191.248 396.118V399.58ZM190.133 398.759V397.592L188.773 397.874C187.747 398.08 187.068 398.362 187.068 399.17C187.068 399.824 187.555 400.221 188.286 400.221C189.273 400.221 190.133 399.619 190.133 398.759ZM196.589 394.309V395.476C196.404 395.439 196.214 395.422 196.025 395.425C195.05 395.425 194.268 396.194 194.268 397.374V401.042H193.114V394.335H194.268V395.476C194.563 394.797 195.217 394.284 196.127 394.284C196.307 394.284 196.474 394.296 196.589 394.309ZM202.557 399.58C202.557 400.08 202.596 400.619 202.66 401.042H201.518C201.492 400.812 201.475 400.581 201.467 400.349C201.057 400.837 200.313 401.157 199.441 401.157C198.223 401.157 197.222 400.426 197.222 399.221C197.222 397.887 198.274 397.323 199.774 397.028L201.441 396.695V396.284C201.441 395.54 200.903 395.22 200.082 395.22C199.197 395.22 198.71 395.592 198.62 396.31H197.492C197.594 394.886 198.71 394.207 200.146 394.207C201.634 394.207 202.557 394.886 202.557 396.118V399.58ZM201.441 398.759V397.592L200.082 397.874C199.056 398.08 198.376 398.362 198.376 399.17C198.376 399.824 198.864 400.221 199.595 400.221C200.582 400.221 201.441 399.619 201.441 398.759Z" fill="black"/>
<path d="M371.699 387.561L366.82 410.999H360.894L365.774 387.561H371.699ZM396.272 402.705L399.409 393.871L401.152 402.705H396.272ZM402.895 410.999H408.297L403.592 387.561H398.538C397.492 387.561 396.446 388.282 396.098 389.364L387.384 410.999H393.484L394.704 407.573H402.197L402.895 410.999ZM387.558 403.246C387.558 397.116 379.368 396.756 379.368 394.051C379.542 392.789 380.587 392.068 381.807 392.068C383.724 391.888 385.816 392.248 387.558 393.15L388.604 388.102C386.861 387.381 384.944 387.02 383.202 387.02C377.45 387.02 373.268 390.265 373.268 394.773C373.268 398.198 376.231 400.001 378.322 401.083C380.587 402.164 381.459 402.886 381.285 403.967C381.285 405.59 379.542 406.311 377.799 406.311C375.708 406.311 373.616 405.77 371.699 404.869L370.654 409.917C372.745 410.818 375.011 411.179 377.102 411.179C383.55 411.359 387.558 408.114 387.558 403.246ZM363.334 387.561L353.923 410.999H347.65L342.944 392.248C342.944 391.347 342.247 390.626 341.55 390.265C339.807 389.364 337.89 388.643 335.799 388.282L335.973 387.561H345.907C347.301 387.561 348.347 388.643 348.521 389.905L350.961 403.426L357.235 387.561H363.334Z" fill="black"/>
</g>
<path fill-rule="evenodd" clip-rule="evenodd" d="M374.685 249.161C374.685 249.977 374.806 250.571 375.049 250.942C375.293 251.315 375.728 251.501 376.353 251.501V252.059C375.814 252.006 375.275 251.979 374.737 251.979C373.189 251.979 371.921 252.103 370.931 252.352V250.065C370.339 251.66 369.211 252.458 367.542 252.458C365.908 252.458 364.605 251.855 363.632 250.649C362.676 249.426 362.207 247.591 362.224 245.145C362.224 243.585 362.468 242.273 362.954 241.209C363.458 240.128 364.144 239.322 365.013 238.79C365.9 238.24 366.907 237.965 368.037 237.965C369.306 237.965 370.27 238.302 370.931 238.976V234.455C370.931 233.639 370.8 233.045 370.539 232.674C370.296 232.301 369.87 232.115 369.262 232.115V231.556C369.818 231.61 370.357 231.636 370.879 231.636C372.391 231.636 373.66 231.512 374.685 231.264V249.161ZM368.611 251.315C369.184 251.315 369.688 251.102 370.123 250.676C370.574 250.251 370.844 249.675 370.931 248.948V239.64C370.497 239.038 369.862 238.736 369.027 238.736C368.107 238.736 367.394 239.277 366.89 240.359C366.386 241.44 366.143 243.053 366.161 245.199C366.143 247.362 366.343 248.921 366.759 249.878C367.194 250.836 367.811 251.315 368.611 251.315ZM316.934 238.328C317.838 238.328 318.638 238.583 319.333 239.092C320.045 239.602 320.601 240.366 321.001 241.384C321.401 242.403 321.601 243.65 321.601 245.123C321.601 247.723 321.053 249.725 319.958 251.125C318.881 252.509 317.413 253.199 315.553 253.199C315.032 253.199 314.536 253.127 314.067 252.981C313.615 252.835 313.224 252.617 312.894 252.327V255.055C312.894 255.856 313.085 256.411 313.467 256.72C313.85 257.029 314.441 257.183 315.24 257.183V257.756L314.536 257.729C312.608 257.674 311.382 257.647 310.861 257.647C310.34 257.647 309.244 257.684 307.576 257.756V257.183C308.149 257.183 308.549 257.047 308.775 256.774C309.018 256.519 309.14 256.038 309.14 255.328V241.684C309.14 240.848 309.01 240.239 308.749 239.856C308.506 239.475 308.08 239.283 307.472 239.283V238.71C308.028 238.765 308.567 238.792 309.088 238.792C310.6 238.792 311.868 238.665 312.894 238.411V240.92C313.259 240.084 313.789 239.447 314.484 239.01C315.179 238.555 315.996 238.328 316.934 238.328ZM314.536 252.463C315.648 252.463 316.448 251.889 316.934 250.744C317.421 249.579 317.664 247.888 317.664 245.668C317.664 243.449 317.465 241.866 317.065 240.92C316.683 239.975 316.127 239.501 315.396 239.501C314.805 239.501 314.276 239.71 313.807 240.129C313.354 240.548 313.051 241.13 312.894 241.875V251.726C313.311 252.217 313.859 252.463 314.536 252.463ZM330.433 238.328C332.643 238.328 334.373 238.899 335.623 240.039C336.872 241.163 337.497 242.952 337.497 245.407C337.497 247.86 336.872 249.649 335.623 250.773C334.373 251.897 332.643 252.458 330.433 252.458C328.241 252.458 326.511 251.897 325.241 250.773C323.993 249.649 323.367 247.86 323.367 245.407C323.367 242.952 323.993 241.163 325.241 240.039C326.511 238.899 328.241 238.328 330.433 238.328ZM330.433 238.847C329.606 238.847 328.942 239.392 328.443 240.48C327.962 241.551 327.721 243.194 327.721 245.407C327.721 247.619 327.962 249.261 328.443 250.332C328.942 251.404 329.606 251.939 330.433 251.939C331.278 251.939 331.942 251.412 332.422 250.358C332.902 249.287 333.143 247.636 333.143 245.407C333.143 243.176 332.893 241.525 332.394 240.454C331.913 239.382 331.258 238.847 330.433 238.847ZM358.428 238.436C359.337 238.436 360.013 238.409 360.457 238.355V238.898C360.084 239.007 359.746 239.233 359.443 239.578C359.14 239.922 358.873 240.474 358.643 241.235L355.092 252.458C354.897 252.439 354.603 252.431 354.211 252.431C353.837 252.431 353.553 252.439 353.357 252.458L349.726 242.376L346.764 252.458C346.586 252.439 346.301 252.431 345.909 252.431C345.518 252.431 345.224 252.439 345.028 252.458L340.811 240.447C340.598 239.814 340.358 239.406 340.091 239.224C339.824 239.026 339.547 238.925 339.263 238.925V238.355C340.42 238.464 341.683 238.518 343.053 238.518C343.943 238.518 345.1 238.464 346.524 238.355V238.925C345.936 238.925 345.51 238.971 345.242 239.062C344.993 239.152 344.868 239.37 344.868 239.713C344.868 239.949 344.913 240.194 345.002 240.447L347.404 248.137L350.314 238.328L351.302 238.355L352.262 238.328L355.733 248.708L357.414 243.246C357.664 242.395 357.788 241.706 357.788 241.181C357.788 239.768 357.085 239.007 355.679 238.898V238.355C356.516 238.409 357.432 238.436 358.428 238.436ZM390.472 249.251C390.472 250.051 390.603 250.634 390.861 250.998C391.139 251.364 391.601 251.546 392.248 251.546V252.093C391.674 252.041 391.102 252.015 390.528 252.015C388.919 252.015 387.57 252.136 386.478 252.38V250.034C385.628 251.651 384.139 252.458 382.012 252.458C380.625 252.458 379.617 252.12 378.988 251.441C378.692 251.111 378.471 250.685 378.323 250.164C378.193 249.625 378.129 248.922 378.129 248.052V241.456C378.129 240.657 377.99 240.075 377.712 239.71C377.454 239.345 377 239.162 376.353 239.162V238.614C376.926 238.667 377.499 238.693 378.073 238.693C379.682 238.693 381.031 238.571 382.123 238.328V249.122C382.123 249.851 382.233 250.399 382.455 250.764C382.696 251.129 383.141 251.311 383.787 251.311C384.527 251.311 385.156 251.024 385.673 250.45C386.21 249.86 386.478 249.138 386.478 248.287V241.456C386.478 240.657 386.34 240.075 386.062 239.71C385.803 239.345 385.35 239.162 384.703 239.162V238.614C385.294 238.667 385.868 238.693 386.423 238.693C388.032 238.693 389.381 238.571 390.472 238.328V249.251ZM405.723 239.047C405.289 238.568 404.644 238.328 403.791 238.328C402.939 238.328 402.171 238.568 401.489 239.047C400.807 239.508 400.286 240.12 399.927 240.883V238.409C398.846 238.657 397.463 238.781 395.777 238.781C395.209 238.781 394.621 238.754 394.014 238.7V239.259C394.697 239.259 395.171 239.446 395.436 239.818C395.701 240.191 395.833 240.786 395.833 241.601V249.983C395.833 250.71 395.701 251.216 395.436 251.5C395.171 251.765 394.697 251.899 394.014 251.899V252.458C394.242 252.458 394.431 252.448 394.583 252.431C396.401 252.378 397.567 252.351 398.078 252.351C398.723 252.351 400.011 252.378 401.944 252.431C402.115 252.448 402.332 252.458 402.598 252.458V251.899C401.67 251.899 400.987 251.74 400.551 251.42C400.134 251.101 399.927 250.533 399.927 249.716V242.666C399.927 241.921 400.172 241.193 400.665 240.483C401.177 239.774 401.792 239.366 402.512 239.259C402.627 239.224 402.777 239.206 402.967 239.206C403.119 239.206 403.233 239.216 403.308 239.233C402.475 239.765 402.058 240.457 402.058 241.308C402.058 241.823 402.247 242.24 402.626 242.559C403.006 242.861 403.517 243.012 404.161 243.012C404.824 243.012 405.355 242.808 405.752 242.399C406.169 241.974 406.378 241.432 406.378 240.776C406.378 240.103 406.16 239.525 405.723 239.047Z" fill="black"/>
<defs>
<filter id="filter0_dd_4003_11333" x="0" y="0" width="507" height="373" filterUnits="userSpaceOnUse" color-interpolation-filters="sRGB">
<feFlood flood-opacity="0" result="BackgroundImageFix"/>
<feColorMatrix in="SourceAlpha" type="matrix" values="0 0 0 0 0 0 0 0 0 0 0 0 0 0 0 0 0 0 127 0" result="hardAlpha"/>
<feMorphology radius="30" operator="erode" in="SourceAlpha" result="effect1_dropShadow_4003_11333"/>
<feOffset dy="30"/>
<feGaussianBlur stdDeviation="30"/>
<feComposite in2="hardAlpha" operator="out"/>
<feColorMatrix type="matrix" values="0 0 0 0 0 0 0 0 0 0 0 0 0 0 0 0 0 0 0.3 0"/>
<feBlend mode="normal" in2="BackgroundImageFix" result="effect1_dropShadow_4003_11333"/>
<feColorMatrix in="SourceAlpha" type="matrix" values="0 0 0 0 0 0 0 0 0 0 0 0 0 0 0 0 0 0 127 0" result="hardAlpha"/>
<feMorphology radius="20" operator="erode" in="SourceAlpha" result="effect2_dropShadow_4003_11333"/>
<feOffset dy="50"/>
<feGaussianBlur stdDeviation="50"/>
<feComposite in2="hardAlpha" operator="out"/>
<feColorMatrix type="matrix" values="0 0 0 0 0.196078 0 0 0 0 0.196078 0 0 0 0 0.364706 0 0 0 0.25 0"/>
<feBlend mode="normal" in2="effect1_dropShadow_4003_11333" result="effect2_dropShadow_4003_11333"/>
<feBlend mode="normal" in="SourceGraphic" in2="effect2_dropShadow_4003_11333" result="shape"/>
</filter>
<filter id="filter1_dd_4003_11333" x="0" y="93" width="507" height="373" filterUnits="userSpaceOnUse" color-interpolation-filters="sRGB">
<feFlood flood-opacity="0" result="BackgroundImageFix"/>
<feColorMatrix in="SourceAlpha" type="matrix" values="0 0 0 0 0 0 0 0 0 0 0 0 0 0 0 0 0 0 127 0" result="hardAlpha"/>
<feMorphology radius="30" operator="erode" in="SourceAlpha" result="effect1_dropShadow_4003_11333"/>
<feOffset dy="30"/>
<feGaussianBlur stdDeviation="30"/>
<feComposite in2="hardAlpha" operator="out"/>
<feColorMatrix type="matrix" values="0 0 0 0 0 0 0 0 0 0 0 0 0 0 0 0 0 0 0.3 0"/>
<feBlend mode="normal" in2="BackgroundImageFix" result="effect1_dropShadow_4003_11333"/>
<feColorMatrix in="SourceAlpha" type="matrix" values="0 0 0 0 0 0 0 0 0 0 0 0 0 0 0 0 0 0 127 0" result="hardAlpha"/>
<feMorphology radius="20" operator="erode" in="SourceAlpha" result="effect2_dropShadow_4003_11333"/>
<feOffset dy="50"/>
<feGaussianBlur stdDeviation="50"/>
<feComposite in2="hardAlpha" operator="out"/>
<feColorMatrix type="matrix" values="0 0 0 0 0.196078 0 0 0 0 0.196078 0 0 0 0 0.364706 0 0 0 0.25 0"/>
<feBlend mode="normal" in2="effect1_dropShadow_4003_11333" result="effect2_dropShadow_4003_11333"/>
<feBlend mode="normal" in="SourceGraphic" in2="effect2_dropShadow_4003_11333" result="shape"/>
</filter>
<filter id="filter2_dd_4003_11333" x="0" y="186" width="507" height="373" filterUnits="userSpaceOnUse" color-interpolation-filters="sRGB">
<feFlood flood-opacity="0" result="BackgroundImageFix"/>
<feColorMatrix in="SourceAlpha" type="matrix" values="0 0 0 0 0 0 0 0 0 0 0 0 0 0 0 0 0 0 127 0" result="hardAlpha"/>
<feMorphology radius="30" operator="erode" in="SourceAlpha" result="effect1_dropShadow_4003_11333"/>
<feOffset dy="30"/>
<feGaussianBlur stdDeviation="30"/>
<feComposite in2="hardAlpha" operator="out"/>
<feColorMatrix type="matrix" values="0 0 0 0 0 0 0 0 0 0 0 0 0 0 0 0 0 0 0.3 0"/>
<feBlend mode="normal" in2="BackgroundImageFix" result="effect1_dropShadow_4003_11333"/>
<feColorMatrix in="SourceAlpha" type="matrix" values="0 0 0 0 0 0 0 0 0 0 0 0 0 0 0 0 0 0 127 0" result="hardAlpha"/>
<feMorphology radius="20" operator="erode" in="SourceAlpha" result="effect2_dropShadow_4003_11333"/>
<feOffset dy="50"/>
<feGaussianBlur stdDeviation="50"/>
<feComposite in2="hardAlpha" operator="out"/>
<feColorMatrix type="matrix" values="0 0 0 0 0.196078 0 0 0 0 0.196078 0 0 0 0 0.364706 0 0 0 0.25 0"/>
<feBlend mode="normal" in2="effect1_dropShadow_4003_11333" result="effect2_dropShadow_4003_11333"/>
<feBlend mode="normal" in="SourceGraphic" in2="effect2_dropShadow_4003_11333" result="shape"/>
</filter>
<linearGradient id="paint0_linear_4003_11333" x1="857.544" y1="91.847" x2="846.432" y2="295.829" gradientUnits="userSpaceOnUse">
<stop offset="0.614583" stop-color="#27BB86"/>
<stop offset="1" stop-color="white"/>
</linearGradient>
<linearGradient id="paint1_linear_4003_11333" x1="857.898" y1="99.4446" x2="846.785" y2="303.427" gradientUnits="userSpaceOnUse">
<stop offset="0.614583" stop-color="#27BB86"/>
<stop offset="1" stop-color="white"/>
</linearGradient>
<linearGradient id="paint2_linear_4003_11333" x1="857.127" y1="86.011" x2="846.015" y2="289.994" gradientUnits="userSpaceOnUse">
<stop offset="0.614583" stop-color="#27BB86"/>
<stop offset="1" stop-color="white"/>
</linearGradient>
<linearGradient id="paint3_linear_4003_11333" x1="855.178" y1="78.9446" x2="844.066" y2="282.927" gradientUnits="userSpaceOnUse">
<stop offset="0.614583" stop-color="#27BB86"/>
<stop offset="1" stop-color="white"/>
</linearGradient>
<linearGradient id="paint4_linear_4003_11333" x1="854.352" y1="72.7044" x2="843.239" y2="276.687" gradientUnits="userSpaceOnUse">
<stop offset="0.614583" stop-color="#27BB86"/>
<stop offset="1" stop-color="white"/>
</linearGradient>
<linearGradient id="paint5_linear_4003_11333" x1="853.524" y1="66.4661" x2="842.411" y2="270.448" gradientUnits="userSpaceOnUse">
<stop offset="0.614583" stop-color="#27BB86"/>
<stop offset="1" stop-color="white"/>
</linearGradient>
<linearGradient id="paint6_linear_4003_11333" x1="861.97" y1="125.146" x2="850.858" y2="329.128" gradientUnits="userSpaceOnUse">
<stop offset="0.614583" stop-color="#27BB86"/>
<stop offset="1" stop-color="white"/>
</linearGradient>
<linearGradient id="paint7_linear_4003_11333" x1="862.323" y1="132.743" x2="851.211" y2="336.726" gradientUnits="userSpaceOnUse">
<stop offset="0.614583" stop-color="#27BB86"/>
<stop offset="1" stop-color="white"/>
</linearGradient>
<linearGradient id="paint8_linear_4003_11333" x1="861.553" y1="119.31" x2="850.441" y2="323.292" gradientUnits="userSpaceOnUse">
<stop offset="0.614583" stop-color="#27BB86"/>
<stop offset="1" stop-color="white"/>
</linearGradient>
<linearGradient id="paint9_linear_4003_11333" x1="859.604" y1="112.243" x2="848.491" y2="316.226" gradientUnits="userSpaceOnUse">
<stop offset="0.614583" stop-color="#27BB86"/>
<stop offset="1" stop-color="white"/>
</linearGradient>
<linearGradient id="paint10_linear_4003_11333" x1="858.778" y1="106.003" x2="847.665" y2="309.986" gradientUnits="userSpaceOnUse">
<stop offset="0.614583" stop-color="#27BB86"/>
<stop offset="1" stop-color="white"/>
</linearGradient>
<linearGradient id="paint11_linear_4003_11333" x1="857.949" y1="99.7649" x2="846.837" y2="303.747" gradientUnits="userSpaceOnUse">
<stop offset="0.614583" stop-color="#27BB86"/>
<stop offset="1" stop-color="white"/>
</linearGradient>
</defs>
</svg>
