<svg width="201" height="41" viewBox="0 0 201 41" fill="none" xmlns="http://www.w3.org/2000/svg">
<path d="M123.722 36.1084H122.203V35.3354H126.079V36.1084H124.56V40.0244H123.722V36.1084ZM118.417 36.1084H116.911V35.3354H120.775V36.1084H119.269V40.0244H118.417V36.1084ZM109.118 35.3354H108.28V40.0254H109.118V35.3354ZM104.351 37.4444C104.56 37.4444 104.73 37.3794 104.848 37.2484C104.969 37.1165 105.035 36.9428 105.032 36.7634C105.035 36.5802 104.97 36.4023 104.848 36.2654C104.784 36.2029 104.709 36.1543 104.625 36.1228C104.542 36.0913 104.453 36.0775 104.364 36.0824H103.473V37.4444H104.351ZM102.661 35.3354H104.351C104.626 35.3354 104.875 35.3754 105.071 35.4664C105.244 35.5389 105.399 35.6479 105.525 35.786C105.652 35.9241 105.747 36.088 105.804 36.2664C105.857 36.4364 105.883 36.5934 105.883 36.7364C105.883 37.0254 105.818 37.3004 105.7 37.5234C105.567 37.7558 105.372 37.9463 105.137 38.0734L106.171 40.0374H105.215L104.311 38.1914H103.473V40.0374H102.661V35.3354ZM98.9408 37.4444C99.1508 37.4444 99.3208 37.3794 99.4388 37.2484C99.5601 37.1164 99.6257 36.9426 99.6218 36.7634C99.6256 36.5803 99.5603 36.4025 99.4388 36.2654C99.3752 36.2028 99.2992 36.1542 99.2157 36.1227C99.1321 36.0912 99.043 36.0775 98.9538 36.0824H98.0638V37.4444H98.9408ZM97.2388 35.3354H98.9288C99.2028 35.3354 99.4518 35.3754 99.6488 35.4664C99.8448 35.5584 100.002 35.6634 100.12 35.8064C100.238 35.9514 100.33 36.0954 100.382 36.2664C100.449 36.4724 100.474 36.6896 100.456 36.9055C100.438 37.1213 100.377 37.3314 100.277 37.5234C100.145 37.756 99.9494 37.9466 99.7138 38.0734L100.749 40.0374H99.7928L98.8888 38.1914H98.0378V40.0374H97.2248V35.3354H97.2388ZM93.9118 38.0994L93.3218 36.2794L92.7198 38.0994H93.9118ZM92.9028 35.3354H93.7678L95.4578 40.0254H94.5138L94.1208 38.8324H92.4578L92.0648 40.0244H91.1868L92.9028 35.3354ZM85.0708 35.3354H85.8568L87.1928 37.5494L88.5158 35.3354H89.3008L89.5108 40.0254H88.6988L88.5418 36.7764L87.3758 38.6884H86.9698L85.7908 36.8154L85.6468 40.0254H84.8608L85.0708 35.3354ZM113.48 39.3174C113.683 39.3225 113.885 39.2801 114.069 39.1937C114.253 39.1072 114.415 38.9791 114.541 38.8194C114.672 38.6624 114.763 38.4914 114.829 38.2824C114.894 38.0854 114.934 37.8764 114.934 37.6534C114.934 37.4304 114.894 37.2214 114.829 37.0114C114.77 36.8191 114.672 36.6411 114.541 36.4884C114.419 36.3347 114.261 36.2131 114.082 36.1344C113.894 36.0435 113.688 35.9986 113.48 36.0034C113.257 36.0034 113.061 36.0434 112.877 36.1334C112.703 36.2238 112.548 36.348 112.422 36.4987C112.296 36.6495 112.202 36.8237 112.144 37.0114C112.005 37.4233 112.005 37.8695 112.144 38.2814C112.209 38.4784 112.301 38.6614 112.432 38.8194C112.563 38.9764 112.707 39.0944 112.877 39.1864C113.061 39.2644 113.257 39.3174 113.48 39.3174ZM113.48 40.1424C113.152 40.1424 112.851 40.0764 112.563 39.9454C112.288 39.8181 112.039 39.6403 111.829 39.4214C111.614 39.1936 111.446 38.9268 111.332 38.6354C111.088 38.0125 111.088 37.3203 111.332 36.6974C111.45 36.3964 111.62 36.1344 111.829 35.9114C112.039 35.6894 112.275 35.5184 112.563 35.3874C112.851 35.2574 113.152 35.1914 113.48 35.1914C113.807 35.1914 114.108 35.2564 114.397 35.3874C114.672 35.5184 114.92 35.6894 115.13 35.9114C115.34 36.1344 115.51 36.3964 115.628 36.6974C115.872 37.3203 115.872 38.0125 115.628 38.6354C115.514 38.927 115.345 39.1939 115.13 39.4214C114.924 39.6443 114.674 39.8227 114.397 39.9454C114.109 40.0768 113.796 40.1441 113.48 40.1424Z" fill="black"/>
<path d="M107.677 30.6466H115.208L102.609 0.626578L96.2831 3.69258L100.683 14.1446L98.6401 19.0046L90.7551 0.142578L84.3641 3.06258L89.4981 15.1126L89.4721 15.1656C86.3021 22.7756 82.4251 24.8576 82.0451 25.0016C80.84 25.4977 79.5283 25.678 78.2341 25.5256L75.1431 32.1536C76.1651 32.7426 77.3171 33.0836 78.5351 33.0836C80.0811 33.0836 81.4951 32.5456 82.6751 31.6556L82.6611 31.6816C82.6611 31.6816 85.5811 30.2016 88.7121 22.0936C88.7121 22.0806 89.8651 19.5006 90.4801 17.8506L90.5461 17.6676L96.0461 30.6596H103.565L99.6881 21.5176L101.744 16.6586L107.677 30.6466Z" fill="#A11D2B"/>
</svg>
