<svg width="23" height="36" viewBox="0 0 23 36" fill="none" xmlns="http://www.w3.org/2000/svg">
<path d="M12.5426 0.962339L20.9426 9.23234C21.3217 9.60398 21.6231 10.0474 21.8291 10.5367C22.0351 11.026 22.1417 11.5514 22.1426 12.0823V32.5823C22.1426 33.378 21.8265 34.1411 21.2639 34.7037C20.7013 35.2663 19.9382 35.5823 19.1426 35.5823H3.14258C2.34693 35.5823 1.58387 35.2663 1.02126 34.7037C0.458648 34.1411 0.142578 33.378 0.142578 32.5823V12.0823C0.143451 11.5514 0.250007 11.026 0.456032 10.5367C0.662057 10.0474 0.963429 9.60398 1.34258 9.23234L9.74258 0.962339C10.1164 0.595886 10.6191 0.390625 11.1426 0.390625C11.6661 0.390625 12.1687 0.595886 12.5426 0.962339ZM11.1426 6.58234C10.3469 6.58234 9.58387 6.89841 9.02126 7.46102C8.45865 8.02363 8.14258 8.78669 8.14258 9.58234C8.14258 10.378 8.45865 11.1411 9.02126 11.7037C9.58387 12.2663 10.3469 12.5823 11.1426 12.5823C11.9382 12.5823 12.7013 12.2663 13.2639 11.7037C13.8265 11.1411 14.1426 10.378 14.1426 9.58234C14.1426 8.78669 13.8265 8.02363 13.2639 7.46102C12.7013 6.89841 11.9382 6.58234 11.1426 6.58234Z" fill="#7A73FF"/>
</svg>
