<svg width="34" height="33" viewBox="0 0 34 33" fill="none" xmlns="http://www.w3.org/2000/svg">
<path d="M32.9352 2.33841L33.0271 14.1259C33.0324 14.6568 32.932 15.1834 32.7316 15.6751C32.5313 16.1668 32.2351 16.6136 31.8603 16.9897L17.3647 31.4854C16.802 32.048 16.039 32.364 15.2433 32.364C14.4477 32.364 13.6846 32.048 13.122 31.4854L1.8083 20.1716C1.24569 19.609 0.929619 18.846 0.92962 18.0503C0.929621 17.2547 1.24569 16.4916 1.8083 15.929L16.304 1.43331C16.68 1.05851 17.1269 0.762327 17.6186 0.562014C18.1103 0.361702 18.6369 0.261274 19.1678 0.266584L30.9553 0.358505C31.4787 0.36374 31.9793 0.574019 32.3495 0.944193C32.7196 1.31437 32.9299 1.81493 32.9352 2.33841ZM27.9713 5.3224C27.4087 4.75979 26.6456 4.44372 25.8499 4.44372C25.0543 4.44372 24.2912 4.75979 23.7286 5.3224C23.166 5.88501 22.8499 6.64807 22.8499 7.44372C22.8499 8.23937 23.166 9.00243 23.7286 9.56504C24.2912 10.1276 25.0543 10.4437 25.8499 10.4437C26.6456 10.4437 27.4087 10.1276 27.9713 9.56504C28.5339 9.00243 28.8499 8.23937 28.8499 7.44372C28.8499 6.64807 28.5339 5.88501 27.9713 5.3224Z" fill="#80E9FF"/>
</svg>
