<svg width="20" height="20" viewBox="0 0 20 20" fill="none" xmlns="http://www.w3.org/2000/svg">
<path d="M17.305 5.64092C17.1626 5.40675 16.9488 5.22447 16.695 5.12092L4.27004 0.100918C4.07413 0.021063 3.86154 -0.00918757 3.65113 0.0128515C3.44073 0.0348906 3.23902 0.108537 3.06391 0.227254C2.8888 0.345971 2.74572 0.506085 2.64735 0.693383C2.54898 0.880681 2.49838 1.08937 2.50004 1.30092V7.50092C2.50004 8.02592 2.82004 8.50092 3.30504 8.70092L6.52504 10.0009L17.305 14.3609C17.435 14.1609 17.505 13.9209 17.5 13.6809V6.32092C17.5 6.08092 17.435 5.84092 17.305 5.63592V5.64092Z" fill="url(#paint0_linear_4003_2772)"/>
<path d="M17.315 5.64062L6.53001 10.0006L3.30501 11.3006C3.06638 11.3974 2.86219 11.5635 2.71872 11.7773C2.57525 11.9912 2.49908 12.2431 2.50001 12.5006V18.7106C2.5004 18.9213 2.55238 19.1287 2.65143 19.3147C2.75047 19.5006 2.89356 19.6595 3.06818 19.7774C3.2428 19.8953 3.44364 19.9686 3.65315 19.991C3.86265 20.0133 4.07444 19.984 4.27001 19.9056L16.7 14.8806C16.95 14.7756 17.165 14.5956 17.305 14.3606C17.435 14.1556 17.505 13.9206 17.5 13.6806V6.32063C17.5 6.08063 17.44 5.84562 17.315 5.64062Z" fill="#9966FF"/>
<path d="M17.3103 5.64062L17.3603 5.72563C17.4503 5.91063 17.5003 6.11063 17.5003 6.32063V6.30562V13.6806C17.5003 13.9206 17.4353 14.1556 17.3053 14.3606L6.53027 10.0006L17.3103 5.64062Z" fill="url(#paint1_linear_4003_2772)"/>
<defs>
<linearGradient id="paint0_linear_4003_2772" x1="10" y1="2.06592" x2="10" y2="10.5659" gradientUnits="userSpaceOnUse">
<stop stop-color="#11EFE3"/>
<stop offset="1" stop-color="#21CFE0"/>
</linearGradient>
<linearGradient id="paint1_linear_4003_2772" x1="17.5003" y1="5.64062" x2="17.5003" y2="14.3606" gradientUnits="userSpaceOnUse">
<stop stop-color="#0048E5"/>
<stop offset="1" stop-color="#9B66FF"/>
</linearGradient>
</defs>
</svg>
