<svg width="201" height="41" viewBox="0 0 201 41" fill="none" xmlns="http://www.w3.org/2000/svg">
<path d="M94.9231 4.51658C96.7691 2.60458 99.3411 1.39558 102.176 1.39558C105.956 1.39558 109.231 3.50558 110.989 6.62558C112.559 5.92542 114.259 5.56618 115.978 5.57158C122.791 5.57158 128.286 11.1316 128.286 17.9886C128.286 24.8456 122.769 30.4066 115.978 30.4066C115.166 30.4055 114.357 30.3245 113.561 30.1646C112.778 31.5642 111.637 32.7297 110.253 33.5409C108.87 34.3521 107.296 34.7797 105.692 34.7796C104.33 34.7787 102.985 34.4711 101.758 33.8796C100.198 37.5496 96.5501 40.1426 92.3081 40.1426C87.8901 40.1426 84.1101 37.3516 82.6591 33.4176C82.0155 33.5498 81.3601 33.6161 80.7031 33.6156C75.4291 33.6156 71.1651 29.3076 71.1651 23.9666C71.1613 22.2792 71.5998 20.6203 72.4367 19.1551C73.2736 17.6899 74.4798 16.4696 75.9351 15.6156C75.3218 14.2236 75.007 12.7186 75.0111 11.1976C74.9891 5.10958 79.9781 0.142578 86.0881 0.142578C89.6921 0.142578 92.9011 1.85658 94.9231 4.51658Z" fill="#00A1E0"/>
<path d="M79.429 20.8896L79.671 20.2526C79.715 20.1426 79.781 20.1866 79.824 20.2086C79.89 20.2526 79.934 20.2746 80.022 20.3406C80.704 20.7806 81.341 20.7806 81.539 20.7806C82.044 20.7806 82.374 20.5166 82.374 20.1426V20.1206C82.374 19.7246 81.89 19.5706 81.319 19.3956L81.187 19.3516C80.417 19.1316 79.583 18.8016 79.583 17.8346V17.8126C79.583 16.8896 80.33 16.2306 81.407 16.2306H81.517C82.154 16.2306 82.747 16.4066 83.187 16.6916C83.231 16.7136 83.275 16.7576 83.253 16.8236C83.231 16.8896 83.033 17.3956 83.011 17.4616C82.967 17.5716 82.857 17.5056 82.857 17.5056C82.3949 17.2663 81.8833 17.1382 81.363 17.1316C80.901 17.1316 80.616 17.3736 80.616 17.7026V17.7246C80.616 18.0986 81.121 18.2746 81.693 18.4506L81.803 18.4726C82.572 18.7136 83.385 19.0436 83.385 19.9886V20.0106C83.385 21.0216 82.66 21.6376 81.495 21.6376C80.923 21.6376 80.374 21.5496 79.78 21.2416C79.67 21.1756 79.56 21.1316 79.45 21.0436C79.429 20.9996 79.385 20.9776 79.429 20.8896ZM96.572 20.8896L96.813 20.2526C96.857 20.1426 96.945 20.1866 96.967 20.2086C97.033 20.2526 97.077 20.2746 97.165 20.3406C97.846 20.7806 98.484 20.7806 98.682 20.7806C99.187 20.7806 99.517 20.5166 99.517 20.1426V20.1206C99.517 19.7246 99.033 19.5706 98.462 19.3956L98.33 19.3516C97.56 19.1316 96.726 18.8016 96.726 17.8346V17.8126C96.726 16.8896 97.473 16.2306 98.55 16.2306H98.66C99.297 16.2306 99.89 16.4066 100.33 16.6916C100.374 16.7136 100.418 16.7576 100.396 16.8236C100.374 16.8896 100.176 17.3956 100.154 17.4616C100.11 17.5716 100 17.5056 100 17.5056C99.5379 17.2663 99.0263 17.1382 98.506 17.1316C98.044 17.1316 97.759 17.3736 97.759 17.7026V17.7246C97.759 18.0986 98.264 18.2746 98.835 18.4506L98.945 18.4726C99.715 18.7136 100.528 19.0436 100.528 19.9886V20.0106C100.528 21.0216 99.802 21.6376 98.638 21.6376C98.066 21.6376 97.517 21.5496 96.923 21.2416C96.813 21.1756 96.703 21.1316 96.593 21.0436C96.593 20.9996 96.55 20.9776 96.572 20.8896ZM109.275 17.8796C109.363 18.2086 109.429 18.5596 109.429 18.9336C109.429 19.3076 109.385 19.6586 109.275 19.9886C109.187 20.3186 109.033 20.6036 108.835 20.8456C108.638 21.0876 108.374 21.2856 108.088 21.4176C107.754 21.5548 107.394 21.6222 107.033 21.6156C106.638 21.6156 106.286 21.5496 105.978 21.4176C105.686 21.2908 105.43 21.0944 105.231 20.8456C105.025 20.5949 104.875 20.3026 104.792 19.9886C104.695 19.6452 104.643 19.2905 104.638 18.9336C104.638 18.5606 104.682 18.2086 104.792 17.8786C104.879 17.5486 105.033 17.2636 105.231 17.0216C105.429 16.7796 105.693 16.5816 105.978 16.4506C106.286 16.3186 106.638 16.2306 107.033 16.2306C107.429 16.2306 107.781 16.2966 108.088 16.4506C108.396 16.5826 108.638 16.7806 108.835 17.0216C109.033 17.2636 109.187 17.5506 109.275 17.8796ZM108.286 18.9116C108.286 18.3406 108.176 17.9016 107.978 17.5936C107.781 17.2856 107.451 17.1316 107.033 17.1316C106.594 17.1316 106.286 17.2856 106.088 17.5936C105.89 17.9006 105.781 18.3406 105.781 18.9116C105.781 19.4836 105.89 19.9226 106.088 20.2516C106.286 20.5606 106.594 20.7136 107.033 20.7136C107.473 20.7136 107.781 20.5606 107.978 20.2526C108.198 19.9446 108.286 19.4826 108.286 18.9126V18.9116ZM117.319 20.5606L117.561 21.2196C117.583 21.3076 117.517 21.3296 117.517 21.3296C117.143 21.4836 116.638 21.5716 116.132 21.5716C115.275 21.5716 114.638 21.3296 114.198 20.8456C113.759 20.3626 113.539 19.7026 113.539 18.8896C113.539 18.5166 113.583 18.1646 113.693 17.8346C113.803 17.5046 113.956 17.2196 114.176 16.9776C114.396 16.7356 114.66 16.5376 114.967 16.4066C115.315 16.2599 115.689 16.1851 116.066 16.1866C116.352 16.1866 116.594 16.2086 116.792 16.2306C117.011 16.2746 117.319 16.3406 117.451 16.4066C117.473 16.4066 117.539 16.4506 117.517 16.5166C117.429 16.7796 117.363 16.9566 117.275 17.1756C117.231 17.2856 117.165 17.2416 117.165 17.2416C116.832 17.132 116.483 17.0799 116.132 17.0876C115.649 17.0876 115.275 17.2416 115.055 17.5716C114.814 17.8786 114.682 18.2966 114.682 18.8676C114.682 19.4836 114.835 19.9226 115.099 20.2076C115.363 20.4946 115.737 20.6266 116.22 20.6266C116.418 20.6266 116.594 20.6046 116.748 20.5826C116.901 20.5606 117.055 20.5166 117.209 20.4506C117.187 20.4946 117.275 20.4726 117.319 20.5606ZM122.308 17.6806C122.528 18.4286 122.418 19.0656 122.396 19.1096C122.396 19.1976 122.308 19.1976 122.308 19.1976H118.989C119.011 19.7026 119.121 20.0546 119.385 20.2966C119.627 20.5386 120 20.6916 120.528 20.6916C121.319 20.6916 121.649 20.5386 121.89 20.4506C121.89 20.4506 121.978 20.4286 122.022 20.5166L122.242 21.1316C122.286 21.2416 122.242 21.2636 122.22 21.2856C122.022 21.3956 121.517 21.6156 120.55 21.6156C120.088 21.6156 119.671 21.5496 119.341 21.4176C119.024 21.3003 118.739 21.1122 118.506 20.8676C118.291 20.6241 118.126 20.3403 118.022 20.0326C117.914 19.6915 117.862 19.3353 117.868 18.9776C117.868 18.6036 117.912 18.2526 118.022 17.9226C118.11 17.5926 118.264 17.3076 118.462 17.0656C118.66 16.8236 118.923 16.6256 119.231 16.4946C119.539 16.3406 119.912 16.2746 120.33 16.2746C120.682 16.2746 121.011 16.3406 121.275 16.4726C121.473 16.5606 121.693 16.7136 121.912 16.9556C122.022 17.0436 122.22 17.3726 122.308 17.6806ZM119.011 18.3846H121.363C121.341 18.0766 121.275 17.8126 121.143 17.5936C120.945 17.2856 120.66 17.1096 120.22 17.1096C119.781 17.1096 119.473 17.2856 119.275 17.5936C119.143 17.7906 119.077 18.0546 119.011 18.3836V18.3846ZM95.781 17.6806C96.001 18.4286 95.891 19.0656 95.891 19.1096C95.891 19.1976 95.802 19.1976 95.802 19.1976H92.484C92.506 19.7026 92.616 20.0546 92.879 20.2966C93.121 20.5386 93.495 20.6916 94.022 20.6916C94.813 20.6916 95.143 20.5386 95.385 20.4506C95.385 20.4506 95.473 20.4286 95.517 20.5166L95.737 21.1316C95.78 21.2416 95.737 21.2636 95.715 21.2856C95.517 21.3956 95.011 21.6156 94.045 21.6156C93.583 21.6156 93.165 21.5496 92.835 21.4176C92.5184 21.3003 92.2328 21.1122 92 20.8676C91.7852 20.6241 91.621 20.3402 91.517 20.0326C91.409 19.6915 91.357 19.3353 91.363 18.9776C91.363 18.6036 91.407 18.2526 91.517 17.9226C91.605 17.5926 91.759 17.3076 91.957 17.0656C92.154 16.8236 92.417 16.6256 92.726 16.4946C93.033 16.3406 93.406 16.2746 93.824 16.2746C94.176 16.2746 94.506 16.3406 94.77 16.4726C94.967 16.5606 95.187 16.7136 95.407 16.9556C95.495 17.0436 95.715 17.3736 95.78 17.6816L95.781 17.6806ZM92.484 18.3846H94.857C94.835 18.0766 94.77 17.8126 94.637 17.5936C94.44 17.2856 94.154 17.1096 93.715 17.1096C93.275 17.1096 92.967 17.2856 92.77 17.5936C92.616 17.7906 92.55 18.0546 92.484 18.3836V18.3846ZM86.66 18.2086C86.66 18.2086 86.923 18.2306 87.21 18.2746V18.1426C87.21 17.7026 87.121 17.4826 86.945 17.3516C86.77 17.2196 86.484 17.1316 86.132 17.1316C86.132 17.1316 85.319 17.1316 84.682 17.4616C84.66 17.4836 84.638 17.4836 84.638 17.4836C84.638 17.4836 84.55 17.5056 84.528 17.4396L84.286 16.8016C84.242 16.7136 84.308 16.6696 84.308 16.6696C84.616 16.4286 85.319 16.2966 85.319 16.2966C85.6098 16.2455 85.9039 16.216 86.199 16.2086C86.858 16.2086 87.363 16.3626 87.715 16.6706C88.066 16.9776 88.242 17.4606 88.242 18.1426V21.1756C88.242 21.1756 88.242 21.2636 88.176 21.2856C88.176 21.2856 88.044 21.3296 87.934 21.3516C87.824 21.3736 87.429 21.4616 87.099 21.5056C86.769 21.5716 86.439 21.5936 86.089 21.5936C85.759 21.5936 85.473 21.5716 85.209 21.5056C84.967 21.4508 84.7365 21.354 84.528 21.2196C84.3422 21.0803 84.1915 20.8995 84.088 20.6916C83.978 20.4946 83.934 20.2306 83.934 19.9446C83.934 19.6596 84 19.3946 84.11 19.1756C84.22 18.9556 84.396 18.7796 84.594 18.6256C84.792 18.4726 85.034 18.3846 85.275 18.2956C85.5404 18.2256 85.8135 18.189 86.088 18.1866C86.352 18.2086 86.528 18.2086 86.66 18.2086ZM85.341 20.5386C85.341 20.5386 85.649 20.7796 86.308 20.7356C86.791 20.7136 87.209 20.6256 87.209 20.6256V19.1096C87.209 19.1096 86.791 19.0436 86.308 19.0436C85.627 19.0436 85.341 19.2856 85.341 19.2856C85.143 19.4176 85.055 19.6376 85.055 19.9226C85.055 20.0986 85.099 20.2526 85.165 20.3626C85.187 20.4066 85.209 20.4506 85.341 20.5386ZM113.363 16.5166C113.341 16.6036 113.165 17.0666 113.121 17.2196C113.099 17.2856 113.055 17.3076 112.989 17.3076C112.989 17.3076 112.792 17.2636 112.616 17.2636C112.506 17.2636 112.33 17.2856 112.176 17.3296C112.021 17.3796 111.879 17.4622 111.759 17.5716C111.627 17.6816 111.539 17.8566 111.473 18.0546C111.407 18.2526 111.363 18.5826 111.363 18.9346V21.3946C111.363 21.4616 111.319 21.5046 111.253 21.5046H110.374C110.308 21.5046 110.264 21.4616 110.264 21.3946V16.4506C110.264 16.3846 110.308 16.3406 110.352 16.3406H111.209C111.275 16.3406 111.297 16.3846 111.297 16.4506V16.8456C111.429 16.6696 111.649 16.5156 111.846 16.4286C112.044 16.3406 112.286 16.2746 112.704 16.2966C112.923 16.3186 113.209 16.3626 113.253 16.3846C113.341 16.4066 113.385 16.4286 113.363 16.5166ZM105.209 14.2306C105.231 14.2306 105.297 14.2746 105.275 14.3406L105.011 15.0436C104.989 15.0876 104.967 15.1316 104.857 15.0876C104.835 15.0876 104.792 15.0656 104.682 15.0436C104.616 15.0216 104.506 15.0216 104.418 15.0216C104.299 15.024 104.181 15.0387 104.066 15.0656C103.955 15.0938 103.856 15.1552 103.781 15.2416C103.678 15.3417 103.596 15.4609 103.539 15.5926C103.451 15.8342 103.392 16.0852 103.363 16.3406H104.418C104.506 16.3406 104.528 16.3846 104.528 16.4506L104.396 17.1316C104.374 17.2416 104.286 17.2196 104.286 17.2196H103.187L102.484 21.4616C102.396 21.9016 102.308 22.2746 102.198 22.5816C102.088 22.8896 101.956 23.1096 101.759 23.3296C101.583 23.5276 101.385 23.6806 101.143 23.7466C100.923 23.8346 100.638 23.8786 100.33 23.8786C100.176 23.8786 100.022 23.8786 99.846 23.8346C99.7404 23.8184 99.6372 23.7888 99.539 23.7466C99.495 23.7246 99.473 23.6806 99.495 23.6146C99.517 23.5496 99.715 23.0216 99.737 22.9346C99.78 22.8456 99.847 22.8896 99.847 22.8896C99.912 22.9116 99.957 22.9336 100.022 22.9556C100.11 22.9776 100.198 22.9776 100.286 22.9776C100.44 22.9776 100.572 22.9556 100.682 22.9116C100.814 22.8676 100.901 22.7796 100.989 22.6696C101.077 22.5596 101.143 22.4066 101.231 22.2086C101.312 21.9415 101.378 21.6701 101.429 21.3956L102.176 17.2416H101.451C101.363 17.2416 101.341 17.1976 101.341 17.1316L101.473 16.4506C101.495 16.3406 101.583 16.3626 101.583 16.3626H102.33L102.374 16.1426C102.484 15.4826 102.704 14.9776 103.033 14.6476C103.363 14.3176 103.846 14.1426 104.44 14.1426C104.616 14.1426 104.77 14.1646 104.901 14.1866C105.006 14.17 105.113 14.1853 105.209 14.2306ZM90.396 21.3726C90.396 21.4386 90.352 21.4826 90.308 21.4826H89.428C89.363 21.4826 89.341 21.4386 89.341 21.3726V14.3176C89.341 14.2736 89.385 14.2076 89.429 14.2076H90.308C90.374 14.2076 90.396 14.2516 90.396 14.3176V21.3726Z" fill="white"/>
</svg>
