<svg width="201" height="41" viewBox="0 0 201 41" fill="none" xmlns="http://www.w3.org/2000/svg">
<path fill-rule="evenodd" clip-rule="evenodd" d="M77.1431 40.1426H122.84V0.142578H77.1431V40.1426ZM99.0151 12.4966C98.9911 14.2526 98.9911 15.9146 97.5061 17.4596C95.7001 19.3566 92.3361 19.9876 89.6891 19.9876C88.4493 19.9955 87.2127 19.8623 86.0031 19.5906C85.1631 19.4036 84.0741 19.0756 82.9861 18.3966C80.2391 16.6406 80.2161 14.4626 80.2161 12.4966V2.89858H84.5691V12.6146C84.5691 14.0886 84.8901 15.3286 86.5481 16.0786C87.9581 16.7116 89.2191 16.6646 90.5061 16.6176C92.1631 16.4756 93.2271 16.0546 93.9201 15.3066C94.3401 14.8376 94.7121 14.2996 94.6611 12.6366V2.89858H99.0161L99.0151 12.4966ZM99.1791 32.5966C99.1791 33.5556 98.9461 34.5626 98.3531 35.3816C96.9361 37.3256 94.5901 37.3256 92.8121 37.3476H80.3081V20.8226H92.1151C93.9971 20.8686 96.2911 20.9156 97.5291 22.5306C98.1731 23.3736 98.2511 24.2866 98.2511 24.8716C98.2511 25.3166 98.1991 26.2536 97.5291 27.0716C96.7811 27.9616 95.8021 28.2426 95.2351 28.3826C96.3691 28.6646 99.1791 29.2956 99.1791 32.5976V32.5966ZM114.538 12.5206L119.832 19.4256H114.687L110.011 12.7776H105.039V19.4256H100.66V2.89858H112.682C114.662 2.89858 116.467 3.06258 117.927 4.65458C118.818 5.63758 119.065 6.87858 119.065 7.83858C119.065 9.10258 118.62 10.6016 117.383 11.4906C116.443 12.1696 115.23 12.4026 114.538 12.5206ZM119.931 37.3736H115.602L106.944 28.0566C106.167 27.2137 105.417 26.3473 104.693 25.4586C104.817 26.7226 104.817 27.0036 104.841 28.2676V37.3736H100.686V20.8466H105.04L113.598 30.0466C114.637 31.1936 114.835 31.4286 115.924 32.7166C115.776 31.1466 115.776 30.7256 115.751 29.2976V20.8466H119.931V37.3736ZM114.637 7.88558C114.637 7.55758 114.587 6.99558 114.291 6.59758C113.969 6.19958 113.548 5.80158 111.817 5.80158H105.039V9.85158H112.015C112.954 9.85158 114.637 9.73458 114.637 7.88558ZM94.6161 32.1976C94.6161 30.2076 92.8891 30.2076 92.2191 30.2076H84.8201V34.4456H91.6521C92.6821 34.4456 94.6161 34.4686 94.6161 32.1976ZM93.8941 25.4796C93.8941 23.7236 92.4241 23.6996 91.7021 23.6996H84.8201V27.3296H91.3421C91.8831 27.3296 92.3981 27.3056 92.8121 27.1646C93.8941 26.7666 93.8941 25.6666 93.8941 25.4796Z" fill="black"/>
</svg>
