<svg width="79" height="79" viewBox="0 0 79 79" fill="none" xmlns="http://www.w3.org/2000/svg">
<rect x="0.642578" y="1.39258" width="77" height="77" rx="7.5" fill="#F6F9FC"/>
<rect x="0.642578" y="1.39258" width="77" height="77" rx="7.5" stroke="#C4CCD8"/>
<path d="M43.4624 26.1272C43.2297 25.9353 42.9294 25.8453 42.6296 25.8775C42.3297 25.9098 42.0555 26.0616 41.869 26.2987L37.7805 31.4605L24.4609 48.2711C24.7032 48.4631 24.935 48.6681 25.1553 48.8852C25.2078 48.935 25.2549 48.9848 25.3047 49.0373C25.6153 49.3544 25.9003 49.6957 26.1567 50.0581L26.2396 50.177C26.5063 50.5655 26.7387 50.9765 26.934 51.4052C26.9424 51.4175 26.9498 51.4305 26.9561 51.4439L26.9533 51.4412C27.2069 51.9939 27.3989 52.5727 27.526 53.1673C27.7588 54.1759 28.6597 54.8883 29.6947 54.8826H55.7224C56.0249 54.8826 56.3147 54.7609 56.5264 54.5449C56.7382 54.3289 56.8542 54.0368 56.8485 53.7344C56.5147 43.0473 51.6468 33.0076 43.4624 26.1272Z" stroke="#C4CCD8"/>
<path d="M46.0583 41.6514C44.0868 37.6835 41.2601 34.2021 37.7817 31.4578C34.499 28.8893 30.7262 27.0189 26.6945 25.9612C26.3957 25.8895 26.0805 25.9412 25.8202 26.1047C25.56 26.2681 25.3766 26.5295 25.3114 26.8299L21.4939 44.6805C21.2535 45.7181 21.7728 46.7822 22.7388 47.231C23.351 47.5086 23.9278 47.8587 24.4566 48.2738C24.6989 48.466 24.9307 48.6709 25.1509 48.888C25.2035 48.9378 25.2505 48.9876 25.3003 49.0401C25.6118 49.3562 25.8977 49.6966 26.1551 50.0581L26.2381 50.1771C26.5048 50.5655 26.7371 50.9765 26.9324 51.4053C26.9408 51.4176 26.9482 51.4305 26.9545 51.444L45.5051 43.1895C45.7849 43.0617 46.0013 42.8264 46.1055 42.537C46.2097 42.2475 46.1926 41.9283 46.0583 41.6514Z" stroke="#C4CCD8"/>
</svg>
