<svg width="79" height="79" viewBox="0 0 79 79" fill="none" xmlns="http://www.w3.org/2000/svg">
<rect x="0.642578" y="1.39258" width="77" height="77" rx="7.5" fill="#F6F9FC"/>
<rect x="0.642578" y="1.39258" width="77" height="77" rx="7.5" stroke="#C4CCD8"/>
<path d="M50.8727 39.9709C47.0843 39.9709 42.8195 37.3456 39.1418 34.8199C35.2425 32.1281 30.9556 28.5723 27.4108 28.5723C23.7885 28.5723 21.418 31.8844 21.418 34.8199C21.418 34.9058 21.418 34.9888 21.418 35.0747C21.418 44.8633 29.3532 52.7985 39.1418 52.7985C48.9304 52.7985 56.8656 44.8633 56.8656 35.0747C56.7465 37.4508 55.0655 39.9709 50.8727 39.9709Z" stroke="#C4CCD8"/>
<path d="M50.8727 28.584C47.328 28.584 43.041 32.1288 39.1418 34.8206C35.4641 37.3463 31.1993 39.9716 27.4108 39.9716C23.218 39.9716 21.5371 37.4514 21.418 35.0754C21.418 44.864 29.3532 52.7992 39.1418 52.7992C48.9304 52.7992 56.8656 44.864 56.8656 35.0754C56.8656 34.9895 56.8656 34.9065 56.8656 34.8206C56.8656 31.8851 54.495 28.573 50.8727 28.584Z" stroke="#C4CCD8"/>
</svg>
