<svg width="79" height="79" viewBox="0 0 79 79" fill="none" xmlns="http://www.w3.org/2000/svg">
<rect x="0.642578" y="1.39258" width="77" height="77" rx="7.5" fill="#F6F9FC"/>
<rect x="0.642578" y="1.39258" width="77" height="77" rx="7.5" stroke="#C4CCD8"/>
<path d="M49.3647 25.7148H31.9084C31.1621 25.7145 30.4666 26.096 30.0611 26.728C29.6557 27.36 29.5956 28.1563 29.9016 28.8429L34.421 38.9954C34.6768 39.5666 34.6768 40.2212 34.421 40.7924L28.5078 54.0729H49.3647C50.2305 54.0717 51.0149 53.5582 51.3688 52.7613L56.6744 40.8007C56.9297 40.2245 56.9297 39.566 56.6744 38.9899L51.3688 27.0265C51.0149 26.2295 50.2305 25.7161 49.3647 25.7148Z" stroke="#C4CCD8"/>
<path d="M27.8233 54.0717C27.5599 54.0727 27.2987 54.0228 27.0538 53.9245C26.5706 53.7109 26.1219 53.2736 25.9022 52.7866L21.6099 43.0231C21.3064 42.3364 21.3657 41.54 21.7675 40.9077C22.1694 40.2753 22.8589 39.8932 23.5991 39.8926H40.8858C41.7352 39.8932 42.5053 40.4005 42.8532 41.1886L47.1019 50.8023C47.2766 51.202 47.6013 51.9291 47.7077 52.1594C47.7992 52.3491 47.9137 52.5263 48.0488 52.6868C48.4819 53.2607 49.1138 53.8425 49.8011 54.03C49.7761 54.023 49.5405 54.0717 49.3177 54.0717C49.1321 54.0717 49.0559 54.0696 49.0078 54.0689H48.9587C48.9434 54.0693 48.9274 54.0701 48.9056 54.0717H27.8233Z" stroke="#C4CCD8"/>
</svg>
