<svg width="79" height="79" viewBox="0 0 79 79" fill="none" xmlns="http://www.w3.org/2000/svg">
<rect x="0.642578" y="1.39258" width="77" height="77" rx="7.5" fill="#F6F9FC"/>
<rect x="0.642578" y="1.39258" width="77" height="77" rx="7.5" stroke="#C4CCD8"/>
<path d="M32.4969 23.0547C31.2734 23.0547 30.2815 24.0466 30.2815 25.2702V54.365C30.2815 55.3677 29.6081 56.2044 28.6396 56.4641L53.4527 49.8531C54.4213 49.5936 55.0948 48.7158 55.0948 47.7131V25.2702C55.0948 24.0466 54.1029 23.0547 52.8793 23.0547H32.4969Z" stroke="#C4CCD8"/>
<path d="M22.53 43.924C21.4703 44.5358 21.1073 45.8906 21.7191 46.9504L26.5727 55.3571C27.074 56.2255 28.0962 56.6489 29.0647 56.3893L52.236 50.1805L43.2079 34.5437C42.5965 33.484 41.2413 33.1209 40.1815 33.7328L22.53 43.924Z" stroke="#C4CCD8"/>
</svg>
