<svg width="20" height="21" viewBox="0 0 20 21" fill="none" xmlns="http://www.w3.org/2000/svg">
<path d="M13 1.73C13 1.05 12.45 0.5 11.765 0.5H1.235C0.908327 0.499997 0.594955 0.629426 0.363491 0.859954C0.132027 1.09048 0.00132743 1.40332 4.84492e-06 1.73V16.77C-0.000572521 16.9757 0.050462 17.1783 0.148437 17.3592C0.246412 17.5401 0.388197 17.6936 0.560815 17.8055C0.733432 17.9174 0.931367 17.9843 1.1365 17.9999C1.34164 18.0155 1.54742 17.9795 1.735 17.895L6.835 15.63L12.265 13.215C12.715 13.015 13 12.58 13 12.09V1.73Z" fill="url(#paint0_linear_4003_658)"/>
<path d="M13.25 20C15.0402 20 16.7571 19.2888 18.023 18.023C19.2888 16.7571 20 15.0402 20 13.25C20 11.4598 19.2888 9.7429 18.023 8.47703C16.7571 7.21116 15.0402 6.5 13.25 6.5C11.4598 6.5 9.7429 7.21116 8.47703 8.47703C7.21116 9.7429 6.5 11.4598 6.5 13.25C6.5 15.0402 7.21116 16.7571 8.47703 18.023C9.7429 19.2888 11.4598 20 13.25 20Z" fill="#00D924"/>
<path d="M13.0002 6.5V12.09C13.0002 12.58 12.7152 13.02 12.2652 13.215L6.91522 15.595C6.5434 14.5935 6.41459 13.5181 6.53937 12.4572C6.66416 11.3962 7.03897 10.38 7.633 9.49215C8.22703 8.60428 9.02331 7.87008 9.95638 7.34991C10.8894 6.82973 11.9326 6.53845 13.0002 6.5Z" fill="url(#paint1_linear_4003_658)"/>
<defs>
<linearGradient id="paint0_linear_4003_658" x1="6.5" y1="3.675" x2="6.5" y2="18.015" gradientUnits="userSpaceOnUse">
<stop stop-color="#FFD748"/>
<stop offset="1" stop-color="#FFC148"/>
</linearGradient>
<linearGradient id="paint1_linear_4003_658" x1="9.75022" y1="6.505" x2="9.75022" y2="15.595" gradientUnits="userSpaceOnUse">
<stop stop-color="#00A600"/>
<stop offset="1" stop-color="#00D924"/>
</linearGradient>
</defs>
</svg>
