<svg width="201" height="41" viewBox="0 0 201 41" fill="none" xmlns="http://www.w3.org/2000/svg">
<path fill-rule="evenodd" clip-rule="evenodd" d="M111.723 34.5343C106.323 38.5243 98.5131 40.6243 91.7831 40.6243C82.7877 40.6725 74.0979 37.3635 67.4131 31.3443C66.9131 30.8943 67.3631 30.2643 67.9731 30.6243C75.3953 34.8629 83.7958 37.0897 92.3431 37.0843C98.3231 37.0843 104.893 35.8443 110.943 33.2843C111.843 32.8943 112.613 33.8843 111.723 34.5343Z" fill="#EFA82E"/>
<path fill-rule="evenodd" clip-rule="evenodd" d="M113.963 31.9838C113.273 31.1038 109.403 31.5638 107.663 31.7738C107.143 31.8338 107.063 31.3738 107.533 31.0438C110.623 28.8738 115.683 29.5038 116.263 30.2238C116.863 30.9638 116.113 36.0238 113.223 38.4338C112.773 38.8138 112.353 38.6138 112.553 38.1238C113.203 36.4938 114.653 32.8638 113.963 31.9838Z" fill="#EFA82E"/>
<path fill-rule="evenodd" clip-rule="evenodd" d="M107.793 15.7536V13.6536C107.793 13.3236 108.033 13.1136 108.323 13.1136H117.773C118.073 13.1136 118.313 13.3336 118.313 13.6436V15.4436C118.313 15.7436 118.053 16.1436 117.603 16.7736L112.703 23.7436C114.523 23.7036 116.443 23.9736 118.103 24.9036C118.463 25.1036 118.573 25.4136 118.603 25.7236V27.9636C118.603 28.2736 118.263 28.6336 117.903 28.4436C116.359 27.6512 114.647 27.2396 112.911 27.2431C111.175 27.2465 109.465 27.665 107.923 28.4636C107.593 28.6336 107.253 28.2836 107.253 27.9736V25.8436C107.253 25.5036 107.253 24.9136 107.603 24.3936L113.273 16.2836H108.333C108.263 16.2849 108.193 16.2722 108.127 16.2462C108.062 16.2201 108.002 16.1813 107.952 16.1319C107.902 16.0826 107.862 16.0237 107.835 15.9588C107.807 15.8938 107.793 15.824 107.793 15.7536ZM73.3433 28.8836H70.4633C70.3368 28.875 70.2175 28.8221 70.1261 28.7344C70.0347 28.6466 69.977 28.5296 69.9633 28.4036V13.6836C69.9633 13.3836 70.2033 13.1536 70.5133 13.1536H73.1833C73.4633 13.1636 73.6833 13.3836 73.7033 13.6536V15.5736H73.7633C74.4633 13.7136 75.7633 12.8436 77.5433 12.8436C79.3433 12.8436 80.4633 13.7136 81.2733 15.5736C81.559 14.7577 82.0965 14.0537 82.8082 13.563C83.5199 13.0724 84.3691 12.8204 85.2333 12.8436C86.4333 12.8436 87.7533 13.3436 88.5633 14.4536C89.4633 15.6936 89.2833 17.4936 89.2833 19.0736V28.3536C89.2833 28.6536 89.0333 28.8836 88.7333 28.8836H85.8633C85.7269 28.8786 85.5975 28.8223 85.5011 28.7258C85.4046 28.6293 85.3482 28.4999 85.3433 28.3636V20.5636C85.3433 19.9336 85.4033 18.3836 85.2633 17.8036C85.0433 16.8036 84.4033 16.5336 83.5733 16.5336C82.8733 16.5336 82.1533 16.9936 81.8533 17.7336C81.5633 18.4836 81.5933 19.7236 81.5933 20.5536V28.3536C81.5933 28.6536 81.3433 28.8836 81.0333 28.8836H78.1633C78.0287 28.8762 77.9018 28.8187 77.8074 28.7225C77.713 28.6263 77.658 28.4983 77.6533 28.3636V20.5636C77.6533 18.9136 77.9133 16.5036 75.8833 16.5036C73.8133 16.5036 73.8933 18.8536 73.8933 20.5536V28.3536C73.8933 28.6536 73.6433 28.8836 73.3433 28.8836ZM126.453 15.8536C124.343 15.8536 124.203 18.7336 124.203 20.5236C124.203 22.3236 124.183 26.1636 126.433 26.1636C128.653 26.1636 128.763 23.0636 128.763 21.1736C128.763 19.9336 128.713 18.4536 128.333 17.2736C128.013 16.2536 127.373 15.8536 126.453 15.8536ZM126.433 12.8436C130.693 12.8436 133.003 16.5036 133.003 21.1436C133.003 25.6436 130.453 29.1936 126.433 29.1936C122.243 29.1936 119.973 25.5436 119.973 20.9936C119.973 16.4036 122.273 12.8436 126.433 12.8436ZM138.533 28.8836H135.663C135.529 28.8762 135.402 28.8187 135.307 28.7225C135.213 28.6263 135.158 28.4983 135.153 28.3636V13.6236C135.17 13.4902 135.236 13.3676 135.337 13.2792C135.438 13.1907 135.569 13.1425 135.703 13.1436H138.363C138.613 13.1536 138.823 13.3236 138.873 13.5536V15.8036H138.923C139.733 13.7936 140.863 12.8336 142.843 12.8336C144.133 12.8336 145.393 13.3036 146.193 14.5736C146.943 15.7436 146.943 17.7336 146.943 19.1536V28.4136C146.922 28.5434 146.854 28.6611 146.754 28.7455C146.653 28.8299 146.525 28.8754 146.393 28.8736H143.513C143.39 28.8658 143.273 28.8158 143.182 28.7321C143.091 28.6484 143.031 28.5359 143.013 28.4136V20.4136C143.013 18.8136 143.193 16.4636 141.213 16.4636C140.513 16.4636 139.863 16.9236 139.543 17.6336C139.143 18.5336 139.083 19.4336 139.083 20.4236V28.3436C139.083 28.6436 138.833 28.8736 138.533 28.8736M103.153 28.8436C103.059 28.9215 102.944 28.969 102.823 28.9797C102.701 28.9904 102.579 28.9639 102.473 28.9036C101.513 28.1136 101.343 27.7536 100.823 27.0036C99.2533 28.6036 98.1233 29.0836 96.0933 29.0836C93.6733 29.0836 91.7933 27.5836 91.7933 24.6136C91.7587 23.612 92.0341 22.6241 92.5817 21.7848C93.1294 20.9454 93.9226 20.2955 94.8533 19.9236C96.4133 19.2436 98.5933 19.1236 100.253 18.9236V18.5636C100.253 17.8736 100.313 17.0636 99.9033 16.4836C99.5533 15.9536 98.8833 15.7336 98.2933 15.7336C97.1933 15.7336 96.2233 16.2936 95.9833 17.4536C95.9333 17.7136 95.7433 17.9736 95.4833 17.9836L92.7033 17.6836C92.4633 17.6336 92.2033 17.4436 92.2733 17.0836C92.9133 13.7136 95.9633 12.6836 98.6933 12.6836C100.093 12.6836 101.923 13.0636 103.023 14.1236C104.423 15.4236 104.283 17.1636 104.283 19.0536V23.5236C104.283 24.8636 104.843 25.4536 105.373 26.1836C105.553 26.4436 105.593 26.7536 105.363 26.9436C104.773 27.4336 103.733 28.3436 103.163 28.8436H103.153ZM100.253 21.8436C100.253 22.9636 100.283 23.8936 99.7133 24.8936C99.2633 25.6936 98.5333 26.1936 97.7333 26.1936C96.6333 26.1936 95.9833 25.3536 95.9833 24.1136C95.9833 21.6736 98.1833 21.2336 100.253 21.2336V21.8436ZM65.4933 28.8436C65.3994 28.9215 65.2841 28.969 65.1626 28.9797C65.0411 28.9904 64.9193 28.9639 64.8133 28.9036C63.8633 28.1136 63.6933 27.7536 63.1633 27.0036C61.5933 28.6036 60.4733 29.0836 58.4333 29.0836C56.0133 29.0836 54.1333 27.5836 54.1333 24.6136C54.0988 23.612 54.3741 22.6241 54.9217 21.7848C55.4694 20.9454 56.2626 20.2955 57.1933 19.9236C58.7533 19.2436 60.9333 19.1236 62.5933 18.9236V18.5636C62.5933 17.8736 62.6533 17.0636 62.2433 16.4836C61.9033 15.9536 61.2233 15.7336 60.6433 15.7336C59.5433 15.7336 58.5633 16.2936 58.3233 17.4536C58.2733 17.7136 58.0833 17.9736 57.8233 17.9836L55.0433 17.6836C54.8133 17.6336 54.5433 17.4436 54.6133 17.0836C55.2533 13.7136 58.3133 12.6836 61.0433 12.6836C62.4433 12.6836 64.2633 13.0636 65.3633 14.1236C66.7633 15.4236 66.6333 17.1636 66.6333 19.0536V23.5236C66.6333 24.8636 67.1833 25.4536 67.7133 26.1836C67.8933 26.4436 67.9333 26.7536 67.7033 26.9436C67.1133 27.4336 66.0733 28.3436 65.5033 28.8436H65.4933ZM62.5933 21.8436C62.5933 22.9636 62.6233 23.8936 62.0633 24.8936C61.6033 25.6936 60.8833 26.1936 60.0633 26.1936C58.9633 26.1936 58.3233 25.3536 58.3233 24.1136C58.3233 21.6736 60.5233 21.2336 62.6033 21.2336V21.8436H62.5933Z" fill="#1B1A19"/>
</svg>
