<svg width="509" height="338" viewBox="0 0 509 338" fill="none" xmlns="http://www.w3.org/2000/svg">
<g clip-path="url(#clip0_4003_1050)">
<rect x="4.14307" y="4.62305" width="500" height="333.33" rx="4" fill="#F6F9FC"/>
<g clip-path="url(#clip1_4003_1050)">
<g clip-path="url(#clip2_4003_1050)">
<g clip-path="url(#clip3_4003_1050)">
<rect x="74.1431" y="71.2832" width="434" height="272" rx="8" fill="white"/>
<g clip-path="url(#clip4_4003_1050)">
<g clip-path="url(#clip5_4003_1050)">
<g clip-path="url(#clip6_4003_1050)">
<mask id="mask0_4003_1050" style="mask-type:luminance" maskUnits="userSpaceOnUse" x="74" y="71" width="435" height="273">
<path d="M74.1431 79.2832C74.1431 77.1615 74.9859 75.1266 76.4862 73.6263C77.9865 72.1261 80.0213 71.2832 82.1431 71.2832H508.143V343.283H74.1431V79.2832Z" fill="white"/>
</mask>
<g mask="url(#mask0_4003_1050)">
<path d="M74.1431 79.2832C74.1431 77.1615 74.9859 75.1266 76.4862 73.6263C77.9865 72.1261 80.0213 71.2832 82.1431 71.2832H508.143V343.283H74.1431V79.2832Z" fill="white"/>
<path d="M281.229 122.192H283.012L285.973 126.955H288.97L285.777 121.943C287.579 121.426 288.631 120.123 288.631 118.18C288.631 115.54 286.794 114.148 283.851 114.148H278.607V126.955H281.229V122.192ZM281.229 119.999V116.378H283.708C285.242 116.378 286.027 117.038 286.027 118.198C286.027 119.339 285.242 119.998 283.708 119.998L281.229 119.999ZM299.038 122.264C299.038 119.357 297.147 117.394 294.436 117.394C291.725 117.394 289.834 119.357 289.834 122.264C289.834 125.189 291.725 127.152 294.436 127.152C297.147 127.152 299.038 125.19 299.038 122.264ZM292.314 122.264C292.314 120.498 293.134 119.464 294.436 119.464C295.738 119.464 296.541 120.498 296.541 122.264C296.541 124.048 295.738 125.083 294.436 125.083C293.134 125.083 292.314 124.048 292.314 122.264ZM302.807 122.264C302.807 120.516 303.681 119.482 305.001 119.482C306.036 119.482 306.66 120.195 306.892 121.158L309.014 120.16C308.569 118.643 307.142 117.395 304.983 117.395C302.254 117.395 300.328 119.375 300.328 122.265C300.328 125.172 302.254 127.152 304.983 127.152C307.159 127.152 308.622 125.867 309.05 124.333L306.892 123.37C306.66 124.333 306.036 125.047 305.001 125.047C303.681 125.047 302.807 124.03 302.807 122.264ZM313.053 114.148H310.556V126.955H313.053V124.084L314.159 122.942L316.745 126.955H319.599L315.889 121.14L319.332 117.573H316.335L313.053 121.212V114.148ZM324.473 127.152C326.345 127.152 327.933 126.188 328.611 124.476L326.506 123.726C326.221 124.636 325.454 125.1 324.49 125.1C323.26 125.1 322.386 124.244 322.207 122.817H328.664V122.086C328.664 119.464 327.166 117.395 324.383 117.395C321.726 117.395 319.817 119.5 319.817 122.265C319.817 125.172 321.708 127.152 324.473 127.152ZM324.366 119.392C325.578 119.392 326.167 120.195 326.185 121.122H322.296C322.6 119.982 323.367 119.392 324.366 119.392ZM330.695 124.512C330.695 126.438 331.694 127.062 333.585 127.062C334.209 127.062 334.744 127.009 335.19 126.92V124.85C334.906 124.887 334.62 124.905 334.334 124.904C333.603 124.904 333.157 124.797 333.157 123.994V119.66H335.065V117.573H333.157V114.898H330.695V117.573H329.447V119.66H330.695V124.512ZM339.696 122.192H341.48L344.441 126.955H347.438L344.245 121.943C346.046 121.426 347.099 120.123 347.099 118.18C347.099 115.54 345.262 114.148 342.318 114.148H337.074V126.955H339.696V122.192ZM339.696 119.999V116.378H342.176C343.71 116.378 344.495 117.038 344.495 118.198C344.495 119.339 343.71 119.998 342.176 119.998L339.696 119.999ZM348.941 116.467H351.492V114.148H348.941V116.467ZM351.474 117.573H348.977V126.955H351.474V117.573ZM357.341 127.152C358.518 127.152 359.41 126.688 359.963 125.992V126.955H362.46V114.148H359.963V118.536C359.41 117.859 358.518 117.395 357.341 117.395C354.754 117.395 353.256 119.607 353.256 122.265C353.256 124.94 354.754 127.152 357.341 127.152ZM360.016 122.015V122.532C360.016 124.119 359.124 125.012 357.929 125.012C356.52 125.012 355.771 123.887 355.771 122.264C355.771 120.659 356.52 119.535 357.929 119.535C359.124 119.535 360.016 120.409 360.016 122.015ZM368.928 127.152C370.801 127.152 372.388 126.188 373.066 124.476L370.962 123.726C370.676 124.636 369.909 125.1 368.946 125.1C367.715 125.1 366.841 124.244 366.663 122.817H373.12V122.086C373.12 119.464 371.621 117.395 368.839 117.395C366.181 117.395 364.273 119.5 364.273 122.265C364.273 125.172 366.163 127.152 368.928 127.152ZM368.821 119.392C370.034 119.392 370.623 120.195 370.64 121.122H366.752C367.055 119.982 367.822 119.392 368.821 119.392ZM373.991 125.368C374.847 126.528 376.631 127.152 378.325 127.152C380.573 127.152 382.392 125.939 382.392 123.977C382.392 121.854 380.448 121.479 378.807 121.14C377.648 120.909 377.023 120.802 377.023 120.195C377.023 119.678 377.541 119.339 378.325 119.339C379.306 119.339 380.216 119.785 380.84 120.587L382.267 119.017C381.536 118.073 380.056 117.395 378.397 117.395C376.149 117.395 374.562 118.643 374.562 120.445C374.562 122.46 376.239 122.853 377.755 123.156C379.253 123.441 379.949 123.531 379.949 124.244C379.949 124.922 379.217 125.207 378.379 125.207C377.327 125.207 376.185 124.654 375.543 123.78L373.991 125.368ZM383.697 126.955H384.928V127.08C384.928 127.847 384.517 128.204 383.697 128.257V129.577C385.463 129.577 386.622 128.579 386.622 126.902V124.066H383.697V126.955ZM395.263 114.148H392.641V126.955H395.263V114.148ZM397.715 126.955H400.212V121.533C400.212 120.303 401.068 119.678 401.942 119.678C403.013 119.678 403.441 120.427 403.441 121.479V126.955H405.938V120.765C405.938 118.733 404.743 117.395 402.781 117.395C401.586 117.395 400.729 117.93 400.212 118.536V117.573H397.715V126.955ZM410.17 122.265C410.17 120.516 411.044 119.482 412.364 119.482C413.398 119.482 414.023 120.195 414.255 121.158L416.377 120.16C415.931 118.643 414.504 117.395 412.346 117.395C409.617 117.395 407.691 119.375 407.691 122.265C407.691 125.172 409.617 127.152 412.346 127.152C414.522 127.152 415.985 125.867 416.413 124.333L414.255 123.37C414.023 124.333 413.398 125.047 412.364 125.047C411.044 125.047 410.17 124.03 410.17 122.264V122.265ZM417.701 126.955H420.626V124.065H417.701V126.955Z" fill="#0A2540"/>
<path d="M869.67 142.66H284.618C280.677 142.66 277.483 145.855 277.483 149.795V174.929C277.483 178.87 280.677 182.064 284.618 182.064H869.67C873.61 182.064 876.805 178.87 876.805 174.929V149.795C876.805 145.855 873.61 142.66 869.67 142.66Z" fill="white"/>
<path fill-rule="evenodd" clip-rule="evenodd" d="M307.805 162.362C307.805 164.254 307.053 166.069 305.715 167.407C304.377 168.745 302.562 169.497 300.67 169.497C298.778 169.497 296.963 168.745 295.625 167.407C294.287 166.069 293.535 164.254 293.535 162.362C293.535 160.469 294.287 158.654 295.625 157.316C296.963 155.978 298.778 155.227 300.67 155.227C302.562 155.227 304.377 155.978 305.715 157.316C307.053 158.654 307.805 160.469 307.805 162.362ZM304.681 159.682C304.514 159.514 304.287 159.421 304.051 159.421C303.814 159.421 303.587 159.514 303.42 159.682L299.779 163.33L298.18 161.731C298.01 161.576 297.788 161.493 297.558 161.498C297.329 161.503 297.11 161.597 296.948 161.759C296.785 161.921 296.692 162.14 296.686 162.369C296.681 162.599 296.764 162.822 296.918 162.992L299.148 165.222C299.315 165.389 299.542 165.483 299.779 165.483C300.015 165.483 300.242 165.389 300.409 165.222L304.681 160.943C304.764 160.86 304.83 160.762 304.875 160.653C304.92 160.545 304.943 160.429 304.943 160.312C304.943 160.195 304.92 160.079 304.875 159.971C304.83 159.863 304.764 159.764 304.681 159.682Z" fill="#15BE53"/>
<g filter="url(#filter0_d_4003_1050)">
<path d="M323.86 142.66H862.536V182.064H323.86V142.66Z" fill="white"/>
<path d="M326.482 158.396V167.361H324.646V158.396H326.482ZM327.849 167.361V160.793H329.597V161.467C329.959 161.043 330.558 160.668 331.395 160.668C332.768 160.668 333.605 161.605 333.605 163.028V167.361H331.857V163.527C331.857 162.791 331.557 162.267 330.808 162.267C330.196 162.267 329.597 162.703 329.597 163.565V167.361H327.849ZM336.217 164.077C336.217 165.313 336.829 166.025 337.753 166.025C338.477 166.025 338.914 165.525 339.076 164.851L340.587 165.525C340.287 166.599 339.264 167.498 337.74 167.498C335.83 167.498 334.482 166.112 334.482 164.077C334.482 162.054 335.83 160.668 337.74 160.668C339.251 160.668 340.25 161.542 340.562 162.603L339.076 163.303C338.914 162.629 338.477 162.129 337.753 162.129C336.829 162.129 336.217 162.853 336.217 164.077ZM347.347 164.077C347.347 166.124 346.023 167.498 344.126 167.498C342.228 167.498 340.904 166.124 340.904 164.077C340.904 162.042 342.228 160.668 344.126 160.668C346.023 160.668 347.347 162.042 347.347 164.077ZM342.64 164.077C342.64 165.325 343.214 166.05 344.126 166.05C345.037 166.05 345.599 165.325 345.599 164.077C345.599 162.841 345.037 162.117 344.126 162.117C343.214 162.117 342.64 162.841 342.64 164.077ZM352.195 160.781V162.491C352.009 162.466 351.821 162.454 351.633 162.454C350.722 162.454 350.023 163.016 350.023 164.027V167.361H348.275V160.793H350.023V161.717C350.31 161.143 350.959 160.756 351.771 160.756C351.946 160.756 352.07 160.768 352.195 160.781ZM356.598 167.498C355.774 167.498 355.15 167.173 354.763 166.686V169.583H353.015V160.793H354.763V161.467C355.15 160.993 355.774 160.668 356.598 160.668C358.409 160.668 359.457 162.216 359.457 164.077C359.457 165.95 358.409 167.498 356.598 167.498ZM354.725 163.902V164.264C354.725 165.375 355.35 166 356.186 166C357.172 166 357.697 165.213 357.697 164.077C357.697 162.953 357.172 162.167 356.186 162.167C355.35 162.167 354.725 162.778 354.725 163.902ZM366.432 164.077C366.432 166.124 365.108 167.498 363.21 167.498C361.313 167.498 359.989 166.124 359.989 164.077C359.989 162.042 361.313 160.668 363.21 160.668C365.108 160.668 366.432 162.042 366.432 164.077ZM361.725 164.077C361.725 165.325 362.299 166.05 363.21 166.05C364.122 166.05 364.684 165.325 364.684 164.077C364.684 162.841 364.122 162.117 363.21 162.117C362.299 162.117 361.725 162.841 361.725 164.077ZM371.28 160.781V162.491C371.094 162.466 370.906 162.454 370.718 162.454C369.807 162.454 369.108 163.016 369.108 164.027V167.361H367.36V160.793H369.108V161.717C369.395 161.143 370.044 160.756 370.856 160.756C371.031 160.756 371.155 160.768 371.28 160.781ZM377.235 165.75C377.235 166.312 377.26 166.874 377.335 167.36H375.65C375.635 167.186 375.626 167.011 375.625 166.836C375.2 167.248 374.563 167.473 373.764 167.473C372.478 167.473 371.517 166.699 371.517 165.538C371.517 164.227 372.553 163.678 373.889 163.44L375.525 163.128V162.841C375.525 162.316 375.175 162.104 374.551 162.104C373.839 162.104 373.54 162.391 373.502 162.916H371.804C371.867 161.405 373.015 160.668 374.638 160.668C376.262 160.668 377.235 161.355 377.235 162.616V165.75ZM375.525 165.026V164.352L374.251 164.602C373.664 164.714 373.24 164.901 373.24 165.425C373.24 165.887 373.577 166.137 374.101 166.137C374.838 166.137 375.525 165.762 375.525 165.026ZM378.673 165.65V162.254H377.799V160.794H378.673V158.92H380.396V160.793H381.732V162.253H380.396V165.288C380.396 165.85 380.708 165.925 381.22 165.925C381.47 165.925 381.594 165.912 381.819 165.887V167.336C381.507 167.398 381.132 167.436 380.695 167.436C379.372 167.436 378.673 166.998 378.673 165.65ZM385.549 167.498C383.613 167.498 382.29 166.112 382.29 164.077C382.29 162.142 383.626 160.668 385.486 160.668C387.434 160.668 388.483 162.117 388.483 163.952V164.464H383.963C384.088 165.463 384.7 166.062 385.561 166.062C386.235 166.062 386.772 165.737 386.972 165.101L388.445 165.625C387.971 166.824 386.86 167.498 385.549 167.498ZM385.474 162.067C384.775 162.067 384.238 162.479 384.025 163.277H386.747C386.735 162.629 386.323 162.067 385.474 162.067ZM394.963 167.735C394.539 168.896 393.939 169.645 392.491 169.645C392.154 169.645 392.029 169.633 391.804 169.608V168.198C391.991 168.21 392.104 168.222 392.304 168.222C392.766 168.222 393.015 168.097 393.203 167.622L393.415 167.098L391.055 160.793H392.865L394.351 165.113L395.8 160.793H397.56L394.963 167.735ZM403.928 164.077C403.928 166.124 402.604 167.498 400.707 167.498C398.809 167.498 397.485 166.124 397.485 164.077C397.485 162.042 398.809 160.668 400.707 160.668C402.604 160.668 403.928 162.042 403.928 164.077ZM399.221 164.077C399.221 165.325 399.795 166.05 400.707 166.05C401.618 166.05 402.18 165.325 402.18 164.077C402.18 162.841 401.618 162.117 400.707 162.117C399.795 162.117 399.221 162.841 399.221 164.077ZM410.562 160.793V167.361H408.814V166.686C408.598 166.945 408.326 167.153 408.019 167.293C407.713 167.434 407.378 167.504 407.041 167.498C405.68 167.498 404.806 166.561 404.806 165.138V160.793H406.554V164.751C406.554 165.475 406.878 165.95 407.603 165.95C408.214 165.95 408.814 165.5 408.814 164.651V160.793H410.562ZM415.796 160.781V162.491C415.61 162.466 415.423 162.454 415.235 162.454C414.323 162.454 413.624 163.016 413.624 164.027V167.361H411.876V160.793H413.624V161.717C413.911 161.143 414.56 160.756 415.372 160.756C415.547 160.756 415.672 160.768 415.796 160.781ZM420.351 164.077C420.351 165.313 420.963 166.025 421.887 166.025C422.611 166.025 423.048 165.525 423.21 164.851L424.721 165.525C424.421 166.599 423.397 167.498 421.874 167.498C419.964 167.498 418.615 166.112 418.615 164.077C418.615 162.054 419.964 160.668 421.874 160.668C423.385 160.668 424.384 161.542 424.696 162.603L423.21 163.303C423.048 162.629 422.611 162.129 421.887 162.129C420.963 162.129 420.351 162.853 420.351 164.077ZM431.481 164.077C431.481 166.124 430.157 167.498 428.259 167.498C426.361 167.498 425.038 166.124 425.038 164.077C425.038 162.042 426.361 160.668 428.259 160.668C430.157 160.668 431.481 162.042 431.481 164.077ZM426.774 164.077C426.774 165.325 427.348 166.05 428.259 166.05C429.171 166.05 429.733 165.325 429.733 164.077C429.733 162.841 429.171 162.117 428.259 162.117C427.348 162.117 426.774 162.841 426.774 164.077ZM434.157 163.565V167.361H432.409V160.793H434.157V161.467C434.506 161.043 435.093 160.668 435.942 160.668C436.741 160.668 437.353 161.005 437.715 161.568C438.115 161.155 438.739 160.668 439.75 160.668C441.099 160.668 441.973 161.605 441.973 163.028V167.361H440.225V163.527C440.225 162.791 439.95 162.267 439.226 162.267C438.651 162.267 438.065 162.703 438.065 163.565V167.361H436.317V163.527C436.317 162.791 436.042 162.267 435.318 162.267C434.743 162.267 434.157 162.703 434.157 163.565ZM446.829 167.498C446.004 167.498 445.38 167.173 444.993 166.686V169.583H443.245V160.793H444.993V161.467C445.38 160.993 446.004 160.668 446.829 160.668C448.639 160.668 449.688 162.216 449.688 164.077C449.688 165.95 448.639 167.498 446.829 167.498ZM444.956 163.902V164.264C444.956 165.375 445.58 166 446.417 166C447.403 166 447.927 165.213 447.927 164.077C447.927 162.953 447.403 162.167 446.417 162.167C445.58 162.167 444.956 162.778 444.956 163.902ZM455.901 165.75C455.901 166.312 455.926 166.874 456.001 167.36H454.315C454.303 167.198 454.29 167.023 454.29 166.836C453.866 167.248 453.229 167.473 452.43 167.473C451.144 167.473 450.182 166.699 450.182 165.538C450.182 164.227 451.219 163.678 452.555 163.44L454.19 163.128V162.841C454.19 162.316 453.841 162.104 453.216 162.104C452.505 162.104 452.205 162.391 452.168 162.916H450.47C450.532 161.405 451.681 160.668 453.304 160.668C454.927 160.668 455.901 161.355 455.901 162.616V165.75ZM454.19 165.026V164.352L452.917 164.602C452.33 164.714 451.905 164.901 451.905 165.425C451.905 165.887 452.243 166.137 452.767 166.137C453.504 166.137 454.19 165.762 454.19 165.026ZM457.163 167.361V160.793H458.911V161.467C459.273 161.043 459.873 160.668 460.709 160.668C462.083 160.668 462.919 161.605 462.919 163.028V167.361H461.171V163.527C461.171 162.791 460.872 162.267 460.123 162.267C459.511 162.267 458.911 162.703 458.911 163.565V167.361H457.163ZM467.294 167.735C466.87 168.896 466.271 169.645 464.822 169.645C464.485 169.645 464.36 169.633 464.136 169.608V168.198C464.323 168.21 464.435 168.222 464.635 168.222C465.097 168.222 465.347 168.097 465.534 167.622L465.746 167.098L463.386 160.793H465.197L466.683 165.113L468.131 160.793H469.892L467.294 167.735Z" fill="#4F5B76"/>
</g>
<path d="M869.67 182.955H284.618C280.677 182.955 277.483 186.15 277.483 190.09V215.224C277.483 219.165 280.677 222.359 284.618 222.359H869.67C873.61 222.359 876.805 219.165 876.805 215.224V190.09C876.805 186.15 873.61 182.955 869.67 182.955Z" fill="white"/>
<path fill-rule="evenodd" clip-rule="evenodd" d="M307.805 202.656C307.805 204.549 307.053 206.364 305.715 207.702C304.377 209.04 302.562 209.791 300.67 209.791C298.778 209.791 296.963 209.04 295.625 207.702C294.287 206.364 293.535 204.549 293.535 202.656C293.535 200.764 294.287 198.949 295.625 197.611C296.963 196.273 298.778 195.521 300.67 195.521C302.562 195.521 304.377 196.273 305.715 197.611C307.053 198.949 307.805 200.764 307.805 202.656ZM304.681 199.976C304.514 199.809 304.287 199.715 304.051 199.715C303.814 199.715 303.587 199.809 303.42 199.976L299.779 203.624L298.18 202.025C298.01 201.871 297.788 201.788 297.558 201.793C297.329 201.798 297.11 201.892 296.948 202.054C296.785 202.216 296.692 202.435 296.686 202.664C296.681 202.894 296.764 203.117 296.918 203.286L299.148 205.516C299.315 205.684 299.542 205.778 299.779 205.778C300.015 205.778 300.242 205.684 300.409 205.516L304.681 201.237C304.764 201.155 304.83 201.057 304.875 200.948C304.92 200.84 304.943 200.724 304.943 200.607C304.943 200.49 304.92 200.374 304.875 200.266C304.83 200.157 304.764 200.059 304.681 199.976Z" fill="#15BE53"/>
<g filter="url(#filter1_d_4003_1050)">
<path d="M323.86 182.955H862.536V222.359H323.86V182.955Z" fill="white"/>
<path d="M323.747 206.021L325.008 204.798C325.67 205.734 326.632 206.258 327.618 206.258C328.554 206.258 329.241 205.846 329.241 205.085C329.241 204.261 328.392 204.148 327.044 203.849C325.708 203.536 324.259 203.112 324.259 201.339C324.259 199.628 325.733 198.555 327.593 198.555C329.141 198.555 330.352 199.241 330.977 200.14L329.766 201.326C329.241 200.59 328.542 200.09 327.543 200.09C326.669 200.09 326.07 200.515 326.07 201.164C326.07 201.863 326.719 202.001 327.893 202.263C329.316 202.575 331.064 202.937 331.064 204.897C331.064 206.708 329.466 207.794 327.556 207.794C326.045 207.794 324.472 207.107 323.747 206.021ZM332.157 205.946V202.55H331.283V201.089H332.157V199.216H333.88V201.089H335.216V202.55H333.88V205.584C333.88 206.146 334.192 206.221 334.704 206.221C334.954 206.221 335.079 206.208 335.303 206.183V207.632C334.991 207.694 334.617 207.732 334.18 207.732C332.856 207.732 332.157 207.295 332.157 205.946ZM342.217 204.373C342.217 206.421 340.893 207.794 338.995 207.794C337.098 207.794 335.774 206.421 335.774 204.373C335.774 202.338 337.098 200.964 338.995 200.964C340.893 200.964 342.217 202.338 342.217 204.373ZM337.51 204.373C337.51 205.622 338.084 206.346 338.995 206.346C339.907 206.346 340.469 205.622 340.469 204.373C340.469 203.137 339.907 202.413 338.995 202.413C338.084 202.413 337.51 203.137 337.51 204.373ZM344.505 204.373C344.505 205.609 345.117 206.321 346.041 206.321C346.765 206.321 347.202 205.821 347.365 205.147L348.875 205.821C348.576 206.895 347.552 207.794 346.029 207.794C344.118 207.794 342.77 206.408 342.77 204.373C342.77 202.35 344.118 200.964 346.029 200.964C347.539 200.964 348.538 201.838 348.85 202.9L347.365 203.599C347.202 202.925 346.765 202.425 346.041 202.425C345.117 202.425 344.505 203.149 344.505 204.373ZM351.327 198.692V203.636L353.625 201.089H355.722L353.313 203.586L355.91 207.657H353.912L352.102 204.847L351.327 205.647V207.657H349.579V198.692H351.327ZM358.815 200.315V198.692H360.6V200.315H358.815ZM360.588 201.089V207.657H358.84V201.089H360.588ZM361.236 206.546L362.322 205.434C362.771 206.046 363.571 206.433 364.307 206.433C364.894 206.433 365.406 206.233 365.406 205.759C365.406 205.259 364.919 205.197 363.87 204.997C362.809 204.785 361.635 204.51 361.635 203.099C361.635 201.838 362.746 200.964 364.32 200.964C365.481 200.964 366.517 201.439 367.029 202.101L366.03 203.199C365.824 202.927 365.558 202.707 365.253 202.555C364.947 202.404 364.611 202.325 364.27 202.325C363.72 202.325 363.358 202.563 363.358 202.925C363.358 203.349 363.795 203.424 364.607 203.586C365.756 203.824 367.117 204.086 367.117 205.572C367.117 206.945 365.843 207.794 364.27 207.794C363.084 207.794 361.835 207.357 361.236 206.546ZM367.353 206.546L368.44 205.434C368.889 206.046 369.688 206.433 370.425 206.433C371.012 206.433 371.524 206.233 371.524 205.759C371.524 205.259 371.037 205.197 369.988 204.997C368.927 204.785 367.753 204.51 367.753 203.099C367.753 201.838 368.864 200.964 370.437 200.964C371.599 200.964 372.635 201.439 373.147 202.101L372.148 203.199C371.942 202.927 371.676 202.707 371.371 202.555C371.065 202.404 370.729 202.325 370.388 202.325C369.838 202.325 369.476 202.563 369.476 202.925C369.476 203.349 369.913 203.424 370.725 203.586C371.873 203.824 373.234 204.086 373.234 205.572C373.234 206.945 371.961 207.794 370.388 207.794C369.201 207.794 367.953 207.357 367.353 206.546ZM379.814 201.089V207.657H378.066V206.983C377.85 207.241 377.578 207.449 377.271 207.589C376.965 207.729 376.63 207.799 376.293 207.794C374.932 207.794 374.058 206.858 374.058 205.434V201.089H375.806V205.047C375.806 205.771 376.131 206.246 376.855 206.246C377.467 206.246 378.066 205.796 378.066 204.947V201.089H379.814ZM384 207.794C382.065 207.794 380.741 206.408 380.741 204.373C380.741 202.438 382.077 200.964 383.938 200.964C385.886 200.964 386.934 202.413 386.934 204.248V204.76H382.414C382.539 205.759 383.151 206.358 384.013 206.358C384.687 206.358 385.224 206.034 385.424 205.397L386.897 205.921C386.422 207.12 385.311 207.794 384 207.794ZM383.925 202.363C383.226 202.363 382.689 202.775 382.477 203.574H385.199C385.186 202.925 384.774 202.363 383.925 202.363ZM390.303 207.794C388.493 207.794 387.444 206.246 387.444 204.373C387.444 202.513 388.493 200.964 390.303 200.964C391.127 200.964 391.752 201.289 392.139 201.763V198.692H393.887V207.657H392.139V206.983C391.752 207.469 391.127 207.794 390.303 207.794ZM392.176 204.198C392.176 203.074 391.552 202.463 390.715 202.463C389.729 202.463 389.205 203.249 389.205 204.373C389.205 205.509 389.729 206.296 390.715 206.296C391.552 206.296 392.176 205.672 392.176 204.56V204.198ZM400.826 198.592V200.028C400.664 200.015 400.564 200.015 400.376 200.015C399.827 200.015 399.54 200.178 399.54 200.827V201.089H400.813V202.55H399.54V207.657H397.792V202.55H396.905V201.089H397.792V200.727C397.792 199.341 398.541 198.567 400.152 198.567C400.401 198.567 400.551 198.567 400.826 198.592ZM407.473 204.373C407.473 206.421 406.149 207.794 404.252 207.794C402.354 207.794 401.03 206.421 401.03 204.373C401.03 202.338 402.354 200.964 404.252 200.964C406.149 200.964 407.473 202.338 407.473 204.373ZM402.766 204.373C402.766 205.622 403.34 206.346 404.252 206.346C405.163 206.346 405.725 205.622 405.725 204.373C405.725 203.137 405.163 202.413 404.252 202.413C403.34 202.413 402.766 203.137 402.766 204.373ZM412.321 201.077V202.787C412.135 202.761 411.947 202.749 411.759 202.75C410.848 202.75 410.149 203.312 410.149 204.323V207.657H408.401V201.089H410.149V202.013C410.436 201.439 411.085 201.052 411.897 201.052C412.072 201.052 412.196 201.064 412.321 201.077ZM418.774 198.592V200.028C418.611 200.015 418.511 200.015 418.324 200.015C417.775 200.015 417.488 200.178 417.488 200.827V201.089H418.761V202.55H417.488V207.657H415.74V202.55H414.853V201.089H415.74V200.727C415.74 199.341 416.489 198.567 418.099 198.567C418.349 198.567 418.499 198.567 418.774 198.592ZM425.421 204.373C425.421 206.421 424.097 207.794 422.199 207.794C420.301 207.794 418.978 206.421 418.978 204.373C418.978 202.338 420.301 200.964 422.199 200.964C424.097 200.964 425.421 202.338 425.421 204.373ZM420.713 204.373C420.713 205.622 421.288 206.346 422.199 206.346C423.111 206.346 423.673 205.622 423.673 204.373C423.673 203.137 423.111 202.413 422.199 202.413C421.288 202.413 420.713 203.137 420.713 204.373ZM432.055 201.089V207.657H430.307V206.983C430.091 207.241 429.819 207.448 429.512 207.589C429.206 207.729 428.871 207.799 428.534 207.794C427.173 207.794 426.299 206.858 426.299 205.434V201.089H428.047V205.047C428.047 205.771 428.371 206.246 429.095 206.246C429.707 206.246 430.307 205.796 430.307 204.947V201.089H432.055ZM433.369 207.657V201.089H435.117V201.763C435.479 201.339 436.078 200.964 436.915 200.964C438.288 200.964 439.125 201.901 439.125 203.324V207.657H437.377V203.824C437.377 203.087 437.077 202.563 436.328 202.563C435.716 202.563 435.117 203 435.117 203.861V207.657H433.369ZM442.848 207.794C441.038 207.794 439.989 206.246 439.989 204.373C439.989 202.513 441.038 200.964 442.848 200.964C443.672 200.964 444.297 201.289 444.684 201.763V198.692H446.432V207.657H444.684V206.983C444.297 207.469 443.672 207.794 442.848 207.794ZM444.721 204.198C444.721 203.074 444.097 202.463 443.26 202.463C442.274 202.463 441.75 203.249 441.75 204.373C441.75 205.509 442.274 206.296 443.26 206.296C444.097 206.296 444.721 205.672 444.721 204.56V204.198ZM450.61 207.794C448.674 207.794 447.351 206.408 447.351 204.373C447.351 202.438 448.687 200.964 450.547 200.964C452.495 200.964 453.544 202.413 453.544 204.248V204.76H449.024C449.149 205.759 449.761 206.358 450.622 206.358C451.296 206.358 451.833 206.034 452.033 205.397L453.506 205.921C453.032 207.12 451.921 207.794 450.61 207.794ZM450.535 202.363C449.836 202.363 449.299 202.775 449.086 203.574H451.808C451.796 202.925 451.384 202.363 450.535 202.363ZM458.362 201.077V202.787C458.162 202.762 458.012 202.75 457.8 202.75C456.888 202.75 456.189 203.312 456.189 204.323V207.657H454.441V201.089H456.189V202.013C456.476 201.439 457.125 201.052 457.937 201.052C458.112 201.052 458.237 201.064 458.362 201.077ZM458.434 206.546L459.52 205.434C459.97 206.046 460.769 206.433 461.506 206.433C462.093 206.433 462.604 206.233 462.604 205.759C462.604 205.259 462.118 205.197 461.069 204.997C460.007 204.785 458.834 204.51 458.834 203.099C458.834 201.838 459.945 200.964 461.518 200.964C462.679 200.964 463.716 201.439 464.228 202.101L463.229 203.199C463.023 202.927 462.757 202.707 462.451 202.555C462.146 202.404 461.809 202.325 461.468 202.325C460.919 202.325 460.557 202.563 460.557 202.925C460.557 203.349 460.994 203.424 461.805 203.586C462.954 203.824 464.315 204.086 464.315 205.572C464.315 206.945 463.041 207.794 461.468 207.794C460.282 207.794 459.033 207.357 458.434 206.546Z" fill="#4F5B76"/>
</g>
<path d="M869.67 223.252H284.618C280.677 223.252 277.483 226.446 277.483 230.387V255.521C277.483 259.462 280.677 262.656 284.618 262.656H869.67C873.61 262.656 876.805 259.462 876.805 255.521V230.387C876.805 226.446 873.61 223.252 869.67 223.252Z" fill="white"/>
<path fill-rule="evenodd" clip-rule="evenodd" d="M307.805 242.953C307.805 244.846 307.053 246.66 305.715 247.999C304.377 249.337 302.562 250.088 300.67 250.088C298.778 250.088 296.963 249.337 295.625 247.999C294.287 246.66 293.535 244.846 293.535 242.953C293.535 241.061 294.287 239.246 295.625 237.908C296.963 236.57 298.778 235.818 300.67 235.818C302.562 235.818 304.377 236.57 305.715 237.908C307.053 239.246 307.805 241.061 307.805 242.953ZM304.681 240.273C304.514 240.106 304.287 240.012 304.051 240.012C303.814 240.012 303.587 240.106 303.42 240.273L299.779 243.921L298.18 242.322C298.011 242.165 297.787 242.08 297.556 242.084C297.325 242.089 297.105 242.182 296.941 242.346C296.778 242.509 296.684 242.729 296.68 242.96C296.676 243.191 296.761 243.415 296.918 243.584L299.148 245.813C299.315 245.98 299.542 246.074 299.779 246.074C300.015 246.074 300.242 245.98 300.409 245.813L304.681 241.534C304.764 241.452 304.83 241.353 304.875 241.245C304.92 241.137 304.943 241.021 304.943 240.904C304.943 240.787 304.92 240.671 304.875 240.562C304.83 240.454 304.764 240.356 304.681 240.273Z" fill="#15BE53"/>
<g filter="url(#filter2_d_4003_1050)">
<path d="M323.86 223.252H862.536V262.656H323.86V223.252Z" fill="white"/>
<path d="M326.482 244.657V247.953H324.646V238.988H328.317C330.377 238.988 331.663 239.962 331.663 241.822C331.663 243.67 330.377 244.657 328.317 244.657H326.482ZM326.482 243.096H328.217C329.291 243.096 329.841 242.621 329.841 241.822C329.841 241.011 329.291 240.549 328.217 240.549H326.482V243.096ZM338.03 241.385V247.953H336.281V247.279C336.065 247.538 335.793 247.745 335.486 247.886C335.18 248.026 334.845 248.096 334.508 248.09C333.148 248.09 332.274 247.154 332.274 245.73V241.385H334.022V245.343C334.022 246.068 334.346 246.542 335.07 246.542C335.682 246.542 336.281 246.093 336.281 245.243V241.385H338.03ZM343.264 241.373V243.083C343.078 243.058 342.89 243.046 342.702 243.046C341.791 243.046 341.092 243.608 341.092 244.619V247.953H339.344V241.385H341.092V242.309C341.379 241.735 342.028 241.348 342.84 241.348C343.014 241.348 343.139 241.36 343.264 241.373ZM345.152 244.669C345.152 245.905 345.763 246.617 346.687 246.617C347.411 246.617 347.848 246.117 348.011 245.443L349.522 246.117C349.222 247.191 348.198 248.09 346.675 248.09C344.764 248.09 343.416 246.704 343.416 244.669C343.416 242.646 344.764 241.26 346.675 241.26C348.186 241.26 349.184 242.135 349.497 243.196L348.011 243.895C347.848 243.221 347.411 242.721 346.687 242.721C345.763 242.721 345.152 243.446 345.152 244.669ZM350.226 247.953V238.988H351.974V242.06C352.336 241.635 352.935 241.26 353.772 241.26C355.145 241.26 355.982 242.197 355.982 243.62V247.953H354.234V244.12C354.234 243.383 353.934 242.859 353.185 242.859C352.573 242.859 351.974 243.296 351.974 244.157V247.953H350.226ZM362.552 246.342C362.552 246.904 362.577 247.466 362.652 247.953H360.967C360.952 247.779 360.943 247.604 360.942 247.429C360.517 247.841 359.88 248.065 359.081 248.065C357.795 248.065 356.834 247.291 356.834 246.13C356.834 244.819 357.87 244.27 359.206 244.032L360.842 243.72V243.433C360.842 242.909 360.492 242.696 359.868 242.696C359.156 242.696 358.856 242.984 358.819 243.508H357.121C357.183 241.997 358.332 241.26 359.955 241.26C361.578 241.26 362.552 241.947 362.552 243.208V246.342ZM360.842 245.618V244.944L359.568 245.194C358.981 245.306 358.557 245.493 358.557 246.018C358.557 246.48 358.894 246.729 359.418 246.729C360.155 246.729 360.842 246.355 360.842 245.618ZM363.165 246.842L364.252 245.73C364.701 246.342 365.5 246.729 366.237 246.729C366.824 246.729 367.336 246.53 367.336 246.055C367.336 245.556 366.849 245.493 365.8 245.293C364.739 245.081 363.565 244.806 363.565 243.396C363.565 242.135 364.676 241.26 366.249 241.26C367.411 241.26 368.447 241.735 368.959 242.397L367.96 243.495C367.754 243.224 367.487 243.004 367.182 242.852C366.876 242.7 366.54 242.621 366.199 242.621C365.65 242.621 365.288 242.859 365.288 243.221C365.288 243.645 365.725 243.72 366.537 243.883C367.685 244.12 369.046 244.382 369.046 245.868C369.046 247.241 367.773 248.09 366.199 248.09C365.013 248.09 363.765 247.653 363.165 246.842ZM372.804 248.09C370.869 248.09 369.545 246.704 369.545 244.669C369.545 242.734 370.881 241.26 372.742 241.26C374.69 241.26 375.738 242.709 375.738 244.544V245.056H371.219C371.343 246.055 371.955 246.654 372.817 246.654C373.491 246.654 374.028 246.33 374.228 245.693L375.701 246.217C375.226 247.416 374.115 248.09 372.804 248.09ZM372.729 242.659C372.03 242.659 371.493 243.071 371.281 243.87H374.003C373.99 243.221 373.578 242.659 372.729 242.659ZM382.219 248.327C381.794 249.489 381.195 250.238 379.746 250.238C379.409 250.238 379.284 250.225 379.06 250.2V248.789C379.247 248.802 379.359 248.814 379.559 248.814C380.021 248.814 380.271 248.69 380.458 248.215L380.67 247.691L378.31 241.385H380.121L381.607 245.705L383.055 241.385H384.816L382.219 248.327ZM391.183 244.669C391.183 246.717 389.86 248.09 387.962 248.09C386.064 248.09 384.741 246.717 384.741 244.669C384.741 242.634 386.064 241.26 387.962 241.26C389.86 241.26 391.183 242.634 391.183 244.669ZM386.476 244.669C386.476 245.918 387.051 246.642 387.962 246.642C388.874 246.642 389.435 245.918 389.435 244.669C389.435 243.433 388.874 242.709 387.962 242.709C387.051 242.709 386.476 243.433 386.476 244.669ZM397.817 241.385V247.953H396.069V247.279C395.853 247.538 395.581 247.745 395.274 247.886C394.968 248.026 394.633 248.096 394.296 248.09C392.935 248.09 392.061 247.154 392.061 245.73V241.385H393.809V245.343C393.809 246.068 394.134 246.542 394.858 246.542C395.47 246.542 396.069 246.093 396.069 245.243V241.385H397.817ZM403.052 241.373V243.083C402.852 243.058 402.702 243.046 402.49 243.046C401.579 243.046 400.879 243.608 400.879 244.619V247.953H399.131V241.385H400.879V242.309C401.167 241.735 401.816 241.348 402.627 241.348C402.802 241.348 402.927 241.36 403.052 241.373ZM405.609 246.842L406.695 245.73C407.144 246.342 407.944 246.729 408.68 246.729C409.267 246.729 409.779 246.53 409.779 246.055C409.779 245.556 409.292 245.493 408.243 245.293C407.182 245.081 406.008 244.806 406.008 243.396C406.008 242.135 407.119 241.26 408.693 241.26C409.854 241.26 410.89 241.735 411.402 242.397L410.403 243.495C410.197 243.224 409.931 243.004 409.625 242.852C409.32 242.701 408.984 242.622 408.643 242.621C408.093 242.621 407.731 242.859 407.731 243.221C407.731 243.645 408.168 243.72 408.98 243.883C410.129 244.12 411.49 244.382 411.49 245.868C411.49 247.241 410.216 248.09 408.643 248.09C407.457 248.09 406.208 247.653 405.609 246.842ZM412.376 247.953V238.988H414.124V242.06C414.486 241.635 415.085 241.26 415.922 241.26C417.295 241.26 418.132 242.197 418.132 243.62V247.953H416.384V244.12C416.384 243.383 416.084 242.859 415.335 242.859C414.723 242.859 414.124 243.296 414.124 244.157V247.953H412.376ZM424.702 246.342C424.702 246.904 424.727 247.466 424.802 247.953H423.117C423.102 247.779 423.093 247.604 423.092 247.429C422.667 247.841 422.03 248.065 421.231 248.065C419.945 248.065 418.984 247.291 418.984 246.13C418.984 244.819 420.02 244.27 421.356 244.032L422.992 243.72V243.433C422.992 242.909 422.642 242.696 422.018 242.696C421.306 242.696 421.007 242.984 420.969 243.508H419.271C419.333 241.997 420.482 241.26 422.105 241.26C423.728 241.26 424.702 241.947 424.702 243.208V246.342ZM422.992 245.618V244.944L421.718 245.194C421.131 245.306 420.707 245.493 420.707 246.018C420.707 246.48 421.044 246.729 421.568 246.729C422.305 246.729 422.992 246.355 422.992 245.618ZM429.885 241.373V243.083C429.699 243.058 429.511 243.046 429.323 243.046C428.412 243.046 427.713 243.608 427.713 244.619V247.953H425.965V241.385H427.713V242.309C428 241.735 428.649 241.348 429.461 241.348C429.636 241.348 429.76 241.36 429.885 241.373ZM433.296 248.09C431.361 248.09 430.037 246.704 430.037 244.669C430.037 242.734 431.373 241.26 433.234 241.26C435.181 241.26 436.23 242.709 436.23 244.544V245.056H431.71C431.835 246.055 432.447 246.654 433.309 246.654C433.983 246.654 434.52 246.33 434.719 245.693L436.193 246.217C435.718 247.416 434.607 248.09 433.296 248.09ZM433.221 242.659C432.522 242.659 431.985 243.071 431.773 243.87H434.495C434.482 243.221 434.07 242.659 433.221 242.659ZM436.49 246.842L437.577 245.73C438.026 246.342 438.825 246.729 439.562 246.729C440.149 246.729 440.661 246.53 440.661 246.055C440.661 245.556 440.174 245.493 439.125 245.293C438.063 245.081 436.89 244.806 436.89 243.396C436.89 242.135 438.001 241.26 439.574 241.26C440.735 241.26 441.772 241.735 442.284 242.397L441.285 243.495C441.079 243.224 440.812 243.004 440.507 242.852C440.201 242.7 439.865 242.621 439.524 242.621C438.975 242.621 438.613 242.859 438.613 243.221C438.613 243.645 439.05 243.72 439.861 243.883C441.01 244.12 442.371 244.382 442.371 245.868C442.371 247.241 441.098 248.09 439.524 248.09C438.338 248.09 437.09 247.653 436.49 246.842Z" fill="#4F5B76"/>
</g>
<path d="M869.67 263.547H284.618C280.677 263.547 277.483 266.741 277.483 270.682V295.816C277.483 299.756 280.677 302.951 284.618 302.951H869.67C873.61 302.951 876.805 299.756 876.805 295.816V270.682C876.805 266.741 873.61 263.547 869.67 263.547Z" fill="white"/>
<path fill-rule="evenodd" clip-rule="evenodd" d="M294.403 288.824C294.403 288.455 294.703 288.155 295.073 288.155H306.243C306.334 288.15 306.425 288.164 306.51 288.195C306.596 288.226 306.674 288.275 306.74 288.337C306.806 288.4 306.859 288.476 306.895 288.559C306.931 288.643 306.949 288.733 306.949 288.824C306.949 288.915 306.931 289.005 306.895 289.089C306.859 289.173 306.806 289.248 306.74 289.311C306.674 289.373 306.596 289.422 306.51 289.453C306.425 289.484 306.334 289.498 306.243 289.493H295.073C294.895 289.493 294.725 289.423 294.599 289.297C294.474 289.172 294.403 289.002 294.403 288.824ZM300.658 281.69C300.658 281.32 300.958 281.021 301.328 281.021H306.243C306.334 281.015 306.426 281.028 306.513 281.058C306.599 281.089 306.678 281.138 306.745 281.2C306.812 281.263 306.866 281.339 306.902 281.423C306.939 281.507 306.958 281.598 306.958 281.69C306.958 281.781 306.939 281.872 306.902 281.956C306.866 282.04 306.812 282.116 306.745 282.179C306.678 282.242 306.599 282.29 306.513 282.321C306.426 282.351 306.334 282.364 306.243 282.358H301.328C301.24 282.358 301.153 282.341 301.072 282.307C300.991 282.274 300.917 282.225 300.854 282.163C300.792 282.101 300.743 282.027 300.709 281.946C300.675 281.865 300.658 281.778 300.658 281.69ZM294.403 285.257C294.403 284.888 294.703 284.588 295.073 284.588H306.243C306.334 284.583 306.425 284.597 306.51 284.628C306.596 284.659 306.674 284.708 306.74 284.771C306.806 284.833 306.859 284.909 306.895 284.992C306.931 285.076 306.949 285.166 306.949 285.257C306.949 285.348 306.931 285.438 306.895 285.522C306.859 285.606 306.806 285.681 306.74 285.744C306.674 285.806 306.596 285.855 306.51 285.886C306.425 285.917 306.334 285.931 306.243 285.926H295.073C294.895 285.926 294.725 285.856 294.599 285.73C294.474 285.605 294.403 285.435 294.403 285.257Z" fill="#0A2540"/>
<path d="M301.555 278.146C301.68 278.019 301.749 277.848 301.747 277.671C301.746 277.493 301.674 277.324 301.548 277.199C301.422 277.074 301.251 277.005 301.073 277.006C300.896 277.007 300.726 277.078 300.601 277.205L296.403 281.442L294.711 279.502C294.593 279.375 294.43 279.3 294.257 279.291C294.084 279.282 293.914 279.34 293.783 279.454C293.652 279.568 293.57 279.728 293.555 279.9C293.539 280.073 293.591 280.245 293.7 280.38L295.854 282.85C295.914 282.919 295.988 282.976 296.071 283.015C296.324 283.145 296.643 283.103 296.854 282.89L301.555 278.146Z" fill="#0A2540"/>
<g filter="url(#filter3_d_4003_1050)">
<path d="M323.86 263.547H862.536V302.951H323.86V263.547Z" fill="white"/>
<path d="M323.86 274.248H709.138V292.248H323.86V274.248Z" fill="white"/>
<path d="M326.457 288.249H324.646V279.284H330.764V280.87H326.457V283.105H330.053V284.691H326.457V288.249ZM331.482 280.908V279.284H333.267V280.908H331.482ZM333.255 281.682V288.249H331.507V281.682H333.255ZM336.3 279.284V288.249H334.552V279.284H336.3ZM340.468 288.387C338.533 288.387 337.21 287.001 337.21 284.966C337.21 283.03 338.546 281.557 340.406 281.557C342.354 281.557 343.403 283.005 343.403 284.841V285.353H338.883C339.008 286.351 339.619 286.951 340.481 286.951C341.155 286.951 341.692 286.626 341.892 285.989L343.365 286.514C342.891 287.712 341.779 288.387 340.468 288.387ZM340.394 282.955C339.694 282.955 339.157 283.367 338.945 284.166H341.667C341.655 283.517 341.243 282.955 340.394 282.955ZM349.745 279.147C351.406 279.147 352.755 280.109 352.755 281.669C352.755 282.518 352.293 283.18 351.518 283.567C352.455 283.892 353.179 284.678 353.179 285.752C353.179 287.363 351.706 288.387 349.745 288.387C347.785 288.387 346.299 287.363 346.299 285.752C346.299 284.678 347.036 283.892 347.972 283.567C347.186 283.18 346.736 282.518 346.736 281.669C346.736 280.109 348.085 279.147 349.745 279.147ZM349.745 282.843C350.557 282.843 351.106 282.381 351.106 281.694C351.106 281.008 350.557 280.546 349.745 280.546C348.934 280.546 348.384 281.008 348.384 281.694C348.384 282.381 348.934 282.843 349.745 282.843ZM349.745 284.291C348.772 284.291 348.11 284.841 348.11 285.615C348.11 286.426 348.772 286.951 349.745 286.951C350.707 286.951 351.381 286.426 351.381 285.615C351.381 284.841 350.707 284.291 349.745 284.291ZM357.031 288.387C355.209 288.387 353.798 287.425 353.535 285.627L355.321 285.315C355.458 286.302 356.145 286.863 357.006 286.863C357.868 286.863 358.492 286.414 358.492 285.577C358.492 284.753 357.831 284.404 356.894 284.404H356.033V282.893H356.869C357.743 282.893 358.28 282.543 358.28 281.807C358.28 281.107 357.818 280.67 357.019 280.67C356.157 280.67 355.596 281.282 355.446 282.156L353.773 281.906C353.997 280.383 355.196 279.147 357.081 279.147C358.929 279.147 360.041 280.221 360.041 281.694C360.041 282.606 359.504 283.342 358.792 283.617C359.629 283.904 360.278 284.566 360.278 285.702C360.278 287.163 359.029 288.387 357.031 288.387ZM362.689 284.254C362.689 286.239 363.525 288.149 364.674 289.473H362.963C361.815 288.287 360.753 286.489 360.753 284.254C360.753 282.019 361.815 280.221 362.963 279.035H364.674C363.525 280.383 362.689 282.269 362.689 284.254ZM368.843 288.387C368.019 288.387 367.394 288.062 367.007 287.575V288.249H365.259V279.284H367.007V282.356C367.394 281.882 368.019 281.557 368.843 281.557C370.653 281.557 371.702 283.105 371.702 284.966C371.702 286.838 370.653 288.387 368.843 288.387ZM366.97 284.791V285.153C366.97 286.264 367.594 286.888 368.431 286.888C369.417 286.888 369.941 286.102 369.941 284.966C369.941 283.842 369.417 283.055 368.431 283.055C367.594 283.055 366.97 283.667 366.97 284.791ZM373.87 284.254C373.87 282.269 373.033 280.383 371.884 279.035H373.595C374.744 280.221 375.805 282.019 375.805 284.254C375.805 286.489 374.744 288.287 373.595 289.473H371.884C373.033 288.149 373.87 286.239 373.87 284.254ZM381.948 288.387C380.013 288.387 378.69 287.001 378.69 284.966C378.69 283.03 380.026 281.557 381.886 281.557C383.834 281.557 384.883 283.005 384.883 284.841V285.353H380.363C380.488 286.351 381.099 286.951 381.961 286.951C382.635 286.951 383.172 286.626 383.372 285.989L384.845 286.514C384.371 287.712 383.259 288.387 381.948 288.387ZM381.874 282.955C381.174 282.955 380.637 283.367 380.425 284.166H383.147C383.135 283.517 382.723 282.955 381.874 282.955ZM387.528 279.284V288.249H385.78V279.284H387.528ZM391.697 288.387C389.761 288.387 388.438 287.001 388.438 284.966C388.438 283.03 389.774 281.557 391.634 281.557C393.582 281.557 394.631 283.005 394.631 284.841V285.353H390.111C390.236 286.351 390.848 286.951 391.709 286.951C392.383 286.951 392.92 286.626 393.12 285.989L394.593 286.514C394.119 287.712 393.008 288.387 391.697 288.387ZM391.622 282.955C390.922 282.955 390.386 283.367 390.173 284.166H392.895C392.883 283.517 392.471 282.955 391.622 282.955ZM396.889 284.966C396.889 286.202 397.5 286.913 398.424 286.913C399.149 286.913 399.586 286.414 399.748 285.74L401.259 286.414C400.959 287.488 399.935 288.387 398.412 288.387C396.502 288.387 395.153 287.001 395.153 284.966C395.153 282.943 396.502 281.557 398.412 281.557C399.923 281.557 400.922 282.431 401.234 283.492L399.748 284.191C399.586 283.517 399.149 283.018 398.424 283.018C397.5 283.018 396.889 283.742 396.889 284.966ZM402.162 286.539V283.143H401.288V281.682H402.162V279.809H403.885V281.682H405.221V283.143H403.885V286.177C403.885 286.739 404.197 286.813 404.709 286.813C404.959 286.813 405.084 286.801 405.308 286.776V288.224C404.996 288.287 404.622 288.324 404.185 288.324C402.861 288.324 402.162 287.887 402.162 286.539ZM406.19 280.908V279.284H407.975V280.908H406.19ZM407.963 281.682V288.249H406.215V281.682H407.963ZM415.316 284.966C415.316 287.013 413.992 288.387 412.094 288.387C410.196 288.387 408.873 287.013 408.873 284.966C408.873 282.93 410.196 281.557 412.094 281.557C413.992 281.557 415.316 282.93 415.316 284.966ZM410.609 284.966C410.609 286.214 411.183 286.938 412.094 286.938C413.006 286.938 413.568 286.214 413.568 284.966C413.568 283.729 413.006 283.005 412.094 283.005C411.183 283.005 410.609 283.729 410.609 284.966ZM416.244 288.249V281.682H417.992V282.356C418.354 281.931 418.953 281.557 419.79 281.557C421.163 281.557 422 282.493 422 283.917V288.249H420.252V284.416C420.252 283.679 419.952 283.155 419.203 283.155C418.591 283.155 417.992 283.592 417.992 284.454V288.249H416.244Z" fill="#0A2540"/>
</g>
<path d="M869.67 303.844H284.618C280.677 303.844 277.483 307.038 277.483 310.979V336.113C277.483 340.053 280.677 343.248 284.618 343.248H869.67C873.61 343.248 876.805 340.053 876.805 336.113V310.979C876.805 307.038 873.61 303.844 869.67 303.844Z" fill="white"/>
<path fill-rule="evenodd" clip-rule="evenodd" d="M306.662 323.546H305.558V327.184L306.854 328.193C307.719 328.839 307.283 330.234 306.182 330.234H295.112C294.011 330.234 293.575 328.839 294.44 328.193L295.736 327.184V323.546H294.666C293.577 323.546 293.108 322.142 294.008 321.498L300.268 316.983C300.383 316.9 300.522 316.856 300.664 316.857C300.806 316.856 300.945 316.9 301.06 316.983L307.32 321.498C308.22 322.142 307.751 323.546 306.662 323.546ZM295.311 322.208L300.664 318.347L306.017 322.208H295.311ZM301.562 323.546H299.779V326.89C299.77 327.062 299.695 327.223 299.571 327.34C299.446 327.458 299.281 327.524 299.11 327.524C298.939 327.524 298.774 327.458 298.649 327.34C298.525 327.223 298.45 327.062 298.441 326.89V323.546H297.074V327.511C297.074 327.613 297.051 327.714 297.006 327.805C296.962 327.897 296.896 327.977 296.816 328.039L295.714 328.897H305.58L304.478 328.039C304.398 327.977 304.332 327.897 304.288 327.805C304.243 327.714 304.22 327.613 304.22 327.511V323.546H302.9V326.89C302.9 327.068 302.829 327.238 302.704 327.364C302.579 327.489 302.408 327.559 302.231 327.559C302.054 327.559 301.883 327.489 301.758 327.364C301.632 327.238 301.562 327.068 301.562 326.89V323.546Z" fill="#0A2540"/>
<g filter="url(#filter4_d_4003_1050)">
<path d="M323.86 303.844H862.536V343.248H323.86V303.844Z" fill="white"/>
<path d="M323.86 314.545H709.138V332.545H323.86V314.545Z" fill="white"/>
<path d="M324.197 324.063C324.197 321.354 325.97 319.443 328.442 319.443C330.902 319.443 332.675 321.354 332.675 324.063C332.675 326.772 330.902 328.683 328.442 328.683C325.97 328.683 324.197 326.772 324.197 324.063ZM330.827 324.063C330.827 322.228 329.841 321.054 328.442 321.054C327.031 321.054 326.045 322.228 326.045 324.063C326.045 325.898 327.031 327.072 328.442 327.072C329.841 327.072 330.827 325.898 330.827 324.063ZM337.187 328.683C336.363 328.683 335.739 328.358 335.352 327.871V330.768H333.604V321.978H335.352V322.652C335.739 322.178 336.363 321.853 337.187 321.853C338.998 321.853 340.046 323.401 340.046 325.262C340.046 327.135 338.998 328.683 337.187 328.683ZM335.314 325.087V325.449C335.314 326.56 335.939 327.184 336.775 327.184C337.762 327.184 338.286 326.398 338.286 325.262C338.286 324.138 337.762 323.351 336.775 323.351C335.939 323.351 335.314 323.963 335.314 325.087ZM343.837 328.683C341.902 328.683 340.578 327.297 340.578 325.262C340.578 323.326 341.914 321.853 343.775 321.853C345.722 321.853 346.771 323.301 346.771 325.137V325.649H342.251C342.376 326.648 342.988 327.247 343.849 327.247C344.524 327.247 345.061 326.922 345.26 326.286L346.734 326.81C346.259 328.009 345.148 328.683 343.837 328.683ZM343.762 323.251C343.063 323.251 342.526 323.663 342.314 324.463H345.036C345.023 323.813 344.611 323.251 343.762 323.251ZM347.668 328.545V321.978H349.416V322.652C349.778 322.228 350.378 321.853 351.214 321.853C352.588 321.853 353.424 322.789 353.424 324.213V328.545H351.676V324.712C351.676 323.976 351.377 323.451 350.627 323.451C350.016 323.451 349.416 323.888 349.416 324.75V328.545H347.668ZM362.382 326.935C362.382 327.497 362.407 328.059 362.481 328.545H360.796C360.78 328.371 360.772 328.196 360.771 328.021C360.346 328.433 359.71 328.658 358.91 328.658C357.624 328.658 356.663 327.884 356.663 326.723C356.663 325.411 357.699 324.862 359.035 324.625L360.671 324.313V324.026C360.671 323.501 360.321 323.289 359.697 323.289C358.985 323.289 358.686 323.576 358.648 324.1H356.95C357.013 322.59 358.161 321.853 359.784 321.853C361.408 321.853 362.382 322.54 362.382 323.801V326.935ZM360.671 326.211V325.536L359.397 325.786C358.811 325.898 358.386 326.086 358.386 326.61C358.386 327.072 358.723 327.322 359.248 327.322C359.984 327.322 360.671 326.947 360.671 326.211ZM369.614 328.683C368.79 328.683 368.166 328.358 367.779 327.871V328.545H366.031V319.581H367.779V322.652C368.166 322.178 368.79 321.853 369.614 321.853C371.425 321.853 372.473 323.401 372.473 325.262C372.473 327.135 371.425 328.683 369.614 328.683ZM367.741 325.087V325.449C367.741 326.56 368.365 327.184 369.202 327.184C370.188 327.184 370.713 326.398 370.713 325.262C370.713 324.138 370.188 323.351 369.202 323.351C368.365 323.351 367.741 323.963 367.741 325.087ZM378.686 326.935C378.686 327.497 378.711 328.059 378.786 328.545H377.101C377.085 328.371 377.077 328.196 377.076 328.021C376.651 328.433 376.014 328.658 375.215 328.658C373.929 328.658 372.968 327.884 372.968 326.723C372.968 325.411 374.004 324.862 375.34 324.625L376.976 324.313V324.026C376.976 323.501 376.626 323.289 376.002 323.289C375.29 323.289 374.991 323.576 374.953 324.1H373.255C373.318 322.59 374.466 321.853 376.089 321.853C377.713 321.853 378.686 322.54 378.686 323.801V326.935ZM376.976 326.211V325.536L375.702 325.786C375.115 325.898 374.691 326.086 374.691 326.61C374.691 327.072 375.028 327.322 375.552 327.322C376.289 327.322 376.976 326.947 376.976 326.211ZM379.949 328.545V321.978H381.697V322.652C382.059 322.228 382.658 321.853 383.495 321.853C384.868 321.853 385.705 322.789 385.705 324.213V328.545H383.957V324.712C383.957 323.976 383.657 323.451 382.908 323.451C382.296 323.451 381.697 323.888 381.697 324.75V328.545H379.949ZM388.717 319.581V324.525L391.014 321.978H393.112L390.702 324.475L393.299 328.545H391.302L389.491 325.736L388.717 326.535V328.545H386.969V319.581H388.717ZM401.536 326.935C401.536 327.497 401.561 328.059 401.636 328.545H399.95C399.938 328.383 399.925 328.208 399.925 328.021C399.501 328.433 398.864 328.658 398.065 328.658C396.779 328.658 395.817 327.884 395.817 326.723C395.817 325.411 396.854 324.862 398.19 324.625L399.825 324.313V324.026C399.825 323.501 399.476 323.289 398.851 323.289C398.14 323.289 397.84 323.576 397.803 324.1H396.105C396.167 322.59 397.316 321.853 398.939 321.853C400.562 321.853 401.536 322.54 401.536 323.801V326.935ZM399.825 326.211V325.536L398.552 325.786C397.965 325.898 397.54 326.086 397.54 326.61C397.54 327.072 397.878 327.322 398.402 327.322C399.139 327.322 399.825 326.947 399.825 326.211ZM404.147 325.262C404.147 326.498 404.759 327.209 405.683 327.209C406.407 327.209 406.844 326.71 407.006 326.036L408.517 326.71C408.217 327.784 407.193 328.683 405.67 328.683C403.76 328.683 402.411 327.297 402.411 325.262C402.411 323.239 403.76 321.853 405.67 321.853C407.181 321.853 408.18 322.727 408.492 323.788L407.006 324.488C406.844 323.813 406.407 323.314 405.683 323.314C404.759 323.314 404.147 324.038 404.147 325.262ZM410.569 325.262C410.569 326.498 411.181 327.209 412.105 327.209C412.829 327.209 413.266 326.71 413.429 326.036L414.939 326.71C414.64 327.784 413.616 328.683 412.093 328.683C410.182 328.683 408.834 327.297 408.834 325.262C408.834 323.239 410.182 321.853 412.093 321.853C413.603 321.853 414.602 322.727 414.914 323.788L413.429 324.488C413.266 323.813 412.829 323.314 412.105 323.314C411.181 323.314 410.569 324.038 410.569 325.262ZM421.699 325.262C421.699 327.309 420.376 328.683 418.478 328.683C416.58 328.683 415.256 327.309 415.256 325.262C415.256 323.226 416.58 321.853 418.478 321.853C420.376 321.853 421.699 323.226 421.699 325.262ZM416.992 325.262C416.992 326.51 417.566 327.234 418.478 327.234C419.389 327.234 419.951 326.51 419.951 325.262C419.951 324.026 419.389 323.301 418.478 323.301C417.566 323.301 416.992 324.026 416.992 325.262ZM428.333 321.978V328.545H426.585V327.871C426.369 328.13 426.097 328.338 425.79 328.478C425.484 328.619 425.149 328.689 424.812 328.683C423.451 328.683 422.577 327.746 422.577 326.323V321.978H424.325V325.936C424.325 326.66 424.65 327.135 425.374 327.135C425.986 327.135 426.585 326.685 426.585 325.836V321.978H428.333ZM429.647 328.545V321.978H431.395V322.652C431.757 322.228 432.357 321.853 433.193 321.853C434.567 321.853 435.403 322.789 435.403 324.213V328.545H433.655V324.712C433.655 323.976 433.355 323.451 432.606 323.451C431.994 323.451 431.395 323.888 431.395 324.75V328.545H429.647ZM436.842 326.835V323.439H435.968V321.978H436.842V320.105H438.565V321.978H439.901V323.439H438.565V326.473C438.565 327.035 438.877 327.11 439.389 327.11C439.639 327.11 439.764 327.097 439.988 327.072V328.52C439.676 328.583 439.302 328.62 438.865 328.62C437.541 328.62 436.842 328.183 436.842 326.835Z" fill="#0A2540"/>
</g>
<path d="M113.753 111.107L109.929 121.352H112.012L112.826 119.155H117.05L117.863 121.352H119.989L116.151 111.107H113.753ZM114.923 113.433L116.379 117.371H113.482L114.923 113.433ZM120.558 119.397C120.558 120.939 121.358 121.438 122.87 121.438C123.37 121.438 123.798 121.395 124.154 121.324V119.669C123.897 119.697 123.754 119.711 123.469 119.711C122.884 119.711 122.528 119.626 122.528 118.984V115.516H124.054V113.846H122.528V111.706H120.558V113.846H119.56V115.516H120.558V119.397ZM127.042 111.107H125.043V121.352H127.043V111.107H127.042ZM134.442 119.512V115.93C134.442 114.489 133.33 113.704 131.474 113.704C129.619 113.704 128.307 114.546 128.235 116.272H130.176C130.219 115.673 130.561 115.345 131.375 115.345C132.088 115.345 132.488 115.587 132.488 116.187V116.515L130.618 116.872C129.092 117.142 127.908 117.771 127.908 119.269C127.908 120.596 129.006 121.481 130.476 121.481C131.389 121.481 132.116 121.224 132.602 120.753C132.602 120.967 132.616 121.167 132.63 121.353H134.557C134.471 120.796 134.442 120.153 134.442 119.512ZM132.488 118.684C132.488 119.526 131.703 119.954 130.861 119.954C130.261 119.954 129.876 119.669 129.876 119.141C129.876 118.541 130.362 118.327 131.032 118.199L132.488 117.913V118.684ZM134.998 120.082C135.682 121.01 137.109 121.509 138.465 121.509C140.263 121.509 141.718 120.539 141.718 118.969C141.718 117.271 140.163 116.972 138.85 116.7C137.922 116.515 137.423 116.43 137.423 115.944C137.423 115.53 137.837 115.259 138.465 115.259C139.249 115.259 139.977 115.616 140.477 116.259L141.618 115.002C141.033 114.246 139.848 113.704 138.522 113.704C136.724 113.704 135.454 114.703 135.454 116.144C135.454 117.756 136.795 118.07 138.008 118.313C139.207 118.541 139.763 118.613 139.763 119.183C139.763 119.726 139.178 119.953 138.507 119.953C137.665 119.953 136.752 119.512 136.238 118.813L134.998 120.082Z" fill="#0A2540"/>
<g filter="url(#filter5_d_4003_1050)">
<path d="M109.815 142.631H181.085V236.035H109.815V142.631Z" fill="white"/>
<path d="M109.815 142.631H175.085V160.631H109.815V142.631Z" fill="white"/>
<path d="M124.471 152.147C124.471 154.869 126.219 156.767 128.641 156.767C131.064 156.767 132.812 154.869 132.812 152.147C132.812 149.425 131.064 147.527 128.642 147.527C126.22 147.527 124.471 149.425 124.471 152.147ZM131.214 152.147C131.214 154.095 130.153 155.357 128.642 155.357C127.131 155.357 126.07 154.095 126.07 152.147C126.07 150.199 127.131 148.938 128.642 148.938C130.152 148.938 131.214 150.198 131.214 152.147ZM137.001 156.63L139.398 150.075H137.85L136.263 154.832L134.665 150.075H133.093L135.49 156.63H137H137.001ZM142.683 156.767C143.993 156.767 145.03 156.08 145.493 154.932L144.206 154.445C144.006 155.119 143.42 155.493 142.683 155.493C141.721 155.493 141.047 154.807 140.935 153.683H145.53V153.183C145.53 151.386 144.518 149.95 142.62 149.95C140.797 149.95 139.499 151.435 139.499 153.358C139.499 155.381 140.81 156.767 142.683 156.767ZM142.608 151.211C143.557 151.211 144.006 151.835 144.018 152.559H141.01C141.234 151.673 141.834 151.211 142.608 151.211ZM150.238 150.062C150.097 150.046 149.955 150.037 149.813 150.037C148.976 150.037 148.302 150.437 148.015 151.048V150.075H146.517V156.63H148.015V153.184C148.015 152.134 148.739 151.523 149.688 151.523C149.9 151.523 150.05 151.535 150.238 151.56V150.062ZM154.403 156.63L156.8 150.075H155.253L153.667 154.832L152.069 150.075H150.496L152.893 156.63H154.403ZM157.447 149.2H158.995V147.665H157.447V149.2ZM158.97 150.075H157.473V156.63H158.971L158.97 150.075ZM163.179 156.767C164.49 156.767 165.526 156.08 165.989 154.932L164.702 154.445C164.502 155.119 163.916 155.493 163.179 155.493C162.218 155.493 161.543 154.807 161.431 153.683H166.026V153.183C166.026 151.386 165.015 149.95 163.116 149.95C161.294 149.95 159.996 151.435 159.996 153.358C159.996 155.381 161.306 156.767 163.179 156.767ZM163.104 151.211C164.054 151.211 164.502 151.835 164.515 152.559H161.505C161.731 151.673 162.329 151.211 163.104 151.211ZM170.074 150.075L168.912 154.42L167.726 150.075H166.19L168.163 156.63H169.461L170.66 152.334L171.859 156.63H173.157L175.13 150.075H173.644L172.483 154.42L171.309 150.075H170.074Z" fill="#635BFF"/>
<path d="M109.815 167.766H177.085V185.766H109.815V167.766Z" fill="white"/>
<path d="M125.745 177.282C125.745 175.159 126.919 173.724 128.579 173.724C129.74 173.724 130.577 174.398 130.902 175.534L132.038 175.159C131.513 173.611 130.29 172.662 128.579 172.662C126.257 172.662 124.546 174.548 124.546 177.282C124.546 180.016 126.256 181.902 128.579 181.902C130.289 181.902 131.513 180.953 132.038 179.405L130.902 179.03C130.577 180.166 129.74 180.84 128.579 180.84C126.919 180.84 125.745 179.405 125.745 177.282ZM138.733 178.506C138.733 176.483 137.484 175.109 135.698 175.109C133.913 175.109 132.664 176.483 132.664 178.506C132.664 180.528 133.913 181.902 135.699 181.902C137.484 181.902 138.733 180.528 138.733 178.506ZM133.801 178.506C133.801 177.007 134.55 176.058 135.699 176.058C136.847 176.058 137.596 177.007 137.596 178.506C137.596 179.991 136.847 180.94 135.698 180.94C134.55 180.94 133.801 179.991 133.801 178.506ZM141.148 177.856C141.148 176.795 141.948 176.158 142.696 176.158C143.62 176.158 143.995 176.845 143.995 177.756V181.764H145.118V177.856C145.118 176.795 145.918 176.158 146.667 176.158C147.591 176.158 147.965 176.845 147.965 177.756V181.764H149.089V177.457C149.089 176.071 148.277 175.109 146.929 175.109C146.517 175.108 146.11 175.209 145.746 175.403C145.383 175.597 145.072 175.878 144.844 176.221C144.519 175.546 143.907 175.109 143.034 175.109C142.122 175.109 141.498 175.584 141.148 176.121V175.234H140.024V181.764H141.148V177.856ZM153.91 181.902C155.72 181.902 156.757 180.354 156.757 178.506C156.757 176.645 155.72 175.109 153.91 175.109C152.998 175.109 152.274 175.546 151.887 176.183V175.234H150.763V184.012H151.887V180.815C152.274 181.465 152.998 181.902 153.91 181.902ZM151.862 178.281C151.862 176.758 152.786 176.096 153.71 176.096C154.934 176.096 155.62 177.095 155.62 178.506C155.62 179.904 154.934 180.915 153.71 180.915C152.786 180.915 151.862 180.241 151.862 178.743V178.281ZM162.747 180.341V176.97C162.747 175.771 161.847 175.109 160.399 175.109C159.001 175.109 157.915 175.771 157.815 177.157H158.914C159.001 176.458 159.475 176.096 160.337 176.096C161.136 176.096 161.66 176.408 161.66 177.132V177.532L160.037 177.856C158.577 178.144 157.552 178.693 157.552 179.991C157.552 181.165 158.526 181.877 159.712 181.877C160.562 181.877 161.286 181.565 161.685 181.09C161.698 181.352 161.71 181.577 161.735 181.764H162.847C162.784 181.352 162.747 180.828 162.747 180.341ZM161.66 179.542C161.66 180.378 160.824 180.965 159.862 180.965C159.151 180.965 158.676 180.578 158.676 179.941C158.676 179.155 159.338 178.88 160.336 178.68L161.66 178.406V179.542ZM164.426 181.764H165.549V177.869C165.549 176.783 166.373 176.158 167.185 176.158C168.159 176.158 168.545 176.845 168.545 177.756V181.764H169.669V177.457C169.669 176.071 168.883 175.109 167.497 175.109C166.573 175.109 165.924 175.584 165.549 176.121V175.234H164.425L164.426 181.764ZM173.722 182.476L176.531 175.234H175.357L173.547 180.229L171.711 175.234H170.525L172.947 181.527L172.635 182.301C172.373 182.951 172.111 183.125 171.624 183.125C171.437 183.125 171.299 183.113 171.087 183.063V184.037C171.287 184.074 171.424 184.087 171.699 184.087C172.835 184.087 173.347 183.463 173.722 182.476Z" fill="#4F5B76"/>
<path d="M109.815 192.9H181.085V210.9H109.815V192.9Z" fill="white"/>
<path d="M131.563 198.985V197.936H124.297V198.985H127.331V206.901H128.529V198.985H131.563ZM133.797 207.039C135.095 207.039 136.082 206.327 136.481 205.166L135.495 204.816C135.295 205.59 134.671 206.065 133.797 206.065C132.661 206.065 131.874 205.191 131.812 203.817H136.532V203.443C136.532 201.632 135.57 200.246 133.747 200.246C131.974 200.246 130.737 201.695 130.737 203.642C130.737 205.653 131.987 207.039 133.797 207.039ZM133.734 201.208C134.871 201.208 135.37 202.032 135.395 202.956H131.875C132.074 201.844 132.784 201.208 133.734 201.208ZM138.917 202.993C138.917 201.932 139.716 201.295 140.465 201.295C141.389 201.295 141.763 201.982 141.763 202.893V206.901H142.887V202.993C142.887 201.932 143.687 201.295 144.435 201.295C145.359 201.295 145.734 201.982 145.734 202.893V206.901H146.858V202.594C146.858 201.208 146.046 200.246 144.698 200.246C144.285 200.244 143.879 200.345 143.515 200.539C143.151 200.732 142.841 201.013 142.612 201.357C142.288 200.683 141.676 200.246 140.802 200.246C139.89 200.246 139.266 200.721 138.917 201.258V200.371H137.793V206.901H138.917V202.993ZM151.678 207.039C153.488 207.039 154.525 205.49 154.525 203.642C154.525 201.782 153.489 200.246 151.678 200.246C150.767 200.246 150.043 200.683 149.656 201.32V200.371H148.532V209.149H149.656V205.952C150.043 206.602 150.766 207.039 151.678 207.039ZM149.631 203.418C149.631 201.894 150.555 201.233 151.479 201.233C152.702 201.233 153.389 202.231 153.389 203.642C153.389 205.041 152.702 206.052 151.479 206.052C150.555 206.052 149.631 205.378 149.631 203.88V203.418ZM156.931 197.936H155.808V206.901H156.932L156.931 197.936ZM163.377 205.478V202.107C163.377 200.908 162.479 200.246 161.03 200.246C159.632 200.246 158.545 200.908 158.445 202.294H159.545C159.632 201.595 160.106 201.233 160.968 201.233C161.767 201.233 162.291 201.545 162.291 202.269V202.668L160.668 202.993C159.208 203.28 158.183 203.83 158.183 205.128C158.183 206.302 159.157 207.014 160.343 207.014C161.193 207.014 161.917 206.701 162.316 206.227C162.329 206.489 162.341 206.714 162.366 206.901H163.477C163.415 206.489 163.377 205.965 163.377 205.478ZM162.291 204.679C162.291 205.515 161.455 206.102 160.493 206.102C159.781 206.102 159.307 205.715 159.307 205.078C159.307 204.292 159.969 204.017 160.967 203.817L162.291 203.542V204.679ZM165.231 205.34C165.231 206.589 165.868 206.964 166.979 206.964C167.354 206.964 167.679 206.926 167.966 206.864V205.902C167.703 205.965 167.516 205.977 167.254 205.977C166.679 205.977 166.342 205.852 166.342 205.166V201.332H167.828V200.371H166.343V198.461H165.233V200.371H164.221V201.332H165.232L165.231 205.34ZM171.735 207.039C173.034 207.039 174.02 206.327 174.42 205.166L173.433 204.816C173.233 205.59 172.609 206.065 171.735 206.065C170.599 206.065 169.812 205.191 169.75 203.817H174.47V203.443C174.47 201.632 173.508 200.246 171.685 200.246C169.912 200.246 168.676 201.695 168.676 203.642C168.676 205.653 169.924 207.039 171.735 207.039ZM171.673 201.208C172.809 201.208 173.308 202.032 173.333 202.956H169.813C170.013 201.844 170.723 201.208 171.673 201.208ZM175.007 205.515C175.506 206.527 176.693 207.039 177.879 207.039C179.277 207.039 180.413 206.214 180.413 204.966C180.413 203.542 179.127 203.318 178.004 203.056C177.092 202.856 176.518 202.743 176.518 202.132C176.518 201.545 177.017 201.17 177.766 201.17C178.59 201.17 179.202 201.582 179.539 202.231L180.338 201.595C179.951 200.821 178.99 200.246 177.816 200.246C176.43 200.246 175.419 201.058 175.419 202.219C175.419 203.555 176.543 203.792 177.617 204.029C178.69 204.254 179.315 204.354 179.315 205.066C179.315 205.777 178.64 206.102 177.879 206.102C177.03 206.102 176.231 205.64 175.881 204.878L175.007 205.515Z" fill="#4F5B76"/>
<path d="M109.815 218.035H171.085V236.035H109.815V218.035Z" fill="white"/>
<path d="M126.269 228.277H128.492C130.39 228.277 131.601 227.353 131.601 225.667C131.601 223.957 130.39 223.07 128.491 223.07H125.071V232.035H126.269V228.277ZM126.269 227.24V224.106H128.429C129.703 224.106 130.415 224.656 130.415 225.667C130.415 226.679 129.703 227.24 128.429 227.24H126.269ZM137.163 230.612V227.24C137.163 226.042 136.263 225.38 134.815 225.38C133.417 225.38 132.331 226.042 132.231 227.428H133.33C133.417 226.728 133.891 226.366 134.753 226.366C135.552 226.366 136.076 226.679 136.076 227.403V227.802L134.453 228.127C132.993 228.414 131.969 228.963 131.969 230.262C131.969 231.436 132.943 232.147 134.129 232.147C134.978 232.147 135.702 231.835 136.101 231.361C136.114 231.623 136.126 231.848 136.151 232.035H137.263C137.2 231.623 137.163 231.099 137.163 230.612ZM136.076 229.812C136.076 230.649 135.24 231.236 134.278 231.236C133.567 231.236 133.092 230.849 133.092 230.212C133.092 229.425 133.754 229.151 134.752 228.951L136.076 228.676V229.812ZM142.226 225.48C142.076 225.464 141.926 225.455 141.776 225.455C140.889 225.455 140.252 225.954 139.966 226.616V225.505H138.842V232.035H139.965V228.464C139.965 227.315 140.727 226.566 141.675 226.566C141.888 226.566 142.038 226.579 142.225 226.616L142.226 225.48ZM143.573 230.474C143.573 231.723 144.21 232.097 145.321 232.097C145.696 232.097 146.021 232.06 146.308 231.997V231.036C146.046 231.099 145.858 231.111 145.596 231.111C145.022 231.111 144.685 230.986 144.685 230.299V226.466H146.171V225.505H144.685V223.595H143.573V225.505H142.563V226.466H143.574L143.573 230.474ZM147.504 232.035H148.628V228.139C148.628 227.053 149.452 226.429 150.264 226.429C151.238 226.429 151.624 227.116 151.624 228.027V232.035H152.749V227.727C152.749 226.341 151.962 225.38 150.576 225.38C149.652 225.38 149.003 225.854 148.628 226.391V225.505H147.505L147.504 232.035ZM157.024 232.172C158.323 232.172 159.309 231.461 159.709 230.299L158.722 229.95C158.522 230.724 157.898 231.198 157.024 231.198C155.888 231.198 155.102 230.324 155.039 228.951H159.759V228.576C159.759 226.766 158.797 225.38 156.974 225.38C155.201 225.38 153.965 226.828 153.965 228.776C153.965 230.786 155.214 232.172 157.025 232.172H157.024ZM156.962 226.341C158.098 226.341 158.598 227.165 158.622 228.089H155.102C155.302 226.978 156.013 226.341 156.962 226.341ZM164.404 225.48C164.254 225.464 164.104 225.455 163.954 225.455C163.068 225.455 162.431 225.954 162.144 226.616V225.505H161.02V232.035H162.144V228.464C162.144 227.315 162.906 226.566 163.854 226.566C164.067 226.566 164.217 226.579 164.404 226.616V225.48ZM164.658 230.649C165.158 231.66 166.344 232.172 167.53 232.172C168.928 232.172 170.064 231.348 170.064 230.1C170.064 228.676 168.778 228.452 167.654 228.189C166.744 227.99 166.169 227.877 166.169 227.265C166.169 226.679 166.669 226.304 167.418 226.304C168.242 226.304 168.853 226.716 169.19 227.365L169.99 226.728C169.603 225.954 168.641 225.38 167.467 225.38C166.082 225.38 165.07 226.192 165.07 227.353C165.07 228.689 166.194 228.926 167.268 229.163C168.341 229.388 168.966 229.488 168.966 230.2C168.966 230.911 168.292 231.236 167.53 231.236C166.68 231.236 165.882 230.774 165.532 230.012L164.658 230.649Z" fill="#4F5B76"/>
</g>
<path d="M110.707 142.631V160.468" stroke="#635BFF" stroke-width="1.784"/>
</g>
</g>
</g>
</g>
</g>
</g>
</g>
<g opacity="0.3">
<path d="M4.14307 4.62305H504.143V333.953C504.143 336.162 502.352 337.953 500.143 337.953H8.14307C5.93394 337.953 4.14307 336.162 4.14307 333.953V4.62305Z" fill="url(#paint0_linear_4003_1050)"/>
</g>
</g>
<defs>
<filter id="filter0_d_4003_1050" x="323.86" y="142.66" width="538.676" height="40.2963" filterUnits="userSpaceOnUse" color-interpolation-filters="sRGB">
<feFlood flood-opacity="0" result="BackgroundImageFix"/>
<feColorMatrix in="SourceAlpha" type="matrix" values="0 0 0 0 0 0 0 0 0 0 0 0 0 0 0 0 0 0 127 0" result="hardAlpha"/>
<feOffset dy="0.892"/>
<feComposite in2="hardAlpha" operator="out"/>
<feColorMatrix type="matrix" values="0 0 0 0 0.898039 0 0 0 0 0.917647 0 0 0 0 0.941176 0 0 0 1 0"/>
<feBlend mode="normal" in2="BackgroundImageFix" result="effect1_dropShadow_4003_1050"/>
<feBlend mode="normal" in="SourceGraphic" in2="effect1_dropShadow_4003_1050" result="shape"/>
</filter>
<filter id="filter1_d_4003_1050" x="323.747" y="182.955" width="538.789" height="40.2963" filterUnits="userSpaceOnUse" color-interpolation-filters="sRGB">
<feFlood flood-opacity="0" result="BackgroundImageFix"/>
<feColorMatrix in="SourceAlpha" type="matrix" values="0 0 0 0 0 0 0 0 0 0 0 0 0 0 0 0 0 0 127 0" result="hardAlpha"/>
<feOffset dy="0.892"/>
<feComposite in2="hardAlpha" operator="out"/>
<feColorMatrix type="matrix" values="0 0 0 0 0.898039 0 0 0 0 0.917647 0 0 0 0 0.941176 0 0 0 1 0"/>
<feBlend mode="normal" in2="BackgroundImageFix" result="effect1_dropShadow_4003_1050"/>
<feBlend mode="normal" in="SourceGraphic" in2="effect1_dropShadow_4003_1050" result="shape"/>
</filter>
<filter id="filter2_d_4003_1050" x="323.86" y="223.252" width="538.676" height="40.2963" filterUnits="userSpaceOnUse" color-interpolation-filters="sRGB">
<feFlood flood-opacity="0" result="BackgroundImageFix"/>
<feColorMatrix in="SourceAlpha" type="matrix" values="0 0 0 0 0 0 0 0 0 0 0 0 0 0 0 0 0 0 127 0" result="hardAlpha"/>
<feOffset dy="0.892"/>
<feComposite in2="hardAlpha" operator="out"/>
<feColorMatrix type="matrix" values="0 0 0 0 0.898039 0 0 0 0 0.917647 0 0 0 0 0.941176 0 0 0 1 0"/>
<feBlend mode="normal" in2="BackgroundImageFix" result="effect1_dropShadow_4003_1050"/>
<feBlend mode="normal" in="SourceGraphic" in2="effect1_dropShadow_4003_1050" result="shape"/>
</filter>
<filter id="filter3_d_4003_1050" x="323.86" y="263.547" width="538.676" height="40.2963" filterUnits="userSpaceOnUse" color-interpolation-filters="sRGB">
<feFlood flood-opacity="0" result="BackgroundImageFix"/>
<feColorMatrix in="SourceAlpha" type="matrix" values="0 0 0 0 0 0 0 0 0 0 0 0 0 0 0 0 0 0 127 0" result="hardAlpha"/>
<feOffset dy="0.892"/>
<feComposite in2="hardAlpha" operator="out"/>
<feColorMatrix type="matrix" values="0 0 0 0 0.898039 0 0 0 0 0.917647 0 0 0 0 0.941176 0 0 0 1 0"/>
<feBlend mode="normal" in2="BackgroundImageFix" result="effect1_dropShadow_4003_1050"/>
<feBlend mode="normal" in="SourceGraphic" in2="effect1_dropShadow_4003_1050" result="shape"/>
</filter>
<filter id="filter4_d_4003_1050" x="323.86" y="303.844" width="538.676" height="40.2963" filterUnits="userSpaceOnUse" color-interpolation-filters="sRGB">
<feFlood flood-opacity="0" result="BackgroundImageFix"/>
<feColorMatrix in="SourceAlpha" type="matrix" values="0 0 0 0 0 0 0 0 0 0 0 0 0 0 0 0 0 0 127 0" result="hardAlpha"/>
<feOffset dy="0.892"/>
<feComposite in2="hardAlpha" operator="out"/>
<feColorMatrix type="matrix" values="0 0 0 0 0.898039 0 0 0 0 0.917647 0 0 0 0 0.941176 0 0 0 1 0"/>
<feBlend mode="normal" in2="BackgroundImageFix" result="effect1_dropShadow_4003_1050"/>
<feBlend mode="normal" in="SourceGraphic" in2="effect1_dropShadow_4003_1050" result="shape"/>
</filter>
<filter id="filter5_d_4003_1050" x="109.815" y="142.631" width="73.054" height="93.4043" filterUnits="userSpaceOnUse" color-interpolation-filters="sRGB">
<feFlood flood-opacity="0" result="BackgroundImageFix"/>
<feColorMatrix in="SourceAlpha" type="matrix" values="0 0 0 0 0 0 0 0 0 0 0 0 0 0 0 0 0 0 127 0" result="hardAlpha"/>
<feOffset dx="1.784"/>
<feComposite in2="hardAlpha" operator="out"/>
<feColorMatrix type="matrix" values="0 0 0 0 0.423529 0 0 0 0 0.54902 0 0 0 0 0.670588 0 0 0 0.15 0"/>
<feBlend mode="normal" in2="BackgroundImageFix" result="effect1_dropShadow_4003_1050"/>
<feBlend mode="normal" in="SourceGraphic" in2="effect1_dropShadow_4003_1050" result="shape"/>
</filter>
<linearGradient id="paint0_linear_4003_1050" x1="254.143" y1="4.62305" x2="254.143" y2="337.953" gradientUnits="userSpaceOnUse">
<stop stop-color="#BEC9DC" stop-opacity="0"/>
<stop offset="1" stop-color="#BEC9DC" stop-opacity="0.4"/>
</linearGradient>
<clipPath id="clip0_4003_1050">
<rect x="4.14307" y="4.62305" width="500" height="333.33" rx="4" fill="white"/>
</clipPath>
<clipPath id="clip1_4003_1050">
<rect x="4.14307" y="4.62305" width="500" height="333.33" rx="4" fill="white"/>
</clipPath>
<clipPath id="clip2_4003_1050">
<rect width="500" height="333.33" fill="white" transform="translate(74.1431 71.2832)"/>
</clipPath>
<clipPath id="clip3_4003_1050">
<rect x="74.1431" y="71.2832" width="434" height="272" rx="8" fill="white"/>
</clipPath>
<clipPath id="clip4_4003_1050">
<rect width="434" height="272" fill="white" transform="translate(74.1431 71.2832)"/>
</clipPath>
<clipPath id="clip5_4003_1050">
<rect width="434" height="272" fill="white" transform="translate(74.1431 71.2832)"/>
</clipPath>
<clipPath id="clip6_4003_1050">
<rect width="434" height="272" fill="white" transform="translate(74.1431 71.2832)"/>
</clipPath>
</defs>
</svg>
