<svg width="201" height="41" viewBox="0 0 201 41" fill="none" xmlns="http://www.w3.org/2000/svg">
<path d="M111.995 20.143C111.995 26.693 106.693 31.995 100.143 31.995V20.143H111.995ZM100.143 8.29102V20.143H88.291C88.291 13.593 93.593 8.29102 100.143 8.29102Z" fill="#0166B1"/>
<path d="M100.143 8.29102C106.693 8.29102 111.995 13.593 111.995 20.141H100.143V8.29102ZM88.291 20.141H100.143V31.994C93.593 31.994 88.291 26.691 88.291 20.141Z" fill="white"/>
<path d="M100.143 8.29058V8.94058C106.319 8.94058 111.345 13.9656 111.345 20.1426H111.994C111.994 13.5976 106.689 8.29058 100.143 8.29058ZM100.143 31.3446C93.9671 31.3446 88.9411 26.3196 88.9411 20.1426H88.2911C88.2911 26.6876 93.5971 31.9946 100.143 31.9946M100.143 0.142578C89.0981 0.142578 80.1431 9.09758 80.1431 20.1426C80.1431 31.1876 89.0981 40.1426 100.143 40.1426C111.188 40.1426 120.143 31.1876 120.143 20.1426C120.143 9.09758 111.188 0.142578 100.143 0.142578ZM118.843 20.1426C118.843 30.4696 110.471 38.8426 100.143 38.8426C89.8151 38.8426 81.4431 30.4696 81.4431 20.1426C81.4431 9.81558 89.8161 1.44258 100.143 1.44258C110.47 1.44258 118.843 9.81558 118.843 20.1426Z" fill="#6F6F6F"/>
<path d="M91.5959 10.4933C92.2359 9.82533 92.5969 9.05333 91.9589 8.31533C91.6109 7.91533 91.0259 7.82833 90.5429 8.02533L90.4939 8.04333L90.5099 8.00133C90.5809 7.81133 90.6269 7.20433 90.1059 6.78633C89.9806 6.68802 89.8371 6.61549 89.6837 6.57292C89.5302 6.53036 89.3699 6.5186 89.2119 6.53833C88.6119 6.59833 88.1499 7.00633 86.8939 8.39833C86.4559 8.88833 86.0339 9.39233 85.6299 9.90933L89.0829 13.1623C90.2269 11.9043 90.6929 11.4383 91.5959 10.4933ZM87.0909 9.69833C87.7869 8.85233 88.5249 8.08633 88.8599 7.78333C88.9649 7.68733 89.0799 7.59333 89.2199 7.55433C89.4469 7.49233 89.6799 7.65233 89.7339 7.88433C89.7869 8.11633 89.6399 8.33633 89.4769 8.51833C89.1089 8.93033 87.7599 10.3313 87.7599 10.3313L87.0899 9.69733L87.0909 9.69833ZM88.4429 10.9723C88.4429 10.9723 89.7559 9.59233 90.1849 9.15233C90.3549 8.97733 90.4649 8.87133 90.5819 8.81333C90.7339 8.74033 90.8989 8.72533 91.0479 8.82333C91.1175 8.86852 91.1716 8.93396 91.2029 9.01085C91.2342 9.08773 91.2412 9.17236 91.2229 9.25333C91.1799 9.44933 91.0179 9.63733 90.8829 9.78133L89.1429 11.6313L88.4429 10.9723ZM100.538 6.61433L101.643 4.15433L101.714 3.93633L101.694 4.16433L101.81 7.45033C102.206 7.48833 102.601 7.54033 102.993 7.60633L102.813 2.73833C102.264 2.67848 101.713 2.63613 101.162 2.61133L100.073 5.29533L100.035 5.49533L99.9949 5.29533L98.9069 2.61133C98.3569 2.63433 97.8069 2.67733 97.2549 2.73833L97.0749 7.60633C97.4679 7.54133 97.8629 7.48933 98.2589 7.45033L98.3749 4.16433L98.3549 3.93633L98.4249 4.15633L99.5309 6.61433H100.538ZM109.719 11.7023C109.991 11.9923 110.382 12.4583 110.602 12.7423L114.647 10.1913C114.399 9.87164 114.144 9.55756 113.882 9.24933L111.32 10.9313L111.146 11.0813L111.276 10.8913L112.408 8.64933L111.608 7.85433L109.348 8.97833L109.158 9.10733L109.309 8.93333L111.005 6.39033C110.694 6.12852 110.377 5.87444 110.054 5.62833L107.486 9.64233C107.811 9.89033 108.24 10.2563 108.514 10.5043L110.931 9.25833L111.087 9.14533L110.973 9.29833L109.719 11.7023Z" fill="#6F6F6F"/>
</svg>
