<svg width="509" height="339" viewBox="0 0 509 339" fill="none" xmlns="http://www.w3.org/2000/svg">
<g clip-path="url(#clip0_4003_1132)">
<rect x="4.14307" y="4.94336" width="500" height="333.33" rx="4" fill="#F6F9FC"/>
<g clip-path="url(#clip1_4003_1132)">
<g clip-path="url(#clip2_4003_1132)">
<g clip-path="url(#clip3_4003_1132)">
<rect x="74.1431" y="71.5938" width="460" height="363" rx="8" fill="white"/>
<rect width="460" height="363" transform="translate(74.1431 71.5938)" fill="white"/>
<path d="M113.101 111.594V102.878H118.565V104.01H114.416V106.666H118.28V107.793H114.416V110.462H118.616V111.594H113.101ZM120.42 111.594V105.057H121.641V106.121H121.722C121.858 105.76 122.081 105.48 122.39 105.278C122.699 105.074 123.069 104.972 123.501 104.972C123.938 104.972 124.304 105.074 124.599 105.278C124.897 105.482 125.117 105.763 125.258 106.121H125.326C125.483 105.772 125.731 105.494 126.071 105.287C126.412 105.077 126.817 104.972 127.288 104.972C127.881 104.972 128.365 105.158 128.74 105.529C129.117 105.901 129.306 106.461 129.306 107.21V111.594H128.033V107.329C128.033 106.887 127.913 106.566 127.671 106.368C127.43 106.169 127.142 106.07 126.808 106.07C126.393 106.07 126.071 106.197 125.841 106.453C125.612 106.705 125.497 107.03 125.497 107.427V111.594H124.228V107.249C124.228 106.894 124.118 106.609 123.897 106.393C123.675 106.178 123.387 106.07 123.033 106.07C122.791 106.07 122.569 106.134 122.364 106.261C122.163 106.386 122 106.561 121.875 106.785C121.753 107.009 121.692 107.268 121.692 107.563V111.594H120.42ZM133.114 111.738C132.699 111.738 132.325 111.662 131.99 111.509C131.655 111.353 131.39 111.127 131.194 110.832C131.001 110.537 130.905 110.175 130.905 109.747C130.905 109.378 130.976 109.074 131.118 108.836C131.259 108.598 131.451 108.409 131.692 108.27C131.933 108.131 132.203 108.026 132.501 107.955C132.799 107.884 133.102 107.83 133.411 107.793C133.803 107.748 134.121 107.711 134.365 107.683C134.609 107.651 134.786 107.602 134.897 107.534C135.007 107.466 135.063 107.355 135.063 107.202V107.172C135.063 106.8 134.958 106.512 134.748 106.308C134.541 106.104 134.231 106.002 133.82 106.002C133.392 106.002 133.054 106.097 132.807 106.287C132.563 106.474 132.394 106.683 132.301 106.912L131.105 106.64C131.247 106.243 131.454 105.922 131.726 105.678C132.001 105.431 132.318 105.253 132.675 105.142C133.033 105.028 133.409 104.972 133.803 104.972C134.064 104.972 134.341 105.003 134.633 105.065C134.928 105.125 135.203 105.236 135.459 105.397C135.717 105.559 135.928 105.79 136.093 106.091C136.257 106.389 136.339 106.776 136.339 107.253V111.594H135.097V110.7H135.046C134.963 110.865 134.84 111.026 134.675 111.185C134.511 111.344 134.3 111.476 134.041 111.581C133.783 111.686 133.474 111.738 133.114 111.738ZM133.39 110.717C133.742 110.717 134.043 110.648 134.292 110.509C134.545 110.369 134.736 110.188 134.867 109.964C135 109.737 135.067 109.494 135.067 109.236V108.393C135.022 108.439 134.934 108.481 134.803 108.521C134.675 108.558 134.529 108.591 134.365 108.619C134.2 108.644 134.04 108.669 133.884 108.691C133.728 108.711 133.597 108.728 133.492 108.742C133.245 108.774 133.02 108.826 132.816 108.9C132.614 108.974 132.452 109.08 132.33 109.219C132.211 109.355 132.152 109.537 132.152 109.764C132.152 110.079 132.268 110.317 132.501 110.479C132.733 110.638 133.03 110.717 133.39 110.717ZM138.234 111.594V105.057H139.507V111.594H138.234ZM138.877 104.048C138.656 104.048 138.466 103.974 138.307 103.827C138.151 103.677 138.073 103.498 138.073 103.291C138.073 103.081 138.151 102.902 138.307 102.754C138.466 102.604 138.656 102.529 138.877 102.529C139.098 102.529 139.287 102.604 139.443 102.754C139.602 102.902 139.681 103.081 139.681 103.291C139.681 103.498 139.602 103.677 139.443 103.827C139.287 103.974 139.098 104.048 138.877 104.048ZM142.691 102.878V111.594H141.419V102.878H142.691Z" fill="#0A2540"/>
<rect x="112.643" y="122.094" width="383" height="39" rx="5.5" fill="white"/>
<rect x="112.643" y="122.094" width="383" height="39" rx="5.5" stroke="#E6EBF1"/>
<path d="M125.919 139.162H127.074V145.48C127.074 145.876 127.002 146.211 126.858 146.484C126.716 146.757 126.505 146.964 126.224 147.106C125.946 147.247 125.603 147.318 125.193 147.318C125.152 147.318 125.113 147.318 125.077 147.318C125.039 147.318 124.999 147.317 124.958 147.314V146.322C124.994 146.322 125.026 146.322 125.054 146.322C125.08 146.322 125.11 146.322 125.143 146.322C125.416 146.322 125.613 146.248 125.734 146.102C125.858 145.958 125.919 145.748 125.919 145.472V139.162ZM126.491 138.247C126.29 138.247 126.118 138.18 125.973 138.046C125.832 137.909 125.761 137.747 125.761 137.559C125.761 137.369 125.832 137.207 125.973 137.073C126.118 136.936 126.29 136.868 126.491 136.868C126.692 136.868 126.863 136.936 127.004 137.073C127.149 137.207 127.221 137.369 127.221 137.559C127.221 137.747 127.149 137.909 127.004 138.046C126.863 138.18 126.692 138.247 126.491 138.247ZM130.554 145.225C130.178 145.225 129.838 145.156 129.534 145.017C129.23 144.875 128.99 144.67 128.812 144.402C128.637 144.135 128.549 143.806 128.549 143.418C128.549 143.083 128.614 142.808 128.742 142.591C128.871 142.375 129.045 142.204 129.264 142.078C129.483 141.951 129.727 141.856 129.998 141.792C130.268 141.727 130.543 141.679 130.824 141.645C131.179 141.604 131.468 141.57 131.689 141.545C131.91 141.516 132.071 141.471 132.172 141.41C132.272 141.348 132.322 141.247 132.322 141.108V141.081C132.322 140.744 132.227 140.483 132.037 140.297C131.849 140.112 131.568 140.019 131.195 140.019C130.806 140.019 130.5 140.106 130.276 140.278C130.054 140.448 129.901 140.637 129.816 140.846L128.731 140.599C128.86 140.238 129.048 139.947 129.295 139.726C129.544 139.502 129.832 139.34 130.156 139.239C130.48 139.136 130.821 139.085 131.179 139.085C131.416 139.085 131.667 139.113 131.932 139.17C132.2 139.224 132.45 139.324 132.682 139.471C132.916 139.618 133.108 139.827 133.257 140.1C133.406 140.371 133.481 140.722 133.481 141.155V145.094H132.353V144.283H132.307C132.232 144.432 132.12 144.579 131.971 144.723C131.822 144.867 131.63 144.987 131.396 145.082C131.161 145.177 130.881 145.225 130.554 145.225ZM130.805 144.298C131.124 144.298 131.397 144.235 131.623 144.109C131.853 143.983 132.026 143.818 132.145 143.615C132.266 143.409 132.326 143.189 132.326 142.954V142.19C132.285 142.231 132.205 142.269 132.087 142.305C131.971 142.339 131.838 142.369 131.689 142.394C131.54 142.417 131.394 142.439 131.253 142.46C131.111 142.478 130.993 142.493 130.897 142.506C130.673 142.535 130.469 142.582 130.283 142.649C130.101 142.716 129.954 142.813 129.843 142.939C129.735 143.062 129.681 143.227 129.681 143.433C129.681 143.719 129.786 143.935 129.998 144.082C130.209 144.226 130.478 144.298 130.805 144.298ZM136.374 141.572V145.094H135.219V139.162H136.327V140.127H136.401C136.537 139.813 136.751 139.561 137.042 139.37C137.335 139.18 137.705 139.085 138.15 139.085C138.554 139.085 138.908 139.17 139.212 139.34C139.516 139.507 139.751 139.757 139.919 140.089C140.086 140.421 140.17 140.832 140.17 141.321V145.094H139.015V141.46C139.015 141.03 138.903 140.694 138.679 140.452C138.455 140.207 138.148 140.085 137.756 140.085C137.488 140.085 137.25 140.143 137.042 140.259C136.836 140.375 136.672 140.544 136.551 140.768C136.433 140.99 136.374 141.258 136.374 141.572ZM144.475 145.213C143.891 145.213 143.387 145.089 142.965 144.839C142.545 144.587 142.221 144.233 141.992 143.777C141.765 143.319 141.652 142.782 141.652 142.166C141.652 141.559 141.765 141.023 141.992 140.56C142.221 140.097 142.54 139.735 142.95 139.475C143.362 139.215 143.843 139.085 144.394 139.085C144.729 139.085 145.053 139.14 145.367 139.251C145.681 139.361 145.963 139.535 146.213 139.772C146.463 140.009 146.66 140.317 146.804 140.695C146.948 141.071 147.02 141.528 147.02 142.066V142.475H142.305V141.61H145.888C145.888 141.307 145.827 141.038 145.703 140.803C145.58 140.566 145.406 140.38 145.182 140.243C144.96 140.107 144.7 140.039 144.402 140.039C144.077 140.039 143.794 140.118 143.552 140.278C143.313 140.435 143.127 140.641 142.996 140.896C142.867 141.148 142.803 141.422 142.803 141.718V142.394C142.803 142.791 142.872 143.128 143.011 143.406C143.153 143.684 143.35 143.897 143.602 144.043C143.855 144.187 144.149 144.26 144.487 144.26C144.705 144.26 144.905 144.229 145.085 144.167C145.265 144.103 145.421 144.007 145.552 143.881C145.684 143.755 145.784 143.599 145.854 143.414L146.947 143.611C146.859 143.933 146.702 144.215 146.475 144.457C146.251 144.696 145.97 144.883 145.63 145.017C145.292 145.148 144.908 145.213 144.475 145.213ZM149.262 145.167C149.051 145.167 148.869 145.092 148.717 144.943C148.566 144.791 148.49 144.608 148.49 144.395C148.49 144.184 148.566 144.003 148.717 143.854C148.869 143.702 149.051 143.626 149.262 143.626C149.473 143.626 149.655 143.702 149.806 143.854C149.958 144.003 150.034 144.184 150.034 144.395C150.034 144.536 149.998 144.666 149.926 144.785C149.857 144.901 149.764 144.993 149.648 145.063C149.532 145.132 149.404 145.167 149.262 145.167ZM154.002 145.21C153.523 145.21 153.095 145.087 152.719 144.843C152.346 144.596 152.053 144.244 151.839 143.788C151.628 143.33 151.522 142.78 151.522 142.139C151.522 141.498 151.629 140.95 151.843 140.494C152.059 140.039 152.355 139.69 152.731 139.448C153.107 139.206 153.533 139.085 154.009 139.085C154.377 139.085 154.674 139.146 154.898 139.27C155.124 139.391 155.299 139.533 155.423 139.695C155.549 139.857 155.647 140 155.716 140.124H155.786V137.185H156.94V145.094H155.813V144.171H155.716C155.647 144.297 155.546 144.441 155.415 144.603C155.286 144.765 155.109 144.907 154.882 145.028C154.656 145.149 154.362 145.21 154.002 145.21ZM154.256 144.225C154.589 144.225 154.869 144.137 155.098 143.962C155.33 143.785 155.505 143.539 155.624 143.225C155.745 142.911 155.805 142.545 155.805 142.128C155.805 141.716 155.746 141.355 155.627 141.047C155.509 140.738 155.335 140.497 155.106 140.324C154.877 140.152 154.594 140.066 154.256 140.066C153.909 140.066 153.619 140.156 153.388 140.336C153.156 140.516 152.981 140.762 152.862 141.074C152.746 141.385 152.689 141.737 152.689 142.128C152.689 142.524 152.748 142.881 152.866 143.198C152.985 143.514 153.16 143.765 153.391 143.951C153.626 144.133 153.914 144.225 154.256 144.225ZM158.788 145.094V139.162H159.943V145.094H158.788ZM159.372 138.247C159.171 138.247 158.998 138.18 158.854 138.046C158.713 137.909 158.642 137.747 158.642 137.559C158.642 137.369 158.713 137.207 158.854 137.073C158.998 136.936 159.171 136.868 159.372 136.868C159.572 136.868 159.744 136.936 159.885 137.073C160.029 137.207 160.102 137.369 160.102 137.559C160.102 137.747 160.029 137.909 159.885 138.046C159.744 138.18 159.572 138.247 159.372 138.247ZM163.423 145.225C163.047 145.225 162.707 145.156 162.403 145.017C162.1 144.875 161.859 144.67 161.681 144.402C161.506 144.135 161.419 143.806 161.419 143.418C161.419 143.083 161.483 142.808 161.612 142.591C161.74 142.375 161.914 142.204 162.133 142.078C162.352 141.951 162.596 141.856 162.867 141.792C163.137 141.727 163.413 141.679 163.693 141.645C164.048 141.604 164.337 141.57 164.558 141.545C164.78 141.516 164.941 141.471 165.041 141.41C165.141 141.348 165.192 141.247 165.192 141.108V141.081C165.192 140.744 165.096 140.483 164.906 140.297C164.718 140.112 164.437 140.019 164.064 140.019C163.675 140.019 163.369 140.106 163.145 140.278C162.923 140.448 162.77 140.637 162.685 140.846L161.6 140.599C161.729 140.238 161.917 139.947 162.164 139.726C162.414 139.502 162.701 139.34 163.025 139.239C163.349 139.136 163.691 139.085 164.048 139.085C164.285 139.085 164.536 139.113 164.802 139.17C165.069 139.224 165.319 139.324 165.551 139.471C165.785 139.618 165.977 139.827 166.126 140.1C166.276 140.371 166.35 140.722 166.35 141.155V145.094H165.223V144.283H165.176C165.101 144.432 164.99 144.579 164.84 144.723C164.691 144.867 164.499 144.987 164.265 145.082C164.03 145.177 163.75 145.225 163.423 145.225ZM163.674 144.298C163.993 144.298 164.266 144.235 164.493 144.109C164.722 143.983 164.896 143.818 165.014 143.615C165.135 143.409 165.195 143.189 165.195 142.954V142.19C165.154 142.231 165.074 142.269 164.956 142.305C164.84 142.339 164.708 142.369 164.558 142.394C164.409 142.417 164.263 142.439 164.122 142.46C163.98 142.478 163.862 142.493 163.767 142.506C163.543 142.535 163.338 142.582 163.153 142.649C162.97 142.716 162.823 142.813 162.712 142.939C162.604 143.062 162.55 143.227 162.55 143.433C162.55 143.719 162.656 143.935 162.867 144.082C163.078 144.226 163.347 144.298 163.674 144.298ZM167.965 145.094V144.302L171.178 140.22V140.166H168.069V139.162H172.618V140.004L169.529 144.036V144.09H172.726V145.094H167.965ZM179.05 147.245C178.252 147.245 177.544 147.135 176.926 146.917C176.311 146.7 175.792 146.381 175.37 145.959C174.948 145.539 174.627 145.024 174.408 144.414C174.189 143.804 174.08 143.107 174.08 142.325C174.08 141.563 174.191 140.878 174.412 140.27C174.634 139.663 174.955 139.145 175.378 138.718C175.802 138.288 176.319 137.96 176.926 137.733C177.534 137.506 178.224 137.393 178.996 137.393C179.735 137.393 180.386 137.509 180.95 137.741C181.514 137.972 181.988 138.29 182.371 138.695C182.758 139.099 183.049 139.562 183.244 140.085C183.44 140.608 183.538 141.16 183.538 141.742C183.538 142.148 183.512 142.546 183.46 142.935C183.409 143.321 183.314 143.671 183.175 143.985C183.038 144.297 182.84 144.547 182.58 144.735C182.322 144.92 181.988 145.017 181.576 145.024C181.357 145.032 181.145 145.006 180.939 144.947C180.733 144.888 180.558 144.793 180.413 144.661C180.269 144.527 180.182 144.357 180.151 144.151H180.104C180.043 144.303 179.94 144.445 179.796 144.576C179.651 144.705 179.467 144.808 179.243 144.885C179.022 144.96 178.764 144.991 178.471 144.978C178.147 144.965 177.854 144.892 177.594 144.758C177.334 144.624 177.112 144.439 176.926 144.202C176.743 143.965 176.603 143.684 176.505 143.36C176.407 143.035 176.358 142.675 176.358 142.278C176.358 141.897 176.414 141.556 176.525 141.255C176.635 140.951 176.786 140.69 176.976 140.471C177.169 140.25 177.391 140.075 177.641 139.946C177.89 139.817 178.154 139.736 178.432 139.703C178.703 139.672 178.951 139.679 179.178 139.726C179.404 139.772 179.592 139.843 179.741 139.938C179.893 140.033 179.989 140.138 180.027 140.251H180.077V139.818H181.027V143.402C181.027 143.606 181.08 143.778 181.186 143.92C181.294 144.061 181.447 144.132 181.645 144.132C181.88 144.132 182.062 144.046 182.194 143.873C182.328 143.701 182.422 143.436 182.476 143.078C182.532 142.72 182.561 142.262 182.561 141.703C182.561 141.312 182.508 140.944 182.402 140.599C182.299 140.251 182.146 139.937 181.943 139.656C181.742 139.373 181.495 139.13 181.201 138.926C180.908 138.723 180.573 138.566 180.197 138.455C179.824 138.345 179.411 138.289 178.958 138.289C178.342 138.289 177.795 138.384 177.316 138.575C176.837 138.763 176.433 139.034 176.104 139.39C175.777 139.745 175.528 140.171 175.358 140.668C175.191 141.162 175.107 141.717 175.107 142.333C175.107 142.974 175.193 143.543 175.366 144.039C175.538 144.534 175.793 144.951 176.131 145.291C176.468 145.631 176.885 145.888 177.382 146.063C177.879 146.241 178.452 146.33 179.1 146.33C179.389 146.33 179.672 146.304 179.95 146.252C180.228 146.203 180.475 146.147 180.691 146.082C180.91 146.021 181.074 145.97 181.182 145.932L181.452 146.778C181.293 146.852 181.08 146.926 180.815 146.998C180.552 147.07 180.267 147.129 179.958 147.175C179.651 147.222 179.349 147.245 179.05 147.245ZM178.695 144.032C179.03 144.032 179.299 143.965 179.502 143.831C179.708 143.697 179.856 143.498 179.946 143.232C180.039 142.965 180.085 142.63 180.085 142.228C180.083 141.837 180.032 141.525 179.935 141.294C179.839 141.059 179.69 140.892 179.487 140.792C179.286 140.689 179.027 140.637 178.71 140.637C178.419 140.637 178.171 140.708 177.965 140.85C177.762 140.991 177.606 141.183 177.498 141.425C177.392 141.667 177.338 141.936 177.336 142.232C177.338 142.544 177.382 142.837 177.467 143.113C177.554 143.386 177.696 143.607 177.892 143.777C178.09 143.947 178.358 144.032 178.695 144.032ZM187.57 145.213C186.985 145.213 186.482 145.089 186.06 144.839C185.64 144.587 185.316 144.233 185.086 143.777C184.86 143.319 184.747 142.782 184.747 142.166C184.747 141.559 184.86 141.023 185.086 140.56C185.316 140.097 185.635 139.735 186.044 139.475C186.456 139.215 186.938 139.085 187.489 139.085C187.823 139.085 188.148 139.14 188.462 139.251C188.776 139.361 189.058 139.535 189.307 139.772C189.557 140.009 189.754 140.317 189.898 140.695C190.042 141.071 190.115 141.528 190.115 142.066V142.475H185.399V141.61H188.983C188.983 141.307 188.921 141.038 188.798 140.803C188.674 140.566 188.5 140.38 188.276 140.243C188.055 140.107 187.795 140.039 187.496 140.039C187.172 140.039 186.889 140.118 186.647 140.278C186.407 140.435 186.222 140.641 186.091 140.896C185.962 141.148 185.897 141.422 185.897 141.718V142.394C185.897 142.791 185.967 143.128 186.106 143.406C186.248 143.684 186.445 143.897 186.697 144.043C186.949 144.187 187.244 144.26 187.581 144.26C187.8 144.26 188 144.229 188.18 144.167C188.36 144.103 188.516 144.007 188.647 143.881C188.778 143.755 188.879 143.599 188.948 143.414L190.041 143.611C189.954 143.933 189.797 144.215 189.57 144.457C189.346 144.696 189.064 144.883 188.724 145.017C188.387 145.148 188.002 145.213 187.57 145.213ZM192.369 139.162L193.678 141.471L194.999 139.162H196.262L194.412 142.128L196.277 145.094H195.014L193.678 142.877L192.346 145.094H191.079L192.925 142.128L191.102 139.162H192.369ZM199.363 145.225C198.987 145.225 198.647 145.156 198.344 145.017C198.04 144.875 197.799 144.67 197.621 144.402C197.446 144.135 197.359 143.806 197.359 143.418C197.359 143.083 197.423 142.808 197.552 142.591C197.681 142.375 197.854 142.204 198.073 142.078C198.292 141.951 198.537 141.856 198.807 141.792C199.077 141.727 199.353 141.679 199.633 141.645C199.989 141.604 200.277 141.57 200.498 141.545C200.72 141.516 200.881 141.471 200.981 141.41C201.082 141.348 201.132 141.247 201.132 141.108V141.081C201.132 140.744 201.037 140.483 200.846 140.297C200.658 140.112 200.377 140.019 200.004 140.019C199.615 140.019 199.309 140.106 199.085 140.278C198.864 140.448 198.71 140.637 198.625 140.846L197.54 140.599C197.669 140.238 197.857 139.947 198.104 139.726C198.354 139.502 198.641 139.34 198.965 139.239C199.29 139.136 199.631 139.085 199.989 139.085C200.226 139.085 200.477 139.113 200.742 139.17C201.009 139.224 201.259 139.324 201.491 139.471C201.725 139.618 201.917 139.827 202.066 140.1C202.216 140.371 202.29 140.722 202.29 141.155V145.094H201.163V144.283H201.116C201.042 144.432 200.93 144.579 200.78 144.723C200.631 144.867 200.439 144.987 200.205 145.082C199.971 145.177 199.69 145.225 199.363 145.225ZM199.614 144.298C199.933 144.298 200.206 144.235 200.433 144.109C200.662 143.983 200.836 143.818 200.954 143.615C201.075 143.409 201.136 143.189 201.136 142.954V142.19C201.094 142.231 201.015 142.269 200.896 142.305C200.78 142.339 200.648 142.369 200.498 142.394C200.349 142.417 200.204 142.439 200.062 142.46C199.92 142.478 199.802 142.493 199.707 142.506C199.483 142.535 199.278 142.582 199.093 142.649C198.91 142.716 198.763 142.813 198.652 142.939C198.544 143.062 198.49 143.227 198.49 143.433C198.49 143.719 198.596 143.935 198.807 144.082C199.018 144.226 199.287 144.298 199.614 144.298ZM204.028 145.094V139.162H205.137V140.127H205.21C205.334 139.8 205.536 139.546 205.816 139.363C206.097 139.177 206.433 139.085 206.824 139.085C207.221 139.085 207.553 139.177 207.821 139.363C208.091 139.548 208.291 139.803 208.419 140.127H208.481C208.623 139.811 208.848 139.558 209.157 139.37C209.466 139.18 209.834 139.085 210.261 139.085C210.799 139.085 211.238 139.253 211.578 139.591C211.921 139.928 212.092 140.436 212.092 141.116V145.094H210.937V141.224C210.937 140.823 210.828 140.532 210.609 140.351C210.39 140.171 210.129 140.081 209.825 140.081C209.449 140.081 209.157 140.197 208.948 140.429C208.74 140.658 208.636 140.953 208.636 141.313V145.094H207.485V141.151C207.485 140.829 207.384 140.57 207.183 140.375C206.983 140.179 206.721 140.081 206.4 140.081C206.181 140.081 205.979 140.139 205.793 140.255C205.61 140.368 205.462 140.526 205.349 140.73C205.238 140.933 205.183 141.169 205.183 141.437V145.094H204.028ZM213.84 147.318V139.162H214.967V140.124H215.064C215.131 140 215.227 139.857 215.353 139.695C215.48 139.533 215.655 139.391 215.879 139.27C216.103 139.146 216.399 139.085 216.767 139.085C217.246 139.085 217.673 139.206 218.049 139.448C218.425 139.69 218.72 140.039 218.933 140.494C219.15 140.95 219.258 141.498 219.258 142.139C219.258 142.78 219.151 143.33 218.937 143.788C218.724 144.244 218.43 144.596 218.057 144.843C217.683 145.087 217.257 145.21 216.778 145.21C216.418 145.21 216.123 145.149 215.894 145.028C215.667 144.907 215.49 144.765 215.361 144.603C215.232 144.441 215.133 144.297 215.064 144.171H214.994V147.318H213.84ZM214.971 142.128C214.971 142.545 215.032 142.911 215.153 143.225C215.274 143.539 215.449 143.785 215.678 143.962C215.907 144.137 216.188 144.225 216.52 144.225C216.865 144.225 217.153 144.133 217.385 143.951C217.616 143.765 217.792 143.514 217.91 143.198C218.031 142.881 218.091 142.524 218.091 142.128C218.091 141.737 218.032 141.385 217.914 141.074C217.798 140.762 217.623 140.516 217.389 140.336C217.157 140.156 216.867 140.066 216.52 140.066C216.185 140.066 215.902 140.152 215.67 140.324C215.441 140.497 215.267 140.738 215.149 141.047C215.03 141.355 214.971 141.716 214.971 142.128ZM221.906 137.185V145.094H220.751V137.185H221.906ZM226.216 145.213C225.632 145.213 225.128 145.089 224.706 144.839C224.286 144.587 223.962 144.233 223.733 143.777C223.506 143.319 223.393 142.782 223.393 142.166C223.393 141.559 223.506 141.023 223.733 140.56C223.962 140.097 224.281 139.735 224.691 139.475C225.103 139.215 225.584 139.085 226.135 139.085C226.47 139.085 226.794 139.14 227.108 139.251C227.422 139.361 227.704 139.535 227.954 139.772C228.204 140.009 228.401 140.317 228.545 140.695C228.689 141.071 228.761 141.528 228.761 142.066V142.475H224.046V141.61H227.63C227.63 141.307 227.568 141.038 227.444 140.803C227.321 140.566 227.147 140.38 226.923 140.243C226.701 140.107 226.441 140.039 226.143 140.039C225.818 140.039 225.535 140.118 225.293 140.278C225.054 140.435 224.868 140.641 224.737 140.896C224.608 141.148 224.544 141.422 224.544 141.718V142.394C224.544 142.791 224.613 143.128 224.752 143.406C224.894 143.684 225.091 143.897 225.343 144.043C225.596 144.187 225.89 144.26 226.228 144.26C226.447 144.26 226.646 144.229 226.826 144.167C227.007 144.103 227.162 144.007 227.294 143.881C227.425 143.755 227.525 143.599 227.595 143.414L228.688 143.611C228.6 143.933 228.443 144.215 228.217 144.457C227.993 144.696 227.711 144.883 227.371 145.017C227.034 145.148 226.649 145.213 226.216 145.213ZM231.003 145.167C230.792 145.167 230.61 145.092 230.459 144.943C230.307 144.791 230.231 144.608 230.231 144.395C230.231 144.184 230.307 144.003 230.459 143.854C230.61 143.702 230.792 143.626 231.003 143.626C231.214 143.626 231.396 143.702 231.548 143.854C231.699 144.003 231.775 144.184 231.775 144.395C231.775 144.536 231.739 144.666 231.667 144.785C231.598 144.901 231.505 144.993 231.389 145.063C231.273 145.132 231.145 145.167 231.003 145.167ZM236.021 145.213C235.447 145.213 234.952 145.083 234.538 144.823C234.126 144.561 233.809 144.199 233.588 143.738C233.366 143.277 233.256 142.75 233.256 142.155C233.256 141.552 233.369 141.021 233.595 140.56C233.822 140.097 234.141 139.735 234.553 139.475C234.965 139.215 235.45 139.085 236.009 139.085C236.46 139.085 236.861 139.168 237.214 139.336C237.567 139.5 237.851 139.732 238.068 140.031C238.286 140.33 238.416 140.678 238.458 141.077H237.334C237.272 140.799 237.13 140.56 236.909 140.359C236.69 140.158 236.397 140.058 236.028 140.058C235.707 140.058 235.425 140.143 235.183 140.313C234.943 140.48 234.757 140.72 234.623 141.031C234.489 141.34 234.422 141.706 234.422 142.128C234.422 142.56 234.488 142.934 234.619 143.248C234.75 143.562 234.936 143.805 235.175 143.978C235.417 144.15 235.701 144.236 236.028 144.236C236.247 144.236 236.446 144.197 236.623 144.117C236.803 144.034 236.954 143.917 237.075 143.765C237.199 143.613 237.285 143.431 237.334 143.217H238.458C238.416 143.6 238.292 143.943 238.083 144.244C237.874 144.545 237.595 144.782 237.245 144.955C236.897 145.127 236.489 145.213 236.021 145.213ZM242.391 145.213C241.835 145.213 241.35 145.086 240.935 144.831C240.521 144.576 240.199 144.22 239.97 143.761C239.74 143.303 239.626 142.768 239.626 142.155C239.626 141.54 239.74 141.001 239.97 140.541C240.199 140.08 240.521 139.722 240.935 139.467C241.35 139.212 241.835 139.085 242.391 139.085C242.947 139.085 243.432 139.212 243.847 139.467C244.261 139.722 244.583 140.08 244.812 140.541C245.042 141.001 245.156 141.54 245.156 142.155C245.156 142.768 245.042 143.303 244.812 143.761C244.583 144.22 244.261 144.576 243.847 144.831C243.432 145.086 242.947 145.213 242.391 145.213ZM242.395 144.244C242.755 144.244 243.054 144.149 243.291 143.958C243.528 143.768 243.703 143.514 243.816 143.198C243.932 142.881 243.99 142.532 243.99 142.151C243.99 141.773 243.932 141.425 243.816 141.108C243.703 140.789 243.528 140.533 243.291 140.34C243.054 140.147 242.755 140.05 242.395 140.05C242.032 140.05 241.731 140.147 241.491 140.34C241.254 140.533 241.078 140.789 240.962 141.108C240.849 141.425 240.792 141.773 240.792 142.151C240.792 142.532 240.849 142.881 240.962 143.198C241.078 143.514 241.254 143.768 241.491 143.958C241.731 144.149 242.032 144.244 242.395 144.244ZM246.645 145.094V139.162H247.753V140.127H247.827C247.95 139.8 248.152 139.546 248.433 139.363C248.714 139.177 249.05 139.085 249.441 139.085C249.837 139.085 250.17 139.177 250.437 139.363C250.708 139.548 250.907 139.803 251.036 140.127H251.098C251.239 139.811 251.465 139.558 251.774 139.37C252.083 139.18 252.451 139.085 252.878 139.085C253.416 139.085 253.855 139.253 254.195 139.591C254.537 139.928 254.709 140.436 254.709 141.116V145.094H253.554V141.224C253.554 140.823 253.444 140.532 253.226 140.351C253.007 140.171 252.745 140.081 252.442 140.081C252.066 140.081 251.774 140.197 251.565 140.429C251.356 140.658 251.252 140.953 251.252 141.313V145.094H250.101V141.151C250.101 140.829 250.001 140.57 249.8 140.375C249.599 140.179 249.338 140.081 249.016 140.081C248.797 140.081 248.595 140.139 248.41 140.255C248.227 140.368 248.079 140.526 247.966 140.73C247.855 140.933 247.8 141.169 247.8 141.437V145.094H246.645Z" fill="#425466"/>
<path d="M120.131 187.862H118.837C118.788 187.585 118.695 187.342 118.559 187.132C118.424 186.922 118.258 186.743 118.062 186.597C117.865 186.45 117.646 186.34 117.402 186.265C117.162 186.19 116.906 186.153 116.635 186.153C116.146 186.153 115.707 186.276 115.32 186.522C114.936 186.768 114.632 187.129 114.408 187.605C114.186 188.08 114.076 188.661 114.076 189.347C114.076 190.038 114.186 190.621 114.408 191.097C114.632 191.572 114.937 191.932 115.324 192.175C115.711 192.419 116.147 192.54 116.631 192.54C116.899 192.54 117.153 192.504 117.394 192.432C117.637 192.358 117.857 192.249 118.053 192.105C118.25 191.961 118.416 191.785 118.551 191.578C118.689 191.368 118.785 191.127 118.837 190.856L120.131 190.86C120.062 191.278 119.928 191.662 119.729 192.014C119.533 192.362 119.28 192.663 118.97 192.918C118.663 193.169 118.312 193.364 117.917 193.503C117.521 193.641 117.09 193.71 116.622 193.71C115.887 193.71 115.232 193.536 114.657 193.187C114.081 192.836 113.628 192.334 113.296 191.682C112.967 191.029 112.803 190.251 112.803 189.347C112.803 188.44 112.968 187.661 113.3 187.011C113.632 186.359 114.086 185.858 114.661 185.51C115.236 185.159 115.89 184.983 116.622 184.983C117.073 184.983 117.493 185.048 117.883 185.178C118.276 185.305 118.629 185.493 118.941 185.742C119.253 185.988 119.512 186.29 119.717 186.646C119.921 187 120.059 187.406 120.131 187.862ZM123.619 193.735C123.216 193.735 122.851 193.66 122.524 193.511C122.198 193.359 121.94 193.139 121.749 192.851C121.561 192.564 121.467 192.211 121.467 191.794C121.467 191.434 121.536 191.138 121.674 190.906C121.812 190.674 121.999 190.49 122.234 190.354C122.469 190.219 122.732 190.117 123.022 190.048C123.312 189.978 123.608 189.926 123.91 189.89C124.291 189.846 124.601 189.81 124.839 189.782C125.077 189.752 125.249 189.703 125.357 189.637C125.465 189.571 125.519 189.463 125.519 189.313V189.284C125.519 188.922 125.417 188.641 125.212 188.442C125.01 188.243 124.709 188.144 124.308 188.144C123.89 188.144 123.561 188.236 123.321 188.422C123.083 188.604 122.918 188.807 122.827 189.031L121.662 188.766C121.8 188.379 122.002 188.066 122.267 187.829C122.535 187.588 122.844 187.414 123.192 187.306C123.541 187.195 123.907 187.14 124.291 187.14C124.546 187.14 124.815 187.17 125.1 187.231C125.388 187.289 125.656 187.397 125.905 187.555C126.156 187.712 126.362 187.938 126.523 188.231C126.683 188.521 126.763 188.899 126.763 189.363V193.594H125.552V192.723H125.502C125.422 192.883 125.302 193.041 125.142 193.196C124.981 193.35 124.775 193.479 124.524 193.581C124.272 193.684 123.971 193.735 123.619 193.735ZM123.889 192.739C124.232 192.739 124.525 192.672 124.768 192.536C125.014 192.401 125.201 192.224 125.328 192.005C125.458 191.784 125.523 191.548 125.523 191.296V190.475C125.479 190.519 125.393 190.56 125.266 190.599C125.142 190.635 124.999 190.667 124.839 190.695C124.678 190.719 124.522 190.743 124.37 190.765C124.218 190.784 124.091 190.801 123.989 190.815C123.748 190.845 123.528 190.896 123.329 190.968C123.133 191.04 122.975 191.144 122.856 191.279C122.74 191.412 122.682 191.589 122.682 191.81C122.682 192.117 122.795 192.349 123.022 192.507C123.249 192.662 123.538 192.739 123.889 192.739ZM128.615 193.594V187.223H129.814V188.235H129.88C129.996 187.892 130.201 187.623 130.494 187.426C130.79 187.227 131.124 187.128 131.498 187.128C131.575 187.128 131.666 187.13 131.771 187.136C131.879 187.141 131.964 187.148 132.024 187.157V188.343C131.975 188.329 131.886 188.314 131.759 188.297C131.632 188.278 131.505 188.268 131.377 188.268C131.084 188.268 130.823 188.33 130.593 188.455C130.367 188.577 130.187 188.747 130.054 188.965C129.922 189.181 129.855 189.427 129.855 189.703V193.594H128.615ZM135.454 193.718C134.94 193.718 134.481 193.587 134.077 193.324C133.676 193.059 133.361 192.681 133.132 192.192C132.905 191.7 132.792 191.109 132.792 190.421C132.792 189.732 132.906 189.143 133.136 188.654C133.368 188.165 133.686 187.79 134.09 187.53C134.494 187.27 134.951 187.14 135.463 187.14C135.858 187.14 136.176 187.206 136.417 187.339C136.66 187.469 136.848 187.621 136.981 187.795C137.116 187.97 137.221 188.123 137.296 188.256H137.371V185.099H138.611V193.594H137.4V192.602H137.296C137.221 192.738 137.113 192.893 136.972 193.067C136.834 193.241 136.643 193.393 136.4 193.523C136.157 193.653 135.841 193.718 135.454 193.718ZM135.728 192.661C136.085 192.661 136.386 192.567 136.632 192.378C136.881 192.188 137.069 191.924 137.196 191.586C137.326 191.249 137.391 190.856 137.391 190.408C137.391 189.966 137.328 189.579 137.201 189.247C137.073 188.915 136.887 188.657 136.641 188.471C136.395 188.286 136.09 188.194 135.728 188.194C135.355 188.194 135.044 188.29 134.795 188.484C134.546 188.677 134.358 188.942 134.231 189.276C134.106 189.611 134.044 189.988 134.044 190.408C134.044 190.834 134.108 191.217 134.235 191.557C134.362 191.897 134.55 192.167 134.799 192.366C135.051 192.562 135.36 192.661 135.728 192.661ZM143.872 193.594V187.223H145.112V193.594H143.872ZM144.498 186.24C144.282 186.24 144.097 186.168 143.942 186.024C143.79 185.878 143.714 185.704 143.714 185.502C143.714 185.297 143.79 185.123 143.942 184.979C144.097 184.833 144.282 184.759 144.498 184.759C144.714 184.759 144.898 184.833 145.05 184.979C145.204 185.123 145.282 185.297 145.282 185.502C145.282 185.704 145.204 185.878 145.05 186.024C144.898 186.168 144.714 186.24 144.498 186.24ZM148.22 189.811V193.594H146.98V187.223H148.171V188.26H148.249C148.396 187.923 148.625 187.652 148.938 187.447C149.253 187.242 149.65 187.14 150.128 187.14C150.562 187.14 150.943 187.231 151.269 187.414C151.595 187.594 151.848 187.862 152.028 188.218C152.208 188.575 152.297 189.016 152.297 189.542V193.594H151.057V189.691C151.057 189.229 150.937 188.868 150.696 188.608C150.456 188.346 150.126 188.214 149.705 188.214C149.418 188.214 149.162 188.277 148.938 188.401C148.717 188.525 148.541 188.708 148.411 188.948C148.284 189.186 148.22 189.474 148.22 189.811ZM157.193 187.223V188.218H153.592V187.223H157.193ZM154.58 193.594V186.485C154.58 186.087 154.667 185.756 154.841 185.493C155.015 185.228 155.246 185.03 155.534 184.9C155.821 184.768 156.134 184.701 156.471 184.701C156.72 184.701 156.933 184.722 157.11 184.763C157.287 184.802 157.418 184.838 157.504 184.871L157.213 185.875C157.155 185.858 157.081 185.839 156.989 185.817C156.898 185.792 156.787 185.78 156.658 185.78C156.356 185.78 156.14 185.854 156.011 186.004C155.883 186.153 155.82 186.369 155.82 186.651V193.594H154.58ZM161.105 193.722C160.507 193.722 159.986 193.585 159.541 193.312C159.096 193.038 158.75 192.655 158.504 192.163C158.258 191.671 158.135 191.096 158.135 190.437C158.135 189.777 158.258 189.199 158.504 188.704C158.75 188.209 159.096 187.824 159.541 187.551C159.986 187.277 160.507 187.14 161.105 187.14C161.702 187.14 162.223 187.277 162.668 187.551C163.114 187.824 163.459 188.209 163.705 188.704C163.951 189.199 164.074 189.777 164.074 190.437C164.074 191.096 163.951 191.671 163.705 192.163C163.459 192.655 163.114 193.038 162.668 193.312C162.223 193.585 161.702 193.722 161.105 193.722ZM161.109 192.681C161.496 192.681 161.817 192.579 162.071 192.374C162.325 192.17 162.514 191.897 162.635 191.557C162.76 191.217 162.822 190.842 162.822 190.433C162.822 190.027 162.76 189.654 162.635 189.313C162.514 188.971 162.325 188.695 162.071 188.488C161.817 188.281 161.496 188.177 161.109 188.177C160.719 188.177 160.395 188.281 160.138 188.488C159.884 188.695 159.695 188.971 159.57 189.313C159.448 189.654 159.388 190.027 159.388 190.433C159.388 190.842 159.448 191.217 159.57 191.557C159.695 191.897 159.884 192.17 160.138 192.374C160.395 192.579 160.719 192.681 161.109 192.681ZM165.659 193.594V187.223H166.857V188.235H166.924C167.04 187.892 167.244 187.623 167.538 187.426C167.833 187.227 168.168 187.128 168.541 187.128C168.619 187.128 168.71 187.13 168.815 187.136C168.923 187.141 169.007 187.148 169.068 187.157V188.343C169.018 188.329 168.93 188.314 168.803 188.297C168.675 188.278 168.548 188.268 168.421 188.268C168.128 188.268 167.867 188.33 167.637 188.455C167.41 188.577 167.231 188.747 167.098 188.965C166.965 189.181 166.899 189.427 166.899 189.703V193.594H165.659ZM170.341 193.594V187.223H171.532V188.26H171.61C171.743 187.909 171.96 187.635 172.262 187.439C172.563 187.24 172.924 187.14 173.344 187.14C173.77 187.14 174.127 187.24 174.414 187.439C174.704 187.638 174.919 187.912 175.057 188.26H175.123C175.275 187.92 175.517 187.649 175.849 187.447C176.181 187.242 176.576 187.14 177.035 187.14C177.613 187.14 178.085 187.321 178.45 187.683C178.818 188.046 179.001 188.592 179.001 189.322V193.594H177.761V189.438C177.761 189.006 177.644 188.694 177.409 188.5C177.174 188.307 176.893 188.21 176.567 188.21C176.163 188.21 175.849 188.335 175.625 188.583C175.401 188.83 175.289 189.146 175.289 189.533V193.594H174.053V189.359C174.053 189.013 173.945 188.736 173.73 188.525C173.514 188.315 173.233 188.21 172.888 188.21C172.653 188.21 172.436 188.272 172.237 188.397C172.04 188.518 171.881 188.689 171.76 188.907C171.641 189.125 171.581 189.378 171.581 189.666V193.594H170.341ZM182.718 193.735C182.314 193.735 181.949 193.66 181.623 193.511C181.296 193.359 181.038 193.139 180.847 192.851C180.659 192.564 180.565 192.211 180.565 191.794C180.565 191.434 180.634 191.138 180.772 190.906C180.911 190.674 181.097 190.49 181.332 190.354C181.567 190.219 181.83 190.117 182.12 190.048C182.411 189.978 182.706 189.926 183.008 189.89C183.389 189.846 183.699 189.81 183.937 189.782C184.175 189.752 184.348 189.703 184.455 189.637C184.563 189.571 184.617 189.463 184.617 189.313V189.284C184.617 188.922 184.515 188.641 184.31 188.442C184.108 188.243 183.807 188.144 183.406 188.144C182.989 188.144 182.659 188.236 182.419 188.422C182.181 188.604 182.017 188.807 181.925 189.031L180.76 188.766C180.898 188.379 181.1 188.066 181.365 187.829C181.634 187.588 181.942 187.414 182.29 187.306C182.639 187.195 183.005 187.14 183.389 187.14C183.644 187.14 183.913 187.17 184.198 187.231C184.486 187.289 184.754 187.397 185.003 187.555C185.255 187.712 185.461 187.938 185.621 188.231C185.781 188.521 185.861 188.899 185.861 189.363V193.594H184.65V192.723H184.601C184.52 192.883 184.4 193.041 184.24 193.196C184.079 193.35 183.873 193.479 183.622 193.581C183.37 193.684 183.069 193.735 182.718 193.735ZM182.987 192.739C183.33 192.739 183.623 192.672 183.866 192.536C184.113 192.401 184.299 192.224 184.426 192.005C184.556 191.784 184.621 191.548 184.621 191.296V190.475C184.577 190.519 184.491 190.56 184.364 190.599C184.24 190.635 184.097 190.667 183.937 190.695C183.777 190.719 183.62 190.743 183.468 190.765C183.316 190.784 183.189 190.801 183.087 190.815C182.846 190.845 182.626 190.896 182.427 190.968C182.231 191.04 182.073 191.144 181.954 191.279C181.838 191.412 181.78 191.589 181.78 191.81C181.78 192.117 181.894 192.349 182.12 192.507C182.347 192.662 182.636 192.739 182.987 192.739ZM190.687 187.223V188.218H187.207V187.223H190.687ZM188.14 185.697H189.381V191.723C189.381 191.964 189.417 192.145 189.488 192.267C189.56 192.385 189.653 192.467 189.766 192.511C189.882 192.553 190.008 192.573 190.144 192.573C190.243 192.573 190.33 192.567 190.405 192.553C190.48 192.539 190.538 192.528 190.579 192.52L190.803 193.544C190.731 193.572 190.629 193.599 190.496 193.627C190.364 193.657 190.198 193.674 189.999 193.677C189.672 193.682 189.368 193.624 189.086 193.503C188.804 193.381 188.576 193.193 188.402 192.938C188.228 192.684 188.14 192.365 188.14 191.98V185.697ZM192.259 193.594V187.223H193.499V193.594H192.259ZM192.885 186.24C192.67 186.24 192.484 186.168 192.329 186.024C192.177 185.878 192.101 185.704 192.101 185.502C192.101 185.297 192.177 185.123 192.329 184.979C192.484 184.833 192.67 184.759 192.885 184.759C193.101 184.759 193.285 184.833 193.437 184.979C193.592 185.123 193.669 185.297 193.669 185.502C193.669 185.704 193.592 185.878 193.437 186.024C193.285 186.168 193.101 186.24 192.885 186.24ZM198.051 193.722C197.454 193.722 196.932 193.585 196.487 193.312C196.042 193.038 195.696 192.655 195.45 192.163C195.204 191.671 195.081 191.096 195.081 190.437C195.081 189.777 195.204 189.199 195.45 188.704C195.696 188.209 196.042 187.824 196.487 187.551C196.932 187.277 197.454 187.14 198.051 187.14C198.648 187.14 199.169 187.277 199.615 187.551C200.06 187.824 200.405 188.209 200.651 188.704C200.898 189.199 201.021 189.777 201.021 190.437C201.021 191.096 200.898 191.671 200.651 192.163C200.405 192.655 200.06 193.038 199.615 193.312C199.169 193.585 198.648 193.722 198.051 193.722ZM198.055 192.681C198.442 192.681 198.763 192.579 199.017 192.374C199.272 192.17 199.46 191.897 199.581 191.557C199.706 191.217 199.768 190.842 199.768 190.433C199.768 190.027 199.706 189.654 199.581 189.313C199.46 188.971 199.272 188.695 199.017 188.488C198.763 188.281 198.442 188.177 198.055 188.177C197.665 188.177 197.342 188.281 197.085 188.488C196.83 188.695 196.641 188.971 196.516 189.313C196.395 189.654 196.334 190.027 196.334 190.433C196.334 190.842 196.395 191.217 196.516 191.557C196.641 191.897 196.83 192.17 197.085 192.374C197.342 192.579 197.665 192.681 198.055 192.681ZM203.845 189.811V193.594H202.605V187.223H203.795V188.26H203.874C204.021 187.923 204.25 187.652 204.563 187.447C204.878 187.242 205.275 187.14 205.753 187.14C206.187 187.14 206.567 187.231 206.894 187.414C207.22 187.594 207.473 187.862 207.653 188.218C207.832 188.575 207.922 189.016 207.922 189.542V193.594H206.682V189.691C206.682 189.229 206.562 188.868 206.321 188.608C206.081 188.346 205.75 188.214 205.33 188.214C205.042 188.214 204.787 188.277 204.563 188.401C204.341 188.525 204.166 188.708 204.036 188.948C203.909 189.186 203.845 189.474 203.845 189.811Z" fill="#0A2540"/>
<mask id="path-9-inside-1_4003_1132" fill="white">
<path d="M112.143 209.594C112.143 206.28 114.829 203.594 118.143 203.594H490.143C493.457 203.594 496.143 206.28 496.143 209.594V242.594H112.143V209.594Z"/>
</mask>
<path d="M112.143 209.594C112.143 206.28 114.829 203.594 118.143 203.594H490.143C493.457 203.594 496.143 206.28 496.143 209.594V242.594H112.143V209.594Z" fill="white"/>
<path d="M111.143 209.594C111.143 205.728 114.277 202.594 118.143 202.594H490.143C494.009 202.594 497.143 205.728 497.143 209.594H495.143C495.143 206.832 492.904 204.594 490.143 204.594H118.143C115.382 204.594 113.143 206.832 113.143 209.594H111.143ZM496.143 242.594H112.143H496.143ZM111.143 242.594V209.594C111.143 205.728 114.277 202.594 118.143 202.594V204.594C115.382 204.594 113.143 206.832 113.143 209.594V242.594H111.143ZM490.143 202.594C494.009 202.594 497.143 205.728 497.143 209.594V242.594H495.143V209.594C495.143 206.832 492.904 204.594 490.143 204.594V202.594Z" fill="#E6EBF1" mask="url(#path-9-inside-1_4003_1132)"/>
<path d="M128.969 219.048V227.094H127.752V220.266H127.704L125.779 221.523V220.36L127.787 219.048H128.969ZM131.346 227.094V226.214L134.068 223.393C134.359 223.087 134.598 222.818 134.787 222.588C134.978 222.355 135.121 222.133 135.215 221.924C135.31 221.714 135.357 221.492 135.357 221.256C135.357 220.989 135.294 220.758 135.168 220.565C135.042 220.368 134.871 220.218 134.653 220.113C134.436 220.006 134.191 219.952 133.919 219.952C133.631 219.952 133.379 220.011 133.165 220.129C132.95 220.246 132.785 220.413 132.67 220.628C132.554 220.842 132.497 221.094 132.497 221.382H131.338C131.338 220.892 131.45 220.464 131.676 220.097C131.901 219.731 132.21 219.446 132.603 219.245C132.996 219.04 133.442 218.938 133.942 218.938C134.448 218.938 134.893 219.039 135.278 219.241C135.666 219.44 135.968 219.712 136.186 220.058C136.403 220.401 136.512 220.789 136.512 221.221C136.512 221.519 136.455 221.811 136.343 222.097C136.233 222.382 136.04 222.7 135.765 223.051C135.49 223.4 135.108 223.823 134.618 224.32L133.019 225.994V226.053H136.641V227.094H131.346ZM141.131 227.204C140.592 227.204 140.11 227.111 139.685 226.925C139.264 226.739 138.93 226.481 138.684 226.151C138.44 225.818 138.309 225.433 138.291 224.996H139.524C139.54 225.234 139.62 225.441 139.764 225.617C139.911 225.79 140.102 225.923 140.338 226.017C140.573 226.112 140.835 226.159 141.123 226.159C141.44 226.159 141.72 226.104 141.964 225.994C142.21 225.884 142.403 225.731 142.541 225.534C142.68 225.335 142.75 225.106 142.75 224.847C142.75 224.577 142.68 224.34 142.541 224.136C142.405 223.929 142.205 223.766 141.94 223.649C141.678 223.531 141.362 223.472 140.99 223.472H140.31V222.482H140.99C141.288 222.482 141.55 222.428 141.775 222.321C142.003 222.213 142.181 222.064 142.31 221.873C142.438 221.679 142.502 221.453 142.502 221.193C142.502 220.944 142.446 220.728 142.333 220.545C142.223 220.359 142.066 220.214 141.862 220.109C141.66 220.004 141.422 219.952 141.147 219.952C140.885 219.952 140.64 220 140.412 220.097C140.187 220.191 140.004 220.328 139.862 220.506C139.721 220.681 139.645 220.892 139.634 221.138H138.46C138.473 220.703 138.601 220.321 138.845 219.991C139.091 219.661 139.416 219.403 139.819 219.217C140.222 219.031 140.67 218.938 141.163 218.938C141.678 218.938 142.124 219.039 142.498 219.241C142.875 219.44 143.166 219.706 143.37 220.038C143.577 220.371 143.679 220.735 143.677 221.13C143.679 221.581 143.554 221.963 143.3 222.277C143.048 222.592 142.713 222.803 142.294 222.91V222.973C142.828 223.054 143.242 223.266 143.535 223.609C143.831 223.952 143.978 224.378 143.975 224.886C143.978 225.329 143.855 225.725 143.606 226.076C143.36 226.427 143.023 226.704 142.596 226.905C142.17 227.104 141.681 227.204 141.131 227.204ZM145.491 225.522V224.54L148.968 219.048H149.742V220.494H149.251L146.764 224.43V224.493H151.529V225.522H145.491ZM149.306 227.094V225.224L149.314 224.776V219.048H150.465V227.094H149.306ZM159.279 219.048V227.094H158.061V220.266H158.014L156.089 221.523V220.36L158.096 219.048H159.279ZM161.655 227.094V226.214L164.377 223.393C164.668 223.087 164.908 222.818 165.096 222.588C165.287 222.355 165.43 222.133 165.524 221.924C165.619 221.714 165.666 221.492 165.666 221.256C165.666 220.989 165.603 220.758 165.477 220.565C165.352 220.368 165.18 220.218 164.963 220.113C164.745 220.006 164.5 219.952 164.228 219.952C163.94 219.952 163.688 220.011 163.474 220.129C163.259 220.246 163.094 220.413 162.979 220.628C162.864 220.842 162.806 221.094 162.806 221.382H161.647C161.647 220.892 161.76 220.464 161.985 220.097C162.21 219.731 162.519 219.446 162.912 219.245C163.305 219.04 163.751 218.938 164.252 218.938C164.757 218.938 165.202 219.039 165.587 219.241C165.975 219.44 166.277 219.712 166.495 220.058C166.712 220.401 166.821 220.789 166.821 221.221C166.821 221.519 166.764 221.811 166.652 222.097C166.542 222.382 166.349 222.7 166.074 223.051C165.799 223.4 165.417 223.823 164.927 224.32L163.328 225.994V226.053H166.95V227.094H161.655ZM171.44 227.204C170.901 227.204 170.419 227.111 169.995 226.925C169.573 226.739 169.239 226.481 168.993 226.151C168.749 225.818 168.618 225.433 168.6 224.996H169.834C169.849 225.234 169.929 225.441 170.073 225.617C170.22 225.79 170.411 225.923 170.647 226.017C170.882 226.112 171.144 226.159 171.432 226.159C171.749 226.159 172.03 226.104 172.273 225.994C172.519 225.884 172.712 225.731 172.851 225.534C172.989 225.335 173.059 225.106 173.059 224.847C173.059 224.577 172.989 224.34 172.851 224.136C172.714 223.929 172.514 223.766 172.25 223.649C171.988 223.531 171.671 223.472 171.299 223.472H170.619V222.482H171.299C171.597 222.482 171.859 222.428 172.085 222.321C172.312 222.213 172.49 222.064 172.619 221.873C172.747 221.679 172.811 221.453 172.811 221.193C172.811 220.944 172.755 220.728 172.642 220.545C172.532 220.359 172.375 220.214 172.171 220.109C171.969 220.004 171.731 219.952 171.456 219.952C171.194 219.952 170.949 220 170.721 220.097C170.496 220.191 170.313 220.328 170.171 220.506C170.03 220.681 169.954 220.892 169.944 221.138H168.769C168.782 220.703 168.91 220.321 169.154 219.991C169.4 219.661 169.725 219.403 170.128 219.217C170.531 219.031 170.979 218.938 171.472 218.938C171.988 218.938 172.433 219.039 172.807 219.241C173.185 219.44 173.475 219.706 173.679 220.038C173.886 220.371 173.989 220.735 173.986 221.13C173.989 221.581 173.863 221.963 173.609 222.277C173.357 222.592 173.022 222.803 172.603 222.91V222.973C173.137 223.054 173.551 223.266 173.844 223.609C174.14 223.952 174.287 224.378 174.284 224.886C174.287 225.329 174.164 225.725 173.915 226.076C173.669 226.427 173.332 226.704 172.906 226.905C172.479 227.104 171.99 227.204 171.44 227.204ZM175.8 225.522V224.54L179.277 219.048H180.051V220.494H179.56L177.073 224.43V224.493H181.839V225.522H175.8ZM179.615 227.094V225.224L179.623 224.776V219.048H180.774V227.094H179.615ZM189.588 219.048V227.094H188.37V220.266H188.323L186.398 221.523V220.36L188.405 219.048H189.588ZM191.964 227.094V226.214L194.686 223.393C194.977 223.087 195.217 222.818 195.405 222.588C195.597 222.355 195.739 222.133 195.834 221.924C195.928 221.714 195.975 221.492 195.975 221.256C195.975 220.989 195.912 220.758 195.786 220.565C195.661 220.368 195.489 220.218 195.272 220.113C195.054 220.006 194.81 219.952 194.537 219.952C194.249 219.952 193.998 220.011 193.783 220.129C193.568 220.246 193.403 220.413 193.288 220.628C193.173 220.842 193.115 221.094 193.115 221.382H191.956C191.956 220.892 192.069 220.464 192.294 220.097C192.519 219.731 192.828 219.446 193.221 219.245C193.614 219.04 194.06 218.938 194.561 218.938C195.066 218.938 195.511 219.039 195.896 219.241C196.284 219.44 196.586 219.712 196.804 220.058C197.021 220.401 197.13 220.789 197.13 221.221C197.13 221.519 197.074 221.811 196.961 222.097C196.851 222.382 196.659 222.7 196.384 223.051C196.109 223.4 195.726 223.823 195.236 224.32L193.638 225.994V226.053H197.26V227.094H191.964ZM201.749 227.204C201.21 227.204 200.728 227.111 200.304 226.925C199.882 226.739 199.548 226.481 199.302 226.151C199.058 225.818 198.927 225.433 198.909 224.996H200.143C200.158 225.234 200.238 225.441 200.382 225.617C200.529 225.79 200.72 225.923 200.956 226.017C201.192 226.112 201.453 226.159 201.742 226.159C202.058 226.159 202.339 226.104 202.582 225.994C202.828 225.884 203.021 225.731 203.16 225.534C203.299 225.335 203.368 225.106 203.368 224.847C203.368 224.577 203.299 224.34 203.16 224.136C203.024 223.929 202.823 223.766 202.559 223.649C202.297 223.531 201.98 223.472 201.608 223.472H200.928V222.482H201.608C201.907 222.482 202.168 222.428 202.394 222.321C202.622 222.213 202.8 222.064 202.928 221.873C203.056 221.679 203.12 221.453 203.12 221.193C203.12 220.944 203.064 220.728 202.952 220.545C202.842 220.359 202.684 220.214 202.48 220.109C202.278 220.004 202.04 219.952 201.765 219.952C201.503 219.952 201.258 220 201.031 220.097C200.805 220.191 200.622 220.328 200.481 220.506C200.339 220.681 200.263 220.892 200.253 221.138H199.078C199.091 220.703 199.22 220.321 199.463 219.991C199.709 219.661 200.034 219.403 200.437 219.217C200.841 219.031 201.288 218.938 201.781 218.938C202.297 218.938 202.742 219.039 203.117 219.241C203.494 219.44 203.784 219.706 203.989 220.038C204.196 220.371 204.298 220.735 204.295 221.13C204.298 221.581 204.172 221.963 203.918 222.277C203.667 222.592 203.331 222.803 202.912 222.91V222.973C203.447 223.054 203.86 223.266 204.154 223.609C204.45 223.952 204.596 224.378 204.594 224.886C204.596 225.329 204.473 225.725 204.224 226.076C203.978 226.427 203.642 226.704 203.215 226.905C202.788 227.104 202.299 227.204 201.749 227.204ZM206.11 225.522V224.54L209.586 219.048H210.36V220.494H209.869L207.382 224.43V224.493H212.148V225.522H206.11ZM209.924 227.094V225.224L209.932 224.776V219.048H211.083V227.094H209.924ZM219.897 219.048V227.094H218.679V220.266H218.632L216.707 221.523V220.36L218.714 219.048H219.897ZM222.273 227.094V226.214L224.996 223.393C225.286 223.087 225.526 222.818 225.714 222.588C225.906 222.355 226.048 222.133 226.143 221.924C226.237 221.714 226.284 221.492 226.284 221.256C226.284 220.989 226.221 220.758 226.096 220.565C225.97 220.368 225.798 220.218 225.581 220.113C225.364 220.006 225.119 219.952 224.846 219.952C224.558 219.952 224.307 220.011 224.092 220.129C223.877 220.246 223.712 220.413 223.597 220.628C223.482 220.842 223.424 221.094 223.424 221.382H222.265C222.265 220.892 222.378 220.464 222.603 220.097C222.828 219.731 223.137 219.446 223.53 219.245C223.923 219.04 224.37 218.938 224.87 218.938C225.375 218.938 225.821 219.039 226.206 219.241C226.593 219.44 226.896 219.712 227.113 220.058C227.33 220.401 227.439 220.789 227.439 221.221C227.439 221.519 227.383 221.811 227.27 222.097C227.16 222.382 226.968 222.7 226.693 223.051C226.418 223.4 226.035 223.823 225.546 224.32L223.947 225.994V226.053H227.569V227.094H222.273ZM232.059 227.204C231.519 227.204 231.037 227.111 230.613 226.925C230.191 226.739 229.857 226.481 229.611 226.151C229.368 225.818 229.237 225.433 229.218 224.996H230.452C230.468 225.234 230.547 225.441 230.691 225.617C230.838 225.79 231.029 225.923 231.265 226.017C231.501 226.112 231.763 226.159 232.051 226.159C232.368 226.159 232.648 226.104 232.891 225.994C233.138 225.884 233.33 225.731 233.469 225.534C233.608 225.335 233.677 225.106 233.677 224.847C233.677 224.577 233.608 224.34 233.469 224.136C233.333 223.929 233.132 223.766 232.868 223.649C232.606 223.531 232.289 223.472 231.917 223.472H231.238V222.482H231.917C232.216 222.482 232.478 222.428 232.703 222.321C232.931 222.213 233.109 222.064 233.237 221.873C233.365 221.679 233.43 221.453 233.43 221.193C233.43 220.944 233.373 220.728 233.261 220.545C233.151 220.359 232.994 220.214 232.789 220.109C232.588 220.004 232.349 219.952 232.074 219.952C231.812 219.952 231.568 220 231.34 220.097C231.114 220.191 230.931 220.328 230.79 220.506C230.648 220.681 230.572 220.892 230.562 221.138H229.387C229.4 220.703 229.529 220.321 229.772 219.991C230.018 219.661 230.343 219.403 230.746 219.217C231.15 219.031 231.598 218.938 232.09 218.938C232.606 218.938 233.051 219.039 233.426 219.241C233.803 219.44 234.093 219.706 234.298 220.038C234.505 220.371 234.607 220.735 234.604 221.13C234.607 221.581 234.481 221.963 234.227 222.277C233.976 222.592 233.64 222.803 233.221 222.91V222.973C233.756 223.054 234.169 223.266 234.463 223.609C234.759 223.952 234.905 224.378 234.903 224.886C234.905 225.329 234.782 225.725 234.533 226.076C234.287 226.427 233.951 226.704 233.524 226.905C233.097 227.104 232.609 227.204 232.059 227.204ZM236.419 225.522V224.54L239.895 219.048H240.669V220.494H240.178L237.692 224.43V224.493H242.457V225.522H236.419ZM240.233 227.094V225.224L240.241 224.776V219.048H241.392V227.094H240.233Z" fill="#425466"/>
<path d="M396.893 215.844H377.393C376.288 215.844 375.393 216.739 375.393 217.844V229.344C375.393 230.448 376.288 231.344 377.393 231.344H396.893C397.998 231.344 398.893 230.448 398.893 229.344V217.844C398.893 216.739 397.998 215.844 396.893 215.844Z" fill="white" stroke="black" stroke-opacity="0.2" stroke-width="0.5"/>
<path d="M377.933 221.504C377.369 221.202 376.767 220.977 376.143 220.834L376.173 220.704H378.903C379.283 220.714 379.583 220.834 379.673 221.224L380.273 224.064L380.453 224.914L382.123 220.714H383.923L381.243 226.864H379.443L377.943 221.494L377.933 221.504ZM385.243 226.874H383.543L384.603 220.704H386.303L385.243 226.874ZM391.413 220.854L391.183 222.194L391.023 222.124C390.723 222.004 390.313 221.874 389.753 221.884C389.083 221.884 388.783 222.154 388.773 222.424C388.773 222.704 389.143 222.894 389.733 223.184C390.713 223.624 391.173 224.164 391.163 224.864C391.153 226.144 389.993 226.964 388.203 226.964C387.443 226.964 386.703 226.814 386.303 226.644L386.543 225.254L386.773 225.354C387.323 225.584 387.683 225.684 388.373 225.684C388.853 225.684 389.373 225.484 389.383 225.084C389.383 224.814 389.163 224.614 388.503 224.314C387.863 224.014 387.003 223.514 387.013 222.634C387.013 221.434 388.213 220.594 389.883 220.594C390.543 220.594 391.083 220.734 391.413 220.854ZM393.673 224.694H395.083L394.693 222.904L394.573 222.374L394.353 222.974L393.673 224.694ZM395.773 220.704L397.143 226.874H395.563L395.363 225.954H393.183L392.823 226.874H391.043L393.563 221.214C393.743 220.814 394.053 220.714 394.463 220.714H395.763L395.773 220.704Z" fill="#1434CB"/>
<path d="M425.143 215.594H405.143C404.038 215.594 403.143 216.489 403.143 217.594V229.594C403.143 230.698 404.038 231.594 405.143 231.594H425.143C426.248 231.594 427.143 230.698 427.143 229.594V217.594C427.143 216.489 426.248 215.594 425.143 215.594Z" fill="#252525"/>
<path d="M412.143 228.594C414.904 228.594 417.143 226.355 417.143 223.594C417.143 220.832 414.904 218.594 412.143 218.594C409.382 218.594 407.143 220.832 407.143 223.594C407.143 226.355 409.382 228.594 412.143 228.594Z" fill="#EB001B"/>
<path d="M418.143 228.594C420.904 228.594 423.143 226.355 423.143 223.594C423.143 220.832 420.904 218.594 418.143 218.594C415.382 218.594 413.143 220.832 413.143 223.594C413.143 226.355 415.382 228.594 418.143 228.594Z" fill="#F79E1B"/>
<path fill-rule="evenodd" clip-rule="evenodd" d="M415.143 219.594C415.764 220.059 416.268 220.663 416.615 221.358C416.962 222.052 417.143 222.818 417.143 223.594C417.143 224.37 416.962 225.136 416.615 225.83C416.268 226.524 415.764 227.128 415.143 227.594C414.522 227.128 414.018 226.524 413.671 225.83C413.324 225.136 413.143 224.37 413.143 223.594C413.143 222.818 413.324 222.052 413.671 221.358C414.018 220.663 414.522 220.059 415.143 219.594Z" fill="#FF5F00"/>
<path d="M453.143 215.594H433.143C432.038 215.594 431.143 216.489 431.143 217.594V229.594C431.143 230.698 432.038 231.594 433.143 231.594H453.143C454.248 231.594 455.143 230.698 455.143 229.594V217.594C455.143 216.489 454.248 215.594 453.143 215.594Z" fill="#016FD0"/>
<path fill-rule="evenodd" clip-rule="evenodd" d="M444.903 228.993V223.293H455.053V224.873L453.883 226.123L455.053 227.383V228.993H453.183L452.183 227.893L451.203 228.993H444.903Z" fill="#FFFFFE"/>
<path fill-rule="evenodd" clip-rule="evenodd" d="M445.583 228.364V223.914H449.353V224.934H446.803V225.634H449.303V226.634H446.803V227.334H449.353V228.364H445.583Z" fill="#016FD0"/>
<path fill-rule="evenodd" clip-rule="evenodd" d="M449.343 228.364L451.423 226.134L449.343 223.914H450.953L452.233 225.324L453.513 223.914H455.053V223.954L453.013 226.134L455.053 228.304V228.364H453.493L452.193 226.934L450.913 228.364H449.343Z" fill="#016FD0"/>
<path fill-rule="evenodd" clip-rule="evenodd" d="M445.383 218.225H447.823L448.683 220.175V218.225H451.703L452.223 219.685L452.753 218.225H455.053V223.925H442.873L445.383 218.225Z" fill="#FFFFFE"/>
<path fill-rule="evenodd" clip-rule="evenodd" d="M445.843 218.844L443.873 223.294H445.223L445.593 222.394H447.613L447.983 223.294H449.373L447.403 218.844H445.843ZM446.013 221.404L446.613 219.984L447.193 221.404H446.013Z" fill="#016FD0"/>
<path fill-rule="evenodd" clip-rule="evenodd" d="M449.353 223.294V218.844H451.253L452.243 221.594L453.233 218.854H455.063V223.294H453.883V220.254L452.763 223.294H451.683L450.553 220.234V223.294H449.353Z" fill="#016FD0"/>
<path d="M463.843 215.593H469.843C470.031 215.584 470.219 215.62 470.389 215.7C470.56 215.779 470.709 215.898 470.823 216.048C470.937 216.198 471.013 216.373 471.045 216.558C471.076 216.744 471.062 216.934 471.003 217.113L468.213 229.113C468.101 229.53 467.858 229.899 467.519 230.165C467.18 230.432 466.764 230.582 466.333 230.593H460.333C460.146 230.604 459.959 230.57 459.787 230.493C459.616 230.416 459.465 230.299 459.349 230.152C459.232 230.005 459.152 229.832 459.117 229.648C459.081 229.464 459.09 229.273 459.143 229.093L461.933 217.093C462.043 216.668 462.289 216.291 462.635 216.02C462.98 215.749 463.404 215.599 463.843 215.593Z" fill="#E21836"/>
<path d="M469.333 215.594H476.223C477.063 215.594 476.683 216.274 476.483 217.114L473.693 229.114C473.503 229.944 473.563 230.624 472.693 230.624H465.833C465.645 230.631 465.457 230.593 465.287 230.513C465.116 230.432 464.968 230.312 464.854 230.162C464.74 230.011 464.664 229.836 464.633 229.65C464.601 229.464 464.615 229.273 464.673 229.094L467.463 217.094C467.571 216.675 467.812 216.303 468.149 216.033C468.486 215.762 468.901 215.608 469.333 215.594Z" fill="#00447C"/>
<path d="M475.953 215.593H481.953C482.144 215.579 482.335 215.611 482.51 215.688C482.684 215.765 482.838 215.884 482.955 216.035C483.073 216.185 483.152 216.362 483.185 216.55C483.217 216.739 483.203 216.932 483.143 217.113L480.353 229.113C480.24 229.534 479.992 229.907 479.647 230.174C479.302 230.441 478.88 230.589 478.443 230.593H472.443C472.257 230.602 472.07 230.565 471.901 230.487C471.731 230.408 471.583 230.289 471.469 230.141C471.355 229.993 471.279 229.819 471.246 229.635C471.214 229.451 471.227 229.261 471.283 229.083L474.073 217.083C474.184 216.665 474.426 216.294 474.765 216.025C475.104 215.756 475.521 215.605 475.953 215.593Z" fill="#007B84"/>
<path d="M465.403 219.434C465.12 219.455 464.836 219.455 464.553 219.434C464.553 219.544 464.113 221.434 464.113 221.434C464.085 221.748 463.951 222.045 463.733 222.274C463.612 222.381 463.455 222.439 463.293 222.434C463.236 222.439 463.179 222.433 463.125 222.416C463.07 222.398 463.02 222.37 462.977 222.332C462.934 222.295 462.899 222.249 462.874 222.198C462.85 222.146 462.836 222.091 462.833 222.034V221.964L462.913 221.434C462.913 221.434 463.353 219.694 463.433 219.434C463.101 219.471 462.765 219.471 462.433 219.434C462.435 219.477 462.435 219.52 462.433 219.564L461.993 221.564V221.734L461.923 222.274C461.906 222.38 461.909 222.489 461.933 222.594C462.133 222.954 462.713 223.004 463.043 223.004C463.423 223.03 463.803 222.954 464.143 222.784C464.326 222.66 464.481 222.501 464.6 222.315C464.719 222.129 464.798 221.921 464.833 221.704L464.883 221.514C464.883 221.514 465.333 219.694 465.413 219.454L465.403 219.434ZM466.933 220.894C466.766 220.9 466.603 220.94 466.453 221.014L466.263 221.114L466.323 220.914C465.943 220.994 465.853 221.004 465.513 221.054C465.462 221.475 465.385 221.892 465.283 222.304L465.103 223.034C465.363 223.019 465.623 223.019 465.883 223.034L466.013 222.374C466.013 222.184 466.143 221.754 466.183 221.604C466.255 221.568 466.333 221.544 466.413 221.534C466.583 221.534 466.563 221.684 466.563 221.744C466.563 221.804 466.483 222.184 466.423 222.464V222.644C466.423 222.784 466.353 222.914 466.323 223.054C466.576 223.039 466.83 223.039 467.083 223.054C467.143 222.684 467.143 222.594 467.243 222.134L467.293 221.924C467.383 221.514 467.433 221.304 467.363 221.134C467.326 221.053 467.264 220.987 467.187 220.944C467.11 220.901 467.021 220.883 466.933 220.894ZM468.643 221.324L468.223 221.404L467.803 221.464L467.743 221.854C467.716 222.035 467.679 222.216 467.633 222.394C467.633 222.564 467.573 222.624 467.553 222.694C467.511 222.787 467.478 222.884 467.453 222.984H468.293C468.293 222.834 468.293 222.784 468.293 222.714C468.293 222.644 468.293 222.514 468.403 222.214C468.403 222.064 468.473 221.924 468.503 221.784C468.533 221.644 468.573 221.494 468.603 221.354L468.643 221.324ZM468.643 220.744C468.535 220.696 468.416 220.678 468.299 220.69C468.181 220.702 468.069 220.745 467.973 220.814C467.773 220.954 467.743 221.144 467.913 221.244C468.021 221.291 468.14 221.31 468.257 221.297C468.375 221.285 468.487 221.242 468.583 221.174C468.793 221.034 468.813 220.844 468.653 220.744H468.643ZM469.643 223.064C469.827 223.077 470.011 223.051 470.183 222.987C470.356 222.923 470.512 222.823 470.643 222.694C470.801 222.483 470.914 222.241 470.973 221.984C471.022 221.851 471.04 221.71 471.026 221.569C471.013 221.429 470.967 221.294 470.893 221.174C470.796 221.076 470.678 221.002 470.548 220.956C470.418 220.911 470.28 220.897 470.143 220.914C469.815 220.898 469.493 221.009 469.243 221.224C469.031 221.435 468.891 221.708 468.843 222.004C468.773 222.284 468.703 222.804 469.173 223.004C469.335 223.055 469.504 223.075 469.673 223.064H469.643ZM469.643 222.064C469.723 221.714 469.813 221.424 470.053 221.424C470.293 221.424 470.253 221.644 470.173 221.994C470.138 222.165 470.077 222.33 469.993 222.484C469.971 222.524 469.94 222.559 469.901 222.585C469.863 222.611 469.819 222.628 469.773 222.634C469.773 222.634 469.593 222.634 469.593 222.414C469.596 222.281 469.616 222.15 469.653 222.024L469.643 222.064ZM471.823 223.064L471.953 222.404C471.953 222.214 472.083 221.784 472.123 221.634C472.195 221.597 472.273 221.573 472.353 221.564C472.523 221.564 472.503 221.714 472.493 221.774C472.464 222.016 472.42 222.256 472.363 222.494V222.674C472.363 222.814 472.293 222.944 472.263 223.084C472.516 223.069 472.77 223.069 473.023 223.084C473.073 222.774 473.093 222.684 473.193 222.224V222.014C473.293 221.604 473.343 221.394 473.273 221.224C473.236 221.143 473.174 221.077 473.097 221.034C473.02 220.991 472.931 220.973 472.843 220.984C472.676 220.988 472.512 221.029 472.363 221.104L472.173 221.214L472.223 221.004C471.843 221.084 471.753 221.094 471.403 221.144C471.352 221.565 471.275 221.982 471.173 222.394C471.113 222.634 471.053 222.884 471.003 223.124C471.263 223.109 471.523 223.109 471.783 223.124L471.823 223.064ZM474.413 223.064L474.563 222.314C474.563 222.314 474.683 221.844 474.683 221.824L474.753 221.764H474.813C475.325 221.819 475.841 221.706 476.283 221.444C476.587 221.212 476.797 220.878 476.873 220.504C476.888 220.397 476.888 220.29 476.873 220.184C476.881 220.034 476.839 219.886 476.753 219.764C476.533 219.454 476.093 219.444 475.583 219.444H475.333C474.683 219.444 474.423 219.444 474.333 219.444C474.243 219.444 474.333 219.574 474.333 219.574L474.143 220.594C474.143 220.594 473.593 222.894 473.563 223.004C474.143 223.024 474.323 223.024 474.423 223.034L474.413 223.064ZM474.843 221.144L475.143 220.044V219.944H475.243H475.763C475.865 219.988 475.946 220.07 475.989 220.172C476.032 220.275 476.033 220.39 475.993 220.494C475.969 220.608 475.92 220.716 475.849 220.81C475.778 220.903 475.687 220.98 475.583 221.034C475.402 221.105 475.207 221.136 475.013 221.124H474.843V221.144ZM476.393 222.074C476.323 222.354 476.253 222.864 476.713 223.074C476.852 223.119 477.001 223.126 477.143 223.094C477.292 223.076 477.431 223.013 477.543 222.914V223.034H478.343C478.403 222.714 478.453 222.414 478.593 221.814C478.653 221.534 478.723 221.244 478.793 220.964L477.953 221.094V221.184C477.894 221.083 477.802 221.006 477.693 220.964C477.535 220.944 477.374 220.963 477.224 221.019C477.075 221.075 476.94 221.165 476.833 221.284C476.624 221.493 476.484 221.762 476.433 222.054L476.393 222.074ZM477.183 222.074C477.263 221.734 477.353 221.434 477.593 221.434C477.833 221.434 477.823 221.574 477.803 221.814C477.807 221.877 477.807 221.94 477.803 222.004C477.782 222.108 477.756 222.212 477.723 222.314C477.706 222.378 477.679 222.438 477.643 222.494C477.605 222.536 477.559 222.57 477.507 222.594C477.456 222.618 477.4 222.632 477.343 222.634C477.343 222.634 477.143 222.594 477.143 222.404C477.146 222.289 477.163 222.174 477.193 222.064L477.183 222.074ZM481.303 220.934C480.933 221.004 480.863 221.024 480.523 221.064C480.263 221.644 480.273 221.524 480.063 221.984V221.924L480.013 220.924C479.623 220.994 479.613 221.014 479.253 221.054C479.253 221.284 479.253 221.234 479.333 221.594C479.333 221.774 479.333 221.954 479.403 222.134C479.473 222.314 479.453 222.574 479.493 223.014C479.253 223.424 479.193 223.574 478.963 223.924L478.803 224.184C478.788 224.208 478.768 224.229 478.743 224.244H478.543L478.403 224.694H478.873C478.981 224.7 479.088 224.675 479.182 224.622C479.276 224.569 479.353 224.489 479.403 224.394L479.703 223.894C479.903 223.474 481.403 220.894 481.403 220.894L481.303 220.934ZM476.393 226.864H476.193L476.923 224.444H477.143L477.223 224.194V224.474C477.223 224.644 477.343 224.794 477.703 224.774H478.143L478.283 224.304H478.143C478.053 224.304 478.013 224.304 478.023 224.234V223.944H477.243C477.003 223.944 476.243 223.944 476.123 224.004C475.991 224.048 475.866 224.112 475.753 224.194L475.823 223.944H475.143L474.993 224.434L474.253 226.884H474.103L473.963 227.354H475.373V227.504H476.063L476.113 227.354H476.303L476.463 226.854L476.393 226.864ZM475.813 224.934C475.7 224.969 475.59 225.012 475.483 225.064L475.673 224.444H476.233L476.143 224.884C476.047 224.876 475.95 224.876 475.853 224.884L475.813 224.934ZM475.813 225.814H475.513C475.403 225.814 475.193 225.964 475.193 225.964L475.383 225.314H475.943L475.813 225.764V225.814ZM475.493 226.814H474.933L475.093 226.274H475.653L475.493 226.814ZM476.853 225.314H477.673L477.553 225.694H476.743L476.623 226.114H477.343L476.803 226.884C476.772 226.92 476.735 226.951 476.693 226.974C476.644 226.985 476.592 226.985 476.543 226.974H476.343L476.203 227.424H476.723C476.832 227.428 476.941 227.404 477.039 227.355C477.137 227.307 477.221 227.234 477.283 227.144L477.653 226.634L477.733 227.154C477.742 227.191 477.759 227.225 477.783 227.255C477.808 227.284 477.838 227.308 477.873 227.324C477.926 227.364 477.988 227.391 478.053 227.404H478.493L478.643 226.894H478.543C478.484 226.907 478.422 226.907 478.363 226.894C478.359 226.857 478.359 226.82 478.363 226.784L478.283 226.264H477.943L478.093 226.094H478.913L479.043 225.674H478.283L478.393 225.294H479.143L479.293 224.834H477.013L476.873 225.294L476.853 225.314ZM469.983 226.924L470.173 226.294H470.953L471.093 225.824H470.313L470.433 225.434H471.193L471.333 224.974H469.443L469.313 225.434H469.743L469.623 225.824H469.193L469.043 226.294H469.483L469.223 227.134C469.223 227.244 469.223 227.284 469.273 227.344C469.306 227.393 469.356 227.429 469.413 227.444H469.613H470.493L470.653 226.924L470.263 226.984C470.143 227.044 469.983 227.034 470.003 226.964L469.983 226.924ZM470.073 223.924L469.873 224.284C469.848 224.341 469.811 224.393 469.763 224.434C469.704 224.449 469.642 224.449 469.583 224.434H469.483L469.343 224.884H469.683C469.805 224.881 469.925 224.85 470.033 224.794C470.103 224.794 470.113 224.794 470.163 224.734L470.283 224.634H471.353L471.493 224.154H470.713L470.853 223.894L470.073 223.924ZM471.653 226.924C471.653 226.924 471.653 226.854 471.653 226.754L471.943 225.754H473.323C473.411 225.742 473.495 225.715 473.573 225.674C473.646 225.633 473.708 225.574 473.753 225.504C473.833 225.377 473.894 225.238 473.933 225.094L474.303 223.874H473.263C473.1 223.896 472.94 223.933 472.783 223.984C472.655 224.046 472.534 224.123 472.423 224.214L472.523 223.874H471.853L470.913 226.974L470.853 227.234C470.853 227.234 470.933 227.344 470.973 227.384C471.045 227.404 471.121 227.404 471.193 227.384H472.073L472.233 226.854H471.773C471.773 226.882 471.764 226.91 471.745 226.932C471.727 226.954 471.701 226.969 471.673 226.974L471.653 226.924ZM472.143 225.184H473.243L473.173 225.394C473.173 225.394 473.173 225.394 473.023 225.394H472.143V225.184ZM472.363 224.454H473.463L473.383 224.714C473.383 224.714 472.873 224.714 472.783 224.714C472.57 224.748 472.37 224.838 472.203 224.974L472.363 224.454ZM473.193 226.124C473.193 226.124 473.193 226.184 473.193 226.194C473.193 226.204 473.133 226.194 473.083 226.194H472.923V225.934H472.273V227.224C472.273 227.324 472.273 227.374 472.353 227.414C472.532 227.477 472.724 227.498 472.913 227.474H473.323L473.473 226.994H473.113H473.003H472.953C472.953 226.994 472.953 226.994 472.953 226.904V226.594H473.333C473.397 226.598 473.462 226.588 473.522 226.566C473.582 226.543 473.637 226.509 473.683 226.464C473.747 226.406 473.79 226.329 473.803 226.244L473.873 225.954H473.363L473.293 226.154L473.193 226.124Z" fill="#FEFEFE"/>
<mask id="path-29-inside-2_4003_1132" fill="white">
<path d="M112.143 242.594H304.143V282.594H118.143C114.829 282.594 112.143 279.907 112.143 276.594V242.594Z"/>
</mask>
<path d="M112.143 242.594H304.143V282.594H118.143C114.829 282.594 112.143 279.907 112.143 276.594V242.594Z" fill="white"/>
<path d="M111.143 241.594H304.143V243.594H113.143L111.143 241.594ZM304.143 283.594H118.143C114.277 283.594 111.143 280.46 111.143 276.594H113.143C113.143 279.355 115.382 281.594 118.143 281.594H304.143V283.594ZM118.143 283.594C114.277 283.594 111.143 280.46 111.143 276.594V241.594L113.143 243.594V276.594C113.143 279.355 115.382 281.594 118.143 281.594V283.594ZM304.143 242.594V282.594V242.594Z" fill="#E6EBF1" mask="url(#path-29-inside-2_4003_1132)"/>
<path d="M126.057 257.776H127.58L130.228 264.242H130.326L132.974 257.776H134.497V266.094H133.303V260.074H133.226L130.772 266.082H129.781L127.328 260.07H127.251V266.094H126.057V257.776ZM136.522 257.776H138.045L140.693 264.242H140.79L143.439 257.776H144.962V266.094H143.768V260.074H143.69L141.237 266.082H140.246L137.793 260.07H137.716V266.094H136.522V257.776ZM150.057 257.386L147.376 267.345H146.292L148.972 257.386H150.057ZM150.744 257.776H152.17L154.343 261.557H154.432L156.605 257.776H158.031L155.013 262.828V266.094H153.762V262.828L150.744 257.776ZM158.774 257.776H160.2L162.373 261.557H162.462L164.635 257.776H166.061L163.043 262.828V266.094H161.792V262.828L158.774 257.776Z" fill="#425466"/>
<path d="M304.643 243.094H495.643V276.594C495.643 279.631 493.181 282.094 490.143 282.094H304.643V243.094Z" fill="white"/>
<path d="M304.643 243.094H495.643V276.594C495.643 279.631 493.181 282.094 490.143 282.094H304.643V243.094Z" stroke="#E6EBF1"/>
<path d="M325.094 260.389H323.806C323.756 260.113 323.664 259.871 323.529 259.662C323.395 259.453 323.229 259.275 323.034 259.129C322.839 258.984 322.62 258.874 322.378 258.799C322.138 258.725 321.884 258.688 321.614 258.688C321.127 258.688 320.691 258.81 320.305 259.055C319.923 259.3 319.62 259.659 319.397 260.133C319.177 260.606 319.067 261.184 319.067 261.866C319.067 262.555 319.177 263.135 319.397 263.609C319.62 264.082 319.924 264.44 320.309 264.682C320.695 264.924 321.128 265.045 321.61 265.045C321.877 265.045 322.13 265.009 322.369 264.938C322.612 264.864 322.83 264.755 323.026 264.612C323.221 264.469 323.386 264.294 323.521 264.087C323.659 263.878 323.754 263.639 323.806 263.369L325.094 263.373C325.025 263.789 324.892 264.171 324.694 264.521C324.498 264.868 324.246 265.168 323.938 265.421C323.633 265.671 323.283 265.865 322.89 266.003C322.496 266.141 322.067 266.209 321.602 266.209C320.869 266.209 320.217 266.036 319.645 265.689C319.072 265.34 318.621 264.84 318.291 264.191C317.963 263.541 317.799 262.766 317.799 261.866C317.799 260.964 317.965 260.189 318.295 259.542C318.625 258.893 319.076 258.395 319.649 258.048C320.221 257.698 320.872 257.524 321.602 257.524C322.05 257.524 322.468 257.588 322.856 257.718C323.247 257.844 323.598 258.031 323.909 258.279C324.22 258.524 324.477 258.824 324.681 259.179C324.885 259.531 325.022 259.934 325.094 260.389ZM327.559 257.639L329.912 264.525H330.007L332.36 257.639H333.739L330.697 266.094H329.223L326.181 257.639H327.559ZM341.762 260.389H340.474C340.425 260.113 340.332 259.871 340.198 259.662C340.063 259.453 339.898 259.275 339.702 259.129C339.507 258.984 339.288 258.874 339.046 258.799C338.806 258.725 338.552 258.688 338.282 258.688C337.795 258.688 337.359 258.81 336.973 259.055C336.591 259.3 336.288 259.659 336.065 260.133C335.845 260.606 335.735 261.184 335.735 261.866C335.735 262.555 335.845 263.135 336.065 263.609C336.288 264.082 336.592 264.44 336.978 264.682C337.363 264.924 337.796 265.045 338.278 265.045C338.545 265.045 338.798 265.009 339.038 264.938C339.28 264.864 339.499 264.755 339.694 264.612C339.889 264.469 340.054 264.294 340.189 264.087C340.327 263.878 340.422 263.639 340.474 263.369L341.762 263.373C341.693 263.789 341.56 264.171 341.362 264.521C341.166 264.868 340.915 265.168 340.606 265.421C340.301 265.671 339.951 265.865 339.558 266.003C339.164 266.141 338.735 266.209 338.27 266.209C337.538 266.209 336.885 266.036 336.313 265.689C335.74 265.34 335.289 264.84 334.959 264.191C334.631 263.541 334.468 262.766 334.468 261.866C334.468 260.964 334.633 260.189 334.963 259.542C335.293 258.893 335.745 258.395 336.317 258.048C336.89 257.698 337.54 257.524 338.27 257.524C338.718 257.524 339.137 257.588 339.525 257.718C339.915 257.844 340.266 258.031 340.577 258.279C340.888 258.524 341.146 258.824 341.349 259.179C341.553 259.531 341.691 259.934 341.762 260.389Z" fill="#425466"/>
<path opacity="0.2" fill-rule="evenodd" clip-rule="evenodd" d="M476.135 256.822H462.771C462.146 256.822 461.413 257.542 461.413 258.181V268.369C461.413 269.007 462.146 269.727 462.771 269.727H479.748C480.373 269.727 481.106 269.007 481.106 268.369V263.254C480.534 263.769 479.827 264.111 479.069 264.239V264.293C479.069 264.742 478.824 264.973 478.39 264.973H463.45C463.016 264.973 462.771 264.742 462.771 264.293V263.614C462.771 263.166 463.016 262.935 463.45 262.935H475.354C474.962 262.501 474.669 261.986 474.494 261.428C474.319 260.869 474.267 260.28 474.341 259.699C474.415 259.119 474.614 258.561 474.924 258.065C475.233 257.568 475.647 257.144 476.135 256.822Z" fill="#565656"/>
<path opacity="0.3" fill-rule="evenodd" clip-rule="evenodd" d="M474.546 258.859H461.413V260.897H474.37C474.256 260.214 474.316 259.513 474.546 258.859Z" fill="#565656"/>
<path fill-rule="evenodd" clip-rule="evenodd" d="M478.39 264.972C477.129 264.972 475.92 264.471 475.028 263.579C474.137 262.688 473.636 261.478 473.636 260.217C473.636 258.956 474.137 257.747 475.028 256.855C475.92 255.964 477.129 255.463 478.39 255.463C479.65 255.463 480.859 255.964 481.751 256.855C482.642 257.747 483.143 258.956 483.143 260.217C483.143 261.478 482.642 262.688 481.751 263.579C480.859 264.471 479.65 264.972 478.39 264.972ZM476.502 258.248H475.965L474.655 258.913V259.592L475.694 259.049V262.187H476.509V258.248H476.502ZM478.064 258.791C478.451 258.791 478.722 259.008 478.722 259.321C478.722 259.66 478.403 259.898 477.941 259.898H477.738V260.475H477.982C478.471 260.475 478.804 260.72 478.804 261.073C478.804 261.413 478.478 261.644 478.016 261.644C477.677 261.644 477.337 261.535 476.984 261.324V262.004C477.364 262.167 477.745 262.255 478.118 262.255C479.008 262.255 479.619 261.8 479.619 261.141C479.619 260.679 479.334 260.306 478.858 260.156C479.266 260.02 479.53 259.66 479.53 259.253C479.53 258.614 478.967 258.18 478.152 258.18C477.785 258.184 477.422 258.262 477.086 258.411V259.076C477.412 258.893 477.745 258.791 478.064 258.791ZM480.997 260.272C481.493 260.272 481.839 260.564 481.839 260.944C481.839 261.345 481.493 261.623 480.997 261.623C480.698 261.623 480.386 261.528 480.067 261.331V262.031C480.4 262.18 480.739 262.255 481.072 262.255C481.249 262.255 481.411 262.228 481.568 262.187C481.921 261.61 482.125 260.944 482.125 260.231L482.111 259.946C481.858 259.796 481.569 259.721 481.276 259.728C481.153 259.728 481.024 259.735 480.889 259.755V258.872H481.866C481.782 258.655 481.677 258.446 481.554 258.248H480.182V260.387C480.454 260.319 480.726 260.272 480.997 260.272Z" fill="#565656"/>
<path d="M120.271 305.73V314.594H119.042L114.536 308.093H114.454V314.594H113.117V305.73H114.355L118.864 312.239H118.947V305.73H120.271ZM124.252 314.741C123.831 314.741 123.45 314.663 123.11 314.507C122.769 314.348 122.5 314.119 122.301 313.819C122.104 313.519 122.006 313.151 122.006 312.715C122.006 312.34 122.078 312.032 122.223 311.789C122.367 311.547 122.562 311.355 122.807 311.214C123.052 311.072 123.326 310.965 123.629 310.893C123.932 310.821 124.241 310.766 124.555 310.729C124.954 310.683 125.277 310.645 125.525 310.616C125.773 310.585 125.953 310.534 126.066 310.465C126.178 310.396 126.235 310.283 126.235 310.127V310.097C126.235 309.719 126.128 309.426 125.914 309.218C125.704 309.011 125.389 308.907 124.971 308.907C124.535 308.907 124.192 309.003 123.941 309.197C123.693 309.387 123.521 309.599 123.426 309.833L122.21 309.556C122.354 309.152 122.565 308.826 122.842 308.578C123.121 308.327 123.443 308.145 123.807 308.033C124.17 307.917 124.553 307.859 124.954 307.859C125.219 307.859 125.5 307.891 125.798 307.955C126.098 308.015 126.378 308.128 126.637 308.292C126.9 308.457 127.115 308.692 127.282 308.998C127.449 309.301 127.533 309.695 127.533 310.179V314.594H126.269V313.685H126.217C126.134 313.852 126.008 314.017 125.841 314.178C125.674 314.34 125.459 314.474 125.196 314.581C124.933 314.688 124.619 314.741 124.252 314.741ZM124.534 313.702C124.892 313.702 125.197 313.632 125.451 313.49C125.708 313.349 125.903 313.164 126.036 312.936C126.171 312.705 126.239 312.459 126.239 312.196V311.339C126.193 311.385 126.103 311.429 125.971 311.469C125.841 311.506 125.692 311.54 125.525 311.569C125.358 311.594 125.195 311.619 125.036 311.642C124.877 311.662 124.744 311.68 124.638 311.694C124.387 311.726 124.157 311.779 123.95 311.854C123.745 311.929 123.58 312.037 123.456 312.179C123.335 312.317 123.274 312.502 123.274 312.733C123.274 313.053 123.393 313.295 123.629 313.46C123.866 313.621 124.167 313.702 124.534 313.702ZM129.457 314.594V307.946H130.699V309.028H130.781C130.92 308.662 131.146 308.376 131.461 308.171C131.775 307.963 132.152 307.859 132.59 307.859C133.034 307.859 133.407 307.963 133.707 308.171C134.01 308.379 134.233 308.664 134.378 309.028H134.447C134.605 308.673 134.858 308.39 135.204 308.18C135.55 307.966 135.963 307.859 136.442 307.859C137.045 307.859 137.537 308.048 137.918 308.426C138.302 308.804 138.493 309.374 138.493 310.136V314.594H137.199V310.257C137.199 309.807 137.077 309.481 136.832 309.279C136.586 309.077 136.293 308.976 135.953 308.976C135.532 308.976 135.204 309.106 134.97 309.366C134.737 309.622 134.62 309.953 134.62 310.357V314.594H133.33V310.175C133.33 309.814 133.218 309.524 132.993 309.305C132.768 309.086 132.475 308.976 132.114 308.976C131.869 308.976 131.642 309.041 131.435 309.171C131.23 309.298 131.064 309.475 130.937 309.703C130.813 309.931 130.751 310.195 130.751 310.495V314.594H129.457ZM143.293 314.728C142.638 314.728 142.074 314.588 141.601 314.308C141.13 314.025 140.767 313.629 140.51 313.118C140.256 312.604 140.129 312.003 140.129 311.313C140.129 310.632 140.256 310.032 140.51 309.513C140.767 308.993 141.125 308.588 141.583 308.297C142.045 308.005 142.585 307.859 143.202 307.859C143.577 307.859 143.941 307.921 144.293 308.046C144.645 308.17 144.961 308.364 145.241 308.63C145.52 308.895 145.741 309.24 145.903 309.664C146.064 310.085 146.145 310.598 146.145 311.201V311.659H140.861V310.69H144.877C144.877 310.349 144.808 310.048 144.669 309.785C144.531 309.52 144.336 309.311 144.085 309.158C143.837 309.005 143.545 308.928 143.211 308.928C142.847 308.928 142.53 309.018 142.259 309.197C141.99 309.373 141.783 309.604 141.635 309.889C141.491 310.172 141.419 310.479 141.419 310.811V311.569C141.419 312.013 141.497 312.391 141.653 312.702C141.811 313.014 142.032 313.252 142.315 313.417C142.598 313.578 142.928 313.659 143.306 313.659C143.551 313.659 143.775 313.624 143.977 313.555C144.179 313.483 144.353 313.376 144.5 313.235C144.648 313.093 144.76 312.919 144.838 312.711L146.063 312.932C145.965 313.292 145.789 313.608 145.535 313.88C145.284 314.148 144.968 314.357 144.587 314.507C144.209 314.654 143.778 314.728 143.293 314.728ZM154.006 314.728C153.383 314.728 152.839 314.585 152.375 314.299C151.91 314.014 151.55 313.614 151.293 313.101C151.036 312.587 150.908 311.987 150.908 311.3C150.908 310.611 151.036 310.008 151.293 309.491C151.55 308.975 151.91 308.574 152.375 308.288C152.839 308.002 153.383 307.859 154.006 307.859C154.63 307.859 155.174 308.002 155.638 308.288C156.103 308.574 156.463 308.975 156.72 309.491C156.977 310.008 157.105 310.611 157.105 311.3C157.105 311.987 156.977 312.587 156.72 313.101C156.463 313.614 156.103 314.014 155.638 314.299C155.174 314.585 154.63 314.728 154.006 314.728ZM154.011 313.642C154.415 313.642 154.749 313.535 155.015 313.321C155.28 313.108 155.477 312.824 155.603 312.469C155.733 312.114 155.798 311.723 155.798 311.296C155.798 310.872 155.733 310.482 155.603 310.127C155.477 309.77 155.28 309.482 155.015 309.266C154.749 309.05 154.415 308.941 154.011 308.941C153.604 308.941 153.266 309.05 152.998 309.266C152.733 309.482 152.535 309.77 152.405 310.127C152.278 310.482 152.215 310.872 152.215 311.296C152.215 311.723 152.278 312.114 152.405 312.469C152.535 312.824 152.733 313.108 152.998 313.321C153.266 313.535 153.604 313.642 154.011 313.642ZM160.044 310.647V314.594H158.75V307.946H159.992V309.028H160.074C160.227 308.676 160.466 308.393 160.793 308.18C161.121 307.966 161.535 307.859 162.035 307.859C162.488 307.859 162.884 307.955 163.225 308.145C163.565 308.333 163.829 308.613 164.017 308.985C164.204 309.357 164.298 309.817 164.298 310.365V314.594H163.004V310.521C163.004 310.039 162.879 309.663 162.628 309.392C162.377 309.117 162.032 308.98 161.593 308.98C161.293 308.98 161.026 309.045 160.793 309.175C160.562 309.305 160.378 309.495 160.243 309.746C160.11 309.995 160.044 310.295 160.044 310.647ZM172.459 314.728C171.816 314.728 171.262 314.582 170.797 314.291C170.336 313.996 169.981 313.591 169.733 313.075C169.485 312.558 169.36 311.967 169.36 311.3C169.36 310.625 169.487 310.029 169.741 309.513C169.995 308.993 170.353 308.588 170.815 308.297C171.276 308.005 171.82 307.859 172.446 307.859C172.951 307.859 173.401 307.953 173.797 308.141C174.192 308.325 174.511 308.585 174.753 308.92C174.998 309.255 175.144 309.645 175.19 310.093H173.931C173.862 309.781 173.703 309.513 173.455 309.288C173.209 309.063 172.88 308.95 172.468 308.95C172.107 308.95 171.791 309.045 171.52 309.236C171.252 309.423 171.043 309.692 170.893 310.041C170.742 310.387 170.667 310.797 170.667 311.27C170.667 311.755 170.741 312.173 170.888 312.525C171.035 312.877 171.243 313.15 171.511 313.343C171.783 313.536 172.101 313.633 172.468 313.633C172.713 313.633 172.935 313.588 173.134 313.499C173.336 313.406 173.505 313.275 173.641 313.105C173.779 312.935 173.876 312.73 173.931 312.49H175.19C175.144 312.92 175.004 313.304 174.77 313.642C174.537 313.979 174.224 314.245 173.831 314.438C173.442 314.631 172.984 314.728 172.459 314.728ZM178.709 314.741C178.287 314.741 177.907 314.663 177.566 314.507C177.226 314.348 176.956 314.119 176.757 313.819C176.561 313.519 176.462 313.151 176.462 312.715C176.462 312.34 176.535 312.032 176.679 311.789C176.823 311.547 177.018 311.355 177.263 311.214C177.508 311.072 177.782 310.965 178.085 310.893C178.388 310.821 178.697 310.766 179.012 310.729C179.41 310.683 179.733 310.645 179.981 310.616C180.229 310.585 180.41 310.534 180.522 310.465C180.635 310.396 180.691 310.283 180.691 310.127V310.097C180.691 309.719 180.584 309.426 180.371 309.218C180.16 309.011 179.845 308.907 179.427 308.907C178.991 308.907 178.648 309.003 178.397 309.197C178.149 309.387 177.977 309.599 177.882 309.833L176.666 309.556C176.81 309.152 177.021 308.826 177.298 308.578C177.578 308.327 177.899 308.145 178.263 308.033C178.626 307.917 179.009 307.859 179.41 307.859C179.675 307.859 179.957 307.891 180.254 307.955C180.554 308.015 180.834 308.128 181.093 308.292C181.356 308.457 181.571 308.692 181.738 308.998C181.906 309.301 181.989 309.695 181.989 310.179V314.594H180.725V313.685H180.674C180.59 313.852 180.464 314.017 180.297 314.178C180.13 314.34 179.915 314.474 179.652 314.581C179.39 314.688 179.075 314.741 178.709 314.741ZM178.99 313.702C179.348 313.702 179.654 313.632 179.907 313.49C180.164 313.349 180.359 313.164 180.492 312.936C180.627 312.705 180.695 312.459 180.695 312.196V311.339C180.649 311.385 180.56 311.429 180.427 311.469C180.297 311.506 180.148 311.54 179.981 311.569C179.814 311.594 179.651 311.619 179.492 311.642C179.333 311.662 179.201 311.68 179.094 311.694C178.843 311.726 178.613 311.779 178.406 311.854C178.201 311.929 178.036 312.037 177.912 312.179C177.791 312.317 177.731 312.502 177.731 312.733C177.731 313.053 177.849 313.295 178.085 313.46C178.322 313.621 178.624 313.702 178.99 313.702ZM183.913 314.594V307.946H185.164V309.002H185.233C185.354 308.644 185.568 308.363 185.873 308.158C186.182 307.95 186.531 307.846 186.921 307.846C187.002 307.846 187.097 307.849 187.206 307.855C187.319 307.861 187.407 307.868 187.47 307.877V309.115C187.418 309.1 187.326 309.084 187.193 309.067C187.061 309.047 186.928 309.037 186.795 309.037C186.489 309.037 186.217 309.102 185.977 309.231C185.741 309.358 185.553 309.536 185.415 309.764C185.276 309.989 185.207 310.246 185.207 310.534V314.594H183.913ZM191.041 314.724C190.504 314.724 190.025 314.587 189.604 314.312C189.186 314.035 188.857 313.642 188.617 313.131C188.381 312.617 188.262 312.001 188.262 311.283C188.262 310.564 188.382 309.95 188.621 309.439C188.864 308.928 189.196 308.538 189.617 308.266C190.038 307.995 190.516 307.859 191.049 307.859C191.462 307.859 191.794 307.929 192.045 308.067C192.299 308.203 192.495 308.362 192.633 308.543C192.775 308.725 192.884 308.885 192.962 309.024H193.04V305.73H194.334V314.594H193.071V313.559H192.962C192.884 313.701 192.772 313.862 192.625 314.044C192.481 314.226 192.281 314.385 192.028 314.52C191.774 314.656 191.445 314.724 191.041 314.724ZM191.326 313.62C191.699 313.62 192.013 313.522 192.27 313.326C192.53 313.127 192.726 312.851 192.859 312.499C192.994 312.147 193.062 311.737 193.062 311.27C193.062 310.808 192.996 310.404 192.863 310.058C192.73 309.712 192.535 309.442 192.279 309.249C192.022 309.055 191.704 308.959 191.326 308.959C190.937 308.959 190.612 309.06 190.353 309.262C190.093 309.464 189.897 309.739 189.764 310.088C189.634 310.437 189.569 310.831 189.569 311.27C189.569 311.714 189.636 312.114 189.768 312.469C189.901 312.824 190.097 313.105 190.357 313.313C190.62 313.518 190.943 313.62 191.326 313.62Z" fill="#0A2540"/>
<rect x="112.643" y="325.094" width="383" height="39" rx="5.5" fill="white"/>
<rect x="112.643" y="325.094" width="383" height="39" rx="5.5" stroke="#E6EBF1"/>
</g>
</g>
</g>
<g opacity="0.3">
<path d="M4.14307 4.94336H504.143V334.273C504.143 336.482 502.352 338.273 500.143 338.273H8.14307C5.93394 338.273 4.14307 336.482 4.14307 334.273V4.94336Z" fill="url(#paint0_linear_4003_1132)"/>
</g>
</g>
<defs>
<linearGradient id="paint0_linear_4003_1132" x1="254.143" y1="4.94336" x2="254.143" y2="338.273" gradientUnits="userSpaceOnUse">
<stop stop-color="#BEC9DC" stop-opacity="0"/>
<stop offset="1" stop-color="#BEC9DC" stop-opacity="0.4"/>
</linearGradient>
<clipPath id="clip0_4003_1132">
<rect x="4.14307" y="4.94336" width="500" height="333.33" rx="4" fill="white"/>
</clipPath>
<clipPath id="clip1_4003_1132">
<rect x="4.14307" y="4.94336" width="500" height="333.33" rx="4" fill="white"/>
</clipPath>
<clipPath id="clip2_4003_1132">
<rect width="500" height="333.33" fill="white" transform="translate(74.1431 71.5938)"/>
</clipPath>
<clipPath id="clip3_4003_1132">
<rect x="74.1431" y="71.5938" width="460" height="363" rx="8" fill="white"/>
</clipPath>
</defs>
</svg>
