<svg width="108" height="41" viewBox="0 0 108 41" fill="none" xmlns="http://www.w3.org/2000/svg">
<rect x="0.143066" y="0.273438" width="107" height="40" rx="4" fill="#F6F9FC"/>
<path d="M16.3931 10.7734C15.7028 10.7734 15.1431 11.3331 15.1431 12.0234V28.4391C15.1431 29.0048 14.7632 29.5 14.2168 29.6465L28.2167 25.8934C28.7631 25.747 29.1431 25.2518 29.1431 24.686V12.0234C29.1431 11.3331 28.5835 10.7734 27.8931 10.7734H16.3931Z" fill="#00D924"/>
<path d="M10.7698 22.5466C10.1719 22.8918 9.96702 23.6562 10.3122 24.2541L13.0507 28.9973C13.3336 29.4873 13.9103 29.7262 14.4567 29.5797L27.5303 26.0766L22.4365 17.2541C22.0915 16.6562 21.3269 16.4514 20.729 16.7966L10.7698 22.5466Z" fill="url(#paint0_linear_4003_1452)"/>
<path d="M14.3438 29.6045C14.3814 29.598 14.4191 29.5898 14.4566 29.5797L27.5301 26.0766L22.4363 17.2541C22.0914 16.6562 21.3267 16.4514 20.7288 16.7966L15.143 20.0216V28.4385C15.143 28.9592 14.8211 29.4202 14.3438 29.6045Z" fill="url(#paint1_linear_4003_1452)"/>
<path d="M44.312 16.4553V24.7734H43.0569V16.4553H44.312ZM47.2566 21.0692V24.7734H46.0422V18.5348H47.2079V19.5502H47.2851C47.4286 19.2199 47.6533 18.9545 47.9593 18.7541C48.268 18.5538 48.6565 18.4536 49.125 18.4536C49.5501 18.4536 49.9224 18.5429 50.2419 18.7216C50.5614 18.8976 50.8092 19.1603 50.9852 19.5096C51.1612 19.8589 51.2492 20.2908 51.2492 20.8052V24.7734H50.0348V20.9515C50.0348 20.4993 49.917 20.1459 49.6814 19.8914C49.4458 19.6341 49.1223 19.5055 48.7107 19.5055C48.4291 19.5055 48.1786 19.5665 47.9593 19.6883C47.7427 19.8101 47.5707 19.9889 47.4435 20.2244C47.3189 20.4573 47.2566 20.7389 47.2566 21.0692ZM57.9915 18.5348L55.7292 24.7734H54.4294L52.1631 18.5348H53.4668L55.0468 23.3356H55.1118L56.6877 18.5348H57.9915ZM61.5484 24.8993C60.9636 24.8993 60.4532 24.7653 60.0172 24.4972C59.5813 24.2292 59.2428 23.8542 59.0018 23.3722C58.7608 22.8902 58.6403 22.327 58.6403 21.6826C58.6403 21.0354 58.7608 20.4695 59.0018 19.9848C59.2428 19.5001 59.5813 19.1237 60.0172 18.8557C60.4532 18.5876 60.9636 18.4536 61.5484 18.4536C62.1333 18.4536 62.6437 18.5876 63.0797 18.8557C63.5156 19.1237 63.8541 19.5001 64.0951 19.9848C64.3361 20.4695 64.4565 21.0354 64.4565 21.6826C64.4565 22.327 64.3361 22.8902 64.0951 23.3722C63.8541 23.8542 63.5156 24.2292 63.0797 24.4972C62.6437 24.7653 62.1333 24.8993 61.5484 24.8993ZM61.5525 23.8799C61.9316 23.8799 62.2457 23.7797 62.4948 23.5793C62.7439 23.379 62.928 23.1122 63.0472 22.7792C63.169 22.4461 63.2299 22.0792 63.2299 21.6785C63.2299 21.2805 63.169 20.9149 63.0472 20.5819C62.928 20.2461 62.7439 19.9767 62.4948 19.7736C62.2457 19.5705 61.9316 19.469 61.5525 19.469C61.1707 19.469 60.8539 19.5705 60.6021 19.7736C60.353 19.9767 60.1675 20.2461 60.0456 20.5819C59.9265 20.9149 59.8669 21.2805 59.8669 21.6785C59.8669 22.0792 59.9265 22.4461 60.0456 22.7792C60.1675 23.1122 60.353 23.379 60.6021 23.5793C60.8539 23.7797 61.1707 23.8799 61.5525 23.8799ZM65.8121 24.7734V18.5348H67.0265V24.7734H65.8121ZM66.4254 17.5722C66.2142 17.5722 66.0328 17.5018 65.8812 17.361C65.7322 17.2175 65.6578 17.0469 65.6578 16.8492C65.6578 16.6489 65.7322 16.4783 65.8812 16.3375C66.0328 16.194 66.2142 16.1222 66.4254 16.1222C66.6366 16.1222 66.8167 16.194 66.9656 16.3375C67.1172 16.4783 67.1931 16.6489 67.1931 16.8492C67.1931 17.0469 67.1172 17.2175 66.9656 17.361C66.8167 17.5018 66.6366 17.5722 66.4254 17.5722ZM71.2882 24.8993C70.6844 24.8993 70.1645 24.7626 69.7285 24.4891C69.2953 24.2129 68.9622 23.8325 68.7294 23.3478C68.4965 22.8631 68.3801 22.308 68.3801 21.6826C68.3801 21.0489 68.4992 20.4898 68.7375 20.0051C68.9758 19.5177 69.3115 19.1373 69.7448 18.8638C70.178 18.5903 70.6884 18.4536 71.276 18.4536C71.7499 18.4536 72.1723 18.5416 72.5432 18.7176C72.9142 18.8909 73.2134 19.1346 73.4408 19.4487C73.671 19.7628 73.8077 20.1297 73.8511 20.5494H72.6691C72.6041 20.2569 72.4552 20.0051 72.2224 19.7939C71.9922 19.5827 71.6835 19.4771 71.2963 19.4771C70.9578 19.4771 70.6613 19.5665 70.4068 19.7452C70.155 19.9212 69.9587 20.173 69.8179 20.5006C69.6771 20.8256 69.6067 21.21 69.6067 21.6541C69.6067 22.109 69.6757 22.5016 69.8138 22.832C69.9519 23.1623 70.1469 23.4182 70.3987 23.5996C70.6532 23.7811 70.9524 23.8718 71.2963 23.8718C71.5265 23.8718 71.735 23.8298 71.9218 23.7458C72.1113 23.6592 72.2697 23.536 72.397 23.3762C72.527 23.2165 72.6177 23.0242 72.6691 22.7995H73.8511C73.8077 23.2029 73.6764 23.5631 73.4571 23.8799C73.2378 24.1967 72.944 24.4458 72.5757 24.6272C72.2102 24.8086 71.781 24.8993 71.2882 24.8993ZM75.1498 24.7734V18.5348H76.3642V24.7734H75.1498ZM75.7631 17.5722C75.5519 17.5722 75.3704 17.5018 75.2188 17.361C75.0699 17.2175 74.9954 17.0469 74.9954 16.8492C74.9954 16.6489 75.0699 16.4783 75.2188 16.3375C75.3704 16.194 75.5519 16.1222 75.7631 16.1222C75.9743 16.1222 76.1543 16.194 76.3033 16.3375C76.4549 16.4783 76.5307 16.6489 76.5307 16.8492C76.5307 17.0469 76.4549 17.2175 76.3033 17.361C76.1543 17.5018 75.9743 17.5722 75.7631 17.5722ZM79.2124 21.0692V24.7734H77.998V18.5348H79.1636V19.5502H79.2408C79.3843 19.2199 79.6091 18.9545 79.915 18.7541C80.2237 18.5538 80.6123 18.4536 81.0807 18.4536C81.5058 18.4536 81.8782 18.5429 82.1977 18.7216C82.5172 18.8976 82.7649 19.1603 82.9409 19.5096C83.1169 19.8589 83.205 20.2908 83.205 20.8052V24.7734H81.9905V20.9515C81.9905 20.4993 81.8727 20.1459 81.6372 19.8914C81.4016 19.6341 81.078 19.5055 80.6664 19.5055C80.3848 19.5055 80.1344 19.5665 79.915 19.6883C79.6984 19.8101 79.5265 19.9889 79.3992 20.2244C79.2747 20.4573 79.2124 20.7389 79.2124 21.0692ZM87.4493 27.2429C86.9538 27.2429 86.5273 27.1779 86.1699 27.0479C85.8152 26.918 85.5255 26.746 85.3007 26.5321C85.076 26.3182 84.9081 26.084 84.7971 25.8295L85.8409 25.3989C85.914 25.5181 86.0115 25.644 86.1334 25.7767C86.2579 25.912 86.4258 26.0271 86.637 26.1219C86.8509 26.2167 87.1258 26.264 87.4615 26.264C87.9218 26.264 88.3023 26.1517 88.6028 25.9269C88.9034 25.7049 89.0537 25.3502 89.0537 24.8628V23.6362H88.9765C88.9034 23.7689 88.7978 23.9164 88.6597 24.0789C88.5243 24.2414 88.3375 24.3822 88.0992 24.5013C87.8609 24.6205 87.5509 24.68 87.1691 24.68C86.6763 24.68 86.2322 24.5649 85.8369 24.3348C85.4443 24.1019 85.1329 23.7594 84.9027 23.3072C84.6753 22.8523 84.5615 22.2931 84.5615 21.6297C84.5615 20.9664 84.6739 20.3977 84.8986 19.9239C85.1261 19.45 85.4375 19.0872 85.8328 18.8354C86.2281 18.5808 86.6763 18.4536 87.1772 18.4536C87.5644 18.4536 87.8772 18.5186 88.1154 18.6485C88.3537 18.7758 88.5392 18.9247 88.6719 19.0953C88.8073 19.2659 88.9115 19.4162 88.9846 19.5461H89.074V18.5348H90.264V24.9115C90.264 25.4477 90.1395 25.8877 89.8904 26.2316C89.6413 26.5754 89.3041 26.83 88.879 26.9951C88.4566 27.1603 87.9801 27.2429 87.4493 27.2429ZM87.4372 23.6727C87.7864 23.6727 88.0816 23.5915 88.3226 23.429C88.5663 23.2639 88.7504 23.0283 88.875 22.7223C89.0022 22.4136 89.0659 22.044 89.0659 21.6135C89.0659 21.1938 89.0036 20.8242 88.879 20.5047C88.7545 20.1852 88.5717 19.9361 88.3307 19.7573C88.0897 19.5759 87.7919 19.4852 87.4372 19.4852C87.0716 19.4852 86.767 19.58 86.5233 19.7695C86.2796 19.9564 86.0955 20.2109 85.9709 20.5331C85.8491 20.8553 85.7881 21.2155 85.7881 21.6135C85.7881 22.0224 85.8504 22.3811 85.975 22.6898C86.0995 22.9985 86.2837 23.2395 86.5273 23.4128C86.7738 23.5861 87.077 23.6727 87.4372 23.6727Z" fill="#2E3A55"/>
<defs>
<linearGradient id="paint0_linear_4003_1452" x1="18.8379" y1="20.3978" x2="18.8377" y2="29.2728" gradientUnits="userSpaceOnUse">
<stop stop-color="#FFD748"/>
<stop offset="1" stop-color="#FFC148"/>
</linearGradient>
<linearGradient id="paint1_linear_4003_1452" x1="20.9373" y1="16.6289" x2="20.9369" y2="29.6045" gradientUnits="userSpaceOnUse">
<stop stop-color="#00A600"/>
<stop offset="1" stop-color="#00D924"/>
</linearGradient>
</defs>
</svg>
