<svg width="509" height="339" viewBox="0 0 509 339" fill="none" xmlns="http://www.w3.org/2000/svg">
<g clip-path="url(#clip0_4003_1384)">
<rect x="4.14307" y="4.94336" width="500" height="333.33" rx="4" fill="#F6F9FC"/>
<g clip-path="url(#clip1_4003_1384)">
<g clip-path="url(#clip2_4003_1384)">
<path d="M108.62 68.4097V71.9237H107.003V62.8477H110.63C112.653 62.8477 113.917 63.7957 113.917 65.6287C113.917 67.4367 112.653 68.4097 110.63 68.4097H108.62ZM108.62 67.0197H110.543C111.706 67.0197 112.325 66.5137 112.325 65.6297C112.325 64.7317 111.705 64.2387 110.543 64.2387H108.621V67.0187L108.62 67.0197ZM120.583 68.6117C120.583 70.6717 119.256 72.0627 117.386 72.0627C115.515 72.0627 114.188 70.6727 114.188 68.6127C114.188 66.5517 115.515 65.1617 117.386 65.1617C119.256 65.1617 120.583 66.5517 120.583 68.6117ZM115.717 68.6117C115.717 69.9647 116.362 70.7857 117.386 70.7857C118.409 70.7857 119.054 69.9647 119.054 68.6117C119.054 67.2597 118.409 66.4377 117.386 66.4377C116.362 66.4377 115.717 67.2597 115.717 68.6117ZM124.801 65.2877H126.052L127.24 69.6867L128.416 65.2877H129.92L127.923 71.9237H126.608L125.395 67.5757L124.181 71.9237H122.867L120.87 65.2877H122.424L123.625 69.6867L124.801 65.2877ZM133.117 72.0627C131.259 72.0627 130.197 70.4957 130.197 68.6127C130.197 66.7287 131.259 65.1617 133.117 65.1617C133.977 65.1617 134.609 65.5017 135.026 65.9957V62.8477H136.543V71.9237H135.026V71.2287C134.609 71.7217 133.976 72.0627 133.117 72.0627ZM135.064 68.4227C135.064 67.1707 134.356 66.4887 133.421 66.4887C132.321 66.4887 131.727 67.3487 131.727 68.6117C131.727 69.8757 132.321 70.7357 133.421 70.7357C134.356 70.7357 135.064 70.0407 135.064 68.8147V68.4227ZM143.656 65.2877V71.9237H142.139V71.2157C141.759 71.6587 141.191 72.0627 140.331 72.0627C138.941 72.0627 138.081 71.1147 138.081 69.6867V65.2877H139.598V69.3577C139.598 70.1667 139.952 70.6847 140.774 70.6847C141.456 70.6847 142.139 70.1797 142.139 69.2317V65.2877H143.656ZM149.021 65.2747V66.7917C148.837 66.7655 148.651 66.7528 148.465 66.7537C147.505 66.7537 146.771 67.3737 146.771 68.4347V71.9237H145.254V65.2877H146.771V66.2737C147.061 65.6537 147.744 65.2497 148.591 65.2497C148.768 65.2497 148.907 65.2627 149.021 65.2747Z" fill="#2E3A55"/>
<path d="M100.643 67.1738C100.643 73.9388 95.1581 79.4238 88.3931 79.4238C81.6281 79.4238 76.1431 73.9388 76.1431 67.1738C76.1431 60.4088 81.6281 54.9238 88.3931 54.9238C95.1581 54.9238 100.643 60.4088 100.643 67.1738Z" fill="black"/>
<path d="M89.2731 61.1034C88.8171 61.1034 88.4101 61.2494 88.0481 61.5484C87.7021 61.8424 87.4681 62.2564 87.3481 62.7834V69.7414C87.6701 70.0894 88.0881 70.2604 88.6121 70.2604C89.4661 70.2604 90.0821 69.8534 90.4561 69.0444C90.8311 68.2194 91.0161 67.0274 91.0161 65.4584C91.0161 63.8904 90.8631 62.7714 90.5571 62.1054C90.2591 61.4354 89.8321 61.1024 89.2721 61.1024L89.2731 61.1034ZM90.4531 60.2734C91.1491 60.2734 91.7611 60.4524 92.2971 60.8124C92.8441 61.1724 93.2711 61.7104 93.5811 62.4304C93.8871 63.1504 94.0441 64.0304 94.0441 65.0714C94.0441 66.9114 93.6221 68.3244 92.7801 69.3114C91.9501 70.2874 90.8231 70.7754 89.3931 70.7754C88.9901 70.7754 88.6121 70.7254 88.2491 70.6204C87.9214 70.5272 87.615 70.371 87.3471 70.1604V72.0874C87.3471 72.6534 87.4971 73.0444 87.7901 73.2654C88.0841 73.4814 88.5401 73.5944 89.1551 73.5944V74.0004L88.6151 73.9804C87.6736 73.9525 86.7319 73.9335 85.7901 73.9234C85.3871 73.9234 84.5451 73.9504 83.2651 74.0004V73.5944C83.7041 73.5944 84.0141 73.4974 84.1871 73.3044C84.3721 73.1214 84.4691 72.7844 84.4691 72.2814V62.6394C84.4691 62.0474 84.3691 61.6174 84.1671 61.3464C83.9821 61.0764 83.6511 60.9404 83.1841 60.9404V60.5334C83.6111 60.5724 84.0261 60.5914 84.4291 60.5914C85.5921 60.5914 86.5671 60.5024 87.3561 60.3204V62.0934C87.6147 61.5274 88.0428 61.0557 88.5811 60.7434C89.1041 60.4334 89.7321 60.2734 90.4531 60.2734Z" fill="white"/>
<rect x="76.1431" y="99.9238" width="356" height="212" rx="8" fill="white"/>
<path d="M105.498 156.195V133.482H106.953V156.195H105.498ZM110.05 140.527C109.955 139.687 109.565 139.036 108.879 138.575C108.192 138.107 107.329 137.874 106.288 137.874C105.543 137.874 104.898 137.992 104.354 138.229C103.81 138.459 103.387 138.779 103.085 139.187C102.789 139.589 102.641 140.048 102.641 140.562C102.641 140.994 102.742 141.367 102.943 141.68C103.15 141.994 103.419 142.257 103.75 142.47C104.088 142.677 104.448 142.851 104.833 142.993C105.217 143.129 105.587 143.242 105.942 143.33L107.716 143.792C108.296 143.934 108.89 144.126 109.5 144.368C110.109 144.611 110.674 144.93 111.194 145.327C111.715 145.723 112.135 146.214 112.454 146.799C112.779 147.385 112.942 148.086 112.942 148.902C112.942 149.931 112.676 150.845 112.144 151.644C111.617 152.442 110.851 153.072 109.846 153.533C108.846 153.995 107.636 154.225 106.217 154.225C104.856 154.225 103.679 154.01 102.686 153.578C101.692 153.146 100.914 152.534 100.352 151.741C99.7904 150.943 99.4798 149.996 99.4207 148.902H102.171C102.224 149.559 102.437 150.106 102.81 150.543C103.188 150.975 103.671 151.298 104.256 151.511C104.848 151.718 105.495 151.821 106.199 151.821C106.974 151.821 107.663 151.7 108.266 151.457C108.876 151.209 109.355 150.866 109.704 150.428C110.053 149.985 110.227 149.467 110.227 148.875C110.227 148.337 110.073 147.897 109.766 147.554C109.464 147.21 109.053 146.927 108.533 146.702C108.018 146.477 107.435 146.279 106.785 146.107L104.638 145.522C103.183 145.125 102.029 144.543 101.177 143.774C100.332 143.005 99.9087 141.988 99.9087 140.722C99.9087 139.675 100.193 138.761 100.76 137.98C101.328 137.2 102.097 136.593 103.067 136.161C104.037 135.724 105.131 135.505 106.35 135.505C107.58 135.505 108.666 135.721 109.606 136.153C110.552 136.584 111.298 137.179 111.842 137.936C112.386 138.687 112.67 139.551 112.694 140.527H110.05ZM123.263 135.753V153.924H120.513V138.504H120.407L116.059 141.343V138.717L120.593 135.753H123.263ZM128.197 150.375V148.157L136.049 135.753H137.797V139.018H136.688L131.072 147.908V148.05H141.834V150.375H128.197ZM136.812 153.924V149.701L136.83 148.689V135.753H139.43V153.924H136.812ZM144.944 150.375V148.157L152.796 135.753H154.544V139.018H153.435L147.819 147.908V148.05H158.581V150.375H144.944ZM153.559 153.924V149.701L153.577 148.689V135.753H156.177V153.924H153.559ZM163.173 154.092C162.688 154.092 162.271 153.921 161.922 153.578C161.573 153.229 161.399 152.809 161.399 152.318C161.399 151.833 161.573 151.419 161.922 151.076C162.271 150.727 162.688 150.552 163.173 150.552C163.658 150.552 164.075 150.727 164.424 151.076C164.773 151.419 164.948 151.833 164.948 152.318C164.948 152.643 164.865 152.942 164.699 153.214C164.54 153.48 164.327 153.693 164.061 153.853C163.794 154.013 163.499 154.092 163.173 154.092ZM169.014 153.924L176.946 138.238V138.105H167.772V135.753H179.785V138.184L171.88 153.924H169.014ZM189.044 154.172C187.772 154.172 186.649 153.953 185.673 153.516C184.703 153.078 183.943 152.475 183.393 151.706C182.842 150.937 182.57 150.061 182.576 149.08C182.57 148.311 182.727 147.604 183.047 146.959C183.372 146.308 183.812 145.767 184.368 145.335C184.924 144.898 185.546 144.62 186.232 144.501V144.395C185.327 144.176 184.602 143.691 184.058 142.94C183.514 142.189 183.245 141.325 183.251 140.349C183.245 139.421 183.49 138.593 183.987 137.865C184.49 137.132 185.179 136.555 186.054 136.135C186.93 135.715 187.926 135.505 189.044 135.505C190.15 135.505 191.138 135.718 192.008 136.144C192.883 136.564 193.572 137.14 194.075 137.874C194.578 138.601 194.832 139.427 194.838 140.349C194.832 141.325 194.554 142.189 194.004 142.94C193.454 143.691 192.738 144.176 191.857 144.395V144.501C192.537 144.62 193.149 144.898 193.693 145.335C194.243 145.767 194.681 146.308 195.006 146.959C195.338 147.604 195.506 148.311 195.512 149.08C195.506 150.061 195.228 150.937 194.678 151.706C194.128 152.475 193.365 153.078 192.389 153.516C191.419 153.953 190.304 154.172 189.044 154.172ZM189.044 151.928C189.795 151.928 190.446 151.803 190.996 151.555C191.546 151.301 191.972 150.949 192.274 150.499C192.575 150.044 192.729 149.511 192.735 148.902C192.729 148.269 192.564 147.71 192.238 147.225C191.919 146.74 191.484 146.359 190.934 146.081C190.384 145.803 189.754 145.664 189.044 145.664C188.328 145.664 187.693 145.803 187.137 146.081C186.581 146.359 186.143 146.74 185.824 147.225C185.504 147.71 185.347 148.269 185.353 148.902C185.347 149.511 185.492 150.044 185.788 150.499C186.09 150.949 186.519 151.301 187.075 151.555C187.631 151.803 188.287 151.928 189.044 151.928ZM189.044 143.472C189.647 143.472 190.183 143.351 190.65 143.109C191.117 142.866 191.484 142.529 191.75 142.097C192.022 141.665 192.161 141.16 192.167 140.58C192.161 140.012 192.025 139.515 191.759 139.089C191.499 138.663 191.135 138.335 190.668 138.105C190.201 137.868 189.659 137.75 189.044 137.75C188.417 137.75 187.867 137.868 187.394 138.105C186.927 138.335 186.563 138.663 186.303 139.089C186.042 139.515 185.915 140.012 185.921 140.58C185.915 141.16 186.045 141.665 186.312 142.097C186.578 142.529 186.944 142.866 187.412 143.109C187.885 143.351 188.429 143.472 189.044 143.472Z" fill="#0A2540"/>
<path d="M101.099 174.924H98.8921V168.106H101.169C101.837 168.106 102.411 168.242 102.89 168.515C103.37 168.786 103.737 169.175 103.992 169.684C104.25 170.19 104.379 170.797 104.379 171.505C104.379 172.215 104.249 172.825 103.989 173.336C103.732 173.846 103.359 174.239 102.871 174.514C102.382 174.787 101.792 174.924 101.099 174.924ZM99.9209 174.025H101.043C101.562 174.025 101.994 173.927 102.338 173.732C102.682 173.534 102.939 173.249 103.11 172.876C103.281 172.501 103.367 172.044 103.367 171.505C103.367 170.97 103.281 170.516 103.11 170.143C102.942 169.77 102.69 169.487 102.354 169.294C102.019 169.101 101.603 169.005 101.106 169.005H99.9209V174.025ZM108.897 172.803V169.81H109.896V174.924H108.917V174.038H108.864C108.746 174.311 108.558 174.539 108.298 174.721C108.041 174.901 107.72 174.99 107.336 174.99C107.007 174.99 106.717 174.918 106.464 174.774C106.213 174.628 106.015 174.411 105.871 174.125C105.729 173.839 105.658 173.485 105.658 173.063V169.81H106.653V172.943C106.653 173.291 106.75 173.569 106.943 173.775C107.136 173.982 107.387 174.085 107.695 174.085C107.882 174.085 108.067 174.038 108.251 173.945C108.438 173.852 108.592 173.711 108.714 173.522C108.838 173.334 108.9 173.094 108.897 172.803ZM113.517 175.027C113.014 175.027 112.58 174.919 112.216 174.704C111.854 174.487 111.574 174.181 111.377 173.789C111.181 173.394 111.084 172.931 111.084 172.4C111.084 171.877 111.181 171.415 111.377 171.015C111.574 170.616 111.85 170.304 112.202 170.08C112.558 169.856 112.973 169.744 113.448 169.744C113.736 169.744 114.016 169.791 114.287 169.887C114.557 169.982 114.8 170.132 115.016 170.336C115.231 170.54 115.401 170.806 115.525 171.132C115.649 171.456 115.711 171.85 115.711 172.314V172.667H111.646V171.921H114.736C114.736 171.659 114.683 171.427 114.576 171.225C114.47 171.021 114.32 170.86 114.127 170.742C113.936 170.625 113.712 170.566 113.454 170.566C113.175 170.566 112.93 170.635 112.722 170.772C112.515 170.908 112.356 171.085 112.242 171.305C112.131 171.523 112.076 171.759 112.076 172.014V172.597C112.076 172.939 112.136 173.229 112.256 173.469C112.378 173.709 112.548 173.892 112.765 174.018C112.983 174.143 113.237 174.205 113.527 174.205C113.716 174.205 113.888 174.178 114.043 174.125C114.199 174.069 114.333 173.987 114.446 173.878C114.56 173.77 114.646 173.635 114.706 173.476L115.648 173.645C115.573 173.923 115.437 174.166 115.242 174.375C115.049 174.581 114.806 174.742 114.513 174.857C114.222 174.97 113.89 175.027 113.517 175.027ZM119.537 174.924V168.106H123.765V168.991H120.566V171.069H123.462V171.951H120.566V174.924H119.537ZM126.859 175.027C126.355 175.027 125.921 174.919 125.557 174.704C125.195 174.487 124.916 174.181 124.718 173.789C124.523 173.394 124.425 172.931 124.425 172.4C124.425 171.877 124.523 171.415 124.718 171.015C124.916 170.616 125.191 170.304 125.544 170.08C125.899 169.856 126.314 169.744 126.789 169.744C127.077 169.744 127.357 169.791 127.628 169.887C127.898 169.982 128.142 170.132 128.357 170.336C128.572 170.54 128.742 170.806 128.866 171.132C128.99 171.456 129.053 171.85 129.053 172.314V172.667H124.988V171.921H128.077C128.077 171.659 128.024 171.427 127.917 171.225C127.811 171.021 127.661 170.86 127.468 170.742C127.277 170.625 127.053 170.566 126.795 170.566C126.516 170.566 126.272 170.635 126.063 170.772C125.857 170.908 125.697 171.085 125.584 171.305C125.473 171.523 125.417 171.759 125.417 172.014V172.597C125.417 172.939 125.477 173.229 125.597 173.469C125.719 173.709 125.889 173.892 126.106 174.018C126.324 174.143 126.578 174.205 126.869 174.205C127.057 174.205 127.229 174.178 127.385 174.125C127.54 174.069 127.674 173.987 127.788 173.878C127.901 173.77 127.987 173.635 128.047 173.476L128.989 173.645C128.914 173.923 128.778 174.166 128.583 174.375C128.39 174.581 128.147 174.742 127.854 174.857C127.563 174.97 127.232 175.027 126.859 175.027ZM130.317 174.924V168.106H131.312V170.639H131.372C131.43 170.533 131.513 170.409 131.622 170.27C131.731 170.13 131.882 170.008 132.075 169.903C132.268 169.797 132.523 169.744 132.84 169.744C133.253 169.744 133.622 169.848 133.946 170.057C134.27 170.265 134.524 170.566 134.708 170.959C134.895 171.352 134.988 171.824 134.988 172.377C134.988 172.93 134.896 173.403 134.711 173.799C134.527 174.191 134.274 174.494 133.952 174.707C133.631 174.918 133.263 175.024 132.85 175.024C132.54 175.024 132.286 174.972 132.088 174.867C131.893 174.763 131.74 174.641 131.629 174.501C131.518 174.361 131.432 174.237 131.372 174.128H131.289V174.924H130.317ZM131.292 172.367C131.292 172.727 131.345 173.042 131.449 173.312C131.553 173.583 131.704 173.795 131.902 173.948C132.099 174.099 132.341 174.175 132.627 174.175C132.925 174.175 133.173 174.096 133.373 173.938C133.573 173.779 133.724 173.562 133.826 173.289C133.93 173.016 133.982 172.709 133.982 172.367C133.982 172.03 133.931 171.727 133.829 171.458C133.729 171.19 133.578 170.978 133.376 170.822C133.177 170.667 132.927 170.589 132.627 170.589C132.339 170.589 132.095 170.664 131.895 170.812C131.697 170.961 131.548 171.169 131.446 171.435C131.343 171.701 131.292 172.012 131.292 172.367ZM141.32 168.106V174.924H140.288V169.138H140.248L138.617 170.203V169.218L140.318 168.106H141.32ZM145.512 168.012C145.816 168.015 146.115 168.07 146.411 168.179C146.706 168.288 146.972 168.465 147.21 168.712C147.449 168.958 147.64 169.291 147.782 169.71C147.926 170.128 148 170.647 148.002 171.268C148.002 171.865 147.942 172.397 147.822 172.863C147.702 173.327 147.53 173.719 147.306 174.038C147.084 174.358 146.815 174.601 146.497 174.767C146.18 174.934 145.822 175.017 145.425 175.017C145.019 175.017 144.658 174.937 144.343 174.777C144.028 174.618 143.772 174.397 143.574 174.115C143.377 173.831 143.253 173.504 143.205 173.136H144.22C144.287 173.429 144.422 173.667 144.626 173.848C144.833 174.028 145.099 174.118 145.425 174.118C145.925 174.118 146.314 173.901 146.594 173.466C146.873 173.028 147.014 172.418 147.016 171.635H146.963C146.848 171.825 146.704 171.99 146.53 172.127C146.36 172.265 146.168 172.371 145.954 172.447C145.741 172.522 145.514 172.56 145.272 172.56C144.879 172.56 144.522 172.464 144.2 172.27C143.878 172.077 143.622 171.812 143.431 171.475C143.24 171.137 143.145 170.752 143.145 170.32C143.145 169.889 143.242 169.498 143.438 169.148C143.635 168.797 143.91 168.52 144.263 168.315C144.618 168.109 145.034 168.008 145.512 168.012ZM145.515 168.878C145.255 168.878 145.021 168.942 144.813 169.071C144.606 169.198 144.443 169.37 144.323 169.587C144.203 169.802 144.143 170.042 144.143 170.306C144.143 170.57 144.201 170.81 144.317 171.025C144.434 171.238 144.594 171.408 144.796 171.535C145 171.659 145.233 171.721 145.495 171.721C145.69 171.721 145.872 171.683 146.041 171.608C146.21 171.532 146.357 171.428 146.484 171.295C146.61 171.16 146.709 171.006 146.78 170.836C146.851 170.665 146.887 170.485 146.887 170.296C146.887 170.045 146.827 169.812 146.707 169.597C146.589 169.382 146.427 169.209 146.221 169.078C146.014 168.945 145.779 168.878 145.515 168.878Z" fill="#727F96"/>
<mask id="mask0_4003_1384" style="mask-type:luminance" maskUnits="userSpaceOnUse" x="340" y="123" width="61" height="71">
<path d="M340.143 123.924H400.143V193.924H340.143V123.924Z" fill="white"/>
</mask>
<g mask="url(#mask0_4003_1384)">
<path d="M387.765 127.924H347.226C345.523 127.924 344.143 129.304 344.143 131.007V182.535C344.143 184.238 345.523 185.618 347.226 185.618H387.765C389.468 185.618 390.848 184.238 390.848 182.535V131.007C390.848 129.304 389.468 127.924 387.765 127.924Z" fill="white"/>
<path d="M357.881 138.912C357.881 136.636 356.036 134.791 353.76 134.791C351.484 134.791 349.639 136.636 349.639 138.912C349.639 141.188 351.484 143.033 353.76 143.033C356.036 143.033 357.881 141.188 357.881 138.912Z" fill="#E7ECF1"/>
<path d="M371.615 137.539H363.374C362.615 137.539 362 138.154 362 138.913C362 139.671 362.615 140.286 363.374 140.286H371.615C372.374 140.286 372.989 139.671 372.989 138.913C372.989 138.154 372.374 137.539 371.615 137.539Z" fill="#E7ECF1"/>
<path d="M356.507 149.902H351.013C350.254 149.902 349.639 150.517 349.639 151.276C349.639 152.034 350.254 152.649 351.013 152.649H356.507C357.266 152.649 357.881 152.034 357.881 151.276C357.881 150.517 357.266 149.902 356.507 149.902Z" fill="#E7ECF1"/>
<path d="M356.507 156.771H351.013C350.254 156.771 349.639 157.386 349.639 158.145C349.639 158.904 350.254 159.518 351.013 159.518H356.507C357.266 159.518 357.881 158.904 357.881 158.145C357.881 157.386 357.266 156.771 356.507 156.771Z" fill="#E7ECF1"/>
<path d="M383.98 174.629H378.486C377.727 174.629 377.112 175.244 377.112 176.002C377.112 176.761 377.727 177.376 378.486 177.376H383.98C384.739 177.376 385.354 176.761 385.354 176.002C385.354 175.244 384.739 174.629 383.98 174.629Z" fill="#E7ECF1"/>
<path d="M375.736 149.902H363.374C362.615 149.902 362 150.517 362 151.276C362 152.034 362.615 152.649 363.374 152.649H375.736C376.495 152.649 377.11 152.034 377.11 151.276C377.11 150.517 376.495 149.902 375.736 149.902Z" fill="#E7ECF1"/>
<path d="M375.736 156.771H363.374C362.615 156.771 362 157.386 362 158.145C362 158.904 362.615 159.518 363.374 159.518H375.736C376.495 159.518 377.11 158.904 377.11 158.145C377.11 157.386 376.495 156.771 375.736 156.771Z" fill="#E7ECF1"/>
<path d="M370.244 174.629H351.013C350.254 174.629 349.639 175.244 349.639 176.002C349.639 176.761 350.254 177.376 351.013 177.376H370.244C371.003 177.376 371.618 176.761 371.618 176.002C371.618 175.244 371.003 174.629 370.244 174.629Z" fill="#E7ECF1"/>
<path d="M383.98 167.762H351.013C350.254 167.762 349.639 168.377 349.639 169.135C349.639 169.894 350.254 170.509 351.013 170.509H383.98C384.739 170.509 385.354 169.894 385.354 169.135C385.354 168.377 384.739 167.762 383.98 167.762Z" fill="#E7ECF1"/>
<path d="M398.102 184.195C398.102 179.087 393.961 174.945 388.852 174.945C383.743 174.945 379.602 179.087 379.602 184.195C379.602 189.304 383.743 193.445 388.852 193.445C393.961 193.445 398.102 189.304 398.102 184.195Z" fill="white"/>
<path fill-rule="evenodd" clip-rule="evenodd" d="M389.43 186.843L392.084 184.189C392.138 184.135 392.202 184.092 392.272 184.063C392.342 184.034 392.418 184.019 392.494 184.019C392.57 184.019 392.645 184.034 392.715 184.063C392.786 184.092 392.849 184.135 392.903 184.189C392.957 184.243 393 184.306 393.029 184.377C393.058 184.447 393.073 184.522 393.073 184.598C393.073 184.674 393.058 184.75 393.029 184.82C393 184.89 392.957 184.954 392.903 185.008L389.261 188.65C389.208 188.704 389.144 188.746 389.074 188.775C389.003 188.804 388.928 188.819 388.852 188.819C388.776 188.819 388.701 188.804 388.631 188.775C388.561 188.746 388.497 188.704 388.443 188.65L384.801 185.008C384.745 184.955 384.7 184.891 384.669 184.82C384.637 184.749 384.621 184.673 384.62 184.595C384.619 184.518 384.633 184.441 384.662 184.369C384.691 184.298 384.734 184.232 384.789 184.178C384.844 184.123 384.909 184.08 384.981 184.05C385.052 184.021 385.129 184.007 385.206 184.008C385.284 184.009 385.36 184.025 385.431 184.057C385.502 184.088 385.566 184.133 385.619 184.189L388.273 186.844V180.147C388.273 179.993 388.334 179.846 388.443 179.738C388.551 179.629 388.698 179.568 388.852 179.568C389.005 179.568 389.152 179.629 389.261 179.738C389.369 179.846 389.43 179.993 389.43 180.147V186.844V186.843Z" fill="#727F96"/>
</g>
<path d="M100.542 204.189V203.333H105.643V204.189H103.587V209.924H102.595V204.189H100.542ZM108.138 210.024C107.675 210.024 107.27 209.917 106.925 209.705C106.58 209.493 106.311 209.195 106.12 208.814C105.93 208.432 105.834 207.985 105.834 207.475C105.834 206.962 105.93 206.514 106.12 206.13C106.311 205.746 106.58 205.447 106.925 205.235C107.27 205.022 107.675 204.916 108.138 204.916C108.602 204.916 109.006 205.022 109.352 205.235C109.697 205.447 109.965 205.746 110.156 206.13C110.347 206.514 110.443 206.962 110.443 207.475C110.443 207.985 110.347 208.432 110.156 208.814C109.965 209.195 109.697 209.493 109.352 209.705C109.006 209.917 108.602 210.024 108.138 210.024ZM108.141 209.216C108.442 209.216 108.691 209.136 108.888 208.978C109.086 208.819 109.231 208.608 109.326 208.344C109.422 208.08 109.471 207.789 109.471 207.472C109.471 207.156 109.422 206.867 109.326 206.603C109.231 206.337 109.086 206.123 108.888 205.962C108.691 205.801 108.442 205.721 108.141 205.721C107.839 205.721 107.588 205.801 107.388 205.962C107.191 206.123 107.044 206.337 106.948 206.603C106.853 206.867 106.806 207.156 106.806 207.472C106.806 207.789 106.853 208.08 106.948 208.344C107.044 208.608 107.191 208.819 107.388 208.978C107.588 209.136 107.839 209.216 108.141 209.216Z" fill="#727F96"/>
<path d="M153.429 203.333H154.42V208.006C154.42 208.428 154.336 208.79 154.169 209.09C154.004 209.391 153.771 209.62 153.471 209.779C153.17 209.936 152.818 210.014 152.415 210.014C152.044 210.014 151.71 209.946 151.414 209.811C151.12 209.676 150.888 209.48 150.716 209.222C150.546 208.963 150.462 208.647 150.462 208.276H151.45C151.45 208.458 151.491 208.616 151.575 208.749C151.661 208.882 151.778 208.986 151.926 209.061C152.076 209.134 152.248 209.171 152.441 209.171C152.651 209.171 152.829 209.127 152.975 209.039C153.123 208.949 153.236 208.817 153.313 208.643C153.39 208.469 153.429 208.257 153.429 208.006V203.333ZM158.001 210.024C157.514 210.024 157.094 209.92 156.742 209.711C156.393 209.501 156.122 209.206 155.931 208.826C155.743 208.445 155.648 207.997 155.648 207.484C155.648 206.978 155.743 206.532 155.931 206.146C156.122 205.759 156.388 205.458 156.729 205.241C157.073 205.025 157.474 204.916 157.933 204.916C158.212 204.916 158.482 204.962 158.744 205.055C159.006 205.147 159.241 205.292 159.449 205.489C159.657 205.687 159.821 205.943 159.941 206.258C160.061 206.572 160.121 206.952 160.121 207.401V207.742H156.192V207.021H159.179C159.179 206.768 159.127 206.544 159.024 206.348C158.921 206.151 158.776 205.995 158.59 205.882C158.405 205.768 158.188 205.711 157.94 205.711C157.669 205.711 157.433 205.778 157.232 205.911C157.032 206.042 156.878 206.213 156.768 206.426C156.661 206.636 156.607 206.864 156.607 207.111V207.674C156.607 208.005 156.665 208.286 156.781 208.517C156.899 208.749 157.063 208.926 157.273 209.048C157.484 209.169 157.729 209.229 158.01 209.229C158.193 209.229 158.359 209.203 158.509 209.151C158.659 209.098 158.789 209.018 158.899 208.913C159.008 208.808 159.092 208.678 159.15 208.524L160.06 208.688C159.987 208.956 159.857 209.191 159.668 209.393C159.481 209.592 159.246 209.748 158.963 209.859C158.682 209.969 158.361 210.024 158.001 210.024ZM162.231 206.989V209.924H161.269V204.981H162.193V205.785H162.254C162.368 205.523 162.546 205.313 162.788 205.154C163.033 204.996 163.341 204.916 163.712 204.916C164.049 204.916 164.344 204.987 164.597 205.129C164.85 205.268 165.046 205.476 165.186 205.753C165.325 206.03 165.395 206.372 165.395 206.78V209.924H164.433V206.895C164.433 206.537 164.339 206.257 164.153 206.056C163.966 205.852 163.71 205.75 163.384 205.75C163.16 205.75 162.962 205.798 162.788 205.895C162.617 205.991 162.48 206.133 162.379 206.319C162.281 206.504 162.231 206.727 162.231 206.989ZM167.728 206.989V209.924H166.765V204.981H167.689V205.785H167.75C167.864 205.523 168.042 205.313 168.284 205.154C168.529 204.996 168.837 204.916 169.208 204.916C169.545 204.916 169.84 204.987 170.093 205.129C170.346 205.268 170.543 205.476 170.682 205.753C170.821 206.03 170.891 206.372 170.891 206.78V209.924H169.929V206.895C169.929 206.537 169.836 206.257 169.649 206.056C169.462 205.852 169.206 205.75 168.88 205.75C168.657 205.75 168.458 205.798 168.284 205.895C168.113 205.991 167.977 206.133 167.876 206.319C167.777 206.504 167.728 206.727 167.728 206.989ZM172.693 211.778C172.549 211.778 172.418 211.766 172.3 211.742C172.182 211.721 172.094 211.697 172.036 211.671L172.268 210.883C172.444 210.93 172.601 210.95 172.738 210.944C172.875 210.938 172.996 210.886 173.102 210.79C173.209 210.693 173.303 210.535 173.385 210.316L173.504 209.988L171.695 204.981H172.725L173.977 208.817H174.028L175.28 204.981H176.313L174.276 210.584C174.182 210.841 174.062 211.059 173.916 211.237C173.77 211.417 173.596 211.552 173.394 211.642C173.193 211.732 172.959 211.778 172.693 211.778ZM179.853 209.924V203.333H182.203C182.713 203.333 183.137 203.421 183.474 203.597C183.813 203.773 184.066 204.016 184.233 204.327C184.401 204.636 184.484 204.994 184.484 205.399C184.484 205.802 184.4 206.157 184.23 206.464C184.063 206.769 183.81 207.006 183.471 207.175C183.134 207.345 182.71 207.43 182.199 207.43H180.42V206.574H182.109C182.431 206.574 182.693 206.528 182.895 206.435C183.098 206.343 183.247 206.209 183.342 206.033C183.436 205.857 183.483 205.646 183.483 205.399C183.483 205.15 183.435 204.935 183.339 204.752C183.244 204.57 183.095 204.43 182.891 204.334C182.69 204.235 182.425 204.186 182.096 204.186H180.848V209.924H179.853ZM183.107 206.95L184.735 209.924H183.603L182.006 206.95H183.107ZM187.717 210.024C187.254 210.024 186.85 209.917 186.504 209.705C186.159 209.493 185.891 209.195 185.7 208.814C185.509 208.432 185.413 207.985 185.413 207.475C185.413 206.962 185.509 206.514 185.7 206.13C185.891 205.746 186.159 205.447 186.504 205.235C186.85 205.022 187.254 204.916 187.717 204.916C188.181 204.916 188.585 205.022 188.931 205.235C189.276 205.447 189.544 205.746 189.735 206.13C189.926 206.514 190.022 206.962 190.022 207.475C190.022 207.985 189.926 208.432 189.735 208.814C189.544 209.195 189.276 209.493 188.931 209.705C188.585 209.917 188.181 210.024 187.717 210.024ZM187.721 209.216C188.021 209.216 188.27 209.136 188.467 208.978C188.665 208.819 188.811 208.608 188.905 208.344C189.001 208.08 189.05 207.789 189.05 207.472C189.05 207.156 189.001 206.867 188.905 206.603C188.811 206.337 188.665 206.123 188.467 205.962C188.27 205.801 188.021 205.721 187.721 205.721C187.418 205.721 187.167 205.801 186.968 205.962C186.77 206.123 186.623 206.337 186.527 206.603C186.432 206.867 186.385 207.156 186.385 207.472C186.385 207.789 186.432 208.08 186.527 208.344C186.623 208.608 186.77 208.819 186.968 208.978C187.167 209.136 187.418 209.216 187.721 209.216ZM194.88 206.187L194.008 206.342C193.971 206.23 193.913 206.124 193.834 206.023C193.757 205.923 193.652 205.84 193.519 205.776C193.386 205.711 193.219 205.679 193.02 205.679C192.747 205.679 192.52 205.74 192.337 205.862C192.155 205.983 192.064 206.138 192.064 206.329C192.064 206.494 192.125 206.627 192.247 206.728C192.37 206.829 192.567 206.912 192.84 206.976L193.625 207.156C194.08 207.261 194.419 207.423 194.642 207.642C194.865 207.861 194.976 208.145 194.976 208.495C194.976 208.791 194.891 209.055 194.719 209.287C194.549 209.516 194.312 209.696 194.008 209.827C193.705 209.958 193.354 210.024 192.955 210.024C192.402 210.024 191.95 209.906 191.601 209.67C191.251 209.431 191.036 209.094 190.957 208.656L191.887 208.514C191.945 208.757 192.064 208.94 192.244 209.065C192.424 209.187 192.659 209.248 192.949 209.248C193.264 209.248 193.516 209.183 193.705 209.052C193.894 208.919 193.988 208.757 193.988 208.566C193.988 208.411 193.931 208.281 193.815 208.176C193.701 208.071 193.526 207.992 193.29 207.938L192.453 207.755C191.992 207.65 191.651 207.482 191.43 207.253C191.211 207.023 191.102 206.732 191.102 206.381C191.102 206.089 191.183 205.833 191.346 205.615C191.509 205.396 191.735 205.225 192.022 205.103C192.31 204.979 192.639 204.916 193.01 204.916C193.544 204.916 193.965 205.032 194.272 205.264C194.578 205.493 194.781 205.801 194.88 206.187ZM198.245 210.024C197.758 210.024 197.338 209.92 196.987 209.711C196.637 209.501 196.367 209.206 196.176 208.826C195.987 208.445 195.892 207.997 195.892 207.484C195.892 206.978 195.987 206.532 196.176 206.146C196.367 205.759 196.633 205.458 196.974 205.241C197.317 205.025 197.718 204.916 198.177 204.916C198.456 204.916 198.727 204.962 198.988 205.055C199.25 205.147 199.485 205.292 199.693 205.489C199.901 205.687 200.065 205.943 200.185 206.258C200.306 206.572 200.366 206.952 200.366 207.401V207.742H196.436V207.021H199.423C199.423 206.768 199.371 206.544 199.268 206.348C199.165 206.151 199.02 205.995 198.834 205.882C198.649 205.768 198.433 205.711 198.184 205.711C197.913 205.711 197.677 205.778 197.476 205.911C197.276 206.042 197.122 206.213 197.012 206.426C196.905 206.636 196.851 206.864 196.851 207.111V207.674C196.851 208.005 196.909 208.286 197.025 208.517C197.143 208.749 197.307 208.926 197.518 209.048C197.728 209.169 197.973 209.229 198.255 209.229C198.437 209.229 198.603 209.203 198.753 209.151C198.904 209.098 199.033 209.018 199.143 208.913C199.252 208.808 199.336 208.678 199.394 208.524L200.305 208.688C200.232 208.956 200.101 209.191 199.912 209.393C199.725 209.592 199.49 209.748 199.207 209.859C198.926 209.969 198.605 210.024 198.245 210.024ZM202.476 206.989V209.924H201.513V204.981H202.437V205.785H202.498C202.612 205.523 202.79 205.313 203.032 205.154C203.277 204.996 203.585 204.916 203.956 204.916C204.293 204.916 204.588 204.987 204.841 205.129C205.094 205.268 205.29 205.476 205.43 205.753C205.569 206.03 205.639 206.372 205.639 206.78V209.924H204.677V206.895C204.677 206.537 204.584 206.257 204.397 206.056C204.21 205.852 203.954 205.75 203.628 205.75C203.405 205.75 203.206 205.798 203.032 205.895C202.861 205.991 202.724 206.133 202.624 206.319C202.525 206.504 202.476 206.727 202.476 206.989Z" fill="#0A2540"/>
<path d="M100.867 226.924V220.333H104.954V221.189H101.862V223.197H104.661V224.05H101.862V226.924H100.867ZM106.118 226.924V221.981H107.048V222.766H107.1C107.19 222.5 107.348 222.291 107.576 222.138C107.805 221.984 108.065 221.907 108.355 221.907C108.415 221.907 108.486 221.909 108.567 221.913C108.651 221.917 108.716 221.923 108.763 221.929V222.85C108.725 222.839 108.656 222.827 108.557 222.814C108.459 222.799 108.36 222.792 108.261 222.792C108.034 222.792 107.831 222.84 107.653 222.936C107.477 223.031 107.338 223.163 107.235 223.332C107.132 223.5 107.08 223.691 107.08 223.905V226.924H106.118ZM111.581 227.024C111.118 227.024 110.713 226.917 110.368 226.705C110.023 226.493 109.754 226.195 109.563 225.814C109.373 225.432 109.277 224.985 109.277 224.475C109.277 223.962 109.373 223.514 109.563 223.13C109.754 222.746 110.023 222.447 110.368 222.235C110.713 222.022 111.118 221.916 111.581 221.916C112.045 221.916 112.449 222.022 112.795 222.235C113.14 222.447 113.408 222.746 113.599 223.13C113.79 223.514 113.886 223.962 113.886 224.475C113.886 224.985 113.79 225.432 113.599 225.814C113.408 226.195 113.14 226.493 112.795 226.705C112.449 226.917 112.045 227.024 111.581 227.024ZM111.585 226.216C111.885 226.216 112.134 226.136 112.331 225.978C112.529 225.819 112.674 225.608 112.769 225.344C112.865 225.08 112.914 224.789 112.914 224.472C112.914 224.156 112.865 223.867 112.769 223.603C112.674 223.337 112.529 223.123 112.331 222.962C112.134 222.801 111.885 222.721 111.585 222.721C111.282 222.721 111.031 222.801 110.831 222.962C110.634 223.123 110.487 223.337 110.391 223.603C110.296 223.867 110.249 224.156 110.249 224.472C110.249 224.789 110.296 225.08 110.391 225.344C110.487 225.608 110.634 225.819 110.831 225.978C111.031 226.136 111.282 226.216 111.585 226.216ZM115.04 226.924V221.981H115.963V222.785H116.024C116.127 222.513 116.296 222.3 116.53 222.148C116.764 221.994 117.044 221.916 117.37 221.916C117.7 221.916 117.977 221.994 118.2 222.148C118.425 222.302 118.591 222.515 118.699 222.785H118.75C118.868 222.521 119.056 222.311 119.313 222.154C119.571 221.996 119.878 221.916 120.234 221.916C120.682 221.916 121.048 222.057 121.331 222.338C121.617 222.619 121.759 223.043 121.759 223.609V226.924H120.797V223.699C120.797 223.364 120.706 223.122 120.523 222.972C120.341 222.822 120.123 222.747 119.87 222.747C119.557 222.747 119.313 222.843 119.14 223.036C118.966 223.227 118.879 223.473 118.879 223.773V226.924H117.92V223.638C117.92 223.37 117.836 223.154 117.669 222.991C117.502 222.828 117.284 222.747 117.016 222.747C116.833 222.747 116.665 222.795 116.51 222.891C116.358 222.986 116.235 223.118 116.14 223.287C116.048 223.457 116.002 223.653 116.002 223.876V226.924H115.04Z" fill="#727F96"/>
<path d="M150.88 226.924V220.219H153.269C153.791 220.219 154.223 220.314 154.566 220.504C154.908 220.694 155.165 220.954 155.335 221.283C155.505 221.611 155.591 221.979 155.591 222.39C155.591 222.802 155.504 223.173 155.332 223.503C155.162 223.83 154.904 224.09 154.559 224.282C154.217 224.472 153.786 224.567 153.266 224.567H151.623V223.709H153.175C153.504 223.709 153.771 223.652 153.977 223.539C154.182 223.423 154.332 223.266 154.428 223.067C154.524 222.869 154.572 222.643 154.572 222.39C154.572 222.137 154.524 221.912 154.428 221.715C154.332 221.519 154.181 221.365 153.973 221.254C153.768 221.142 153.498 221.087 153.161 221.087H151.891V226.924H150.88ZM158.833 227.025C158.361 227.025 157.95 226.917 157.599 226.701C157.247 226.485 156.975 226.183 156.78 225.794C156.586 225.406 156.489 224.952 156.489 224.433C156.489 223.911 156.586 223.455 156.78 223.064C156.975 222.673 157.247 222.37 157.599 222.154C157.95 221.938 158.361 221.83 158.833 221.83C159.304 221.83 159.716 221.938 160.067 222.154C160.418 222.37 160.691 222.673 160.886 223.064C161.08 223.455 161.177 223.911 161.177 224.433C161.177 224.952 161.08 225.406 160.886 225.794C160.691 226.183 160.418 226.485 160.067 226.701C159.716 226.917 159.304 227.025 158.833 227.025ZM158.836 226.204C159.142 226.204 159.395 226.123 159.596 225.961C159.796 225.8 159.945 225.585 160.041 225.316C160.139 225.048 160.188 224.752 160.188 224.429C160.188 224.108 160.139 223.814 160.041 223.545C159.945 223.275 159.796 223.058 159.596 222.894C159.395 222.73 159.142 222.648 158.836 222.648C158.528 222.648 158.273 222.73 158.07 222.894C157.869 223.058 157.72 223.275 157.622 223.545C157.526 223.814 157.478 224.108 157.478 224.429C157.478 224.752 157.526 225.048 157.622 225.316C157.72 225.585 157.869 225.8 158.07 225.961C158.273 226.123 158.528 226.204 158.836 226.204ZM163.287 226.924L161.807 221.895H162.818L163.804 225.588H163.853L164.842 221.895H165.853L166.835 225.572H166.884L167.863 221.895H168.875L167.398 226.924H166.4L165.378 223.293H165.303L164.282 226.924H163.287ZM171.613 227.022C171.207 227.022 170.845 226.918 170.526 226.711C170.21 226.502 169.961 226.204 169.78 225.817C169.601 225.429 169.511 224.963 169.511 224.419C169.511 223.876 169.602 223.411 169.783 223.025C169.966 222.639 170.217 222.343 170.536 222.138C170.855 221.933 171.216 221.83 171.62 221.83C171.932 221.83 172.183 221.882 172.373 221.987C172.565 222.09 172.713 222.21 172.818 222.347C172.925 222.485 173.008 222.606 173.067 222.711H173.125V220.219H174.104V226.924H173.148V226.141H173.067C173.008 226.248 172.923 226.371 172.811 226.508C172.702 226.646 172.551 226.766 172.359 226.868C172.167 226.971 171.919 227.022 171.613 227.022ZM171.829 226.187C172.111 226.187 172.349 226.113 172.543 225.965C172.739 225.814 172.888 225.606 172.988 225.339C173.091 225.073 173.142 224.763 173.142 224.41C173.142 224.06 173.092 223.755 172.991 223.493C172.891 223.231 172.744 223.027 172.549 222.881C172.355 222.735 172.115 222.661 171.829 222.661C171.534 222.661 171.289 222.738 171.093 222.891C170.896 223.043 170.748 223.252 170.647 223.516C170.549 223.78 170.5 224.078 170.5 224.41C170.5 224.746 170.55 225.048 170.651 225.316C170.751 225.585 170.899 225.798 171.096 225.955C171.294 226.11 171.539 226.187 171.829 226.187ZM178.767 224.838V221.895H179.749V226.924H178.786V226.053H178.734C178.618 226.321 178.433 226.545 178.177 226.724C177.924 226.901 177.609 226.989 177.231 226.989C176.908 226.989 176.622 226.918 176.374 226.777C176.127 226.632 175.933 226.42 175.791 226.138C175.651 225.857 175.581 225.508 175.581 225.094V221.895H176.56V224.976C176.56 225.319 176.655 225.591 176.845 225.794C177.035 225.997 177.282 226.099 177.585 226.099C177.768 226.099 177.95 226.053 178.132 225.961C178.315 225.87 178.467 225.731 178.587 225.546C178.709 225.36 178.769 225.124 178.767 224.838ZM181.144 226.924V221.895H182.09V222.694H182.142C182.234 222.424 182.396 222.211 182.627 222.056C182.861 221.899 183.125 221.82 183.419 221.82C183.48 221.82 183.552 221.822 183.635 221.827C183.72 221.831 183.787 221.836 183.835 221.843V222.779C183.796 222.768 183.726 222.756 183.625 222.743C183.525 222.728 183.425 222.72 183.324 222.72C183.093 222.72 182.887 222.769 182.706 222.868C182.527 222.964 182.385 223.098 182.28 223.27C182.175 223.441 182.123 223.635 182.123 223.853V226.924H181.144Z" fill="#0A2540"/>
<path d="M100.905 236.992H102.174L104.381 242.38H104.462L106.669 236.992H107.938V243.924H106.943V238.908H106.879L104.834 243.914H104.008L101.964 238.904H101.9V243.924H100.905V236.992ZM111.698 244.029C111.186 244.029 110.745 243.919 110.375 243.7C110.007 243.479 109.722 243.169 109.522 242.77C109.323 242.368 109.224 241.898 109.224 241.358C109.224 240.826 109.323 240.356 109.522 239.95C109.722 239.544 110.002 239.227 110.361 238.999C110.722 238.771 111.144 238.657 111.627 238.657C111.92 238.657 112.205 238.706 112.48 238.803C112.755 238.9 113.002 239.052 113.221 239.26C113.44 239.467 113.613 239.737 113.739 240.069C113.865 240.398 113.928 240.799 113.928 241.27V241.629H109.796V240.871H112.937C112.937 240.605 112.883 240.369 112.774 240.163C112.666 239.956 112.514 239.792 112.317 239.673C112.123 239.553 111.895 239.493 111.634 239.493C111.349 239.493 111.101 239.563 110.889 239.703C110.679 239.841 110.517 240.021 110.402 240.245C110.289 240.466 110.232 240.706 110.232 240.966V241.558C110.232 241.905 110.293 242.201 110.415 242.445C110.539 242.688 110.712 242.875 110.933 243.003C111.154 243.13 111.413 243.193 111.708 243.193C111.9 243.193 112.075 243.166 112.233 243.112C112.391 243.055 112.527 242.972 112.642 242.861C112.757 242.75 112.845 242.614 112.906 242.451L113.864 242.624C113.787 242.906 113.65 243.153 113.451 243.365C113.255 243.575 113.008 243.739 112.71 243.856C112.414 243.971 112.077 244.029 111.698 244.029ZM115.131 243.924V238.725H116.103V239.571H116.167C116.275 239.285 116.452 239.061 116.698 238.901C116.944 238.739 117.239 238.657 117.582 238.657C117.929 238.657 118.22 238.739 118.455 238.901C118.692 239.063 118.867 239.287 118.98 239.571H119.034C119.158 239.294 119.355 239.072 119.626 238.908C119.897 238.741 120.22 238.657 120.594 238.657C121.066 238.657 121.451 238.805 121.748 239.101C122.048 239.396 122.199 239.842 122.199 240.438V243.924H121.187V240.532C121.187 240.18 121.091 239.925 120.899 239.767C120.707 239.609 120.478 239.531 120.212 239.531C119.882 239.531 119.626 239.632 119.443 239.835C119.261 240.036 119.169 240.294 119.169 240.61V243.924H118.161V240.468C118.161 240.186 118.073 239.959 117.897 239.788C117.721 239.616 117.492 239.531 117.21 239.531C117.018 239.531 116.841 239.581 116.678 239.683C116.518 239.782 116.388 239.921 116.289 240.099C116.192 240.277 116.143 240.484 116.143 240.719V243.924H115.131ZM125.825 244.029C125.337 244.029 124.912 243.917 124.549 243.694C124.186 243.47 123.903 243.158 123.703 242.756C123.502 242.354 123.401 241.885 123.401 241.348C123.401 240.809 123.502 240.337 123.703 239.933C123.903 239.529 124.186 239.216 124.549 238.992C124.912 238.769 125.337 238.657 125.825 238.657C126.312 238.657 126.738 238.769 127.101 238.992C127.464 239.216 127.746 239.529 127.947 239.933C128.148 240.337 128.248 240.809 128.248 241.348C128.248 241.885 128.148 242.354 127.947 242.756C127.746 243.158 127.464 243.47 127.101 243.694C126.738 243.917 126.312 244.029 125.825 244.029ZM125.828 243.179C126.144 243.179 126.406 243.096 126.613 242.929C126.821 242.762 126.974 242.539 127.074 242.262C127.175 241.984 127.226 241.679 127.226 241.345C127.226 241.013 127.175 240.708 127.074 240.431C126.974 240.151 126.821 239.927 126.613 239.757C126.406 239.588 126.144 239.503 125.828 239.503C125.51 239.503 125.246 239.588 125.036 239.757C124.829 239.927 124.674 240.151 124.573 240.431C124.473 240.708 124.424 241.013 124.424 241.345C124.424 241.679 124.473 241.984 124.573 242.262C124.674 242.539 124.829 242.762 125.036 242.929C125.246 243.096 125.51 243.179 125.828 243.179Z" fill="#727F96"/>
<path d="M156.187 237.333V243.924H155.273L151.923 239.09H151.862V243.924H150.867V237.333H151.788L155.141 242.173H155.202V237.333H156.187ZM159.722 244.024C159.259 244.024 158.855 243.917 158.509 243.705C158.164 243.493 157.896 243.195 157.705 242.814C157.514 242.432 157.418 241.985 157.418 241.475C157.418 240.962 157.514 240.514 157.705 240.13C157.896 239.746 158.164 239.447 158.509 239.235C158.855 239.022 159.259 238.916 159.722 238.916C160.186 238.916 160.59 239.022 160.936 239.235C161.281 239.447 161.549 239.746 161.74 240.13C161.931 240.514 162.027 240.962 162.027 241.475C162.027 241.985 161.931 242.432 161.74 242.814C161.549 243.195 161.281 243.493 160.936 243.705C160.59 243.917 160.186 244.024 159.722 244.024ZM159.726 243.216C160.026 243.216 160.275 243.136 160.472 242.978C160.67 242.819 160.816 242.608 160.91 242.344C161.007 242.08 161.055 241.789 161.055 241.472C161.055 241.156 161.007 240.867 160.91 240.603C160.816 240.337 160.67 240.123 160.472 239.962C160.275 239.801 160.026 239.721 159.726 239.721C159.423 239.721 159.172 239.801 158.973 239.962C158.775 240.123 158.628 240.337 158.532 240.603C158.437 240.867 158.39 241.156 158.39 241.472C158.39 241.789 158.437 242.08 158.532 242.344C158.628 242.608 158.775 242.819 158.973 242.978C159.172 243.136 159.423 243.216 159.726 243.216ZM165.488 238.981V239.753H162.788V238.981H165.488ZM163.512 237.796H164.474V242.472C164.474 242.659 164.502 242.8 164.558 242.894C164.614 242.986 164.686 243.05 164.774 243.084C164.864 243.116 164.962 243.132 165.067 243.132C165.144 243.132 165.211 243.127 165.269 243.116C165.327 243.105 165.372 243.097 165.405 243.09L165.578 243.885C165.523 243.907 165.443 243.928 165.34 243.95C165.237 243.973 165.108 243.986 164.954 243.988C164.701 243.992 164.465 243.947 164.246 243.853C164.027 243.759 163.85 243.613 163.715 243.415C163.58 243.218 163.512 242.97 163.512 242.672V237.796ZM168.71 244.024C168.223 244.024 167.804 243.92 167.452 243.711C167.102 243.501 166.832 243.206 166.641 242.826C166.452 242.445 166.357 241.997 166.357 241.484C166.357 240.978 166.452 240.532 166.641 240.146C166.832 239.759 167.098 239.458 167.439 239.241C167.782 239.025 168.183 238.916 168.642 238.916C168.921 238.916 169.192 238.962 169.453 239.055C169.715 239.147 169.95 239.292 170.158 239.489C170.366 239.687 170.53 239.943 170.651 240.258C170.771 240.572 170.831 240.952 170.831 241.401V241.742H166.901V241.021H169.888C169.888 240.768 169.836 240.544 169.733 240.348C169.63 240.151 169.486 239.995 169.299 239.882C169.114 239.768 168.898 239.711 168.649 239.711C168.379 239.711 168.143 239.778 167.941 239.911C167.741 240.042 167.587 240.213 167.477 240.426C167.37 240.636 167.317 240.864 167.317 241.111V241.674C167.317 242.005 167.374 242.286 167.49 242.517C167.608 242.749 167.772 242.926 167.983 243.048C168.193 243.169 168.439 243.229 168.72 243.229C168.902 243.229 169.068 243.203 169.218 243.151C169.369 243.098 169.498 243.018 169.608 242.913C169.717 242.808 169.801 242.678 169.859 242.524L170.77 242.688C170.697 242.956 170.566 243.191 170.377 243.393C170.19 243.592 169.955 243.748 169.672 243.859C169.391 243.969 169.07 244.024 168.71 244.024ZM176.764 238.981V239.753H174.064V238.981H176.764ZM174.788 237.796H175.751V242.472C175.751 242.659 175.778 242.8 175.834 242.894C175.89 242.986 175.962 243.05 176.05 243.084C176.14 243.116 176.238 243.132 176.343 243.132C176.42 243.132 176.488 243.127 176.545 243.116C176.603 243.105 176.648 243.097 176.681 243.09L176.854 243.885C176.799 243.907 176.719 243.928 176.616 243.95C176.513 243.973 176.385 243.986 176.23 243.988C175.977 243.992 175.741 243.947 175.522 243.853C175.303 243.759 175.126 243.613 174.991 243.415C174.856 243.218 174.788 242.97 174.788 242.672V237.796ZM178.977 240.989V243.924H178.015V237.333H178.964V239.785H179.025C179.141 239.519 179.318 239.308 179.556 239.151C179.795 238.995 180.106 238.916 180.49 238.916C180.829 238.916 181.125 238.986 181.378 239.125C181.633 239.265 181.831 239.473 181.97 239.75C182.112 240.024 182.183 240.368 182.183 240.78V243.924H181.22V240.895C181.22 240.533 181.127 240.252 180.94 240.052C180.754 239.851 180.494 239.75 180.161 239.75C179.934 239.75 179.73 239.798 179.55 239.895C179.372 239.991 179.231 240.133 179.128 240.319C179.028 240.504 178.977 240.727 178.977 240.989ZM183.547 243.924V238.981H184.509V243.924H183.547ZM184.033 238.218C183.865 238.218 183.721 238.162 183.601 238.051C183.483 237.937 183.424 237.802 183.424 237.645C183.424 237.486 183.483 237.351 183.601 237.24C183.721 237.126 183.865 237.069 184.033 237.069C184.2 237.069 184.343 237.126 184.461 237.24C184.581 237.351 184.641 237.486 184.641 237.645C184.641 237.802 184.581 237.937 184.461 238.051C184.343 238.162 184.2 238.218 184.033 238.218ZM189.588 240.187L188.715 240.342C188.679 240.23 188.621 240.124 188.542 240.023C188.464 239.923 188.359 239.84 188.226 239.776C188.093 239.711 187.927 239.679 187.727 239.679C187.455 239.679 187.227 239.74 187.045 239.862C186.863 239.983 186.772 240.138 186.772 240.329C186.772 240.494 186.833 240.627 186.955 240.728C187.077 240.829 187.275 240.912 187.547 240.976L188.332 241.156C188.787 241.261 189.126 241.423 189.349 241.642C189.573 241.861 189.684 242.145 189.684 242.495C189.684 242.791 189.598 243.055 189.427 243.287C189.257 243.516 189.02 243.696 188.715 243.827C188.413 243.958 188.062 244.024 187.663 244.024C187.109 244.024 186.658 243.906 186.308 243.67C185.958 243.431 185.744 243.094 185.665 242.656L186.595 242.514C186.653 242.757 186.772 242.94 186.952 243.065C187.132 243.187 187.367 243.248 187.657 243.248C187.972 243.248 188.224 243.183 188.413 243.052C188.602 242.919 188.696 242.757 188.696 242.566C188.696 242.411 188.638 242.281 188.522 242.176C188.409 242.071 188.234 241.992 187.998 241.938L187.161 241.755C186.7 241.65 186.359 241.482 186.138 241.253C185.919 241.023 185.809 240.732 185.809 240.381C185.809 240.089 185.891 239.833 186.054 239.615C186.217 239.396 186.442 239.225 186.73 239.103C187.017 238.979 187.347 238.916 187.718 238.916C188.252 238.916 188.672 239.032 188.979 239.264C189.286 239.493 189.489 239.801 189.588 240.187ZM193.3 243.924V238.981H194.263V243.924H193.3ZM193.786 238.218C193.619 238.218 193.475 238.162 193.355 238.051C193.237 237.937 193.178 237.802 193.178 237.645C193.178 237.486 193.237 237.351 193.355 237.24C193.475 237.126 193.619 237.069 193.786 237.069C193.954 237.069 194.096 237.126 194.214 237.24C194.335 237.351 194.395 237.486 194.395 237.645C194.395 237.802 194.335 237.937 194.214 238.051C194.096 238.162 193.954 238.218 193.786 238.218ZM196.599 240.989V243.924H195.637V238.981H196.561V239.785H196.622C196.736 239.523 196.914 239.313 197.156 239.154C197.401 238.996 197.709 238.916 198.08 238.916C198.417 238.916 198.712 238.987 198.965 239.129C199.218 239.268 199.414 239.476 199.554 239.753C199.693 240.03 199.763 240.372 199.763 240.78V243.924H198.801V240.895C198.801 240.537 198.707 240.257 198.521 240.056C198.334 239.852 198.078 239.75 197.752 239.75C197.528 239.75 197.33 239.798 197.156 239.895C196.985 239.991 196.848 240.133 196.747 240.319C196.649 240.504 196.599 240.727 196.599 240.989ZM203.216 244.024C202.737 244.024 202.325 243.915 201.98 243.699C201.637 243.48 201.373 243.178 201.188 242.794C201.004 242.41 200.911 241.97 200.911 241.475C200.911 240.973 201.006 240.53 201.195 240.146C201.383 239.759 201.649 239.458 201.993 239.241C202.336 239.025 202.74 238.916 203.206 238.916C203.581 238.916 203.916 238.986 204.21 239.125C204.504 239.263 204.741 239.456 204.921 239.705C205.104 239.954 205.212 240.244 205.246 240.577H204.31C204.258 240.345 204.14 240.146 203.956 239.978C203.773 239.811 203.529 239.727 203.222 239.727C202.954 239.727 202.719 239.798 202.517 239.94C202.318 240.079 202.162 240.279 202.051 240.538C201.939 240.796 201.883 241.1 201.883 241.452C201.883 241.813 201.938 242.124 202.047 242.386C202.157 242.647 202.311 242.85 202.511 242.994C202.713 243.138 202.95 243.209 203.222 243.209C203.404 243.209 203.57 243.176 203.718 243.11C203.868 243.041 203.993 242.943 204.094 242.817C204.197 242.69 204.269 242.538 204.31 242.36H205.246C205.212 242.679 205.108 242.965 204.934 243.216C204.76 243.467 204.528 243.664 204.236 243.808C203.946 243.952 203.606 244.024 203.216 244.024ZM207.318 237.333V243.924H206.355V237.333H207.318ZM211.823 241.874V238.981H212.789V243.924H211.843V243.068H211.791C211.678 243.332 211.495 243.552 211.244 243.728C210.995 243.901 210.685 243.988 210.314 243.988C209.997 243.988 209.716 243.918 209.471 243.779C209.229 243.637 209.038 243.428 208.898 243.151C208.761 242.875 208.692 242.532 208.692 242.125V238.981H209.654V242.009C209.654 242.346 209.748 242.614 209.934 242.814C210.121 243.013 210.363 243.113 210.662 243.113C210.842 243.113 211.021 243.068 211.199 242.978C211.379 242.888 211.528 242.751 211.646 242.569C211.767 242.387 211.826 242.155 211.823 241.874ZM216.012 244.02C215.613 244.02 215.257 243.918 214.944 243.715C214.633 243.509 214.388 243.216 214.21 242.836C214.034 242.454 213.946 241.996 213.946 241.462C213.946 240.928 214.035 240.471 214.213 240.091C214.394 239.711 214.64 239.42 214.954 239.219C215.267 239.017 215.622 238.916 216.019 238.916C216.326 238.916 216.572 238.968 216.759 239.071C216.948 239.172 217.094 239.29 217.197 239.425C217.302 239.56 217.383 239.679 217.441 239.782H217.499V237.333H218.461V243.924H217.522V243.155H217.441C217.383 243.26 217.3 243.38 217.19 243.515C217.083 243.65 216.935 243.768 216.746 243.869C216.557 243.97 216.313 244.02 216.012 244.02ZM216.225 243.2C216.502 243.2 216.735 243.127 216.926 242.981C217.119 242.833 217.265 242.628 217.364 242.366C217.465 242.104 217.515 241.8 217.515 241.452C217.515 241.109 217.466 240.809 217.367 240.551C217.269 240.294 217.124 240.093 216.933 239.949C216.742 239.806 216.506 239.734 216.225 239.734C215.935 239.734 215.694 239.809 215.501 239.959C215.308 240.109 215.162 240.314 215.063 240.574C214.966 240.833 214.918 241.126 214.918 241.452C214.918 241.783 214.967 242.08 215.066 242.344C215.165 242.608 215.311 242.817 215.504 242.971C215.699 243.124 215.939 243.2 216.225 243.2ZM222.045 244.024C221.558 244.024 221.139 243.92 220.787 243.711C220.437 243.501 220.167 243.206 219.976 242.826C219.787 242.445 219.693 241.997 219.693 241.484C219.693 240.978 219.787 240.532 219.976 240.146C220.167 239.759 220.433 239.458 220.774 239.241C221.117 239.025 221.519 238.916 221.978 238.916C222.257 238.916 222.527 238.962 222.789 239.055C223.05 239.147 223.285 239.292 223.493 239.489C223.702 239.687 223.866 239.943 223.986 240.258C224.106 240.572 224.166 240.952 224.166 241.401V241.742H220.237V241.021H223.223C223.223 240.768 223.172 240.544 223.069 240.348C222.966 240.151 222.821 239.995 222.634 239.882C222.45 239.768 222.233 239.711 221.984 239.711C221.714 239.711 221.478 239.778 221.276 239.911C221.077 240.042 220.922 240.213 220.813 240.426C220.705 240.636 220.652 240.864 220.652 241.111V241.674C220.652 242.005 220.71 242.286 220.826 242.517C220.944 242.749 221.108 242.926 221.318 243.048C221.528 243.169 221.774 243.229 222.055 243.229C222.237 243.229 222.404 243.203 222.554 243.151C222.704 243.098 222.834 243.018 222.943 242.913C223.053 242.808 223.136 242.678 223.194 242.524L224.105 242.688C224.032 242.956 223.901 243.191 223.712 243.393C223.526 243.592 223.291 243.748 223.007 243.859C222.726 243.969 222.406 244.024 222.045 244.024ZM229.018 240.187L228.146 240.342C228.109 240.23 228.051 240.124 227.972 240.023C227.895 239.923 227.79 239.84 227.657 239.776C227.524 239.711 227.357 239.679 227.158 239.679C226.885 239.679 226.658 239.74 226.475 239.862C226.293 239.983 226.202 240.138 226.202 240.329C226.202 240.494 226.263 240.627 226.385 240.728C226.508 240.829 226.705 240.912 226.978 240.976L227.763 241.156C228.218 241.261 228.557 241.423 228.78 241.642C229.003 241.861 229.114 242.145 229.114 242.495C229.114 242.791 229.029 243.055 228.857 243.287C228.687 243.516 228.45 243.696 228.146 243.827C227.843 243.958 227.492 244.024 227.093 244.024C226.54 244.024 226.088 243.906 225.738 243.67C225.389 243.431 225.174 243.094 225.095 242.656L226.025 242.514C226.083 242.757 226.202 242.94 226.382 243.065C226.562 243.187 226.797 243.248 227.087 243.248C227.402 243.248 227.654 243.183 227.843 243.052C228.032 242.919 228.126 242.757 228.126 242.566C228.126 242.411 228.068 242.281 227.953 242.176C227.839 242.071 227.664 241.992 227.428 241.938L226.591 241.755C226.13 241.65 225.789 241.482 225.568 241.253C225.349 241.023 225.24 240.732 225.24 240.381C225.24 240.089 225.321 239.833 225.484 239.615C225.647 239.396 225.873 239.225 226.16 239.103C226.448 238.979 226.777 238.916 227.148 238.916C227.682 238.916 228.103 239.032 228.41 239.264C228.716 239.493 228.919 239.801 229.018 240.187ZM233.693 240.989V243.924H232.731V238.981H233.654V239.785H233.716C233.829 239.523 234.007 239.313 234.25 239.154C234.494 238.996 234.802 238.916 235.173 238.916C235.51 238.916 235.805 238.987 236.058 239.129C236.312 239.268 236.508 239.476 236.647 239.753C236.787 240.03 236.857 240.372 236.857 240.78V243.924H235.894V240.895C235.894 240.537 235.801 240.257 235.614 240.056C235.428 239.852 235.171 239.75 234.845 239.75C234.622 239.75 234.424 239.798 234.25 239.895C234.078 239.991 233.942 240.133 233.841 240.319C233.742 240.504 233.693 240.727 233.693 240.989ZM238.227 243.924V238.981H239.189V243.924H238.227ZM238.713 238.218C238.546 238.218 238.402 238.162 238.282 238.051C238.164 237.937 238.105 237.802 238.105 237.645C238.105 237.486 238.164 237.351 238.282 237.24C238.402 237.126 238.546 237.069 238.713 237.069C238.88 237.069 239.023 237.126 239.141 237.24C239.261 237.351 239.321 237.486 239.321 237.645C239.321 237.802 239.261 237.937 239.141 238.051C239.023 238.162 238.88 238.218 238.713 238.218ZM241.526 240.989V243.924H240.564V238.981H241.487V239.785H241.549C241.662 239.523 241.84 239.313 242.083 239.154C242.327 238.996 242.635 238.916 243.006 238.916C243.343 238.916 243.638 238.987 243.891 239.129C244.145 239.268 244.341 239.476 244.48 239.753C244.62 240.03 244.69 240.372 244.69 240.78V243.924H243.727V240.895C243.727 240.537 243.634 240.257 243.447 240.056C243.261 239.852 243.004 239.75 242.678 239.75C242.455 239.75 242.257 239.798 242.083 239.895C241.911 239.991 241.775 240.133 241.674 240.319C241.575 240.504 241.526 240.727 241.526 240.989ZM248.191 244.024C247.703 244.024 247.284 243.92 246.932 243.711C246.582 243.501 246.312 243.206 246.121 242.826C245.932 242.445 245.838 241.997 245.838 241.484C245.838 240.978 245.932 240.532 246.121 240.146C246.312 239.759 246.578 239.458 246.919 239.241C247.263 239.025 247.664 238.916 248.123 238.916C248.402 238.916 248.672 238.962 248.934 239.055C249.196 239.147 249.431 239.292 249.639 239.489C249.847 239.687 250.011 239.943 250.131 240.258C250.251 240.572 250.311 240.952 250.311 241.401V241.742H246.382V241.021H249.368C249.368 240.768 249.317 240.544 249.214 240.348C249.111 240.151 248.966 239.995 248.779 239.882C248.595 239.768 248.378 239.711 248.129 239.711C247.859 239.711 247.623 239.778 247.421 239.911C247.222 240.042 247.067 240.213 246.958 240.426C246.851 240.636 246.797 240.864 246.797 241.111V241.674C246.797 242.005 246.855 242.286 246.971 242.517C247.089 242.749 247.253 242.926 247.463 243.048C247.673 243.169 247.919 243.229 248.2 243.229C248.383 243.229 248.549 243.203 248.699 243.151C248.849 243.098 248.979 243.018 249.088 242.913C249.198 242.808 249.281 242.678 249.339 242.524L250.25 242.688C250.177 242.956 250.046 243.191 249.858 243.393C249.671 243.592 249.436 243.748 249.153 243.859C248.872 243.969 248.551 244.024 248.191 244.024ZM256.068 244.024C255.581 244.024 255.161 243.92 254.809 243.711C254.46 243.501 254.189 243.206 253.998 242.826C253.81 242.445 253.715 241.997 253.715 241.484C253.715 240.978 253.81 240.532 253.998 240.146C254.189 239.759 254.455 239.458 254.797 239.241C255.14 239.025 255.541 238.916 256 238.916C256.279 238.916 256.549 238.962 256.811 239.055C257.073 239.147 257.308 239.292 257.516 239.489C257.724 239.687 257.888 239.943 258.008 240.258C258.129 240.572 258.189 240.952 258.189 241.401V241.742H254.259V241.021H257.246C257.246 240.768 257.194 240.544 257.091 240.348C256.988 240.151 256.843 239.995 256.657 239.882C256.472 239.768 256.256 239.711 256.007 239.711C255.736 239.711 255.5 239.778 255.299 239.911C255.099 240.042 254.945 240.213 254.835 240.426C254.728 240.636 254.674 240.864 254.674 241.111V241.674C254.674 242.005 254.732 242.286 254.848 242.517C254.966 242.749 255.13 242.926 255.34 243.048C255.551 243.169 255.796 243.229 256.077 243.229C256.26 243.229 256.426 243.203 256.576 243.151C256.726 243.098 256.856 243.018 256.966 242.913C257.075 242.808 257.159 242.678 257.217 242.524L258.127 242.688C258.055 242.956 257.924 243.191 257.735 243.393C257.548 243.592 257.313 243.748 257.03 243.859C256.749 243.969 256.428 244.024 256.068 244.024ZM261.187 244.02C260.788 244.02 260.432 243.918 260.118 243.715C259.807 243.509 259.563 243.216 259.385 242.836C259.209 242.454 259.121 241.996 259.121 241.462C259.121 240.928 259.21 240.471 259.388 240.091C259.568 239.711 259.815 239.42 260.128 239.219C260.441 239.017 260.796 238.916 261.193 238.916C261.5 238.916 261.747 238.968 261.933 239.071C262.122 239.172 262.268 239.29 262.371 239.425C262.476 239.56 262.558 239.679 262.616 239.782H262.674V237.333H263.636V243.924H262.696V243.155H262.616C262.558 243.26 262.474 243.38 262.365 243.515C262.257 243.65 262.109 243.768 261.92 243.869C261.732 243.97 261.487 244.02 261.187 244.02ZM261.399 243.2C261.676 243.2 261.91 243.127 262.101 242.981C262.294 242.833 262.44 242.628 262.538 242.366C262.639 242.104 262.69 241.8 262.69 241.452C262.69 241.109 262.64 240.809 262.542 240.551C262.443 240.294 262.298 240.093 262.107 239.949C261.916 239.806 261.68 239.734 261.399 239.734C261.109 239.734 260.868 239.809 260.675 239.959C260.482 240.109 260.336 240.314 260.237 240.574C260.141 240.833 260.093 241.126 260.093 241.452C260.093 241.783 260.142 242.08 260.241 242.344C260.339 242.608 260.485 242.817 260.678 242.971C260.873 243.124 261.114 243.2 261.399 243.2ZM265.089 243.924V238.981H266.051V243.924H265.089ZM265.575 238.218C265.408 238.218 265.264 238.162 265.144 238.051C265.026 237.937 264.967 237.802 264.967 237.645C264.967 237.486 265.026 237.351 265.144 237.24C265.264 237.126 265.408 237.069 265.575 237.069C265.742 237.069 265.885 237.126 266.003 237.24C266.123 237.351 266.183 237.486 266.183 237.645C266.183 237.802 266.123 237.937 266.003 238.051C265.885 238.162 265.742 238.218 265.575 238.218ZM269.733 238.981V239.753H267.033V238.981H269.733ZM267.757 237.796H268.72V242.472C268.72 242.659 268.748 242.8 268.803 242.894C268.859 242.986 268.931 243.05 269.019 243.084C269.109 243.116 269.207 243.132 269.312 243.132C269.389 243.132 269.457 243.127 269.515 243.116C269.572 243.105 269.618 243.097 269.65 243.09L269.824 243.885C269.768 243.907 269.688 243.928 269.585 243.95C269.482 243.973 269.354 243.986 269.199 243.988C268.946 243.992 268.71 243.947 268.491 243.853C268.272 243.759 268.095 243.613 267.96 243.415C267.825 243.218 267.757 242.97 267.757 242.672V237.796ZM272.907 244.024C272.443 244.024 272.039 243.917 271.694 243.705C271.348 243.493 271.08 243.195 270.889 242.814C270.698 242.432 270.603 241.985 270.603 241.475C270.603 240.962 270.698 240.514 270.889 240.13C271.08 239.746 271.348 239.447 271.694 239.235C272.039 239.022 272.443 238.916 272.907 238.916C273.37 238.916 273.775 239.022 274.12 239.235C274.466 239.447 274.734 239.746 274.925 240.13C275.116 240.514 275.211 240.962 275.211 241.475C275.211 241.985 275.116 242.432 274.925 242.814C274.734 243.195 274.466 243.493 274.12 243.705C273.775 243.917 273.37 244.024 272.907 244.024ZM272.91 243.216C273.21 243.216 273.459 243.136 273.657 242.978C273.854 242.819 274 242.608 274.094 242.344C274.191 242.08 274.239 241.789 274.239 241.472C274.239 241.156 274.191 240.867 274.094 240.603C274 240.337 273.854 240.123 273.657 239.962C273.459 239.801 273.21 239.721 272.91 239.721C272.608 239.721 272.357 239.801 272.157 239.962C271.96 240.123 271.813 240.337 271.716 240.603C271.622 240.867 271.575 241.156 271.575 241.472C271.575 241.789 271.622 242.08 271.716 242.344C271.813 242.608 271.96 242.819 272.157 242.978C272.357 243.136 272.608 243.216 272.91 243.216ZM276.365 243.924V238.981H277.295V239.766H277.347C277.437 239.5 277.596 239.291 277.823 239.138C278.053 238.984 278.312 238.907 278.602 238.907C278.662 238.907 278.733 238.909 278.814 238.913C278.898 238.917 278.963 238.923 279.011 238.929V239.85C278.972 239.839 278.903 239.827 278.805 239.814C278.706 239.799 278.607 239.792 278.509 239.792C278.281 239.792 278.078 239.84 277.9 239.936C277.724 240.031 277.585 240.163 277.482 240.332C277.379 240.5 277.327 240.691 277.327 240.905V243.924H276.365ZM283.627 240.187L282.755 240.342C282.719 240.23 282.661 240.124 282.582 240.023C282.504 239.923 282.399 239.84 282.266 239.776C282.133 239.711 281.967 239.679 281.767 239.679C281.495 239.679 281.267 239.74 281.085 239.862C280.903 239.983 280.812 240.138 280.812 240.329C280.812 240.494 280.873 240.627 280.995 240.728C281.117 240.829 281.315 240.912 281.587 240.976L282.372 241.156C282.827 241.261 283.166 241.423 283.389 241.642C283.612 241.861 283.724 242.145 283.724 242.495C283.724 242.791 283.638 243.055 283.467 243.287C283.297 243.516 283.06 243.696 282.755 243.827C282.453 243.958 282.102 244.024 281.703 244.024C281.149 244.024 280.698 243.906 280.348 243.67C279.998 243.431 279.784 243.094 279.704 242.656L280.635 242.514C280.692 242.757 280.812 242.94 280.992 243.065C281.172 243.187 281.407 243.248 281.697 243.248C282.012 243.248 282.264 243.183 282.453 243.052C282.642 242.919 282.736 242.757 282.736 242.566C282.736 242.411 282.678 242.281 282.562 242.176C282.449 242.071 282.274 241.992 282.038 241.938L281.201 241.755C280.74 241.65 280.399 241.482 280.178 241.253C279.959 241.023 279.849 240.732 279.849 240.381C279.849 240.089 279.931 239.833 280.094 239.615C280.257 239.396 280.482 239.225 280.77 239.103C281.057 238.979 281.387 238.916 281.758 238.916C282.292 238.916 282.712 239.032 283.019 239.264C283.326 239.493 283.529 239.801 283.627 240.187ZM288.779 244.033C288.466 244.033 288.183 243.975 287.929 243.859C287.676 243.741 287.476 243.571 287.328 243.348C287.182 243.125 287.109 242.851 287.109 242.527C287.109 242.248 287.162 242.019 287.27 241.838C287.377 241.658 287.522 241.516 287.704 241.41C287.886 241.305 288.09 241.226 288.316 241.172C288.541 241.119 288.77 241.078 289.004 241.05C289.3 241.016 289.541 240.988 289.725 240.966C289.91 240.943 290.044 240.905 290.127 240.854C290.211 240.802 290.253 240.718 290.253 240.603V240.58C290.253 240.299 290.174 240.081 290.015 239.927C289.858 239.772 289.624 239.695 289.313 239.695C288.989 239.695 288.734 239.767 288.547 239.911C288.363 240.052 288.235 240.21 288.164 240.384L287.26 240.178C287.367 239.877 287.524 239.635 287.73 239.451C287.938 239.264 288.177 239.129 288.447 239.045C288.718 238.959 289.002 238.916 289.3 238.916C289.498 238.916 289.707 238.94 289.928 238.987C290.151 239.032 290.359 239.116 290.552 239.238C290.747 239.36 290.907 239.535 291.032 239.763C291.156 239.988 291.218 240.281 291.218 240.641V243.924H290.279V243.248H290.24C290.178 243.372 290.084 243.495 289.96 243.615C289.836 243.735 289.676 243.835 289.481 243.914C289.285 243.994 289.051 244.033 288.779 244.033ZM288.988 243.261C289.254 243.261 289.482 243.208 289.67 243.103C289.861 242.998 290.006 242.861 290.105 242.691C290.206 242.52 290.256 242.336 290.256 242.141V241.504C290.222 241.538 290.155 241.57 290.057 241.6C289.96 241.628 289.85 241.653 289.725 241.674C289.601 241.694 289.479 241.712 289.361 241.729C289.243 241.744 289.145 241.757 289.065 241.768C288.879 241.791 288.708 241.831 288.554 241.887C288.401 241.942 288.279 242.023 288.187 242.128C288.097 242.231 288.052 242.368 288.052 242.54C288.052 242.778 288.14 242.958 288.316 243.081C288.491 243.201 288.716 243.261 288.988 243.261ZM293.542 240.989V243.924H292.58V238.981H293.504V239.785H293.565C293.678 239.523 293.857 239.313 294.099 239.154C294.344 238.996 294.651 238.916 295.023 238.916C295.359 238.916 295.654 238.987 295.908 239.129C296.161 239.268 296.357 239.476 296.497 239.753C296.636 240.03 296.706 240.372 296.706 240.78V243.924H295.744V240.895C295.744 240.537 295.65 240.257 295.464 240.056C295.277 239.852 295.02 239.75 294.694 239.75C294.471 239.75 294.273 239.798 294.099 239.895C293.927 239.991 293.791 240.133 293.69 240.319C293.592 240.504 293.542 240.727 293.542 240.989ZM299.927 244.02C299.528 244.02 299.172 243.918 298.858 243.715C298.547 243.509 298.303 243.216 298.125 242.836C297.949 242.454 297.861 241.996 297.861 241.462C297.861 240.928 297.95 240.471 298.128 240.091C298.308 239.711 298.555 239.42 298.868 239.219C299.181 239.017 299.536 238.916 299.933 238.916C300.24 238.916 300.487 238.968 300.673 239.071C300.862 239.172 301.008 239.29 301.111 239.425C301.216 239.56 301.298 239.679 301.356 239.782H301.414V237.333H302.376V243.924H301.436V243.155H301.356C301.298 243.26 301.214 243.38 301.105 243.515C300.997 243.65 300.849 243.768 300.661 243.869C300.472 243.97 300.227 244.02 299.927 244.02ZM300.139 243.2C300.416 243.2 300.65 243.127 300.841 242.981C301.034 242.833 301.18 242.628 301.278 242.366C301.379 242.104 301.43 241.8 301.43 241.452C301.43 241.109 301.38 240.809 301.282 240.551C301.183 240.294 301.038 240.093 300.847 239.949C300.656 239.806 300.42 239.734 300.139 239.734C299.85 239.734 299.608 239.809 299.415 239.959C299.222 240.109 299.076 240.314 298.977 240.574C298.881 240.833 298.833 241.126 298.833 241.452C298.833 241.783 298.882 242.08 298.981 242.344C299.079 242.608 299.225 242.817 299.418 242.971C299.614 243.124 299.854 243.2 300.139 243.2ZM309.439 241.874V238.981H310.404V243.924H309.458V243.068H309.407C309.293 243.332 309.111 243.552 308.86 243.728C308.611 243.901 308.301 243.988 307.93 243.988C307.612 243.988 307.331 243.918 307.086 243.779C306.844 243.637 306.653 243.428 306.514 243.151C306.376 242.875 306.308 242.532 306.308 242.125V238.981H307.27V242.009C307.27 242.346 307.363 242.614 307.55 242.814C307.736 243.013 307.979 243.113 308.277 243.113C308.457 243.113 308.636 243.068 308.815 242.978C308.995 242.888 309.144 242.751 309.262 242.569C309.382 242.387 309.441 242.155 309.439 241.874ZM312.74 240.989V243.924H311.777V238.981H312.701V239.785H312.762C312.876 239.523 313.054 239.313 313.296 239.154C313.541 238.996 313.849 238.916 314.22 238.916C314.557 238.916 314.852 238.987 315.105 239.129C315.358 239.268 315.554 239.476 315.694 239.753C315.833 240.03 315.903 240.372 315.903 240.78V243.924H314.941V240.895C314.941 240.537 314.847 240.257 314.661 240.056C314.474 239.852 314.218 239.75 313.892 239.75C313.669 239.75 313.47 239.798 313.296 239.895C313.125 239.991 312.988 240.133 312.888 240.319C312.789 240.504 312.74 240.727 312.74 240.989ZM318.236 237.333V243.924H317.274V237.333H318.236ZM319.61 243.924V238.981H320.573V243.924H319.61ZM320.096 238.218C319.929 238.218 319.785 238.162 319.665 238.051C319.547 237.937 319.488 237.802 319.488 237.645C319.488 237.486 319.547 237.351 319.665 237.24C319.785 237.126 319.929 237.069 320.096 237.069C320.264 237.069 320.406 237.126 320.524 237.24C320.644 237.351 320.704 237.486 320.704 237.645C320.704 237.802 320.644 237.937 320.524 238.051C320.406 238.162 320.264 238.218 320.096 238.218ZM321.947 243.924V238.981H322.871V239.785H322.932C323.035 239.513 323.203 239.3 323.437 239.148C323.671 238.994 323.951 238.916 324.277 238.916C324.607 238.916 324.884 238.994 325.107 239.148C325.333 239.302 325.499 239.515 325.606 239.785H325.658C325.776 239.521 325.963 239.311 326.221 239.154C326.478 238.996 326.785 238.916 327.141 238.916C327.59 238.916 327.955 239.057 328.239 239.338C328.524 239.619 328.667 240.043 328.667 240.609V243.924H327.704V240.699C327.704 240.364 327.613 240.122 327.431 239.972C327.249 239.822 327.031 239.747 326.778 239.747C326.464 239.747 326.221 239.843 326.047 240.036C325.873 240.227 325.786 240.473 325.786 240.773V243.924H324.827V240.638C324.827 240.37 324.744 240.154 324.576 239.991C324.409 239.828 324.191 239.747 323.923 239.747C323.741 239.747 323.572 239.795 323.418 239.891C323.265 239.986 323.142 240.118 323.048 240.287C322.955 240.457 322.909 240.653 322.909 240.876V243.924H321.947ZM330.036 243.924V238.981H330.999V243.924H330.036ZM330.522 238.218C330.355 238.218 330.211 238.162 330.091 238.051C329.973 237.937 329.914 237.802 329.914 237.645C329.914 237.486 329.973 237.351 330.091 237.24C330.211 237.126 330.355 237.069 330.522 237.069C330.69 237.069 330.832 237.126 330.95 237.24C331.071 237.351 331.131 237.486 331.131 237.645C331.131 237.802 331.071 237.937 330.95 238.051C330.832 238.162 330.69 238.218 330.522 238.218ZM334.681 238.981V239.753H331.981V238.981H334.681ZM332.705 237.796H333.667V242.472C333.667 242.659 333.695 242.8 333.751 242.894C333.806 242.986 333.878 243.05 333.966 243.084C334.056 243.116 334.154 243.132 334.259 243.132C334.336 243.132 334.404 243.127 334.462 243.116C334.52 243.105 334.565 243.097 334.597 243.09L334.771 243.885C334.715 243.907 334.636 243.928 334.533 243.95C334.43 243.973 334.301 243.986 334.146 243.988C333.893 243.992 333.657 243.947 333.438 243.853C333.22 243.759 333.043 243.613 332.907 243.415C332.772 243.218 332.705 242.97 332.705 242.672V237.796ZM337.902 244.024C337.415 244.024 336.996 243.92 336.644 243.711C336.294 243.501 336.024 243.206 335.833 242.826C335.644 242.445 335.55 241.997 335.55 241.484C335.55 240.978 335.644 240.532 335.833 240.146C336.024 239.759 336.29 239.458 336.631 239.241C336.975 239.025 337.376 238.916 337.835 238.916C338.114 238.916 338.384 238.962 338.646 239.055C338.908 239.147 339.143 239.292 339.351 239.489C339.559 239.687 339.723 239.943 339.843 240.258C339.963 240.572 340.023 240.952 340.023 241.401V241.742H336.094V241.021H339.08C339.08 240.768 339.029 240.544 338.926 240.348C338.823 240.151 338.678 239.995 338.491 239.882C338.307 239.768 338.09 239.711 337.841 239.711C337.571 239.711 337.335 239.778 337.133 239.911C336.934 240.042 336.779 240.213 336.67 240.426C336.563 240.636 336.509 240.864 336.509 241.111V241.674C336.509 242.005 336.567 242.286 336.683 242.517C336.801 242.749 336.965 242.926 337.175 243.048C337.385 243.169 337.631 243.229 337.912 243.229C338.094 243.229 338.261 243.203 338.411 243.151C338.561 243.098 338.691 243.018 338.8 242.913C338.91 242.808 338.993 242.678 339.051 242.524L339.962 242.688C339.889 242.956 339.758 243.191 339.569 243.393C339.383 243.592 339.148 243.748 338.865 243.859C338.584 243.969 338.263 244.024 337.902 244.024ZM343.021 244.02C342.622 244.02 342.266 243.918 341.953 243.715C341.642 243.509 341.397 243.216 341.219 242.836C341.043 242.454 340.955 241.996 340.955 241.462C340.955 240.928 341.044 240.471 341.222 240.091C341.403 239.711 341.649 239.42 341.963 239.219C342.276 239.017 342.631 238.916 343.028 238.916C343.335 238.916 343.581 238.968 343.768 239.071C343.957 239.172 344.103 239.29 344.206 239.425C344.311 239.56 344.392 239.679 344.45 239.782H344.508V237.333H345.47V243.924H344.531V243.155H344.45C344.392 243.26 344.309 243.38 344.199 243.515C344.092 243.65 343.944 243.768 343.755 243.869C343.566 243.97 343.322 244.02 343.021 244.02ZM343.234 243.2C343.511 243.2 343.744 243.127 343.935 242.981C344.128 242.833 344.274 242.628 344.373 242.366C344.474 242.104 344.524 241.8 344.524 241.452C344.524 241.109 344.475 240.809 344.376 240.551C344.278 240.294 344.133 240.093 343.942 239.949C343.751 239.806 343.515 239.734 343.234 239.734C342.944 239.734 342.703 239.809 342.51 239.959C342.317 240.109 342.171 240.314 342.072 240.574C341.975 240.833 341.927 241.126 341.927 241.452C341.927 241.783 341.977 242.08 342.075 242.344C342.174 242.608 342.32 242.817 342.513 242.971C342.708 243.124 342.948 243.2 343.234 243.2ZM150.79 262.778V255.981H151.73V256.782H151.81C151.866 256.679 151.946 256.56 152.051 256.425C152.157 256.29 152.302 256.172 152.489 256.071C152.676 255.968 152.923 255.916 153.229 255.916C153.628 255.916 153.985 256.017 154.298 256.219C154.611 256.42 154.857 256.711 155.035 257.091C155.215 257.471 155.305 257.928 155.305 258.462C155.305 258.996 155.216 259.454 155.038 259.836C154.86 260.216 154.615 260.509 154.304 260.715C153.993 260.918 153.638 261.02 153.239 261.02C152.939 261.02 152.693 260.97 152.502 260.869C152.313 260.768 152.165 260.65 152.058 260.515C151.951 260.38 151.868 260.26 151.81 260.155H151.752V262.778H150.79ZM151.733 258.452C151.733 258.8 151.783 259.104 151.884 259.366C151.985 259.628 152.131 259.833 152.322 259.981C152.513 260.127 152.747 260.2 153.023 260.2C153.311 260.2 153.551 260.124 153.744 259.971C153.937 259.817 154.083 259.608 154.182 259.344C154.283 259.08 154.333 258.783 154.333 258.452C154.333 258.126 154.284 257.833 154.185 257.574C154.089 257.314 153.943 257.109 153.747 256.959C153.554 256.809 153.313 256.734 153.023 256.734C152.744 256.734 152.508 256.806 152.315 256.949C152.124 257.093 151.98 257.294 151.881 257.551C151.782 257.809 151.733 258.109 151.733 258.452ZM156.463 260.924V255.981H157.393V256.766H157.445C157.535 256.5 157.694 256.291 157.921 256.138C158.151 255.984 158.41 255.907 158.7 255.907C158.76 255.907 158.831 255.909 158.912 255.913C158.996 255.917 159.061 255.923 159.109 255.929V256.85C159.07 256.839 159.001 256.827 158.903 256.814C158.804 256.799 158.705 256.792 158.607 256.792C158.379 256.792 158.176 256.84 157.998 256.936C157.822 257.031 157.683 257.163 157.58 257.332C157.477 257.5 157.425 257.691 157.425 257.905V260.924H156.463ZM161.926 261.024C161.463 261.024 161.059 260.917 160.713 260.705C160.368 260.493 160.1 260.195 159.909 259.814C159.718 259.432 159.622 258.985 159.622 258.475C159.622 257.962 159.718 257.514 159.909 257.13C160.1 256.746 160.368 256.447 160.713 256.235C161.059 256.022 161.463 255.916 161.926 255.916C162.39 255.916 162.794 256.022 163.14 256.235C163.485 256.447 163.753 256.746 163.944 257.13C164.135 257.514 164.231 257.962 164.231 258.475C164.231 258.985 164.135 259.432 163.944 259.814C163.753 260.195 163.485 260.493 163.14 260.705C162.794 260.917 162.39 261.024 161.926 261.024ZM161.93 260.216C162.23 260.216 162.479 260.136 162.676 259.978C162.874 259.819 163.02 259.608 163.114 259.344C163.211 259.08 163.259 258.789 163.259 258.472C163.259 258.156 163.211 257.867 163.114 257.603C163.02 257.337 162.874 257.123 162.676 256.962C162.479 256.801 162.23 256.721 161.93 256.721C161.627 256.721 161.376 256.801 161.177 256.962C160.979 257.123 160.832 257.337 160.736 257.603C160.641 257.867 160.594 258.156 160.594 258.472C160.594 258.789 160.641 259.08 160.736 259.344C160.832 259.608 160.979 259.819 161.177 259.978C161.376 260.136 161.627 260.216 161.93 260.216ZM165.385 255.981H166.347V261.246C166.347 261.576 166.287 261.855 166.167 262.082C166.049 262.31 165.873 262.483 165.639 262.601C165.407 262.719 165.121 262.778 164.78 262.778C164.745 262.778 164.713 262.778 164.683 262.778C164.651 262.778 164.618 262.776 164.583 262.774V261.947C164.613 261.947 164.64 261.947 164.664 261.947C164.685 261.947 164.71 261.947 164.738 261.947C164.965 261.947 165.129 261.886 165.23 261.764C165.333 261.644 165.385 261.469 165.385 261.239V255.981ZM165.861 255.218C165.694 255.218 165.55 255.162 165.43 255.051C165.312 254.937 165.253 254.802 165.253 254.645C165.253 254.486 165.312 254.351 165.43 254.24C165.55 254.126 165.694 254.069 165.861 254.069C166.028 254.069 166.171 254.126 166.289 254.24C166.409 254.351 166.469 254.486 166.469 254.645C166.469 254.802 166.409 254.937 166.289 255.051C166.171 255.162 166.028 255.218 165.861 255.218ZM169.852 261.024C169.365 261.024 168.946 260.92 168.594 260.711C168.244 260.501 167.974 260.206 167.783 259.826C167.594 259.445 167.5 258.997 167.5 258.484C167.5 257.978 167.594 257.532 167.783 257.146C167.974 256.759 168.24 256.458 168.581 256.241C168.924 256.025 169.325 255.916 169.784 255.916C170.063 255.916 170.334 255.962 170.595 256.055C170.857 256.147 171.092 256.292 171.3 256.489C171.508 256.687 171.672 256.943 171.793 257.258C171.913 257.572 171.973 257.952 171.973 258.401V258.742H168.043V258.021H171.03C171.03 257.768 170.978 257.544 170.875 257.348C170.772 257.151 170.628 256.995 170.441 256.882C170.256 256.768 170.04 256.711 169.791 256.711C169.521 256.711 169.285 256.778 169.083 256.911C168.883 257.042 168.729 257.213 168.619 257.426C168.512 257.636 168.459 257.864 168.459 258.111V258.674C168.459 259.005 168.516 259.286 168.632 259.517C168.75 259.749 168.914 259.926 169.125 260.048C169.335 260.169 169.581 260.229 169.862 260.229C170.044 260.229 170.21 260.203 170.36 260.151C170.511 260.098 170.64 260.018 170.75 259.913C170.859 259.808 170.943 259.678 171.001 259.524L171.912 259.688C171.839 259.956 171.708 260.191 171.519 260.393C171.332 260.592 171.097 260.748 170.814 260.859C170.533 260.969 170.212 261.024 169.852 261.024ZM175.203 261.024C174.724 261.024 174.312 260.915 173.967 260.699C173.624 260.48 173.36 260.178 173.175 259.794C172.991 259.41 172.898 258.97 172.898 258.475C172.898 257.973 172.993 257.53 173.182 257.146C173.37 256.759 173.636 256.458 173.98 256.241C174.323 256.025 174.727 255.916 175.193 255.916C175.568 255.916 175.903 255.986 176.197 256.125C176.491 256.263 176.728 256.456 176.908 256.705C177.091 256.954 177.199 257.244 177.233 257.577H176.297C176.245 257.345 176.127 257.146 175.943 256.978C175.76 256.811 175.516 256.727 175.209 256.727C174.941 256.727 174.706 256.798 174.504 256.94C174.305 257.079 174.149 257.279 174.038 257.538C173.926 257.796 173.87 258.1 173.87 258.452C173.87 258.813 173.925 259.124 174.034 259.386C174.144 259.647 174.298 259.85 174.498 259.994C174.7 260.138 174.937 260.209 175.209 260.209C175.391 260.209 175.557 260.176 175.705 260.11C175.855 260.041 175.98 259.943 176.081 259.817C176.184 259.69 176.256 259.538 176.297 259.36H177.233C177.199 259.679 177.095 259.965 176.921 260.216C176.747 260.467 176.515 260.664 176.223 260.808C175.933 260.952 175.593 261.024 175.203 261.024ZM180.65 255.981V256.753H177.95V255.981H180.65ZM178.674 254.796H179.636V259.472C179.636 259.659 179.664 259.8 179.72 259.894C179.776 259.986 179.847 260.05 179.935 260.084C180.026 260.116 180.123 260.132 180.228 260.132C180.305 260.132 180.373 260.127 180.431 260.116C180.489 260.105 180.534 260.097 180.566 260.09L180.74 260.885C180.684 260.907 180.605 260.928 180.502 260.95C180.399 260.973 180.27 260.986 180.116 260.988C179.862 260.992 179.626 260.947 179.408 260.853C179.189 260.759 179.012 260.613 178.877 260.415C178.741 260.218 178.674 259.97 178.674 259.672V254.796ZM185.419 257.187L184.547 257.342C184.51 257.23 184.452 257.124 184.373 257.023C184.296 256.923 184.19 256.84 184.057 256.776C183.924 256.711 183.758 256.679 183.559 256.679C183.286 256.679 183.059 256.74 182.876 256.862C182.694 256.983 182.603 257.138 182.603 257.329C182.603 257.494 182.664 257.627 182.786 257.728C182.909 257.829 183.106 257.912 183.378 257.976L184.164 258.156C184.619 258.261 184.958 258.423 185.181 258.642C185.404 258.861 185.515 259.145 185.515 259.495C185.515 259.791 185.43 260.055 185.258 260.287C185.088 260.516 184.851 260.696 184.547 260.827C184.244 260.958 183.893 261.024 183.494 261.024C182.941 261.024 182.489 260.906 182.139 260.67C181.79 260.431 181.575 260.094 181.496 259.656L182.426 259.514C182.484 259.757 182.603 259.94 182.783 260.065C182.963 260.187 183.198 260.248 183.488 260.248C183.803 260.248 184.055 260.183 184.244 260.052C184.433 259.919 184.527 259.757 184.527 259.566C184.527 259.411 184.469 259.281 184.354 259.176C184.24 259.071 184.065 258.992 183.829 258.938L182.992 258.755C182.531 258.65 182.19 258.482 181.969 258.253C181.75 258.023 181.641 257.732 181.641 257.381C181.641 257.089 181.722 256.833 181.885 256.615C182.048 256.396 182.274 256.225 182.561 256.103C182.848 255.979 183.178 255.916 183.549 255.916C184.083 255.916 184.504 256.032 184.811 256.264C185.117 256.493 185.32 256.801 185.419 257.187ZM187.287 260.985C187.111 260.985 186.96 260.923 186.834 260.798C186.707 260.672 186.644 260.519 186.644 260.341C186.644 260.165 186.707 260.015 186.834 259.891C186.96 259.764 187.111 259.701 187.287 259.701C187.463 259.701 187.614 259.764 187.741 259.891C187.868 260.015 187.931 260.165 187.931 260.341C187.931 260.459 187.901 260.568 187.841 260.666C187.783 260.763 187.706 260.84 187.609 260.898C187.513 260.956 187.405 260.985 187.287 260.985Z" fill="#0A2540"/>
<path d="M151.466 283.219L153.332 288.68H153.407L155.273 283.219H156.366L153.954 289.924H152.785L150.372 283.219H151.466ZM157.336 289.924V284.895H158.315V289.924H157.336ZM157.83 284.12C157.66 284.12 157.514 284.063 157.392 283.949C157.272 283.834 157.212 283.696 157.212 283.537C157.212 283.375 157.272 283.238 157.392 283.124C157.514 283.009 157.66 282.951 157.83 282.951C158.001 282.951 158.146 283.009 158.266 283.124C158.388 283.238 158.449 283.375 158.449 283.537C158.449 283.696 158.388 283.834 158.266 283.949C158.146 284.063 158.001 284.12 157.83 284.12ZM161.879 290.025C161.383 290.025 160.957 289.919 160.599 289.708C160.243 289.494 159.968 289.194 159.774 288.807C159.582 288.419 159.486 287.964 159.486 287.442C159.486 286.927 159.582 286.473 159.774 286.08C159.968 285.688 160.239 285.381 160.586 285.161C160.935 284.94 161.343 284.83 161.81 284.83C162.094 284.83 162.369 284.877 162.635 284.971C162.901 285.065 163.14 285.212 163.352 285.413C163.564 285.613 163.731 285.874 163.853 286.195C163.975 286.514 164.036 286.901 164.036 287.357V287.704H160.039V286.971H163.077C163.077 286.713 163.025 286.485 162.92 286.287C162.815 286.086 162.668 285.928 162.478 285.812C162.29 285.696 162.07 285.639 161.817 285.639C161.542 285.639 161.302 285.706 161.096 285.842C160.893 285.975 160.736 286.149 160.625 286.365C160.516 286.579 160.461 286.812 160.461 287.063V287.636C160.461 287.972 160.52 288.258 160.638 288.493C160.758 288.729 160.925 288.909 161.139 289.033C161.353 289.156 161.603 289.217 161.889 289.217C162.074 289.217 162.243 289.191 162.396 289.138C162.549 289.084 162.681 289.003 162.792 288.896C162.904 288.789 162.989 288.657 163.048 288.5L163.974 288.667C163.9 288.94 163.767 289.179 163.575 289.384C163.385 289.587 163.146 289.745 162.858 289.858C162.572 289.97 162.246 290.025 161.879 290.025ZM166.283 289.924L164.804 284.895H165.815L166.801 288.588H166.85L167.838 284.895H168.85L169.832 288.572H169.881L170.86 284.895H171.872L170.395 289.924H169.397L168.375 286.293H168.3L167.279 289.924H166.283ZM175.4 289.924V284.895H176.379V289.924H175.4ZM175.895 284.12C175.724 284.12 175.578 284.063 175.456 283.949C175.336 283.834 175.276 283.696 175.276 283.537C175.276 283.375 175.336 283.238 175.456 283.124C175.578 283.009 175.724 282.951 175.895 282.951C176.065 282.951 176.21 283.009 176.33 283.124C176.452 283.238 176.513 283.375 176.513 283.537C176.513 283.696 176.452 283.834 176.33 283.949C176.21 284.063 176.065 284.12 175.895 284.12ZM178.755 286.938V289.924H177.776V284.895H178.716V285.714H178.778C178.893 285.448 179.075 285.234 179.321 285.072C179.57 284.911 179.883 284.83 180.261 284.83C180.603 284.83 180.903 284.902 181.161 285.046C181.419 285.188 181.618 285.4 181.76 285.681C181.902 285.963 181.973 286.311 181.973 286.725V289.924H180.994V286.843C180.994 286.479 180.899 286.194 180.709 285.989C180.519 285.782 180.259 285.678 179.927 285.678C179.7 285.678 179.498 285.727 179.321 285.825C179.147 285.923 179.008 286.067 178.905 286.257C178.805 286.445 178.755 286.672 178.755 286.938ZM187.487 284.895L185.664 289.924H184.616L182.789 284.895H183.84L185.114 288.765H185.166L186.436 284.895H187.487ZM190.434 290.025C189.963 290.025 189.551 289.917 189.2 289.701C188.849 289.485 188.576 289.183 188.382 288.794C188.187 288.406 188.09 287.952 188.09 287.433C188.09 286.911 188.187 286.455 188.382 286.064C188.576 285.673 188.849 285.37 189.2 285.154C189.551 284.938 189.963 284.83 190.434 284.83C190.906 284.83 191.317 284.938 191.668 285.154C192.02 285.37 192.293 285.673 192.487 286.064C192.681 286.455 192.778 286.911 192.778 287.433C192.778 287.952 192.681 288.406 192.487 288.794C192.293 289.183 192.02 289.485 191.668 289.701C191.317 289.917 190.906 290.025 190.434 290.025ZM190.437 289.204C190.743 289.204 190.996 289.123 191.197 288.961C191.398 288.8 191.546 288.585 191.642 288.316C191.74 288.048 191.789 287.752 191.789 287.429C191.789 287.108 191.74 286.814 191.642 286.545C191.546 286.275 191.398 286.058 191.197 285.894C190.996 285.73 190.743 285.648 190.437 285.648C190.13 285.648 189.874 285.73 189.671 285.894C189.471 286.058 189.321 286.275 189.223 286.545C189.127 286.814 189.079 287.108 189.079 287.429C189.079 287.752 189.127 288.048 189.223 288.316C189.321 288.585 189.471 288.8 189.671 288.961C189.874 289.123 190.13 289.204 190.437 289.204ZM193.951 289.924V284.895H194.93V289.924H193.951ZM194.445 284.12C194.275 284.12 194.129 284.063 194.006 283.949C193.886 283.834 193.826 283.696 193.826 283.537C193.826 283.375 193.886 283.238 194.006 283.124C194.129 283.009 194.275 282.951 194.445 282.951C194.615 282.951 194.76 283.009 194.88 283.124C195.003 283.238 195.064 283.375 195.064 283.537C195.064 283.696 195.003 283.834 194.88 283.949C194.76 284.063 194.615 284.12 194.445 284.12ZM198.445 290.025C197.958 290.025 197.539 289.915 197.187 289.695C196.838 289.472 196.57 289.165 196.382 288.775C196.194 288.384 196.101 287.937 196.101 287.433C196.101 286.922 196.197 286.471 196.389 286.08C196.581 285.688 196.851 285.381 197.201 285.161C197.55 284.94 197.961 284.83 198.435 284.83C198.817 284.83 199.157 284.901 199.456 285.043C199.755 285.182 199.996 285.379 200.18 285.632C200.365 285.885 200.475 286.181 200.51 286.519H199.558C199.505 286.283 199.385 286.08 199.197 285.91C199.012 285.74 198.763 285.655 198.451 285.655C198.178 285.655 197.939 285.727 197.734 285.871C197.531 286.013 197.373 286.216 197.259 286.48C197.146 286.742 197.089 287.052 197.089 287.41C197.089 287.776 197.145 288.093 197.256 288.359C197.367 288.625 197.525 288.832 197.728 288.978C197.933 289.124 198.174 289.197 198.451 289.197C198.637 289.197 198.805 289.163 198.955 289.096C199.108 289.026 199.236 288.926 199.338 288.798C199.443 288.669 199.516 288.514 199.558 288.333H200.51C200.475 288.658 200.369 288.948 200.193 289.204C200.016 289.459 199.779 289.66 199.482 289.806C199.188 289.952 198.842 290.025 198.445 290.025ZM203.804 290.025C203.309 290.025 202.882 289.919 202.524 289.708C202.168 289.494 201.893 289.194 201.699 288.807C201.507 288.419 201.411 287.964 201.411 287.442C201.411 286.927 201.507 286.473 201.699 286.08C201.893 285.688 202.164 285.381 202.511 285.161C202.86 284.94 203.268 284.83 203.735 284.83C204.019 284.83 204.294 284.877 204.56 284.971C204.827 285.065 205.066 285.212 205.277 285.413C205.489 285.613 205.656 285.874 205.778 286.195C205.9 286.514 205.962 286.901 205.962 287.357V287.704H201.964V286.971H205.002C205.002 286.713 204.95 286.485 204.845 286.287C204.74 286.086 204.593 285.928 204.403 285.812C204.216 285.696 203.995 285.639 203.742 285.639C203.467 285.639 203.227 285.706 203.022 285.842C202.819 285.975 202.662 286.149 202.55 286.365C202.441 286.579 202.387 286.812 202.387 287.063V287.636C202.387 287.972 202.446 288.258 202.563 288.493C202.683 288.729 202.85 288.909 203.064 289.033C203.278 289.156 203.528 289.217 203.814 289.217C204 289.217 204.169 289.191 204.321 289.138C204.474 289.084 204.606 289.003 204.718 288.896C204.829 288.789 204.914 288.657 204.973 288.5L205.899 288.667C205.825 288.94 205.692 289.179 205.5 289.384C205.31 289.587 205.071 289.745 204.783 289.858C204.497 289.97 204.171 290.025 203.804 290.025ZM211.53 290.022C211.124 290.022 210.761 289.918 210.443 289.711C210.126 289.502 209.878 289.204 209.696 288.817C209.517 288.429 209.428 287.963 209.428 287.419C209.428 286.876 209.519 286.411 209.7 286.025C209.883 285.639 210.134 285.343 210.453 285.138C210.771 284.933 211.132 284.83 211.536 284.83C211.848 284.83 212.099 284.882 212.289 284.987C212.481 285.09 212.63 285.21 212.734 285.347C212.841 285.485 212.924 285.606 212.983 285.711H213.042V283.219H214.021V289.924H213.065V289.141H212.983C212.924 289.248 212.839 289.371 212.728 289.508C212.619 289.646 212.468 289.766 212.276 289.868C212.084 289.971 211.835 290.022 211.53 290.022ZM211.746 289.187C212.027 289.187 212.265 289.113 212.459 288.965C212.656 288.814 212.804 288.606 212.905 288.339C213.007 288.073 213.059 287.763 213.059 287.41C213.059 287.06 213.008 286.755 212.908 286.493C212.808 286.231 212.66 286.027 212.466 285.881C212.272 285.735 212.032 285.661 211.746 285.661C211.451 285.661 211.206 285.738 211.009 285.891C210.813 286.043 210.664 286.252 210.564 286.516C210.466 286.78 210.417 287.078 210.417 287.41C210.417 287.746 210.467 288.048 210.567 288.316C210.668 288.585 210.816 288.798 211.012 288.955C211.211 289.11 211.456 289.187 211.746 289.187ZM217.665 290.025C217.17 290.025 216.743 289.919 216.385 289.708C216.029 289.494 215.754 289.194 215.56 288.807C215.368 288.419 215.272 287.964 215.272 287.442C215.272 286.927 215.368 286.473 215.56 286.08C215.754 285.688 216.025 285.381 216.372 285.161C216.721 284.94 217.129 284.83 217.596 284.83C217.88 284.83 218.155 284.877 218.421 284.971C218.688 285.065 218.927 285.212 219.138 285.413C219.35 285.613 219.517 285.874 219.639 286.195C219.762 286.514 219.823 286.901 219.823 287.357V287.704H215.825V286.971H218.863C218.863 286.713 218.811 286.485 218.706 286.287C218.602 286.086 218.454 285.928 218.264 285.812C218.077 285.696 217.856 285.639 217.603 285.639C217.328 285.639 217.088 285.706 216.883 285.842C216.68 285.975 216.523 286.149 216.411 286.365C216.302 286.579 216.248 286.812 216.248 287.063V287.636C216.248 287.972 216.307 288.258 216.425 288.493C216.545 288.729 216.712 288.909 216.925 289.033C217.139 289.156 217.389 289.217 217.675 289.217C217.861 289.217 218.03 289.191 218.182 289.138C218.335 289.084 218.467 289.003 218.579 288.896C218.69 288.789 218.775 288.657 218.834 288.5L219.76 288.667C219.686 288.94 219.553 289.179 219.361 289.384C219.171 289.587 218.932 289.745 218.644 289.858C218.358 289.97 218.032 290.025 217.665 290.025ZM223.336 284.895V285.681H220.589V284.895H223.336ZM221.326 283.691H222.305V288.447C222.305 288.637 222.333 288.78 222.39 288.876C222.447 288.97 222.52 289.034 222.609 289.069C222.701 289.102 222.8 289.118 222.907 289.118C222.986 289.118 223.054 289.113 223.113 289.102C223.172 289.091 223.218 289.082 223.251 289.076L223.428 289.885C223.371 289.906 223.29 289.928 223.185 289.95C223.081 289.974 222.95 289.987 222.792 289.989C222.535 289.994 222.295 289.948 222.072 289.852C221.85 289.756 221.67 289.607 221.532 289.407C221.395 289.206 221.326 288.954 221.326 288.65V283.691ZM225.962 290.035C225.643 290.035 225.355 289.976 225.098 289.858C224.84 289.738 224.636 289.565 224.486 289.338C224.337 289.111 224.263 288.833 224.263 288.503C224.263 288.219 224.318 287.986 224.427 287.802C224.536 287.619 224.683 287.474 224.869 287.367C225.054 287.26 225.261 287.179 225.491 287.125C225.72 287.07 225.953 287.029 226.191 287C226.492 286.965 226.737 286.937 226.924 286.915C227.112 286.891 227.249 286.853 227.334 286.801C227.419 286.748 227.461 286.663 227.461 286.545V286.522C227.461 286.237 227.381 286.015 227.219 285.858C227.06 285.701 226.822 285.622 226.505 285.622C226.176 285.622 225.916 285.695 225.726 285.842C225.539 285.986 225.409 286.146 225.337 286.323L224.417 286.113C224.526 285.808 224.685 285.561 224.895 285.373C225.106 285.184 225.35 285.046 225.625 284.961C225.9 284.874 226.189 284.83 226.492 284.83C226.693 284.83 226.906 284.854 227.131 284.902C227.358 284.948 227.569 285.033 227.766 285.157C227.964 285.282 228.127 285.46 228.254 285.691C228.38 285.92 228.443 286.218 228.443 286.585V289.924H227.488V289.236H227.448C227.385 289.363 227.29 289.487 227.163 289.61C227.037 289.732 226.874 289.833 226.676 289.914C226.477 289.995 226.239 290.035 225.962 290.035ZM226.175 289.249C226.445 289.249 226.677 289.196 226.869 289.089C227.063 288.982 227.21 288.842 227.311 288.67C227.413 288.495 227.465 288.309 227.465 288.11V287.462C227.43 287.497 227.362 287.53 227.262 287.56C227.163 287.589 227.051 287.614 226.924 287.636C226.798 287.655 226.675 287.674 226.555 287.691C226.435 287.706 226.334 287.72 226.253 287.73C226.064 287.754 225.89 287.795 225.733 287.852C225.578 287.908 225.454 287.99 225.36 288.097C225.268 288.202 225.222 288.342 225.222 288.516C225.222 288.758 225.312 288.942 225.491 289.066C225.67 289.188 225.898 289.249 226.175 289.249ZM229.827 289.924V284.895H230.806V289.924H229.827ZM230.322 284.12C230.151 284.12 230.005 284.063 229.883 283.949C229.763 283.834 229.703 283.696 229.703 283.537C229.703 283.375 229.763 283.238 229.883 283.124C230.005 283.009 230.151 282.951 230.322 282.951C230.492 282.951 230.637 283.009 230.757 283.124C230.879 283.238 230.94 283.375 230.94 283.537C230.94 283.696 230.879 283.834 230.757 283.949C230.637 284.063 230.492 284.12 230.322 284.12ZM233.182 283.219V289.924H232.203V283.219H233.182ZM238.347 286.123L237.459 286.28C237.422 286.167 237.363 286.059 237.283 285.956C237.204 285.854 237.097 285.769 236.962 285.704C236.827 285.639 236.657 285.606 236.454 285.606C236.177 285.606 235.946 285.668 235.76 285.792C235.575 285.915 235.482 286.073 235.482 286.267C235.482 286.435 235.544 286.57 235.669 286.673C235.793 286.776 235.994 286.86 236.271 286.925L237.07 287.108C237.533 287.215 237.877 287.38 238.104 287.603C238.331 287.825 238.445 288.115 238.445 288.47C238.445 288.771 238.358 289.04 238.183 289.276C238.011 289.509 237.769 289.692 237.459 289.826C237.152 289.959 236.795 290.025 236.389 290.025C235.826 290.025 235.366 289.905 235.011 289.665C234.655 289.423 234.437 289.079 234.356 288.634L235.302 288.49C235.361 288.737 235.482 288.923 235.665 289.05C235.849 289.174 236.088 289.236 236.382 289.236C236.703 289.236 236.96 289.17 237.152 289.037C237.344 288.901 237.44 288.737 237.44 288.542C237.44 288.385 237.381 288.253 237.263 288.146C237.147 288.039 236.97 287.959 236.729 287.904L235.878 287.717C235.409 287.61 235.062 287.44 234.837 287.207C234.615 286.973 234.503 286.677 234.503 286.319C234.503 286.023 234.586 285.763 234.752 285.54C234.918 285.318 235.147 285.144 235.44 285.02C235.732 284.893 236.067 284.83 236.445 284.83C236.988 284.83 237.416 284.948 237.728 285.184C238.04 285.417 238.246 285.73 238.347 286.123Z" fill="#727F96"/>
<g clip-path="url(#clip3_4003_1384)">
<path fill-rule="evenodd" clip-rule="evenodd" d="M243.681 284.704C243.594 284.613 243.546 284.491 243.547 284.365C243.549 284.239 243.6 284.119 243.689 284.03C243.778 283.941 243.899 283.89 244.025 283.889C244.151 283.887 244.272 283.936 244.363 284.023L247.398 287.059C247.488 287.149 247.539 287.272 247.539 287.399C247.539 287.526 247.488 287.649 247.398 287.739L244.363 290.775C244.273 290.865 244.15 290.916 244.022 290.916C243.894 290.916 243.772 290.865 243.681 290.775C243.591 290.685 243.54 290.562 243.54 290.434C243.54 290.306 243.591 290.183 243.681 290.093L246.373 287.398L243.681 284.704Z" fill="#727F96"/>
</g>
</g>
</g>
<g opacity="0.3">
<path d="M4.14307 4.94336H504.143V334.273C504.143 336.482 502.352 338.273 500.143 338.273H8.14307C5.93394 338.273 4.14307 336.482 4.14307 334.273V4.94336Z" fill="url(#paint0_linear_4003_1384)"/>
</g>
</g>
<defs>
<linearGradient id="paint0_linear_4003_1384" x1="254.143" y1="4.94336" x2="254.143" y2="338.273" gradientUnits="userSpaceOnUse">
<stop stop-color="#BEC9DC" stop-opacity="0"/>
<stop offset="1" stop-color="#BEC9DC" stop-opacity="0.4"/>
</linearGradient>
<clipPath id="clip0_4003_1384">
<rect x="4.14307" y="4.94336" width="500" height="333.33" rx="4" fill="white"/>
</clipPath>
<clipPath id="clip1_4003_1384">
<rect x="4.14307" y="4.94336" width="500" height="333.33" rx="4" fill="white"/>
</clipPath>
<clipPath id="clip2_4003_1384">
<rect width="500" height="333.33" fill="white" transform="translate(4.14307 54.9238)"/>
</clipPath>
<clipPath id="clip3_4003_1384">
<rect width="5" height="8" fill="white" transform="translate(243.143 283.424)"/>
</clipPath>
</defs>
</svg>
