<svg width="136" height="41" viewBox="0 0 136 41" fill="none" xmlns="http://www.w3.org/2000/svg">
<rect x="0.143066" y="0.953125" width="135" height="40" rx="4" fill="#F6F9FC"/>
<path d="M15.9232 19.0579C15.7589 18.6398 16.0671 18.1875 16.5163 18.1875H24.4077C24.4077 18.3458 24.3782 18.504 24.3193 18.6539L22.5655 23.1147C22.3738 23.6022 21.9033 23.9229 21.3794 23.9229H17.7885C17.7885 23.8438 17.7737 23.7646 17.7443 23.6897L15.9232 19.0579Z" fill="url(#paint0_linear_4003_1368)"/>
<path d="M10.1879 13.3236C10.0235 12.9055 10.3317 12.4531 10.7809 12.4531H17.4928C17.5021 12.4531 17.5113 12.4533 17.5204 12.4537C17.5333 12.4533 17.5463 12.4531 17.5593 12.4531H21.3794C21.9033 12.4531 22.3738 12.7737 22.5655 13.2613L24.3193 17.7221C24.3783 17.872 24.4077 18.0302 24.4077 18.1885H16.5163C16.0671 18.1885 15.7589 18.6408 15.9232 19.0589L17.7443 23.6907C17.7737 23.7656 17.7885 23.8447 17.7885 23.9238H10.7809C10.3317 23.9238 10.0235 23.4715 10.1879 23.0534L12.0089 18.4217C12.0678 18.2718 12.0678 18.1052 12.0089 17.9553L10.1879 13.3236Z" fill="url(#paint1_linear_4003_1368)"/>
<path fill-rule="evenodd" clip-rule="evenodd" d="M17.7885 23.9229C17.7885 24.002 17.7737 24.0811 17.7443 24.1561L15.9232 28.7878C15.7589 29.2058 16.0671 29.6582 16.5163 29.6582H27.1147C27.6386 29.6582 28.1092 29.3376 28.3009 28.85L30.0547 24.3892C30.1725 24.0894 30.1725 23.7562 30.0547 23.4565L28.3009 18.9957C28.1092 18.5081 27.6386 18.1875 27.1147 18.1875H24.4077C24.4077 18.3458 24.3782 18.504 24.3193 18.6539L22.5655 23.1147C22.3738 23.6022 21.9033 23.9229 21.3794 23.9229H17.7885Z" fill="#9966FF"/>
<path d="M43.027 25.4531V17.4077H45.8947C46.5207 17.4077 47.0392 17.5216 47.4504 17.7494C47.8616 17.9773 48.1693 18.289 48.3736 18.6844C48.5779 19.0773 48.68 19.5199 48.68 20.0122C48.68 20.5072 48.5765 20.9524 48.3697 21.3479C48.1654 21.7407 47.8563 22.0524 47.4425 22.2829C47.0314 22.5107 46.5141 22.6246 45.8908 22.6246H43.9187V21.5954H45.7808C46.1763 21.5954 46.4971 21.5273 46.7433 21.3911C46.9895 21.2523 47.1702 21.0637 47.2854 20.8254C47.4006 20.5871 47.4583 20.316 47.4583 20.0122C47.4583 19.7084 47.4006 19.4387 47.2854 19.203C47.1702 18.9673 46.9881 18.7826 46.7393 18.6491C46.4932 18.5155 46.1684 18.4487 45.7651 18.4487H44.2409V25.4531H43.027ZM51.7108 25.5867C51.3284 25.5867 50.9827 25.516 50.6737 25.3746C50.3646 25.2305 50.1198 25.0223 49.9391 24.7499C49.761 24.4776 49.6719 24.1436 49.6719 23.7482C49.6719 23.4077 49.7374 23.1275 49.8684 22.9075C49.9993 22.6875 50.1761 22.5133 50.3987 22.385C50.6213 22.2567 50.8701 22.1598 51.1451 22.0943C51.4201 22.0288 51.7003 21.9791 51.9858 21.945C52.3472 21.9031 52.6405 21.8691 52.8658 21.8429C53.091 21.8141 53.2547 21.7682 53.3568 21.7054C53.459 21.6425 53.51 21.5404 53.51 21.399V21.3715C53.51 21.0284 53.4131 20.7626 53.2193 20.574C53.0281 20.3854 52.7427 20.2911 52.3629 20.2911C51.9675 20.2911 51.6558 20.3789 51.4279 20.5544C51.2027 20.7272 51.0469 20.9197 50.9605 21.1318L49.8566 20.8804C49.9875 20.5138 50.1787 20.2178 50.4301 19.9926C50.6842 19.7647 50.9762 19.5997 51.3062 19.4976C51.6362 19.3928 51.9832 19.3405 52.3472 19.3405C52.5881 19.3405 52.8435 19.3693 53.1132 19.4269C53.3856 19.4819 53.6397 19.584 53.8754 19.7333C54.1137 19.8826 54.3088 20.096 54.4607 20.3736C54.6126 20.6486 54.6886 21.0061 54.6886 21.4461V25.4531H53.5414V24.6282H53.4943C53.4184 24.7801 53.3044 24.9293 53.1525 25.076C53.0006 25.2227 52.8055 25.3444 52.5672 25.4413C52.3289 25.5382 52.0434 25.5867 51.7108 25.5867ZM51.9661 24.6439C52.2909 24.6439 52.5685 24.5797 52.799 24.4514C53.0321 24.323 53.2088 24.1554 53.3293 23.9485C53.4524 23.739 53.5139 23.5151 53.5139 23.2768V22.4989C53.472 22.5408 53.3909 22.5801 53.2704 22.6168C53.1525 22.6508 53.0177 22.681 52.8658 22.7071C52.7139 22.7307 52.5659 22.753 52.4218 22.7739C52.2778 22.7923 52.1573 22.808 52.0604 22.8211C51.8326 22.8499 51.6244 22.8983 51.4358 22.9664C51.2499 23.0345 51.1006 23.1327 50.988 23.2611C50.878 23.3868 50.823 23.5544 50.823 23.7639C50.823 24.0546 50.9303 24.2746 51.1451 24.4239C51.3599 24.5705 51.6335 24.6439 51.9661 24.6439ZM56.7795 27.7159C56.604 27.7159 56.4442 27.7015 56.3002 27.6727C56.1562 27.6465 56.0488 27.6177 55.9781 27.5863L56.2609 26.6238C56.4757 26.6814 56.6669 26.7063 56.8345 26.6984C57.0021 26.6906 57.1501 26.6277 57.2784 26.5099C57.4093 26.392 57.5246 26.1995 57.6241 25.9324L57.7694 25.5317L55.5617 19.419H56.8188L58.3469 24.1017H58.4098L59.9379 19.419H61.199L58.7123 26.2585C58.597 26.5727 58.4504 26.8386 58.2723 27.0559C58.0942 27.2759 57.8821 27.4409 57.6359 27.5509C57.3897 27.6609 57.1042 27.7159 56.7795 27.7159ZM62.3029 25.4531V19.419H63.4303V20.4011H63.505C63.6307 20.0685 63.8363 19.8093 64.1217 19.6233C64.4072 19.4347 64.749 19.3405 65.1471 19.3405C65.5504 19.3405 65.8882 19.4347 66.1606 19.6233C66.4356 19.8119 66.6386 20.0712 66.7695 20.4011H66.8324C66.9764 20.079 67.2056 19.8224 67.5198 19.6312C67.8341 19.4374 68.2086 19.3405 68.6434 19.3405C69.1907 19.3405 69.6373 19.512 69.983 19.8551C70.3313 20.1982 70.5055 20.7154 70.5055 21.4068V25.4531H69.3308V21.5168C69.3308 21.1083 69.2195 20.8123 68.9969 20.629C68.7743 20.4457 68.5085 20.354 68.1995 20.354C67.8171 20.354 67.5198 20.4719 67.3077 20.7076C67.0956 20.9407 66.9895 21.2405 66.9895 21.6072V25.4531H65.8188V21.4422C65.8188 21.1148 65.7167 20.8516 65.5124 20.6526C65.3081 20.4535 65.0423 20.354 64.7149 20.354C64.4923 20.354 64.2867 20.4129 64.0982 20.5308C63.9122 20.646 63.7616 20.8071 63.6464 21.014C63.5338 21.2209 63.4775 21.4605 63.4775 21.7329V25.4531H62.3029ZM74.6804 25.5749C74.0859 25.5749 73.5739 25.4479 73.1444 25.1938C72.7175 24.9372 72.3875 24.5771 72.1544 24.1135C71.924 23.6473 71.8087 23.1013 71.8087 22.4754C71.8087 21.8573 71.924 21.3125 72.1544 20.8411C72.3875 20.3697 72.7123 20.0018 73.1287 19.7372C73.5477 19.4727 74.0375 19.3405 74.5979 19.3405C74.9384 19.3405 75.2684 19.3968 75.5879 19.5094C75.9074 19.622 76.1942 19.7988 76.4482 20.0397C76.7022 20.2807 76.9026 20.5936 77.0493 20.9786C77.1959 21.361 77.2693 21.8259 77.2693 22.3732V22.7896H72.4726V21.9097H76.1182C76.1182 21.6006 76.0554 21.3269 75.9297 21.0886C75.8039 20.8477 75.6272 20.6578 75.3993 20.519C75.1741 20.3802 74.9096 20.3108 74.6058 20.3108C74.2758 20.3108 73.9877 20.392 73.7415 20.5544C73.4979 20.7141 73.3094 20.9236 73.1758 21.1829C73.0449 21.4396 72.9794 21.7185 72.9794 22.0197V22.7071C72.9794 23.1105 73.0501 23.4535 73.1915 23.7364C73.3356 24.0192 73.5359 24.2353 73.7926 24.3846C74.0492 24.5312 74.3491 24.6046 74.6922 24.6046C74.9148 24.6046 75.1178 24.5732 75.3011 24.5103C75.4844 24.4448 75.6429 24.3479 75.7764 24.2196C75.91 24.0913 76.0122 23.9328 76.0829 23.7443L77.1946 23.9446C77.1056 24.272 76.9458 24.5587 76.7153 24.8049C76.4875 25.0485 76.2007 25.2384 75.855 25.3746C75.5119 25.5081 75.1204 25.5749 74.6804 25.5749ZM79.7471 21.8704V25.4531H78.5725V19.419H79.7V20.4011H79.7746C79.9134 20.0816 80.1308 19.825 80.4267 19.6312C80.7253 19.4374 81.1011 19.3405 81.5542 19.3405C81.9654 19.3405 82.3255 19.4269 82.6345 19.5997C82.9436 19.77 83.1832 20.024 83.3534 20.3619C83.5237 20.6997 83.6088 21.1174 83.6088 21.615V25.4531H82.4342V21.7565C82.4342 21.3191 82.3203 20.9773 82.0924 20.7311C81.8646 20.4823 81.5516 20.3579 81.1535 20.3579C80.8811 20.3579 80.6389 20.4169 80.4267 20.5347C80.2172 20.6526 80.0509 20.8254 79.9278 21.0533C79.8074 21.2785 79.7471 21.5509 79.7471 21.8704ZM88.0008 19.419V20.3619H84.7048V19.419H88.0008ZM85.5887 17.9734H86.7633V23.6814C86.7633 23.9092 86.7974 24.0808 86.8655 24.196C86.9336 24.3086 87.0213 24.3859 87.1287 24.4278C87.2387 24.4671 87.3578 24.4867 87.4862 24.4867C87.5804 24.4867 87.6629 24.4802 87.7336 24.4671C87.8044 24.454 87.8594 24.4435 87.8986 24.4357L88.1108 25.406C88.0427 25.4322 87.9458 25.4584 87.8201 25.4846C87.6944 25.5134 87.5372 25.5291 87.3487 25.5317C87.0396 25.5369 86.7515 25.4819 86.4844 25.3667C86.2173 25.2515 86.0012 25.0734 85.8362 24.8324C85.6712 24.5915 85.5887 24.289 85.5887 23.925V17.9734ZM92.3221 25.4531V17.4077H93.536V24.4082H97.1816V25.4531H92.3221ZM98.4721 25.4531V19.419H99.6467V25.4531H98.4721ZM99.0652 18.488C98.861 18.488 98.6855 18.4199 98.5388 18.2837C98.3948 18.1449 98.3228 17.9799 98.3228 17.7887C98.3228 17.5949 98.3948 17.4299 98.5388 17.2937C98.6855 17.1549 98.861 17.0855 99.0652 17.0855C99.2695 17.0855 99.4437 17.1549 99.5877 17.2937C99.7344 17.4299 99.8077 17.5949 99.8077 17.7887C99.8077 17.9799 99.7344 18.1449 99.5877 18.2837C99.4437 18.4199 99.2695 18.488 99.0652 18.488ZM102.401 21.8704V25.4531H101.227V19.419H102.354V20.4011H102.429C102.568 20.0816 102.785 19.825 103.081 19.6312C103.38 19.4374 103.755 19.3405 104.209 19.3405C104.62 19.3405 104.98 19.4269 105.289 19.5997C105.598 19.77 105.838 20.024 106.008 20.3619C106.178 20.6997 106.263 21.1174 106.263 21.615V25.4531H105.089V21.7565C105.089 21.3191 104.975 20.9773 104.747 20.7311C104.519 20.4823 104.206 20.3579 103.808 20.3579C103.535 20.3579 103.293 20.4169 103.081 20.5347C102.872 20.6526 102.705 20.8254 102.582 21.0533C102.462 21.2785 102.401 21.5509 102.401 21.8704ZM108.919 23.4064L108.911 21.9725H109.115L111.519 19.419H112.926L110.184 22.3261H109.999L108.919 23.4064ZM107.838 25.4531V17.4077H109.013V25.4531H107.838ZM111.649 25.4531L109.488 22.5854L110.298 21.7643L113.091 25.4531H111.649ZM118.518 20.8922L117.453 21.0808C117.409 20.9446 117.338 20.8149 117.241 20.6918C117.147 20.5688 117.019 20.4679 116.856 20.3894C116.694 20.3108 116.491 20.2715 116.247 20.2715C115.915 20.2715 115.637 20.3461 115.414 20.4954C115.192 20.6421 115.081 20.832 115.081 21.0651C115.081 21.2667 115.155 21.4291 115.304 21.5522C115.454 21.6753 115.695 21.7761 116.027 21.8547L116.986 22.0747C117.541 22.203 117.955 22.4007 118.227 22.6679C118.5 22.935 118.636 23.282 118.636 23.7089C118.636 24.0703 118.531 24.3924 118.322 24.6753C118.115 24.9555 117.825 25.1755 117.453 25.3353C117.084 25.495 116.656 25.5749 116.169 25.5749C115.493 25.5749 114.942 25.4309 114.515 25.1428C114.088 24.8521 113.826 24.4396 113.729 23.9053L114.864 23.7325C114.935 24.0284 115.081 24.2523 115.301 24.4042C115.521 24.5535 115.807 24.6282 116.161 24.6282C116.546 24.6282 116.854 24.5483 117.084 24.3885C117.315 24.2261 117.43 24.0284 117.43 23.7953C117.43 23.6068 117.359 23.4483 117.218 23.32C117.079 23.1917 116.865 23.0947 116.577 23.0293L115.556 22.8054C114.993 22.677 114.576 22.4727 114.307 22.1925C114.039 21.9123 113.906 21.5574 113.906 21.1279C113.906 20.7717 114.005 20.4601 114.204 20.1929C114.404 19.9258 114.679 19.7176 115.029 19.5683C115.38 19.4164 115.782 19.3405 116.235 19.3405C116.888 19.3405 117.401 19.4819 117.775 19.7647C118.15 20.045 118.397 20.4208 118.518 20.8922Z" fill="#2E3A55"/>
<defs>
<linearGradient id="paint0_linear_4003_1368" x1="17.1742" y1="23.2856" x2="24.8213" y2="17.2316" gradientUnits="userSpaceOnUse">
<stop stop-color="#0048E5"/>
<stop offset="0.63979" stop-color="#625AF5"/>
<stop offset="1" stop-color="#8A62FC"/>
</linearGradient>
<linearGradient id="paint1_linear_4003_1368" x1="17.2754" y1="13.2064" x2="17.1742" y2="23.2866" gradientUnits="userSpaceOnUse">
<stop stop-color="#11EFE3"/>
<stop offset="0.33" stop-color="#15E8E2"/>
<stop offset="0.74" stop-color="#1FD3E0"/>
<stop offset="1" stop-color="#21CFE0"/>
</linearGradient>
</defs>
</svg>
