<svg width="201" height="41" viewBox="0 0 201 41" fill="none" xmlns="http://www.w3.org/2000/svg">
<path d="M66.3891 8.29819C66.5061 8.31819 66.6621 8.39619 66.6821 8.57219C66.7021 8.72819 70.2971 33.0562 70.2971 33.0562L61.4841 35.2432L41.1431 31.7272C41.1431 31.7272 43.5661 12.9492 43.6631 12.3042C43.7811 11.4242 43.8201 11.4052 44.7381 11.1122C44.7521 11.0982 45.4081 10.8962 46.4471 10.5772L47.8841 10.1352C48.0801 8.72819 48.7641 6.91119 49.6821 5.46519C50.9921 3.39419 52.5741 2.24119 54.1761 2.20219C54.9971 2.18219 55.6811 2.45619 56.2281 3.04219C56.2681 3.10019 56.3061 3.14019 56.3451 3.17919C56.4241 3.15919 56.5211 3.15919 56.5991 3.15919C57.8491 3.15919 58.8661 3.86319 59.5691 5.21119C59.7841 5.62119 59.9411 6.03119 60.0391 6.36419L61.0351 6.05119C61.1911 6.01119 61.5621 5.95319 61.7581 6.14919C61.9531 6.34419 63.9271 8.25919 63.9271 8.25919C63.9271 8.25919 66.2721 8.27919 66.3891 8.29919V8.29819ZM58.2311 6.92019C58.5111 6.83219 58.7751 6.74819 59.0221 6.67619C58.7681 5.85619 58.1821 4.48819 56.9511 4.25319C57.3221 5.23019 57.4201 6.36319 57.4401 7.16519C57.7161 7.08219 57.9811 6.99919 58.2311 6.92019ZM55.5611 7.75119L56.3841 7.49719C56.3841 6.61719 56.3061 5.30819 55.8571 4.39019C55.3871 4.58619 54.9971 4.91819 54.7041 5.23019C53.9421 6.05119 53.3171 7.30219 52.9841 8.55219C53.842 8.28168 54.701 8.01468 55.5611 7.75119ZM55.1531 3.53119C54.8801 3.35419 54.5671 3.27619 54.1961 3.27619C51.7341 3.35419 49.5841 7.20419 48.9981 9.78319L49.2541 9.70319C50.0581 9.45319 50.9091 9.18819 51.7921 8.92319C52.1051 7.28319 52.8871 5.60219 53.9021 4.50719C54.2941 4.07719 54.7241 3.74619 55.1531 3.53119ZM55.5831 16.6612L56.5991 12.8312C56.5991 12.8312 55.7201 12.3822 53.9611 12.5382C49.4871 12.8312 47.4551 15.9582 47.6501 19.0452C47.7821 21.0962 48.9971 21.9592 50.0621 22.7152C50.8941 23.3062 51.6351 23.8322 51.6951 24.8102C51.7341 25.3572 51.4021 26.1192 50.4641 26.1772C49.0371 26.2562 47.2401 24.9072 47.2401 24.9072L46.5561 27.8192C46.5561 27.8192 48.3341 29.7142 51.5781 29.5192C54.2741 29.3432 56.1501 27.1932 55.9551 24.0282C55.8011 21.6062 54.0981 20.5132 52.7491 19.6472C51.8661 19.0812 51.1351 18.6112 51.0891 17.9312C51.0691 17.5992 51.0891 16.3492 53.0821 16.2312C53.9376 16.1821 54.793 16.3292 55.5831 16.6612Z" fill="#95BF47"/>
<path d="M66.3929 8.30344C66.2729 8.28344 63.9229 8.26344 63.9229 8.26344L61.7529 6.14344C61.6821 6.06957 61.5852 6.02648 61.4829 6.02344V35.2434L70.2929 33.0534C70.2929 33.0534 66.6929 8.75344 66.6829 8.57344C66.6669 8.50297 66.6295 8.43918 66.5757 8.39084C66.522 8.3425 66.4547 8.31196 66.3829 8.30344H66.3929Z" fill="#5E8E3E"/>
<path d="M56.6032 12.8322L55.5832 16.6622C55.5832 16.6622 54.4532 16.1322 53.0832 16.2322C51.0832 16.3522 51.0732 17.6022 51.0832 17.9322C51.2032 19.6522 55.7032 20.0222 55.9532 24.0322C56.1532 27.1922 54.2732 29.3422 51.5732 29.5222C50.6644 29.6018 49.7489 29.4918 48.8848 29.1991C48.0207 28.9065 47.2267 28.4376 46.5532 27.8222L47.2432 24.9022C47.2432 24.9022 49.0432 26.2522 50.4632 26.1722C50.6349 26.1687 50.8041 26.1301 50.9603 26.0588C51.1165 25.9875 51.2565 25.885 51.3717 25.7577C51.4869 25.6303 51.5748 25.4807 51.6301 25.3181C51.6854 25.1556 51.7069 24.9834 51.6932 24.8122C51.5532 22.5822 47.8932 22.7022 47.6532 19.0422C47.4532 15.9522 49.4832 12.8322 53.9532 12.5422C55.7232 12.3822 56.6032 12.8322 56.6032 12.8322Z" fill="white"/>
<path d="M82.2429 21.0029C81.2229 20.4529 80.6929 19.9829 80.6929 19.3429C80.6929 18.5129 81.4129 17.9929 82.5729 17.9929C83.8929 17.9929 85.0729 18.5329 85.0729 18.5329L86.0029 15.6829C86.0029 15.6829 85.1429 15.0229 82.6229 15.0229C79.1129 15.0229 76.6628 17.0329 76.6628 19.8629C76.6628 21.4629 77.8029 22.7029 79.3229 23.5829C80.5529 24.2829 80.9828 24.7729 80.9828 25.5129C80.9828 26.2729 80.3829 26.8829 79.2229 26.8829C77.5229 26.8829 75.9229 26.0029 75.9229 26.0029L74.9229 28.8529C74.9229 28.8529 76.4129 29.8529 78.8929 29.8529C82.5129 29.8529 85.1129 28.0729 85.1129 24.8729C85.1329 23.1329 83.8128 21.9029 82.2328 21.0029H82.2429ZM96.6529 14.9829C94.8829 14.9829 93.4729 15.8229 92.3929 17.1129L92.3428 17.0929L93.8829 8.99289H89.8428L85.9429 29.5729H89.9629L91.3129 22.5429C91.8429 19.8829 93.2129 18.2429 94.4929 18.2429C95.3929 18.2429 95.7429 18.8429 95.7429 19.7329C95.7429 20.2729 95.6929 20.9629 95.5729 21.5029L94.0429 29.5529H98.0729L99.6529 21.2329C99.8329 20.3529 99.9529 19.3029 99.9529 18.6129C99.9529 16.3729 98.7329 14.9829 96.6529 14.9829ZM109.063 14.9829C104.223 14.9829 101.013 19.3529 101.013 24.2429C101.013 27.3729 102.953 29.8729 106.563 29.8729C111.313 29.8729 114.533 25.6129 114.533 20.6129C114.513 17.7329 112.813 14.9829 109.063 14.9829ZM107.063 26.7829C105.703 26.7829 105.113 25.6129 105.113 24.1629C105.113 21.8629 106.313 18.0829 108.503 18.0829C109.923 18.0829 110.403 19.3229 110.403 20.5129C110.403 22.9929 109.203 26.7829 107.073 26.7829H107.063ZM124.813 14.9829C122.103 14.9829 120.553 17.3629 120.553 17.3629H120.493L120.733 15.1929H117.173C116.961 16.9819 116.688 18.7629 116.353 20.5329L113.553 35.2629H117.583L118.703 29.3029H118.773C118.773 29.3029 119.593 29.8329 121.143 29.8329C125.873 29.8329 128.953 24.9829 128.953 20.0829C128.973 17.4029 127.763 14.9829 124.813 14.9829ZM120.963 26.8429C119.913 26.8429 119.303 26.2529 119.303 26.2529L119.973 22.4829C120.433 19.9829 121.743 18.3029 123.153 18.3029C124.383 18.3029 124.753 19.4329 124.753 20.5329C124.753 23.1329 123.213 26.8329 120.963 26.8329V26.8429ZM134.723 9.21289C134.417 9.21282 134.113 9.27392 133.831 9.39262C133.549 9.51132 133.293 9.68523 133.079 9.90413C132.864 10.123 132.696 10.3825 132.583 10.6674C132.471 10.9522 132.416 11.2567 132.423 11.5629C132.423 12.7529 133.173 13.5729 134.313 13.5729H134.373C135.623 13.5729 136.713 12.7329 136.733 11.2329C136.733 10.0529 135.953 9.21289 134.723 9.21289ZM129.093 29.5729H133.123L135.853 15.3129H131.793L129.093 29.5729ZM146.093 15.2729H143.293L143.433 14.6129C143.673 13.2429 144.493 12.0129 145.823 12.0129C146.543 12.0129 147.113 12.2129 147.113 12.2129L147.893 9.06289C147.893 9.06289 147.193 8.71289 145.703 8.71289C144.273 8.71289 142.853 9.11289 141.753 10.0529C140.383 11.2329 139.743 12.9129 139.413 14.6129L139.293 15.2729H137.413L136.833 18.3029H138.703L136.573 29.5729H140.603L142.733 18.3029H145.503L146.103 15.2729H146.093ZM155.793 15.3129C155.793 15.3129 153.263 21.6629 152.133 25.1129H152.073C151.993 24.0129 151.073 15.3129 151.073 15.3129H146.853L149.283 28.4229C149.333 28.7229 149.303 28.8929 149.203 29.0929C148.672 30.0631 147.918 30.8927 147.003 31.5129C146.253 32.0629 145.403 32.4129 144.723 32.6429L145.843 36.0629C146.663 35.8929 148.343 35.2229 149.783 33.8729C151.623 32.1529 153.323 29.5029 155.063 25.8829L159.983 15.3129H155.783H155.793Z" fill="black"/>
</svg>
