<svg width="201" height="41" viewBox="0 0 201 41" fill="none" xmlns="http://www.w3.org/2000/svg">
<path d="M50.1331 5.14263C41.9401 5.14263 35.2711 11.8106 35.2671 20.0066C35.2671 22.6266 35.9511 25.1846 37.2521 27.4386L35.1431 35.1426L43.0231 33.0756C45.2027 34.2627 47.6451 34.8847 50.1271 34.8846H50.1331C58.3261 34.8846 64.9951 28.2146 64.9991 20.0196C65.0054 18.0661 64.6243 16.1306 63.8776 14.3254C63.1309 12.5201 62.0336 10.8809 60.6491 9.50263C59.2719 8.11628 57.6332 7.01704 55.8281 6.26862C54.0229 5.5202 52.0872 5.13747 50.1331 5.14263ZM50.1331 32.3736H50.1281C47.9121 32.3736 45.7361 31.7766 43.8401 30.6516L43.3891 30.3846L38.7131 31.6106L39.9611 27.0516L39.6671 26.5846C38.4294 24.6148 37.7741 22.335 37.7771 20.0086C37.7801 13.1956 43.3231 7.65363 50.1391 7.65363C53.4391 7.65463 56.5411 8.94163 58.8731 11.2776C60.0236 12.4231 60.9356 13.7853 61.5563 15.2855C62.177 16.7857 62.494 18.3941 62.4891 20.0176C62.4871 26.8306 56.9441 32.3736 50.1331 32.3736ZM56.9101 23.1206C56.5401 22.9346 54.7131 22.0356 54.3721 21.9116C54.0321 21.7876 53.7841 21.7256 53.5361 22.0976C53.2891 22.4696 52.5771 23.3066 52.3611 23.5546C52.1441 23.8026 51.9271 23.8336 51.5561 23.6476C51.1851 23.4616 49.9871 23.0676 48.5691 21.8036C47.4651 20.8186 46.7191 19.6016 46.5031 19.2306C46.2871 18.8586 46.4801 18.6576 46.6661 18.4726C46.8331 18.3066 47.0371 18.0386 47.2231 17.8216C47.4091 17.6046 47.4711 17.4496 47.5941 17.2016C47.7181 16.9536 47.6561 16.7366 47.5641 16.5506C47.4701 16.3646 46.7271 14.5356 46.4181 13.7926C46.1161 13.0686 45.8101 13.1656 45.5821 13.1546C45.3449 13.1444 45.1075 13.14 44.8701 13.1416C44.6231 13.1416 44.2201 13.2346 43.8801 13.6066C43.5391 13.9786 42.5801 14.8766 42.5801 16.7046C42.5801 18.5336 43.9101 20.2996 44.0961 20.5476C44.2821 20.7956 46.7151 24.5476 50.4411 26.1556C51.3271 26.5386 52.0191 26.7666 52.5591 26.9376C53.4491 27.2206 54.2591 27.1806 54.8981 27.0846C55.6111 26.9776 57.0961 26.1866 57.4051 25.3176C57.7151 24.4506 57.7151 23.7076 57.6211 23.5516C57.5281 23.3966 57.2811 23.3036 56.9101 23.1176V23.1206ZM83.2091 22.8936H83.1691L80.7041 12.9506H77.7341L75.2291 22.7726H75.1891L72.9061 12.9516H69.7351L73.5531 27.3806H76.7651L79.1691 17.5586H79.2091L81.6541 27.3806H84.8061L88.6851 12.9506H85.5731L83.2091 22.8936ZM98.3611 17.8316C98.0781 17.4616 97.6911 17.1716 97.2001 16.9616C96.7081 16.7546 96.0781 16.6506 95.3101 16.6506C94.7721 16.6506 94.2201 16.7876 93.6541 17.0646C93.0881 17.3406 92.6241 17.7816 92.2601 18.3886H92.1991V12.9516H89.3311V27.3796H92.1991V21.9026C92.1991 20.8376 92.3741 20.0736 92.7251 19.6086C93.0751 19.1436 93.6411 18.9116 94.4221 18.9116C95.1081 18.9116 95.5861 19.1236 95.8561 19.5486C96.1261 19.9726 96.2611 20.6156 96.2611 21.4776V27.3776H99.1301V20.9526C99.1301 20.3056 99.0721 19.7166 98.9581 19.1836C98.8431 18.6536 98.6441 18.2026 98.3611 17.8316ZM110.179 25.0556V19.6206C110.179 18.9856 110.039 18.4776 109.755 18.0946C109.471 17.7095 109.097 17.4003 108.665 17.1946C108.199 16.9729 107.701 16.8265 107.189 16.7606C106.661 16.6873 106.128 16.6503 105.594 16.6496C105.015 16.6496 104.439 16.7056 103.867 16.8216C103.323 16.9255 102.8 17.1202 102.321 17.3976C101.868 17.6636 101.481 18.0296 101.191 18.4676C100.894 18.9126 100.725 19.4716 100.685 20.1456H103.554C103.608 19.5806 103.797 19.1756 104.12 18.9326C104.443 18.6906 104.888 18.5696 105.453 18.5696C105.709 18.5696 105.948 18.5866 106.17 18.6196C106.392 18.6546 106.587 18.7196 106.756 18.8216C106.924 18.9226 107.059 19.0646 107.16 19.2466C107.261 19.4286 107.311 19.6746 107.311 19.9836C107.324 20.2806 107.236 20.5046 107.049 20.6606C106.859 20.8156 106.604 20.9346 106.28 21.0146C105.915 21.1032 105.543 21.1637 105.169 21.1956C104.751 21.2376 104.327 21.2926 103.897 21.3586C103.465 21.4256 103.038 21.5166 102.614 21.6306C102.21 21.7359 101.827 21.9101 101.482 22.1456C101.152 22.3756 100.882 22.6816 100.673 23.0656C100.465 23.4496 100.36 23.9396 100.36 24.5306C100.36 25.0696 100.451 25.5346 100.633 25.9246C100.815 26.3166 101.068 26.6386 101.391 26.8946C101.714 27.1516 102.091 27.3406 102.522 27.4616C102.952 27.5826 103.418 27.6436 103.916 27.6436C104.56 27.6437 105.2 27.5483 105.815 27.3606C106.43 27.1742 106.987 26.833 107.432 26.3696C107.457 26.7134 107.524 27.0527 107.633 27.3796H110.543C110.408 27.1646 110.313 26.8416 110.259 26.4096C110.204 25.9604 110.178 25.5082 110.179 25.0556ZM107.311 23.3376C107.311 23.5006 107.295 23.7166 107.261 23.9856C107.228 24.2556 107.136 24.5206 106.988 24.7836C106.839 25.0466 106.61 25.2736 106.3 25.4606C105.991 25.6506 105.553 25.7436 104.987 25.7436C104.758 25.7436 104.536 25.7236 104.32 25.6826C104.12 25.6481 103.928 25.5761 103.754 25.4706C103.592 25.3684 103.459 25.2253 103.37 25.0556C103.27 24.8553 103.222 24.6333 103.229 24.4096C103.229 24.1406 103.276 23.9176 103.37 23.7426C103.461 23.5717 103.589 23.4233 103.745 23.3086C103.911 23.1884 104.095 23.0962 104.29 23.0356C104.498 22.9686 104.71 22.9146 104.927 22.8736C105.155 22.8336 105.385 22.7986 105.613 22.7736C105.843 22.7466 106.061 22.7126 106.27 22.6716C106.479 22.6316 106.674 22.5816 106.857 22.5206C107.038 22.4596 107.189 22.3766 107.311 22.2676V23.3376ZM115.534 13.8006H112.665V16.9316H110.928V18.8516H112.665V25.0156C112.665 25.5416 112.753 25.9656 112.928 26.2886C113.104 26.6116 113.343 26.8626 113.645 27.0366C113.97 27.2197 114.327 27.3394 114.696 27.3896C115.093 27.4496 115.515 27.4806 115.959 27.4806C116.243 27.4806 116.532 27.4736 116.829 27.4616C117.1 27.4506 117.37 27.4236 117.637 27.3806V25.1576C117.497 25.1857 117.355 25.2058 117.212 25.2176C117.058 25.2324 116.903 25.2394 116.748 25.2386C116.264 25.2386 115.94 25.1576 115.778 24.9956C115.617 24.8336 115.537 24.5106 115.537 24.0256V18.8516H117.638V16.9316H115.537V13.7996H115.534V13.8006ZM127.392 22.8036C127.206 22.4762 126.951 22.193 126.645 21.9736C126.319 21.7445 125.962 21.5642 125.584 21.4386C125.183 21.3038 124.775 21.1893 124.362 21.0956C123.966 21.0027 123.569 20.915 123.17 20.8326C122.818 20.7616 122.471 20.6708 122.129 20.5606C121.861 20.4775 121.611 20.3434 121.393 20.1656C121.302 20.0896 121.229 19.9937 121.18 19.8852C121.131 19.7767 121.107 19.6585 121.111 19.5396C121.111 19.3236 121.163 19.1516 121.272 19.0246C121.379 18.8979 121.514 18.7973 121.666 18.7306C121.822 18.6636 121.992 18.6206 122.181 18.5996C122.369 18.5796 122.545 18.5696 122.706 18.5696C123.217 18.5696 123.662 18.6676 124.04 18.8626C124.417 19.0586 124.626 19.4326 124.665 19.9836H127.393C127.339 19.3376 127.174 18.8016 126.898 18.3766C126.633 17.9627 126.277 17.6141 125.858 17.3566C125.419 17.0917 124.937 16.9068 124.433 16.8106C123.891 16.7022 123.34 16.6482 122.788 16.6496C122.223 16.6496 121.669 16.6996 121.132 16.7996C120.621 16.8911 120.128 17.0693 119.677 17.3266C119.249 17.5728 118.891 17.9238 118.636 18.3466C118.373 18.7766 118.242 19.3296 118.242 20.0036C118.242 20.4616 118.336 20.8496 118.526 21.1666C118.713 21.4836 118.963 21.7446 119.271 21.9546C119.583 22.1626 119.936 22.3326 120.333 22.4596C120.73 22.5896 121.138 22.6996 121.555 22.7936C122.58 23.0096 123.378 23.2246 123.95 23.4416C124.523 23.6566 124.808 23.9796 124.808 24.4116C124.808 24.6676 124.748 24.8776 124.627 25.0466C124.508 25.2137 124.352 25.3518 124.172 25.4506C123.983 25.555 123.778 25.6299 123.566 25.6726C123.357 25.7186 123.143 25.7424 122.929 25.7436C122.646 25.7436 122.374 25.7096 122.111 25.6436C121.861 25.5818 121.625 25.4754 121.413 25.3296C121.21 25.1863 121.041 24.9998 120.918 24.7836C120.785 24.5392 120.719 24.2639 120.726 23.9856H117.999C118.027 24.6856 118.184 25.2686 118.475 25.7336C118.753 26.1884 119.133 26.5724 119.585 26.8556C120.036 27.1376 120.552 27.3406 121.132 27.4616C122.294 27.7014 123.493 27.7048 124.656 27.4716C125.197 27.3697 125.714 27.1676 126.181 26.8756C126.626 26.5935 126.996 26.2091 127.262 25.7546C127.538 25.2886 127.676 24.7136 127.676 24.0256C127.676 23.5406 127.582 23.1336 127.394 22.8046L127.392 22.8036ZM133.089 12.9506L127.634 27.3806H130.826L131.957 24.1666H137.351L138.441 27.3806H141.735L136.341 12.9506H133.089ZM132.786 21.8036L134.665 16.5086H134.705L136.524 21.8036H132.786ZM151.655 18.3476C151.261 17.8325 150.757 17.4116 150.18 17.1156C149.588 16.8056 148.881 16.6506 148.06 16.6506C147.413 16.6506 146.821 16.7776 146.282 17.0336C145.742 17.2896 145.299 17.7006 144.949 18.2666H144.908V16.9316H142.18V31.0386H145.051V26.0876H145.09C145.44 26.5996 145.889 26.9866 146.435 27.2476C146.993 27.5136 147.605 27.6487 148.223 27.6426C148.991 27.6426 149.661 27.4926 150.233 27.1976C150.793 26.9109 151.283 26.5034 151.667 26.0046C152.058 25.4908 152.35 24.9085 152.527 24.2876C152.713 23.6406 152.809 22.9676 152.809 22.2666C152.809 21.5256 152.713 20.8156 152.527 20.1336C152.354 19.4877 152.058 18.8808 151.657 18.3456L151.655 18.3476ZM149.817 23.4196C149.735 23.8246 149.597 24.1776 149.403 24.4796C149.207 24.7836 148.952 25.0296 148.634 25.2186C148.318 25.4066 147.924 25.5026 147.453 25.5026C146.982 25.5026 146.605 25.4076 146.282 25.2186C145.967 25.0386 145.7 24.7855 145.504 24.4806C145.299 24.1557 145.156 23.7962 145.08 23.4196C144.992 23.0149 144.948 22.6018 144.949 22.1876C144.949 21.7716 144.988 21.3376 145.069 20.9346C145.141 20.5549 145.282 20.1915 145.485 19.8626C145.678 19.5526 145.935 19.3016 146.253 19.1056C146.569 18.9106 146.962 18.8116 147.434 18.8116C147.905 18.8116 148.28 18.9106 148.595 19.1056C148.912 19.3006 149.172 19.5556 149.373 19.8736C149.575 20.1906 149.719 20.5506 149.808 20.9536C149.895 21.3595 149.939 21.7735 149.938 22.1886C149.938 22.6066 149.898 23.0166 149.817 23.4186V23.4196ZM163.958 20.1356C163.786 19.4894 163.491 18.8824 163.089 18.3476C162.695 17.8328 162.192 17.4119 161.615 17.1156C161.022 16.8056 160.314 16.6506 159.493 16.6506C158.847 16.6506 158.254 16.7776 157.716 17.0336C157.177 17.2896 156.732 17.7006 156.382 18.2666H156.343V16.9316H153.615V31.0386H156.484V26.0876H156.525C156.875 26.5996 157.323 26.9866 157.868 27.2476C158.426 27.5134 159.038 27.6485 159.656 27.6426C160.424 27.6426 161.093 27.4926 161.666 27.1976C162.227 26.9112 162.716 26.5037 163.1 26.0046C163.485 25.5056 163.77 24.9346 163.959 24.2876C164.148 23.6406 164.242 22.9676 164.242 22.2666C164.242 21.5256 164.148 20.8156 163.959 20.1336L163.958 20.1356ZM161.25 23.4196C161.181 23.7962 161.041 24.1561 160.836 24.4796C160.64 24.7836 160.385 25.0296 160.068 25.2186C159.752 25.4066 159.358 25.5026 158.886 25.5026C158.415 25.5026 158.038 25.4076 157.714 25.2186C157.399 25.0386 157.132 24.7855 156.936 24.4806C156.732 24.1555 156.588 23.796 156.512 23.4196C156.424 23.0149 156.38 22.6018 156.38 22.1876C156.38 21.7716 156.421 21.3376 156.502 20.9346C156.574 20.5549 156.714 20.1916 156.917 19.8626C157.111 19.5526 157.368 19.3016 157.685 19.1056C158 18.9106 158.395 18.8116 158.866 18.8116C159.338 18.8116 159.711 18.9106 160.027 19.1056C160.345 19.3006 160.604 19.5556 160.806 19.8736C161.008 20.1906 161.154 20.5506 161.24 20.9536C161.329 21.3586 161.372 21.7706 161.372 22.1886C161.372 22.6066 161.331 23.0166 161.25 23.4186V23.4196Z" fill="#25D366"/>
</svg>
