<svg width="79" height="79" viewBox="0 0 79 79" fill="none" xmlns="http://www.w3.org/2000/svg">
<rect x="0.642578" y="1.39258" width="77" height="77" rx="7.5" fill="#F6F9FC"/>
<rect x="0.642578" y="1.39258" width="77" height="77" rx="7.5" stroke="#C4CCD8"/>
<path d="M42.6466 34.6175L34.0112 36.4968L23.217 38.7342C22.1376 39.0026 21.418 39.8976 21.418 40.9715V55.3799C21.418 56.6327 22.4074 57.6171 23.6668 57.6171H45.3451V36.8548C45.3451 35.4229 44.0857 34.349 42.6466 34.6175Z" stroke="#C4CCD8"/>
<path d="M54.0771 22.2109L34.7375 26.2929C33.6581 26.5591 32.9385 27.4465 32.9385 28.5113V36.5866V57.6175H54.6168C55.8762 57.44 56.8656 56.4639 56.8656 55.2216V24.4294C56.8656 23.0095 55.5163 21.9447 54.0771 22.2109Z" stroke="#C4CCD8"/>
</svg>
