<svg width="79" height="79" viewBox="0 0 79 79" fill="none" xmlns="http://www.w3.org/2000/svg">
<rect x="0.642578" y="1.39258" width="77" height="77" rx="7.5" fill="#F6F9FC"/>
<rect x="0.642578" y="1.39258" width="77" height="77" rx="7.5" stroke="#C4CCD8"/>
<path d="M28.5563 25.7148H50.8542C51.5884 25.7148 52.1835 26.31 52.1835 27.0441C52.1835 27.3751 52.0601 27.6941 51.8373 27.9389L40.1495 40.7801L26.5938 26.5306C26.8367 26.2799 27.1168 26.0813 27.4339 25.9347C27.751 25.7881 28.1251 25.7148 28.5563 25.7148Z" stroke="#C4CCD8"/>
<path d="M25.8496 28.3771C25.8496 27.6601 26.1334 27.0094 26.5948 26.5312L40.1496 40.7797L40.1328 40.8015L40.1527 40.7797L51.8335 53.6201C52.0567 53.865 52.1805 54.1844 52.1805 54.5157C52.1805 55.2498 51.5854 55.845 50.8512 55.845H28.5082C27.0399 55.845 25.8496 54.6547 25.8496 53.1864V28.3771Z" stroke="#C4CCD8"/>
<path d="M28.3969 55.8445H50.8507C51.5849 55.8445 52.18 55.2494 52.18 54.5153C52.18 54.1839 52.0563 53.8645 51.833 53.6197L40.1257 40.7793L27.7421 54.3612C27.4123 54.723 27.4382 55.2835 27.7999 55.6132C27.9631 55.762 28.176 55.8445 28.3969 55.8445Z" stroke="#C4CCD8"/>
</svg>
