<svg width="79" height="79" viewBox="0 0 79 79" fill="none" xmlns="http://www.w3.org/2000/svg">
<rect x="0.642578" y="1.39258" width="77" height="77" rx="7.5" fill="#F6F9FC"/>
<rect x="0.642578" y="1.39258" width="77" height="77" rx="7.5" stroke="#C4CCD8"/>
<path d="M49.3459 31.0659L41.8138 54.0702L41.7949 54.1562L41.7718 54.2422L41.7439 54.324C41.7368 54.3488 41.7284 54.3733 41.7189 54.3973L41.6596 54.5406L41.5904 54.6793L41.568 54.7187L41.4903 54.8487L41.4033 54.9725L41.3754 55.0091L41.2782 55.1249L41.1743 55.2347L41.1491 55.2545C41.0761 55.3263 40.9977 55.3922 40.9146 55.4519L40.7784 55.5384L40.6353 55.6126L40.6074 55.6294L40.4694 55.6912L40.3282 55.7451H40.2863L40.1397 55.7872C40.1145 55.7924 40.0971 55.7629 40.1137 55.7434L40.1414 55.7108C40.4977 55.2548 40.6628 54.6752 40.5967 54.0957C40.5299 53.5114 40.2108 53.1335 39.7506 52.7949L39.6218 52.7033L30.206 45.8548L30.085 45.7603C30.042 45.7241 30.0006 45.6867 29.9608 45.6478C29.9524 45.6396 29.9432 45.6305 29.9339 45.6212C29.9065 45.5934 29.8801 45.5653 29.8545 45.5366L29.8194 45.4963C29.7987 45.4718 29.7789 45.4474 29.7595 45.4226C29.7451 45.404 29.7306 45.3846 29.7163 45.365L29.6921 45.3309L29.6689 45.2969C29.656 45.2778 29.6433 45.2581 29.6308 45.2382C29.6161 45.2146 29.602 45.191 29.5882 45.1671C29.5789 45.151 29.5699 45.1346 29.561 45.1183C29.5446 45.088 29.5289 45.0573 29.514 45.0262L29.4911 44.9771C29.4791 44.9506 29.4674 44.9234 29.4564 44.896C29.4488 44.8773 29.4417 44.8589 29.4347 44.8404C29.4225 44.8077 29.4109 44.7743 29.4002 44.7407C29.3956 44.7264 29.3913 44.7126 29.3871 44.6986C29.3779 44.6679 29.3693 44.6365 29.3613 44.605L29.3475 44.5466C29.3413 44.5189 29.3357 44.4914 29.3306 44.4639L29.3199 44.4002C29.3072 44.3178 29.2991 44.2346 29.2957 44.1512C29.2931 44.0849 29.2934 44.0182 29.2967 43.9516C29.3021 43.8477 29.3139 43.749 29.3325 43.6509C29.3378 43.623 29.3436 43.5949 29.3501 43.567C29.3549 43.5459 29.36 43.5251 29.3655 43.5042L29.3864 43.4296C29.3941 43.4039 29.4022 43.3782 29.4109 43.3526L29.4168 43.3356C29.4482 43.1138 29.5123 42.8942 29.6107 42.6842L29.691 42.5287L36.1417 31.0305M49.3459 31.0659L49.3498 31.0636C49.6484 30.1473 49.3203 29.1429 48.5384 28.5796L42.7227 24.3951C42.2143 24.0296 41.5749 23.8963 40.9628 24.0283L40.7981 24.0704C40.2565 24.2314 39.7946 24.5943 39.5103 25.0874L36.1377 31.0299M49.3459 31.0659L49.3599 31.0304" stroke="#C4CCD8"/>
<path d="M53.7645 31.0312H24.5202C23.2966 31.0312 22.3047 32.0232 22.3047 33.2467V53.6291C22.3047 54.8527 23.2966 55.8446 24.5202 55.8446H53.7645C54.988 55.8446 55.9799 54.8527 55.9799 53.6291V33.2467C55.9799 32.0232 54.988 31.0312 53.7645 31.0312Z" stroke="#C4CCD8"/>
</svg>
