<svg width="500" height="335" viewBox="0 0 500 335" fill="none" xmlns="http://www.w3.org/2000/svg">
<g clip-path="url(#clip0_4003_1385)">
<rect y="0.800781" width="500" height="333.33" rx="4" fill="#F6F9FC"/>
<g clip-path="url(#clip1_4003_1385)">
<g clip-path="url(#clip2_4003_1385)">
<path d="M104.477 64.2671V67.7811H102.86V58.7051H106.487C108.51 58.7051 109.774 59.6531 109.774 61.4861C109.774 63.2941 108.51 64.2671 106.487 64.2671H104.477ZM104.477 62.8771H106.4C107.563 62.8771 108.182 62.3711 108.182 61.4871C108.182 60.5891 107.562 60.0961 106.4 60.0961H104.478V62.8761L104.477 62.8771ZM116.44 64.4691C116.44 66.5291 115.113 67.9201 113.243 67.9201C111.372 67.9201 110.045 66.5301 110.045 64.4701C110.045 62.4091 111.372 61.0191 113.243 61.0191C115.113 61.0191 116.44 62.4091 116.44 64.4691ZM111.574 64.4691C111.574 65.8221 112.219 66.6431 113.243 66.6431C114.266 66.6431 114.911 65.8221 114.911 64.4691C114.911 63.1171 114.266 62.2951 113.243 62.2951C112.219 62.2951 111.574 63.1171 111.574 64.4691ZM120.658 61.1451H121.909L123.097 65.5441L124.273 61.1451H125.777L123.78 67.7811H122.465L121.252 63.4331L120.038 67.7811H118.724L116.727 61.1451H118.281L119.482 65.5441L120.658 61.1451ZM128.974 67.9201C127.116 67.9201 126.054 66.3531 126.054 64.4701C126.054 62.5861 127.116 61.0191 128.974 61.0191C129.834 61.0191 130.466 61.3591 130.883 61.8531V58.7051H132.4V67.7811H130.883V67.0861C130.466 67.5791 129.833 67.9201 128.974 67.9201ZM130.921 64.2801C130.921 63.0281 130.213 62.3461 129.278 62.3461C128.178 62.3461 127.584 63.2061 127.584 64.4691C127.584 65.7331 128.178 66.5931 129.278 66.5931C130.213 66.5931 130.921 65.8981 130.921 64.6721V64.2801ZM139.513 61.1451V67.7811H137.996V67.0731C137.616 67.5161 137.048 67.9201 136.188 67.9201C134.798 67.9201 133.938 66.9721 133.938 65.5441V61.1451H135.455V65.2151C135.455 66.0241 135.809 66.5421 136.631 66.5421C137.313 66.5421 137.996 66.0371 137.996 65.0891V61.1451H139.513ZM144.878 61.1321V62.6491C144.694 62.623 144.508 62.6103 144.322 62.6111C143.362 62.6111 142.628 63.2311 142.628 64.2921V67.7811H141.111V61.1451H142.628V62.1311C142.918 61.5111 143.601 61.1071 144.448 61.1071C144.625 61.1071 144.764 61.1201 144.878 61.1321Z" fill="#2E3A55"/>
<path d="M96.5 63.0312C96.5 69.7962 91.015 75.2812 84.25 75.2812C77.485 75.2812 72 69.7962 72 63.0312C72 56.2663 77.485 50.7812 84.25 50.7812C91.015 50.7812 96.5 56.2663 96.5 63.0312Z" fill="black"/>
<path d="M85.13 56.9609C84.674 56.9609 84.267 57.1069 83.905 57.4059C83.559 57.6999 83.325 58.1139 83.205 58.6409V65.5989C83.527 65.9469 83.945 66.1179 84.469 66.1179C85.323 66.1179 85.939 65.7109 86.313 64.9019C86.688 64.0769 86.873 62.8849 86.873 61.3159C86.873 59.7479 86.72 58.6289 86.414 57.9629C86.116 57.2929 85.689 56.9599 85.129 56.9599L85.13 56.9609ZM86.31 56.1309C87.006 56.1309 87.618 56.3099 88.154 56.6699C88.701 57.0299 89.128 57.5679 89.438 58.2879C89.744 59.0079 89.901 59.8879 89.901 60.9289C89.901 62.7689 89.479 64.1819 88.637 65.1689C87.807 66.1449 86.68 66.6329 85.25 66.6329C84.847 66.6329 84.469 66.5829 84.106 66.4779C83.7783 66.3846 83.4719 66.2284 83.204 66.0179V67.9449C83.204 68.5109 83.354 68.9019 83.647 69.1229C83.941 69.3389 84.397 69.4519 85.012 69.4519V69.8579L84.472 69.8379C83.5306 69.8099 82.5888 69.7909 81.647 69.7809C81.244 69.7809 80.402 69.8079 79.122 69.8579V69.4519C79.561 69.4519 79.871 69.3549 80.044 69.1619C80.229 68.9789 80.326 68.6419 80.326 68.1389V58.4969C80.326 57.9049 80.226 57.4749 80.024 57.2039C79.839 56.9339 79.508 56.7979 79.041 56.7979V56.3909C79.468 56.4299 79.883 56.4489 80.286 56.4489C81.449 56.4489 82.424 56.3599 83.213 56.1779V57.9509C83.4717 57.3848 83.8997 56.9131 84.438 56.6009C84.961 56.2909 85.589 56.1309 86.31 56.1309Z" fill="white"/>
<rect x="72" y="95.7812" width="356" height="212" rx="8" fill="white"/>
<path d="M101.355 152.053V129.339H102.81V152.053H101.355ZM105.907 136.384C105.812 135.544 105.422 134.894 104.735 134.432C104.049 133.965 103.186 133.731 102.145 133.731C101.399 133.731 100.755 133.85 100.211 134.086C99.6664 134.317 99.2435 134.636 98.9419 135.044C98.6461 135.447 98.4983 135.905 98.4983 136.42C98.4983 136.851 98.5988 137.224 98.7999 137.537C99.0069 137.851 99.2761 138.114 99.6073 138.327C99.9444 138.534 100.305 138.709 100.69 138.851C101.074 138.987 101.444 139.099 101.799 139.188L103.573 139.649C104.153 139.791 104.747 139.983 105.357 140.226C105.966 140.468 106.531 140.788 107.051 141.184C107.572 141.58 107.992 142.071 108.311 142.657C108.636 143.242 108.799 143.943 108.799 144.76C108.799 145.789 108.533 146.703 108 147.501C107.474 148.3 106.708 148.93 105.703 149.391C104.703 149.852 103.493 150.083 102.074 150.083C100.713 150.083 99.5363 149.867 98.5426 149.435C97.5489 149.003 96.7711 148.391 96.2092 147.599C95.6473 146.8 95.3368 145.854 95.2776 144.76H98.028C98.0813 145.416 98.2942 145.963 98.6668 146.401C99.0454 146.833 99.5274 147.155 100.113 147.368C100.704 147.575 101.352 147.679 102.056 147.679C102.831 147.679 103.52 147.557 104.123 147.315C104.733 147.066 105.212 146.723 105.561 146.286C105.91 145.842 106.084 145.324 106.084 144.733C106.084 144.195 105.93 143.754 105.623 143.411C105.321 143.068 104.91 142.784 104.389 142.559C103.875 142.334 103.292 142.136 102.642 141.965L100.495 141.379C99.0395 140.983 97.8861 140.4 97.0343 139.631C96.1885 138.862 95.7656 137.845 95.7656 136.579C95.7656 135.532 96.0495 134.619 96.6173 133.838C97.1852 133.057 97.9541 132.451 98.9241 132.019C99.8942 131.581 100.988 131.362 102.207 131.362C103.437 131.362 104.523 131.578 105.463 132.01C106.409 132.442 107.155 133.036 107.699 133.793C108.243 134.545 108.527 135.408 108.551 136.384H105.907ZM119.12 131.611V149.781H116.37V134.361H116.264L111.916 137.2V134.574L116.45 131.611H119.12ZM124.054 146.232V144.014L131.906 131.611H133.654V134.876H132.545L126.929 143.766V143.908H137.691V146.232H124.054ZM132.669 149.781V145.558L132.687 144.547V131.611H135.286V149.781H132.669ZM140.801 146.232V144.014L148.653 131.611H150.401V134.876H149.292L143.676 143.766V143.908H154.438V146.232H140.801ZM149.416 149.781V145.558L149.434 144.547V131.611H152.034V149.781H149.416ZM159.03 149.95C158.545 149.95 158.128 149.778 157.779 149.435C157.43 149.086 157.256 148.666 157.256 148.175C157.256 147.69 157.43 147.276 157.779 146.933C158.128 146.584 158.545 146.41 159.03 146.41C159.515 146.41 159.932 146.584 160.281 146.933C160.63 147.276 160.805 147.69 160.805 148.175C160.805 148.501 160.722 148.799 160.556 149.071C160.397 149.338 160.184 149.551 159.917 149.71C159.651 149.87 159.356 149.95 159.03 149.95ZM164.871 149.781L172.803 134.095V133.962H163.629V131.611H175.642V134.042L167.737 149.781H164.871ZM184.901 150.03C183.629 150.03 182.506 149.811 181.53 149.373C180.56 148.935 179.8 148.332 179.249 147.563C178.699 146.794 178.427 145.919 178.433 144.937C178.427 144.168 178.584 143.461 178.903 142.817C179.229 142.166 179.669 141.625 180.225 141.193C180.781 140.755 181.402 140.477 182.089 140.359V140.252C181.184 140.034 180.459 139.549 179.915 138.797C179.371 138.046 179.102 137.183 179.108 136.207C179.102 135.278 179.347 134.45 179.844 133.722C180.347 132.989 181.036 132.412 181.911 131.992C182.787 131.572 183.783 131.362 184.901 131.362C186.007 131.362 186.995 131.575 187.864 132.001C188.74 132.421 189.429 132.998 189.932 133.731C190.434 134.459 190.689 135.284 190.695 136.207C190.689 137.183 190.411 138.046 189.861 138.797C189.311 139.549 188.595 140.034 187.714 140.252V140.359C188.394 140.477 189.006 140.755 189.55 141.193C190.1 141.625 190.538 142.166 190.863 142.817C191.195 143.461 191.363 144.168 191.369 144.937C191.363 145.919 191.085 146.794 190.535 147.563C189.985 148.332 189.222 148.935 188.246 149.373C187.276 149.811 186.161 150.03 184.901 150.03ZM184.901 147.785C185.652 147.785 186.303 147.661 186.853 147.412C187.403 147.158 187.829 146.806 188.131 146.357C188.432 145.901 188.586 145.369 188.592 144.76C188.586 144.127 188.42 143.568 188.095 143.083C187.776 142.598 187.341 142.216 186.791 141.938C186.241 141.66 185.611 141.521 184.901 141.521C184.185 141.521 183.55 141.66 182.994 141.938C182.438 142.216 182 142.598 181.68 143.083C181.361 143.568 181.204 144.127 181.21 144.76C181.204 145.369 181.349 145.901 181.645 146.357C181.947 146.806 182.375 147.158 182.931 147.412C183.487 147.661 184.144 147.785 184.901 147.785ZM184.901 139.33C185.504 139.33 186.04 139.208 186.507 138.966C186.974 138.723 187.341 138.386 187.607 137.954C187.879 137.523 188.018 137.017 188.024 136.437C188.018 135.869 187.882 135.373 187.616 134.947C187.356 134.521 186.992 134.193 186.525 133.962C186.057 133.725 185.516 133.607 184.901 133.607C184.274 133.607 183.724 133.725 183.251 133.962C182.784 134.193 182.42 134.521 182.16 134.947C181.899 135.373 181.772 135.869 181.778 136.437C181.772 137.017 181.902 137.523 182.168 137.954C182.435 138.386 182.801 138.723 183.269 138.966C183.742 139.208 184.286 139.33 184.901 139.33Z" fill="#0A2540"/>
<path d="M96.9563 170.781H94.7491V163.963H97.0262C97.6943 163.963 98.268 164.1 98.7474 164.373C99.2268 164.643 99.5941 165.033 99.8494 165.541C100.107 166.047 100.236 166.654 100.236 167.362C100.236 168.072 100.106 168.683 99.8461 169.193C99.5886 169.704 99.2157 170.097 98.7275 170.372C98.2392 170.645 97.6488 170.781 96.9563 170.781ZM95.7778 169.882H96.8997C97.4191 169.882 97.8508 169.785 98.1948 169.589C98.5388 169.392 98.7963 169.107 98.9672 168.734C99.1381 168.359 99.2235 167.902 99.2235 167.362C99.2235 166.827 99.1381 166.373 98.9672 166.001C98.7985 165.628 98.5466 165.345 98.2114 165.152C97.8763 164.958 97.4601 164.862 96.963 164.862H95.7778V169.882ZM104.754 168.661V165.668H105.753V170.781H104.774V169.896H104.721C104.603 170.169 104.415 170.396 104.155 170.578C103.898 170.758 103.577 170.848 103.193 170.848C102.864 170.848 102.574 170.776 102.321 170.631C102.07 170.485 101.872 170.269 101.728 169.982C101.586 169.696 101.515 169.342 101.515 168.92V165.668H102.51V168.8C102.51 169.149 102.607 169.426 102.8 169.633C102.993 169.839 103.244 169.942 103.552 169.942C103.739 169.942 103.924 169.896 104.108 169.802C104.295 169.709 104.449 169.568 104.571 169.38C104.695 169.191 104.756 168.951 104.754 168.661ZM109.374 170.884C108.871 170.884 108.437 170.777 108.073 170.562C107.711 170.344 107.431 170.039 107.234 169.646C107.038 169.251 106.941 168.788 106.941 168.258C106.941 167.734 107.038 167.272 107.234 166.873C107.431 166.473 107.706 166.161 108.059 165.937C108.414 165.713 108.83 165.601 109.304 165.601C109.593 165.601 109.873 165.649 110.143 165.744C110.414 165.84 110.657 165.989 110.873 166.194C111.088 166.398 111.258 166.663 111.382 166.989C111.506 167.313 111.568 167.707 111.568 168.171V168.524H107.503V167.778H110.593C110.593 167.516 110.54 167.284 110.433 167.083C110.327 166.878 110.177 166.717 109.984 166.6C109.793 166.482 109.569 166.423 109.311 166.423C109.031 166.423 108.787 166.492 108.579 166.63C108.372 166.765 108.213 166.943 108.099 167.162C107.988 167.38 107.933 167.616 107.933 167.872V168.454C107.933 168.796 107.993 169.087 108.113 169.326C108.235 169.566 108.404 169.749 108.622 169.876C108.84 170 109.094 170.062 109.384 170.062C109.573 170.062 109.745 170.036 109.9 169.982C110.056 169.927 110.19 169.845 110.303 169.736C110.416 169.627 110.503 169.493 110.563 169.333L111.505 169.503C111.43 169.78 111.294 170.023 111.099 170.232C110.906 170.438 110.663 170.599 110.37 170.715C110.079 170.828 109.747 170.884 109.374 170.884ZM115.394 170.781V163.963H119.622V164.849H116.422V166.926H119.319V167.808H116.422V170.781H115.394ZM122.716 170.884C122.212 170.884 121.778 170.777 121.414 170.562C121.052 170.344 120.772 170.039 120.575 169.646C120.38 169.251 120.282 168.788 120.282 168.258C120.282 167.734 120.38 167.272 120.575 166.873C120.772 166.473 121.048 166.161 121.401 165.937C121.756 165.713 122.171 165.601 122.646 165.601C122.934 165.601 123.214 165.649 123.485 165.744C123.755 165.84 123.998 165.989 124.214 166.194C124.429 166.398 124.599 166.663 124.723 166.989C124.847 167.313 124.91 167.707 124.91 168.171V168.524H120.845V167.778H123.934C123.934 167.516 123.881 167.284 123.774 167.083C123.668 166.878 123.518 166.717 123.325 166.6C123.134 166.482 122.91 166.423 122.652 166.423C122.373 166.423 122.129 166.492 121.92 166.63C121.714 166.765 121.554 166.943 121.441 167.162C121.33 167.38 121.274 167.616 121.274 167.872V168.454C121.274 168.796 121.334 169.087 121.454 169.326C121.576 169.566 121.746 169.749 121.963 169.876C122.181 170 122.435 170.062 122.726 170.062C122.914 170.062 123.086 170.036 123.242 169.982C123.397 169.927 123.531 169.845 123.644 169.736C123.758 169.627 123.844 169.493 123.904 169.333L124.846 169.503C124.771 169.78 124.635 170.023 124.44 170.232C124.247 170.438 124.004 170.599 123.711 170.715C123.42 170.828 123.088 170.884 122.716 170.884ZM126.174 170.781V163.963H127.169V166.497H127.229C127.287 166.39 127.37 166.267 127.479 166.127C127.588 165.987 127.739 165.865 127.932 165.761C128.125 165.654 128.38 165.601 128.697 165.601C129.11 165.601 129.479 165.705 129.803 165.914C130.127 166.123 130.381 166.423 130.565 166.816C130.752 167.209 130.845 167.682 130.845 168.234C130.845 168.787 130.753 169.261 130.568 169.656C130.384 170.049 130.131 170.352 129.809 170.565C129.488 170.776 129.12 170.881 128.707 170.881C128.397 170.881 128.143 170.829 127.945 170.725C127.75 170.62 127.597 170.498 127.486 170.358C127.375 170.219 127.289 170.094 127.229 169.986H127.146V170.781H126.174ZM127.149 168.224C127.149 168.584 127.202 168.899 127.306 169.17C127.41 169.441 127.561 169.653 127.759 169.806C127.956 169.957 128.198 170.032 128.484 170.032C128.782 170.032 129.03 169.953 129.23 169.796C129.43 169.636 129.581 169.42 129.683 169.147C129.787 168.874 129.839 168.566 129.839 168.224C129.839 167.887 129.788 167.584 129.686 167.316C129.586 167.047 129.435 166.835 129.233 166.68C129.034 166.524 128.784 166.447 128.484 166.447C128.196 166.447 127.952 166.521 127.752 166.67C127.554 166.818 127.405 167.026 127.302 167.292C127.2 167.559 127.149 167.869 127.149 168.224ZM137.177 163.963V170.781H136.145V164.995H136.105L134.474 166.06V165.075L136.175 163.963H137.177ZM141.369 163.87C141.673 163.872 141.972 163.928 142.267 164.036C142.563 164.145 142.829 164.323 143.067 164.569C143.306 164.815 143.497 165.148 143.639 165.568C143.783 165.985 143.857 166.504 143.859 167.126C143.859 167.723 143.799 168.254 143.679 168.72C143.559 169.184 143.387 169.576 143.163 169.896C142.941 170.215 142.671 170.458 142.354 170.625C142.037 170.791 141.679 170.874 141.282 170.874C140.876 170.874 140.515 170.795 140.2 170.635C139.885 170.475 139.629 170.254 139.431 169.972C139.233 169.688 139.11 169.362 139.061 168.993H140.077C140.143 169.286 140.279 169.524 140.483 169.706C140.689 169.886 140.956 169.976 141.282 169.976C141.781 169.976 142.171 169.758 142.451 169.323C142.73 168.886 142.871 168.275 142.873 167.492H142.82C142.705 167.683 142.56 167.847 142.387 167.985C142.216 168.122 142.024 168.229 141.811 168.304C141.598 168.38 141.371 168.418 141.129 168.418C140.736 168.418 140.379 168.321 140.057 168.128C139.735 167.935 139.479 167.67 139.288 167.332C139.097 166.995 139.002 166.61 139.002 166.177C139.002 165.746 139.099 165.356 139.295 165.005C139.492 164.654 139.767 164.377 140.12 164.173C140.475 163.966 140.891 163.865 141.369 163.87ZM141.372 164.735C141.112 164.735 140.878 164.8 140.669 164.929C140.463 165.055 140.3 165.227 140.18 165.445C140.06 165.66 140 165.9 140 166.164C140 166.428 140.058 166.667 140.173 166.883C140.291 167.096 140.451 167.266 140.653 167.392C140.857 167.516 141.09 167.579 141.352 167.579C141.547 167.579 141.729 167.541 141.898 167.465C142.067 167.39 142.214 167.286 142.341 167.152C142.467 167.017 142.566 166.864 142.637 166.693C142.708 166.522 142.744 166.342 142.744 166.154C142.744 165.903 142.684 165.67 142.564 165.455C142.446 165.239 142.284 165.066 142.078 164.935C141.871 164.802 141.636 164.735 141.372 164.735Z" fill="#727F96"/>
<mask id="mask0_4003_1385" style="mask-type:luminance" maskUnits="userSpaceOnUse" x="336" y="119" width="60" height="71">
<path d="M336 119.781H396V189.781H336V119.781Z" fill="white"/>
</mask>
<g mask="url(#mask0_4003_1385)">
<path d="M383.622 123.781H343.083C341.38 123.781 340 125.162 340 126.864V178.392C340 180.095 341.38 181.475 343.083 181.475H383.622C385.325 181.475 386.705 180.095 386.705 178.392V126.864C386.705 125.162 385.325 123.781 383.622 123.781Z" fill="white"/>
<path d="M353.738 134.769C353.738 132.493 351.893 130.648 349.617 130.648C347.341 130.648 345.496 132.493 345.496 134.769C345.496 137.045 347.341 138.89 349.617 138.89C351.893 138.89 353.738 137.045 353.738 134.769Z" fill="#E7ECF1"/>
<path d="M367.472 133.396H359.231C358.472 133.396 357.857 134.011 357.857 134.77C357.857 135.529 358.472 136.143 359.231 136.143H367.472C368.231 136.143 368.846 135.529 368.846 134.77C368.846 134.011 368.231 133.396 367.472 133.396Z" fill="#E7ECF1"/>
<path d="M352.364 145.76H346.87C346.111 145.76 345.496 146.375 345.496 147.133C345.496 147.892 346.111 148.507 346.87 148.507H352.364C353.123 148.507 353.738 147.892 353.738 147.133C353.738 146.375 353.123 145.76 352.364 145.76Z" fill="#E7ECF1"/>
<path d="M352.364 152.629H346.87C346.111 152.629 345.496 153.244 345.496 154.002C345.496 154.761 346.111 155.376 346.87 155.376H352.364C353.123 155.376 353.738 154.761 353.738 154.002C353.738 153.244 353.123 152.629 352.364 152.629Z" fill="#E7ECF1"/>
<path d="M379.837 170.486H374.343C373.584 170.486 372.969 171.101 372.969 171.86C372.969 172.618 373.584 173.233 374.343 173.233H379.837C380.596 173.233 381.211 172.618 381.211 171.86C381.211 171.101 380.596 170.486 379.837 170.486Z" fill="#E7ECF1"/>
<path d="M371.593 145.76H359.231C358.472 145.76 357.857 146.375 357.857 147.133C357.857 147.892 358.472 148.507 359.231 148.507H371.593C372.352 148.507 372.967 147.892 372.967 147.133C372.967 146.375 372.352 145.76 371.593 145.76Z" fill="#E7ECF1"/>
<path d="M371.593 152.629H359.231C358.472 152.629 357.857 153.244 357.857 154.002C357.857 154.761 358.472 155.376 359.231 155.376H371.593C372.352 155.376 372.967 154.761 372.967 154.002C372.967 153.244 372.352 152.629 371.593 152.629Z" fill="#E7ECF1"/>
<path d="M366.101 170.486H346.87C346.111 170.486 345.496 171.101 345.496 171.86C345.496 172.618 346.111 173.233 346.87 173.233H366.101C366.86 173.233 367.475 172.618 367.475 171.86C367.475 171.101 366.86 170.486 366.101 170.486Z" fill="#E7ECF1"/>
<path d="M379.837 163.619H346.87C346.111 163.619 345.496 164.234 345.496 164.993C345.496 165.751 346.111 166.366 346.87 166.366H379.837C380.596 166.366 381.211 165.751 381.211 164.993C381.211 164.234 380.596 163.619 379.837 163.619Z" fill="#E7ECF1"/>
<path d="M393.959 180.053C393.959 174.944 389.818 170.803 384.709 170.803C379.6 170.803 375.459 174.944 375.459 180.053C375.459 185.161 379.6 189.303 384.709 189.303C389.818 189.303 393.959 185.161 393.959 180.053Z" fill="white"/>
<path fill-rule="evenodd" clip-rule="evenodd" d="M385.287 182.7L387.941 180.046C387.995 179.993 388.059 179.95 388.129 179.921C388.199 179.892 388.275 179.877 388.351 179.877C388.427 179.877 388.502 179.892 388.572 179.921C388.643 179.95 388.706 179.993 388.76 180.046C388.814 180.1 388.857 180.164 388.886 180.234C388.915 180.304 388.93 180.38 388.93 180.456C388.93 180.532 388.915 180.607 388.886 180.677C388.857 180.748 388.814 180.812 388.76 180.865L385.118 184.507C385.064 184.561 385.001 184.604 384.931 184.633C384.86 184.662 384.785 184.677 384.709 184.677C384.633 184.677 384.558 184.662 384.488 184.633C384.418 184.604 384.354 184.561 384.3 184.507L380.658 180.865C380.602 180.812 380.557 180.748 380.526 180.677C380.494 180.607 380.478 180.53 380.477 180.453C380.475 180.375 380.49 180.298 380.519 180.227C380.548 180.155 380.591 180.09 380.646 180.035C380.701 179.98 380.766 179.937 380.837 179.908C380.909 179.879 380.986 179.864 381.063 179.865C381.141 179.866 381.217 179.883 381.288 179.914C381.359 179.945 381.423 179.99 381.476 180.046L384.13 182.701V176.004C384.13 175.851 384.191 175.704 384.3 175.595C384.408 175.487 384.555 175.426 384.709 175.426C384.862 175.426 385.009 175.487 385.118 175.595C385.226 175.704 385.287 175.851 385.287 176.004V182.701V182.7Z" fill="#727F96"/>
</g>
<path d="M96.3991 200.046V199.19H101.5V200.046H99.4435V205.781H98.4523V200.046H96.3991ZM103.995 205.881C103.532 205.881 103.127 205.775 102.782 205.562C102.437 205.35 102.168 205.053 101.977 204.671C101.786 204.289 101.691 203.843 101.691 203.332C101.691 202.819 101.786 202.371 101.977 201.987C102.168 201.603 102.437 201.305 102.782 201.092C103.127 200.88 103.532 200.774 103.995 200.774C104.459 200.774 104.863 200.88 105.208 201.092C105.554 201.305 105.822 201.603 106.013 201.987C106.204 202.371 106.299 202.819 106.299 203.332C106.299 203.843 106.204 204.289 106.013 204.671C105.822 205.053 105.554 205.35 105.208 205.562C104.863 205.775 104.459 205.881 103.995 205.881ZM103.998 205.073C104.299 205.073 104.548 204.994 104.745 204.835C104.942 204.676 105.088 204.465 105.183 204.201C105.279 203.937 105.328 203.646 105.328 203.329C105.328 203.014 105.279 202.724 105.183 202.46C105.088 202.194 104.942 201.981 104.745 201.82C104.548 201.659 104.299 201.578 103.998 201.578C103.696 201.578 103.445 201.659 103.245 201.82C103.048 201.981 102.901 202.194 102.804 202.46C102.71 202.724 102.663 203.014 102.663 203.329C102.663 203.646 102.71 203.937 102.804 204.201C102.901 204.465 103.048 204.676 103.245 204.835C103.445 204.994 103.696 205.073 103.998 205.073Z" fill="#727F96"/>
<path d="M149.286 199.19H150.277V203.863C150.277 204.286 150.193 204.647 150.026 204.948C149.861 205.248 149.628 205.478 149.328 205.636C149.027 205.793 148.675 205.871 148.272 205.871C147.901 205.871 147.567 205.804 147.271 205.669C146.977 205.533 146.744 205.337 146.573 205.08C146.403 204.82 146.319 204.505 146.319 204.134H147.307C147.307 204.316 147.348 204.474 147.432 204.607C147.518 204.74 147.635 204.844 147.783 204.919C147.933 204.992 148.105 205.028 148.298 205.028C148.508 205.028 148.686 204.984 148.832 204.896C148.98 204.806 149.093 204.674 149.17 204.5C149.247 204.327 149.286 204.114 149.286 203.863V199.19ZM153.858 205.881C153.371 205.881 152.951 205.777 152.599 205.569C152.25 205.359 151.979 205.064 151.788 204.684C151.6 204.302 151.505 203.855 151.505 203.342C151.505 202.836 151.6 202.389 151.788 202.003C151.979 201.617 152.245 201.315 152.586 201.099C152.93 200.882 153.331 200.774 153.79 200.774C154.069 200.774 154.339 200.82 154.601 200.912C154.863 201.004 155.098 201.149 155.306 201.347C155.514 201.544 155.678 201.8 155.798 202.116C155.918 202.429 155.978 202.81 155.978 203.258V203.599H152.049V202.878H155.035C155.035 202.625 154.984 202.401 154.881 202.206C154.778 202.008 154.633 201.853 154.447 201.739C154.262 201.625 154.045 201.569 153.796 201.569C153.526 201.569 153.29 201.635 153.088 201.768C152.889 201.899 152.734 202.071 152.625 202.283C152.518 202.493 152.464 202.722 152.464 202.969V203.532C152.464 203.862 152.522 204.143 152.638 204.375C152.756 204.607 152.92 204.784 153.13 204.906C153.341 205.026 153.586 205.086 153.867 205.086C154.05 205.086 154.216 205.06 154.366 205.009C154.516 204.955 154.646 204.876 154.756 204.771C154.865 204.666 154.949 204.536 155.007 204.381L155.917 204.545C155.844 204.814 155.713 205.049 155.525 205.25C155.338 205.45 155.103 205.605 154.82 205.717C154.539 205.826 154.218 205.881 153.858 205.881ZM158.088 202.846V205.781H157.126V200.838H158.05V201.643H158.111C158.225 201.381 158.403 201.171 158.645 201.012C158.89 200.853 159.198 200.774 159.569 200.774C159.906 200.774 160.201 200.845 160.454 200.986C160.707 201.126 160.903 201.334 161.043 201.61C161.182 201.887 161.252 202.229 161.252 202.637V205.781H160.29V202.753C160.29 202.395 160.196 202.115 160.01 201.913C159.823 201.709 159.567 201.607 159.24 201.607C159.017 201.607 158.819 201.655 158.645 201.752C158.473 201.849 158.337 201.99 158.236 202.177C158.138 202.361 158.088 202.584 158.088 202.846ZM163.585 202.846V205.781H162.622V200.838H163.546V201.643H163.607C163.721 201.381 163.899 201.171 164.141 201.012C164.386 200.853 164.694 200.774 165.065 200.774C165.402 200.774 165.697 200.845 165.95 200.986C166.203 201.126 166.399 201.334 166.539 201.61C166.678 201.887 166.748 202.229 166.748 202.637V205.781H165.786V202.753C165.786 202.395 165.693 202.115 165.506 201.913C165.319 201.709 165.063 201.607 164.737 201.607C164.514 201.607 164.315 201.655 164.141 201.752C163.97 201.849 163.833 201.99 163.733 202.177C163.634 202.361 163.585 202.584 163.585 202.846ZM168.55 207.635C168.406 207.635 168.275 207.623 168.157 207.6C168.039 207.578 167.951 207.554 167.893 207.529L168.125 206.74C168.301 206.787 168.458 206.808 168.595 206.801C168.732 206.795 168.853 206.743 168.959 206.647C169.066 206.55 169.16 206.393 169.242 206.174L169.361 205.846L167.552 200.838H168.582L169.834 204.674H169.885L171.137 200.838H172.17L170.133 206.441C170.039 206.698 169.919 206.916 169.773 207.094C169.627 207.275 169.453 207.41 169.251 207.5C169.05 207.59 168.816 207.635 168.55 207.635ZM175.71 205.781V199.19H178.06C178.57 199.19 178.994 199.278 179.331 199.454C179.67 199.63 179.923 199.874 180.09 200.185C180.258 200.494 180.341 200.851 180.341 201.256C180.341 201.66 180.257 202.015 180.087 202.322C179.92 202.626 179.667 202.863 179.328 203.033C178.991 203.202 178.567 203.287 178.056 203.287H176.277V202.431H177.966C178.288 202.431 178.55 202.385 178.751 202.293C178.955 202.2 179.104 202.066 179.199 201.89C179.293 201.714 179.34 201.503 179.34 201.256C179.34 201.008 179.292 200.792 179.196 200.61C179.101 200.427 178.952 200.288 178.748 200.191C178.547 200.093 178.282 200.043 177.953 200.043H176.705V205.781H175.71ZM178.964 202.808L180.592 205.781H179.459L177.863 202.808H178.964ZM183.574 205.881C183.111 205.881 182.706 205.775 182.361 205.562C182.016 205.35 181.747 205.053 181.557 204.671C181.366 204.289 181.27 203.843 181.27 203.332C181.27 202.819 181.366 202.371 181.557 201.987C181.747 201.603 182.016 201.305 182.361 201.092C182.706 200.88 183.111 200.774 183.574 200.774C184.038 200.774 184.442 200.88 184.788 201.092C185.133 201.305 185.401 201.603 185.592 201.987C185.783 202.371 185.879 202.819 185.879 203.332C185.879 203.843 185.783 204.289 185.592 204.671C185.401 205.053 185.133 205.35 184.788 205.562C184.442 205.775 184.038 205.881 183.574 205.881ZM183.578 205.073C183.878 205.073 184.127 204.994 184.324 204.835C184.522 204.676 184.667 204.465 184.762 204.201C184.858 203.937 184.907 203.646 184.907 203.329C184.907 203.014 184.858 202.724 184.762 202.46C184.667 202.194 184.522 201.981 184.324 201.82C184.127 201.659 183.878 201.578 183.578 201.578C183.275 201.578 183.024 201.659 182.824 201.82C182.627 201.981 182.48 202.194 182.384 202.46C182.289 202.724 182.242 203.014 182.242 203.329C182.242 203.646 182.289 203.937 182.384 204.201C182.48 204.465 182.627 204.676 182.824 204.835C183.024 204.994 183.275 205.073 183.578 205.073ZM190.737 202.045L189.865 202.199C189.828 202.088 189.77 201.982 189.691 201.881C189.614 201.78 189.509 201.697 189.376 201.633C189.242 201.569 189.076 201.536 188.877 201.536C188.604 201.536 188.377 201.598 188.194 201.72C188.012 201.84 187.921 201.996 187.921 202.187C187.921 202.352 187.982 202.485 188.104 202.586C188.227 202.686 188.424 202.769 188.696 202.833L189.482 203.014C189.937 203.119 190.276 203.281 190.499 203.5C190.722 203.718 190.833 204.003 190.833 204.352C190.833 204.648 190.748 204.912 190.576 205.144C190.406 205.374 190.169 205.554 189.865 205.685C189.562 205.816 189.211 205.881 188.812 205.881C188.259 205.881 187.807 205.763 187.457 205.527C187.108 205.289 186.893 204.951 186.814 204.513L187.744 204.372C187.802 204.614 187.921 204.798 188.101 204.922C188.281 205.044 188.516 205.105 188.806 205.105C189.121 205.105 189.373 205.04 189.562 204.909C189.751 204.776 189.845 204.614 189.845 204.423C189.845 204.269 189.787 204.139 189.672 204.034C189.558 203.929 189.383 203.849 189.147 203.796L188.31 203.612C187.849 203.507 187.508 203.34 187.287 203.11C187.068 202.881 186.959 202.59 186.959 202.238C186.959 201.946 187.04 201.691 187.203 201.472C187.366 201.253 187.592 201.083 187.879 200.96C188.167 200.836 188.496 200.774 188.867 200.774C189.401 200.774 189.822 200.89 190.129 201.121C190.435 201.351 190.638 201.659 190.737 202.045ZM194.102 205.881C193.615 205.881 193.195 205.777 192.843 205.569C192.494 205.359 192.223 205.064 192.033 204.684C191.844 204.302 191.749 203.855 191.749 203.342C191.749 202.836 191.844 202.389 192.033 202.003C192.223 201.617 192.489 201.315 192.831 201.099C193.174 200.882 193.575 200.774 194.034 200.774C194.313 200.774 194.583 200.82 194.845 200.912C195.107 201.004 195.342 201.149 195.55 201.347C195.758 201.544 195.922 201.8 196.042 202.116C196.163 202.429 196.223 202.81 196.223 203.258V203.599H192.293V202.878H195.28C195.28 202.625 195.228 202.401 195.125 202.206C195.022 202.008 194.877 201.853 194.691 201.739C194.506 201.625 194.29 201.569 194.041 201.569C193.77 201.569 193.534 201.635 193.333 201.768C193.133 201.899 192.979 202.071 192.869 202.283C192.762 202.493 192.708 202.722 192.708 202.969V203.532C192.708 203.862 192.766 204.143 192.882 204.375C193 204.607 193.164 204.784 193.374 204.906C193.585 205.026 193.83 205.086 194.111 205.086C194.294 205.086 194.46 205.06 194.61 205.009C194.76 204.955 194.89 204.876 195 204.771C195.109 204.666 195.193 204.536 195.251 204.381L196.161 204.545C196.089 204.814 195.958 205.049 195.769 205.25C195.582 205.45 195.347 205.605 195.064 205.717C194.783 205.826 194.462 205.881 194.102 205.881ZM198.333 202.846V205.781H197.37V200.838H198.294V201.643H198.355C198.469 201.381 198.647 201.171 198.889 201.012C199.134 200.853 199.442 200.774 199.813 200.774C200.15 200.774 200.445 200.845 200.698 200.986C200.951 201.126 201.147 201.334 201.287 201.61C201.426 201.887 201.496 202.229 201.496 202.637V205.781H200.534V202.753C200.534 202.395 200.44 202.115 200.254 201.913C200.067 201.709 199.811 201.607 199.485 201.607C199.262 201.607 199.063 201.655 198.889 201.752C198.718 201.849 198.581 201.99 198.481 202.177C198.382 202.361 198.333 202.584 198.333 202.846Z" fill="#0A2540"/>
<path d="M96.7241 222.781V216.19H100.811V217.046H97.7185V219.055H100.518V219.907H97.7185V222.781H96.7241ZM101.975 222.781V217.838H102.905V218.623H102.957C103.047 218.357 103.205 218.148 103.433 217.996C103.662 217.841 103.922 217.764 104.212 217.764C104.272 217.764 104.343 217.766 104.424 217.77C104.508 217.775 104.573 217.78 104.62 217.787V218.707C104.582 218.696 104.513 218.684 104.414 218.672C104.316 218.657 104.217 218.649 104.118 218.649C103.891 218.649 103.688 218.697 103.51 218.794C103.334 218.888 103.195 219.02 103.092 219.19C102.989 219.357 102.937 219.548 102.937 219.763V222.781H101.975ZM107.438 222.881C106.975 222.881 106.57 222.775 106.225 222.562C105.88 222.35 105.611 222.053 105.42 221.671C105.229 221.289 105.134 220.843 105.134 220.332C105.134 219.819 105.229 219.371 105.42 218.987C105.611 218.603 105.88 218.305 106.225 218.092C106.57 217.88 106.975 217.774 107.438 217.774C107.902 217.774 108.306 217.88 108.652 218.092C108.997 218.305 109.265 218.603 109.456 218.987C109.647 219.371 109.742 219.819 109.742 220.332C109.742 220.843 109.647 221.289 109.456 221.671C109.265 222.053 108.997 222.35 108.652 222.562C108.306 222.775 107.902 222.881 107.438 222.881ZM107.441 222.073C107.742 222.073 107.991 221.994 108.188 221.835C108.385 221.676 108.531 221.465 108.626 221.201C108.722 220.937 108.771 220.646 108.771 220.329C108.771 220.014 108.722 219.724 108.626 219.46C108.531 219.194 108.385 218.981 108.188 218.82C107.991 218.659 107.742 218.578 107.441 218.578C107.139 218.578 106.888 218.659 106.688 218.82C106.491 218.981 106.344 219.194 106.248 219.46C106.153 219.724 106.106 220.014 106.106 220.329C106.106 220.646 106.153 220.937 106.248 221.201C106.344 221.465 106.491 221.676 106.688 221.835C106.888 221.994 107.139 222.073 107.441 222.073ZM110.897 222.781V217.838H111.82V218.643H111.881C111.984 218.37 112.153 218.158 112.387 218.005C112.62 217.851 112.9 217.774 113.227 217.774C113.557 217.774 113.834 217.851 114.057 218.005C114.282 218.16 114.448 218.372 114.556 218.643H114.607C114.725 218.379 114.913 218.168 115.17 218.012C115.428 217.853 115.735 217.774 116.091 217.774C116.539 217.774 116.905 217.914 117.188 218.195C117.474 218.476 117.616 218.9 117.616 219.466V222.781H116.654V219.557C116.654 219.222 116.563 218.979 116.38 218.829C116.198 218.679 115.98 218.604 115.727 218.604C115.414 218.604 115.17 218.701 114.997 218.894C114.823 219.085 114.736 219.33 114.736 219.631V222.781H113.777V219.495C113.777 219.227 113.693 219.012 113.526 218.849C113.359 218.686 113.141 218.604 112.873 218.604C112.69 218.604 112.522 218.652 112.367 218.749C112.215 218.843 112.092 218.975 111.997 219.145C111.905 219.314 111.859 219.51 111.859 219.734V222.781H110.897Z" fill="#727F96"/>
<path d="M146.737 222.781V216.077H149.126C149.648 216.077 150.08 216.172 150.423 216.362C150.765 216.551 151.022 216.811 151.192 217.141C151.362 217.468 151.447 217.837 151.447 218.247C151.447 218.66 151.361 219.031 151.189 219.36C151.019 219.688 150.761 219.947 150.416 220.139C150.074 220.329 149.643 220.424 149.123 220.424H147.48V219.566H149.031C149.361 219.566 149.628 219.51 149.834 219.396C150.039 219.281 150.189 219.123 150.285 218.925C150.381 218.726 150.429 218.5 150.429 218.247C150.429 217.994 150.381 217.769 150.285 217.573C150.189 217.376 150.038 217.223 149.83 217.111C149.625 217 149.354 216.944 149.018 216.944H147.748V222.781H146.737ZM154.69 222.883C154.218 222.883 153.807 222.775 153.456 222.559C153.104 222.343 152.831 222.04 152.637 221.652C152.443 221.263 152.346 220.809 152.346 220.29C152.346 219.768 152.443 219.312 152.637 218.922C152.831 218.531 153.104 218.228 153.456 218.011C153.807 217.795 154.218 217.687 154.69 217.687C155.161 217.687 155.573 217.795 155.924 218.011C156.275 218.228 156.548 218.531 156.742 218.922C156.937 219.312 157.034 219.768 157.034 220.29C157.034 220.809 156.937 221.263 156.742 221.652C156.548 222.04 156.275 222.343 155.924 222.559C155.573 222.775 155.161 222.883 154.69 222.883ZM154.693 222.061C154.999 222.061 155.252 221.98 155.453 221.819C155.653 221.657 155.802 221.442 155.898 221.174C155.996 220.905 156.045 220.61 156.045 220.287C156.045 219.966 155.996 219.671 155.898 219.403C155.802 219.132 155.653 218.915 155.453 218.751C155.252 218.588 154.999 218.506 154.693 218.506C154.385 218.506 154.13 218.588 153.927 218.751C153.726 218.915 153.577 219.132 153.479 219.403C153.383 219.671 153.335 219.966 153.335 220.287C153.335 220.61 153.383 220.905 153.479 221.174C153.577 221.442 153.726 221.657 153.927 221.819C154.13 221.98 154.385 222.061 154.693 222.061ZM159.144 222.781L157.664 217.753H158.675L159.661 221.446H159.71L160.699 217.753H161.71L162.692 221.429H162.741L163.72 217.753H164.732L163.255 222.781H162.257L161.235 219.151H161.16L160.139 222.781H159.144ZM167.47 222.879C167.064 222.879 166.702 222.776 166.383 222.568C166.067 222.359 165.818 222.061 165.637 221.675C165.458 221.286 165.368 220.82 165.368 220.277C165.368 219.733 165.459 219.269 165.64 218.882C165.823 218.496 166.074 218.2 166.393 217.995C166.712 217.79 167.073 217.687 167.477 217.687C167.789 217.687 168.04 217.74 168.229 217.845C168.422 217.947 168.57 218.067 168.675 218.205C168.782 218.342 168.865 218.463 168.923 218.568H168.982V216.077H169.961V222.781H169.005V221.999H168.923C168.865 222.106 168.779 222.228 168.668 222.365C168.559 222.503 168.408 222.623 168.216 222.726C168.024 222.828 167.776 222.879 167.47 222.879ZM167.686 222.045C167.968 222.045 168.205 221.97 168.4 221.822C168.596 221.671 168.745 221.463 168.845 221.197C168.948 220.931 168.999 220.621 168.999 220.267C168.999 219.918 168.949 219.612 168.848 219.35C168.748 219.089 168.6 218.884 168.406 218.738C168.212 218.592 167.972 218.519 167.686 218.519C167.391 218.519 167.146 218.595 166.949 218.748C166.753 218.901 166.605 219.109 166.504 219.373C166.406 219.637 166.357 219.935 166.357 220.267C166.357 220.603 166.407 220.905 166.508 221.174C166.608 221.442 166.756 221.655 166.953 221.812C167.151 221.967 167.396 222.045 167.686 222.045ZM174.624 220.696V217.753H175.606V222.781H174.643V221.91H174.591C174.475 222.179 174.29 222.403 174.034 222.582C173.781 222.758 173.466 222.847 173.088 222.847C172.765 222.847 172.479 222.776 172.231 222.634C171.984 222.49 171.79 222.277 171.648 221.996C171.508 221.714 171.438 221.366 171.438 220.951V217.753H172.417V220.833C172.417 221.176 172.512 221.449 172.702 221.652C172.892 221.855 173.138 221.956 173.442 221.956C173.625 221.956 173.807 221.91 173.989 221.819C174.172 221.727 174.324 221.589 174.444 221.403C174.566 221.218 174.626 220.982 174.624 220.696ZM177.001 222.781V217.753H177.947V218.552H177.999C178.091 218.281 178.253 218.068 178.484 217.913C178.717 217.756 178.982 217.678 179.276 217.678C179.337 217.678 179.409 217.68 179.492 217.684C179.577 217.688 179.644 217.694 179.692 217.7V218.637C179.653 218.626 179.583 218.614 179.482 218.601C179.382 218.585 179.282 218.578 179.181 218.578C178.95 218.578 178.744 218.627 178.563 218.725C178.384 218.821 178.242 218.955 178.137 219.128C178.032 219.298 177.98 219.492 177.98 219.711V222.781H177.001Z" fill="#0A2540"/>
<path d="M96.7616 232.849H98.0308L100.238 238.238H100.319L102.526 232.849H103.795V239.781H102.8V234.765H102.736L100.691 239.771H99.8653L97.821 234.762H97.7566V239.781H96.7616V232.849ZM107.555 239.886C107.043 239.886 106.602 239.777 106.231 239.558C105.864 239.337 105.579 239.026 105.379 238.627C105.18 238.225 105.081 237.755 105.081 237.216C105.081 236.683 105.18 236.214 105.379 235.808C105.579 235.401 105.859 235.084 106.218 234.857C106.579 234.629 107.001 234.515 107.484 234.515C107.777 234.515 108.061 234.563 108.337 234.66C108.612 234.757 108.859 234.91 109.078 235.117C109.297 235.325 109.469 235.594 109.596 235.926C109.722 236.256 109.785 236.656 109.785 237.128V237.486H105.653V236.728H108.794C108.794 236.462 108.74 236.226 108.631 236.021C108.523 235.813 108.371 235.65 108.174 235.53C107.98 235.411 107.752 235.351 107.491 235.351C107.206 235.351 106.958 235.421 106.746 235.561C106.536 235.698 106.374 235.879 106.259 236.102C106.146 236.323 106.089 236.564 106.089 236.823V237.415C106.089 237.763 106.15 238.058 106.272 238.302C106.396 238.546 106.569 238.732 106.79 238.861C107.011 238.987 107.269 239.05 107.565 239.05C107.757 239.05 107.932 239.023 108.09 238.969C108.248 238.913 108.384 238.829 108.499 238.718C108.614 238.608 108.702 238.471 108.763 238.309L109.721 238.482C109.644 238.764 109.507 239.011 109.308 239.223C109.112 239.433 108.865 239.596 108.567 239.714C108.271 239.829 107.934 239.886 107.555 239.886ZM110.988 239.781V234.582H111.96V235.429H112.024C112.132 235.142 112.309 234.919 112.555 234.758C112.801 234.596 113.096 234.515 113.439 234.515C113.786 234.515 114.077 234.596 114.312 234.758C114.549 234.921 114.724 235.144 114.837 235.429H114.891C115.015 235.151 115.212 234.93 115.483 234.765C115.754 234.598 116.077 234.515 116.451 234.515C116.923 234.515 117.307 234.662 117.605 234.958C117.905 235.254 118.055 235.699 118.055 236.295V239.781H117.043V236.39C117.043 236.038 116.948 235.783 116.756 235.625C116.564 235.467 116.335 235.388 116.069 235.388C115.739 235.388 115.483 235.489 115.3 235.693C115.118 235.893 115.026 236.152 115.026 236.468V239.781H114.018V236.325C114.018 236.043 113.93 235.817 113.754 235.645C113.578 235.474 113.349 235.388 113.066 235.388C112.875 235.388 112.698 235.439 112.535 235.54C112.375 235.64 112.245 235.778 112.146 235.957C112.049 236.135 112 236.341 112 236.576V239.781H110.988ZM121.682 239.886C121.194 239.886 120.769 239.774 120.406 239.551C120.042 239.328 119.76 239.015 119.56 238.614C119.359 238.212 119.258 237.743 119.258 237.206C119.258 236.666 119.359 236.195 119.56 235.791C119.76 235.387 120.042 235.073 120.406 234.85C120.769 234.626 121.194 234.515 121.682 234.515C122.169 234.515 122.595 234.626 122.958 234.85C123.321 235.073 123.603 235.387 123.804 235.791C124.005 236.195 124.105 236.666 124.105 237.206C124.105 237.743 124.005 238.212 123.804 238.614C123.603 239.015 123.321 239.328 122.958 239.551C122.595 239.774 122.169 239.886 121.682 239.886ZM121.685 239.037C122.001 239.037 122.263 238.953 122.47 238.786C122.678 238.619 122.831 238.397 122.931 238.119C123.032 237.842 123.083 237.536 123.083 237.202C123.083 236.87 123.032 236.566 122.931 236.288C122.831 236.008 122.678 235.784 122.47 235.615C122.263 235.445 122.001 235.361 121.685 235.361C121.367 235.361 121.103 235.445 120.893 235.615C120.686 235.784 120.531 236.008 120.429 236.288C120.33 236.566 120.281 236.87 120.281 237.202C120.281 237.536 120.33 237.842 120.429 238.119C120.531 238.397 120.686 238.619 120.893 238.786C121.103 238.953 121.367 239.037 121.685 239.037Z" fill="#727F96"/>
<path d="M152.044 233.19V239.781H151.13L147.78 234.947H147.719V239.781H146.724V233.19H147.645L150.998 238.031H151.059V233.19H152.044ZM155.579 239.881C155.116 239.881 154.712 239.775 154.366 239.562C154.021 239.35 153.752 239.053 153.562 238.671C153.371 238.289 153.275 237.843 153.275 237.332C153.275 236.819 153.371 236.371 153.562 235.987C153.752 235.603 154.021 235.305 154.366 235.092C154.712 234.88 155.116 234.774 155.579 234.774C156.043 234.774 156.447 234.88 156.793 235.092C157.138 235.305 157.406 235.603 157.597 235.987C157.788 236.371 157.884 236.819 157.884 237.332C157.884 237.843 157.788 238.289 157.597 238.671C157.406 239.053 157.138 239.35 156.793 239.562C156.447 239.775 156.043 239.881 155.579 239.881ZM155.583 239.073C155.883 239.073 156.132 238.994 156.329 238.835C156.527 238.676 156.672 238.465 156.767 238.201C156.863 237.937 156.912 237.646 156.912 237.329C156.912 237.014 156.863 236.724 156.767 236.46C156.672 236.194 156.527 235.981 156.329 235.82C156.132 235.659 155.883 235.578 155.583 235.578C155.28 235.578 155.029 235.659 154.83 235.82C154.632 235.981 154.485 236.194 154.389 236.46C154.294 236.724 154.247 237.014 154.247 237.329C154.247 237.646 154.294 237.937 154.389 238.201C154.485 238.465 154.632 238.676 154.83 238.835C155.029 238.994 155.28 239.073 155.583 239.073ZM161.345 234.838V235.61H158.645V234.838H161.345ZM159.369 233.654H160.331V238.33C160.331 238.516 160.359 238.657 160.415 238.751C160.471 238.844 160.543 238.907 160.631 238.941C160.721 238.973 160.818 238.99 160.924 238.99C161.001 238.99 161.068 238.984 161.126 238.973C161.184 238.963 161.229 238.954 161.261 238.948L161.435 239.743C161.379 239.764 161.3 239.786 161.197 239.807C161.094 239.831 160.965 239.843 160.811 239.846C160.558 239.85 160.322 239.805 160.103 239.71C159.884 239.616 159.707 239.47 159.572 239.273C159.437 239.075 159.369 238.828 159.369 238.529V233.654ZM164.567 239.881C164.08 239.881 163.66 239.777 163.309 239.569C162.959 239.359 162.689 239.064 162.498 238.684C162.309 238.302 162.214 237.855 162.214 237.342C162.214 236.836 162.309 236.389 162.498 236.003C162.689 235.617 162.955 235.315 163.296 235.099C163.639 234.882 164.04 234.774 164.499 234.774C164.778 234.774 165.049 234.82 165.31 234.912C165.572 235.004 165.807 235.149 166.015 235.347C166.223 235.544 166.387 235.8 166.508 236.116C166.628 236.429 166.688 236.81 166.688 237.258V237.599H162.758V236.878H165.745C165.745 236.625 165.693 236.401 165.59 236.206C165.487 236.008 165.343 235.853 165.156 235.739C164.971 235.625 164.755 235.569 164.506 235.569C164.235 235.569 163.999 235.635 163.798 235.768C163.598 235.899 163.444 236.071 163.334 236.283C163.227 236.493 163.173 236.722 163.173 236.969V237.532C163.173 237.862 163.231 238.143 163.347 238.375C163.465 238.607 163.629 238.784 163.84 238.906C164.05 239.026 164.296 239.086 164.577 239.086C164.759 239.086 164.925 239.06 165.075 239.009C165.226 238.955 165.355 238.876 165.465 238.771C165.574 238.666 165.658 238.536 165.716 238.381L166.627 238.545C166.554 238.814 166.423 239.049 166.234 239.25C166.047 239.45 165.812 239.605 165.529 239.717C165.248 239.826 164.927 239.881 164.567 239.881ZM172.621 234.838V235.61H169.921V234.838H172.621ZM170.645 233.654H171.607V238.33C171.607 238.516 171.635 238.657 171.691 238.751C171.747 238.844 171.819 238.907 171.907 238.941C171.997 238.973 172.095 238.99 172.2 238.99C172.277 238.99 172.344 238.984 172.402 238.973C172.46 238.963 172.505 238.954 172.538 238.948L172.711 239.743C172.656 239.764 172.576 239.786 172.473 239.807C172.37 239.831 172.241 239.843 172.087 239.846C171.834 239.85 171.598 239.805 171.379 239.71C171.16 239.616 170.983 239.47 170.848 239.273C170.713 239.075 170.645 238.828 170.645 238.529V233.654ZM174.834 236.846V239.781H173.872V233.19H174.821V235.643H174.882C174.998 235.377 175.175 235.165 175.413 235.009C175.652 234.852 175.963 234.774 176.347 234.774C176.686 234.774 176.982 234.843 177.235 234.983C177.49 235.122 177.688 235.33 177.827 235.607C177.969 235.882 178.039 236.225 178.039 236.637V239.781H177.077V236.753C177.077 236.39 176.984 236.109 176.797 235.91C176.611 235.708 176.351 235.607 176.018 235.607C175.791 235.607 175.587 235.655 175.407 235.752C175.229 235.849 175.088 235.99 174.985 236.177C174.885 236.361 174.834 236.584 174.834 236.846ZM179.404 239.781V234.838H180.366V239.781H179.404ZM179.889 234.075C179.722 234.075 179.578 234.02 179.458 233.908C179.34 233.794 179.281 233.659 179.281 233.503C179.281 233.344 179.34 233.209 179.458 233.097C179.578 232.983 179.722 232.926 179.889 232.926C180.057 232.926 180.199 232.983 180.317 233.097C180.438 233.209 180.498 233.344 180.498 233.503C180.498 233.659 180.438 233.794 180.317 233.908C180.199 234.02 180.057 234.075 179.889 234.075ZM185.444 236.045L184.572 236.199C184.536 236.088 184.478 235.982 184.399 235.881C184.321 235.78 184.216 235.697 184.083 235.633C183.95 235.569 183.784 235.536 183.584 235.536C183.312 235.536 183.084 235.598 182.902 235.72C182.72 235.84 182.629 235.996 182.629 236.187C182.629 236.352 182.69 236.485 182.812 236.586C182.934 236.686 183.132 236.769 183.404 236.833L184.189 237.014C184.644 237.119 184.983 237.281 185.206 237.5C185.429 237.718 185.541 238.003 185.541 238.352C185.541 238.648 185.455 238.912 185.284 239.144C185.114 239.374 184.877 239.554 184.572 239.685C184.27 239.816 183.919 239.881 183.52 239.881C182.966 239.881 182.515 239.763 182.165 239.527C181.815 239.289 181.601 238.951 181.521 238.513L182.452 238.372C182.509 238.614 182.629 238.798 182.809 238.922C182.989 239.044 183.224 239.105 183.514 239.105C183.829 239.105 184.081 239.04 184.27 238.909C184.459 238.776 184.553 238.614 184.553 238.423C184.553 238.269 184.495 238.139 184.379 238.034C184.266 237.929 184.091 237.849 183.855 237.796L183.018 237.612C182.557 237.507 182.216 237.34 181.995 237.11C181.776 236.881 181.666 236.59 181.666 236.238C181.666 235.946 181.748 235.691 181.911 235.472C182.074 235.253 182.299 235.083 182.587 234.96C182.874 234.836 183.204 234.774 183.575 234.774C184.109 234.774 184.529 234.89 184.836 235.121C185.143 235.351 185.346 235.659 185.444 236.045ZM189.157 239.781V234.838H190.12V239.781H189.157ZM189.643 234.075C189.476 234.075 189.332 234.02 189.212 233.908C189.094 233.794 189.035 233.659 189.035 233.503C189.035 233.344 189.094 233.209 189.212 233.097C189.332 232.983 189.476 232.926 189.643 232.926C189.811 232.926 189.953 232.983 190.071 233.097C190.191 233.209 190.252 233.344 190.252 233.503C190.252 233.659 190.191 233.794 190.071 233.908C189.953 234.02 189.811 234.075 189.643 234.075ZM192.456 236.846V239.781H191.494V234.838H192.418V235.643H192.479C192.593 235.381 192.771 235.171 193.013 235.012C193.258 234.853 193.566 234.774 193.937 234.774C194.274 234.774 194.569 234.845 194.822 234.986C195.075 235.126 195.271 235.334 195.411 235.61C195.55 235.887 195.62 236.229 195.62 236.637V239.781H194.658V236.753C194.658 236.395 194.564 236.115 194.378 235.913C194.191 235.709 193.935 235.607 193.609 235.607C193.385 235.607 193.187 235.655 193.013 235.752C192.842 235.849 192.705 235.99 192.604 236.177C192.506 236.361 192.456 236.584 192.456 236.846ZM199.073 239.881C198.594 239.881 198.182 239.773 197.837 239.556C197.494 239.337 197.23 239.036 197.045 238.652C196.861 238.268 196.768 237.828 196.768 237.332C196.768 236.83 196.863 236.387 197.052 236.003C197.24 235.617 197.506 235.315 197.85 235.099C198.193 234.882 198.597 234.774 199.063 234.774C199.438 234.774 199.773 234.843 200.067 234.983C200.361 235.12 200.598 235.313 200.778 235.562C200.961 235.811 201.069 236.102 201.103 236.434H200.167C200.115 236.203 199.997 236.003 199.813 235.836C199.63 235.668 199.386 235.585 199.079 235.585C198.811 235.585 198.576 235.655 198.374 235.797C198.175 235.937 198.019 236.136 197.908 236.396C197.796 236.653 197.74 236.958 197.74 237.31C197.74 237.67 197.795 237.981 197.904 238.243C198.014 238.505 198.168 238.707 198.368 238.851C198.569 238.995 198.807 239.067 199.079 239.067C199.261 239.067 199.427 239.034 199.575 238.967C199.725 238.898 199.85 238.801 199.951 238.674C200.054 238.548 200.126 238.395 200.167 238.217H201.103C201.069 238.537 200.965 238.822 200.791 239.073C200.617 239.324 200.385 239.522 200.093 239.665C199.803 239.809 199.463 239.881 199.073 239.881ZM203.175 233.19V239.781H202.212V233.19H203.175ZM207.68 237.731V234.838H208.646V239.781H207.7V238.925H207.648C207.535 239.189 207.352 239.409 207.101 239.585C206.852 239.759 206.542 239.846 206.171 239.846C205.854 239.846 205.572 239.776 205.328 239.636C205.085 239.495 204.895 239.286 204.755 239.009C204.618 238.732 204.549 238.39 204.549 237.982V234.838H205.511V237.866C205.511 238.203 205.605 238.471 205.791 238.671C205.978 238.87 206.22 238.97 206.519 238.97C206.699 238.97 206.878 238.925 207.056 238.835C207.236 238.745 207.385 238.609 207.503 238.426C207.624 238.244 207.683 238.012 207.68 237.731ZM211.869 239.878C211.47 239.878 211.114 239.776 210.801 239.572C210.49 239.366 210.245 239.073 210.067 238.693C209.891 238.312 209.803 237.854 209.803 237.319C209.803 236.785 209.892 236.328 210.07 235.948C210.251 235.569 210.497 235.278 210.81 235.076C211.124 234.875 211.479 234.774 211.876 234.774C212.183 234.774 212.429 234.825 212.616 234.928C212.805 235.029 212.951 235.147 213.054 235.282C213.159 235.417 213.24 235.536 213.298 235.639H213.356V233.19H214.318V239.781H213.379V239.012H213.298C213.24 239.117 213.157 239.237 213.047 239.373C212.94 239.508 212.792 239.626 212.603 239.727C212.414 239.827 212.17 239.878 211.869 239.878ZM212.082 239.057C212.358 239.057 212.592 238.984 212.783 238.838C212.976 238.69 213.122 238.485 213.221 238.224C213.322 237.962 213.372 237.657 213.372 237.31C213.372 236.966 213.323 236.666 213.224 236.409C213.125 236.151 212.981 235.95 212.79 235.807C212.599 235.663 212.363 235.591 212.082 235.591C211.792 235.591 211.551 235.666 211.358 235.816C211.164 235.967 211.019 236.171 210.92 236.431C210.823 236.691 210.775 236.984 210.775 237.31C210.775 237.64 210.824 237.937 210.923 238.201C211.022 238.465 211.168 238.674 211.361 238.829C211.556 238.981 211.796 239.057 212.082 239.057ZM217.902 239.881C217.415 239.881 216.996 239.777 216.644 239.569C216.294 239.359 216.024 239.064 215.833 238.684C215.644 238.302 215.55 237.855 215.55 237.342C215.55 236.836 215.644 236.389 215.833 236.003C216.024 235.617 216.29 235.315 216.631 235.099C216.974 234.882 217.375 234.774 217.835 234.774C218.113 234.774 218.384 234.82 218.646 234.912C218.907 235.004 219.142 235.149 219.35 235.347C219.558 235.544 219.723 235.8 219.843 236.116C219.963 236.429 220.023 236.81 220.023 237.258V237.599H216.094V236.878H219.08C219.08 236.625 219.029 236.401 218.926 236.206C218.823 236.008 218.678 235.853 218.491 235.739C218.307 235.625 218.09 235.569 217.841 235.569C217.571 235.569 217.335 235.635 217.133 235.768C216.933 235.899 216.779 236.071 216.67 236.283C216.562 236.493 216.509 236.722 216.509 236.969V237.532C216.509 237.862 216.567 238.143 216.682 238.375C216.8 238.607 216.965 238.784 217.175 238.906C217.385 239.026 217.631 239.086 217.912 239.086C218.094 239.086 218.26 239.06 218.411 239.009C218.561 238.955 218.691 238.876 218.8 238.771C218.909 238.666 218.993 238.536 219.051 238.381L219.962 238.545C219.889 238.814 219.758 239.049 219.569 239.25C219.383 239.45 219.148 239.605 218.864 239.717C218.583 239.826 218.263 239.881 217.902 239.881ZM224.875 236.045L224.003 236.199C223.966 236.088 223.908 235.982 223.829 235.881C223.752 235.78 223.647 235.697 223.513 235.633C223.38 235.569 223.214 235.536 223.015 235.536C222.742 235.536 222.515 235.598 222.332 235.72C222.15 235.84 222.059 235.996 222.059 236.187C222.059 236.352 222.12 236.485 222.242 236.586C222.365 236.686 222.562 236.769 222.834 236.833L223.62 237.014C224.075 237.119 224.414 237.281 224.637 237.5C224.86 237.718 224.971 238.003 224.971 238.352C224.971 238.648 224.886 238.912 224.714 239.144C224.544 239.374 224.307 239.554 224.003 239.685C223.7 239.816 223.349 239.881 222.95 239.881C222.397 239.881 221.945 239.763 221.595 239.527C221.246 239.289 221.031 238.951 220.952 238.513L221.882 238.372C221.94 238.614 222.059 238.798 222.239 238.922C222.419 239.044 222.654 239.105 222.944 239.105C223.259 239.105 223.511 239.04 223.7 238.909C223.889 238.776 223.983 238.614 223.983 238.423C223.983 238.269 223.925 238.139 223.81 238.034C223.696 237.929 223.521 237.849 223.285 237.796L222.448 237.612C221.987 237.507 221.646 237.34 221.425 237.11C221.206 236.881 221.097 236.59 221.097 236.238C221.097 235.946 221.178 235.691 221.341 235.472C221.504 235.253 221.73 235.083 222.017 234.96C222.305 234.836 222.634 234.774 223.005 234.774C223.539 234.774 223.96 234.89 224.267 235.121C224.573 235.351 224.776 235.659 224.875 236.045ZM229.55 236.846V239.781H228.588V234.838H229.511V235.643H229.572C229.686 235.381 229.864 235.171 230.107 235.012C230.351 234.853 230.659 234.774 231.03 234.774C231.367 234.774 231.662 234.845 231.915 234.986C232.168 235.126 232.365 235.334 232.504 235.61C232.644 235.887 232.713 236.229 232.713 236.637V239.781H231.751V236.753C231.751 236.395 231.658 236.115 231.471 235.913C231.285 235.709 231.028 235.607 230.702 235.607C230.479 235.607 230.28 235.655 230.107 235.752C229.935 235.849 229.799 235.99 229.698 236.177C229.599 236.361 229.55 236.584 229.55 236.846ZM234.084 239.781V234.838H235.046V239.781H234.084ZM234.57 234.075C234.403 234.075 234.259 234.02 234.139 233.908C234.021 233.794 233.962 233.659 233.962 233.503C233.962 233.344 234.021 233.209 234.139 233.097C234.259 232.983 234.403 232.926 234.57 232.926C234.737 232.926 234.88 232.983 234.998 233.097C235.118 233.209 235.178 233.344 235.178 233.503C235.178 233.659 235.118 233.794 234.998 233.908C234.88 234.02 234.737 234.075 234.57 234.075ZM237.383 236.846V239.781H236.421V234.838H237.344V235.643H237.406C237.519 235.381 237.697 235.171 237.94 235.012C238.184 234.853 238.492 234.774 238.863 234.774C239.2 234.774 239.495 234.845 239.748 234.986C240.002 235.126 240.198 235.334 240.337 235.61C240.477 235.887 240.546 236.229 240.546 236.637V239.781H239.584V236.753C239.584 236.395 239.491 236.115 239.304 235.913C239.118 235.709 238.861 235.607 238.535 235.607C238.312 235.607 238.114 235.655 237.94 235.752C237.768 235.849 237.632 235.99 237.531 236.177C237.432 236.361 237.383 236.584 237.383 236.846ZM244.047 239.881C243.56 239.881 243.141 239.777 242.789 239.569C242.439 239.359 242.169 239.064 241.978 238.684C241.789 238.302 241.695 237.855 241.695 237.342C241.695 236.836 241.789 236.389 241.978 236.003C242.169 235.617 242.435 235.315 242.776 235.099C243.12 234.882 243.521 234.774 243.98 234.774C244.259 234.774 244.529 234.82 244.791 234.912C245.053 235.004 245.288 235.149 245.496 235.347C245.704 235.544 245.868 235.8 245.988 236.116C246.108 236.429 246.168 236.81 246.168 237.258V237.599H242.239V236.878H245.225C245.225 236.625 245.174 236.401 245.071 236.206C244.968 236.008 244.823 235.853 244.636 235.739C244.452 235.625 244.235 235.569 243.986 235.569C243.716 235.569 243.48 235.635 243.278 235.768C243.079 235.899 242.924 236.071 242.815 236.283C242.708 236.493 242.654 236.722 242.654 236.969V237.532C242.654 237.862 242.712 238.143 242.828 238.375C242.946 238.607 243.11 238.784 243.32 238.906C243.53 239.026 243.776 239.086 244.057 239.086C244.239 239.086 244.406 239.06 244.556 239.009C244.706 238.955 244.836 238.876 244.945 238.771C245.055 238.666 245.138 238.536 245.196 238.381L246.107 238.545C246.034 238.814 245.903 239.049 245.714 239.25C245.528 239.45 245.293 239.605 245.01 239.717C244.729 239.826 244.408 239.881 244.047 239.881ZM251.925 239.881C251.438 239.881 251.018 239.777 250.666 239.569C250.317 239.359 250.046 239.064 249.855 238.684C249.667 238.302 249.572 237.855 249.572 237.342C249.572 236.836 249.667 236.389 249.855 236.003C250.046 235.617 250.312 235.315 250.654 235.099C250.997 234.882 251.398 234.774 251.857 234.774C252.136 234.774 252.406 234.82 252.668 234.912C252.93 235.004 253.165 235.149 253.373 235.347C253.581 235.544 253.745 235.8 253.865 236.116C253.985 236.429 254.046 236.81 254.046 237.258V237.599H250.116V236.878H253.103C253.103 236.625 253.051 236.401 252.948 236.206C252.845 236.008 252.7 235.853 252.514 235.739C252.329 235.625 252.112 235.569 251.864 235.569C251.593 235.569 251.357 235.635 251.156 235.768C250.956 235.899 250.802 236.071 250.692 236.283C250.585 236.493 250.531 236.722 250.531 236.969V237.532C250.531 237.862 250.589 238.143 250.705 238.375C250.823 238.607 250.987 238.784 251.197 238.906C251.408 239.026 251.653 239.086 251.934 239.086C252.117 239.086 252.283 239.06 252.433 239.009C252.583 238.955 252.713 238.876 252.823 238.771C252.932 238.666 253.016 238.536 253.074 238.381L253.984 238.545C253.911 238.814 253.781 239.049 253.592 239.25C253.405 239.45 253.17 239.605 252.887 239.717C252.606 239.826 252.285 239.881 251.925 239.881ZM257.044 239.878C256.645 239.878 256.288 239.776 255.975 239.572C255.664 239.366 255.42 239.073 255.241 238.693C255.066 238.312 254.978 237.854 254.978 237.319C254.978 236.785 255.067 236.328 255.245 235.948C255.425 235.569 255.672 235.278 255.985 235.076C256.298 234.875 256.653 234.774 257.05 234.774C257.357 234.774 257.604 234.825 257.79 234.928C257.979 235.029 258.125 235.147 258.228 235.282C258.333 235.417 258.415 235.536 258.473 235.639H258.53V233.19H259.493V239.781H258.553V239.012H258.473C258.415 239.117 258.331 239.237 258.222 239.373C258.114 239.508 257.966 239.626 257.777 239.727C257.589 239.827 257.344 239.878 257.044 239.878ZM257.256 239.057C257.533 239.057 257.767 238.984 257.958 238.838C258.151 238.69 258.297 238.485 258.395 238.224C258.496 237.962 258.547 237.657 258.547 237.31C258.547 236.966 258.497 236.666 258.399 236.409C258.3 236.151 258.155 235.95 257.964 235.807C257.773 235.663 257.537 235.591 257.256 235.591C256.966 235.591 256.725 235.666 256.532 235.816C256.339 235.967 256.193 236.171 256.094 236.431C255.998 236.691 255.949 236.984 255.949 237.31C255.949 237.64 255.999 237.937 256.098 238.201C256.196 238.465 256.342 238.674 256.535 238.829C256.73 238.981 256.971 239.057 257.256 239.057ZM260.946 239.781V234.838H261.908V239.781H260.946ZM261.432 234.075C261.265 234.075 261.121 234.02 261.001 233.908C260.883 233.794 260.824 233.659 260.824 233.503C260.824 233.344 260.883 233.209 261.001 233.097C261.121 232.983 261.265 232.926 261.432 232.926C261.599 232.926 261.742 232.983 261.86 233.097C261.98 233.209 262.04 233.344 262.04 233.503C262.04 233.659 261.98 233.794 261.86 233.908C261.742 234.02 261.599 234.075 261.432 234.075ZM265.59 234.838V235.61H262.89V234.838H265.59ZM263.614 233.654H264.577V238.33C264.577 238.516 264.604 238.657 264.66 238.751C264.716 238.844 264.788 238.907 264.876 238.941C264.966 238.973 265.064 238.99 265.169 238.99C265.246 238.99 265.314 238.984 265.372 238.973C265.429 238.963 265.474 238.954 265.507 238.948L265.68 239.743C265.625 239.764 265.545 239.786 265.442 239.807C265.339 239.831 265.211 239.843 265.056 239.846C264.803 239.85 264.567 239.805 264.348 239.71C264.129 239.616 263.952 239.47 263.817 239.273C263.682 239.075 263.614 238.828 263.614 238.529V233.654ZM268.764 239.881C268.3 239.881 267.896 239.775 267.551 239.562C267.205 239.35 266.937 239.053 266.746 238.671C266.555 238.289 266.46 237.843 266.46 237.332C266.46 236.819 266.555 236.371 266.746 235.987C266.937 235.603 267.205 235.305 267.551 235.092C267.896 234.88 268.3 234.774 268.764 234.774C269.227 234.774 269.632 234.88 269.977 235.092C270.323 235.305 270.591 235.603 270.782 235.987C270.973 236.371 271.068 236.819 271.068 237.332C271.068 237.843 270.973 238.289 270.782 238.671C270.591 239.053 270.323 239.35 269.977 239.562C269.632 239.775 269.227 239.881 268.764 239.881ZM268.767 239.073C269.067 239.073 269.316 238.994 269.514 238.835C269.711 238.676 269.857 238.465 269.951 238.201C270.048 237.937 270.096 237.646 270.096 237.329C270.096 237.014 270.048 236.724 269.951 236.46C269.857 236.194 269.711 235.981 269.514 235.82C269.316 235.659 269.067 235.578 268.767 235.578C268.465 235.578 268.214 235.659 268.014 235.82C267.817 235.981 267.67 236.194 267.573 236.46C267.479 236.724 267.432 237.014 267.432 237.329C267.432 237.646 267.479 237.937 267.573 238.201C267.67 238.465 267.817 238.676 268.014 238.835C268.214 238.994 268.465 239.073 268.767 239.073ZM272.222 239.781V234.838H273.152V235.623H273.204C273.294 235.357 273.453 235.148 273.68 234.996C273.91 234.841 274.169 234.764 274.459 234.764C274.519 234.764 274.59 234.766 274.671 234.77C274.755 234.775 274.82 234.78 274.868 234.787V235.707C274.829 235.696 274.76 235.684 274.662 235.672C274.563 235.657 274.464 235.649 274.366 235.649C274.138 235.649 273.935 235.697 273.757 235.794C273.581 235.888 273.442 236.02 273.339 236.19C273.236 236.357 273.184 236.548 273.184 236.763V239.781H272.222ZM279.484 236.045L278.612 236.199C278.576 236.088 278.518 235.982 278.439 235.881C278.361 235.78 278.256 235.697 278.123 235.633C277.99 235.569 277.824 235.536 277.624 235.536C277.352 235.536 277.124 235.598 276.942 235.72C276.76 235.84 276.668 235.996 276.668 236.187C276.668 236.352 276.73 236.485 276.852 236.586C276.974 236.686 277.172 236.769 277.444 236.833L278.229 237.014C278.684 237.119 279.023 237.281 279.246 237.5C279.469 237.718 279.581 238.003 279.581 238.352C279.581 238.648 279.495 238.912 279.324 239.144C279.154 239.374 278.917 239.554 278.612 239.685C278.31 239.816 277.959 239.881 277.56 239.881C277.006 239.881 276.555 239.763 276.205 239.527C275.855 239.289 275.641 238.951 275.561 238.513L276.491 238.372C276.549 238.614 276.668 238.798 276.849 238.922C277.029 239.044 277.264 239.105 277.553 239.105C277.869 239.105 278.121 239.04 278.31 238.909C278.499 238.776 278.593 238.614 278.593 238.423C278.593 238.269 278.535 238.139 278.419 238.034C278.305 237.929 278.131 237.849 277.895 237.796L277.058 237.612C276.597 237.507 276.255 237.34 276.034 237.11C275.816 236.881 275.706 236.59 275.706 236.238C275.706 235.946 275.788 235.691 275.951 235.472C276.114 235.253 276.339 235.083 276.627 234.96C276.914 234.836 277.243 234.774 277.615 234.774C278.149 234.774 278.569 234.89 278.876 235.121C279.183 235.351 279.386 235.659 279.484 236.045ZM284.636 239.891C284.323 239.891 284.039 239.833 283.786 239.717C283.533 239.599 283.333 239.428 283.184 239.205C283.039 238.982 282.966 238.709 282.966 238.385C282.966 238.106 283.019 237.876 283.127 237.696C283.234 237.516 283.379 237.373 283.561 237.268C283.743 237.163 283.947 237.083 284.172 237.03C284.398 236.976 284.627 236.935 284.861 236.907C285.157 236.873 285.398 236.845 285.582 236.824C285.767 236.8 285.901 236.763 285.984 236.711C286.068 236.66 286.11 236.576 286.11 236.46V236.438C286.11 236.156 286.03 235.939 285.872 235.784C285.715 235.63 285.481 235.553 285.17 235.553C284.846 235.553 284.591 235.624 284.404 235.768C284.22 235.91 284.092 236.067 284.021 236.241L283.117 236.035C283.224 235.735 283.381 235.492 283.587 235.308C283.795 235.121 284.034 234.986 284.304 234.902C284.575 234.817 284.859 234.774 285.157 234.774C285.355 234.774 285.564 234.797 285.785 234.845C286.008 234.89 286.216 234.973 286.409 235.096C286.604 235.218 286.764 235.393 286.889 235.62C287.013 235.845 287.075 236.138 287.075 236.499V239.781H286.136V239.105H286.097C286.035 239.23 285.941 239.352 285.817 239.472C285.693 239.592 285.533 239.692 285.337 239.772C285.142 239.851 284.908 239.891 284.636 239.891ZM284.845 239.118C285.111 239.118 285.339 239.066 285.527 238.961C285.718 238.855 285.863 238.718 285.962 238.549C286.063 238.377 286.113 238.194 286.113 237.998V237.361C286.079 237.395 286.012 237.428 285.914 237.458C285.817 237.486 285.706 237.51 285.582 237.532C285.458 237.551 285.336 237.569 285.218 237.586C285.1 237.601 285.002 237.614 284.922 237.625C284.736 237.649 284.565 237.688 284.411 237.744C284.258 237.8 284.136 237.88 284.044 237.985C283.954 238.088 283.909 238.226 283.909 238.397C283.909 238.636 283.997 238.816 284.172 238.938C284.348 239.058 284.573 239.118 284.845 239.118ZM289.399 236.846V239.781H288.437V234.838H289.361V235.643H289.422C289.535 235.381 289.714 235.171 289.956 235.012C290.201 234.853 290.508 234.774 290.88 234.774C291.216 234.774 291.511 234.845 291.765 234.986C292.018 235.126 292.214 235.334 292.354 235.61C292.493 235.887 292.563 236.229 292.563 236.637V239.781H291.6V236.753C291.6 236.395 291.507 236.115 291.32 235.913C291.134 235.709 290.877 235.607 290.551 235.607C290.328 235.607 290.13 235.655 289.956 235.752C289.784 235.849 289.648 235.99 289.547 236.177C289.449 236.361 289.399 236.584 289.399 236.846ZM295.784 239.878C295.385 239.878 295.028 239.776 294.715 239.572C294.404 239.366 294.16 239.073 293.981 238.693C293.806 238.312 293.718 237.854 293.718 237.319C293.718 236.785 293.807 236.328 293.985 235.948C294.165 235.569 294.412 235.278 294.725 235.076C295.038 234.875 295.393 234.774 295.79 234.774C296.097 234.774 296.344 234.825 296.53 234.928C296.719 235.029 296.865 235.147 296.968 235.282C297.073 235.417 297.155 235.536 297.213 235.639H297.27V233.19H298.233V239.781H297.293V239.012H297.213C297.155 239.117 297.071 239.237 296.962 239.373C296.854 239.508 296.706 239.626 296.517 239.727C296.329 239.827 296.084 239.878 295.784 239.878ZM295.996 239.057C296.273 239.057 296.507 238.984 296.698 238.838C296.891 238.69 297.037 238.485 297.135 238.224C297.236 237.962 297.287 237.657 297.287 237.31C297.287 236.966 297.237 236.666 297.139 236.409C297.04 236.151 296.895 235.95 296.704 235.807C296.513 235.663 296.277 235.591 295.996 235.591C295.706 235.591 295.465 235.666 295.272 235.816C295.079 235.967 294.933 236.171 294.834 236.431C294.738 236.691 294.689 236.984 294.689 237.31C294.689 237.64 294.739 237.937 294.838 238.201C294.936 238.465 295.082 238.674 295.275 238.829C295.47 238.981 295.711 239.057 295.996 239.057ZM305.296 237.731V234.838H306.261V239.781H305.315V238.925H305.264C305.15 239.189 304.968 239.409 304.717 239.585C304.468 239.759 304.158 239.846 303.786 239.846C303.469 239.846 303.188 239.776 302.943 239.636C302.701 239.495 302.51 239.286 302.37 239.009C302.233 238.732 302.165 238.39 302.165 237.982V234.838H303.127V237.866C303.127 238.203 303.22 238.471 303.407 238.671C303.593 238.87 303.836 238.97 304.134 238.97C304.314 238.97 304.493 238.925 304.671 238.835C304.852 238.745 305.001 238.609 305.119 238.426C305.239 238.244 305.298 238.012 305.296 237.731ZM308.596 236.846V239.781H307.634V234.838H308.558V235.643H308.619C308.733 235.381 308.911 235.171 309.153 235.012C309.398 234.853 309.706 234.774 310.077 234.774C310.414 234.774 310.709 234.845 310.962 234.986C311.215 235.126 311.411 235.334 311.551 235.61C311.69 235.887 311.76 236.229 311.76 236.637V239.781H310.798V236.753C310.798 236.395 310.704 236.115 310.518 235.913C310.331 235.709 310.075 235.607 309.749 235.607C309.525 235.607 309.327 235.655 309.153 235.752C308.982 235.849 308.845 235.99 308.744 236.177C308.646 236.361 308.596 236.584 308.596 236.846ZM314.093 233.19V239.781H313.13V233.19H314.093ZM315.467 239.781V234.838H316.429V239.781H315.467ZM315.953 234.075C315.786 234.075 315.642 234.02 315.522 233.908C315.404 233.794 315.345 233.659 315.345 233.503C315.345 233.344 315.404 233.209 315.522 233.097C315.642 232.983 315.786 232.926 315.953 232.926C316.121 232.926 316.263 232.983 316.381 233.097C316.501 233.209 316.561 233.344 316.561 233.503C316.561 233.659 316.501 233.794 316.381 233.908C316.263 234.02 316.121 234.075 315.953 234.075ZM317.804 239.781V234.838H318.728V235.643H318.789C318.892 235.37 319.06 235.158 319.294 235.005C319.528 234.851 319.808 234.774 320.134 234.774C320.464 234.774 320.741 234.851 320.964 235.005C321.19 235.16 321.356 235.372 321.463 235.643H321.515C321.633 235.379 321.82 235.168 322.078 235.012C322.335 234.853 322.642 234.774 322.998 234.774C323.447 234.774 323.812 234.914 324.096 235.195C324.381 235.476 324.524 235.9 324.524 236.466V239.781H323.561V236.557C323.561 236.222 323.47 235.979 323.288 235.829C323.105 235.679 322.888 235.604 322.635 235.604C322.321 235.604 322.078 235.701 321.904 235.894C321.73 236.085 321.643 236.33 321.643 236.631V239.781H320.684V236.495C320.684 236.227 320.601 236.012 320.433 235.849C320.266 235.686 320.048 235.604 319.78 235.604C319.598 235.604 319.429 235.652 319.275 235.749C319.122 235.843 318.999 235.975 318.905 236.145C318.812 236.314 318.766 236.51 318.766 236.734V239.781H317.804ZM325.893 239.781V234.838H326.856V239.781H325.893ZM326.379 234.075C326.212 234.075 326.068 234.02 325.948 233.908C325.83 233.794 325.771 233.659 325.771 233.503C325.771 233.344 325.83 233.209 325.948 233.097C326.068 232.983 326.212 232.926 326.379 232.926C326.547 232.926 326.689 232.983 326.807 233.097C326.927 233.209 326.988 233.344 326.988 233.503C326.988 233.659 326.927 233.794 326.807 233.908C326.689 234.02 326.547 234.075 326.379 234.075ZM330.538 234.838V235.61H327.838V234.838H330.538ZM328.562 233.654H329.524V238.33C329.524 238.516 329.552 238.657 329.608 238.751C329.663 238.844 329.735 238.907 329.823 238.941C329.913 238.973 330.011 238.99 330.116 238.99C330.193 238.99 330.261 238.984 330.319 238.973C330.377 238.963 330.422 238.954 330.454 238.948L330.628 239.743C330.572 239.764 330.493 239.786 330.39 239.807C330.287 239.831 330.158 239.843 330.003 239.846C329.75 239.85 329.514 239.805 329.295 239.71C329.077 239.616 328.9 239.47 328.764 239.273C328.629 239.075 328.562 238.828 328.562 238.529V233.654ZM333.759 239.881C333.272 239.881 332.853 239.777 332.501 239.569C332.151 239.359 331.881 239.064 331.69 238.684C331.501 238.302 331.407 237.855 331.407 237.342C331.407 236.836 331.501 236.389 331.69 236.003C331.881 235.617 332.147 235.315 332.488 235.099C332.831 234.882 333.233 234.774 333.692 234.774C333.971 234.774 334.241 234.82 334.503 234.912C334.765 235.004 334.999 235.149 335.208 235.347C335.416 235.544 335.58 235.8 335.7 236.116C335.82 236.429 335.88 236.81 335.88 237.258V237.599H331.951V236.878H334.937C334.937 236.625 334.886 236.401 334.783 236.206C334.68 236.008 334.535 235.853 334.348 235.739C334.164 235.625 333.947 235.569 333.698 235.569C333.428 235.569 333.192 235.635 332.99 235.768C332.791 235.899 332.636 236.071 332.527 236.283C332.42 236.493 332.366 236.722 332.366 236.969V237.532C332.366 237.862 332.424 238.143 332.54 238.375C332.658 238.607 332.822 238.784 333.032 238.906C333.242 239.026 333.488 239.086 333.769 239.086C333.951 239.086 334.118 239.06 334.268 239.009C334.418 238.955 334.548 238.876 334.657 238.771C334.767 238.666 334.85 238.536 334.908 238.381L335.819 238.545C335.746 238.814 335.615 239.049 335.426 239.25C335.24 239.45 335.005 239.605 334.722 239.717C334.441 239.826 334.12 239.881 333.759 239.881ZM338.878 239.878C338.479 239.878 338.123 239.776 337.81 239.572C337.499 239.366 337.254 239.073 337.076 238.693C336.9 238.312 336.812 237.854 336.812 237.319C336.812 236.785 336.901 236.328 337.079 235.948C337.26 235.569 337.506 235.278 337.82 235.076C338.133 234.875 338.488 234.774 338.885 234.774C339.192 234.774 339.438 234.825 339.625 234.928C339.814 235.029 339.96 235.147 340.063 235.282C340.168 235.417 340.249 235.536 340.307 235.639H340.365V233.19H341.327V239.781H340.388V239.012H340.307C340.249 239.117 340.166 239.237 340.056 239.373C339.949 239.508 339.801 239.626 339.612 239.727C339.423 239.827 339.179 239.878 338.878 239.878ZM339.091 239.057C339.367 239.057 339.601 238.984 339.792 238.838C339.985 238.69 340.131 238.485 340.23 238.224C340.331 237.962 340.381 237.657 340.381 237.31C340.381 236.966 340.332 236.666 340.233 236.409C340.134 236.151 339.99 235.95 339.799 235.807C339.608 235.663 339.372 235.591 339.091 235.591C338.801 235.591 338.56 235.666 338.367 235.816C338.174 235.967 338.028 236.171 337.929 236.431C337.832 236.691 337.784 236.984 337.784 237.31C337.784 237.64 337.833 237.937 337.932 238.201C338.031 238.465 338.177 238.674 338.37 238.829C338.565 238.981 338.805 239.057 339.091 239.057ZM146.647 258.635V251.838H147.587V252.639H147.667C147.723 252.536 147.803 252.417 147.908 252.282C148.014 252.147 148.159 252.029 148.346 251.928C148.533 251.825 148.779 251.774 149.086 251.774C149.485 251.774 149.841 251.875 150.155 252.076C150.468 252.278 150.714 252.569 150.892 252.948C151.072 253.328 151.162 253.785 151.162 254.319C151.162 254.854 151.073 255.312 150.895 255.693C150.717 256.073 150.472 256.366 150.161 256.572C149.85 256.776 149.495 256.878 149.096 256.878C148.796 256.878 148.55 256.827 148.359 256.727C148.17 256.626 148.022 256.508 147.915 256.373C147.808 256.237 147.725 256.117 147.667 256.012H147.609V258.635H146.647ZM147.59 254.31C147.59 254.657 147.64 254.962 147.741 255.224C147.842 255.485 147.988 255.69 148.179 255.838C148.37 255.984 148.604 256.057 148.88 256.057C149.168 256.057 149.408 255.981 149.601 255.829C149.794 255.674 149.94 255.465 150.039 255.201C150.14 254.937 150.19 254.64 150.19 254.31C150.19 253.984 150.141 253.691 150.042 253.431C149.946 253.171 149.8 252.967 149.604 252.816C149.411 252.666 149.17 252.591 148.88 252.591C148.601 252.591 148.365 252.663 148.172 252.807C147.981 252.95 147.837 253.151 147.738 253.409C147.639 253.666 147.59 253.966 147.59 254.31ZM152.32 256.781V251.838H153.25V252.623H153.302C153.392 252.357 153.551 252.148 153.778 251.996C154.008 251.841 154.267 251.764 154.557 251.764C154.617 251.764 154.688 251.766 154.769 251.77C154.853 251.775 154.918 251.78 154.965 251.787V252.707C154.927 252.696 154.858 252.684 154.76 252.672C154.661 252.657 154.562 252.649 154.463 252.649C154.236 252.649 154.033 252.697 153.855 252.794C153.679 252.888 153.54 253.02 153.437 253.19C153.334 253.357 153.282 253.548 153.282 253.763V256.781H152.32ZM157.783 256.881C157.32 256.881 156.916 256.775 156.57 256.562C156.225 256.35 155.957 256.053 155.766 255.671C155.575 255.289 155.479 254.843 155.479 254.332C155.479 253.819 155.575 253.371 155.766 252.987C155.957 252.603 156.225 252.305 156.57 252.092C156.916 251.88 157.32 251.774 157.783 251.774C158.247 251.774 158.651 251.88 158.997 252.092C159.342 252.305 159.61 252.603 159.801 252.987C159.992 253.371 160.088 253.819 160.088 254.332C160.088 254.843 159.992 255.289 159.801 255.671C159.61 256.053 159.342 256.35 158.997 256.562C158.651 256.775 158.247 256.881 157.783 256.881ZM157.787 256.073C158.087 256.073 158.336 255.994 158.533 255.835C158.731 255.676 158.877 255.465 158.971 255.201C159.067 254.937 159.116 254.646 159.116 254.329C159.116 254.014 159.067 253.724 158.971 253.46C158.877 253.194 158.731 252.981 158.533 252.82C158.336 252.659 158.087 252.578 157.787 252.578C157.484 252.578 157.233 252.659 157.034 252.82C156.836 252.981 156.689 253.194 156.593 253.46C156.498 253.724 156.451 254.014 156.451 254.329C156.451 254.646 156.498 254.937 156.593 255.201C156.689 255.465 156.836 255.676 157.034 255.835C157.233 255.994 157.484 256.073 157.787 256.073ZM161.242 251.838H162.204V257.103C162.204 257.433 162.144 257.712 162.024 257.94C161.906 258.167 161.73 258.34 161.496 258.458C161.264 258.576 160.978 258.635 160.637 258.635C160.602 258.635 160.57 258.635 160.54 258.635C160.508 258.635 160.475 258.634 160.44 258.632V257.805C160.47 257.805 160.497 257.805 160.521 257.805C160.542 257.805 160.567 257.805 160.595 257.805C160.822 257.805 160.986 257.743 161.087 257.621C161.19 257.501 161.242 257.326 161.242 257.097V251.838ZM161.718 251.075C161.551 251.075 161.407 251.02 161.287 250.908C161.169 250.794 161.11 250.659 161.11 250.503C161.11 250.344 161.169 250.209 161.287 250.097C161.407 249.983 161.551 249.926 161.718 249.926C161.885 249.926 162.028 249.983 162.146 250.097C162.266 250.209 162.326 250.344 162.326 250.503C162.326 250.659 162.266 250.794 162.146 250.908C162.028 251.02 161.885 251.075 161.718 251.075ZM165.709 256.881C165.222 256.881 164.802 256.777 164.451 256.569C164.101 256.359 163.831 256.064 163.64 255.684C163.451 255.302 163.356 254.855 163.356 254.342C163.356 253.836 163.451 253.389 163.64 253.003C163.831 252.617 164.097 252.315 164.438 252.099C164.781 251.882 165.182 251.774 165.641 251.774C165.92 251.774 166.191 251.82 166.452 251.912C166.714 252.004 166.949 252.149 167.157 252.347C167.365 252.544 167.529 252.8 167.65 253.116C167.77 253.429 167.83 253.81 167.83 254.258V254.599H163.9V253.878H166.887C166.887 253.625 166.835 253.401 166.732 253.206C166.629 253.008 166.485 252.853 166.298 252.739C166.113 252.625 165.897 252.569 165.648 252.569C165.377 252.569 165.141 252.635 164.94 252.768C164.74 252.899 164.586 253.071 164.476 253.283C164.369 253.493 164.315 253.722 164.315 253.969V254.532C164.315 254.862 164.373 255.143 164.489 255.375C164.607 255.607 164.771 255.784 164.982 255.906C165.192 256.026 165.438 256.086 165.719 256.086C165.901 256.086 166.067 256.06 166.217 256.009C166.368 255.955 166.497 255.876 166.607 255.771C166.716 255.666 166.8 255.536 166.858 255.381L167.769 255.545C167.696 255.814 167.565 256.049 167.376 256.25C167.189 256.45 166.954 256.605 166.671 256.717C166.39 256.826 166.069 256.881 165.709 256.881ZM171.06 256.881C170.581 256.881 170.169 256.773 169.824 256.556C169.481 256.337 169.217 256.036 169.032 255.652C168.848 255.268 168.755 254.828 168.755 254.332C168.755 253.83 168.85 253.387 169.039 253.003C169.227 252.617 169.493 252.315 169.837 252.099C170.18 251.882 170.584 251.774 171.05 251.774C171.425 251.774 171.76 251.843 172.054 251.983C172.348 252.12 172.585 252.313 172.765 252.562C172.948 252.811 173.056 253.102 173.09 253.434H172.154C172.102 253.203 171.984 253.003 171.8 252.836C171.617 252.668 171.373 252.585 171.066 252.585C170.798 252.585 170.563 252.655 170.361 252.797C170.162 252.937 170.006 253.136 169.895 253.396C169.783 253.653 169.727 253.958 169.727 254.31C169.727 254.67 169.782 254.981 169.891 255.243C170.001 255.505 170.155 255.707 170.355 255.851C170.556 255.995 170.794 256.067 171.066 256.067C171.248 256.067 171.414 256.034 171.562 255.967C171.712 255.898 171.837 255.801 171.938 255.674C172.041 255.548 172.113 255.395 172.154 255.217H173.09C173.056 255.537 172.952 255.822 172.778 256.073C172.604 256.324 172.372 256.522 172.08 256.665C171.79 256.809 171.45 256.881 171.06 256.881ZM176.507 251.838V252.61H173.807V251.838H176.507ZM174.531 250.654H175.493V255.33C175.493 255.516 175.521 255.657 175.577 255.751C175.632 255.844 175.704 255.907 175.792 255.941C175.882 255.973 175.98 255.99 176.085 255.99C176.162 255.99 176.23 255.984 176.288 255.973C176.346 255.963 176.391 255.954 176.423 255.948L176.597 256.743C176.541 256.764 176.462 256.786 176.359 256.807C176.256 256.831 176.127 256.843 175.973 256.846C175.719 256.85 175.483 256.805 175.265 256.71C175.046 256.616 174.869 256.47 174.734 256.273C174.598 256.075 174.531 255.828 174.531 255.529V250.654ZM181.276 253.045L180.404 253.199C180.367 253.088 180.309 252.982 180.23 252.881C180.153 252.78 180.047 252.697 179.914 252.633C179.781 252.569 179.615 252.536 179.416 252.536C179.143 252.536 178.916 252.598 178.733 252.72C178.551 252.84 178.46 252.996 178.46 253.187C178.46 253.352 178.521 253.485 178.643 253.586C178.766 253.686 178.963 253.769 179.235 253.833L180.021 254.014C180.475 254.119 180.814 254.281 181.038 254.5C181.261 254.718 181.372 255.003 181.372 255.352C181.372 255.648 181.286 255.912 181.115 256.144C180.945 256.374 180.708 256.554 180.404 256.685C180.101 256.816 179.75 256.881 179.351 256.881C178.798 256.881 178.346 256.763 177.996 256.527C177.647 256.289 177.432 255.951 177.353 255.513L178.283 255.372C178.341 255.614 178.46 255.798 178.64 255.922C178.82 256.044 179.055 256.105 179.345 256.105C179.66 256.105 179.912 256.04 180.101 255.909C180.29 255.776 180.384 255.614 180.384 255.423C180.384 255.269 180.326 255.139 180.21 255.034C180.097 254.929 179.922 254.849 179.686 254.796L178.849 254.612C178.388 254.507 178.047 254.34 177.826 254.11C177.607 253.881 177.498 253.59 177.498 253.238C177.498 252.946 177.579 252.691 177.742 252.472C177.905 252.253 178.13 252.083 178.418 251.96C178.705 251.836 179.035 251.774 179.406 251.774C179.94 251.774 180.361 251.89 180.667 252.121C180.974 252.351 181.177 252.659 181.276 253.045ZM183.144 256.842C182.968 256.842 182.817 256.78 182.69 256.656C182.564 256.529 182.501 256.377 182.501 256.199C182.501 256.023 182.564 255.873 182.69 255.748C182.817 255.622 182.968 255.558 183.144 255.558C183.32 255.558 183.471 255.622 183.598 255.748C183.725 255.873 183.788 256.023 183.788 256.199C183.788 256.317 183.758 256.425 183.698 256.524C183.64 256.62 183.563 256.698 183.466 256.756C183.37 256.813 183.262 256.842 183.144 256.842Z" fill="#0A2540"/>
<path d="M147.323 279.077L149.189 284.537H149.264L151.13 279.077H152.223L149.811 285.781H148.642L146.229 279.077H147.323ZM153.193 285.781V280.753H154.172V285.781H153.193ZM153.687 279.977C153.517 279.977 153.371 279.92 153.249 279.807C153.129 279.691 153.069 279.554 153.069 279.394C153.069 279.233 153.129 279.095 153.249 278.982C153.371 278.866 153.517 278.808 153.687 278.808C153.858 278.808 154.003 278.866 154.123 278.982C154.245 279.095 154.306 279.233 154.306 279.394C154.306 279.554 154.245 279.691 154.123 279.807C154.003 279.92 153.858 279.977 153.687 279.977ZM157.736 285.883C157.24 285.883 156.814 285.777 156.456 285.565C156.1 285.351 155.825 285.051 155.631 284.665C155.439 284.276 155.343 283.821 155.343 283.3C155.343 282.785 155.439 282.331 155.631 281.938C155.825 281.545 156.096 281.238 156.443 281.018C156.792 280.798 157.2 280.687 157.667 280.687C157.951 280.687 158.226 280.734 158.492 280.828C158.758 280.922 158.997 281.069 159.209 281.27C159.421 281.471 159.588 281.732 159.71 282.053C159.832 282.371 159.893 282.759 159.893 283.215V283.562H155.896V282.828H158.934C158.934 282.571 158.882 282.343 158.777 282.144C158.672 281.943 158.525 281.785 158.335 281.669C158.147 281.554 157.927 281.496 157.674 281.496C157.399 281.496 157.159 281.564 156.953 281.699C156.75 281.832 156.593 282.007 156.482 282.223C156.373 282.437 156.318 282.669 156.318 282.92V283.493C156.318 283.829 156.377 284.115 156.495 284.351C156.615 284.586 156.782 284.766 156.996 284.891C157.21 285.013 157.46 285.074 157.746 285.074C157.931 285.074 158.1 285.048 158.253 284.996C158.406 284.941 158.538 284.86 158.649 284.753C158.76 284.646 158.846 284.514 158.905 284.357L159.831 284.524C159.757 284.797 159.624 285.036 159.432 285.241C159.242 285.444 159.003 285.602 158.715 285.716C158.429 285.827 158.102 285.883 157.736 285.883ZM162.14 285.781L160.661 280.753H161.672L162.658 284.446H162.707L163.695 280.753H164.707L165.689 284.429H165.738L166.717 280.753H167.729L166.252 285.781H165.254L164.232 282.151H164.157L163.136 285.781H162.14ZM171.257 285.781V280.753H172.236V285.781H171.257ZM171.752 279.977C171.581 279.977 171.435 279.92 171.313 279.807C171.193 279.691 171.133 279.554 171.133 279.394C171.133 279.233 171.193 279.095 171.313 278.982C171.435 278.866 171.581 278.808 171.752 278.808C171.922 278.808 172.067 278.866 172.187 278.982C172.309 279.095 172.37 279.233 172.37 279.394C172.37 279.554 172.309 279.691 172.187 279.807C172.067 279.92 171.922 279.977 171.752 279.977ZM174.612 282.796V285.781H173.633V280.753H174.572V281.571H174.635C174.75 281.305 174.931 281.091 175.178 280.93C175.427 280.768 175.74 280.687 176.118 280.687C176.46 280.687 176.76 280.759 177.018 280.903C177.275 281.045 177.475 281.257 177.617 281.539C177.759 281.82 177.83 282.168 177.83 282.583V285.781H176.851V282.701C176.851 282.336 176.756 282.051 176.566 281.846C176.376 281.639 176.115 281.535 175.784 281.535C175.557 281.535 175.355 281.584 175.178 281.683C175.004 281.781 174.865 281.925 174.762 282.115C174.662 282.302 174.612 282.529 174.612 282.796ZM183.344 280.753L181.521 285.781H180.473L178.646 280.753H179.697L180.971 284.622H181.023L182.293 280.753H183.344ZM186.291 285.883C185.82 285.883 185.408 285.775 185.057 285.559C184.706 285.343 184.433 285.04 184.238 284.652C184.044 284.263 183.947 283.809 183.947 283.29C183.947 282.768 184.044 282.312 184.238 281.922C184.433 281.531 184.706 281.228 185.057 281.011C185.408 280.795 185.82 280.687 186.291 280.687C186.763 280.687 187.174 280.795 187.525 281.011C187.877 281.228 188.149 281.531 188.344 281.922C188.538 282.312 188.635 282.768 188.635 283.29C188.635 283.809 188.538 284.263 188.344 284.652C188.149 285.04 187.877 285.343 187.525 285.559C187.174 285.775 186.763 285.883 186.291 285.883ZM186.294 285.061C186.6 285.061 186.853 284.98 187.054 284.819C187.255 284.657 187.403 284.442 187.499 284.174C187.597 283.905 187.646 283.61 187.646 283.287C187.646 282.966 187.597 282.671 187.499 282.403C187.403 282.132 187.255 281.915 187.054 281.751C186.853 281.588 186.6 281.506 186.294 281.506C185.987 281.506 185.731 281.588 185.528 281.751C185.328 281.915 185.178 282.132 185.08 282.403C184.984 282.671 184.936 282.966 184.936 283.287C184.936 283.61 184.984 283.905 185.08 284.174C185.178 284.442 185.328 284.657 185.528 284.819C185.731 284.98 185.987 285.061 186.294 285.061ZM189.808 285.781V280.753H190.787V285.781H189.808ZM190.302 279.977C190.132 279.977 189.986 279.92 189.863 279.807C189.743 279.691 189.683 279.554 189.683 279.394C189.683 279.233 189.743 279.095 189.863 278.982C189.986 278.866 190.132 278.808 190.302 278.808C190.472 278.808 190.617 278.866 190.737 278.982C190.86 279.095 190.921 279.233 190.921 279.394C190.921 279.554 190.86 279.691 190.737 279.807C190.617 279.92 190.472 279.977 190.302 279.977ZM194.301 285.883C193.815 285.883 193.396 285.773 193.044 285.552C192.695 285.329 192.427 285.023 192.239 284.632C192.051 284.242 191.957 283.794 191.957 283.29C191.957 282.779 192.053 282.329 192.246 281.938C192.438 281.545 192.708 281.238 193.057 281.018C193.407 280.798 193.818 280.687 194.292 280.687C194.674 280.687 195.014 280.758 195.313 280.9C195.612 281.04 195.853 281.236 196.037 281.489C196.222 281.743 196.332 282.038 196.367 282.377H195.415C195.362 282.141 195.242 281.938 195.054 281.768C194.869 281.597 194.62 281.512 194.308 281.512C194.035 281.512 193.796 281.584 193.591 281.728C193.388 281.87 193.23 282.073 193.116 282.337C193.003 282.599 192.946 282.909 192.946 283.267C192.946 283.634 193.002 283.95 193.113 284.216C193.224 284.483 193.382 284.689 193.585 284.835C193.79 284.981 194.031 285.054 194.308 285.054C194.493 285.054 194.662 285.021 194.812 284.953C194.965 284.883 195.093 284.784 195.195 284.655C195.3 284.526 195.373 284.371 195.415 284.19H196.367C196.332 284.515 196.226 284.806 196.05 285.061C195.873 285.316 195.636 285.517 195.339 285.663C195.045 285.81 194.699 285.883 194.301 285.883ZM199.661 285.883C199.166 285.883 198.739 285.777 198.381 285.565C198.025 285.351 197.75 285.051 197.556 284.665C197.364 284.276 197.268 283.821 197.268 283.3C197.268 282.785 197.364 282.331 197.556 281.938C197.75 281.545 198.021 281.238 198.368 281.018C198.717 280.798 199.125 280.687 199.592 280.687C199.876 280.687 200.151 280.734 200.417 280.828C200.684 280.922 200.923 281.069 201.134 281.27C201.346 281.471 201.513 281.732 201.635 282.053C201.757 282.371 201.818 282.759 201.818 283.215V283.562H197.821V282.828H200.859C200.859 282.571 200.807 282.343 200.702 282.144C200.597 281.943 200.45 281.785 200.26 281.669C200.073 281.554 199.852 281.496 199.599 281.496C199.324 281.496 199.084 281.564 198.879 281.699C198.676 281.832 198.519 282.007 198.407 282.223C198.298 282.437 198.244 282.669 198.244 282.92V283.493C198.244 283.829 198.303 284.115 198.42 284.351C198.54 284.586 198.707 284.766 198.921 284.891C199.135 285.013 199.385 285.074 199.671 285.074C199.856 285.074 200.026 285.048 200.178 284.996C200.331 284.941 200.463 284.86 200.574 284.753C200.686 284.646 200.771 284.514 200.83 284.357L201.756 284.524C201.682 284.797 201.549 285.036 201.357 285.241C201.167 285.444 200.928 285.602 200.64 285.716C200.354 285.827 200.028 285.883 199.661 285.883ZM207.387 285.879C206.981 285.879 206.618 285.776 206.3 285.568C205.983 285.359 205.735 285.061 205.553 284.675C205.374 284.286 205.285 283.82 205.285 283.277C205.285 282.733 205.375 282.269 205.557 281.882C205.74 281.496 205.991 281.2 206.31 280.995C206.628 280.79 206.989 280.687 207.393 280.687C207.705 280.687 207.956 280.74 208.146 280.845C208.338 280.947 208.487 281.067 208.591 281.205C208.698 281.342 208.781 281.463 208.84 281.568H208.899V279.077H209.878V285.781H208.922V284.999H208.84C208.781 285.106 208.696 285.228 208.585 285.365C208.476 285.503 208.325 285.623 208.133 285.726C207.941 285.828 207.692 285.879 207.387 285.879ZM207.603 285.045C207.884 285.045 208.122 284.97 208.316 284.822C208.513 284.671 208.661 284.463 208.762 284.197C208.864 283.931 208.915 283.621 208.915 283.267C208.915 282.918 208.865 282.612 208.765 282.35C208.664 282.089 208.517 281.884 208.323 281.738C208.129 281.592 207.889 281.519 207.603 281.519C207.308 281.519 207.063 281.595 206.866 281.748C206.67 281.901 206.521 282.109 206.421 282.373C206.323 282.637 206.274 282.935 206.274 283.267C206.274 283.603 206.324 283.905 206.424 284.174C206.525 284.442 206.673 284.655 206.869 284.812C207.068 284.967 207.312 285.045 207.603 285.045ZM213.522 285.883C213.027 285.883 212.6 285.777 212.242 285.565C211.886 285.351 211.611 285.051 211.417 284.665C211.225 284.276 211.129 283.821 211.129 283.3C211.129 282.785 211.225 282.331 211.417 281.938C211.611 281.545 211.882 281.238 212.229 281.018C212.578 280.798 212.986 280.687 213.453 280.687C213.737 280.687 214.012 280.734 214.278 280.828C214.545 280.922 214.784 281.069 214.995 281.27C215.207 281.471 215.374 281.732 215.496 282.053C215.618 282.371 215.68 282.759 215.68 283.215V283.562H211.682V282.828H214.72C214.72 282.571 214.668 282.343 214.563 282.144C214.458 281.943 214.311 281.785 214.121 281.669C213.934 281.554 213.713 281.496 213.46 281.496C213.185 281.496 212.945 281.564 212.74 281.699C212.537 281.832 212.38 282.007 212.268 282.223C212.159 282.437 212.105 282.669 212.105 282.92V283.493C212.105 283.829 212.164 284.115 212.281 284.351C212.401 284.586 212.568 284.766 212.782 284.891C212.996 285.013 213.246 285.074 213.532 285.074C213.718 285.074 213.887 285.048 214.039 284.996C214.192 284.941 214.324 284.86 214.436 284.753C214.547 284.646 214.632 284.514 214.691 284.357L215.617 284.524C215.543 284.797 215.41 285.036 215.218 285.241C215.028 285.444 214.789 285.602 214.501 285.716C214.215 285.827 213.889 285.883 213.522 285.883ZM219.193 280.753V281.539H216.446V280.753H219.193ZM217.183 279.548H218.162V284.305C218.162 284.495 218.19 284.638 218.247 284.734C218.303 284.828 218.377 284.892 218.466 284.927C218.558 284.96 218.657 284.976 218.764 284.976C218.843 284.976 218.911 284.97 218.97 284.96C219.029 284.949 219.075 284.94 219.108 284.933L219.285 285.742C219.228 285.764 219.147 285.786 219.042 285.807C218.937 285.831 218.807 285.845 218.649 285.847C218.392 285.851 218.152 285.805 217.929 285.709C217.707 285.613 217.527 285.465 217.389 285.264C217.252 285.063 217.183 284.811 217.183 284.508V279.548ZM221.819 285.893C221.5 285.893 221.212 285.834 220.955 285.716C220.697 285.596 220.493 285.422 220.343 285.195C220.194 284.968 220.12 284.69 220.12 284.36C220.12 284.077 220.174 283.843 220.284 283.66C220.393 283.477 220.54 283.331 220.726 283.224C220.911 283.118 221.118 283.037 221.348 282.982C221.577 282.928 221.81 282.886 222.048 282.858C222.349 282.823 222.594 282.795 222.781 282.773C222.969 282.749 223.106 282.711 223.191 282.658C223.276 282.606 223.318 282.521 223.318 282.403V282.38C223.318 282.094 223.238 281.872 223.076 281.715C222.917 281.558 222.679 281.48 222.362 281.48C222.033 281.48 221.773 281.553 221.583 281.699C221.396 281.843 221.266 282.003 221.194 282.18L220.274 281.971C220.383 281.665 220.542 281.418 220.752 281.231C220.963 281.041 221.207 280.903 221.482 280.818C221.757 280.731 222.046 280.687 222.349 280.687C222.55 280.687 222.763 280.711 222.988 280.759C223.215 280.805 223.426 280.89 223.623 281.015C223.821 281.139 223.984 281.317 224.111 281.548C224.237 281.778 224.3 282.075 224.3 282.442V285.781H223.345V285.094H223.305C223.242 285.22 223.147 285.345 223.02 285.467C222.894 285.589 222.731 285.691 222.533 285.771C222.334 285.852 222.096 285.893 221.819 285.893ZM222.032 285.107C222.302 285.107 222.534 285.053 222.726 284.946C222.92 284.84 223.067 284.7 223.168 284.527C223.27 284.353 223.322 284.166 223.322 283.968V283.319C223.287 283.354 223.219 283.387 223.119 283.418C223.02 283.446 222.908 283.471 222.781 283.493C222.655 283.513 222.532 283.531 222.412 283.549C222.291 283.564 222.191 283.577 222.11 283.588C221.92 283.612 221.747 283.652 221.59 283.709C221.435 283.766 221.31 283.848 221.217 283.955C221.125 284.059 221.079 284.199 221.079 284.374C221.079 284.616 221.169 284.799 221.348 284.924C221.527 285.046 221.755 285.107 222.032 285.107ZM225.684 285.781V280.753H226.663V285.781H225.684ZM226.179 279.977C226.008 279.977 225.862 279.92 225.74 279.807C225.62 279.691 225.56 279.554 225.56 279.394C225.56 279.233 225.62 279.095 225.74 278.982C225.862 278.866 226.008 278.808 226.179 278.808C226.349 278.808 226.494 278.866 226.614 278.982C226.736 279.095 226.797 279.233 226.797 279.394C226.797 279.554 226.736 279.691 226.614 279.807C226.494 279.92 226.349 279.977 226.179 279.977ZM229.039 279.077V285.781H228.06V279.077H229.039ZM234.204 281.98L233.316 282.138C233.279 282.024 233.22 281.916 233.14 281.814C233.061 281.711 232.954 281.627 232.819 281.561C232.683 281.496 232.514 281.463 232.311 281.463C232.034 281.463 231.803 281.525 231.617 281.65C231.432 281.772 231.339 281.93 231.339 282.125C231.339 282.293 231.401 282.428 231.526 282.53C231.65 282.633 231.851 282.717 232.128 282.783L232.927 282.966C233.39 283.073 233.734 283.238 233.961 283.46C234.188 283.683 234.302 283.972 234.302 284.328C234.302 284.629 234.214 284.897 234.04 285.133C233.867 285.367 233.626 285.55 233.316 285.683C233.009 285.816 232.652 285.883 232.246 285.883C231.683 285.883 231.223 285.763 230.868 285.523C230.512 285.28 230.294 284.937 230.213 284.491L231.159 284.347C231.218 284.594 231.339 284.781 231.522 284.907C231.706 285.032 231.945 285.094 232.239 285.094C232.56 285.094 232.817 285.027 233.009 284.894C233.201 284.759 233.297 284.594 233.297 284.4C233.297 284.243 233.238 284.111 233.12 284.004C233.004 283.897 232.826 283.816 232.586 283.761L231.735 283.575C231.266 283.468 230.919 283.298 230.694 283.064C230.472 282.831 230.36 282.535 230.36 282.177C230.36 281.88 230.443 281.62 230.609 281.398C230.775 281.175 231.004 281.002 231.297 280.877C231.589 280.751 231.924 280.687 232.302 280.687C232.845 280.687 233.273 280.805 233.585 281.041C233.897 281.274 234.103 281.588 234.204 281.98Z" fill="#727F96"/>
<g clip-path="url(#clip3_4003_1385)">
<path fill-rule="evenodd" clip-rule="evenodd" d="M239.538 280.561C239.451 280.47 239.403 280.349 239.404 280.223C239.406 280.097 239.457 279.976 239.546 279.887C239.635 279.798 239.756 279.747 239.882 279.746C240.008 279.745 240.129 279.793 240.22 279.88L243.255 282.916C243.345 283.007 243.396 283.129 243.396 283.256C243.396 283.384 243.345 283.506 243.255 283.596L240.22 286.632C240.13 286.723 240.007 286.774 239.879 286.774C239.751 286.774 239.629 286.723 239.538 286.632C239.448 286.542 239.397 286.419 239.397 286.291C239.397 286.164 239.448 286.041 239.538 285.95L242.23 283.255L239.538 280.561Z" fill="#727F96"/>
</g>
</g>
</g>
<g opacity="0.3">
<path d="M0 0.800781H500V330.131C500 332.34 498.209 334.131 496 334.131H4.00001C1.79087 334.131 0 332.34 0 330.131V0.800781Z" fill="url(#paint0_linear_4003_1385)"/>
</g>
</g>
<defs>
<linearGradient id="paint0_linear_4003_1385" x1="250" y1="0.800781" x2="250" y2="334.131" gradientUnits="userSpaceOnUse">
<stop stop-color="#BEC9DC" stop-opacity="0"/>
<stop offset="1" stop-color="#BEC9DC" stop-opacity="0.4"/>
</linearGradient>
<clipPath id="clip0_4003_1385">
<rect y="0.800781" width="500" height="333.33" rx="4" fill="white"/>
</clipPath>
<clipPath id="clip1_4003_1385">
<rect y="0.800781" width="500" height="333.33" rx="4" fill="white"/>
</clipPath>
<clipPath id="clip2_4003_1385">
<rect width="500" height="333.33" fill="white" transform="translate(0 50.7812)"/>
</clipPath>
<clipPath id="clip3_4003_1385">
<rect width="5" height="8" fill="white" transform="translate(239 279.281)"/>
</clipPath>
</defs>
</svg>
