<svg width="500" height="335" viewBox="0 0 500 335" fill="none" xmlns="http://www.w3.org/2000/svg">
<g clip-path="url(#clip0_4003_1133)">
<rect y="0.800781" width="500" height="333.33" rx="4" fill="#F6F9FC"/>
<g clip-path="url(#clip1_4003_1133)">
<g clip-path="url(#clip2_4003_1133)">
<g clip-path="url(#clip3_4003_1133)">
<rect x="70" y="67.4512" width="460" height="363" rx="8" fill="white"/>
<rect width="460" height="363" transform="translate(70 67.4512)" fill="white"/>
<path d="M108.958 107.451V98.7353H114.422V99.8673H110.273V102.523H114.137V103.651H110.273V106.319H114.473V107.451H108.958ZM116.276 107.451V100.914H117.498V101.978H117.579C117.715 101.618 117.938 101.337 118.247 101.136C118.556 100.931 118.926 100.829 119.358 100.829C119.795 100.829 120.161 100.931 120.456 101.136C120.754 101.34 120.973 101.621 121.115 101.978H121.183C121.339 101.629 121.588 101.351 121.928 101.144C122.269 100.934 122.674 100.829 123.145 100.829C123.738 100.829 124.222 101.015 124.597 101.387C124.974 101.758 125.163 102.319 125.163 103.068V107.451H123.89V103.187C123.89 102.744 123.77 102.424 123.528 102.225C123.287 102.026 122.999 101.927 122.664 101.927C122.25 101.927 121.928 102.055 121.698 102.31C121.469 102.563 121.354 102.888 121.354 103.285V107.451H120.085V103.106C120.085 102.751 119.975 102.466 119.753 102.251C119.532 102.035 119.244 101.927 118.89 101.927C118.648 101.927 118.426 101.991 118.221 102.119C118.02 102.243 117.857 102.418 117.732 102.642C117.61 102.866 117.549 103.126 117.549 103.421V107.451H116.276ZM128.97 107.596C128.556 107.596 128.182 107.519 127.847 107.366C127.512 107.21 127.247 106.984 127.051 106.689C126.858 106.394 126.762 106.033 126.762 105.604C126.762 105.235 126.833 104.932 126.975 104.693C127.116 104.455 127.308 104.266 127.549 104.127C127.79 103.988 128.06 103.883 128.358 103.812C128.656 103.742 128.959 103.688 129.268 103.651C129.66 103.605 129.978 103.568 130.222 103.54C130.466 103.509 130.643 103.459 130.754 103.391C130.864 103.323 130.92 103.212 130.92 103.059V103.029C130.92 102.658 130.815 102.37 130.605 102.165C130.398 101.961 130.088 101.859 129.677 101.859C129.249 101.859 128.911 101.954 128.664 102.144C128.42 102.331 128.251 102.54 128.158 102.77L126.962 102.497C127.104 102.1 127.311 101.78 127.583 101.536C127.858 101.289 128.175 101.11 128.532 100.999C128.89 100.886 129.266 100.829 129.66 100.829C129.921 100.829 130.198 100.86 130.49 100.923C130.785 100.982 131.06 101.093 131.315 101.255C131.574 101.416 131.785 101.648 131.95 101.948C132.114 102.246 132.196 102.634 132.196 103.11V107.451H130.954V106.557H130.903C130.82 106.722 130.697 106.884 130.532 107.043C130.368 107.201 130.156 107.333 129.898 107.438C129.64 107.543 129.331 107.596 128.97 107.596ZM129.247 106.574C129.599 106.574 129.9 106.505 130.149 106.366C130.402 106.227 130.593 106.045 130.724 105.821C130.857 105.594 130.924 105.352 130.924 105.093V104.251C130.879 104.296 130.791 104.339 130.66 104.378C130.532 104.415 130.386 104.448 130.222 104.476C130.057 104.502 129.897 104.526 129.741 104.549C129.585 104.569 129.454 104.586 129.349 104.6C129.102 104.631 128.877 104.683 128.673 104.757C128.471 104.831 128.309 104.937 128.187 105.076C128.068 105.213 128.009 105.394 128.009 105.621C128.009 105.936 128.125 106.174 128.358 106.336C128.59 106.495 128.887 106.574 129.247 106.574ZM134.091 107.451V100.914H135.364V107.451H134.091ZM134.734 99.9056C134.513 99.9056 134.323 99.8318 134.164 99.6843C134.008 99.5339 133.93 99.3552 133.93 99.1481C133.93 98.9381 134.008 98.7594 134.164 98.6118C134.323 98.4615 134.513 98.3863 134.734 98.3863C134.955 98.3863 135.144 98.4615 135.3 98.6118C135.459 98.7594 135.538 98.9381 135.538 99.1481C135.538 99.3552 135.459 99.5339 135.3 99.6843C135.144 99.8318 134.955 99.9056 134.734 99.9056ZM138.548 98.7353V107.451H137.276V98.7353H138.548Z" fill="#0A2540"/>
<rect x="108.5" y="117.951" width="383" height="39" rx="5.5" fill="white"/>
<rect x="108.5" y="117.951" width="383" height="39" rx="5.5" stroke="#E6EBF1"/>
<path d="M121.776 135.019H122.931V141.337C122.931 141.734 122.859 142.069 122.715 142.341C122.573 142.614 122.362 142.822 122.081 142.963C121.803 143.105 121.46 143.176 121.05 143.176C121.009 143.176 120.97 143.176 120.934 143.176C120.896 143.176 120.856 143.174 120.815 143.172V142.179C120.851 142.179 120.883 142.179 120.911 142.179C120.937 142.179 120.967 142.179 121 142.179C121.273 142.179 121.47 142.106 121.591 141.959C121.714 141.815 121.776 141.605 121.776 141.33V135.019ZM122.348 134.104C122.147 134.104 121.974 134.037 121.83 133.903C121.689 133.767 121.618 133.605 121.618 133.417C121.618 133.226 121.689 133.064 121.83 132.93C121.974 132.794 122.147 132.725 122.348 132.725C122.549 132.725 122.72 132.794 122.861 132.93C123.006 133.064 123.078 133.226 123.078 133.417C123.078 133.605 123.006 133.767 122.861 133.903C122.72 134.037 122.549 134.104 122.348 134.104ZM126.411 141.082C126.035 141.082 125.695 141.013 125.391 140.874C125.087 140.732 124.847 140.528 124.669 140.26C124.494 139.992 124.406 139.664 124.406 139.275C124.406 138.94 124.471 138.665 124.599 138.449C124.728 138.232 124.902 138.061 125.121 137.935C125.34 137.809 125.584 137.714 125.855 137.649C126.125 137.585 126.4 137.536 126.681 137.503C127.036 137.461 127.325 137.428 127.546 137.402C127.767 137.374 127.928 137.329 128.029 137.267C128.129 137.205 128.179 137.105 128.179 136.966V136.939C128.179 136.601 128.084 136.34 127.894 136.155C127.706 135.969 127.425 135.877 127.052 135.877C126.663 135.877 126.357 135.963 126.133 136.135C125.911 136.305 125.758 136.495 125.673 136.703L124.588 136.456C124.717 136.096 124.904 135.805 125.152 135.583C125.401 135.359 125.688 135.197 126.013 135.097C126.337 134.994 126.678 134.942 127.036 134.942C127.273 134.942 127.524 134.97 127.789 135.027C128.057 135.081 128.307 135.182 128.539 135.328C128.773 135.475 128.965 135.685 129.114 135.958C129.263 136.228 129.338 136.58 129.338 137.012V140.951H128.21V140.14H128.164C128.089 140.29 127.977 140.436 127.828 140.58C127.679 140.725 127.487 140.844 127.253 140.94C127.018 141.035 126.738 141.082 126.411 141.082ZM126.662 140.156C126.981 140.156 127.254 140.093 127.48 139.966C127.709 139.84 127.883 139.675 128.002 139.472C128.123 139.266 128.183 139.046 128.183 138.812V138.047C128.142 138.088 128.062 138.127 127.944 138.163C127.828 138.196 127.695 138.226 127.546 138.252C127.397 138.275 127.251 138.297 127.11 138.317C126.968 138.335 126.85 138.351 126.754 138.364C126.53 138.392 126.326 138.44 126.14 138.507C125.957 138.574 125.811 138.67 125.7 138.796C125.592 138.92 125.538 139.085 125.538 139.291C125.538 139.576 125.643 139.793 125.855 139.939C126.066 140.084 126.335 140.156 126.662 140.156ZM132.231 137.429V140.951H131.076V135.019H132.184V135.985H132.258C132.394 135.671 132.608 135.418 132.899 135.228C133.192 135.037 133.562 134.942 134.007 134.942C134.411 134.942 134.765 135.027 135.069 135.197C135.373 135.364 135.608 135.614 135.776 135.946C135.943 136.278 136.027 136.689 136.027 137.178V140.951H134.872V137.317C134.872 136.887 134.76 136.551 134.536 136.309C134.312 136.065 134.004 135.942 133.613 135.942C133.345 135.942 133.107 136 132.899 136.116C132.693 136.232 132.529 136.402 132.408 136.626C132.29 136.847 132.231 137.115 132.231 137.429ZM140.332 141.071C139.748 141.071 139.244 140.946 138.822 140.696C138.402 140.444 138.078 140.09 137.849 139.634C137.622 139.176 137.509 138.639 137.509 138.024C137.509 137.416 137.622 136.881 137.849 136.417C138.078 135.954 138.397 135.592 138.807 135.332C139.218 135.072 139.7 134.942 140.251 134.942C140.586 134.942 140.91 134.997 141.224 135.108C141.538 135.219 141.82 135.393 142.07 135.63C142.32 135.866 142.516 136.174 142.661 136.553C142.805 136.928 142.877 137.385 142.877 137.923V138.333H138.162V137.468H141.745C141.745 137.164 141.684 136.895 141.56 136.661C141.436 136.424 141.263 136.237 141.039 136.101C140.817 135.964 140.557 135.896 140.259 135.896C139.934 135.896 139.651 135.976 139.409 136.135C139.17 136.292 138.984 136.498 138.853 136.753C138.724 137.006 138.66 137.28 138.66 137.576V138.252C138.66 138.648 138.729 138.985 138.868 139.264C139.01 139.542 139.207 139.754 139.459 139.901C139.711 140.045 140.006 140.117 140.344 140.117C140.562 140.117 140.762 140.086 140.942 140.024C141.122 139.96 141.278 139.865 141.409 139.739C141.541 139.612 141.641 139.457 141.711 139.271L142.804 139.468C142.716 139.79 142.559 140.072 142.332 140.314C142.108 140.553 141.826 140.74 141.487 140.874C141.149 141.005 140.764 141.071 140.332 141.071ZM145.119 141.025C144.908 141.025 144.726 140.95 144.574 140.801C144.422 140.649 144.347 140.466 144.347 140.252C144.347 140.041 144.422 139.861 144.574 139.712C144.726 139.56 144.908 139.484 145.119 139.484C145.33 139.484 145.512 139.56 145.663 139.712C145.815 139.861 145.891 140.041 145.891 140.252C145.891 140.394 145.855 140.524 145.783 140.642C145.714 140.758 145.621 140.851 145.505 140.92C145.389 140.99 145.26 141.025 145.119 141.025ZM149.858 141.067C149.38 141.067 148.952 140.945 148.576 140.7C148.203 140.453 147.91 140.102 147.696 139.646C147.485 139.188 147.379 138.638 147.379 137.997C147.379 137.356 147.486 136.807 147.7 136.352C147.916 135.896 148.212 135.547 148.588 135.305C148.964 135.063 149.39 134.942 149.866 134.942C150.234 134.942 150.53 135.004 150.754 135.127C150.981 135.248 151.156 135.39 151.28 135.552C151.406 135.714 151.504 135.857 151.573 135.981H151.643V133.042H152.797V140.951H151.67V140.028H151.573C151.504 140.154 151.403 140.299 151.272 140.461C151.143 140.623 150.966 140.765 150.739 140.886C150.512 141.007 150.219 141.067 149.858 141.067ZM150.113 140.082C150.446 140.082 150.726 139.995 150.955 139.82C151.187 139.642 151.362 139.396 151.48 139.082C151.601 138.768 151.662 138.402 151.662 137.985C151.662 137.573 151.603 137.213 151.484 136.904C151.366 136.595 151.192 136.354 150.963 136.182C150.734 136.009 150.451 135.923 150.113 135.923C149.766 135.923 149.476 136.013 149.244 136.193C149.013 136.374 148.838 136.619 148.719 136.931C148.603 137.242 148.545 137.594 148.545 137.985C148.545 138.382 148.605 138.738 148.723 139.055C148.842 139.372 149.017 139.623 149.248 139.808C149.483 139.991 149.771 140.082 150.113 140.082ZM154.645 140.951V135.019H155.8V140.951H154.645ZM155.229 134.104C155.028 134.104 154.855 134.037 154.711 133.903C154.569 133.767 154.499 133.605 154.499 133.417C154.499 133.226 154.569 133.064 154.711 132.93C154.855 132.794 155.028 132.725 155.229 132.725C155.429 132.725 155.601 132.794 155.742 132.93C155.886 133.064 155.958 133.226 155.958 133.417C155.958 133.605 155.886 133.767 155.742 133.903C155.601 134.037 155.429 134.104 155.229 134.104ZM159.28 141.082C158.904 141.082 158.564 141.013 158.26 140.874C157.956 140.732 157.716 140.528 157.538 140.26C157.363 139.992 157.276 139.664 157.276 139.275C157.276 138.94 157.34 138.665 157.469 138.449C157.597 138.232 157.771 138.061 157.99 137.935C158.209 137.809 158.453 137.714 158.724 137.649C158.994 137.585 159.27 137.536 159.55 137.503C159.905 137.461 160.194 137.428 160.415 137.402C160.637 137.374 160.798 137.329 160.898 137.267C160.998 137.205 161.049 137.105 161.049 136.966V136.939C161.049 136.601 160.953 136.34 160.763 136.155C160.575 135.969 160.294 135.877 159.921 135.877C159.532 135.877 159.226 135.963 159.002 136.135C158.78 136.305 158.627 136.495 158.542 136.703L157.457 136.456C157.586 136.096 157.774 135.805 158.021 135.583C158.271 135.359 158.558 135.197 158.882 135.097C159.206 134.994 159.548 134.942 159.905 134.942C160.142 134.942 160.393 134.97 160.658 135.027C160.926 135.081 161.176 135.182 161.408 135.328C161.642 135.475 161.834 135.685 161.983 135.958C162.132 136.228 162.207 136.58 162.207 137.012V140.951H161.079V140.14H161.033C160.958 140.29 160.846 140.436 160.697 140.58C160.548 140.725 160.356 140.844 160.122 140.94C159.887 141.035 159.607 141.082 159.28 141.082ZM159.531 140.156C159.85 140.156 160.123 140.093 160.35 139.966C160.579 139.84 160.752 139.675 160.871 139.472C160.992 139.266 161.052 139.046 161.052 138.812V138.047C161.011 138.088 160.931 138.127 160.813 138.163C160.697 138.196 160.565 138.226 160.415 138.252C160.266 138.275 160.12 138.297 159.979 138.317C159.837 138.335 159.719 138.351 159.624 138.364C159.4 138.392 159.195 138.44 159.009 138.507C158.827 138.574 158.68 138.67 158.569 138.796C158.461 138.92 158.407 139.085 158.407 139.291C158.407 139.576 158.513 139.793 158.724 139.939C158.935 140.084 159.204 140.156 159.531 140.156ZM163.822 140.951V140.159L167.035 136.078V136.023H163.926V135.019H168.475V135.861L165.386 139.893V139.947H168.583V140.951H163.822ZM174.907 143.102C174.109 143.102 173.401 142.993 172.783 142.774C172.168 142.558 171.649 142.238 171.227 141.816C170.805 141.397 170.484 140.882 170.265 140.271C170.046 139.661 169.937 138.965 169.937 138.182C169.937 137.42 170.048 136.735 170.269 136.128C170.49 135.52 170.812 135.003 171.234 134.575C171.659 134.145 172.175 133.817 172.783 133.59C173.391 133.364 174.081 133.251 174.853 133.251C175.592 133.251 176.243 133.366 176.807 133.598C177.371 133.83 177.845 134.148 178.228 134.552C178.615 134.956 178.905 135.42 179.101 135.942C179.297 136.465 179.395 137.017 179.395 137.599C179.395 138.006 179.369 138.404 179.317 138.792C179.266 139.179 179.171 139.529 179.032 139.843C178.895 140.154 178.697 140.404 178.437 140.592C178.179 140.777 177.845 140.874 177.433 140.882C177.214 140.889 177.002 140.864 176.796 140.804C176.59 140.745 176.415 140.65 176.27 140.519C176.126 140.385 176.039 140.215 176.008 140.009H175.961C175.9 140.161 175.797 140.302 175.652 140.434C175.508 140.562 175.324 140.665 175.1 140.743C174.879 140.817 174.621 140.848 174.328 140.835C174.003 140.822 173.711 140.749 173.451 140.615C173.191 140.481 172.968 140.296 172.783 140.059C172.6 139.822 172.46 139.542 172.362 139.217C172.264 138.893 172.215 138.532 172.215 138.136C172.215 137.755 172.271 137.414 172.381 137.112C172.492 136.809 172.643 136.547 172.833 136.329C173.026 136.107 173.248 135.932 173.498 135.803C173.747 135.675 174.011 135.593 174.289 135.56C174.56 135.529 174.808 135.537 175.035 135.583C175.261 135.63 175.449 135.7 175.598 135.796C175.75 135.891 175.846 135.995 175.884 136.108H175.934V135.676H176.884V139.26C176.884 139.463 176.937 139.636 177.043 139.777C177.151 139.919 177.304 139.99 177.502 139.99C177.737 139.99 177.919 139.903 178.051 139.731C178.185 139.558 178.279 139.293 178.333 138.935C178.389 138.577 178.418 138.119 178.418 137.56C178.418 137.169 178.365 136.801 178.259 136.456C178.156 136.108 178.003 135.794 177.8 135.514C177.599 135.23 177.352 134.987 177.058 134.784C176.765 134.58 176.43 134.423 176.054 134.313C175.681 134.202 175.268 134.147 174.814 134.147C174.199 134.147 173.652 134.242 173.173 134.432C172.694 134.62 172.29 134.892 171.961 135.247C171.634 135.602 171.385 136.029 171.215 136.525C171.048 137.02 170.964 137.575 170.964 138.19C170.964 138.831 171.05 139.4 171.223 139.897C171.395 140.391 171.65 140.808 171.988 141.148C172.325 141.488 172.742 141.745 173.239 141.92C173.736 142.098 174.309 142.187 174.957 142.187C175.246 142.187 175.529 142.161 175.807 142.11C176.085 142.061 176.332 142.004 176.548 141.94C176.767 141.878 176.931 141.828 177.039 141.789L177.309 142.635C177.15 142.71 176.937 142.783 176.672 142.855C176.409 142.927 176.124 142.986 175.815 143.033C175.508 143.079 175.206 143.102 174.907 143.102ZM174.552 139.889C174.887 139.889 175.156 139.822 175.359 139.688C175.565 139.554 175.713 139.355 175.803 139.09C175.896 138.822 175.942 138.487 175.942 138.086C175.94 137.694 175.889 137.383 175.791 137.151C175.696 136.917 175.547 136.749 175.344 136.649C175.143 136.546 174.884 136.495 174.567 136.495C174.276 136.495 174.028 136.565 173.822 136.707C173.619 136.849 173.463 137.04 173.355 137.282C173.249 137.524 173.195 137.793 173.192 138.09C173.195 138.401 173.239 138.695 173.324 138.97C173.411 139.243 173.553 139.464 173.749 139.634C173.947 139.804 174.215 139.889 174.552 139.889ZM183.427 141.071C182.842 141.071 182.339 140.946 181.917 140.696C181.497 140.444 181.172 140.09 180.943 139.634C180.717 139.176 180.604 138.639 180.604 138.024C180.604 137.416 180.717 136.881 180.943 136.417C181.172 135.954 181.492 135.592 181.901 135.332C182.313 135.072 182.794 134.942 183.345 134.942C183.68 134.942 184.005 134.997 184.319 135.108C184.633 135.219 184.915 135.393 185.164 135.63C185.414 135.866 185.611 136.174 185.755 136.553C185.899 136.928 185.972 137.385 185.972 137.923V138.333H181.256V137.468H184.84C184.84 137.164 184.778 136.895 184.655 136.661C184.531 136.424 184.357 136.237 184.133 136.101C183.912 135.964 183.652 135.896 183.353 135.896C183.029 135.896 182.746 135.976 182.504 136.135C182.264 136.292 182.079 136.498 181.947 136.753C181.819 137.006 181.754 137.28 181.754 137.576V138.252C181.754 138.648 181.824 138.985 181.963 139.264C182.104 139.542 182.301 139.754 182.554 139.901C182.806 140.045 183.101 140.117 183.438 140.117C183.657 140.117 183.856 140.086 184.037 140.024C184.217 139.96 184.373 139.865 184.504 139.739C184.635 139.612 184.736 139.457 184.805 139.271L185.898 139.468C185.811 139.79 185.654 140.072 185.427 140.314C185.203 140.553 184.921 140.74 184.581 140.874C184.244 141.005 183.859 141.071 183.427 141.071ZM188.226 135.019L189.535 137.329L190.856 135.019H192.119L190.269 137.985L192.134 140.951H190.871L189.535 138.734L188.203 140.951H186.936L188.782 137.985L186.959 135.019H188.226ZM195.22 141.082C194.844 141.082 194.504 141.013 194.2 140.874C193.897 140.732 193.656 140.528 193.478 140.26C193.303 139.992 193.216 139.664 193.216 139.275C193.216 138.94 193.28 138.665 193.409 138.449C193.538 138.232 193.711 138.061 193.93 137.935C194.149 137.809 194.394 137.714 194.664 137.649C194.934 137.585 195.21 137.536 195.49 137.503C195.846 137.461 196.134 137.428 196.355 137.402C196.577 137.374 196.738 137.329 196.838 137.267C196.939 137.205 196.989 137.105 196.989 136.966V136.939C196.989 136.601 196.893 136.34 196.703 136.155C196.515 135.969 196.234 135.877 195.861 135.877C195.472 135.877 195.166 135.963 194.942 136.135C194.721 136.305 194.567 136.495 194.482 136.703L193.397 136.456C193.526 136.096 193.714 135.805 193.961 135.583C194.211 135.359 194.498 135.197 194.822 135.097C195.147 134.994 195.488 134.942 195.846 134.942C196.082 134.942 196.333 134.97 196.599 135.027C196.866 135.081 197.116 135.182 197.348 135.328C197.582 135.475 197.774 135.685 197.923 135.958C198.073 136.228 198.147 136.58 198.147 137.012V140.951H197.02V140.14H196.973C196.899 140.29 196.787 140.436 196.637 140.58C196.488 140.725 196.296 140.844 196.062 140.94C195.828 141.035 195.547 141.082 195.22 141.082ZM195.471 140.156C195.79 140.156 196.063 140.093 196.29 139.966C196.519 139.84 196.693 139.675 196.811 139.472C196.932 139.266 196.993 139.046 196.993 138.812V138.047C196.951 138.088 196.872 138.127 196.753 138.163C196.637 138.196 196.505 138.226 196.355 138.252C196.206 138.275 196.061 138.297 195.919 138.317C195.777 138.335 195.659 138.351 195.564 138.364C195.34 138.392 195.135 138.44 194.95 138.507C194.767 138.574 194.62 138.67 194.509 138.796C194.401 138.92 194.347 139.085 194.347 139.291C194.347 139.576 194.453 139.793 194.664 139.939C194.875 140.084 195.144 140.156 195.471 140.156ZM199.885 140.951V135.019H200.994V135.985H201.067C201.191 135.658 201.393 135.403 201.673 135.22C201.954 135.035 202.29 134.942 202.681 134.942C203.078 134.942 203.41 135.035 203.678 135.22C203.948 135.406 204.147 135.66 204.276 135.985H204.338C204.48 135.668 204.705 135.416 205.014 135.228C205.323 135.037 205.691 134.942 206.118 134.942C206.656 134.942 207.095 135.111 207.435 135.448C207.778 135.785 207.949 136.294 207.949 136.973V140.951H206.794V137.082C206.794 136.68 206.685 136.389 206.466 136.209C206.247 136.029 205.986 135.938 205.682 135.938C205.306 135.938 205.014 136.054 204.805 136.286C204.597 136.515 204.492 136.81 204.492 137.17V140.951H203.342V137.008C203.342 136.686 203.241 136.428 203.04 136.232C202.84 136.036 202.578 135.938 202.256 135.938C202.038 135.938 201.836 135.996 201.65 136.112C201.467 136.226 201.319 136.384 201.206 136.587C201.095 136.791 201.04 137.026 201.04 137.294V140.951H199.885ZM209.696 143.176V135.019H210.824V135.981H210.921C210.988 135.857 211.084 135.714 211.21 135.552C211.336 135.39 211.512 135.248 211.736 135.127C211.96 135.004 212.256 134.942 212.624 134.942C213.103 134.942 213.53 135.063 213.906 135.305C214.282 135.547 214.577 135.896 214.79 136.352C215.007 136.807 215.115 137.356 215.115 137.997C215.115 138.638 215.008 139.188 214.794 139.646C214.58 140.102 214.287 140.453 213.914 140.7C213.54 140.945 213.114 141.067 212.635 141.067C212.275 141.067 211.98 141.007 211.751 140.886C211.524 140.765 211.347 140.623 211.218 140.461C211.089 140.299 210.99 140.154 210.921 140.028H210.851V143.176H209.696ZM210.828 137.985C210.828 138.402 210.889 138.768 211.01 139.082C211.131 139.396 211.306 139.642 211.535 139.82C211.764 139.995 212.044 140.082 212.377 140.082C212.722 140.082 213.01 139.991 213.242 139.808C213.473 139.623 213.648 139.372 213.767 139.055C213.888 138.738 213.948 138.382 213.948 137.985C213.948 137.594 213.889 137.242 213.771 136.931C213.655 136.619 213.48 136.374 213.246 136.193C213.014 136.013 212.724 135.923 212.377 135.923C212.042 135.923 211.759 136.009 211.527 136.182C211.298 136.354 211.124 136.595 211.006 136.904C210.887 137.213 210.828 137.573 210.828 137.985ZM217.763 133.042V140.951H216.608V133.042H217.763ZM222.073 141.071C221.489 141.071 220.985 140.946 220.563 140.696C220.143 140.444 219.819 140.09 219.59 139.634C219.363 139.176 219.25 138.639 219.25 138.024C219.25 137.416 219.363 136.881 219.59 136.417C219.819 135.954 220.138 135.592 220.548 135.332C220.96 135.072 221.441 134.942 221.992 134.942C222.327 134.942 222.651 134.997 222.965 135.108C223.279 135.219 223.561 135.393 223.811 135.63C224.061 135.866 224.258 136.174 224.402 136.553C224.546 136.928 224.618 137.385 224.618 137.923V138.333H219.903V137.468H223.487C223.487 137.164 223.425 136.895 223.301 136.661C223.178 136.424 223.004 136.237 222.78 136.101C222.558 135.964 222.298 135.896 222 135.896C221.675 135.896 221.392 135.976 221.15 136.135C220.911 136.292 220.725 136.498 220.594 136.753C220.465 137.006 220.401 137.28 220.401 137.576V138.252C220.401 138.648 220.47 138.985 220.609 139.264C220.751 139.542 220.948 139.754 221.2 139.901C221.453 140.045 221.747 140.117 222.085 140.117C222.303 140.117 222.503 140.086 222.683 140.024C222.863 139.96 223.019 139.865 223.151 139.739C223.282 139.612 223.382 139.457 223.452 139.271L224.545 139.468C224.457 139.79 224.3 140.072 224.074 140.314C223.85 140.553 223.568 140.74 223.228 140.874C222.89 141.005 222.506 141.071 222.073 141.071ZM226.86 141.025C226.649 141.025 226.467 140.95 226.315 140.801C226.164 140.649 226.088 140.466 226.088 140.252C226.088 140.041 226.164 139.861 226.315 139.712C226.467 139.56 226.649 139.484 226.86 139.484C227.071 139.484 227.253 139.56 227.405 139.712C227.556 139.861 227.632 140.041 227.632 140.252C227.632 140.394 227.596 140.524 227.524 140.642C227.455 140.758 227.362 140.851 227.246 140.92C227.13 140.99 227.002 141.025 226.86 141.025ZM231.878 141.071C231.304 141.071 230.809 140.941 230.395 140.681C229.983 140.418 229.666 140.057 229.445 139.596C229.223 139.135 229.113 138.607 229.113 138.012C229.113 137.41 229.226 136.878 229.452 136.417C229.679 135.954 229.998 135.592 230.41 135.332C230.822 135.072 231.307 134.942 231.866 134.942C232.317 134.942 232.718 135.026 233.071 135.193C233.424 135.358 233.708 135.59 233.924 135.888C234.143 136.187 234.273 136.536 234.314 136.935H233.191C233.129 136.657 232.987 136.417 232.766 136.217C232.547 136.016 232.254 135.915 231.885 135.915C231.564 135.915 231.282 136 231.04 136.17C230.8 136.338 230.614 136.577 230.48 136.888C230.346 137.197 230.279 137.563 230.279 137.985C230.279 138.418 230.345 138.791 230.476 139.105C230.607 139.419 230.792 139.663 231.032 139.835C231.274 140.008 231.558 140.094 231.885 140.094C232.104 140.094 232.302 140.054 232.48 139.974C232.66 139.892 232.811 139.775 232.932 139.623C233.056 139.471 233.142 139.288 233.191 139.074H234.314C234.273 139.458 234.148 139.8 233.94 140.102C233.731 140.403 233.452 140.64 233.102 140.812C232.754 140.985 232.346 141.071 231.878 141.071ZM238.248 141.071C237.692 141.071 237.207 140.943 236.792 140.689C236.378 140.434 236.056 140.077 235.827 139.619C235.597 139.161 235.483 138.625 235.483 138.012C235.483 137.397 235.597 136.859 235.827 136.398C236.056 135.937 236.378 135.579 236.792 135.324C237.207 135.07 237.692 134.942 238.248 134.942C238.804 134.942 239.289 135.07 239.704 135.324C240.118 135.579 240.44 135.937 240.669 136.398C240.898 136.859 241.013 137.397 241.013 138.012C241.013 138.625 240.898 139.161 240.669 139.619C240.44 140.077 240.118 140.434 239.704 140.689C239.289 140.943 238.804 141.071 238.248 141.071ZM238.252 140.102C238.612 140.102 238.911 140.006 239.148 139.816C239.385 139.625 239.56 139.372 239.673 139.055C239.789 138.738 239.847 138.389 239.847 138.008C239.847 137.63 239.789 137.282 239.673 136.966C239.56 136.646 239.385 136.39 239.148 136.197C238.911 136.004 238.612 135.908 238.252 135.908C237.889 135.908 237.588 136.004 237.348 136.197C237.111 136.39 236.935 136.646 236.819 136.966C236.706 137.282 236.649 137.63 236.649 138.008C236.649 138.389 236.706 138.738 236.819 139.055C236.935 139.372 237.111 139.625 237.348 139.816C237.588 140.006 237.889 140.102 238.252 140.102ZM242.502 140.951V135.019H243.61V135.985H243.684C243.807 135.658 244.009 135.403 244.29 135.22C244.571 135.035 244.907 134.942 245.298 134.942C245.694 134.942 246.027 135.035 246.294 135.22C246.565 135.406 246.764 135.66 246.893 135.985H246.955C247.096 135.668 247.322 135.416 247.63 135.228C247.939 135.037 248.308 134.942 248.735 134.942C249.273 134.942 249.712 135.111 250.052 135.448C250.394 135.785 250.566 136.294 250.566 136.973V140.951H249.411V137.082C249.411 136.68 249.301 136.389 249.083 136.209C248.864 136.029 248.602 135.938 248.299 135.938C247.923 135.938 247.63 136.054 247.422 136.286C247.213 136.515 247.109 136.81 247.109 137.17V140.951H245.958V137.008C245.958 136.686 245.858 136.428 245.657 136.232C245.456 136.036 245.195 135.938 244.873 135.938C244.654 135.938 244.452 135.996 244.267 136.112C244.084 136.226 243.936 136.384 243.823 136.587C243.712 136.791 243.657 137.026 243.657 137.294V140.951H242.502Z" fill="#425466"/>
<path d="M115.988 183.719H114.694C114.644 183.443 114.552 183.199 114.416 182.989C114.281 182.779 114.115 182.601 113.919 182.454C113.722 182.308 113.503 182.197 113.259 182.122C113.019 182.048 112.763 182.01 112.492 182.01C112.002 182.01 111.564 182.133 111.177 182.379C110.793 182.626 110.489 182.986 110.265 183.462C110.043 183.938 109.933 184.518 109.933 185.204C109.933 185.895 110.043 186.479 110.265 186.954C110.489 187.43 110.794 187.789 111.181 188.033C111.568 188.276 112.004 188.398 112.488 188.398C112.756 188.398 113.01 188.362 113.251 188.29C113.494 188.215 113.714 188.106 113.91 187.962C114.107 187.818 114.273 187.643 114.408 187.435C114.546 187.225 114.642 186.985 114.694 186.714L115.988 186.718C115.919 187.135 115.785 187.52 115.586 187.871C115.39 188.219 115.137 188.521 114.827 188.775C114.52 189.027 114.169 189.222 113.773 189.36C113.378 189.498 112.947 189.567 112.479 189.567C111.744 189.567 111.089 189.393 110.513 189.045C109.938 188.694 109.485 188.192 109.153 187.539C108.824 186.887 108.659 186.108 108.659 185.204C108.659 184.297 108.825 183.519 109.157 182.869C109.489 182.216 109.942 181.716 110.518 181.367C111.093 181.016 111.747 180.841 112.479 180.841C112.93 180.841 113.35 180.906 113.74 181.036C114.133 181.163 114.485 181.351 114.798 181.6C115.11 181.846 115.369 182.147 115.574 182.504C115.778 182.858 115.916 183.263 115.988 183.719ZM119.476 189.592C119.073 189.592 118.708 189.518 118.381 189.368C118.055 189.216 117.797 188.996 117.606 188.709C117.418 188.421 117.324 188.069 117.324 187.651C117.324 187.292 117.393 186.996 117.531 186.764C117.669 186.531 117.856 186.347 118.091 186.212C118.326 186.076 118.589 185.974 118.879 185.905C119.169 185.836 119.465 185.783 119.767 185.747C120.148 185.703 120.458 185.667 120.696 185.64C120.934 185.609 121.106 185.561 121.214 185.494C121.322 185.428 121.376 185.32 121.376 185.171V185.142C121.376 184.78 121.274 184.499 121.069 184.3C120.867 184.101 120.566 184.001 120.165 184.001C119.747 184.001 119.418 184.094 119.178 184.279C118.94 184.462 118.775 184.665 118.684 184.889L117.519 184.623C117.657 184.236 117.859 183.924 118.124 183.686C118.392 183.445 118.701 183.271 119.049 183.163C119.398 183.053 119.764 182.997 120.148 182.997C120.403 182.997 120.672 183.028 120.957 183.089C121.245 183.147 121.513 183.255 121.762 183.412C122.013 183.57 122.219 183.795 122.38 184.088C122.54 184.379 122.62 184.756 122.62 185.221V189.451H121.409V188.58H121.359C121.279 188.741 121.159 188.898 120.999 189.053C120.838 189.208 120.632 189.336 120.381 189.439C120.129 189.541 119.827 189.592 119.476 189.592ZM119.746 188.597C120.089 188.597 120.382 188.529 120.625 188.394C120.871 188.258 121.058 188.081 121.185 187.863C121.315 187.641 121.38 187.405 121.38 187.153V186.332C121.336 186.376 121.25 186.418 121.123 186.457C120.999 186.493 120.856 186.524 120.696 186.552C120.535 186.577 120.379 186.6 120.227 186.622C120.075 186.642 119.948 186.658 119.845 186.672C119.605 186.703 119.385 186.754 119.186 186.826C118.99 186.898 118.832 187.001 118.713 187.137C118.597 187.27 118.539 187.446 118.539 187.668C118.539 187.975 118.652 188.207 118.879 188.364C119.106 188.519 119.395 188.597 119.746 188.597ZM124.472 189.451V183.08H125.671V184.092H125.737C125.853 183.75 126.058 183.48 126.351 183.284C126.647 183.085 126.981 182.985 127.355 182.985C127.432 182.985 127.523 182.988 127.628 182.993C127.736 182.999 127.821 183.006 127.881 183.014V184.2C127.832 184.186 127.743 184.171 127.616 184.155C127.489 184.135 127.362 184.126 127.234 184.126C126.941 184.126 126.68 184.188 126.45 184.312C126.224 184.434 126.044 184.604 125.911 184.822C125.779 185.038 125.712 185.284 125.712 185.561V189.451H124.472ZM131.311 189.576C130.797 189.576 130.338 189.444 129.934 189.182C129.533 188.916 129.218 188.539 128.989 188.049C128.762 187.557 128.649 186.967 128.649 186.278C128.649 185.59 128.763 185.001 128.993 184.511C129.225 184.022 129.543 183.647 129.947 183.387C130.35 183.127 130.808 182.997 131.32 182.997C131.715 182.997 132.033 183.064 132.274 183.197C132.517 183.327 132.705 183.479 132.838 183.653C132.973 183.827 133.078 183.98 133.153 184.113H133.228V180.957H134.468V189.451H133.257V188.46H133.153C133.078 188.595 132.97 188.75 132.829 188.924C132.691 189.099 132.5 189.251 132.257 189.381C132.014 189.511 131.698 189.576 131.311 189.576ZM131.585 188.518C131.942 188.518 132.243 188.424 132.489 188.236C132.738 188.045 132.926 187.781 133.053 187.444C133.183 187.106 133.248 186.714 133.248 186.266C133.248 185.823 133.185 185.436 133.057 185.104C132.93 184.773 132.744 184.514 132.498 184.329C132.251 184.144 131.947 184.051 131.585 184.051C131.212 184.051 130.901 184.148 130.652 184.341C130.403 184.535 130.215 184.799 130.088 185.134C129.963 185.468 129.901 185.846 129.901 186.266C129.901 186.692 129.965 187.075 130.092 187.415C130.219 187.755 130.407 188.024 130.656 188.223C130.908 188.42 131.217 188.518 131.585 188.518ZM139.729 189.451V183.08H140.969V189.451H139.729ZM140.355 182.097C140.139 182.097 139.954 182.026 139.799 181.882C139.647 181.735 139.571 181.561 139.571 181.359C139.571 181.155 139.647 180.98 139.799 180.837C139.954 180.69 140.139 180.617 140.355 180.617C140.571 180.617 140.754 180.69 140.907 180.837C141.061 180.98 141.139 181.155 141.139 181.359C141.139 181.561 141.061 181.735 140.907 181.882C140.754 182.026 140.571 182.097 140.355 182.097ZM144.077 185.669V189.451H142.837V183.08H144.028V184.117H144.106C144.253 183.78 144.482 183.509 144.795 183.304C145.11 183.1 145.507 182.997 145.985 182.997C146.419 182.997 146.8 183.089 147.126 183.271C147.452 183.451 147.705 183.719 147.885 184.076C148.065 184.433 148.154 184.874 148.154 185.399V189.451H146.914V185.548C146.914 185.086 146.794 184.726 146.553 184.466C146.313 184.203 145.982 184.072 145.562 184.072C145.275 184.072 145.019 184.134 144.795 184.258C144.574 184.383 144.398 184.565 144.268 184.806C144.141 185.044 144.077 185.331 144.077 185.669ZM153.05 183.08V184.076H149.449V183.08H153.05ZM150.437 189.451V182.342C150.437 181.944 150.524 181.614 150.698 181.351C150.872 181.085 151.103 180.888 151.39 180.758C151.678 180.625 151.99 180.559 152.328 180.559C152.577 180.559 152.79 180.579 152.967 180.621C153.144 180.66 153.275 180.696 153.361 180.729L153.07 181.732C153.012 181.716 152.938 181.697 152.846 181.674C152.755 181.65 152.644 181.637 152.514 181.637C152.213 181.637 151.997 181.712 151.867 181.861C151.74 182.01 151.677 182.226 151.677 182.508V189.451H150.437ZM156.962 189.58C156.364 189.58 155.843 189.443 155.398 189.169C154.953 188.895 154.607 188.512 154.361 188.02C154.115 187.528 153.992 186.953 153.992 186.295C153.992 185.634 154.115 185.056 154.361 184.561C154.607 184.066 154.953 183.682 155.398 183.408C155.843 183.134 156.364 182.997 156.962 182.997C157.559 182.997 158.08 183.134 158.525 183.408C158.97 183.682 159.316 184.066 159.562 184.561C159.808 185.056 159.931 185.634 159.931 186.295C159.931 186.953 159.808 187.528 159.562 188.02C159.316 188.512 158.97 188.895 158.525 189.169C158.08 189.443 157.559 189.58 156.962 189.58ZM156.966 188.539C157.353 188.539 157.674 188.436 157.928 188.232C158.182 188.027 158.37 187.755 158.492 187.415C158.617 187.075 158.679 186.7 158.679 186.291C158.679 185.884 158.617 185.511 158.492 185.171C158.37 184.828 158.182 184.553 157.928 184.345C157.674 184.138 157.353 184.034 156.966 184.034C156.576 184.034 156.252 184.138 155.995 184.345C155.741 184.553 155.551 184.828 155.427 185.171C155.305 185.511 155.245 185.884 155.245 186.291C155.245 186.7 155.305 187.075 155.427 187.415C155.551 187.755 155.741 188.027 155.995 188.232C156.252 188.436 156.576 188.539 156.966 188.539ZM161.516 189.451V183.08H162.714V184.092H162.781C162.897 183.75 163.101 183.48 163.394 183.284C163.69 183.085 164.025 182.985 164.398 182.985C164.476 182.985 164.567 182.988 164.672 182.993C164.78 182.999 164.864 183.006 164.925 183.014V184.2C164.875 184.186 164.787 184.171 164.659 184.155C164.532 184.135 164.405 184.126 164.278 184.126C163.985 184.126 163.724 184.188 163.494 184.312C163.267 184.434 163.088 184.604 162.955 184.822C162.822 185.038 162.756 185.284 162.756 185.561V189.451H161.516ZM166.198 189.451V183.08H167.388V184.117H167.467C167.6 183.766 167.817 183.492 168.118 183.296C168.42 183.097 168.781 182.997 169.201 182.997C169.627 182.997 169.984 183.097 170.271 183.296C170.561 183.495 170.776 183.769 170.914 184.117H170.98C171.132 183.777 171.374 183.506 171.706 183.304C172.038 183.1 172.433 182.997 172.892 182.997C173.47 182.997 173.942 183.179 174.307 183.541C174.674 183.903 174.858 184.449 174.858 185.179V189.451H173.618V185.295C173.618 184.864 173.501 184.551 173.266 184.358C173.031 184.164 172.75 184.068 172.424 184.068C172.02 184.068 171.706 184.192 171.482 184.441C171.258 184.687 171.146 185.004 171.146 185.391V189.451H169.91V185.216C169.91 184.871 169.802 184.593 169.587 184.383C169.371 184.173 169.09 184.068 168.745 184.068C168.51 184.068 168.293 184.13 168.094 184.254C167.897 184.376 167.738 184.546 167.617 184.764C167.498 184.983 167.438 185.236 167.438 185.523V189.451H166.198ZM178.574 189.592C178.171 189.592 177.806 189.518 177.48 189.368C177.153 189.216 176.895 188.996 176.704 188.709C176.516 188.421 176.422 188.069 176.422 187.651C176.422 187.292 176.491 186.996 176.629 186.764C176.768 186.531 176.954 186.347 177.189 186.212C177.424 186.076 177.687 185.974 177.977 185.905C178.268 185.836 178.563 185.783 178.865 185.747C179.246 185.703 179.556 185.667 179.794 185.64C180.032 185.609 180.205 185.561 180.312 185.494C180.42 185.428 180.474 185.32 180.474 185.171V185.142C180.474 184.78 180.372 184.499 180.167 184.3C179.965 184.101 179.664 184.001 179.263 184.001C178.845 184.001 178.516 184.094 178.276 184.279C178.038 184.462 177.874 184.665 177.782 184.889L176.617 184.623C176.755 184.236 176.957 183.924 177.222 183.686C177.491 183.445 177.799 183.271 178.147 183.163C178.496 183.053 178.862 182.997 179.246 182.997C179.501 182.997 179.77 183.028 180.055 183.089C180.343 183.147 180.611 183.255 180.86 183.412C181.111 183.57 181.317 183.795 181.478 184.088C181.638 184.379 181.718 184.756 181.718 185.221V189.451H180.507V188.58H180.458C180.377 188.741 180.257 188.898 180.097 189.053C179.936 189.208 179.73 189.336 179.479 189.439C179.227 189.541 178.926 189.592 178.574 189.592ZM178.844 188.597C179.187 188.597 179.48 188.529 179.723 188.394C179.969 188.258 180.156 188.081 180.283 187.863C180.413 187.641 180.478 187.405 180.478 187.153V186.332C180.434 186.376 180.348 186.418 180.221 186.457C180.097 186.493 179.954 186.524 179.794 186.552C179.634 186.577 179.477 186.6 179.325 186.622C179.173 186.642 179.046 186.658 178.944 186.672C178.703 186.703 178.483 186.754 178.284 186.826C178.088 186.898 177.93 187.001 177.811 187.137C177.695 187.27 177.637 187.446 177.637 187.668C177.637 187.975 177.75 188.207 177.977 188.364C178.204 188.519 178.493 188.597 178.844 188.597ZM186.544 183.08V184.076H183.064V183.08H186.544ZM183.997 181.554H185.238V187.581C185.238 187.821 185.273 188.002 185.345 188.124C185.417 188.243 185.51 188.324 185.623 188.369C185.739 188.41 185.865 188.431 186.001 188.431C186.1 188.431 186.187 188.424 186.262 188.41C186.337 188.396 186.395 188.385 186.436 188.377L186.66 189.401C186.588 189.429 186.486 189.457 186.353 189.484C186.221 189.515 186.055 189.531 185.856 189.534C185.529 189.54 185.225 189.482 184.943 189.36C184.661 189.238 184.433 189.05 184.259 188.796C184.084 188.541 183.997 188.222 183.997 187.838V181.554ZM188.116 189.451V183.08H189.356V189.451H188.116ZM188.742 182.097C188.526 182.097 188.341 182.026 188.186 181.882C188.034 181.735 187.958 181.561 187.958 181.359C187.958 181.155 188.034 180.98 188.186 180.837C188.341 180.69 188.526 180.617 188.742 180.617C188.958 180.617 189.142 180.69 189.294 180.837C189.449 180.98 189.526 181.155 189.526 181.359C189.526 181.561 189.449 181.735 189.294 181.882C189.142 182.026 188.958 182.097 188.742 182.097ZM193.908 189.58C193.311 189.58 192.789 189.443 192.344 189.169C191.899 188.895 191.553 188.512 191.307 188.02C191.061 187.528 190.938 186.953 190.938 186.295C190.938 185.634 191.061 185.056 191.307 184.561C191.553 184.066 191.899 183.682 192.344 183.408C192.789 183.134 193.311 182.997 193.908 182.997C194.505 182.997 195.026 183.134 195.472 183.408C195.917 183.682 196.262 184.066 196.508 184.561C196.755 185.056 196.878 185.634 196.878 186.295C196.878 186.953 196.755 187.528 196.508 188.02C196.262 188.512 195.917 188.895 195.472 189.169C195.026 189.443 194.505 189.58 193.908 189.58ZM193.912 188.539C194.299 188.539 194.62 188.436 194.874 188.232C195.129 188.027 195.317 187.755 195.438 187.415C195.563 187.075 195.625 186.7 195.625 186.291C195.625 185.884 195.563 185.511 195.438 185.171C195.317 184.828 195.129 184.553 194.874 184.345C194.62 184.138 194.299 184.034 193.912 184.034C193.522 184.034 193.199 184.138 192.941 184.345C192.687 184.553 192.498 184.828 192.373 185.171C192.252 185.511 192.191 185.884 192.191 186.291C192.191 186.7 192.252 187.075 192.373 187.415C192.498 187.755 192.687 188.027 192.941 188.232C193.199 188.436 193.522 188.539 193.912 188.539ZM199.702 185.669V189.451H198.462V183.08H199.652V184.117H199.731C199.878 183.78 200.107 183.509 200.419 183.304C200.735 183.1 201.132 182.997 201.61 182.997C202.044 182.997 202.424 183.089 202.75 183.271C203.077 183.451 203.33 183.719 203.509 184.076C203.689 184.433 203.779 184.874 203.779 185.399V189.451H202.539V185.548C202.539 185.086 202.419 184.726 202.178 184.466C201.938 184.203 201.607 184.072 201.187 184.072C200.899 184.072 200.643 184.134 200.419 184.258C200.198 184.383 200.023 184.565 199.893 184.806C199.766 185.044 199.702 185.331 199.702 185.669Z" fill="#0A2540"/>
<mask id="path-9-inside-1_4003_1133" fill="white">
<path d="M108 205.451C108 202.137 110.686 199.451 114 199.451H486C489.314 199.451 492 202.137 492 205.451V238.451H108V205.451Z"/>
</mask>
<path d="M108 205.451C108 202.137 110.686 199.451 114 199.451H486C489.314 199.451 492 202.137 492 205.451V238.451H108V205.451Z" fill="white"/>
<path d="M107 205.451C107 201.585 110.134 198.451 114 198.451H486C489.866 198.451 493 201.585 493 205.451H491C491 202.69 488.761 200.451 486 200.451H114C111.239 200.451 109 202.69 109 205.451H107ZM492 238.451H108H492ZM107 238.451V205.451C107 201.585 110.134 198.451 114 198.451V200.451C111.239 200.451 109 202.69 109 205.451V238.451H107ZM486 198.451C489.866 198.451 493 201.585 493 205.451V238.451H491V205.451C491 202.69 488.761 200.451 486 200.451V198.451Z" fill="#E6EBF1" mask="url(#path-9-inside-1_4003_1133)"/>
<path d="M124.826 214.906V222.951H123.608V216.124H123.561L121.636 217.381V216.218L123.644 214.906H124.826ZM127.203 222.951V222.071L129.925 219.251C130.216 218.944 130.455 218.676 130.644 218.445C130.835 218.212 130.978 217.991 131.072 217.781C131.166 217.572 131.214 217.349 131.214 217.114C131.214 216.846 131.151 216.616 131.025 216.422C130.899 216.226 130.728 216.075 130.51 215.97C130.293 215.863 130.048 215.809 129.776 215.809C129.488 215.809 129.236 215.868 129.022 215.986C128.807 216.104 128.642 216.27 128.527 216.485C128.411 216.7 128.354 216.951 128.354 217.239H127.195C127.195 216.749 127.307 216.321 127.533 215.955C127.758 215.588 128.067 215.304 128.46 215.102C128.853 214.898 129.299 214.796 129.799 214.796C130.305 214.796 130.75 214.897 131.135 215.098C131.523 215.297 131.825 215.57 132.043 215.915C132.26 216.258 132.369 216.646 132.369 217.078C132.369 217.377 132.312 217.669 132.2 217.954C132.09 218.24 131.897 218.558 131.622 218.909C131.347 219.257 130.965 219.68 130.475 220.178L128.876 221.851V221.91H132.498V222.951H127.203ZM136.988 223.061C136.449 223.061 135.967 222.968 135.542 222.782C135.121 222.596 134.787 222.338 134.541 222.008C134.297 221.676 134.166 221.291 134.148 220.853H135.381C135.397 221.092 135.477 221.299 135.621 221.474C135.768 221.647 135.959 221.78 136.195 221.875C136.43 221.969 136.692 222.016 136.98 222.016C137.297 222.016 137.577 221.961 137.821 221.851C138.067 221.741 138.26 221.588 138.398 221.392C138.537 221.193 138.607 220.963 138.607 220.704C138.607 220.434 138.537 220.197 138.398 219.993C138.262 219.786 138.062 219.624 137.797 219.506C137.535 219.388 137.219 219.329 136.847 219.329H136.167V218.339H136.847C137.145 218.339 137.407 218.285 137.632 218.178C137.86 218.071 138.038 217.921 138.167 217.73C138.295 217.536 138.359 217.31 138.359 217.051C138.359 216.802 138.303 216.586 138.19 216.402C138.08 216.217 137.923 216.071 137.719 215.966C137.517 215.862 137.279 215.809 137.004 215.809C136.742 215.809 136.497 215.858 136.269 215.955C136.044 216.049 135.861 216.185 135.719 216.363C135.578 216.539 135.502 216.749 135.491 216.996H134.317C134.33 216.561 134.458 216.179 134.702 215.849C134.948 215.519 135.273 215.261 135.676 215.075C136.079 214.889 136.527 214.796 137.019 214.796C137.535 214.796 137.981 214.897 138.355 215.098C138.732 215.297 139.023 215.563 139.227 215.896C139.434 216.228 139.536 216.592 139.534 216.988C139.536 217.438 139.411 217.821 139.157 218.135C138.905 218.449 138.57 218.66 138.151 218.767V218.83C138.685 218.911 139.099 219.124 139.392 219.467C139.688 219.81 139.835 220.235 139.832 220.743C139.835 221.186 139.712 221.583 139.463 221.934C139.217 222.285 138.88 222.561 138.453 222.763C138.026 222.962 137.538 223.061 136.988 223.061ZM141.348 221.38V220.398L144.825 214.906H145.599V216.351H145.108L142.621 220.288V220.351H147.386V221.38H141.348ZM145.163 222.951V221.081L145.171 220.633V214.906H146.322V222.951H145.163ZM155.135 214.906V222.951H153.918V216.124H153.87L151.946 217.381V216.218L153.953 214.906H155.135ZM157.512 222.951V222.071L160.234 219.251C160.525 218.944 160.765 218.676 160.953 218.445C161.144 218.212 161.287 217.991 161.381 217.781C161.476 217.572 161.523 217.349 161.523 217.114C161.523 216.846 161.46 216.616 161.334 216.422C161.208 216.226 161.037 216.075 160.82 215.97C160.602 215.863 160.357 215.809 160.085 215.809C159.797 215.809 159.545 215.868 159.331 215.986C159.116 216.104 158.951 216.27 158.836 216.485C158.72 216.7 158.663 216.951 158.663 217.239H157.504C157.504 216.749 157.617 216.321 157.842 215.955C158.067 215.588 158.376 215.304 158.769 215.102C159.162 214.898 159.608 214.796 160.109 214.796C160.614 214.796 161.059 214.897 161.444 215.098C161.832 215.297 162.134 215.57 162.352 215.915C162.569 216.258 162.678 216.646 162.678 217.078C162.678 217.377 162.621 217.669 162.509 217.954C162.399 218.24 162.206 218.558 161.931 218.909C161.656 219.257 161.274 219.68 160.784 220.178L159.185 221.851V221.91H162.807V222.951H157.512ZM167.297 223.061C166.758 223.061 166.276 222.968 165.852 222.782C165.43 222.596 165.096 222.338 164.85 222.008C164.606 221.676 164.475 221.291 164.457 220.853H165.69C165.706 221.092 165.786 221.299 165.93 221.474C166.077 221.647 166.268 221.78 166.504 221.875C166.739 221.969 167.001 222.016 167.289 222.016C167.606 222.016 167.886 221.961 168.13 221.851C168.376 221.741 168.569 221.588 168.708 221.392C168.846 221.193 168.916 220.963 168.916 220.704C168.916 220.434 168.846 220.197 168.708 219.993C168.571 219.786 168.371 219.624 168.106 219.506C167.845 219.388 167.528 219.329 167.156 219.329H166.476V218.339H167.156C167.454 218.339 167.716 218.285 167.941 218.178C168.169 218.071 168.347 217.921 168.476 217.73C168.604 217.536 168.668 217.31 168.668 217.051C168.668 216.802 168.612 216.586 168.499 216.402C168.389 216.217 168.232 216.071 168.028 215.966C167.826 215.862 167.588 215.809 167.313 215.809C167.051 215.809 166.806 215.858 166.578 215.955C166.353 216.049 166.17 216.185 166.028 216.363C165.887 216.539 165.811 216.749 165.8 216.996H164.626C164.639 216.561 164.767 216.179 165.011 215.849C165.257 215.519 165.582 215.261 165.985 215.075C166.388 214.889 166.836 214.796 167.329 214.796C167.845 214.796 168.29 214.897 168.664 215.098C169.041 215.297 169.332 215.563 169.536 215.896C169.743 216.228 169.845 216.592 169.843 216.988C169.845 217.438 169.72 217.821 169.466 218.135C169.214 218.449 168.879 218.66 168.46 218.767V218.83C168.994 218.911 169.408 219.124 169.701 219.467C169.997 219.81 170.144 220.235 170.141 220.743C170.144 221.186 170.021 221.583 169.772 221.934C169.526 222.285 169.189 222.561 168.763 222.763C168.336 222.962 167.847 223.061 167.297 223.061ZM171.657 221.38V220.398L175.134 214.906H175.908V216.351H175.417L172.93 220.288V220.351H177.695V221.38H171.657ZM175.472 222.951V221.081L175.48 220.633V214.906H176.631V222.951H175.472ZM185.445 214.906V222.951H184.227V216.124H184.18L182.255 217.381V216.218L184.262 214.906H185.445ZM187.821 222.951V222.071L190.543 219.251C190.834 218.944 191.074 218.676 191.262 218.445C191.453 218.212 191.596 217.991 191.69 217.781C191.785 217.572 191.832 217.349 191.832 217.114C191.832 216.846 191.769 216.616 191.643 216.422C191.518 216.226 191.346 216.075 191.129 215.97C190.911 215.863 190.666 215.809 190.394 215.809C190.106 215.809 189.855 215.868 189.64 215.986C189.425 216.104 189.26 216.27 189.145 216.485C189.03 216.7 188.972 216.951 188.972 217.239H187.813C187.813 216.749 187.926 216.321 188.151 215.955C188.376 215.588 188.685 215.304 189.078 215.102C189.471 214.898 189.917 214.796 190.418 214.796C190.923 214.796 191.368 214.897 191.753 215.098C192.141 215.297 192.443 215.57 192.661 215.915C192.878 216.258 192.987 216.646 192.987 217.078C192.987 217.377 192.931 217.669 192.818 217.954C192.708 218.24 192.515 218.558 192.24 218.909C191.965 219.257 191.583 219.68 191.093 220.178L189.494 221.851V221.91H193.116V222.951H187.821ZM197.606 223.061C197.067 223.061 196.585 222.968 196.161 222.782C195.739 222.596 195.405 222.338 195.159 222.008C194.915 221.676 194.784 221.291 194.766 220.853H196C196.015 221.092 196.095 221.299 196.239 221.474C196.386 221.647 196.577 221.78 196.813 221.875C197.049 221.969 197.31 222.016 197.598 222.016C197.915 222.016 198.196 221.961 198.439 221.851C198.685 221.741 198.878 221.588 199.017 221.392C199.155 221.193 199.225 220.963 199.225 220.704C199.225 220.434 199.155 220.197 199.017 219.993C198.88 219.786 198.68 219.624 198.416 219.506C198.154 219.388 197.837 219.329 197.465 219.329H196.785V218.339H197.465C197.763 218.339 198.025 218.285 198.251 218.178C198.478 218.071 198.657 217.921 198.785 217.73C198.913 217.536 198.977 217.31 198.977 217.051C198.977 216.802 198.921 216.586 198.808 216.402C198.698 216.217 198.541 216.071 198.337 215.966C198.135 215.862 197.897 215.809 197.622 215.809C197.36 215.809 197.115 215.858 196.887 215.955C196.662 216.049 196.479 216.185 196.337 216.363C196.196 216.539 196.12 216.749 196.11 216.996H194.935C194.948 216.561 195.076 216.179 195.32 215.849C195.566 215.519 195.891 215.261 196.294 215.075C196.698 214.889 197.145 214.796 197.638 214.796C198.154 214.796 198.599 214.897 198.973 215.098C199.351 215.297 199.641 215.563 199.846 215.896C200.052 216.228 200.155 216.592 200.152 216.988C200.155 217.438 200.029 217.821 199.775 218.135C199.523 218.449 199.188 218.66 198.769 218.767V218.83C199.303 218.911 199.717 219.124 200.011 219.467C200.307 219.81 200.453 220.235 200.451 220.743C200.453 221.186 200.33 221.583 200.081 221.934C199.835 222.285 199.499 222.561 199.072 222.763C198.645 222.962 198.156 223.061 197.606 223.061ZM201.967 221.38V220.398L205.443 214.906H206.217V216.351H205.726L203.239 220.288V220.351H208.005V221.38H201.967ZM205.781 222.951V221.081L205.789 220.633V214.906H206.94V222.951H205.781ZM215.754 214.906V222.951H214.536V216.124H214.489L212.564 217.381V216.218L214.571 214.906H215.754ZM218.13 222.951V222.071L220.853 219.251C221.143 218.944 221.383 218.676 221.571 218.445C221.763 218.212 221.905 217.991 222 217.781C222.094 217.572 222.141 217.349 222.141 217.114C222.141 216.846 222.078 216.616 221.952 216.422C221.827 216.226 221.655 216.075 221.438 215.97C221.22 215.863 220.976 215.809 220.703 215.809C220.415 215.809 220.164 215.868 219.949 215.986C219.734 216.104 219.569 216.27 219.454 216.485C219.339 216.7 219.281 216.951 219.281 217.239H218.122C218.122 216.749 218.235 216.321 218.46 215.955C218.685 215.588 218.994 215.304 219.387 215.102C219.78 214.898 220.227 214.796 220.727 214.796C221.232 214.796 221.677 214.897 222.062 215.098C222.45 215.297 222.753 215.57 222.97 215.915C223.187 216.258 223.296 216.646 223.296 217.078C223.296 217.377 223.24 217.669 223.127 217.954C223.017 218.24 222.825 218.558 222.55 218.909C222.275 219.257 221.892 219.68 221.402 220.178L219.804 221.851V221.91H223.426V222.951H218.13ZM227.915 223.061C227.376 223.061 226.894 222.968 226.47 222.782C226.048 222.596 225.714 222.338 225.468 222.008C225.225 221.676 225.094 221.291 225.075 220.853H226.309C226.324 221.092 226.404 221.299 226.548 221.474C226.695 221.647 226.886 221.78 227.122 221.875C227.358 221.969 227.62 222.016 227.908 222.016C228.225 222.016 228.505 221.961 228.748 221.851C228.995 221.741 229.187 221.588 229.326 221.392C229.465 221.193 229.534 220.963 229.534 220.704C229.534 220.434 229.465 220.197 229.326 219.993C229.19 219.786 228.989 219.624 228.725 219.506C228.463 219.388 228.146 219.329 227.774 219.329H227.094V218.339H227.774C228.073 218.339 228.335 218.285 228.56 218.178C228.788 218.071 228.966 217.921 229.094 217.73C229.222 217.536 229.287 217.31 229.287 217.051C229.287 216.802 229.23 216.586 229.118 216.402C229.008 216.217 228.85 216.071 228.646 215.966C228.445 215.862 228.206 215.809 227.931 215.809C227.669 215.809 227.424 215.858 227.197 215.955C226.971 216.049 226.788 216.185 226.647 216.363C226.505 216.539 226.429 216.749 226.419 216.996H225.244C225.257 216.561 225.386 216.179 225.629 215.849C225.875 215.519 226.2 215.261 226.603 215.075C227.007 214.889 227.455 214.796 227.947 214.796C228.463 214.796 228.908 214.897 229.283 215.098C229.66 215.297 229.95 215.563 230.155 215.896C230.362 216.228 230.464 216.592 230.461 216.988C230.464 217.438 230.338 217.821 230.084 218.135C229.833 218.449 229.497 218.66 229.078 218.767V218.83C229.613 218.911 230.026 219.124 230.32 219.467C230.616 219.81 230.762 220.235 230.76 220.743C230.762 221.186 230.639 221.583 230.39 221.934C230.144 222.285 229.808 222.561 229.381 222.763C228.954 222.962 228.465 223.061 227.915 223.061ZM232.276 221.38V220.398L235.752 214.906H236.526V216.351H236.035L233.549 220.288V220.351H238.314V221.38H232.276ZM236.09 222.951V221.081L236.098 220.633V214.906H237.249V222.951H236.09Z" fill="#425466"/>
<path d="M392.75 211.701H373.25C372.145 211.701 371.25 212.597 371.25 213.701V225.201C371.25 226.306 372.145 227.201 373.25 227.201H392.75C393.855 227.201 394.75 226.306 394.75 225.201V213.701C394.75 212.597 393.855 211.701 392.75 211.701Z" fill="white" stroke="black" stroke-opacity="0.2" stroke-width="0.5"/>
<path d="M373.79 217.361C373.226 217.059 372.624 216.834 372 216.691L372.03 216.561H374.76C375.14 216.571 375.44 216.691 375.53 217.081L376.13 219.921L376.31 220.771L377.98 216.571H379.78L377.1 222.721H375.3L373.8 217.351L373.79 217.361ZM381.1 222.731H379.4L380.46 216.561H382.16L381.1 222.731ZM387.27 216.711L387.04 218.051L386.88 217.981C386.58 217.861 386.17 217.731 385.61 217.741C384.94 217.741 384.64 218.011 384.63 218.281C384.63 218.561 385 218.751 385.59 219.041C386.57 219.481 387.03 220.021 387.02 220.721C387.01 222.001 385.85 222.821 384.06 222.821C383.3 222.821 382.56 222.671 382.16 222.501L382.4 221.111L382.63 221.211C383.18 221.441 383.54 221.541 384.23 221.541C384.71 221.541 385.23 221.341 385.24 220.941C385.24 220.671 385.02 220.471 384.36 220.171C383.72 219.871 382.86 219.371 382.87 218.491C382.87 217.291 384.07 216.451 385.74 216.451C386.4 216.451 386.94 216.591 387.27 216.711ZM389.53 220.551H390.94L390.55 218.761L390.43 218.231L390.21 218.831L389.53 220.551ZM391.63 216.561L393 222.731H391.42L391.22 221.811H389.04L388.68 222.731H386.9L389.42 217.071C389.6 216.671 389.91 216.571 390.32 216.571H391.62L391.63 216.561Z" fill="#1434CB"/>
<path d="M421 211.451H401C399.895 211.451 399 212.347 399 213.451V225.451C399 226.556 399.895 227.451 401 227.451H421C422.105 227.451 423 226.556 423 225.451V213.451C423 212.347 422.105 211.451 421 211.451Z" fill="#252525"/>
<path d="M408 224.451C410.761 224.451 413 222.213 413 219.451C413 216.69 410.761 214.451 408 214.451C405.239 214.451 403 216.69 403 219.451C403 222.213 405.239 224.451 408 224.451Z" fill="#EB001B"/>
<path d="M414 224.451C416.761 224.451 419 222.213 419 219.451C419 216.69 416.761 214.451 414 214.451C411.239 214.451 409 216.69 409 219.451C409 222.213 411.239 224.451 414 224.451Z" fill="#F79E1B"/>
<path fill-rule="evenodd" clip-rule="evenodd" d="M411 215.451C411.621 215.917 412.125 216.521 412.472 217.215C412.819 217.909 413 218.675 413 219.451C413 220.227 412.819 220.993 412.472 221.687C412.125 222.382 411.621 222.985 411 223.451C410.379 222.985 409.875 222.382 409.528 221.687C409.181 220.993 409 220.227 409 219.451C409 218.675 409.181 217.909 409.528 217.215C409.875 216.521 410.379 215.917 411 215.451Z" fill="#FF5F00"/>
<path d="M449 211.451H429C427.895 211.451 427 212.347 427 213.451V225.451C427 226.556 427.895 227.451 429 227.451H449C450.105 227.451 451 226.556 451 225.451V213.451C451 212.347 450.105 211.451 449 211.451Z" fill="#016FD0"/>
<path fill-rule="evenodd" clip-rule="evenodd" d="M440.76 224.85V219.15H450.91V220.73L449.74 221.98L450.91 223.24V224.85H449.04L448.04 223.75L447.06 224.85H440.76Z" fill="#FFFFFE"/>
<path fill-rule="evenodd" clip-rule="evenodd" d="M441.44 224.221V219.771H445.21V220.791H442.66V221.491H445.16V222.491H442.66V223.191H445.21V224.221H441.44Z" fill="#016FD0"/>
<path fill-rule="evenodd" clip-rule="evenodd" d="M445.2 224.221L447.28 221.991L445.2 219.771H446.81L448.09 221.181L449.37 219.771H450.91V219.811L448.87 221.991L450.91 224.161V224.221H449.35L448.05 222.791L446.77 224.221H445.2Z" fill="#016FD0"/>
<path fill-rule="evenodd" clip-rule="evenodd" d="M441.24 214.082H443.68L444.54 216.032V214.082H447.56L448.08 215.542L448.61 214.082H450.91V219.782H438.73L441.24 214.082Z" fill="#FFFFFE"/>
<path fill-rule="evenodd" clip-rule="evenodd" d="M441.7 214.701L439.73 219.151H441.08L441.45 218.251H443.47L443.84 219.151H445.23L443.26 214.701H441.7ZM441.87 217.261L442.47 215.841L443.05 217.261H441.87Z" fill="#016FD0"/>
<path fill-rule="evenodd" clip-rule="evenodd" d="M445.21 219.151V214.701H447.11L448.1 217.451L449.09 214.711H450.92V219.151H449.74V216.111L448.62 219.151H447.54L446.41 216.091V219.151H445.21Z" fill="#016FD0"/>
<path d="M459.7 211.451H465.7C465.888 211.441 466.076 211.478 466.246 211.557C466.417 211.636 466.566 211.756 466.68 211.905C466.794 212.055 466.87 212.23 466.902 212.416C466.933 212.601 466.919 212.792 466.86 212.971L464.07 224.971C463.958 225.387 463.715 225.756 463.376 226.023C463.037 226.289 462.621 226.44 462.19 226.451H456.19C456.003 226.462 455.815 226.427 455.644 226.35C455.473 226.274 455.322 226.157 455.206 226.01C455.089 225.863 455.009 225.69 454.974 225.505C454.938 225.321 454.947 225.131 455 224.951L457.79 212.951C457.9 212.526 458.146 212.149 458.491 211.878C458.837 211.606 459.261 211.456 459.7 211.451Z" fill="#E21836"/>
<path d="M465.19 211.451H472.08C472.92 211.451 472.54 212.131 472.34 212.971L469.55 224.971C469.36 225.801 469.42 226.481 468.55 226.481H461.69C461.502 226.489 461.314 226.451 461.144 226.37C460.973 226.29 460.825 226.169 460.711 226.019C460.597 225.869 460.521 225.693 460.49 225.507C460.458 225.321 460.472 225.131 460.53 224.951L463.32 212.951C463.428 212.533 463.668 212.16 464.006 211.89C464.343 211.62 464.758 211.466 465.19 211.451Z" fill="#00447C"/>
<path d="M471.81 211.451H477.81C478.001 211.436 478.192 211.469 478.367 211.546C478.541 211.623 478.694 211.742 478.812 211.892C478.93 212.043 479.009 212.22 479.042 212.408C479.074 212.596 479.06 212.789 479 212.971L476.21 224.971C476.097 225.392 475.849 225.764 475.504 226.032C475.159 226.299 474.737 226.446 474.3 226.451H468.3C468.114 226.459 467.927 226.423 467.758 226.344C467.588 226.265 467.44 226.147 467.326 225.999C467.212 225.85 467.136 225.677 467.103 225.492C467.071 225.308 467.084 225.119 467.14 224.941L469.93 212.941C470.041 212.522 470.283 212.151 470.622 211.882C470.961 211.614 471.378 211.462 471.81 211.451Z" fill="#007B84"/>
<path d="M461.26 215.291C460.977 215.313 460.693 215.313 460.41 215.291C460.41 215.401 459.97 217.291 459.97 217.291C459.942 217.606 459.808 217.902 459.59 218.131C459.469 218.239 459.312 218.296 459.15 218.291C459.093 218.297 459.036 218.29 458.982 218.273C458.927 218.256 458.877 218.227 458.834 218.19C458.791 218.152 458.756 218.107 458.731 218.055C458.707 218.004 458.692 217.948 458.69 217.891V217.821L458.77 217.291C458.77 217.291 459.21 215.551 459.29 215.291C458.958 215.328 458.622 215.328 458.29 215.291C458.292 215.334 458.292 215.378 458.29 215.421L457.85 217.421V217.591L457.78 218.131C457.763 218.237 457.766 218.346 457.79 218.451C457.99 218.811 458.57 218.861 458.9 218.861C459.28 218.888 459.66 218.812 460 218.641C460.183 218.518 460.338 218.358 460.457 218.173C460.576 217.987 460.655 217.779 460.69 217.561L460.74 217.371C460.74 217.371 461.19 215.551 461.27 215.311L461.26 215.291ZM462.79 216.751C462.623 216.757 462.46 216.798 462.31 216.871L462.12 216.971L462.18 216.771C461.8 216.851 461.71 216.861 461.37 216.911C461.319 217.332 461.242 217.749 461.14 218.161L460.96 218.891C461.22 218.876 461.48 218.876 461.74 218.891L461.87 218.231C461.87 218.041 462 217.611 462.04 217.461C462.112 217.425 462.19 217.402 462.27 217.391C462.44 217.391 462.42 217.541 462.42 217.601C462.42 217.661 462.34 218.041 462.28 218.321V218.501C462.28 218.641 462.21 218.771 462.18 218.911C462.433 218.896 462.687 218.896 462.94 218.911C463 218.541 463 218.451 463.1 217.991L463.15 217.781C463.24 217.371 463.29 217.161 463.22 216.991C463.183 216.911 463.121 216.844 463.044 216.801C462.967 216.758 462.878 216.741 462.79 216.751ZM464.5 217.181L464.08 217.261L463.66 217.321L463.6 217.711C463.573 217.893 463.536 218.073 463.49 218.251C463.49 218.421 463.43 218.481 463.41 218.551C463.368 218.645 463.335 218.742 463.31 218.841H464.15C464.15 218.691 464.15 218.641 464.15 218.571C464.15 218.501 464.15 218.371 464.26 218.071C464.26 217.921 464.33 217.781 464.36 217.641C464.39 217.501 464.43 217.351 464.46 217.211L464.5 217.181ZM464.5 216.601C464.392 216.553 464.273 216.535 464.156 216.547C464.038 216.559 463.926 216.602 463.83 216.671C463.63 216.811 463.6 217.001 463.77 217.101C463.878 217.149 463.997 217.167 464.114 217.155C464.232 217.143 464.344 217.1 464.44 217.031C464.65 216.891 464.67 216.701 464.51 216.601H464.5ZM465.5 218.921C465.683 218.934 465.868 218.908 466.04 218.844C466.213 218.78 466.369 218.68 466.5 218.551C466.658 218.34 466.771 218.098 466.83 217.841C466.879 217.709 466.897 217.567 466.883 217.427C466.869 217.286 466.824 217.151 466.75 217.031C466.653 216.933 466.535 216.859 466.405 216.814C466.275 216.769 466.137 216.754 466 216.771C465.671 216.756 465.35 216.867 465.1 217.081C464.888 217.293 464.748 217.566 464.7 217.861C464.63 218.141 464.56 218.661 465.03 218.861C465.192 218.912 465.361 218.932 465.53 218.921H465.5ZM465.5 217.921C465.58 217.571 465.67 217.281 465.91 217.281C466.15 217.281 466.11 217.501 466.03 217.851C465.995 218.022 465.934 218.188 465.85 218.341C465.828 218.382 465.797 218.417 465.758 218.443C465.72 218.469 465.676 218.485 465.63 218.491C465.63 218.491 465.45 218.491 465.45 218.271C465.453 218.139 465.473 218.008 465.51 217.881L465.5 217.921ZM467.68 218.921L467.81 218.261C467.81 218.071 467.94 217.641 467.98 217.491C468.052 217.454 468.13 217.431 468.21 217.421C468.38 217.421 468.36 217.571 468.35 217.631C468.321 217.873 468.277 218.114 468.22 218.351V218.531C468.22 218.671 468.15 218.801 468.12 218.941C468.373 218.926 468.627 218.926 468.88 218.941C468.93 218.631 468.95 218.541 469.05 218.081V217.871C469.15 217.461 469.2 217.251 469.13 217.081C469.093 217.001 469.031 216.934 468.954 216.891C468.877 216.848 468.788 216.831 468.7 216.841C468.533 216.846 468.369 216.887 468.22 216.961L468.03 217.071L468.08 216.861C467.7 216.941 467.61 216.951 467.26 217.001C467.209 217.422 467.132 217.839 467.03 218.251C466.97 218.491 466.91 218.741 466.86 218.981C467.12 218.966 467.38 218.966 467.64 218.981L467.68 218.921ZM470.27 218.921L470.42 218.171C470.42 218.171 470.54 217.701 470.54 217.681L470.61 217.621H470.67C471.182 217.676 471.698 217.564 472.14 217.301C472.444 217.069 472.653 216.735 472.73 216.361C472.745 216.255 472.745 216.147 472.73 216.041C472.738 215.892 472.696 215.744 472.61 215.621C472.39 215.311 471.95 215.301 471.44 215.301H471.19C470.54 215.301 470.28 215.301 470.19 215.301C470.1 215.301 470.19 215.431 470.19 215.431L470 216.451C470 216.451 469.45 218.751 469.42 218.861C470 218.881 470.18 218.881 470.28 218.891L470.27 218.921ZM470.7 217.001L471 215.901V215.801H471.1H471.62C471.722 215.845 471.803 215.927 471.846 216.03C471.889 216.132 471.89 216.247 471.85 216.351C471.826 216.466 471.777 216.574 471.706 216.667C471.635 216.761 471.544 216.837 471.44 216.891C471.259 216.963 471.064 216.993 470.87 216.981H470.7V217.001ZM472.25 217.931C472.18 218.211 472.11 218.721 472.57 218.931C472.709 218.976 472.858 218.983 473 218.951C473.149 218.933 473.288 218.871 473.4 218.771V218.891H474.2C474.26 218.571 474.31 218.271 474.45 217.671C474.51 217.391 474.58 217.101 474.65 216.821L473.81 216.951V217.041C473.751 216.941 473.659 216.863 473.55 216.821C473.392 216.802 473.231 216.821 473.081 216.877C472.932 216.932 472.797 217.023 472.69 217.141C472.481 217.35 472.341 217.619 472.29 217.911L472.25 217.931ZM473.04 217.931C473.12 217.591 473.21 217.291 473.45 217.291C473.69 217.291 473.68 217.431 473.66 217.671C473.664 217.734 473.664 217.798 473.66 217.861C473.639 217.966 473.613 218.069 473.58 218.171C473.563 218.235 473.536 218.296 473.5 218.351C473.462 218.393 473.416 218.428 473.364 218.452C473.313 218.476 473.257 218.489 473.2 218.491C473.2 218.491 473 218.451 473 218.261C473.003 218.146 473.019 218.032 473.05 217.921L473.04 217.931ZM477.16 216.791C476.79 216.861 476.72 216.881 476.38 216.921C476.12 217.501 476.13 217.381 475.92 217.841V217.781L475.87 216.781C475.48 216.851 475.47 216.871 475.11 216.911C475.11 217.141 475.11 217.091 475.19 217.451C475.19 217.631 475.19 217.811 475.26 217.991C475.33 218.171 475.31 218.431 475.35 218.871C475.11 219.281 475.05 219.431 474.82 219.781L474.66 220.041C474.645 220.066 474.625 220.086 474.6 220.101H474.4L474.26 220.551H474.73C474.838 220.557 474.945 220.533 475.039 220.479C475.133 220.426 475.21 220.347 475.26 220.251L475.56 219.751C475.76 219.331 477.26 216.751 477.26 216.751L477.16 216.791ZM472.25 222.721H472.05L472.78 220.301H473L473.08 220.051V220.331C473.08 220.501 473.2 220.651 473.56 220.631H474L474.14 220.161H474C473.91 220.161 473.87 220.161 473.88 220.091V219.801H473.1C472.86 219.801 472.1 219.801 471.98 219.861C471.848 219.905 471.723 219.969 471.61 220.051L471.68 219.801H471L470.85 220.291L470.11 222.741H469.96L469.82 223.211H471.23V223.361H471.92L471.97 223.211H472.16L472.32 222.711L472.25 222.721ZM471.67 220.791C471.557 220.826 471.447 220.87 471.34 220.921L471.53 220.301H472.09L472 220.741C471.904 220.733 471.807 220.733 471.71 220.741L471.67 220.791ZM471.67 221.671H471.37C471.26 221.671 471.05 221.821 471.05 221.821L471.24 221.171H471.8L471.67 221.621V221.671ZM471.35 222.671H470.79L470.95 222.131H471.51L471.35 222.671ZM472.71 221.171H473.53L473.41 221.551H472.6L472.48 221.971H473.2L472.66 222.741C472.629 222.777 472.592 222.808 472.55 222.831C472.501 222.843 472.449 222.843 472.4 222.831H472.2L472.06 223.281H472.58C472.689 223.285 472.798 223.262 472.896 223.213C472.994 223.164 473.078 223.091 473.14 223.001L473.51 222.491L473.59 223.011C473.599 223.048 473.616 223.083 473.64 223.112C473.665 223.142 473.695 223.165 473.73 223.181C473.783 223.221 473.845 223.249 473.91 223.261H474.35L474.5 222.751H474.4C474.341 222.764 474.279 222.764 474.22 222.751C474.216 222.714 474.216 222.678 474.22 222.641L474.14 222.121H473.8L473.95 221.951H474.77L474.9 221.531H474.14L474.25 221.151H475L475.15 220.691H472.87L472.73 221.151L472.71 221.171ZM465.84 222.781L466.03 222.151H466.81L466.95 221.681H466.17L466.29 221.291H467.05L467.19 220.831H465.3L465.17 221.291H465.6L465.48 221.681H465.05L464.9 222.151H465.34L465.08 222.991C465.08 223.101 465.08 223.141 465.13 223.201C465.163 223.251 465.213 223.286 465.27 223.301H465.47H466.35L466.51 222.781L466.12 222.841C466 222.901 465.84 222.891 465.86 222.821L465.84 222.781ZM465.93 219.781L465.73 220.141C465.705 220.199 465.668 220.25 465.62 220.291C465.561 220.306 465.499 220.306 465.44 220.291H465.34L465.2 220.741H465.54C465.662 220.738 465.782 220.708 465.89 220.651C465.96 220.651 465.97 220.651 466.02 220.591L466.14 220.491H467.21L467.35 220.011H466.57L466.71 219.751L465.93 219.781ZM467.51 222.781C467.51 222.781 467.51 222.711 467.51 222.611L467.8 221.611H469.18C469.268 221.6 469.352 221.573 469.43 221.531C469.503 221.49 469.565 221.432 469.61 221.361C469.69 221.234 469.751 221.096 469.79 220.951L470.16 219.731H469.12C468.957 219.754 468.797 219.79 468.64 219.841C468.512 219.904 468.391 219.981 468.28 220.071L468.38 219.731H467.71L466.77 222.831L466.71 223.091C466.71 223.091 466.79 223.201 466.83 223.241C466.902 223.262 466.978 223.262 467.05 223.241H467.93L468.09 222.711H467.63C467.63 222.74 467.621 222.768 467.602 222.79C467.584 222.812 467.558 222.826 467.53 222.831L467.51 222.781ZM468 221.041H469.1L469.03 221.251C469.03 221.251 469.03 221.251 468.88 221.251H468V221.041ZM468.22 220.311H469.32L469.24 220.571C469.24 220.571 468.73 220.571 468.64 220.571C468.427 220.605 468.227 220.695 468.06 220.831L468.22 220.311ZM469.05 221.981C469.05 221.981 469.05 222.041 469.05 222.051C469.05 222.061 468.99 222.051 468.94 222.051H468.78V221.791H468.13V223.081C468.13 223.181 468.13 223.231 468.21 223.271C468.389 223.335 468.581 223.355 468.77 223.331H469.18L469.33 222.851H468.97H468.86H468.81C468.81 222.851 468.81 222.851 468.81 222.761V222.451H469.19C469.254 222.455 469.319 222.446 469.379 222.423C469.439 222.401 469.494 222.366 469.54 222.321C469.604 222.264 469.647 222.186 469.66 222.101L469.73 221.811H469.22L469.15 222.011L469.05 221.981Z" fill="#FEFEFE"/>
<mask id="path-29-inside-2_4003_1133" fill="white">
<path d="M108 238.451H300V278.451H114C110.686 278.451 108 275.765 108 272.451V238.451Z"/>
</mask>
<path d="M108 238.451H300V278.451H114C110.686 278.451 108 275.765 108 272.451V238.451Z" fill="white"/>
<path d="M107 237.451H300V239.451H109L107 237.451ZM300 279.451H114C110.134 279.451 107 276.317 107 272.451H109C109 275.213 111.239 277.451 114 277.451H300V279.451ZM114 279.451C110.134 279.451 107 276.317 107 272.451V237.451L109 239.451V272.451C109 275.213 111.239 277.451 114 277.451V279.451ZM300 238.451V278.451V238.451Z" fill="#E6EBF1" mask="url(#path-29-inside-2_4003_1133)"/>
<path d="M121.914 253.633H123.437L126.085 260.099H126.183L128.831 253.633H130.354V261.951H129.16V255.932H129.083L126.629 261.939H125.638L123.185 255.928H123.108V261.951H121.914V253.633ZM132.379 253.633H133.902L136.55 260.099H136.647L139.295 253.633H140.819V261.951H139.624V255.932H139.547L137.094 261.939H136.103L133.65 255.928H133.573V261.951H132.379V253.633ZM145.914 253.243L143.233 263.202H142.149L144.829 253.243H145.914ZM146.601 253.633H148.027L150.2 257.414H150.289L152.462 253.633H153.888L150.87 258.686V261.951H149.619V258.686L146.601 253.633ZM154.631 253.633H156.057L158.23 257.414H158.319L160.492 253.633H161.918L158.9 258.686V261.951H157.649V258.686L154.631 253.633Z" fill="#425466"/>
<path d="M300.5 238.951H491.5V272.451C491.5 275.489 489.038 277.951 486 277.951H300.5V238.951Z" fill="white"/>
<path d="M300.5 238.951H491.5V272.451C491.5 275.489 489.038 277.951 486 277.951H300.5V238.951Z" stroke="#E6EBF1"/>
<path d="M320.951 256.246H319.663C319.613 255.971 319.521 255.729 319.386 255.519C319.251 255.31 319.086 255.133 318.891 254.987C318.696 254.841 318.477 254.731 318.235 254.657C317.995 254.582 317.741 254.545 317.471 254.545C316.984 254.545 316.547 254.668 316.162 254.913C315.78 255.158 315.477 255.517 315.254 255.99C315.034 256.463 314.924 257.041 314.924 257.724C314.924 258.412 315.034 258.993 315.254 259.466C315.477 259.939 315.781 260.297 316.166 260.539C316.552 260.782 316.985 260.903 317.467 260.903C317.734 260.903 317.987 260.867 318.226 260.795C318.468 260.721 318.687 260.612 318.883 260.469C319.078 260.326 319.243 260.151 319.378 259.945C319.516 259.736 319.611 259.496 319.663 259.227L320.951 259.231C320.882 259.646 320.749 260.029 320.55 260.378C320.355 260.725 320.103 261.025 319.795 261.278C319.49 261.529 319.14 261.723 318.746 261.86C318.353 261.998 317.924 262.067 317.458 262.067C316.726 262.067 316.074 261.893 315.502 261.547C314.929 261.197 314.478 260.698 314.148 260.048C313.82 259.399 313.656 258.624 313.656 257.724C313.656 256.821 313.822 256.046 314.152 255.4C314.482 254.75 314.933 254.252 315.506 253.905C316.078 253.556 316.729 253.381 317.458 253.381C317.907 253.381 318.325 253.446 318.713 253.575C319.104 253.702 319.455 253.889 319.766 254.136C320.077 254.381 320.334 254.681 320.538 255.036C320.742 255.389 320.879 255.792 320.951 256.246ZM323.416 253.497L325.769 260.382H325.864L328.217 253.497H329.596L326.554 261.951H325.08L322.037 253.497H323.416ZM337.619 256.246H336.331C336.282 255.971 336.189 255.729 336.055 255.519C335.92 255.31 335.755 255.133 335.559 254.987C335.364 254.841 335.145 254.731 334.903 254.657C334.663 254.582 334.409 254.545 334.139 254.545C333.652 254.545 333.216 254.668 332.83 254.913C332.448 255.158 332.145 255.517 331.922 255.99C331.702 256.463 331.592 257.041 331.592 257.724C331.592 258.412 331.702 258.993 331.922 259.466C332.145 259.939 332.449 260.297 332.835 260.539C333.22 260.782 333.653 260.903 334.135 260.903C334.402 260.903 334.655 260.867 334.894 260.795C335.137 260.721 335.355 260.612 335.551 260.469C335.746 260.326 335.911 260.151 336.046 259.945C336.184 259.736 336.279 259.496 336.331 259.227L337.619 259.231C337.55 259.646 337.417 260.029 337.219 260.378C337.023 260.725 336.771 261.025 336.463 261.278C336.158 261.529 335.808 261.723 335.415 261.86C335.021 261.998 334.592 262.067 334.127 262.067C333.395 262.067 332.742 261.893 332.17 261.547C331.597 261.197 331.146 260.698 330.816 260.048C330.488 259.399 330.325 258.624 330.325 257.724C330.325 256.821 330.49 256.046 330.82 255.4C331.15 254.75 331.602 254.252 332.174 253.905C332.746 253.556 333.397 253.381 334.127 253.381C334.575 253.381 334.994 253.446 335.382 253.575C335.772 253.702 336.123 253.889 336.434 254.136C336.745 254.381 337.003 254.681 337.206 255.036C337.41 255.389 337.548 255.792 337.619 256.246Z" fill="#425466"/>
<path opacity="0.2" fill-rule="evenodd" clip-rule="evenodd" d="M471.992 252.68H458.628C458.003 252.68 457.27 253.4 457.27 254.038V264.226C457.27 264.865 458.003 265.584 458.628 265.584H475.605C476.229 265.584 476.963 264.865 476.963 264.226V259.112C476.391 259.626 475.684 259.968 474.926 260.097V260.151C474.926 260.599 474.681 260.83 474.247 260.83H459.307C458.873 260.83 458.628 260.599 458.628 260.151V259.472C458.628 259.023 458.873 258.792 459.307 258.792H471.211C470.819 258.358 470.526 257.844 470.351 257.285C470.176 256.727 470.124 256.137 470.198 255.557C470.272 254.976 470.471 254.419 470.781 253.922C471.09 253.425 471.503 253.002 471.992 252.68Z" fill="#565656"/>
<path opacity="0.3" fill-rule="evenodd" clip-rule="evenodd" d="M470.403 254.717H457.27V256.754H470.227C470.112 256.071 470.173 255.37 470.403 254.717Z" fill="#565656"/>
<path fill-rule="evenodd" clip-rule="evenodd" d="M474.247 260.829C472.986 260.829 471.777 260.328 470.885 259.437C469.994 258.545 469.493 257.336 469.493 256.075C469.493 254.814 469.994 253.604 470.885 252.713C471.777 251.821 472.986 251.32 474.247 251.32C475.507 251.32 476.716 251.821 477.608 252.713C478.499 253.604 479 254.814 479 256.075C479 257.336 478.499 258.545 477.608 259.437C476.716 260.328 475.507 260.829 474.247 260.829ZM472.359 254.105H471.822L470.512 254.771V255.45L471.551 254.906V258.044H472.366V254.105H472.359ZM473.921 254.648C474.308 254.648 474.579 254.866 474.579 255.178C474.579 255.518 474.26 255.755 473.798 255.755H473.595V256.333H473.839C474.328 256.333 474.661 256.577 474.661 256.931C474.661 257.27 474.335 257.501 473.873 257.501C473.534 257.501 473.194 257.392 472.841 257.182V257.861C473.221 258.024 473.601 258.112 473.975 258.112C474.865 258.112 475.476 257.657 475.476 256.998C475.476 256.537 475.19 256.163 474.715 256.014C475.123 255.878 475.387 255.518 475.387 255.11C475.387 254.472 474.824 254.037 474.009 254.037C473.642 254.041 473.279 254.12 472.943 254.268V254.934C473.269 254.75 473.601 254.648 473.921 254.648ZM476.854 256.129C477.35 256.129 477.696 256.421 477.696 256.801C477.696 257.202 477.35 257.481 476.854 257.481C476.555 257.481 476.243 257.386 475.924 257.189V257.888C476.257 258.038 476.596 258.112 476.929 258.112C477.105 258.112 477.268 258.085 477.425 258.044C477.778 257.467 477.981 256.801 477.981 256.088L477.968 255.803C477.715 255.654 477.426 255.578 477.133 255.586C477.01 255.586 476.881 255.592 476.746 255.613V254.73H477.723C477.639 254.512 477.534 254.303 477.411 254.105H476.039V256.245C476.311 256.177 476.583 256.129 476.854 256.129Z" fill="#565656"/>
<path d="M116.128 301.588V310.451H114.899L110.393 303.951H110.311V310.451H108.974V301.588H110.212L114.721 308.097H114.804V301.588H116.128ZM120.109 310.598C119.688 310.598 119.307 310.52 118.967 310.365C118.626 310.206 118.357 309.977 118.158 309.676C117.961 309.376 117.863 309.009 117.863 308.573C117.863 308.198 117.935 307.889 118.08 307.647C118.224 307.404 118.419 307.212 118.664 307.071C118.909 306.93 119.183 306.823 119.486 306.751C119.789 306.679 120.098 306.624 120.412 306.586C120.811 306.54 121.134 306.503 121.382 306.474C121.63 306.442 121.81 306.392 121.923 306.322C122.035 306.253 122.092 306.141 122.092 305.985V305.954C122.092 305.576 121.985 305.284 121.771 305.076C121.561 304.868 121.246 304.764 120.828 304.764C120.392 304.764 120.049 304.861 119.798 305.054C119.55 305.245 119.378 305.457 119.283 305.69L118.067 305.413C118.211 305.009 118.422 304.683 118.699 304.435C118.978 304.184 119.3 304.003 119.664 303.89C120.027 303.775 120.41 303.717 120.811 303.717C121.076 303.717 121.357 303.749 121.655 303.812C121.955 303.873 122.234 303.985 122.494 304.15C122.757 304.314 122.972 304.549 123.139 304.855C123.306 305.158 123.39 305.552 123.39 306.037V310.451H122.126V309.542H122.074C121.991 309.71 121.865 309.874 121.698 310.036C121.53 310.197 121.315 310.331 121.053 310.438C120.79 310.545 120.476 310.598 120.109 310.598ZM120.391 309.56C120.749 309.56 121.054 309.489 121.308 309.348C121.565 309.206 121.76 309.022 121.893 308.794C122.028 308.563 122.096 308.316 122.096 308.053V307.197C122.05 307.243 121.96 307.286 121.828 307.326C121.698 307.364 121.549 307.397 121.382 307.426C121.214 307.452 121.051 307.476 120.893 307.5C120.734 307.52 120.601 307.537 120.495 307.551C120.244 307.583 120.014 307.637 119.806 307.712C119.602 307.787 119.437 307.895 119.313 308.036C119.192 308.175 119.131 308.359 119.131 308.59C119.131 308.91 119.25 309.153 119.486 309.317C119.723 309.479 120.024 309.56 120.391 309.56ZM125.314 310.451V303.803H126.556V304.885H126.638C126.776 304.519 127.003 304.233 127.317 304.028C127.632 303.821 128.008 303.717 128.447 303.717C128.891 303.717 129.264 303.821 129.564 304.028C129.867 304.236 130.09 304.522 130.234 304.885H130.304C130.462 304.531 130.715 304.248 131.061 304.037C131.407 303.824 131.82 303.717 132.299 303.717C132.902 303.717 133.394 303.906 133.775 304.284C134.159 304.662 134.35 305.232 134.35 305.993V310.451H133.056V306.115C133.056 305.664 132.934 305.338 132.688 305.136C132.443 304.934 132.15 304.833 131.81 304.833C131.389 304.833 131.061 304.963 130.827 305.223C130.594 305.48 130.477 305.81 130.477 306.214V310.451H129.187V306.032C129.187 305.672 129.075 305.382 128.85 305.162C128.624 304.943 128.332 304.833 127.971 304.833C127.726 304.833 127.499 304.898 127.291 305.028C127.087 305.155 126.921 305.333 126.794 305.561C126.67 305.789 126.608 306.053 126.608 306.353V310.451H125.314ZM139.15 310.585C138.495 310.585 137.931 310.445 137.458 310.166C136.987 309.883 136.624 309.486 136.367 308.975C136.113 308.462 135.986 307.86 135.986 307.171C135.986 306.49 136.113 305.89 136.367 305.37C136.624 304.851 136.982 304.445 137.44 304.154C137.902 303.863 138.442 303.717 139.059 303.717C139.434 303.717 139.798 303.779 140.15 303.903C140.502 304.027 140.818 304.222 141.097 304.487C141.377 304.753 141.598 305.098 141.76 305.522C141.921 305.943 142.002 306.455 142.002 307.058V307.517H136.718V306.547H140.734C140.734 306.207 140.665 305.905 140.526 305.643C140.388 305.377 140.193 305.168 139.942 305.015C139.694 304.862 139.402 304.786 139.068 304.786C138.704 304.786 138.387 304.875 138.116 305.054C137.847 305.23 137.639 305.461 137.492 305.747C137.348 306.029 137.276 306.337 137.276 306.669V307.426C137.276 307.87 137.354 308.248 137.51 308.56C137.668 308.871 137.889 309.11 138.172 309.274C138.455 309.436 138.785 309.516 139.163 309.516C139.408 309.516 139.632 309.482 139.834 309.412C140.036 309.34 140.21 309.234 140.357 309.092C140.505 308.951 140.617 308.776 140.695 308.569L141.92 308.789C141.822 309.15 141.646 309.466 141.392 309.737C141.141 310.005 140.825 310.215 140.444 310.365C140.066 310.512 139.635 310.585 139.15 310.585ZM149.863 310.585C149.24 310.585 148.696 310.443 148.232 310.157C147.767 309.871 147.407 309.472 147.15 308.958C146.893 308.444 146.765 307.844 146.765 307.158C146.765 306.468 146.893 305.865 147.15 305.349C147.407 304.832 147.767 304.431 148.232 304.145C148.696 303.86 149.24 303.717 149.863 303.717C150.487 303.717 151.031 303.86 151.495 304.145C151.96 304.431 152.32 304.832 152.577 305.349C152.834 305.865 152.962 306.468 152.962 307.158C152.962 307.844 152.834 308.444 152.577 308.958C152.32 309.472 151.96 309.871 151.495 310.157C151.031 310.443 150.487 310.585 149.863 310.585ZM149.868 309.499C150.272 309.499 150.606 309.392 150.872 309.179C151.137 308.965 151.333 308.681 151.46 308.326C151.59 307.971 151.655 307.58 151.655 307.153C151.655 306.729 151.59 306.34 151.46 305.985C151.333 305.627 151.137 305.34 150.872 305.123C150.606 304.907 150.272 304.799 149.868 304.799C149.461 304.799 149.123 304.907 148.855 305.123C148.59 305.34 148.392 305.627 148.262 305.985C148.135 306.34 148.072 306.729 148.072 307.153C148.072 307.58 148.135 307.971 148.262 308.326C148.392 308.681 148.59 308.965 148.855 309.179C149.123 309.392 149.461 309.499 149.868 309.499ZM155.901 306.504V310.451H154.607V303.803H155.849V304.885H155.931C156.084 304.533 156.323 304.251 156.649 304.037C156.978 303.824 157.392 303.717 157.892 303.717C158.345 303.717 158.741 303.812 159.082 304.003C159.422 304.19 159.686 304.47 159.874 304.842C160.061 305.214 160.155 305.675 160.155 306.223V310.451H158.861V306.379C158.861 305.897 158.736 305.52 158.485 305.249C158.233 304.975 157.889 304.838 157.45 304.838C157.15 304.838 156.883 304.903 156.649 305.033C156.419 305.162 156.235 305.353 156.1 305.604C155.967 305.852 155.901 306.152 155.901 306.504ZM168.316 310.585C167.673 310.585 167.119 310.44 166.654 310.148C166.193 309.854 165.838 309.449 165.59 308.932C165.341 308.416 165.217 307.824 165.217 307.158C165.217 306.482 165.344 305.887 165.598 305.37C165.852 304.851 166.21 304.445 166.672 304.154C167.133 303.863 167.677 303.717 168.303 303.717C168.808 303.717 169.258 303.811 169.654 303.998C170.049 304.183 170.368 304.443 170.61 304.777C170.855 305.112 171.001 305.503 171.047 305.95H169.788C169.718 305.638 169.56 305.37 169.312 305.145C169.066 304.92 168.737 304.808 168.325 304.808C167.964 304.808 167.648 304.903 167.377 305.093C167.109 305.281 166.899 305.549 166.749 305.898C166.599 306.244 166.524 306.654 166.524 307.127C166.524 307.612 166.598 308.03 166.745 308.382C166.892 308.734 167.1 309.007 167.368 309.2C167.64 309.394 167.958 309.49 168.325 309.49C168.57 309.49 168.792 309.446 168.991 309.356C169.193 309.264 169.362 309.133 169.498 308.962C169.636 308.792 169.733 308.587 169.788 308.348H171.047C171.001 308.778 170.861 309.161 170.627 309.499C170.394 309.837 170.081 310.102 169.688 310.295C169.299 310.489 168.841 310.585 168.316 310.585ZM174.566 310.598C174.144 310.598 173.763 310.52 173.423 310.365C173.083 310.206 172.813 309.977 172.614 309.676C172.417 309.376 172.319 309.009 172.319 308.573C172.319 308.198 172.391 307.889 172.536 307.647C172.68 307.404 172.875 307.212 173.12 307.071C173.365 306.93 173.639 306.823 173.942 306.751C174.245 306.679 174.554 306.624 174.869 306.586C175.267 306.54 175.59 306.503 175.838 306.474C176.086 306.442 176.266 306.392 176.379 306.322C176.492 306.253 176.548 306.141 176.548 305.985V305.954C176.548 305.576 176.441 305.284 176.228 305.076C176.017 304.868 175.702 304.764 175.284 304.764C174.848 304.764 174.505 304.861 174.254 305.054C174.006 305.245 173.834 305.457 173.739 305.69L172.523 305.413C172.667 305.009 172.878 304.683 173.155 304.435C173.435 304.184 173.756 304.003 174.12 303.89C174.483 303.775 174.866 303.717 175.267 303.717C175.532 303.717 175.813 303.749 176.111 303.812C176.411 303.873 176.691 303.985 176.95 304.15C177.213 304.314 177.428 304.549 177.595 304.855C177.762 305.158 177.846 305.552 177.846 306.037V310.451H176.582V309.542H176.53C176.447 309.71 176.321 309.874 176.154 310.036C175.987 310.197 175.772 310.331 175.509 310.438C175.246 310.545 174.932 310.598 174.566 310.598ZM174.847 309.56C175.205 309.56 175.511 309.489 175.764 309.348C176.021 309.206 176.216 309.022 176.349 308.794C176.484 308.563 176.552 308.316 176.552 308.053V307.197C176.506 307.243 176.416 307.286 176.284 307.326C176.154 307.364 176.005 307.397 175.838 307.426C175.671 307.452 175.508 307.476 175.349 307.5C175.19 307.52 175.058 307.537 174.951 307.551C174.7 307.583 174.47 307.637 174.263 307.712C174.058 307.787 173.893 307.895 173.769 308.036C173.648 308.175 173.587 308.359 173.587 308.59C173.587 308.91 173.706 309.153 173.942 309.317C174.179 309.479 174.48 309.56 174.847 309.56ZM179.77 310.451V303.803H181.021V304.859H181.09C181.211 304.502 181.424 304.22 181.73 304.016C182.039 303.808 182.388 303.704 182.778 303.704C182.858 303.704 182.954 303.707 183.063 303.713C183.176 303.718 183.264 303.726 183.327 303.734V304.972C183.275 304.958 183.183 304.942 183.05 304.924C182.918 304.904 182.785 304.894 182.652 304.894C182.346 304.894 182.074 304.959 181.834 305.089C181.598 305.216 181.41 305.393 181.272 305.621C181.133 305.846 181.064 306.103 181.064 306.392V310.451H179.77ZM186.898 310.581C186.361 310.581 185.882 310.444 185.461 310.17C185.042 309.893 184.714 309.499 184.474 308.988C184.237 308.475 184.119 307.859 184.119 307.14C184.119 306.422 184.239 305.807 184.478 305.297C184.721 304.786 185.053 304.395 185.474 304.124C185.895 303.852 186.373 303.717 186.906 303.717C187.319 303.717 187.651 303.786 187.902 303.925C188.156 304.06 188.352 304.219 188.49 304.401C188.632 304.582 188.741 304.743 188.819 304.881H188.897V301.588H190.191V310.451H188.928V309.417H188.819C188.741 309.558 188.629 309.72 188.482 309.902C188.337 310.083 188.138 310.242 187.884 310.378C187.631 310.513 187.302 310.581 186.898 310.581ZM187.183 309.477C187.556 309.477 187.87 309.379 188.127 309.183C188.387 308.984 188.583 308.708 188.715 308.356C188.851 308.004 188.919 307.595 188.919 307.127C188.919 306.666 188.853 306.262 188.72 305.915C188.587 305.569 188.392 305.299 188.136 305.106C187.879 304.913 187.561 304.816 187.183 304.816C186.794 304.816 186.469 304.917 186.21 305.119C185.95 305.321 185.754 305.597 185.621 305.946C185.491 306.295 185.426 306.689 185.426 307.127C185.426 307.572 185.493 307.971 185.625 308.326C185.758 308.681 185.954 308.962 186.214 309.17C186.476 309.375 186.8 309.477 187.183 309.477Z" fill="#0A2540"/>
<rect x="108.5" y="320.951" width="383" height="39" rx="5.5" fill="white"/>
<rect x="108.5" y="320.951" width="383" height="39" rx="5.5" stroke="#E6EBF1"/>
</g>
</g>
</g>
<g opacity="0.3">
<path d="M0 0.800781H500V330.131C500 332.34 498.209 334.131 496 334.131H4.00001C1.79087 334.131 0 332.34 0 330.131V0.800781Z" fill="url(#paint0_linear_4003_1133)"/>
</g>
</g>
<defs>
<linearGradient id="paint0_linear_4003_1133" x1="250" y1="0.800781" x2="250" y2="334.131" gradientUnits="userSpaceOnUse">
<stop stop-color="#BEC9DC" stop-opacity="0"/>
<stop offset="1" stop-color="#BEC9DC" stop-opacity="0.4"/>
</linearGradient>
<clipPath id="clip0_4003_1133">
<rect y="0.800781" width="500" height="333.33" rx="4" fill="white"/>
</clipPath>
<clipPath id="clip1_4003_1133">
<rect y="0.800781" width="500" height="333.33" rx="4" fill="white"/>
</clipPath>
<clipPath id="clip2_4003_1133">
<rect width="500" height="333.33" fill="white" transform="translate(70 67.4512)"/>
</clipPath>
<clipPath id="clip3_4003_1133">
<rect x="70" y="67.4512" width="460" height="363" rx="8" fill="white"/>
</clipPath>
</defs>
</svg>
