<svg width="500" height="334" viewBox="0 0 500 334" fill="none" xmlns="http://www.w3.org/2000/svg">
<g clip-path="url(#clip0_4003_1051)">
<rect y="0.480469" width="500" height="333.33" rx="4" fill="#F6F9FC"/>
<g clip-path="url(#clip1_4003_1051)">
<g clip-path="url(#clip2_4003_1051)">
<g clip-path="url(#clip3_4003_1051)">
<rect x="70" y="67.1406" width="434" height="272" rx="8" fill="white"/>
<g clip-path="url(#clip4_4003_1051)">
<g clip-path="url(#clip5_4003_1051)">
<g clip-path="url(#clip6_4003_1051)">
<mask id="mask0_4003_1051" style="mask-type:luminance" maskUnits="userSpaceOnUse" x="70" y="67" width="434" height="273">
<path d="M70 75.1406C70 73.0189 70.8429 70.9841 72.3431 69.4838C73.8434 67.9835 75.8783 67.1406 78 67.1406H504V339.141H70V75.1406Z" fill="white"/>
</mask>
<g mask="url(#mask0_4003_1051)">
<path d="M70 75.1406C70 73.0189 70.8429 70.9841 72.3431 69.4838C73.8434 67.9835 75.8783 67.1406 78 67.1406H504V339.141H70V75.1406Z" fill="white"/>
<path d="M277.086 118.05H278.869L281.83 122.813H284.827L281.634 117.801C283.436 117.284 284.488 115.981 284.488 114.038C284.488 111.398 282.651 110.006 279.708 110.006H274.464V122.813H277.086V118.05ZM277.086 115.857V112.236H279.565C281.099 112.236 281.884 112.896 281.884 114.056C281.884 115.197 281.099 115.856 279.565 115.856L277.086 115.857ZM294.895 118.122C294.895 115.215 293.004 113.252 290.293 113.252C287.582 113.252 285.691 115.215 285.691 118.122C285.691 121.047 287.582 123.01 290.293 123.01C293.004 123.01 294.895 121.048 294.895 118.122ZM288.171 118.122C288.171 116.356 288.991 115.322 290.293 115.322C291.595 115.322 292.398 116.356 292.398 118.122C292.398 119.906 291.595 120.941 290.293 120.941C288.991 120.941 288.171 119.906 288.171 118.122ZM298.664 118.122C298.664 116.374 299.538 115.34 300.858 115.34C301.893 115.34 302.517 116.053 302.749 117.016L304.871 116.018C304.426 114.501 302.999 113.253 300.84 113.253C298.111 113.253 296.185 115.233 296.185 118.123C296.185 121.03 298.111 123.01 300.84 123.01C303.016 123.01 304.479 121.725 304.907 120.191L302.749 119.228C302.517 120.191 301.893 120.905 300.858 120.905C299.538 120.905 298.664 119.888 298.664 118.122ZM308.91 110.006H306.413V122.813H308.91V119.942L310.016 118.8L312.602 122.813H315.456L311.746 116.998L315.189 113.431H312.192L308.91 117.07V110.006ZM320.33 123.01C322.202 123.01 323.79 122.046 324.468 120.334L322.363 119.584C322.078 120.494 321.311 120.958 320.347 120.958C319.117 120.958 318.243 120.102 318.064 118.675H324.521V117.944C324.521 115.322 323.023 113.253 320.24 113.253C317.583 113.253 315.674 115.358 315.674 118.123C315.674 121.03 317.565 123.01 320.33 123.01ZM320.223 115.25C321.435 115.25 322.024 116.053 322.042 116.98H318.153C318.457 115.84 319.224 115.25 320.223 115.25ZM326.552 120.37C326.552 122.296 327.551 122.92 329.442 122.92C330.066 122.92 330.601 122.867 331.047 122.778V120.708C330.763 120.745 330.477 120.763 330.191 120.762C329.46 120.762 329.014 120.655 329.014 119.852V115.518H330.922V113.431H329.014V110.756H326.552V113.431H325.304V115.518H326.552V120.37ZM335.553 118.05H337.337L340.298 122.813H343.295L340.102 117.801C341.903 117.284 342.956 115.981 342.956 114.038C342.956 111.398 341.119 110.006 338.175 110.006H332.931V122.813H335.553V118.05ZM335.553 115.857V112.236H338.033C339.567 112.236 340.352 112.896 340.352 114.056C340.352 115.197 339.567 115.856 338.033 115.856L335.553 115.857ZM344.798 112.325H347.349V110.006H344.798V112.325ZM347.331 113.431H344.834V122.813H347.331V113.431ZM353.198 123.01C354.375 123.01 355.267 122.546 355.82 121.85V122.813H358.317V110.006H355.82V114.394C355.267 113.717 354.375 113.253 353.198 113.253C350.611 113.253 349.113 115.465 349.113 118.123C349.113 120.798 350.611 123.01 353.198 123.01ZM355.873 117.873V118.39C355.873 119.977 354.981 120.87 353.786 120.87C352.377 120.87 351.628 119.745 351.628 118.122C351.628 116.517 352.377 115.393 353.786 115.393C354.981 115.393 355.873 116.267 355.873 117.873ZM364.785 123.01C366.658 123.01 368.245 122.046 368.923 120.334L366.819 119.584C366.533 120.494 365.766 120.958 364.803 120.958C363.572 120.958 362.698 120.102 362.52 118.675H368.977V117.944C368.977 115.322 367.478 113.253 364.696 113.253C362.038 113.253 360.13 115.358 360.13 118.123C360.13 121.03 362.02 123.01 364.785 123.01ZM364.678 115.25C365.891 115.25 366.48 116.053 366.497 116.98H362.609C362.912 115.84 363.679 115.25 364.678 115.25ZM369.848 121.226C370.704 122.386 372.488 123.01 374.182 123.01C376.43 123.01 378.249 121.797 378.249 119.835C378.249 117.712 376.305 117.337 374.664 116.998C373.505 116.767 372.88 116.66 372.88 116.053C372.88 115.536 373.398 115.197 374.182 115.197C375.163 115.197 376.073 115.643 376.697 116.445L378.124 114.875C377.393 113.931 375.913 113.253 374.254 113.253C372.006 113.253 370.419 114.501 370.419 116.303C370.419 118.318 372.096 118.711 373.612 119.014C375.11 119.299 375.806 119.389 375.806 120.102C375.806 120.78 375.074 121.065 374.236 121.065C373.184 121.065 372.042 120.512 371.4 119.638L369.848 121.226ZM379.554 122.813H380.785V122.938C380.785 123.705 380.374 124.062 379.554 124.115V125.435C381.32 125.435 382.479 124.437 382.479 122.76V119.924H379.554V122.813ZM391.12 110.006H388.498V122.813H391.12V110.006ZM393.572 122.813H396.069V117.391C396.069 116.161 396.925 115.536 397.799 115.536C398.87 115.536 399.298 116.285 399.298 117.337V122.813H401.795V116.623C401.795 114.591 400.6 113.253 398.638 113.253C397.443 113.253 396.586 113.788 396.069 114.394V113.431H393.572V122.813ZM406.027 118.123C406.027 116.374 406.901 115.34 408.221 115.34C409.255 115.34 409.88 116.053 410.112 117.016L412.234 116.018C411.788 114.501 410.361 113.253 408.203 113.253C405.474 113.253 403.548 115.233 403.548 118.123C403.548 121.03 405.474 123.01 408.203 123.01C410.379 123.01 411.842 121.725 412.27 120.191L410.112 119.228C409.88 120.191 409.255 120.905 408.221 120.905C406.901 120.905 406.027 119.888 406.027 118.122V118.123ZM413.558 122.813H416.483V119.923H413.558V122.813Z" fill="#0A2540"/>
<path d="M865.527 138.518H280.475C276.534 138.518 273.34 141.712 273.34 145.653V170.787C273.34 174.727 276.534 177.922 280.475 177.922H865.527C869.467 177.922 872.662 174.727 872.662 170.787V145.653C872.662 141.712 869.467 138.518 865.527 138.518Z" fill="white"/>
<path fill-rule="evenodd" clip-rule="evenodd" d="M303.662 158.219C303.662 160.111 302.91 161.926 301.572 163.264C300.234 164.602 298.419 165.354 296.527 165.354C294.635 165.354 292.82 164.602 291.482 163.264C290.144 161.926 289.392 160.111 289.392 158.219C289.392 156.327 290.144 154.512 291.482 153.174C292.82 151.836 294.635 151.084 296.527 151.084C298.419 151.084 300.234 151.836 301.572 153.174C302.91 154.512 303.662 156.327 303.662 158.219ZM300.538 155.539C300.371 155.372 300.144 155.278 299.908 155.278C299.671 155.278 299.444 155.372 299.277 155.539L295.636 159.187L294.037 157.588C293.867 157.433 293.645 157.35 293.415 157.355C293.186 157.361 292.967 157.454 292.805 157.616C292.642 157.779 292.548 157.997 292.543 158.227C292.538 158.456 292.621 158.679 292.775 158.849L295.005 161.079C295.172 161.246 295.399 161.34 295.636 161.34C295.872 161.34 296.099 161.246 296.266 161.079L300.538 156.8C300.621 156.717 300.687 156.619 300.732 156.511C300.777 156.403 300.8 156.287 300.8 156.169C300.8 156.052 300.777 155.936 300.732 155.828C300.687 155.72 300.621 155.622 300.538 155.539Z" fill="#15BE53"/>
<g filter="url(#filter0_d_4003_1051)">
<path d="M319.717 138.518H858.393V177.922H319.717V138.518Z" fill="white"/>
<path d="M322.339 154.254V163.219H320.503V154.254H322.339ZM323.706 163.219V156.651H325.454V157.325C325.816 156.901 326.415 156.526 327.252 156.526C328.625 156.526 329.462 157.463 329.462 158.886V163.219H327.714V159.385C327.714 158.649 327.414 158.125 326.665 158.125C326.053 158.125 325.454 158.561 325.454 159.423V163.219H323.706ZM332.074 159.935C332.074 161.171 332.686 161.883 333.61 161.883C334.334 161.883 334.771 161.383 334.933 160.709L336.444 161.383C336.144 162.457 335.121 163.356 333.597 163.356C331.687 163.356 330.339 161.97 330.339 159.935C330.339 157.912 331.687 156.526 333.597 156.526C335.108 156.526 336.107 157.4 336.419 158.461L334.933 159.161C334.771 158.487 334.334 157.987 333.61 157.987C332.686 157.987 332.074 158.711 332.074 159.935ZM343.204 159.935C343.204 161.982 341.88 163.356 339.983 163.356C338.085 163.356 336.761 161.982 336.761 159.935C336.761 157.9 338.085 156.526 339.983 156.526C341.88 156.526 343.204 157.9 343.204 159.935ZM338.497 159.935C338.497 161.183 339.071 161.908 339.983 161.908C340.894 161.908 341.456 161.183 341.456 159.935C341.456 158.699 340.894 157.975 339.983 157.975C339.071 157.975 338.497 158.699 338.497 159.935ZM348.052 156.639V158.349C347.866 158.324 347.678 158.311 347.49 158.312C346.579 158.312 345.88 158.874 345.88 159.885V163.219H344.132V156.651H345.88V157.575C346.167 157.001 346.816 156.614 347.628 156.614C347.803 156.614 347.927 156.626 348.052 156.639ZM352.455 163.356C351.631 163.356 351.007 163.031 350.62 162.544V165.441H348.872V156.651H350.62V157.325C351.007 156.851 351.631 156.526 352.455 156.526C354.266 156.526 355.314 158.074 355.314 159.935C355.314 161.808 354.266 163.356 352.455 163.356ZM350.582 159.76V160.122C350.582 161.233 351.207 161.858 352.043 161.858C353.029 161.858 353.554 161.071 353.554 159.935C353.554 158.811 353.029 158.025 352.043 158.025C351.207 158.025 350.582 158.636 350.582 159.76ZM362.289 159.935C362.289 161.982 360.965 163.356 359.067 163.356C357.17 163.356 355.846 161.982 355.846 159.935C355.846 157.9 357.17 156.526 359.067 156.526C360.965 156.526 362.289 157.9 362.289 159.935ZM357.582 159.935C357.582 161.183 358.156 161.908 359.067 161.908C359.979 161.908 360.541 161.183 360.541 159.935C360.541 158.699 359.979 157.975 359.067 157.975C358.156 157.975 357.582 158.699 357.582 159.935ZM367.137 156.639V158.349C366.951 158.324 366.763 158.311 366.575 158.312C365.664 158.312 364.965 158.874 364.965 159.885V163.219H363.217V156.651H364.965V157.575C365.252 157.001 365.901 156.614 366.713 156.614C366.888 156.614 367.012 156.626 367.137 156.639ZM373.092 161.608C373.092 162.17 373.117 162.732 373.192 163.218H371.507C371.492 163.044 371.483 162.869 371.482 162.694C371.057 163.106 370.42 163.331 369.621 163.331C368.335 163.331 367.374 162.557 367.374 161.396C367.374 160.085 368.41 159.536 369.746 159.298L371.382 158.986V158.699C371.382 158.174 371.032 157.962 370.408 157.962C369.696 157.962 369.397 158.249 369.359 158.774H367.661C367.724 157.263 368.872 156.526 370.495 156.526C372.119 156.526 373.092 157.213 373.092 158.474V161.608ZM371.382 160.884V160.21L370.108 160.46C369.521 160.572 369.097 160.759 369.097 161.283C369.097 161.745 369.434 161.995 369.958 161.995C370.695 161.995 371.382 161.62 371.382 160.884ZM374.53 161.508V158.112H373.656V156.652H374.53V154.778H376.253V156.651H377.589V158.111H376.253V161.146C376.253 161.708 376.565 161.783 377.077 161.783C377.327 161.783 377.451 161.77 377.676 161.745V163.194C377.364 163.256 376.989 163.294 376.552 163.294C375.229 163.294 374.53 162.856 374.53 161.508ZM381.406 163.356C379.47 163.356 378.147 161.97 378.147 159.935C378.147 158 379.483 156.526 381.343 156.526C383.291 156.526 384.34 157.975 384.34 159.81V160.322H379.82C379.945 161.321 380.557 161.92 381.418 161.92C382.092 161.92 382.629 161.595 382.829 160.959L384.302 161.483C383.828 162.682 382.717 163.356 381.406 163.356ZM381.331 157.925C380.632 157.925 380.095 158.337 379.882 159.135H382.604C382.592 158.487 382.18 157.925 381.331 157.925ZM390.82 163.593C390.396 164.754 389.796 165.503 388.348 165.503C388.011 165.503 387.886 165.491 387.661 165.466V164.056C387.848 164.068 387.961 164.08 388.161 164.08C388.623 164.08 388.872 163.955 389.06 163.48L389.272 162.956L386.912 156.651H388.722L390.208 160.971L391.657 156.651H393.417L390.82 163.593ZM399.785 159.935C399.785 161.982 398.461 163.356 396.564 163.356C394.666 163.356 393.342 161.982 393.342 159.935C393.342 157.9 394.666 156.526 396.564 156.526C398.461 156.526 399.785 157.9 399.785 159.935ZM395.078 159.935C395.078 161.183 395.652 161.908 396.564 161.908C397.475 161.908 398.037 161.183 398.037 159.935C398.037 158.699 397.475 157.975 396.564 157.975C395.652 157.975 395.078 158.699 395.078 159.935ZM406.419 156.651V163.219H404.671V162.544C404.455 162.803 404.183 163.01 403.876 163.151C403.57 163.291 403.235 163.361 402.898 163.356C401.537 163.356 400.663 162.419 400.663 160.996V156.651H402.411V160.609C402.411 161.333 402.735 161.808 403.46 161.808C404.071 161.808 404.671 161.358 404.671 160.509V156.651H406.419ZM411.653 156.639V158.349C411.467 158.324 411.28 158.311 411.092 158.312C410.18 158.312 409.481 158.874 409.481 159.885V163.219H407.733V156.651H409.481V157.575C409.768 157.001 410.417 156.614 411.229 156.614C411.404 156.614 411.529 156.626 411.653 156.639ZM416.208 159.935C416.208 161.171 416.82 161.883 417.744 161.883C418.468 161.883 418.905 161.383 419.067 160.709L420.578 161.383C420.278 162.457 419.254 163.356 417.731 163.356C415.821 163.356 414.472 161.97 414.472 159.935C414.472 157.912 415.821 156.526 417.731 156.526C419.242 156.526 420.241 157.4 420.553 158.461L419.067 159.161C418.905 158.487 418.468 157.987 417.744 157.987C416.82 157.987 416.208 158.711 416.208 159.935ZM427.338 159.935C427.338 161.982 426.014 163.356 424.116 163.356C422.218 163.356 420.895 161.982 420.895 159.935C420.895 157.9 422.218 156.526 424.116 156.526C426.014 156.526 427.338 157.9 427.338 159.935ZM422.631 159.935C422.631 161.183 423.205 161.908 424.116 161.908C425.028 161.908 425.59 161.183 425.59 159.935C425.59 158.699 425.028 157.975 424.116 157.975C423.205 157.975 422.631 158.699 422.631 159.935ZM430.014 159.423V163.219H428.266V156.651H430.014V157.325C430.363 156.901 430.95 156.526 431.799 156.526C432.598 156.526 433.21 156.863 433.572 157.426C433.972 157.013 434.596 156.526 435.607 156.526C436.956 156.526 437.83 157.463 437.83 158.886V163.219H436.082V159.385C436.082 158.649 435.807 158.125 435.083 158.125C434.508 158.125 433.922 158.561 433.922 159.423V163.219H432.174V159.385C432.174 158.649 431.899 158.125 431.175 158.125C430.6 158.125 430.014 158.561 430.014 159.423ZM442.686 163.356C441.861 163.356 441.237 163.031 440.85 162.544V165.441H439.102V156.651H440.85V157.325C441.237 156.851 441.861 156.526 442.686 156.526C444.496 156.526 445.545 158.074 445.545 159.935C445.545 161.808 444.496 163.356 442.686 163.356ZM440.813 159.76V160.122C440.813 161.233 441.437 161.858 442.274 161.858C443.26 161.858 443.784 161.071 443.784 159.935C443.784 158.811 443.26 158.025 442.274 158.025C441.437 158.025 440.813 158.636 440.813 159.76ZM451.758 161.608C451.758 162.17 451.783 162.732 451.858 163.218H450.172C450.16 163.056 450.147 162.881 450.147 162.694C449.723 163.106 449.086 163.331 448.287 163.331C447.001 163.331 446.039 162.557 446.039 161.396C446.039 160.085 447.076 159.536 448.412 159.298L450.047 158.986V158.699C450.047 158.174 449.698 157.962 449.073 157.962C448.362 157.962 448.062 158.249 448.025 158.774H446.327C446.389 157.263 447.538 156.526 449.161 156.526C450.784 156.526 451.758 157.213 451.758 158.474V161.608ZM450.047 160.884V160.21L448.774 160.46C448.187 160.572 447.762 160.759 447.762 161.283C447.762 161.745 448.1 161.995 448.624 161.995C449.361 161.995 450.047 161.62 450.047 160.884ZM453.02 163.219V156.651H454.768V157.325C455.13 156.901 455.73 156.526 456.566 156.526C457.94 156.526 458.776 157.463 458.776 158.886V163.219H457.028V159.385C457.028 158.649 456.729 158.125 455.98 158.125C455.368 158.125 454.768 158.561 454.768 159.423V163.219H453.02ZM463.151 163.593C462.727 164.754 462.128 165.503 460.679 165.503C460.342 165.503 460.217 165.491 459.993 165.466V164.056C460.18 164.068 460.292 164.08 460.492 164.08C460.954 164.08 461.204 163.955 461.391 163.48L461.603 162.956L459.243 156.651H461.054L462.54 160.971L463.988 156.651H465.749L463.151 163.593Z" fill="#4F5B76"/>
</g>
<path d="M865.527 178.812H280.475C276.534 178.812 273.34 182.007 273.34 185.948V211.081C273.34 215.022 276.534 218.217 280.475 218.217H865.527C869.467 218.217 872.662 215.022 872.662 211.081V185.948C872.662 182.007 869.467 178.812 865.527 178.812Z" fill="white"/>
<path fill-rule="evenodd" clip-rule="evenodd" d="M303.662 198.514C303.662 200.406 302.91 202.221 301.572 203.559C300.234 204.897 298.419 205.649 296.527 205.649C294.635 205.649 292.82 204.897 291.482 203.559C290.144 202.221 289.392 200.406 289.392 198.514C289.392 196.622 290.144 194.807 291.482 193.469C292.82 192.131 294.635 191.379 296.527 191.379C298.419 191.379 300.234 192.131 301.572 193.469C302.91 194.807 303.662 196.622 303.662 198.514ZM300.538 195.834C300.371 195.667 300.144 195.573 299.908 195.573C299.671 195.573 299.444 195.667 299.277 195.834L295.636 199.482L294.037 197.883C293.867 197.728 293.645 197.645 293.415 197.65C293.186 197.656 292.967 197.749 292.805 197.911C292.642 198.074 292.548 198.292 292.543 198.522C292.538 198.751 292.621 198.974 292.775 199.144L295.005 201.374C295.172 201.541 295.399 201.635 295.636 201.635C295.872 201.635 296.099 201.541 296.266 201.374L300.538 197.095C300.621 197.012 300.687 196.914 300.732 196.806C300.777 196.698 300.8 196.582 300.8 196.464C300.8 196.347 300.777 196.231 300.732 196.123C300.687 196.015 300.621 195.917 300.538 195.834Z" fill="#15BE53"/>
<g filter="url(#filter1_d_4003_1051)">
<path d="M319.717 178.812H858.393V218.217H319.717V178.812Z" fill="white"/>
<path d="M319.604 201.878L320.865 200.655C321.527 201.591 322.489 202.115 323.475 202.115C324.411 202.115 325.098 201.703 325.098 200.942C325.098 200.118 324.249 200.005 322.901 199.706C321.565 199.393 320.116 198.969 320.116 197.196C320.116 195.485 321.59 194.412 323.45 194.412C324.998 194.412 326.209 195.098 326.834 195.997L325.623 197.183C325.098 196.447 324.399 195.947 323.4 195.947C322.526 195.947 321.927 196.372 321.927 197.021C321.927 197.72 322.576 197.858 323.75 198.12C325.173 198.432 326.921 198.794 326.921 200.754C326.921 202.565 325.323 203.651 323.413 203.651C321.902 203.651 320.329 202.964 319.604 201.878ZM328.014 201.803V198.407H327.14V196.946H328.014V195.073H329.737V196.946H331.073V198.407H329.737V201.441C329.737 202.003 330.049 202.078 330.561 202.078C330.811 202.078 330.936 202.065 331.16 202.04V203.489C330.848 203.551 330.474 203.589 330.037 203.589C328.713 203.589 328.014 203.152 328.014 201.803ZM338.074 200.23C338.074 202.278 336.75 203.651 334.852 203.651C332.955 203.651 331.631 202.278 331.631 200.23C331.631 198.195 332.955 196.821 334.852 196.821C336.75 196.821 338.074 198.195 338.074 200.23ZM333.367 200.23C333.367 201.479 333.941 202.203 334.852 202.203C335.764 202.203 336.326 201.479 336.326 200.23C336.326 198.994 335.764 198.27 334.852 198.27C333.941 198.27 333.367 198.994 333.367 200.23ZM340.362 200.23C340.362 201.466 340.974 202.178 341.898 202.178C342.622 202.178 343.059 201.678 343.222 201.004L344.732 201.678C344.433 202.752 343.409 203.651 341.886 203.651C339.975 203.651 338.627 202.265 338.627 200.23C338.627 198.207 339.975 196.821 341.886 196.821C343.396 196.821 344.395 197.695 344.707 198.757L343.222 199.456C343.059 198.782 342.622 198.282 341.898 198.282C340.974 198.282 340.362 199.006 340.362 200.23ZM347.184 194.549V199.493L349.482 196.946H351.579L349.17 199.443L351.767 203.514H349.769L347.959 200.704L347.184 201.504V203.514H345.436V194.549H347.184ZM354.672 196.172V194.549H356.457V196.172H354.672ZM356.445 196.946V203.514H354.697V196.946H356.445ZM357.093 202.403L358.179 201.291C358.628 201.903 359.428 202.29 360.164 202.29C360.751 202.29 361.263 202.09 361.263 201.616C361.263 201.116 360.776 201.054 359.727 200.854C358.666 200.642 357.492 200.367 357.492 198.956C357.492 197.695 358.603 196.821 360.177 196.821C361.338 196.821 362.374 197.296 362.886 197.958L361.887 199.056C361.681 198.785 361.415 198.564 361.109 198.413C360.804 198.261 360.468 198.182 360.127 198.182C359.577 198.182 359.215 198.42 359.215 198.782C359.215 199.206 359.652 199.281 360.464 199.443C361.613 199.681 362.974 199.943 362.974 201.429C362.974 202.802 361.7 203.651 360.127 203.651C358.941 203.651 357.692 203.214 357.093 202.403ZM363.21 202.403L364.297 201.291C364.746 201.903 365.545 202.29 366.282 202.29C366.869 202.29 367.381 202.09 367.381 201.616C367.381 201.116 366.894 201.054 365.845 200.854C364.784 200.642 363.61 200.367 363.61 198.956C363.61 197.695 364.721 196.821 366.294 196.821C367.456 196.821 368.492 197.296 369.004 197.958L368.005 199.056C367.799 198.785 367.533 198.564 367.227 198.413C366.922 198.261 366.586 198.182 366.245 198.182C365.695 198.182 365.333 198.42 365.333 198.782C365.333 199.206 365.77 199.281 366.582 199.443C367.73 199.681 369.091 199.943 369.091 201.429C369.091 202.802 367.818 203.651 366.245 203.651C365.058 203.651 363.81 203.214 363.21 202.403ZM375.671 196.946V203.514H373.923V202.84C373.707 203.099 373.435 203.306 373.128 203.446C372.822 203.587 372.487 203.657 372.15 203.651C370.789 203.651 369.915 202.715 369.915 201.291V196.946H371.663V200.904C371.663 201.628 371.988 202.103 372.712 202.103C373.324 202.103 373.923 201.653 373.923 200.804V196.946H375.671ZM379.857 203.651C377.922 203.651 376.598 202.265 376.598 200.23C376.598 198.295 377.934 196.821 379.795 196.821C381.743 196.821 382.791 198.27 382.791 200.105V200.617H378.271C378.396 201.616 379.008 202.215 379.87 202.215C380.544 202.215 381.081 201.891 381.281 201.254L382.754 201.778C382.279 202.977 381.168 203.651 379.857 203.651ZM379.782 198.22C379.083 198.22 378.546 198.632 378.334 199.431H381.056C381.043 198.782 380.631 198.22 379.782 198.22ZM386.16 203.651C384.35 203.651 383.301 202.103 383.301 200.23C383.301 198.37 384.35 196.821 386.16 196.821C386.984 196.821 387.609 197.146 387.996 197.62V194.549H389.744V203.514H387.996V202.84C387.609 203.326 386.984 203.651 386.16 203.651ZM388.033 200.055C388.033 198.931 387.409 198.32 386.572 198.32C385.586 198.32 385.062 199.106 385.062 200.23C385.062 201.366 385.586 202.153 386.572 202.153C387.409 202.153 388.033 201.529 388.033 200.417V200.055ZM396.683 194.449V195.885C396.521 195.872 396.421 195.872 396.233 195.872C395.684 195.872 395.397 196.035 395.397 196.684V196.946H396.67V198.407H395.397V203.514H393.649V198.407H392.762V196.946H393.649V196.584C393.649 195.198 394.398 194.424 396.009 194.424C396.258 194.424 396.408 194.424 396.683 194.449ZM403.33 200.23C403.33 202.278 402.006 203.651 400.109 203.651C398.211 203.651 396.887 202.278 396.887 200.23C396.887 198.195 398.211 196.821 400.109 196.821C402.006 196.821 403.33 198.195 403.33 200.23ZM398.623 200.23C398.623 201.479 399.197 202.203 400.109 202.203C401.02 202.203 401.582 201.479 401.582 200.23C401.582 198.994 401.02 198.27 400.109 198.27C399.197 198.27 398.623 198.994 398.623 200.23ZM408.178 196.934V198.644C407.992 198.619 407.804 198.607 407.616 198.607C406.705 198.607 406.006 199.169 406.006 200.18V203.514H404.258V196.946H406.006V197.87C406.293 197.296 406.942 196.909 407.754 196.909C407.929 196.909 408.053 196.921 408.178 196.934ZM414.631 194.449V195.885C414.468 195.872 414.368 195.872 414.181 195.872C413.632 195.872 413.345 196.035 413.345 196.684V196.946H414.618V198.407H413.345V203.514H411.597V198.407H410.71V196.946H411.597V196.584C411.597 195.198 412.346 194.424 413.956 194.424C414.206 194.424 414.356 194.424 414.631 194.449ZM421.278 200.23C421.278 202.278 419.954 203.651 418.056 203.651C416.158 203.651 414.835 202.278 414.835 200.23C414.835 198.195 416.158 196.821 418.056 196.821C419.954 196.821 421.278 198.195 421.278 200.23ZM416.57 200.23C416.57 201.479 417.145 202.203 418.056 202.203C418.968 202.203 419.53 201.479 419.53 200.23C419.53 198.994 418.968 198.27 418.056 198.27C417.145 198.27 416.57 198.994 416.57 200.23ZM427.912 196.946V203.514H426.164V202.84C425.947 203.099 425.676 203.306 425.369 203.446C425.062 203.586 424.728 203.656 424.391 203.651C423.03 203.651 422.156 202.715 422.156 201.291V196.946H423.904V200.904C423.904 201.628 424.228 202.103 424.952 202.103C425.564 202.103 426.164 201.653 426.164 200.804V196.946H427.912ZM429.226 203.514V196.946H430.974V197.62C431.336 197.196 431.935 196.821 432.772 196.821C434.145 196.821 434.982 197.758 434.982 199.181V203.514H433.234V199.681C433.234 198.944 432.934 198.42 432.185 198.42C431.573 198.42 430.974 198.857 430.974 199.718V203.514H429.226ZM438.705 203.651C436.895 203.651 435.846 202.103 435.846 200.23C435.846 198.37 436.895 196.821 438.705 196.821C439.529 196.821 440.154 197.146 440.541 197.62V194.549H442.289V203.514H440.541V202.84C440.154 203.326 439.529 203.651 438.705 203.651ZM440.578 200.055C440.578 198.931 439.954 198.32 439.117 198.32C438.131 198.32 437.607 199.106 437.607 200.23C437.607 201.366 438.131 202.153 439.117 202.153C439.954 202.153 440.578 201.529 440.578 200.417V200.055ZM446.467 203.651C444.531 203.651 443.208 202.265 443.208 200.23C443.208 198.295 444.544 196.821 446.404 196.821C448.352 196.821 449.401 198.27 449.401 200.105V200.617H444.881C445.006 201.616 445.618 202.215 446.479 202.215C447.153 202.215 447.69 201.891 447.89 201.254L449.363 201.778C448.889 202.977 447.778 203.651 446.467 203.651ZM446.392 198.22C445.693 198.22 445.156 198.632 444.943 199.431H447.665C447.653 198.782 447.241 198.22 446.392 198.22ZM454.219 196.934V198.644C454.019 198.619 453.869 198.607 453.657 198.607C452.745 198.607 452.046 199.169 452.046 200.18V203.514H450.298V196.946H452.046V197.87C452.333 197.296 452.982 196.909 453.794 196.909C453.969 196.909 454.094 196.921 454.219 196.934ZM454.291 202.403L455.377 201.291C455.827 201.903 456.626 202.29 457.363 202.29C457.95 202.29 458.461 202.09 458.461 201.616C458.461 201.116 457.975 201.054 456.926 200.854C455.864 200.642 454.691 200.367 454.691 198.956C454.691 197.695 455.802 196.821 457.375 196.821C458.536 196.821 459.573 197.296 460.085 197.958L459.086 199.056C458.88 198.784 458.613 198.564 458.308 198.413C458.002 198.261 457.666 198.182 457.325 198.182C456.776 198.182 456.414 198.42 456.414 198.782C456.414 199.206 456.851 199.281 457.662 199.443C458.811 199.681 460.172 199.943 460.172 201.429C460.172 202.802 458.898 203.651 457.325 203.651C456.139 203.651 454.89 203.214 454.291 202.403Z" fill="#4F5B76"/>
</g>
<path d="M865.527 219.109H280.475C276.534 219.109 273.34 222.304 273.34 226.244V251.378C273.34 255.319 276.534 258.513 280.475 258.513H865.527C869.467 258.513 872.662 255.319 872.662 251.378V226.244C872.662 222.304 869.467 219.109 865.527 219.109Z" fill="white"/>
<path fill-rule="evenodd" clip-rule="evenodd" d="M303.662 238.811C303.662 240.703 302.91 242.518 301.572 243.856C300.234 245.194 298.419 245.946 296.527 245.946C294.635 245.946 292.82 245.194 291.482 243.856C290.144 242.518 289.392 240.703 289.392 238.811C289.392 236.918 290.144 235.104 291.482 233.766C292.82 232.427 294.635 231.676 296.527 231.676C298.419 231.676 300.234 232.427 301.572 233.766C302.91 235.104 303.662 236.918 303.662 238.811ZM300.538 236.131C300.371 235.964 300.144 235.87 299.908 235.87C299.671 235.87 299.444 235.964 299.277 236.131L295.636 239.779L294.037 238.18C293.868 238.023 293.644 237.937 293.413 237.942C293.182 237.946 292.962 238.04 292.798 238.203C292.635 238.366 292.541 238.587 292.537 238.818C292.533 239.049 292.618 239.272 292.775 239.442L295.005 241.671C295.172 241.838 295.399 241.932 295.636 241.932C295.872 241.932 296.099 241.838 296.266 241.671L300.538 237.392C300.621 237.309 300.687 237.211 300.732 237.103C300.777 236.994 300.8 236.878 300.8 236.761C300.8 236.644 300.777 236.528 300.732 236.42C300.687 236.312 300.621 236.213 300.538 236.131Z" fill="#15BE53"/>
<g filter="url(#filter2_d_4003_1051)">
<path d="M319.717 219.109H858.393V258.513H319.717V219.109Z" fill="white"/>
<path d="M322.339 240.515V243.811H320.503V234.846H324.174C326.234 234.846 327.52 235.82 327.52 237.68C327.52 239.528 326.234 240.515 324.174 240.515H322.339ZM322.339 238.954H324.074C325.148 238.954 325.698 238.479 325.698 237.68C325.698 236.869 325.148 236.407 324.074 236.407H322.339V238.954ZM333.887 237.243V243.811H332.138V243.137C331.922 243.395 331.65 243.603 331.343 243.743C331.036 243.883 330.702 243.953 330.365 243.948C329.005 243.948 328.131 243.012 328.131 241.588V237.243H329.879V241.201C329.879 241.926 330.203 242.4 330.927 242.4C331.539 242.4 332.138 241.951 332.138 241.101V237.243H333.887ZM339.121 237.231V238.941C338.935 238.916 338.747 238.903 338.559 238.904C337.648 238.904 336.949 239.466 336.949 240.477V243.811H335.201V237.243H336.949V238.167C337.236 237.593 337.885 237.206 338.697 237.206C338.871 237.206 338.996 237.218 339.121 237.231ZM341.009 240.527C341.009 241.763 341.62 242.475 342.544 242.475C343.268 242.475 343.705 241.975 343.868 241.301L345.379 241.975C345.079 243.049 344.055 243.948 342.532 243.948C340.621 243.948 339.273 242.562 339.273 240.527C339.273 238.504 340.621 237.118 342.532 237.118C344.043 237.118 345.041 237.993 345.354 239.054L343.868 239.753C343.705 239.079 343.268 238.579 342.544 238.579C341.62 238.579 341.009 239.304 341.009 240.527ZM346.083 243.811V234.846H347.831V237.918C348.193 237.493 348.792 237.118 349.629 237.118C351.002 237.118 351.839 238.055 351.839 239.478V243.811H350.091V239.978C350.091 239.241 349.791 238.717 349.042 238.717C348.43 238.717 347.831 239.154 347.831 240.015V243.811H346.083ZM358.409 242.2C358.409 242.762 358.434 243.324 358.509 243.811H356.824C356.809 243.636 356.8 243.462 356.799 243.287C356.374 243.699 355.737 243.923 354.938 243.923C353.652 243.923 352.691 243.149 352.691 241.988C352.691 240.677 353.727 240.128 355.063 239.89L356.699 239.578V239.291C356.699 238.767 356.349 238.554 355.725 238.554C355.013 238.554 354.713 238.842 354.676 239.366H352.978C353.04 237.855 354.189 237.118 355.812 237.118C357.435 237.118 358.409 237.805 358.409 239.066V242.2ZM356.699 241.476V240.802L355.425 241.052C354.838 241.164 354.414 241.351 354.414 241.876C354.414 242.338 354.751 242.587 355.275 242.587C356.012 242.587 356.699 242.213 356.699 241.476ZM359.022 242.7L360.109 241.588C360.558 242.2 361.357 242.587 362.094 242.587C362.681 242.587 363.193 242.388 363.193 241.913C363.193 241.414 362.706 241.351 361.657 241.151C360.596 240.939 359.422 240.664 359.422 239.254C359.422 237.993 360.533 237.118 362.106 237.118C363.268 237.118 364.304 237.593 364.816 238.255L363.817 239.353C363.611 239.081 363.344 238.861 363.039 238.71C362.733 238.558 362.397 238.479 362.056 238.479C361.507 238.479 361.145 238.717 361.145 239.079C361.145 239.503 361.582 239.578 362.394 239.741C363.542 239.978 364.903 240.24 364.903 241.726C364.903 243.099 363.63 243.948 362.056 243.948C360.87 243.948 359.622 243.511 359.022 242.7ZM368.661 243.948C366.726 243.948 365.402 242.562 365.402 240.527C365.402 238.592 366.738 237.118 368.599 237.118C370.547 237.118 371.595 238.567 371.595 240.402V240.914H367.076C367.2 241.913 367.812 242.512 368.674 242.512C369.348 242.512 369.885 242.188 370.085 241.551L371.558 242.075C371.083 243.274 369.972 243.948 368.661 243.948ZM368.586 238.517C367.887 238.517 367.35 238.929 367.138 239.728H369.86C369.847 239.079 369.435 238.517 368.586 238.517ZM378.076 244.185C377.651 245.347 377.052 246.096 375.603 246.096C375.266 246.096 375.141 246.083 374.917 246.058V244.647C375.104 244.66 375.216 244.672 375.416 244.672C375.878 244.672 376.128 244.548 376.315 244.073L376.527 243.549L374.167 237.243H375.978L377.464 241.563L378.912 237.243H380.673L378.076 244.185ZM387.04 240.527C387.04 242.575 385.717 243.948 383.819 243.948C381.921 243.948 380.598 242.575 380.598 240.527C380.598 238.492 381.921 237.118 383.819 237.118C385.717 237.118 387.04 238.492 387.04 240.527ZM382.333 240.527C382.333 241.776 382.908 242.5 383.819 242.5C384.731 242.5 385.292 241.776 385.292 240.527C385.292 239.291 384.731 238.567 383.819 238.567C382.908 238.567 382.333 239.291 382.333 240.527ZM393.674 237.243V243.811H391.926V243.137C391.71 243.395 391.438 243.603 391.131 243.743C390.824 243.883 390.49 243.953 390.153 243.948C388.792 243.948 387.918 243.012 387.918 241.588V237.243H389.666V241.201C389.666 241.926 389.991 242.4 390.715 242.4C391.327 242.4 391.926 241.951 391.926 241.101V237.243H393.674ZM398.909 237.231V238.941C398.709 238.916 398.559 238.904 398.347 238.904C397.436 238.904 396.736 239.466 396.736 240.477V243.811H394.988V237.243H396.736V238.167C397.024 237.593 397.673 237.206 398.484 237.206C398.659 237.206 398.784 237.218 398.909 237.231ZM401.466 242.7L402.552 241.588C403.001 242.2 403.801 242.587 404.537 242.587C405.124 242.587 405.636 242.388 405.636 241.913C405.636 241.414 405.149 241.351 404.1 241.151C403.039 240.939 401.865 240.664 401.865 239.254C401.865 237.993 402.976 237.118 404.55 237.118C405.711 237.118 406.747 237.593 407.259 238.255L406.26 239.353C406.054 239.081 405.787 238.861 405.482 238.71C405.177 238.558 404.841 238.479 404.5 238.479C403.95 238.479 403.588 238.717 403.588 239.079C403.588 239.503 404.025 239.578 404.837 239.741C405.986 239.978 407.347 240.24 407.347 241.726C407.347 243.099 406.073 243.948 404.5 243.948C403.314 243.948 402.065 243.511 401.466 242.7ZM408.233 243.811V234.846H409.981V237.918C410.343 237.493 410.942 237.118 411.779 237.118C413.152 237.118 413.989 238.055 413.989 239.478V243.811H412.241V239.978C412.241 239.241 411.941 238.717 411.192 238.717C410.58 238.717 409.981 239.154 409.981 240.015V243.811H408.233ZM420.559 242.2C420.559 242.762 420.584 243.324 420.659 243.811H418.974C418.959 243.636 418.95 243.462 418.949 243.287C418.524 243.699 417.887 243.923 417.088 243.923C415.802 243.923 414.841 243.149 414.841 241.988C414.841 240.677 415.877 240.128 417.213 239.89L418.849 239.578V239.291C418.849 238.767 418.499 238.554 417.875 238.554C417.163 238.554 416.864 238.842 416.826 239.366H415.128C415.19 237.855 416.339 237.118 417.962 237.118C419.585 237.118 420.559 237.805 420.559 239.066V242.2ZM418.849 241.476V240.802L417.575 241.052C416.988 241.164 416.564 241.351 416.564 241.876C416.564 242.338 416.901 242.587 417.425 242.587C418.162 242.587 418.849 242.213 418.849 241.476ZM425.742 237.231V238.941C425.556 238.915 425.368 238.903 425.18 238.904C424.269 238.904 423.57 239.466 423.57 240.477V243.811H421.822V237.243H423.57V238.167C423.857 237.593 424.506 237.206 425.318 237.206C425.493 237.206 425.617 237.218 425.742 237.231ZM429.153 243.948C427.218 243.948 425.894 242.562 425.894 240.527C425.894 238.592 427.23 237.118 429.091 237.118C431.038 237.118 432.087 238.567 432.087 240.402V240.914H427.567C427.692 241.913 428.304 242.512 429.166 242.512C429.84 242.512 430.377 242.188 430.576 241.551L432.05 242.075C431.575 243.274 430.464 243.948 429.153 243.948ZM429.078 238.517C428.379 238.517 427.842 238.929 427.63 239.728H430.352C430.339 239.079 429.927 238.517 429.078 238.517ZM432.347 242.7L433.434 241.588C433.883 242.2 434.682 242.587 435.419 242.587C436.006 242.587 436.518 242.388 436.518 241.913C436.518 241.414 436.031 241.351 434.982 241.151C433.92 240.939 432.747 240.664 432.747 239.254C432.747 237.993 433.858 237.118 435.431 237.118C436.592 237.118 437.629 237.593 438.141 238.255L437.142 239.353C436.936 239.081 436.669 238.861 436.364 238.71C436.058 238.558 435.722 238.479 435.381 238.479C434.832 238.479 434.47 238.717 434.47 239.079C434.47 239.503 434.907 239.578 435.718 239.741C436.867 239.978 438.228 240.24 438.228 241.726C438.228 243.099 436.955 243.948 435.381 243.948C434.195 243.948 432.947 243.511 432.347 242.7Z" fill="#4F5B76"/>
</g>
<path d="M865.527 259.404H280.475C276.534 259.404 273.34 262.599 273.34 266.539V291.673C273.34 295.614 276.534 298.808 280.475 298.808H865.527C869.467 298.808 872.662 295.614 872.662 291.673V266.539C872.662 262.599 869.467 259.404 865.527 259.404Z" fill="white"/>
<path fill-rule="evenodd" clip-rule="evenodd" d="M290.26 284.681C290.26 284.312 290.56 284.012 290.93 284.012H302.1C302.191 284.007 302.282 284.021 302.367 284.052C302.453 284.084 302.531 284.132 302.597 284.195C302.663 284.258 302.716 284.333 302.752 284.417C302.788 284.5 302.806 284.59 302.806 284.681C302.806 284.773 302.788 284.863 302.752 284.946C302.716 285.03 302.663 285.105 302.597 285.168C302.531 285.231 302.453 285.279 302.367 285.31C302.282 285.342 302.191 285.355 302.1 285.35H290.93C290.752 285.35 290.582 285.28 290.456 285.155C290.331 285.029 290.26 284.859 290.26 284.681ZM296.515 277.547C296.515 277.177 296.815 276.878 297.185 276.878H302.1C302.191 276.872 302.283 276.885 302.37 276.916C302.456 276.947 302.535 276.995 302.602 277.058C302.669 277.12 302.723 277.196 302.759 277.28C302.796 277.364 302.815 277.455 302.815 277.547C302.815 277.639 302.796 277.73 302.759 277.814C302.723 277.898 302.669 277.974 302.602 278.036C302.535 278.099 302.456 278.147 302.37 278.178C302.283 278.209 302.191 278.222 302.1 278.215H297.185C297.097 278.216 297.01 278.198 296.929 278.165C296.847 278.131 296.774 278.082 296.711 278.02C296.649 277.958 296.6 277.885 296.566 277.803C296.532 277.722 296.515 277.635 296.515 277.547ZM290.26 281.114C290.26 280.745 290.56 280.445 290.93 280.445H302.1C302.191 280.44 302.282 280.454 302.367 280.485C302.453 280.517 302.531 280.565 302.597 280.628C302.663 280.691 302.716 280.766 302.752 280.85C302.788 280.933 302.806 281.023 302.806 281.114C302.806 281.206 302.788 281.296 302.752 281.379C302.716 281.463 302.663 281.538 302.597 281.601C302.531 281.664 302.453 281.712 302.367 281.743C302.282 281.775 302.191 281.788 302.1 281.783H290.93C290.752 281.783 290.582 281.713 290.456 281.588C290.331 281.462 290.26 281.292 290.26 281.114Z" fill="#0A2540"/>
<path d="M297.412 274.003C297.537 273.877 297.606 273.706 297.604 273.528C297.603 273.351 297.531 273.181 297.405 273.056C297.278 272.932 297.108 272.862 296.93 272.863C296.753 272.864 296.583 272.936 296.458 273.062L292.26 277.299L290.568 275.359C290.449 275.233 290.287 275.157 290.114 275.148C289.94 275.139 289.771 275.198 289.64 275.312C289.509 275.425 289.427 275.585 289.412 275.758C289.396 275.93 289.448 276.102 289.557 276.237L291.711 278.707C291.771 278.777 291.845 278.833 291.928 278.872C292.181 279.002 292.5 278.96 292.711 278.747L297.412 274.003Z" fill="#0A2540"/>
<g filter="url(#filter3_d_4003_1051)">
<path d="M319.717 259.404H858.393V298.808H319.717V259.404Z" fill="white"/>
<path d="M319.717 270.105H704.995V288.105H319.717V270.105Z" fill="white"/>
<path d="M322.314 284.107H320.503V275.142H326.621V276.728H322.314V278.963H325.91V280.549H322.314V284.107ZM327.339 276.766V275.142H329.124V276.766H327.339ZM329.112 277.54V284.107H327.364V277.54H329.112ZM332.157 275.142V284.107H330.409V275.142H332.157ZM336.325 284.245C334.39 284.245 333.067 282.859 333.067 280.824C333.067 278.888 334.403 277.415 336.263 277.415C338.211 277.415 339.26 278.863 339.26 280.699V281.211H334.74C334.865 282.209 335.476 282.809 336.338 282.809C337.012 282.809 337.549 282.484 337.749 281.847L339.222 282.372C338.748 283.57 337.636 284.245 336.325 284.245ZM336.251 278.813C335.551 278.813 335.014 279.225 334.802 280.024H337.524C337.512 279.375 337.1 278.813 336.251 278.813ZM345.602 275.005C347.263 275.005 348.612 275.967 348.612 277.527C348.612 278.376 348.15 279.038 347.375 279.425C348.312 279.75 349.036 280.536 349.036 281.61C349.036 283.221 347.563 284.245 345.602 284.245C343.642 284.245 342.156 283.221 342.156 281.61C342.156 280.536 342.893 279.75 343.829 279.425C343.043 279.038 342.593 278.376 342.593 277.527C342.593 275.967 343.942 275.005 345.602 275.005ZM345.602 278.701C346.414 278.701 346.963 278.239 346.963 277.552C346.963 276.866 346.414 276.404 345.602 276.404C344.791 276.404 344.241 276.866 344.241 277.552C344.241 278.239 344.791 278.701 345.602 278.701ZM345.602 280.149C344.629 280.149 343.967 280.699 343.967 281.473C343.967 282.284 344.629 282.809 345.602 282.809C346.564 282.809 347.238 282.284 347.238 281.473C347.238 280.699 346.564 280.149 345.602 280.149ZM352.888 284.245C351.066 284.245 349.655 283.283 349.392 281.485L351.178 281.173C351.315 282.16 352.002 282.721 352.863 282.721C353.725 282.721 354.349 282.272 354.349 281.435C354.349 280.611 353.688 280.262 352.751 280.262H351.89V278.751H352.726C353.6 278.751 354.137 278.401 354.137 277.665C354.137 276.965 353.675 276.528 352.876 276.528C352.014 276.528 351.453 277.14 351.303 278.014L349.63 277.764C349.854 276.241 351.053 275.005 352.938 275.005C354.786 275.005 355.898 276.079 355.898 277.552C355.898 278.464 355.361 279.2 354.649 279.475C355.486 279.762 356.135 280.424 356.135 281.56C356.135 283.021 354.886 284.245 352.888 284.245ZM358.546 280.112C358.546 282.097 359.382 284.007 360.531 285.331H358.82C357.672 284.145 356.61 282.347 356.61 280.112C356.61 277.877 357.672 276.079 358.82 274.893H360.531C359.382 276.241 358.546 278.127 358.546 280.112ZM364.7 284.245C363.876 284.245 363.251 283.92 362.864 283.433V284.107H361.116V275.142H362.864V278.214C363.251 277.74 363.876 277.415 364.7 277.415C366.51 277.415 367.559 278.963 367.559 280.824C367.559 282.696 366.51 284.245 364.7 284.245ZM362.827 280.649V281.011C362.827 282.122 363.451 282.746 364.288 282.746C365.274 282.746 365.798 281.96 365.798 280.824C365.798 279.7 365.274 278.913 364.288 278.913C363.451 278.913 362.827 279.525 362.827 280.649ZM369.727 280.112C369.727 278.127 368.89 276.241 367.741 274.893H369.452C370.601 276.079 371.662 277.877 371.662 280.112C371.662 282.347 370.601 284.145 369.452 285.331H367.741C368.89 284.007 369.727 282.097 369.727 280.112ZM377.805 284.245C375.87 284.245 374.547 282.859 374.547 280.824C374.547 278.888 375.883 277.415 377.743 277.415C379.691 277.415 380.74 278.863 380.74 280.699V281.211H376.22C376.345 282.209 376.956 282.809 377.818 282.809C378.492 282.809 379.029 282.484 379.229 281.847L380.702 282.372C380.228 283.57 379.116 284.245 377.805 284.245ZM377.731 278.813C377.031 278.813 376.494 279.225 376.282 280.024H379.004C378.992 279.375 378.58 278.813 377.731 278.813ZM383.385 275.142V284.107H381.637V275.142H383.385ZM387.554 284.245C385.618 284.245 384.295 282.859 384.295 280.824C384.295 278.888 385.631 277.415 387.491 277.415C389.439 277.415 390.488 278.863 390.488 280.699V281.211H385.968C386.093 282.209 386.705 282.809 387.566 282.809C388.24 282.809 388.777 282.484 388.977 281.847L390.45 282.372C389.976 283.57 388.865 284.245 387.554 284.245ZM387.479 278.813C386.779 278.813 386.243 279.225 386.03 280.024H388.752C388.74 279.375 388.328 278.813 387.479 278.813ZM392.746 280.824C392.746 282.06 393.357 282.771 394.281 282.771C395.006 282.771 395.443 282.272 395.605 281.598L397.116 282.272C396.816 283.346 395.792 284.245 394.269 284.245C392.359 284.245 391.01 282.859 391.01 280.824C391.01 278.801 392.359 277.415 394.269 277.415C395.78 277.415 396.779 278.289 397.091 279.35L395.605 280.049C395.443 279.375 395.006 278.876 394.281 278.876C393.357 278.876 392.746 279.6 392.746 280.824ZM398.019 282.397V279.001H397.145V277.54H398.019V275.667H399.742V277.54H401.078V279.001H399.742V282.035C399.742 282.597 400.054 282.671 400.566 282.671C400.816 282.671 400.941 282.659 401.165 282.634V284.082C400.853 284.145 400.479 284.182 400.042 284.182C398.718 284.182 398.019 283.745 398.019 282.397ZM402.047 276.766V275.142H403.832V276.766H402.047ZM403.82 277.54V284.107H402.072V277.54H403.82ZM411.173 280.824C411.173 282.871 409.849 284.245 407.951 284.245C406.053 284.245 404.73 282.871 404.73 280.824C404.73 278.788 406.053 277.415 407.951 277.415C409.849 277.415 411.173 278.788 411.173 280.824ZM406.466 280.824C406.466 282.072 407.04 282.796 407.951 282.796C408.863 282.796 409.425 282.072 409.425 280.824C409.425 279.587 408.863 278.863 407.951 278.863C407.04 278.863 406.466 279.587 406.466 280.824ZM412.101 284.107V277.54H413.849V278.214C414.211 277.789 414.81 277.415 415.647 277.415C417.02 277.415 417.857 278.351 417.857 279.775V284.107H416.109V280.274C416.109 279.537 415.809 279.013 415.06 279.013C414.448 279.013 413.849 279.45 413.849 280.312V284.107H412.101Z" fill="#0A2540"/>
</g>
<path d="M865.527 299.701H280.475C276.534 299.701 273.34 302.896 273.34 306.836V331.97C273.34 335.911 276.534 339.105 280.475 339.105H865.527C869.467 339.105 872.662 335.911 872.662 331.97V306.836C872.662 302.896 869.467 299.701 865.527 299.701Z" fill="white"/>
<path fill-rule="evenodd" clip-rule="evenodd" d="M302.519 319.404H301.415V323.042L302.711 324.051C303.576 324.697 303.14 326.092 302.039 326.092H290.969C289.868 326.092 289.432 324.697 290.297 324.051L291.593 323.042V319.404H290.523C289.434 319.404 288.965 318 289.865 317.356L296.125 312.841C296.24 312.758 296.379 312.713 296.521 312.715C296.663 312.713 296.802 312.758 296.917 312.841L303.177 317.356C304.077 318 303.608 319.404 302.519 319.404ZM291.168 318.066L296.521 314.205L301.874 318.066H291.168ZM297.419 319.404H295.636V322.748C295.627 322.919 295.552 323.08 295.428 323.198C295.303 323.316 295.138 323.381 294.967 323.381C294.796 323.381 294.631 323.316 294.506 323.198C294.382 323.08 294.307 322.919 294.298 322.748V319.404H292.931V323.369C292.931 323.471 292.908 323.571 292.863 323.663C292.818 323.754 292.753 323.834 292.673 323.897L291.571 324.755H301.437L300.335 323.897C300.254 323.834 300.189 323.754 300.145 323.663C300.1 323.571 300.077 323.471 300.077 323.369V319.404H298.757V322.748C298.757 322.925 298.686 323.095 298.561 323.221C298.435 323.346 298.265 323.417 298.088 323.417C297.91 323.417 297.74 323.346 297.615 323.221C297.489 323.095 297.419 322.925 297.419 322.748V319.404Z" fill="#0A2540"/>
<g filter="url(#filter4_d_4003_1051)">
<path d="M319.717 299.701H858.393V339.105H319.717V299.701Z" fill="white"/>
<path d="M319.717 310.402H704.995V328.402H319.717V310.402Z" fill="white"/>
<path d="M320.054 319.921C320.054 317.212 321.827 315.301 324.299 315.301C326.759 315.301 328.532 317.212 328.532 319.921C328.532 322.63 326.759 324.541 324.299 324.541C321.827 324.541 320.054 322.63 320.054 319.921ZM326.684 319.921C326.684 318.086 325.698 316.912 324.299 316.912C322.888 316.912 321.902 318.086 321.902 319.921C321.902 321.756 322.888 322.93 324.299 322.93C325.698 322.93 326.684 321.756 326.684 319.921ZM333.044 324.541C332.22 324.541 331.596 324.216 331.209 323.729V326.626H329.461V317.836H331.209V318.51C331.596 318.036 332.22 317.711 333.044 317.711C334.855 317.711 335.903 319.259 335.903 321.12C335.903 322.993 334.855 324.541 333.044 324.541ZM331.171 320.945V321.307C331.171 322.418 331.796 323.042 332.632 323.042C333.619 323.042 334.143 322.256 334.143 321.12C334.143 319.996 333.619 319.209 332.632 319.209C331.796 319.209 331.171 319.821 331.171 320.945ZM339.694 324.541C337.759 324.541 336.435 323.155 336.435 321.12C336.435 319.184 337.771 317.711 339.632 317.711C341.579 317.711 342.628 319.159 342.628 320.995V321.507H338.108C338.233 322.506 338.845 323.105 339.706 323.105C340.381 323.105 340.918 322.78 341.117 322.144L342.591 322.668C342.116 323.867 341.005 324.541 339.694 324.541ZM339.619 319.109C338.92 319.109 338.383 319.521 338.171 320.321H340.893C340.88 319.671 340.468 319.109 339.619 319.109ZM343.525 324.403V317.836H345.273V318.51C345.635 318.086 346.235 317.711 347.071 317.711C348.445 317.711 349.281 318.647 349.281 320.071V324.403H347.533V320.57C347.533 319.834 347.234 319.309 346.484 319.309C345.873 319.309 345.273 319.746 345.273 320.608V324.403H343.525ZM358.239 322.793C358.239 323.355 358.264 323.917 358.338 324.403H356.653C356.637 324.229 356.629 324.054 356.628 323.879C356.203 324.291 355.567 324.516 354.767 324.516C353.481 324.516 352.52 323.742 352.52 322.581C352.52 321.269 353.556 320.72 354.892 320.483L356.528 320.171V319.884C356.528 319.359 356.178 319.147 355.554 319.147C354.842 319.147 354.543 319.434 354.505 319.958H352.807C352.87 318.448 354.018 317.711 355.641 317.711C357.265 317.711 358.239 318.398 358.239 319.659V322.793ZM356.528 322.069V321.394L355.254 321.644C354.668 321.756 354.243 321.944 354.243 322.468C354.243 322.93 354.58 323.18 355.105 323.18C355.841 323.18 356.528 322.805 356.528 322.069ZM365.471 324.541C364.647 324.541 364.023 324.216 363.636 323.729V324.403H361.888V315.439H363.636V318.51C364.023 318.036 364.647 317.711 365.471 317.711C367.282 317.711 368.33 319.259 368.33 321.12C368.33 322.993 367.282 324.541 365.471 324.541ZM363.598 320.945V321.307C363.598 322.418 364.222 323.042 365.059 323.042C366.045 323.042 366.57 322.256 366.57 321.12C366.57 319.996 366.045 319.209 365.059 319.209C364.222 319.209 363.598 319.821 363.598 320.945ZM374.543 322.793C374.543 323.355 374.568 323.917 374.643 324.403H372.958C372.942 324.229 372.934 324.054 372.933 323.879C372.508 324.291 371.871 324.516 371.072 324.516C369.786 324.516 368.825 323.742 368.825 322.581C368.825 321.269 369.861 320.72 371.197 320.483L372.833 320.171V319.884C372.833 319.359 372.483 319.147 371.859 319.147C371.147 319.147 370.848 319.434 370.81 319.958H369.112C369.175 318.448 370.323 317.711 371.946 317.711C373.57 317.711 374.543 318.398 374.543 319.659V322.793ZM372.833 322.069V321.394L371.559 321.644C370.972 321.756 370.548 321.944 370.548 322.468C370.548 322.93 370.885 323.18 371.409 323.18C372.146 323.18 372.833 322.805 372.833 322.069ZM375.806 324.403V317.836H377.554V318.51C377.916 318.086 378.515 317.711 379.352 317.711C380.725 317.711 381.562 318.647 381.562 320.071V324.403H379.814V320.57C379.814 319.834 379.514 319.309 378.765 319.309C378.153 319.309 377.554 319.746 377.554 320.608V324.403H375.806ZM384.574 315.439V320.383L386.871 317.836H388.969L386.559 320.333L389.156 324.403H387.159L385.348 321.594L384.574 322.393V324.403H382.826V315.439H384.574ZM397.393 322.793C397.393 323.355 397.418 323.917 397.493 324.403H395.807C395.795 324.241 395.782 324.066 395.782 323.879C395.358 324.291 394.721 324.516 393.922 324.516C392.636 324.516 391.674 323.742 391.674 322.581C391.674 321.269 392.711 320.72 394.047 320.483L395.682 320.171V319.884C395.682 319.359 395.333 319.147 394.708 319.147C393.997 319.147 393.697 319.434 393.66 319.958H391.962C392.024 318.448 393.173 317.711 394.796 317.711C396.419 317.711 397.393 318.398 397.393 319.659V322.793ZM395.682 322.069V321.394L394.409 321.644C393.822 321.756 393.397 321.944 393.397 322.468C393.397 322.93 393.735 323.18 394.259 323.18C394.996 323.18 395.682 322.805 395.682 322.069ZM400.004 321.12C400.004 322.356 400.616 323.067 401.54 323.067C402.264 323.067 402.701 322.568 402.863 321.894L404.374 322.568C404.074 323.642 403.05 324.541 401.527 324.541C399.617 324.541 398.268 323.155 398.268 321.12C398.268 319.097 399.617 317.711 401.527 317.711C403.038 317.711 404.037 318.585 404.349 319.646L402.863 320.346C402.701 319.671 402.264 319.172 401.54 319.172C400.616 319.172 400.004 319.896 400.004 321.12ZM406.426 321.12C406.426 322.356 407.038 323.067 407.962 323.067C408.686 323.067 409.123 322.568 409.286 321.894L410.796 322.568C410.497 323.642 409.473 324.541 407.95 324.541C406.039 324.541 404.691 323.155 404.691 321.12C404.691 319.097 406.039 317.711 407.95 317.711C409.46 317.711 410.459 318.585 410.771 319.646L409.286 320.346C409.123 319.671 408.686 319.172 407.962 319.172C407.038 319.172 406.426 319.896 406.426 321.12ZM417.556 321.12C417.556 323.167 416.233 324.541 414.335 324.541C412.437 324.541 411.113 323.167 411.113 321.12C411.113 319.084 412.437 317.711 414.335 317.711C416.233 317.711 417.556 319.084 417.556 321.12ZM412.849 321.12C412.849 322.368 413.423 323.092 414.335 323.092C415.246 323.092 415.808 322.368 415.808 321.12C415.808 319.884 415.246 319.159 414.335 319.159C413.423 319.159 412.849 319.884 412.849 321.12ZM424.19 317.836V324.403H422.442V323.729C422.226 323.988 421.954 324.195 421.647 324.336C421.34 324.476 421.006 324.546 420.669 324.541C419.308 324.541 418.434 323.604 418.434 322.181V317.836H420.182V321.794C420.182 322.518 420.507 322.993 421.231 322.993C421.843 322.993 422.442 322.543 422.442 321.694V317.836H424.19ZM425.504 324.403V317.836H427.252V318.51C427.614 318.086 428.214 317.711 429.05 317.711C430.424 317.711 431.26 318.647 431.26 320.071V324.403H429.512V320.57C429.512 319.834 429.212 319.309 428.463 319.309C427.851 319.309 427.252 319.746 427.252 320.608V324.403H425.504ZM432.699 322.693V319.297H431.825V317.836H432.699V315.963H434.422V317.836H435.758V319.297H434.422V322.331C434.422 322.893 434.734 322.968 435.246 322.968C435.496 322.968 435.621 322.955 435.845 322.93V324.378C435.533 324.441 435.159 324.478 434.722 324.478C433.398 324.478 432.699 324.041 432.699 322.693Z" fill="#0A2540"/>
</g>
<path d="M109.61 106.965L105.786 117.21H107.869L108.683 115.013H112.907L113.72 117.21H115.846L112.008 106.965H109.61ZM110.78 109.291L112.236 113.229H109.339L110.78 109.291ZM116.415 115.255C116.415 116.797 117.215 117.296 118.727 117.296C119.227 117.296 119.655 117.253 120.011 117.182V115.527C119.754 115.555 119.611 115.569 119.326 115.569C118.741 115.569 118.385 115.484 118.385 114.842V111.374H119.911V109.704H118.385V107.564H116.415V109.704H115.417V111.374H116.415V115.255ZM122.899 106.965H120.9V117.21H122.9V106.965H122.899ZM130.299 115.37V111.788C130.299 110.347 129.187 109.562 127.331 109.562C125.476 109.562 124.164 110.404 124.092 112.13H126.033C126.076 111.531 126.418 111.203 127.232 111.203C127.945 111.203 128.345 111.445 128.345 112.045V112.373L126.475 112.73C124.949 113 123.765 113.629 123.765 115.127C123.765 116.454 124.863 117.339 126.333 117.339C127.246 117.339 127.973 117.082 128.459 116.611C128.459 116.825 128.473 117.025 128.487 117.211H130.414C130.328 116.654 130.299 116.011 130.299 115.37ZM128.345 114.542C128.345 115.384 127.56 115.812 126.718 115.812C126.118 115.812 125.733 115.527 125.733 114.999C125.733 114.399 126.219 114.185 126.889 114.057L128.345 113.771V114.542ZM130.855 115.94C131.539 116.868 132.966 117.367 134.322 117.367C136.12 117.367 137.575 116.397 137.575 114.827C137.575 113.129 136.02 112.83 134.707 112.558C133.779 112.373 133.28 112.288 133.28 111.802C133.28 111.388 133.694 111.117 134.322 111.117C135.106 111.117 135.834 111.474 136.334 112.117L137.475 110.86C136.89 110.104 135.705 109.562 134.379 109.562C132.581 109.562 131.311 110.561 131.311 112.002C131.311 113.614 132.652 113.928 133.865 114.171C135.064 114.399 135.62 114.471 135.62 115.041C135.62 115.584 135.035 115.811 134.364 115.811C133.522 115.811 132.609 115.37 132.095 114.671L130.855 115.94Z" fill="#0A2540"/>
<g filter="url(#filter5_d_4003_1051)">
<path d="M105.672 138.488H176.942V231.892H105.672V138.488Z" fill="white"/>
<path d="M105.672 138.488H170.942V156.488H105.672V138.488Z" fill="white"/>
<path d="M120.328 148.005C120.328 150.727 122.076 152.625 124.498 152.625C126.921 152.625 128.669 150.727 128.669 148.005C128.669 145.283 126.921 143.385 124.499 143.385C122.077 143.385 120.328 145.283 120.328 148.005ZM127.071 148.005C127.071 149.953 126.01 151.215 124.499 151.215C122.988 151.215 121.927 149.953 121.927 148.005C121.927 146.057 122.988 144.796 124.499 144.796C126.009 144.796 127.071 146.056 127.071 148.005ZM132.858 152.488L135.255 145.933H133.707L132.12 150.69L130.522 145.933H128.95L131.347 152.488H132.857H132.858ZM138.54 152.625C139.85 152.625 140.887 151.938 141.35 150.79L140.063 150.303C139.863 150.977 139.277 151.351 138.54 151.351C137.578 151.351 136.904 150.665 136.792 149.541H141.387V149.041C141.387 147.244 140.375 145.808 138.477 145.808C136.654 145.808 135.356 147.293 135.356 149.216C135.356 151.239 136.667 152.625 138.54 152.625ZM138.465 147.069C139.414 147.069 139.863 147.693 139.875 148.417H136.867C137.091 147.531 137.691 147.069 138.465 147.069ZM146.095 145.92C145.954 145.903 145.812 145.895 145.67 145.895C144.833 145.895 144.159 146.295 143.872 146.906V145.933H142.374V152.488H143.872V149.042C143.872 147.992 144.596 147.381 145.545 147.381C145.757 147.381 145.907 147.393 146.095 147.418V145.92ZM150.26 152.488L152.657 145.933H151.11L149.524 150.69L147.926 145.933H146.353L148.75 152.488H150.26ZM153.304 145.058H154.852V143.523H153.304V145.058ZM154.827 145.933H153.33V152.488H154.828L154.827 145.933ZM159.036 152.625C160.347 152.625 161.383 151.938 161.846 150.79L160.559 150.303C160.359 150.977 159.773 151.351 159.036 151.351C158.075 151.351 157.4 150.665 157.288 149.541H161.883V149.041C161.883 147.244 160.872 145.808 158.973 145.808C157.151 145.808 155.853 147.293 155.853 149.216C155.853 151.239 157.163 152.625 159.036 152.625ZM158.961 147.069C159.911 147.069 160.359 147.693 160.372 148.417H157.362C157.588 147.531 158.186 147.069 158.961 147.069ZM165.931 145.933L164.769 150.278L163.583 145.933H162.047L164.02 152.488H165.318L166.517 148.192L167.716 152.488H169.014L170.987 145.933H169.501L168.34 150.278L167.166 145.933H165.931Z" fill="#635BFF"/>
<path d="M105.672 163.623H172.942V181.623H105.672V163.623Z" fill="white"/>
<path d="M121.602 173.14C121.602 171.017 122.776 169.582 124.436 169.582C125.597 169.582 126.434 170.256 126.759 171.392L127.895 171.017C127.37 169.469 126.147 168.52 124.436 168.52C122.114 168.52 120.403 170.406 120.403 173.14C120.403 175.874 122.113 177.76 124.436 177.76C126.146 177.76 127.37 176.811 127.895 175.263L126.759 174.888C126.434 176.024 125.597 176.698 124.436 176.698C122.776 176.698 121.602 175.263 121.602 173.14ZM134.59 174.364C134.59 172.341 133.341 170.967 131.555 170.967C129.77 170.967 128.521 172.341 128.521 174.364C128.521 176.386 129.77 177.76 131.556 177.76C133.341 177.76 134.59 176.386 134.59 174.364ZM129.658 174.364C129.658 172.865 130.407 171.916 131.556 171.916C132.704 171.916 133.453 172.865 133.453 174.364C133.453 175.849 132.704 176.798 131.555 176.798C130.407 176.798 129.658 175.849 129.658 174.364ZM137.005 173.714C137.005 172.653 137.805 172.016 138.553 172.016C139.477 172.016 139.852 172.703 139.852 173.614V177.622H140.975V173.714C140.975 172.653 141.775 172.016 142.524 172.016C143.448 172.016 143.822 172.703 143.822 173.614V177.622H144.946V173.315C144.946 171.929 144.134 170.967 142.786 170.967C142.373 170.965 141.967 171.066 141.603 171.26C141.239 171.454 140.929 171.735 140.701 172.079C140.376 171.404 139.764 170.967 138.891 170.967C137.979 170.967 137.355 171.442 137.005 171.979V171.092H135.881V177.622H137.005V173.714ZM149.767 177.76C151.577 177.76 152.614 176.212 152.614 174.364C152.614 172.503 151.577 170.967 149.767 170.967C148.855 170.967 148.131 171.404 147.744 172.041V171.092H146.62V179.87H147.744V176.673C148.131 177.323 148.855 177.76 149.767 177.76ZM147.719 174.139C147.719 172.616 148.643 171.954 149.567 171.954C150.791 171.954 151.477 172.953 151.477 174.364C151.477 175.762 150.791 176.773 149.567 176.773C148.643 176.773 147.719 176.099 147.719 174.601V174.139ZM158.604 176.199V172.828C158.604 171.629 157.704 170.967 156.256 170.967C154.858 170.967 153.772 171.629 153.672 173.015H154.771C154.858 172.316 155.332 171.954 156.194 171.954C156.993 171.954 157.517 172.266 157.517 172.99V173.39L155.894 173.714C154.434 174.002 153.409 174.551 153.409 175.849C153.409 177.023 154.383 177.735 155.569 177.735C156.419 177.735 157.143 177.423 157.542 176.948C157.555 177.21 157.567 177.435 157.592 177.622H158.704C158.641 177.21 158.604 176.686 158.604 176.199ZM157.517 175.4C157.517 176.236 156.681 176.823 155.719 176.823C155.008 176.823 154.533 176.436 154.533 175.799C154.533 175.013 155.195 174.738 156.193 174.538L157.517 174.264V175.4ZM160.283 177.622H161.406V173.727C161.406 172.641 162.23 172.016 163.042 172.016C164.016 172.016 164.402 172.703 164.402 173.614V177.622H165.526V173.315C165.526 171.929 164.74 170.967 163.354 170.967C162.43 170.967 161.781 171.442 161.406 171.979V171.092H160.282L160.283 177.622ZM169.579 178.334L172.388 171.092H171.214L169.404 176.087L167.568 171.092H166.382L168.804 177.385L168.492 178.159C168.23 178.809 167.968 178.983 167.481 178.983C167.294 178.983 167.156 178.971 166.944 178.921V179.895C167.144 179.932 167.281 179.945 167.556 179.945C168.692 179.945 169.204 179.321 169.579 178.334Z" fill="#4F5B76"/>
<path d="M105.672 188.758H176.942V206.758H105.672V188.758Z" fill="white"/>
<path d="M127.42 194.842V193.793H120.154V194.842H123.188V202.758H124.386V194.842H127.42ZM129.654 202.896C130.952 202.896 131.939 202.184 132.338 201.023L131.352 200.673C131.152 201.447 130.528 201.922 129.654 201.922C128.518 201.922 127.731 201.048 127.669 199.674H132.389V199.3C132.389 197.489 131.427 196.103 129.604 196.103C127.831 196.103 126.594 197.552 126.594 199.499C126.594 201.51 127.844 202.896 129.654 202.896ZM129.591 197.065C130.728 197.065 131.227 197.889 131.252 198.813H127.732C127.931 197.701 128.641 197.065 129.591 197.065ZM134.774 198.85C134.774 197.789 135.573 197.152 136.322 197.152C137.246 197.152 137.62 197.839 137.62 198.75V202.758H138.744V198.85C138.744 197.789 139.544 197.152 140.292 197.152C141.216 197.152 141.591 197.839 141.591 198.75V202.758H142.715V198.451C142.715 197.065 141.903 196.103 140.555 196.103C140.142 196.101 139.736 196.202 139.372 196.396C139.008 196.59 138.698 196.871 138.469 197.214C138.145 196.54 137.533 196.103 136.659 196.103C135.747 196.103 135.123 196.578 134.774 197.115V196.228H133.65V202.758H134.774V198.85ZM147.535 202.896C149.345 202.896 150.382 201.347 150.382 199.499C150.382 197.639 149.346 196.103 147.535 196.103C146.624 196.103 145.9 196.54 145.513 197.177V196.228H144.389V205.006H145.513V201.809C145.9 202.459 146.623 202.896 147.535 202.896ZM145.488 199.275C145.488 197.751 146.412 197.09 147.336 197.09C148.559 197.09 149.246 198.088 149.246 199.499C149.246 200.898 148.559 201.909 147.336 201.909C146.412 201.909 145.488 201.235 145.488 199.737V199.275ZM152.788 193.793H151.665V202.758H152.789L152.788 193.793ZM159.234 201.335V197.964C159.234 196.765 158.336 196.103 156.887 196.103C155.489 196.103 154.402 196.765 154.302 198.151H155.402C155.489 197.452 155.963 197.09 156.825 197.09C157.624 197.09 158.148 197.402 158.148 198.126V198.525L156.525 198.85C155.065 199.137 154.04 199.687 154.04 200.985C154.04 202.159 155.014 202.871 156.2 202.871C157.05 202.871 157.774 202.558 158.173 202.084C158.186 202.346 158.198 202.571 158.223 202.758H159.334C159.272 202.346 159.234 201.822 159.234 201.335ZM158.148 200.536C158.148 201.372 157.312 201.959 156.35 201.959C155.638 201.959 155.164 201.572 155.164 200.935C155.164 200.149 155.826 199.874 156.824 199.674L158.148 199.399V200.536ZM161.088 201.197C161.088 202.446 161.725 202.821 162.836 202.821C163.211 202.821 163.536 202.783 163.823 202.721V201.759C163.56 201.822 163.373 201.834 163.111 201.834C162.536 201.834 162.199 201.709 162.199 201.023V197.189H163.685V196.228H162.2V194.318H161.09V196.228H160.078V197.189H161.089L161.088 201.197ZM167.592 202.896C168.891 202.896 169.877 202.184 170.277 201.023L169.29 200.673C169.09 201.447 168.466 201.922 167.592 201.922C166.456 201.922 165.669 201.048 165.607 199.674H170.327V199.3C170.327 197.489 169.365 196.103 167.542 196.103C165.769 196.103 164.533 197.552 164.533 199.499C164.533 201.51 165.781 202.896 167.592 202.896ZM167.53 197.065C168.666 197.065 169.165 197.889 169.19 198.813H165.67C165.87 197.701 166.58 197.065 167.53 197.065ZM170.864 201.372C171.363 202.384 172.55 202.896 173.736 202.896C175.134 202.896 176.27 202.071 176.27 200.823C176.27 199.399 174.984 199.175 173.861 198.913C172.949 198.713 172.375 198.6 172.375 197.989C172.375 197.402 172.874 197.027 173.623 197.027C174.447 197.027 175.059 197.439 175.396 198.088L176.195 197.452C175.808 196.678 174.847 196.103 173.673 196.103C172.287 196.103 171.276 196.915 171.276 198.076C171.276 199.412 172.4 199.649 173.474 199.886C174.547 200.111 175.172 200.211 175.172 200.923C175.172 201.634 174.497 201.959 173.736 201.959C172.887 201.959 172.088 201.497 171.738 200.735L170.864 201.372Z" fill="#4F5B76"/>
<path d="M105.672 213.893H166.942V231.893H105.672V213.893Z" fill="white"/>
<path d="M122.126 224.135H124.349C126.247 224.135 127.458 223.211 127.458 221.525C127.458 219.815 126.247 218.928 124.348 218.928H120.928V227.893H122.126V224.135ZM122.126 223.098V219.964H124.286C125.56 219.964 126.272 220.514 126.272 221.525C126.272 222.537 125.56 223.098 124.286 223.098H122.126ZM133.02 226.47V223.098C133.02 221.9 132.12 221.238 130.672 221.238C129.274 221.238 128.188 221.9 128.088 223.286H129.187C129.274 222.586 129.748 222.224 130.61 222.224C131.409 222.224 131.933 222.537 131.933 223.261V223.66L130.31 223.985C128.85 224.272 127.826 224.821 127.826 226.12C127.826 227.294 128.8 228.005 129.986 228.005C130.835 228.005 131.559 227.693 131.958 227.219C131.971 227.481 131.983 227.706 132.008 227.893H133.12C133.057 227.481 133.02 226.957 133.02 226.47ZM131.933 225.67C131.933 226.507 131.097 227.094 130.135 227.094C129.424 227.094 128.949 226.707 128.949 226.07C128.949 225.283 129.611 225.009 130.609 224.809L131.933 224.534V225.67ZM138.083 221.338C137.933 221.321 137.783 221.313 137.633 221.313C136.746 221.313 136.109 221.812 135.823 222.474V221.363H134.699V227.893H135.822V224.322C135.822 223.173 136.584 222.424 137.532 222.424C137.745 222.424 137.895 222.437 138.082 222.474L138.083 221.338ZM139.43 226.332C139.43 227.581 140.067 227.955 141.178 227.955C141.553 227.955 141.878 227.918 142.165 227.855V226.894C141.903 226.957 141.715 226.969 141.453 226.969C140.879 226.969 140.542 226.844 140.542 226.157V222.324H142.028V221.363H140.542V219.453H139.43V221.363H138.42V222.324H139.431L139.43 226.332ZM143.361 227.893H144.485V223.997C144.485 222.911 145.309 222.287 146.121 222.287C147.095 222.287 147.481 222.974 147.481 223.885V227.893H148.606V223.585C148.606 222.199 147.819 221.238 146.433 221.238C145.509 221.238 144.86 221.712 144.485 222.249V221.363H143.362L143.361 227.893ZM152.881 228.03C154.18 228.03 155.166 227.319 155.566 226.157L154.579 225.808C154.379 226.582 153.755 227.056 152.881 227.056C151.745 227.056 150.959 226.182 150.896 224.809H155.616V224.434C155.616 222.624 154.654 221.238 152.831 221.238C151.058 221.238 149.822 222.686 149.822 224.634C149.822 226.644 151.071 228.03 152.882 228.03H152.881ZM152.819 222.199C153.955 222.199 154.455 223.023 154.479 223.947H150.959C151.159 222.836 151.87 222.199 152.819 222.199ZM160.261 221.338C160.111 221.321 159.961 221.313 159.811 221.313C158.925 221.313 158.288 221.812 158.001 222.474V221.363H156.877V227.893H158.001V224.322C158.001 223.173 158.763 222.424 159.711 222.424C159.924 222.424 160.074 222.437 160.261 222.474V221.338ZM160.515 226.507C161.015 227.518 162.201 228.03 163.387 228.03C164.785 228.03 165.921 227.206 165.921 225.958C165.921 224.534 164.635 224.31 163.511 224.047C162.601 223.848 162.026 223.735 162.026 223.123C162.026 222.537 162.526 222.162 163.275 222.162C164.099 222.162 164.71 222.574 165.047 223.223L165.847 222.586C165.46 221.812 164.498 221.238 163.324 221.238C161.939 221.238 160.927 222.05 160.927 223.211C160.927 224.547 162.051 224.784 163.125 225.021C164.198 225.246 164.823 225.346 164.823 226.058C164.823 226.769 164.149 227.094 163.387 227.094C162.537 227.094 161.739 226.632 161.389 225.87L160.515 226.507Z" fill="#4F5B76"/>
</g>
<path d="M106.564 138.488V156.325" stroke="#635BFF" stroke-width="1.784"/>
</g>
</g>
</g>
</g>
</g>
</g>
</g>
<g opacity="0.3">
<path d="M0 0.480469H500V329.81C500 332.02 498.209 333.81 496 333.81H4.00001C1.79087 333.81 0 332.02 0 329.81V0.480469Z" fill="url(#paint0_linear_4003_1051)"/>
</g>
</g>
<defs>
<filter id="filter0_d_4003_1051" x="319.717" y="138.518" width="538.676" height="40.2963" filterUnits="userSpaceOnUse" color-interpolation-filters="sRGB">
<feFlood flood-opacity="0" result="BackgroundImageFix"/>
<feColorMatrix in="SourceAlpha" type="matrix" values="0 0 0 0 0 0 0 0 0 0 0 0 0 0 0 0 0 0 127 0" result="hardAlpha"/>
<feOffset dy="0.892"/>
<feComposite in2="hardAlpha" operator="out"/>
<feColorMatrix type="matrix" values="0 0 0 0 0.898039 0 0 0 0 0.917647 0 0 0 0 0.941176 0 0 0 1 0"/>
<feBlend mode="normal" in2="BackgroundImageFix" result="effect1_dropShadow_4003_1051"/>
<feBlend mode="normal" in="SourceGraphic" in2="effect1_dropShadow_4003_1051" result="shape"/>
</filter>
<filter id="filter1_d_4003_1051" x="319.604" y="178.812" width="538.789" height="40.2963" filterUnits="userSpaceOnUse" color-interpolation-filters="sRGB">
<feFlood flood-opacity="0" result="BackgroundImageFix"/>
<feColorMatrix in="SourceAlpha" type="matrix" values="0 0 0 0 0 0 0 0 0 0 0 0 0 0 0 0 0 0 127 0" result="hardAlpha"/>
<feOffset dy="0.892"/>
<feComposite in2="hardAlpha" operator="out"/>
<feColorMatrix type="matrix" values="0 0 0 0 0.898039 0 0 0 0 0.917647 0 0 0 0 0.941176 0 0 0 1 0"/>
<feBlend mode="normal" in2="BackgroundImageFix" result="effect1_dropShadow_4003_1051"/>
<feBlend mode="normal" in="SourceGraphic" in2="effect1_dropShadow_4003_1051" result="shape"/>
</filter>
<filter id="filter2_d_4003_1051" x="319.717" y="219.109" width="538.676" height="40.2963" filterUnits="userSpaceOnUse" color-interpolation-filters="sRGB">
<feFlood flood-opacity="0" result="BackgroundImageFix"/>
<feColorMatrix in="SourceAlpha" type="matrix" values="0 0 0 0 0 0 0 0 0 0 0 0 0 0 0 0 0 0 127 0" result="hardAlpha"/>
<feOffset dy="0.892"/>
<feComposite in2="hardAlpha" operator="out"/>
<feColorMatrix type="matrix" values="0 0 0 0 0.898039 0 0 0 0 0.917647 0 0 0 0 0.941176 0 0 0 1 0"/>
<feBlend mode="normal" in2="BackgroundImageFix" result="effect1_dropShadow_4003_1051"/>
<feBlend mode="normal" in="SourceGraphic" in2="effect1_dropShadow_4003_1051" result="shape"/>
</filter>
<filter id="filter3_d_4003_1051" x="319.717" y="259.404" width="538.676" height="40.2963" filterUnits="userSpaceOnUse" color-interpolation-filters="sRGB">
<feFlood flood-opacity="0" result="BackgroundImageFix"/>
<feColorMatrix in="SourceAlpha" type="matrix" values="0 0 0 0 0 0 0 0 0 0 0 0 0 0 0 0 0 0 127 0" result="hardAlpha"/>
<feOffset dy="0.892"/>
<feComposite in2="hardAlpha" operator="out"/>
<feColorMatrix type="matrix" values="0 0 0 0 0.898039 0 0 0 0 0.917647 0 0 0 0 0.941176 0 0 0 1 0"/>
<feBlend mode="normal" in2="BackgroundImageFix" result="effect1_dropShadow_4003_1051"/>
<feBlend mode="normal" in="SourceGraphic" in2="effect1_dropShadow_4003_1051" result="shape"/>
</filter>
<filter id="filter4_d_4003_1051" x="319.717" y="299.701" width="538.676" height="40.2963" filterUnits="userSpaceOnUse" color-interpolation-filters="sRGB">
<feFlood flood-opacity="0" result="BackgroundImageFix"/>
<feColorMatrix in="SourceAlpha" type="matrix" values="0 0 0 0 0 0 0 0 0 0 0 0 0 0 0 0 0 0 127 0" result="hardAlpha"/>
<feOffset dy="0.892"/>
<feComposite in2="hardAlpha" operator="out"/>
<feColorMatrix type="matrix" values="0 0 0 0 0.898039 0 0 0 0 0.917647 0 0 0 0 0.941176 0 0 0 1 0"/>
<feBlend mode="normal" in2="BackgroundImageFix" result="effect1_dropShadow_4003_1051"/>
<feBlend mode="normal" in="SourceGraphic" in2="effect1_dropShadow_4003_1051" result="shape"/>
</filter>
<filter id="filter5_d_4003_1051" x="105.672" y="138.488" width="73.054" height="93.4043" filterUnits="userSpaceOnUse" color-interpolation-filters="sRGB">
<feFlood flood-opacity="0" result="BackgroundImageFix"/>
<feColorMatrix in="SourceAlpha" type="matrix" values="0 0 0 0 0 0 0 0 0 0 0 0 0 0 0 0 0 0 127 0" result="hardAlpha"/>
<feOffset dx="1.784"/>
<feComposite in2="hardAlpha" operator="out"/>
<feColorMatrix type="matrix" values="0 0 0 0 0.423529 0 0 0 0 0.54902 0 0 0 0 0.670588 0 0 0 0.15 0"/>
<feBlend mode="normal" in2="BackgroundImageFix" result="effect1_dropShadow_4003_1051"/>
<feBlend mode="normal" in="SourceGraphic" in2="effect1_dropShadow_4003_1051" result="shape"/>
</filter>
<linearGradient id="paint0_linear_4003_1051" x1="250" y1="0.480469" x2="250" y2="333.81" gradientUnits="userSpaceOnUse">
<stop stop-color="#BEC9DC" stop-opacity="0"/>
<stop offset="1" stop-color="#BEC9DC" stop-opacity="0.4"/>
</linearGradient>
<clipPath id="clip0_4003_1051">
<rect y="0.480469" width="500" height="333.33" rx="4" fill="white"/>
</clipPath>
<clipPath id="clip1_4003_1051">
<rect y="0.480469" width="500" height="333.33" rx="4" fill="white"/>
</clipPath>
<clipPath id="clip2_4003_1051">
<rect width="500" height="333.33" fill="white" transform="translate(70 67.1406)"/>
</clipPath>
<clipPath id="clip3_4003_1051">
<rect x="70" y="67.1406" width="434" height="272" rx="8" fill="white"/>
</clipPath>
<clipPath id="clip4_4003_1051">
<rect width="434" height="272" fill="white" transform="translate(70 67.1406)"/>
</clipPath>
<clipPath id="clip5_4003_1051">
<rect width="434" height="272" fill="white" transform="translate(70 67.1406)"/>
</clipPath>
<clipPath id="clip6_4003_1051">
<rect width="434" height="272" fill="white" transform="translate(70 67.1406)"/>
</clipPath>
</defs>
</svg>
