<svg width="86" height="41" viewBox="0 0 86 41" fill="none" xmlns="http://www.w3.org/2000/svg">
<rect y="0.810547" width="86" height="40" rx="4" fill="#F6F9FC"/>
<mask id="mask0_4003_1110" style="mask-type:luminance" maskUnits="userSpaceOnUse" x="10" y="10" width="20" height="21">
<path d="M10 10.8105H30V30.8105H10V10.8105Z" fill="white"/>
</mask>
<g mask="url(#mask0_4003_1110)">
<path d="M20.2547 10.961C20.7547 10.961 21.2147 11.246 21.4347 11.696L25.5447 19.906L29.8697 28.561C29.9574 28.7351 30.0054 28.9266 30.0102 29.1215C30.0151 29.3164 29.9767 29.51 29.8978 29.6883C29.8189 29.8667 29.7015 30.0253 29.554 30.1528C29.4065 30.2804 29.2326 30.3736 29.0447 30.426L28.9597 30.446C28.8997 30.461 28.8397 30.466 28.7797 30.471H28.6897L20.2497 28.806L14.9697 19.906L19.0697 11.696C19.1793 11.4743 19.349 11.2878 19.5594 11.1579C19.7698 11.0279 20.0124 10.9597 20.2597 10.961H20.2547Z" fill="#FFBB00"/>
<path d="M20.2548 10.961C20.7548 10.961 21.2148 11.246 21.4348 11.696L25.5448 19.906L20.2498 28.801L11.8248 30.476C11.5987 30.4771 11.3762 30.4202 11.1785 30.3107C10.9808 30.2012 10.8145 30.0428 10.6956 29.8506C10.5766 29.6584 10.5091 29.4388 10.4993 29.213C10.4895 28.9872 10.5379 28.7627 10.6398 28.561L14.9698 19.911L19.0698 11.696C19.1794 11.4743 19.349 11.2878 19.5594 11.1579C19.7698 11.0279 20.0125 10.9597 20.2598 10.961H20.2548Z" fill="url(#paint0_linear_4003_1110)"/>
<path d="M20.2547 10.9609C20.7547 10.9609 21.2147 11.2459 21.4347 11.6959L25.5447 19.9059L20.2497 28.8009L14.9697 19.9059L19.0697 11.6959C19.1722 11.4875 19.3279 11.3097 19.521 11.1807C19.7141 11.0516 19.9379 10.9758 20.1697 10.9609H20.2597H20.2547Z" fill="url(#paint1_linear_4003_1110)"/>
</g>
<path d="M43.59 25.3105H42.2797L45.224 17.1287H46.6502L49.5945 25.3105H48.2842L45.9711 18.6149H45.9071L43.59 25.3105ZM43.8097 22.1065H48.0605V23.1452H43.8097V22.1065ZM53.1601 19.1742V20.133H49.8083V19.1742H53.1601ZM50.7072 17.704H51.9017V23.5088C51.9017 23.7405 51.9363 23.915 52.0055 24.0321C52.0748 24.1467 52.164 24.2252 52.2732 24.2678C52.3851 24.3078 52.5063 24.3278 52.6368 24.3278C52.7326 24.3278 52.8165 24.3211 52.8884 24.3078C52.9604 24.2945 53.0163 24.2838 53.0562 24.2758L53.272 25.2626C53.2027 25.2892 53.1042 25.3159 52.9763 25.3425C52.8485 25.3718 52.6887 25.3878 52.4969 25.3904C52.1827 25.3958 51.8897 25.3398 51.618 25.2227C51.3464 25.1055 51.1266 24.9244 50.9589 24.6793C50.7911 24.4343 50.7072 24.1267 50.7072 23.7565V17.704ZM55.8078 17.1287V25.3105H54.6133V17.1287H55.8078ZM59.2006 25.4464C58.8117 25.4464 58.4602 25.3745 58.1459 25.2306C57.8316 25.0842 57.5826 24.8724 57.3988 24.5954C57.2177 24.3184 57.1272 23.9789 57.1272 23.5767C57.1272 23.2305 57.1938 22.9455 57.3269 22.7218C57.4601 22.498 57.6399 22.3209 57.8663 22.1904C58.0926 22.0599 58.3457 21.9614 58.6253 21.8948C58.905 21.8282 59.1899 21.7776 59.4802 21.743C59.8478 21.7004 60.1461 21.6657 60.3751 21.6391C60.6042 21.6098 60.7706 21.5632 60.8745 21.4993C60.9784 21.4354 61.0303 21.3315 61.0303 21.1877V21.1597C61.0303 20.8108 60.9318 20.5405 60.7347 20.3487C60.5403 20.157 60.25 20.0611 59.8638 20.0611C59.4616 20.0611 59.1447 20.1503 58.913 20.3287C58.6839 20.5045 58.5254 20.7003 58.4375 20.916L57.3149 20.6603C57.4481 20.2875 57.6425 19.9865 57.8982 19.7575C58.1566 19.5257 58.4535 19.358 58.7891 19.2541C59.1247 19.1475 59.4776 19.0943 59.8478 19.0943C60.0928 19.0943 60.3525 19.1236 60.6268 19.1822C60.9038 19.2381 61.1622 19.342 61.4019 19.4938C61.6442 19.6456 61.8426 19.8627 61.9971 20.145C62.1516 20.4246 62.2288 20.7882 62.2288 21.2356V25.3105H61.0623V24.4716H61.0143C60.9371 24.6261 60.8212 24.7779 60.6668 24.927C60.5123 25.0762 60.3139 25.2 60.0715 25.2986C59.8291 25.3971 59.5388 25.4464 59.2006 25.4464ZM59.4603 24.4876C59.7905 24.4876 60.0728 24.4223 60.3072 24.2918C60.5443 24.1613 60.724 23.9909 60.8465 23.7805C60.9717 23.5674 61.0343 23.3397 61.0343 23.0973V22.3063C60.9917 22.3489 60.9091 22.3888 60.7866 22.4261C60.6668 22.4608 60.5296 22.4914 60.3751 22.518C60.2207 22.542 60.0702 22.5646 59.9237 22.5859C59.7772 22.6046 59.6547 22.6206 59.5562 22.6339C59.3244 22.6632 59.1127 22.7124 58.9209 22.7817C58.7318 22.8509 58.58 22.9508 58.4655 23.0813C58.3536 23.2092 58.2977 23.3796 58.2977 23.5927C58.2977 23.8883 58.4069 24.112 58.6253 24.2638C58.8437 24.413 59.122 24.4876 59.4603 24.4876ZM68.4181 20.6723L67.3355 20.8641C67.2902 20.7256 67.2183 20.5937 67.1197 20.4686C67.0239 20.3434 66.8934 20.2409 66.7282 20.161C66.5631 20.0811 66.3567 20.0411 66.109 20.0411C65.7708 20.0411 65.4884 20.117 65.2621 20.2688C65.0357 20.418 64.9225 20.6111 64.9225 20.8481C64.9225 21.0532 64.9984 21.2183 65.1502 21.3435C65.302 21.4687 65.547 21.5712 65.8853 21.6511L66.8601 21.8748C67.4247 22.0053 67.8455 22.2064 68.1225 22.4781C68.3995 22.7497 68.538 23.1026 68.538 23.5368C68.538 23.9043 68.4314 24.2319 68.2184 24.5195C68.008 24.8045 67.7137 25.0282 67.3355 25.1907C66.9599 25.3532 66.5245 25.4344 66.0291 25.4344C65.342 25.4344 64.7813 25.2879 64.3472 24.9949C63.9131 24.6993 63.6467 24.2798 63.5482 23.7365L64.7027 23.5607C64.7747 23.8617 64.9225 24.0894 65.1462 24.2439C65.3699 24.3957 65.6616 24.4716 66.0211 24.4716C66.4126 24.4716 66.7256 24.3904 66.9599 24.2279C67.1943 24.0628 67.3115 23.8617 67.3115 23.6246C67.3115 23.4329 67.2396 23.2718 67.0958 23.1412C66.9546 23.0107 66.7375 22.9122 66.4446 22.8456L65.4059 22.6179C64.8333 22.4874 64.4098 22.2797 64.1355 21.9947C63.8638 21.7097 63.728 21.3488 63.728 20.912C63.728 20.5498 63.8292 20.2329 64.0316 19.9612C64.234 19.6895 64.5136 19.4778 64.8705 19.326C65.2274 19.1715 65.6363 19.0943 66.097 19.0943C66.7602 19.0943 67.2822 19.2381 67.6631 19.5257C68.0439 19.8107 68.2956 20.1929 68.4181 20.6723Z" fill="#2E3A55"/>
<defs>
<linearGradient id="paint0_linear_4003_1110" x1="18.0148" y1="19.816" x2="17.9698" y2="30.476" gradientUnits="userSpaceOnUse">
<stop stop-color="#FFD748"/>
<stop offset="0.54" stop-color="#FFCD48"/>
<stop offset="1" stop-color="#FFCB48"/>
</linearGradient>
<linearGradient id="paint1_linear_4003_1110" x1="20.2547" y1="28.1709" x2="20.2547" y2="18.3159" gradientUnits="userSpaceOnUse">
<stop stop-color="#FFAD00"/>
<stop offset="1" stop-color="#FF7600"/>
</linearGradient>
</defs>
</svg>
