<svg width="107" height="41" viewBox="0 0 107 41" fill="none" xmlns="http://www.w3.org/2000/svg">
<rect y="0.130859" width="107" height="40" rx="4" fill="#F6F9FC"/>
<path d="M16.2501 10.6309C15.5597 10.6309 15.0001 11.1905 15.0001 11.8809V28.2966C15.0001 28.8623 14.6201 29.3575 14.0737 29.504L28.0736 25.7509C28.6201 25.6045 29 25.1092 29 24.5435V11.8809C29 11.1905 28.4404 10.6309 27.75 10.6309H16.2501Z" fill="#00D924"/>
<path d="M10.6267 22.4041C10.0288 22.7493 9.82395 23.5137 10.1692 24.1116L12.9076 28.8548C13.1905 29.3447 13.7672 29.5836 14.3137 29.4372L27.3872 25.9341L22.2935 17.1116C21.9485 16.5137 21.1838 16.3088 20.5859 16.6541L10.6267 22.4041Z" fill="url(#paint0_linear_4003_1452)"/>
<path d="M14.2007 29.4619C14.2384 29.4555 14.276 29.4472 14.3135 29.4372L27.387 25.9341L22.2933 17.1116C21.9483 16.5137 21.1837 16.3088 20.5858 16.6541L14.9999 19.8791V28.296C14.9999 28.8167 14.678 29.2776 14.2007 29.4619Z" fill="url(#paint1_linear_4003_1452)"/>
<path d="M44.1689 16.3127V24.6309H42.9139V16.3127H44.1689ZM47.1136 20.9267V24.6309H45.8991V18.3922H47.0648V19.4076H47.142C47.2855 19.0773 47.5103 18.8119 47.8162 18.6115C48.1249 18.4112 48.5135 18.311 48.9819 18.311C49.407 18.311 49.7793 18.4003 50.0989 18.5791C50.4184 18.7551 50.6661 19.0177 50.8421 19.367C51.0181 19.7163 51.1061 20.1482 51.1061 20.6627V24.6309H49.8917V20.8089C49.8917 20.3567 49.7739 20.0033 49.5384 19.7488C49.3028 19.4916 48.9792 19.3629 48.5676 19.3629C48.286 19.3629 48.0356 19.4239 47.8162 19.5457C47.5996 19.6676 47.4277 19.8463 47.3004 20.0819C47.1758 20.3147 47.1136 20.5963 47.1136 20.9267ZM57.8484 18.3922L55.5861 24.6309H54.2864L52.02 18.3922H53.3238L54.9037 23.193H54.9687L56.5446 18.3922H57.8484ZM61.4054 24.7568C60.8205 24.7568 60.3101 24.6227 59.8741 24.3547C59.4382 24.0866 59.0997 23.7116 58.8587 23.2296C58.6177 22.7476 58.4973 22.1844 58.4973 21.54C58.4973 20.8928 58.6177 20.3269 58.8587 19.8422C59.0997 19.3575 59.4382 18.9812 59.8741 18.7131C60.3101 18.445 60.8205 18.311 61.4054 18.311C61.9902 18.311 62.5006 18.445 62.9366 18.7131C63.3725 18.9812 63.711 19.3575 63.952 19.8422C64.193 20.3269 64.3135 20.8928 64.3135 21.54C64.3135 22.1844 64.193 22.7476 63.952 23.2296C63.711 23.7116 63.3725 24.0866 62.9366 24.3547C62.5006 24.6227 61.9902 24.7568 61.4054 24.7568ZM61.4094 23.7373C61.7885 23.7373 62.1026 23.6371 62.3517 23.4367C62.6008 23.2364 62.785 22.9697 62.9041 22.6366C63.026 22.3036 63.0869 21.9367 63.0869 21.5359C63.0869 21.1379 63.026 20.7723 62.9041 20.4393C62.785 20.1035 62.6008 19.8341 62.3517 19.631C62.1026 19.4279 61.7885 19.3264 61.4094 19.3264C61.0276 19.3264 60.7108 19.4279 60.459 19.631C60.2099 19.8341 60.0244 20.1035 59.9026 20.4393C59.7834 20.7723 59.7239 21.1379 59.7239 21.5359C59.7239 21.9367 59.7834 22.3036 59.9026 22.6366C60.0244 22.9697 60.2099 23.2364 60.459 23.4367C60.7108 23.6371 61.0276 23.7373 61.4094 23.7373ZM65.669 24.6309V18.3922H66.8835V24.6309H65.669ZM66.2823 17.4296C66.0711 17.4296 65.8897 17.3592 65.7381 17.2184C65.5892 17.0749 65.5147 16.9043 65.5147 16.7067C65.5147 16.5063 65.5892 16.3357 65.7381 16.1949C65.8897 16.0514 66.0711 15.9796 66.2823 15.9796C66.4936 15.9796 66.6736 16.0514 66.8225 16.1949C66.9742 16.3357 67.05 16.5063 67.05 16.7067C67.05 16.9043 66.9742 17.0749 66.8225 17.2184C66.6736 17.3592 66.4936 17.4296 66.2823 17.4296ZM71.1451 24.7568C70.5413 24.7568 70.0214 24.62 69.5855 24.3465C69.1522 24.0704 68.8192 23.6899 68.5863 23.2052C68.3534 22.7205 68.237 22.1655 68.237 21.54C68.237 20.9064 68.3561 20.3472 68.5944 19.8625C68.8327 19.3751 69.1685 18.9947 69.6017 18.7212C70.0349 18.4477 70.5453 18.311 71.1329 18.311C71.6068 18.311 72.0292 18.399 72.4002 18.575C72.7711 18.7483 73.0703 18.992 73.2978 19.3061C73.5279 19.6202 73.6647 19.9871 73.708 20.4068H72.5261C72.4611 20.1143 72.3122 19.8625 72.0793 19.6513C71.8491 19.4401 71.5404 19.3345 71.1532 19.3345C70.8148 19.3345 70.5183 19.4239 70.2637 19.6026C70.0119 19.7786 69.8156 20.0304 69.6748 20.358C69.534 20.683 69.4636 21.0675 69.4636 21.5115C69.4636 21.9664 69.5327 22.3591 69.6707 22.6894C69.8088 23.0198 70.0038 23.2756 70.2556 23.4571C70.5101 23.6385 70.8094 23.7292 71.1532 23.7292C71.3834 23.7292 71.5919 23.6872 71.7787 23.6033C71.9683 23.5166 72.1267 23.3934 72.2539 23.2337C72.3839 23.0739 72.4746 22.8817 72.5261 22.6569H73.708C73.6647 23.0604 73.5333 23.4205 73.314 23.7373C73.0947 24.0541 72.8009 24.3032 72.4326 24.4846C72.0671 24.6661 71.6379 24.7568 71.1451 24.7568ZM75.0067 24.6309V18.3922H76.2211V24.6309H75.0067ZM75.62 17.4296C75.4088 17.4296 75.2274 17.3592 75.0757 17.2184C74.9268 17.0749 74.8524 16.9043 74.8524 16.7067C74.8524 16.5063 74.9268 16.3357 75.0757 16.1949C75.2274 16.0514 75.4088 15.9796 75.62 15.9796C75.8312 15.9796 76.0113 16.0514 76.1602 16.1949C76.3118 16.3357 76.3876 16.5063 76.3876 16.7067C76.3876 16.9043 76.3118 17.0749 76.1602 17.2184C76.0113 17.3592 75.8312 17.4296 75.62 17.4296ZM79.0693 20.9267V24.6309H77.8549V18.3922H79.0206V19.4076H79.0978C79.2413 19.0773 79.466 18.8119 79.772 18.6115C80.0807 18.4112 80.4692 18.311 80.9377 18.311C81.3628 18.311 81.7351 18.4003 82.0546 18.5791C82.3741 18.7551 82.6219 19.0177 82.7979 19.367C82.9739 19.7163 83.0619 20.1482 83.0619 20.6627V24.6309H81.8475V20.8089C81.8475 20.3567 81.7297 20.0033 81.4941 19.7488C81.2585 19.4916 80.935 19.3629 80.5234 19.3629C80.2418 19.3629 79.9913 19.4239 79.772 19.5457C79.5554 19.6676 79.3834 19.8463 79.2562 20.0819C79.1316 20.3147 79.0693 20.5963 79.0693 20.9267ZM87.3063 27.1003C86.8108 27.1003 86.3843 27.0353 86.0269 26.9054C85.6721 26.7754 85.3824 26.6034 85.1577 26.3895C84.9329 26.1756 84.7651 25.9414 84.654 25.6869L85.6979 25.2563C85.771 25.3755 85.8685 25.5014 85.9903 25.6341C86.1149 25.7695 86.2827 25.8845 86.4939 25.9793C86.7079 26.0741 86.9827 26.1215 87.3185 26.1215C87.7788 26.1215 88.1592 26.0091 88.4598 25.7844C88.7603 25.5623 88.9106 25.2076 88.9106 24.7202V23.4936H88.8334C88.7603 23.6263 88.6547 23.7739 88.5166 23.9363C88.3812 24.0988 88.1944 24.2396 87.9561 24.3587C87.7178 24.4779 87.4078 24.5374 87.026 24.5374C86.5332 24.5374 86.0891 24.4224 85.6938 24.1922C85.3012 23.9593 84.9898 23.6168 84.7596 23.1646C84.5322 22.7097 84.4185 22.1506 84.4185 21.4872C84.4185 20.8238 84.5308 20.2551 84.7556 19.7813C84.983 19.3074 85.2944 18.9446 85.6897 18.6928C86.0851 18.4383 86.5332 18.311 87.0341 18.311C87.4213 18.311 87.7341 18.376 87.9724 18.5059C88.2107 18.6332 88.3961 18.7821 88.5288 18.9527C88.6642 19.1233 88.7684 19.2736 88.8416 19.4036H88.9309V18.3922H90.121V24.769C90.121 25.3051 89.9964 25.7451 89.7473 26.089C89.4982 26.4329 89.1611 26.6874 88.736 26.8526C88.3135 27.0177 87.837 27.1003 87.3063 27.1003ZM87.2941 23.5302C87.6434 23.5302 87.9385 23.4489 88.1795 23.2865C88.4232 23.1213 88.6073 22.8857 88.7319 22.5797C88.8592 22.2711 88.9228 21.9015 88.9228 21.4709C88.9228 21.0512 88.8605 20.6816 88.736 20.3621C88.6114 20.0426 88.4286 19.7935 88.1876 19.6148C87.9466 19.4333 87.6488 19.3426 87.2941 19.3426C86.9285 19.3426 86.6239 19.4374 86.3802 19.627C86.1365 19.8138 85.9524 20.0683 85.8278 20.3905C85.706 20.7128 85.6451 21.0729 85.6451 21.4709C85.6451 21.8798 85.7073 22.2386 85.8319 22.5473C85.9565 22.8559 86.1406 23.0969 86.3843 23.2702C86.6307 23.4435 86.934 23.5302 87.2941 23.5302Z" fill="#2E3A55"/>
<defs>
<linearGradient id="paint0_linear_4003_1452" x1="18.6949" y1="20.2553" x2="18.6947" y2="29.1303" gradientUnits="userSpaceOnUse">
<stop stop-color="#FFD748"/>
<stop offset="1" stop-color="#FFC148"/>
</linearGradient>
<linearGradient id="paint1_linear_4003_1452" x1="20.7943" y1="16.4864" x2="20.7939" y2="29.4619" gradientUnits="userSpaceOnUse">
<stop stop-color="#00A600"/>
<stop offset="1" stop-color="#00D924"/>
</linearGradient>
</defs>
</svg>
