<svg width="109" height="41" viewBox="0 0 109 41" fill="none" xmlns="http://www.w3.org/2000/svg">
<rect y="0.130859" width="109" height="40" rx="4" fill="#F6F9FC"/>
<path d="M25.77 12.1309H15.92C15.5 12.1309 15.105 12.3459 14.875 12.7009C14.762 12.8769 14.6945 13.0783 14.6788 13.287C14.6631 13.4956 14.6996 13.7049 14.785 13.8959L17.335 19.6259C17.485 19.9459 17.485 20.3159 17.335 20.6359L14 28.1309H25.77C26.255 28.1309 26.7 27.8409 26.9 27.3909L29.89 20.6409C30.04 20.3159 30.04 19.9459 29.89 19.6209L26.9 12.8709C26.8033 12.6515 26.6452 12.4648 26.4446 12.3335C26.2441 12.2022 26.0097 12.1318 25.77 12.1309Z" fill="#9966FF"/>
<path d="M13.6151 28.1309C13.4457 28.1307 13.2784 28.0932 13.1251 28.0209H13.1451C12.8713 27.8988 12.6522 27.6797 12.5301 27.4059L10.1101 21.8959C10.0258 21.7057 9.98938 21.4978 10.0042 21.2903C10.019 21.0828 10.0846 20.8821 10.1951 20.7059C10.305 20.5304 10.4576 20.3856 10.6386 20.285C10.8196 20.1845 11.0231 20.1314 11.2301 20.1309H20.9801C21.4651 20.1309 21.9001 20.4159 22.0951 20.8609L24.4951 26.2859L24.8351 27.0509C24.8851 27.1609 24.9501 27.2609 25.0251 27.3509C25.2701 27.6709 25.6251 28.0009 26.0151 28.1059C25.9601 28.1209 25.8651 28.1309 25.7401 28.1309H13.6101H13.6151Z" fill="url(#paint0_linear_4003_1229)"/>
<path d="M20.985 20.13C21.435 20.13 21.845 20.38 22.055 20.78L22.095 20.86L24.495 26.285L24.835 27.05C25.0871 27.5107 25.4946 27.8669 25.985 28.055L26.075 28.09C25.975 28.115 25.875 28.13 25.77 28.13H14L17.335 20.63C17.41 20.47 17.445 20.3 17.445 20.125H20.985V20.13Z" fill="url(#paint1_linear_4003_1229)"/>
<path d="M49.5662 19.2017H48.3405C48.2934 18.9399 48.2056 18.7094 48.0773 18.5103C47.949 18.3113 47.7918 18.1424 47.6059 18.0036C47.4199 17.8648 47.2117 17.76 46.9813 17.6893C46.7534 17.6186 46.5112 17.5832 46.2545 17.5832C45.7909 17.5832 45.3758 17.6998 45.0092 17.9329C44.6452 18.1659 44.3571 18.5077 44.1449 18.9582C43.9354 19.4086 43.8307 19.9586 43.8307 20.6081C43.8307 21.2629 43.9354 21.8155 44.1449 22.2659C44.3571 22.7164 44.6465 23.0569 45.0131 23.2873C45.3798 23.5178 45.7923 23.633 46.2506 23.633C46.5046 23.633 46.7456 23.599 46.9734 23.5309C47.2039 23.4602 47.4121 23.3567 47.598 23.2205C47.784 23.0844 47.9411 22.9181 48.0694 22.7216C48.2004 22.5226 48.2907 22.2947 48.3405 22.0381L49.5662 22.042C49.5007 22.4375 49.3737 22.8015 49.1851 23.1341C48.9992 23.4641 48.7595 23.7496 48.4662 23.9905C48.1755 24.2288 47.8429 24.4135 47.4684 24.5444C47.0939 24.6754 46.6853 24.7409 46.2427 24.7409C45.5461 24.7409 44.9254 24.5759 44.3806 24.2459C43.8359 23.9133 43.4064 23.4379 43.0921 22.8198C42.7805 22.2018 42.6246 21.4645 42.6246 20.6081C42.6246 19.7491 42.7818 19.0119 43.096 18.3964C43.4103 17.7783 43.8398 17.3043 44.3846 16.9743C44.9293 16.6417 45.5487 16.4754 46.2427 16.4754C46.6696 16.4754 47.0677 16.537 47.437 16.66C47.8089 16.7805 48.1428 16.9586 48.4387 17.1943C48.7347 17.4274 48.9795 17.7129 49.1733 18.0507C49.3671 18.3859 49.4981 18.7696 49.5662 19.2017ZM52.099 21.0481V24.6309H50.9244V16.5854H52.0833V19.5789H52.158C52.2994 19.2541 52.5155 18.9962 52.8062 18.805C53.0969 18.6138 53.4766 18.5182 53.9454 18.5182C54.3592 18.5182 54.7206 18.6033 55.0297 18.7735C55.3413 18.9438 55.5823 19.1978 55.7525 19.5357C55.9254 19.8709 56.0118 20.2899 56.0118 20.7928V24.6309H54.8372V20.9342C54.8372 20.4916 54.7233 20.1485 54.4954 19.9049C54.2676 19.6588 53.9507 19.5357 53.5447 19.5357C53.2671 19.5357 53.0183 19.5946 52.7983 19.7124C52.5809 19.8303 52.4094 20.0032 52.2837 20.231C52.1606 20.4562 52.099 20.7286 52.099 21.0481ZM60.1799 24.7526C59.5854 24.7526 59.0733 24.6256 58.6438 24.3716C58.2169 24.1149 57.887 23.7548 57.6539 23.2913C57.4234 22.8251 57.3082 22.279 57.3082 21.6531C57.3082 21.035 57.4234 20.4903 57.6539 20.0189C57.887 19.5475 58.2117 19.1795 58.6281 18.915C59.0472 18.6505 59.5369 18.5182 60.0974 18.5182C60.4378 18.5182 60.7678 18.5745 61.0873 18.6871C61.4068 18.7997 61.6936 18.9765 61.9477 19.2175C62.2017 19.4584 62.402 19.7714 62.5487 20.1564C62.6954 20.5387 62.7687 21.0036 62.7687 21.551V21.9674H57.9721V21.0874H61.6177C61.6177 20.7784 61.5548 20.5047 61.4291 20.2664C61.3034 20.0254 61.1266 19.8355 60.8988 19.6967C60.6735 19.5579 60.409 19.4885 60.1052 19.4885C59.7752 19.4885 59.4871 19.5697 59.241 19.7321C58.9974 19.8918 58.8088 20.1014 58.6753 20.3606C58.5443 20.6173 58.4788 20.8962 58.4788 21.1974V21.8849C58.4788 22.2882 58.5496 22.6313 58.691 22.9141C58.835 23.197 59.0354 23.413 59.292 23.5623C59.5487 23.709 59.8486 23.7823 60.1916 23.7823C60.4143 23.7823 60.6172 23.7509 60.8006 23.688C60.9839 23.6226 61.1423 23.5257 61.2759 23.3973C61.4095 23.269 61.5116 23.1106 61.5823 22.922L62.6941 23.1223C62.605 23.4497 62.4453 23.7365 62.2148 23.9827C61.9869 24.2262 61.7002 24.4161 61.3545 24.5523C61.0114 24.6859 60.6198 24.7526 60.1799 24.7526ZM66.6137 24.7526C66.0296 24.7526 65.5268 24.6204 65.1051 24.3559C64.6861 24.0887 64.364 23.7208 64.1387 23.252C63.9135 22.7832 63.8009 22.2463 63.8009 21.6413C63.8009 21.0285 63.9161 20.4877 64.1466 20.0189C64.3771 19.5475 64.7018 19.1795 65.1209 18.915C65.5399 18.6505 66.0336 18.5182 66.6019 18.5182C67.0602 18.5182 67.4688 18.6033 67.8276 18.7735C68.1864 18.9412 68.4758 19.1769 68.6957 19.4807C68.9184 19.7845 69.0506 20.1393 69.0925 20.5453H67.9493C67.8865 20.2624 67.7424 20.0189 67.5172 19.8146C67.2946 19.6103 66.996 19.5082 66.6215 19.5082C66.2942 19.5082 66.0074 19.5946 65.7612 19.7674C65.5176 19.9377 65.3278 20.1812 65.1916 20.4981C65.0554 20.8124 64.9873 21.1843 64.9873 21.6138C64.9873 22.0538 65.0541 22.4335 65.1876 22.7531C65.3212 23.0726 65.5098 23.3201 65.7533 23.4955C65.9995 23.671 66.2889 23.7587 66.6215 23.7587C66.8441 23.7587 67.0458 23.7182 67.2265 23.637C67.4098 23.5532 67.563 23.434 67.6861 23.2795C67.8118 23.125 67.8996 22.939 67.9493 22.7216H69.0925C69.0506 23.1119 68.9236 23.4602 68.7115 23.7666C68.4993 24.073 68.2152 24.314 67.859 24.4894C67.5054 24.6649 67.0903 24.7526 66.6137 24.7526ZM71.429 22.5841L71.4211 21.1503H71.6254L74.0296 18.5968H75.436L72.6939 21.5038H72.5093L71.429 22.5841ZM70.3486 24.6309V16.5854H71.5232V24.6309H70.3486ZM74.1592 24.6309L71.9986 21.7631L72.8078 20.942L75.601 24.6309H74.1592ZM78.7997 24.7526C78.234 24.7526 77.7403 24.623 77.3187 24.3637C76.897 24.1044 76.5697 23.7417 76.3366 23.2755C76.1035 22.8094 75.9869 22.2646 75.9869 21.6413C75.9869 21.0154 76.1035 20.468 76.3366 19.9992C76.5697 19.5304 76.897 19.1664 77.3187 18.9071C77.7403 18.6478 78.234 18.5182 78.7997 18.5182C79.3654 18.5182 79.8591 18.6478 80.2807 18.9071C80.7024 19.1664 81.0298 19.5304 81.2628 19.9992C81.4959 20.468 81.6125 21.0154 81.6125 21.6413C81.6125 22.2646 81.4959 22.8094 81.2628 23.2755C81.0298 23.7417 80.7024 24.1044 80.2807 24.3637C79.8591 24.623 79.3654 24.7526 78.7997 24.7526ZM78.8036 23.7666C79.1703 23.7666 79.4741 23.6697 79.715 23.4759C79.956 23.2821 80.1341 23.0241 80.2493 22.702C80.3672 22.3799 80.4261 22.025 80.4261 21.6374C80.4261 21.2524 80.3672 20.8988 80.2493 20.5767C80.1341 20.252 79.956 19.9914 79.715 19.7949C79.4741 19.5985 79.1703 19.5003 78.8036 19.5003C78.4344 19.5003 78.1279 19.5985 77.8844 19.7949C77.6434 19.9914 77.464 20.252 77.3462 20.5767C77.2309 20.8988 77.1733 21.2524 77.1733 21.6374C77.1733 22.025 77.2309 22.3799 77.3462 22.702C77.464 23.0241 77.6434 23.2821 77.8844 23.4759C78.1279 23.6697 78.4344 23.7666 78.8036 23.7666ZM86.746 22.1284V18.5968H87.9245V24.6309H86.7695V23.5859H86.7067C86.5679 23.908 86.3453 24.1765 86.0388 24.3912C85.735 24.6034 85.3566 24.7094 84.9035 24.7094C84.5159 24.7094 84.1728 24.6243 83.8743 24.4541C83.5783 24.2812 83.3452 24.0259 83.175 23.688C83.0074 23.3502 82.9236 22.9325 82.9236 22.4349V18.5968H84.0982V22.2934C84.0982 22.7046 84.2121 23.032 84.44 23.2755C84.6678 23.5191 84.9638 23.6409 85.3278 23.6409C85.5478 23.6409 85.7665 23.5859 85.9838 23.4759C86.2038 23.3659 86.3859 23.1996 86.5299 22.977C86.6766 22.7544 86.7486 22.4715 86.746 22.1284ZM92.3194 18.5968V19.5396H89.0235V18.5968H92.3194ZM89.9074 17.1511H91.082V22.8591C91.082 23.087 91.116 23.2585 91.1841 23.3738C91.2522 23.4864 91.34 23.5636 91.4473 23.6055C91.5573 23.6448 91.6765 23.6645 91.8048 23.6645C91.8991 23.6645 91.9816 23.6579 92.0523 23.6448C92.123 23.6317 92.178 23.6212 92.2173 23.6134L92.4294 24.5837C92.3614 24.6099 92.2644 24.6361 92.1387 24.6623C92.013 24.6911 91.8559 24.7068 91.6673 24.7094C91.3583 24.7147 91.0702 24.6597 90.8031 24.5444C90.5359 24.4292 90.3199 24.2511 90.1549 24.0102C89.9899 23.7692 89.9074 23.4667 89.9074 23.1027V17.1511Z" fill="#2E3A55"/>
<defs>
<linearGradient id="paint0_linear_4003_1229" x1="18.0051" y1="27.9259" x2="18.0051" y2="20.7109" gradientUnits="userSpaceOnUse">
<stop stop-color="#21CFE0"/>
<stop offset="0.17" stop-color="#20D1E0"/>
<stop offset="0.38" stop-color="#18E2E2"/>
<stop offset="0.61" stop-color="#13ECE3"/>
<stop offset="1" stop-color="#11EFE3"/>
</linearGradient>
<linearGradient id="paint1_linear_4003_1229" x1="20.535" y1="31.63" x2="20.535" y2="17.38" gradientUnits="userSpaceOnUse">
<stop stop-color="#0048E5"/>
<stop offset="1" stop-color="#9B66FF"/>
</linearGradient>
</defs>
</svg>
