<svg width="135" height="41" viewBox="0 0 135 41" fill="none" xmlns="http://www.w3.org/2000/svg">
<rect y="0.810547" width="135" height="40" rx="4" fill="#F6F9FC"/>
<path d="M15.7801 18.9154C15.6158 18.4973 15.924 18.0449 16.3732 18.0449H24.2646C24.2646 18.2032 24.2351 18.3614 24.1762 18.5113L22.4224 22.9721C22.2307 23.4597 21.7602 23.7803 21.2363 23.7803H17.6454C17.6454 23.7012 17.6306 23.622 17.6012 23.5471L15.7801 18.9154Z" fill="url(#paint0_linear_4003_1368)"/>
<path d="M10.0448 13.181C9.88043 12.7629 10.1886 12.3105 10.6379 12.3105H17.3498C17.359 12.3105 17.3682 12.3107 17.3773 12.3111C17.3902 12.3107 17.4032 12.3105 17.4162 12.3105H21.2363C21.7602 12.3105 22.2308 12.6311 22.4225 13.1187L24.1763 17.5795C24.2352 17.7294 24.2647 17.8876 24.2647 18.0459H16.3733C15.924 18.0459 15.6158 18.4982 15.7801 18.9163L17.6012 23.5481C17.6307 23.623 17.6454 23.7021 17.6454 23.7812H10.6379C10.1886 23.7812 9.88043 23.3289 10.0448 22.9108L11.8658 18.2791C11.9248 18.1292 11.9248 17.9626 11.8658 17.8127L10.0448 13.181Z" fill="url(#paint1_linear_4003_1368)"/>
<path fill-rule="evenodd" clip-rule="evenodd" d="M17.6454 23.7803C17.6454 23.8594 17.6306 23.9385 17.6012 24.0135L15.7801 28.6452C15.6158 29.0633 15.924 29.5156 16.3732 29.5156H26.9716C27.4955 29.5156 27.9661 29.195 28.1578 28.7075L29.9116 24.2466C30.0294 23.9469 30.0294 23.6137 29.9116 23.3139L28.1578 18.8531C27.9661 18.3655 27.4955 18.0449 26.9716 18.0449H24.2646C24.2646 18.2032 24.2351 18.3614 24.1762 18.5113L22.4224 22.9721C22.2307 23.4597 21.7602 23.7803 21.2363 23.7803H17.6454Z" fill="#9966FF"/>
<path d="M42.8839 25.3105V17.2651H45.7517C46.3776 17.2651 46.8962 17.379 47.3073 17.6069C47.7185 17.8347 48.0262 18.1464 48.2305 18.5418C48.4348 18.9347 48.5369 19.3773 48.5369 19.8697C48.5369 20.3646 48.4335 20.8099 48.2266 21.2053C48.0223 21.5982 47.7133 21.9098 47.2995 22.1403C46.8883 22.3681 46.371 22.4821 45.7477 22.4821H43.7757V21.4528H45.6377C46.0332 21.4528 46.354 21.3847 46.6002 21.2485C46.8464 21.1097 47.0271 20.9212 47.1423 20.6828C47.2576 20.4445 47.3152 20.1735 47.3152 19.8697C47.3152 19.5659 47.2576 19.2961 47.1423 19.0604C47.0271 18.8247 46.8451 18.64 46.5963 18.5065C46.3501 18.3729 46.0253 18.3061 45.622 18.3061H44.0978V25.3105H42.8839ZM51.5677 25.4441C51.1854 25.4441 50.8397 25.3734 50.5306 25.232C50.2216 25.0879 49.9767 24.8797 49.796 24.6074C49.6179 24.335 49.5289 24.0011 49.5289 23.6056C49.5289 23.2651 49.5943 22.9849 49.7253 22.7649C49.8562 22.5449 50.033 22.3708 50.2556 22.2424C50.4782 22.1141 50.727 22.0172 51.002 21.9517C51.277 21.8863 51.5573 21.8365 51.8427 21.8024C52.2041 21.7605 52.4975 21.7265 52.7227 21.7003C52.9479 21.6715 53.1116 21.6257 53.2137 21.5628C53.3159 21.5 53.367 21.3978 53.367 21.2564V21.2289C53.367 20.8858 53.2701 20.62 53.0762 20.4314C52.8851 20.2429 52.5996 20.1486 52.2198 20.1486C51.8244 20.1486 51.5127 20.2363 51.2849 20.4118C51.0596 20.5846 50.9038 20.7771 50.8174 20.9893L49.7135 20.7378C49.8444 20.3712 50.0356 20.0752 50.2871 19.85C50.5411 19.6222 50.8331 19.4572 51.1631 19.355C51.4931 19.2503 51.8401 19.1979 52.2041 19.1979C52.4451 19.1979 52.7004 19.2267 52.9702 19.2843C53.2426 19.3393 53.4966 19.4415 53.7323 19.5907C53.9706 19.74 54.1657 19.9535 54.3176 20.2311C54.4695 20.5061 54.5455 20.8635 54.5455 21.3035V25.3105H53.3984V24.4856H53.3512C53.2753 24.6375 53.1614 24.7868 53.0095 24.9334C52.8576 25.0801 52.6625 25.2019 52.4241 25.2988C52.1858 25.3957 51.9003 25.4441 51.5677 25.4441ZM51.8231 24.5013C52.1478 24.5013 52.4254 24.4371 52.6559 24.3088C52.889 24.1805 53.0658 24.0129 53.1862 23.806C53.3093 23.5964 53.3709 23.3725 53.3709 23.1342V22.3564C53.329 22.3983 53.2478 22.4375 53.1273 22.4742C53.0095 22.5083 52.8746 22.5384 52.7227 22.5646C52.5708 22.5881 52.4228 22.6104 52.2788 22.6313C52.1347 22.6497 52.0143 22.6654 51.9174 22.6785C51.6895 22.7073 51.4813 22.7557 51.2927 22.8238C51.1068 22.8919 50.9575 22.9901 50.8449 23.1185C50.7349 23.2442 50.6799 23.4118 50.6799 23.6213C50.6799 23.912 50.7873 24.132 51.002 24.2813C51.2168 24.428 51.4905 24.5013 51.8231 24.5013ZM56.6364 27.5733C56.4609 27.5733 56.3012 27.5589 56.1571 27.5301C56.0131 27.5039 55.9057 27.4751 55.835 27.4437L56.1178 26.4812C56.3326 26.5388 56.5238 26.5637 56.6914 26.5559C56.859 26.548 57.007 26.4852 57.1353 26.3673C57.2663 26.2494 57.3815 26.057 57.481 25.7898L57.6264 25.3891L55.4186 19.2765H56.6757L58.2039 23.9592H58.2667L59.7949 19.2765H61.0559L58.5692 26.1159C58.454 26.4302 58.3073 26.696 58.1292 26.9134C57.9511 27.1333 57.739 27.2983 57.4928 27.4083C57.2466 27.5183 56.9612 27.5733 56.6364 27.5733ZM62.1598 25.3105V19.2765H63.2873V20.2586H63.3619C63.4876 19.926 63.6932 19.6667 63.9787 19.4807C64.2641 19.2922 64.6059 19.1979 65.004 19.1979C65.4073 19.1979 65.7452 19.2922 66.0175 19.4807C66.2925 19.6693 66.4955 19.9286 66.6264 20.2586H66.6893C66.8333 19.9364 67.0625 19.6798 67.3768 19.4886C67.691 19.2948 68.0656 19.1979 68.5003 19.1979C69.0477 19.1979 69.4942 19.3694 69.8399 19.7125C70.1882 20.0556 70.3624 20.5728 70.3624 21.2642V25.3105H69.1878V21.3742C69.1878 20.9657 69.0765 20.6697 68.8539 20.4864C68.6313 20.3031 68.3654 20.2114 68.0564 20.2114C67.674 20.2114 67.3768 20.3293 67.1646 20.565C66.9525 20.7981 66.8464 21.0979 66.8464 21.4646V25.3105H65.6758V21.2996C65.6758 20.9722 65.5736 20.709 65.3693 20.51C65.1651 20.3109 64.8992 20.2114 64.5719 20.2114C64.3492 20.2114 64.1437 20.2704 63.9551 20.3882C63.7691 20.5034 63.6186 20.6645 63.5033 20.8714C63.3907 21.0783 63.3344 21.3179 63.3344 21.5903V25.3105H62.1598ZM74.5373 25.4323C73.9428 25.4323 73.4308 25.3053 73.0013 25.0513C72.5744 24.7946 72.2444 24.4345 72.0114 23.9709C71.7809 23.5048 71.6656 22.9587 71.6656 22.3328C71.6656 21.7147 71.7809 21.17 72.0114 20.6986C72.2444 20.2271 72.5692 19.8592 72.9856 19.5947C73.4046 19.3301 73.8944 19.1979 74.4548 19.1979C74.7953 19.1979 75.1253 19.2542 75.4448 19.3668C75.7643 19.4794 76.0511 19.6562 76.3051 19.8972C76.5592 20.1381 76.7595 20.4511 76.9062 20.836C77.0529 21.2184 77.1262 21.6833 77.1262 22.2306V22.6471H72.3296V21.7671H75.9752C75.9752 21.4581 75.9123 21.1844 75.7866 20.946C75.6609 20.7051 75.4841 20.5152 75.2562 20.3764C75.031 20.2376 74.7665 20.1682 74.4627 20.1682C74.1327 20.1682 73.8446 20.2494 73.5984 20.4118C73.3549 20.5715 73.1663 20.7811 73.0327 21.0403C72.9018 21.297 72.8363 21.5759 72.8363 21.8771V22.5646C72.8363 22.9679 72.907 23.311 73.0485 23.5938C73.1925 23.8767 73.3929 24.0927 73.6495 24.242C73.9062 24.3887 74.206 24.462 74.5491 24.462C74.7717 24.462 74.9747 24.4306 75.158 24.3677C75.3414 24.3022 75.4998 24.2053 75.6334 24.077C75.7669 23.9487 75.8691 23.7902 75.9398 23.6017L77.0515 23.802C76.9625 24.1294 76.8027 24.4162 76.5723 24.6624C76.3444 24.9059 76.0577 25.0958 75.7119 25.232C75.3689 25.3655 74.9773 25.4323 74.5373 25.4323ZM79.6041 21.7278V25.3105H78.4294V19.2765H79.5569V20.2586H79.6316C79.7704 19.9391 79.9877 19.6824 80.2837 19.4886C80.5822 19.2948 80.9581 19.1979 81.4111 19.1979C81.8223 19.1979 82.1824 19.2843 82.4915 19.4572C82.8005 19.6274 83.0401 19.8814 83.2104 20.2193C83.3806 20.5571 83.4657 20.9749 83.4657 21.4725V25.3105H82.2911V21.6139C82.2911 21.1765 82.1772 20.8347 81.9493 20.5886C81.7215 20.3398 81.4085 20.2154 81.0104 20.2154C80.7381 20.2154 80.4958 20.2743 80.2837 20.3921C80.0742 20.51 79.9079 20.6828 79.7848 20.9107C79.6643 21.1359 79.6041 21.4083 79.6041 21.7278ZM87.8577 19.2765V20.2193H84.5618V19.2765H87.8577ZM85.4457 17.8308H86.6203V23.5388C86.6203 23.7667 86.6543 23.9382 86.7224 24.0534C86.7905 24.1661 86.8782 24.2433 86.9856 24.2852C87.0956 24.3245 87.2148 24.3441 87.3431 24.3441C87.4374 24.3441 87.5199 24.3376 87.5906 24.3245C87.6613 24.3114 87.7163 24.3009 87.7556 24.2931L87.9677 25.2634C87.8996 25.2896 87.8027 25.3158 87.677 25.342C87.5513 25.3708 87.3942 25.3865 87.2056 25.3891C86.8966 25.3944 86.6085 25.3394 86.3413 25.2241C86.0742 25.1089 85.8581 24.9308 85.6931 24.6899C85.5281 24.4489 85.4457 24.1464 85.4457 23.7824V17.8308ZM92.179 25.3105V17.2651H93.3929V24.2656H97.0385V25.3105H92.179ZM98.329 25.3105V19.2765H99.5036V25.3105H98.329ZM98.9222 18.3454C98.7179 18.3454 98.5424 18.2773 98.3958 18.1411C98.2517 18.0023 98.1797 17.8373 98.1797 17.6462C98.1797 17.4523 98.2517 17.2874 98.3958 17.1512C98.5424 17.0124 98.7179 16.943 98.9222 16.943C99.1265 16.943 99.3006 17.0124 99.4447 17.1512C99.5913 17.2874 99.6647 17.4523 99.6647 17.6462C99.6647 17.8373 99.5913 18.0023 99.4447 18.1411C99.3006 18.2773 99.1265 18.3454 98.9222 18.3454ZM102.258 21.7278V25.3105H101.084V19.2765H102.211V20.2586H102.286C102.425 19.9391 102.642 19.6824 102.938 19.4886C103.237 19.2948 103.612 19.1979 104.065 19.1979C104.477 19.1979 104.837 19.2843 105.146 19.4572C105.455 19.6274 105.694 19.8814 105.865 20.2193C106.035 20.5571 106.12 20.9749 106.12 21.4725V25.3105H104.945V21.6139C104.945 21.1765 104.832 20.8347 104.604 20.5886C104.376 20.3398 104.063 20.2154 103.665 20.2154C103.392 20.2154 103.15 20.2743 102.938 20.3921C102.729 20.51 102.562 20.6828 102.439 20.9107C102.319 21.1359 102.258 21.4083 102.258 21.7278ZM108.776 23.2638L108.768 21.8299H108.972L111.376 19.2765H112.783L110.041 22.1835H109.856L108.776 23.2638ZM107.695 25.3105V17.2651H108.87V25.3105H107.695ZM111.506 25.3105L109.345 22.4428L110.155 21.6217L112.948 25.3105H111.506ZM118.375 20.7496L117.31 20.9382C117.266 20.802 117.195 20.6724 117.098 20.5493C117.004 20.4262 116.875 20.3254 116.713 20.2468C116.551 20.1682 116.348 20.1289 116.104 20.1289C115.772 20.1289 115.494 20.2036 115.271 20.3528C115.049 20.4995 114.937 20.6894 114.937 20.9225C114.937 21.1241 115.012 21.2865 115.161 21.4096C115.311 21.5327 115.552 21.6335 115.884 21.7121L116.843 21.9321C117.398 22.0604 117.812 22.2581 118.084 22.5253C118.357 22.7924 118.493 23.1394 118.493 23.5663C118.493 23.9277 118.388 24.2499 118.178 24.5327C117.972 24.8129 117.682 25.0329 117.31 25.1927C116.941 25.3525 116.513 25.4323 116.026 25.4323C115.35 25.4323 114.799 25.2883 114.372 25.0002C113.945 24.7095 113.683 24.297 113.586 23.7627L114.721 23.5899C114.792 23.8858 114.937 24.1098 115.157 24.2617C115.377 24.4109 115.664 24.4856 116.018 24.4856C116.403 24.4856 116.711 24.4057 116.941 24.2459C117.171 24.0836 117.287 23.8858 117.287 23.6527C117.287 23.4642 117.216 23.3057 117.075 23.1774C116.936 23.0491 116.722 22.9522 116.434 22.8867L115.413 22.6628C114.85 22.5344 114.433 22.3302 114.164 22.0499C113.896 21.7697 113.763 21.4148 113.763 20.9853C113.763 20.6292 113.862 20.3175 114.061 20.0504C114.26 19.7832 114.535 19.575 114.886 19.4257C115.237 19.2738 115.639 19.1979 116.092 19.1979C116.745 19.1979 117.258 19.3393 117.632 19.6222C118.007 19.9024 118.254 20.2782 118.375 20.7496Z" fill="#2E3A55"/>
<defs>
<linearGradient id="paint0_linear_4003_1368" x1="17.0311" y1="23.143" x2="24.6782" y2="17.089" gradientUnits="userSpaceOnUse">
<stop stop-color="#0048E5"/>
<stop offset="0.63979" stop-color="#625AF5"/>
<stop offset="1" stop-color="#8A62FC"/>
</linearGradient>
<linearGradient id="paint1_linear_4003_1368" x1="17.1323" y1="13.0638" x2="17.0311" y2="23.144" gradientUnits="userSpaceOnUse">
<stop stop-color="#11EFE3"/>
<stop offset="0.33" stop-color="#15E8E2"/>
<stop offset="0.74" stop-color="#1FD3E0"/>
<stop offset="1" stop-color="#21CFE0"/>
</linearGradient>
</defs>
</svg>
