<svg width="331" height="221" viewBox="0 0 331 221" fill="none" xmlns="http://www.w3.org/2000/svg">
<g clip-path="url(#clip0_4003_1765)">
<rect y="0.0800781" width="330.66" height="220.44" rx="4" fill="#F6F9FC"/>
<g clip-path="url(#clip1_4003_1765)">
<g clip-path="url(#clip2_4003_1765)">
<g clip-path="url(#clip3_4003_1765)">
<g clip-path="url(#clip4_4003_1765)">
<g clip-path="url(#clip5_4003_1765)">
<mask id="mask0_4003_1765" style="mask-type:luminance" maskUnits="userSpaceOnUse" x="0" y="3" width="359" height="251">
<path d="M358.29 3.04297H0V253.747H358.29V3.04297Z" fill="white"/>
</mask>
<g mask="url(#mask0_4003_1765)">
<path d="M94.5715 253.758C121.827 253.758 143.923 231.44 143.923 203.908C143.923 176.377 121.827 154.059 94.5715 154.059C67.3155 154.059 45.2202 176.377 45.2202 203.908C45.2202 231.44 67.3155 253.758 94.5715 253.758Z" fill="#0077C5"/>
<path fill-rule="evenodd" clip-rule="evenodd" d="M114.562 209.475C114.434 209.474 114.311 209.421 114.22 209.327C114.128 209.232 114.077 209.104 114.077 208.971C114.082 208.84 114.136 208.718 114.226 208.628C114.316 208.538 114.437 208.488 114.562 208.488C114.688 208.488 114.808 208.538 114.899 208.628C114.99 208.718 115.043 208.84 115.049 208.971C115.049 209.247 114.832 209.475 114.562 209.475ZM114.562 208.373C114.243 208.373 113.985 208.639 113.985 208.971C113.985 209.302 114.243 209.562 114.562 209.562C114.882 209.562 115.141 209.301 115.141 208.971C115.141 208.639 114.882 208.373 114.562 208.373ZM114.454 208.925V208.734H114.56C114.621 208.734 114.69 208.753 114.69 208.827C114.69 208.907 114.614 208.925 114.547 208.925H114.454ZM114.806 208.828C114.806 208.684 114.687 208.631 114.565 208.631H114.338V209.303H114.454V209.023H114.538L114.69 209.304H114.832L114.656 209.01C114.748 208.989 114.806 208.926 114.806 208.828ZM111.17 200.302C111.327 200.306 111.483 200.276 111.629 200.216C111.775 200.155 111.908 200.066 112.021 199.952C112.132 199.838 112.222 199.701 112.282 199.551C112.343 199.401 112.375 199.24 112.375 199.077C112.375 198.914 112.343 198.753 112.282 198.602C112.222 198.452 112.133 198.316 112.021 198.202C111.908 198.088 111.776 197.998 111.63 197.938C111.484 197.877 111.328 197.849 111.171 197.852C110.862 197.858 110.568 197.99 110.351 198.219C110.134 198.448 110.013 198.756 110.013 199.077C110.013 199.397 110.134 199.705 110.351 199.934C110.568 200.163 110.862 200.296 111.171 200.302H111.17ZM108.002 201.36V203.157H110.193V209.476H112.147V203.157H114.337V201.36H108.002ZM90.954 200.302C91.1091 200.302 91.2627 200.27 91.4059 200.209C91.5491 200.147 91.6793 200.057 91.789 199.943C91.8986 199.83 91.9856 199.695 92.0449 199.546C92.1043 199.396 92.1348 199.238 92.1348 199.077C92.1348 198.916 92.1043 198.757 92.0449 198.608C91.9856 198.459 91.8986 198.325 91.789 198.21C91.6793 198.097 91.5491 198.007 91.4059 197.945C91.2627 197.883 91.1091 197.852 90.954 197.852C90.6451 197.858 90.3508 197.99 90.1345 198.219C89.9182 198.448 89.797 198.756 89.797 199.077C89.797 199.397 89.9182 199.705 90.1345 199.934C90.3508 200.163 90.6451 200.296 90.954 200.302ZM87.7863 203.156H89.9768V209.476H91.9304V203.157H94.1214V201.36H87.7868V203.157L87.7863 203.156ZM104.679 209.476H106.633V201.365H104.679V209.476ZM100.725 205.826C100.725 206.908 100.138 208.022 98.9011 208.022C97.6475 208.022 97.4359 206.823 97.4359 205.86V201.365H95.4817V206.434C95.4817 208.09 96.3283 209.712 98.3642 209.712C99.5199 209.712 100.448 208.985 100.79 208.174H100.823V209.476H102.678V201.365H100.725V205.826ZM83.9091 201.128C82.753 201.128 81.825 201.855 81.4831 202.665H81.4502V201.365H79.5944V209.476H81.5481V205.015C81.5481 203.933 82.1346 202.817 83.3719 202.817C84.6252 202.817 84.8374 204.018 84.8374 204.981V209.476H86.7911V204.406C86.7911 202.75 85.9451 201.128 83.9091 201.128ZM75.6387 209.476H77.5923V201.365H75.6387V209.476Z" fill="white"/>
<path d="M172.024 132.343C199.28 132.343 221.375 110.248 221.375 82.9919C221.375 55.7359 199.28 33.6406 172.024 33.6406C144.768 33.6406 122.672 55.7359 122.672 82.9919C122.672 110.248 144.768 132.343 172.024 132.343Z" fill="black"/>
<path fill-rule="evenodd" clip-rule="evenodd" d="M142.013 80.6736C142.748 80.6736 143.438 80.971 143.955 81.5111C145.026 82.628 145.026 84.4455 143.955 85.5623L139.874 89.8197L139.136 89.0509L143.218 84.7933C143.539 84.4583 143.716 84.012 143.716 83.5366C143.716 83.0613 143.539 82.6152 143.218 82.2802C142.553 81.5876 141.472 81.5874 140.808 82.2803L136.078 87.2146L135.341 86.4455L140.071 81.5115C140.589 80.9712 141.279 80.6738 142.013 80.6736ZM141.64 83.1455L142.374 83.9157L137.666 88.857C137.15 89.3981 136.464 89.6959 135.734 89.6961C135.003 89.6961 134.317 89.3982 133.801 88.8574L133.434 88.4724L134.168 87.7022L134.535 88.0872C135.196 88.7811 136.271 88.7808 136.932 88.087L141.64 83.1455ZM156.908 80.3028C157.355 80.3028 157.763 80.3827 158.133 80.5425C158.503 80.7024 158.817 80.926 159.077 81.2137C159.336 81.5015 159.537 81.8458 159.681 82.2467C159.824 82.6478 159.896 83.0865 159.896 83.5629C159.896 84.0571 159.82 84.5031 159.668 84.9011C159.516 85.2993 159.3 85.6435 159.019 85.9339L159.813 86.9191V87.2242H158.804L158.249 86.5096C158.055 86.6025 157.848 86.675 157.628 86.7273C157.407 86.7796 157.17 86.8058 156.916 86.8058C156.458 86.8058 156.046 86.7257 155.679 86.5661C155.312 86.4062 155 86.1825 154.743 85.8949C154.486 85.6071 154.288 85.2645 154.148 84.8661C154.007 84.4681 153.937 84.0338 153.937 83.5629C153.937 83.0865 154.007 82.6493 154.148 82.251C154.288 81.8531 154.488 81.5101 154.748 81.2224C155.007 80.9348 155.319 80.7096 155.687 80.5468C156.054 80.3843 156.461 80.3028 156.908 80.3028ZM162.605 80.3028V84.138C162.605 84.7101 162.722 85.1348 162.959 85.4121C163.196 85.6895 163.526 85.8279 163.949 85.8279C164.372 85.8279 164.702 85.6895 164.939 85.4121C165.175 85.1348 165.293 84.7101 165.293 84.138V80.3028H166.333V84.1642C166.333 84.6196 166.278 85.0091 166.168 85.3332C166.057 85.6572 165.901 85.9228 165.698 86.1302C165.495 86.3374 165.244 86.4892 164.947 86.5855C164.65 86.6818 164.317 86.7298 163.949 86.7298C163.575 86.7298 163.24 86.6818 162.947 86.5855C162.652 86.4892 162.403 86.3374 162.2 86.1302C161.997 85.9228 161.84 85.6572 161.73 85.3332C161.62 85.0091 161.565 84.6196 161.565 84.1642V80.3028H162.605ZM150.389 80.1792C151.002 80.1792 151.488 80.3324 151.847 80.6389C152.205 80.9455 152.416 81.3556 152.476 81.8694L151.482 81.9569C151.422 81.6942 151.3 81.4899 151.118 81.344C150.936 81.198 150.681 81.125 150.357 81.125C150.053 81.125 149.815 81.1994 149.644 81.3483C149.472 81.4973 149.387 81.6886 149.387 81.922C149.387 82.0562 149.412 82.1684 149.461 82.259C149.512 82.3497 149.583 82.4284 149.678 82.4955C149.771 82.5627 149.886 82.6225 150.021 82.6749C150.156 82.7275 150.309 82.7833 150.48 82.8414L150.903 82.9816C151.168 83.0691 151.407 83.161 151.619 83.2573C151.831 83.3537 152.012 83.4691 152.161 83.6034C152.31 83.7376 152.425 83.8982 152.504 84.0851C152.585 84.2719 152.625 84.5026 152.625 84.7769C152.625 85.0689 152.57 85.336 152.46 85.5781C152.349 85.8205 152.195 86.0263 151.996 86.1955C151.797 86.3649 151.561 86.4964 151.287 86.5895C151.014 86.6829 150.712 86.7298 150.381 86.7298C149.768 86.7298 149.257 86.5781 148.849 86.2744C148.441 85.9708 148.189 85.5125 148.095 84.8994L149.106 84.803C149.166 85.1183 149.308 85.3651 149.533 85.543C149.756 85.7212 150.05 85.8102 150.414 85.8102C150.773 85.8102 151.051 85.7226 151.246 85.5474C151.442 85.3724 151.54 85.1418 151.54 84.8556C151.54 84.7155 151.514 84.5973 151.462 84.5009C151.409 84.4046 151.336 84.3229 151.242 84.2557C151.148 84.1888 151.033 84.1316 150.895 84.0851C150.756 84.0383 150.601 83.9887 150.431 83.9361L149.984 83.8048C149.718 83.7289 149.481 83.637 149.271 83.5289C149.062 83.4209 148.882 83.2939 148.733 83.148C148.584 83.002 148.47 82.8342 148.393 82.6444C148.316 82.4547 148.278 82.2341 148.278 81.9832C148.278 81.7204 148.327 81.4782 148.427 81.2562C148.526 81.0347 148.667 80.8446 148.849 80.687C149.031 80.5295 149.252 80.4054 149.512 80.3147C149.771 80.2246 150.064 80.1792 150.389 80.1792ZM205.903 80.3028C206.561 80.3028 207.112 80.461 207.555 80.7766C207.998 81.0924 208.312 81.5118 208.496 82.0344L207.434 82.2497C207.289 81.9339 207.087 81.6854 206.827 81.5045C206.569 81.3237 206.255 81.2332 205.887 81.2332C205.592 81.2332 205.328 81.2919 205.097 81.4092C204.865 81.5266 204.671 81.6882 204.512 81.8942C204.353 82.1001 204.231 82.3433 204.148 82.6238C204.065 82.9041 204.022 83.2044 204.022 83.5248C204.022 83.8509 204.066 84.1529 204.152 84.4304C204.238 84.7082 204.364 84.9482 204.529 85.1514C204.692 85.3546 204.892 85.5132 205.126 85.6276C205.36 85.7422 205.628 85.7994 205.929 85.7994C206.319 85.7994 206.641 85.7017 206.894 85.5064C207.148 85.3111 207.345 85.0728 207.484 84.7913L208.529 84.9723C208.434 85.2136 208.311 85.4406 208.157 85.6536C208.004 85.8666 207.818 86.0532 207.601 86.2126C207.384 86.3719 207.131 86.4979 206.844 86.5906C206.557 86.6833 206.238 86.7298 205.887 86.7298C205.441 86.7298 205.036 86.6492 204.671 86.4884C204.305 86.3278 203.994 86.1051 203.735 85.8209C203.477 85.5365 203.278 85.1978 203.138 84.8043C202.997 84.411 202.927 83.9845 202.927 83.5248C202.927 83.0656 202.997 82.6391 203.138 82.2455C203.278 81.8522 203.478 81.5118 203.74 81.2246C204 80.9376 204.313 80.7119 204.679 80.5484C205.044 80.3846 205.452 80.3028 205.903 80.3028ZM187.937 80.1792C188.55 80.1792 189.035 80.3324 189.395 80.6389C189.753 80.9455 189.963 81.3556 190.023 81.8694L189.03 81.9569C188.969 81.6942 188.848 81.4899 188.666 81.344C188.483 81.198 188.23 81.125 187.904 81.125C187.6 81.125 187.362 81.1994 187.191 81.3483C187.021 81.4973 186.935 81.6886 186.935 81.922C186.935 82.0562 186.96 82.1684 187.01 82.259C187.059 82.3497 187.131 82.4284 187.225 82.4955C187.319 82.5627 187.433 82.6225 187.569 82.6749C187.704 82.7275 187.857 82.7833 188.027 82.8414L188.45 82.9816C188.715 83.0691 188.954 83.161 189.167 83.2573C189.379 83.3537 189.56 83.4691 189.708 83.6034C189.857 83.7376 189.973 83.8982 190.053 84.0851C190.133 84.2719 190.172 84.5026 190.172 84.7769C190.172 85.0689 190.117 85.336 190.007 85.5781C189.896 85.8205 189.742 86.0263 189.544 86.1955C189.344 86.3649 189.108 86.4964 188.835 86.5895C188.561 86.6829 188.259 86.7298 187.929 86.7298C187.316 86.7298 186.806 86.5781 186.397 86.2744C185.988 85.9708 185.737 85.5125 185.643 84.8994L186.654 84.803C186.714 85.1183 186.856 85.3651 187.08 85.543C187.303 85.7212 187.597 85.8102 187.961 85.8102C188.321 85.8102 188.598 85.7226 188.794 85.5474C188.99 85.3724 189.088 85.1418 189.088 84.8556C189.088 84.7155 189.062 84.5973 189.01 84.5009C188.957 84.4046 188.883 84.3229 188.789 84.2557C188.696 84.1888 188.58 84.1316 188.442 84.0851C188.304 84.0383 188.149 83.9887 187.978 83.9361L187.531 83.8048C187.266 83.7289 187.029 83.637 186.819 83.5289C186.609 83.4209 186.429 83.2939 186.281 83.148C186.131 83.002 186.019 82.8342 185.941 82.6444C185.864 82.4547 185.825 82.2341 185.825 81.9832C185.825 81.7204 185.875 81.4782 185.974 81.2562C186.074 81.0347 186.214 80.8446 186.397 80.687C186.579 80.5295 186.8 80.4054 187.059 80.3147C187.319 80.2246 187.611 80.1792 187.937 80.1792ZM171.132 80.4265L173.247 86.305V86.6062H172.205L171.601 84.8417H168.992L168.388 86.6062H167.406V86.305L169.545 80.4265H171.132ZM176.494 80.4265C176.799 80.4265 177.088 80.4479 177.363 80.4909C177.637 80.5339 177.885 80.6329 178.107 80.7878C178.578 81.109 178.813 81.5939 178.813 82.242C178.813 82.5232 178.773 82.7685 178.692 82.9779C178.612 83.1873 178.506 83.365 178.372 83.5114C178.239 83.6578 178.085 83.7767 177.911 83.8683C177.737 83.9602 177.555 84.029 177.367 84.0748L179.087 86.3048V86.6062H178.081L176.261 84.179H175.588V86.6062H174.558V80.4265H176.494ZM184.274 80.4265V81.3731H181.423V82.9912H184.073V83.9207H181.423V85.6594H184.332V86.6062H180.399V80.4265H184.274ZM193.936 80.4265C194.347 80.4265 194.692 80.4751 194.971 80.5727C195.25 80.6702 195.475 80.805 195.647 80.9773C195.818 81.1493 195.942 81.3516 196.018 81.5841C196.094 81.8164 196.133 82.0675 196.133 82.3371C196.133 82.6586 196.081 82.9381 195.976 83.1762C195.872 83.4144 195.721 83.6108 195.524 83.7659C195.328 83.9207 195.088 84.0369 194.806 84.1145C194.524 84.1919 194.206 84.2306 193.852 84.2306H192.778V86.6062H191.722V80.4265H193.936ZM200.097 80.4265L202.212 86.305V86.6062H201.172L200.567 84.8417H197.957L197.353 86.6062H196.371V86.305L198.511 80.4265H200.097ZM213.79 80.3518V81.3077H210.923V82.9415H213.589V83.8799H210.923V85.6355H213.849V86.5915H209.893V80.3518H213.79ZM134.743 77.2129L135.48 77.9818L131.398 82.2392C130.734 82.9321 130.734 84.0596 131.398 84.7525C132.062 85.4452 133.143 85.4451 133.807 84.7522L138.537 79.818L139.274 80.587L134.545 85.5212C134.026 86.0613 133.337 86.3591 132.602 86.3591C131.869 86.3591 131.179 86.0614 130.662 85.5214C129.591 84.4047 129.591 82.5872 130.662 81.4703L134.743 77.2129ZM156.9 81.2442C156.602 81.2442 156.335 81.3023 156.101 81.4183C155.866 81.5344 155.668 81.6953 155.505 81.9011C155.342 82.1071 155.218 82.3509 155.132 82.6319C155.047 82.9135 155.005 83.2194 155.005 83.5499C155.005 83.8806 155.048 84.188 155.137 84.4724C155.225 84.7565 155.35 85.003 155.513 85.2119C155.676 85.4206 155.874 85.5844 156.109 85.7036C156.344 85.8223 156.609 85.8816 156.908 85.8816C157.206 85.8816 157.472 85.8253 157.707 85.7122C157.941 85.599 158.14 85.441 158.303 85.2378C158.465 85.035 158.591 84.7897 158.679 84.5028C158.767 84.2155 158.812 83.9009 158.812 83.5587C158.812 83.2222 158.767 82.9119 158.679 82.6277C158.591 82.3436 158.465 82.1 158.303 81.8968C158.14 81.694 157.94 81.5344 157.702 81.4183C157.465 81.3023 157.198 81.2442 156.9 81.2442ZM170.453 81.3561H170.192L170.091 81.6487C170.058 81.7463 170.02 81.8554 169.978 81.9757C169.936 82.0962 169.89 82.2339 169.84 82.3889C169.789 82.5436 169.727 82.7245 169.655 82.931L169.311 83.9122H171.299L170.973 82.931C170.843 82.5468 170.74 82.2339 170.662 81.9931C170.584 81.752 170.514 81.5397 170.453 81.3561ZM199.418 81.3561H199.157L199.056 81.6487C199.023 81.7463 198.985 81.8554 198.943 81.9757C198.902 82.0962 198.855 82.2339 198.805 82.3889C198.754 82.5436 198.693 82.7245 198.62 82.931L198.276 83.9122H200.265L199.938 82.931C199.809 82.5468 199.705 82.2339 199.627 81.9931C199.549 81.752 199.479 81.5397 199.418 81.3561ZM138.883 77.3365C139.614 77.3365 140.3 77.6344 140.815 78.1752L141.182 78.5602L140.448 79.3304L140.082 78.9454C139.762 78.6096 139.337 78.4253 138.883 78.4253C138.429 78.4253 138.004 78.6098 137.683 78.9456L132.976 83.8871L132.242 83.1169L136.95 78.1755C137.465 77.6346 138.152 77.3367 138.883 77.3365ZM193.809 81.3559H192.778V83.3011H193.793C193.978 83.3011 194.149 83.2855 194.304 83.2541C194.458 83.2229 194.593 83.1704 194.709 83.0963C194.824 83.0224 194.915 82.9229 194.979 82.7977C195.044 82.6726 195.077 82.519 195.077 82.3369C195.077 82.1493 195.044 81.9917 194.979 81.8637C194.915 81.7357 194.826 81.6348 194.714 81.5607C194.6 81.4867 194.467 81.4341 194.312 81.4029C194.157 81.3717 193.989 81.3559 193.809 81.3559ZM176.494 81.3559H175.588V83.2495H176.494C176.893 83.2495 177.208 83.174 177.438 83.0235C177.668 82.8729 177.782 82.6269 177.782 82.2855C177.782 81.9387 177.666 81.697 177.433 81.5605C177.201 81.4242 176.888 81.3559 176.494 81.3559Z" fill="white"/>
<path d="M251.692 238.943C278.948 238.943 301.043 216.847 301.043 189.591C301.043 162.336 278.948 140.24 251.692 140.24C224.436 140.24 202.34 162.336 202.34 189.591C202.34 216.847 224.436 238.943 251.692 238.943Z" fill="white"/>
<path d="M250.659 175.441L252.04 177.952C252.316 178.472 252.316 179.106 252.04 179.625L243.81 194.545L247.704 201.587C248.312 202.683 249.444 203.376 250.659 203.376C251.874 203.376 253.006 202.683 253.614 201.587L257.508 194.545L256.487 192.64L252.068 200.634C251.791 201.153 251.24 201.471 250.687 201.471C250.106 201.471 249.582 201.153 249.306 200.634L245.909 194.545L253.559 180.693L254.94 183.204C255.216 183.724 255.216 184.358 254.94 184.878L249.61 194.545L250.659 196.45L256.459 185.945L260.27 192.843C260.85 193.911 260.85 195.21 260.27 196.277L256.404 203.289C255.824 204.357 253.974 206.752 250.659 206.752C247.345 206.752 245.523 204.357 244.915 203.289L241.049 196.277C240.468 195.21 240.468 193.911 241.049 192.843L250.659 175.441Z" fill="#ED5153"/>
<path d="M307.929 101.745C335.185 101.745 357.281 79.6501 357.281 52.3942C357.281 25.1383 335.185 3.04297 307.929 3.04297C280.673 3.04297 258.578 25.1383 258.578 52.3942C258.578 79.6501 280.673 101.745 307.929 101.745Z" fill="#FF7A59"/>
<path d="M311.368 46.7443V42.5181C311.907 42.2572 312.364 41.8431 312.685 41.3238C313.005 40.8045 313.177 40.2015 313.18 39.5851V39.4865C313.178 38.6251 312.846 37.7995 312.258 37.1904C311.67 36.5812 310.872 36.238 310.039 36.2357H309.945C309.112 36.238 308.315 36.5812 307.727 37.1904C307.137 37.7995 306.807 38.6251 306.804 39.4865V39.5851C306.807 40.2015 306.979 40.8045 307.299 41.3238C307.62 41.8431 308.077 42.2572 308.617 42.5181V46.7443C307.065 46.9899 305.605 47.6552 304.382 48.6733L293.171 39.6444C293.251 39.3465 293.293 39.0393 293.298 38.7303C293.299 38.0049 293.092 37.2956 292.703 36.6921C292.314 36.0885 291.762 35.6178 291.115 35.3394C290.468 35.061 289.756 34.9876 289.068 35.1282C288.381 35.2689 287.749 35.6174 287.253 36.1296C286.757 36.6418 286.419 37.2949 286.282 38.0061C286.144 38.7173 286.214 39.4547 286.481 40.1252C286.748 40.7956 287.201 41.369 287.784 41.7727C288.366 42.1763 289.05 42.3922 289.751 42.3931C290.367 42.3908 290.971 42.2207 291.502 41.8999L302.524 50.782C301.532 52.3325 301.014 54.1568 301.039 56.0166C301.063 57.8766 301.629 59.6856 302.662 61.2073L299.307 64.6795C299.039 64.5907 298.759 64.5434 298.475 64.5392C297.9 64.5392 297.336 64.716 296.858 65.0471C296.379 65.3784 296.006 65.8491 295.786 66.3998C295.566 66.9506 295.507 67.5566 295.62 68.1412C295.732 68.726 296.01 69.263 296.416 69.6845C296.824 70.106 297.343 70.393 297.908 70.5094C298.472 70.6257 299.058 70.566 299.59 70.3379C300.122 70.1098 300.577 69.7234 300.896 69.2278C301.216 68.7321 301.387 68.1493 301.387 67.5533C301.383 67.2607 301.338 66.9704 301.252 66.6918L304.57 63.2569C305.653 64.1133 306.911 64.7023 308.248 64.9787C309.584 65.2552 310.964 65.2119 312.282 64.8521C313.6 64.4923 314.821 63.8256 315.852 62.9028C316.883 61.98 317.698 60.8255 318.232 59.5276C318.766 58.2295 319.006 56.8223 318.935 55.4134C318.864 54.0043 318.483 52.6307 317.821 51.3976C317.159 50.1643 316.233 49.104 315.115 48.2975C313.996 47.4911 312.714 46.9598 311.368 46.7443ZM309.993 60.6462C309.085 60.6462 308.198 60.3674 307.442 59.8452C306.687 59.3231 306.099 58.5808 305.752 57.7124C305.404 56.8441 305.313 55.8885 305.49 54.9667C305.668 54.0448 306.105 53.1981 306.747 52.5334C307.389 51.8688 308.207 51.4162 309.098 51.2328C309.988 51.0494 310.911 51.1436 311.75 51.5033C312.589 51.8629 313.306 52.472 313.811 53.2536C314.315 54.0351 314.585 54.9539 314.585 55.8938C314.585 57.1542 314.1 58.363 313.239 59.2543C312.379 60.1455 311.211 60.6462 309.993 60.6462Z" fill="white"/>
</g>
</g>
</g>
</g>
</g>
</g>
<g opacity="0.3">
<path d="M0 0.0800781H330.66V216.52C330.66 218.729 328.869 220.52 326.66 220.52H3.99999C1.79086 220.52 0 218.729 0 216.52V0.0800781Z" fill="url(#paint0_linear_4003_1765)"/>
</g>
</g>
<defs>
<linearGradient id="paint0_linear_4003_1765" x1="165.33" y1="0.0800781" x2="165.33" y2="220.52" gradientUnits="userSpaceOnUse">
<stop stop-color="#BEC9DC" stop-opacity="0"/>
<stop offset="1" stop-color="#BEC9DC" stop-opacity="0.4"/>
</linearGradient>
<clipPath id="clip0_4003_1765">
<rect y="0.0800781" width="330.66" height="220.44" rx="4" fill="white"/>
</clipPath>
<clipPath id="clip1_4003_1765">
<rect y="0.0800781" width="330.66" height="220.44" rx="4" fill="white"/>
</clipPath>
<clipPath id="clip2_4003_1765">
<rect width="330.66" height="220.44" fill="white" transform="translate(0 0.0800781)"/>
</clipPath>
<clipPath id="clip3_4003_1765">
<rect width="358.29" height="256.63" fill="white" transform="translate(0 0.0800781)"/>
</clipPath>
<clipPath id="clip4_4003_1765">
<rect width="358.29" height="256.63" fill="white" transform="translate(0 0.0800781)"/>
</clipPath>
<clipPath id="clip5_4003_1765">
<rect width="358.29" height="250.704" fill="white" transform="translate(0 3.04297)"/>
</clipPath>
</defs>
</svg>
