<svg width="28" height="36" viewBox="0 0 28 36" fill="none" xmlns="http://www.w3.org/2000/svg">
<mask id="mask0_4003_6223" style="mask-type:luminance" maskUnits="userSpaceOnUse" x="0" y="0" width="28" height="36">
<path d="M5.27258 0.0644531H22.0126C23.8026 0.0644531 24.4426 0.254454 25.0926 0.594454C25.7526 0.944454 26.2626 1.45445 26.6126 2.11445C26.9526 2.76445 27.1426 3.41445 27.1426 5.19445V29.9345C27.1426 31.7245 26.9526 32.3645 26.6126 33.0145C26.271 33.663 25.7411 34.1929 25.0926 34.5345C24.4426 34.8745 23.7926 35.0645 22.0126 35.0645H5.27258C3.48258 35.0645 2.84258 34.8745 2.19258 34.5345C1.54407 34.1929 1.01417 33.663 0.672579 33.0145C0.332579 32.3645 0.142578 31.7145 0.142578 29.9345V5.19445C0.142578 3.40445 0.332579 2.76445 0.672579 2.11445C1.02258 1.45445 1.53258 0.944454 2.19258 0.594454C2.84258 0.254454 3.49258 0.0644531 5.27258 0.0644531Z" fill="white"/>
</mask>
<g mask="url(#mask0_4003_6223)">
<path d="M30.093 5.59445C30.753 5.94445 31.263 6.45445 31.613 7.11445C31.953 7.76445 32.143 8.41445 32.143 10.1945V34.9345C32.143 36.7245 31.953 37.3644 31.613 38.0145C31.2714 38.663 30.7415 39.1929 30.093 39.5345C29.443 39.8745 28.793 40.0645 27.013 40.0645H10.273C8.48301 40.0645 7.84301 39.8745 7.19301 39.5345C6.54451 39.1929 6.0146 38.663 5.67301 38.0145C5.33301 37.3644 5.14301 36.7145 5.14301 34.9345V20.0645C5.14301 17.0645 4.14301 13.0645 14.143 14.0645C14.143 12.0645 13.143 5.06445 18.643 5.06445H27.143C28.923 5.06445 29.443 5.25445 30.093 5.59445Z" fill="#0048E5"/>
</g>
</svg>
