<svg width="28" height="36" viewBox="0 0 28 36" fill="none" xmlns="http://www.w3.org/2000/svg">
<path d="M25.093 0.594452C25.753 0.944452 26.263 1.45445 26.613 2.11445C26.953 2.76445 27.143 3.41445 27.143 5.19445V29.9345C27.143 31.7245 26.953 32.3644 26.613 33.0145C26.2714 33.663 25.7415 34.1929 25.093 34.5345C24.443 34.8745 23.793 35.0645 22.013 35.0645H5.27301C3.48301 35.0645 2.84301 34.8745 2.19301 34.5345C1.54451 34.1929 1.0146 33.663 0.673013 33.0145C0.333013 32.3644 0.143012 31.7145 0.143012 29.9345V15.0645C0.143012 12.0645 -0.856988 8.06445 9.14301 9.06445C9.14301 7.06445 8.14301 0.0644531 13.643 0.0644531H22.143C23.923 0.0644531 24.443 0.254452 25.093 0.594452Z" fill="#7A73FF"/>
</svg>
