<svg width="27" height="27" viewBox="0 0 27 27" fill="none" xmlns="http://www.w3.org/2000/svg">
<path d="M13.6426 0.113281L14.7726 3.24328L15.4126 3.37328L17.6526 0.91328L18.5826 1.29328L18.4226 4.62328C18.6126 4.73328 18.7926 4.85328 18.9626 4.98328L21.9826 3.56328L22.6826 4.27328L21.2726 7.29328C21.4026 7.46328 21.5226 7.64328 21.6326 7.83328L24.9626 7.67328L25.3426 8.60328L22.8826 10.8433C22.9326 11.0533 22.9826 11.2633 23.0126 11.4833L26.1426 12.6133V13.6133L23.0126 14.7433C22.9726 14.9933 22.9126 15.2433 22.8626 15.4733L25.3426 17.6233L24.9626 18.5533L21.6826 18.3133C21.5426 18.5533 21.3826 18.7833 21.2126 19.0133L22.6926 21.9533L21.9826 22.6533L19.0426 21.1833C18.8126 21.3533 18.5826 21.5133 18.3426 21.6533L18.5826 24.9333L17.6526 25.3133L15.5026 22.8333C15.2326 22.8933 14.9626 22.9533 14.6826 22.9933L13.6426 26.1133H12.6426L11.6026 22.9933C11.3226 22.9533 11.0526 22.8933 10.7826 22.8333L8.63258 25.3133L7.70258 24.9333L7.94258 21.6533C7.70258 21.5133 7.47258 21.3533 7.24258 21.1833L4.30258 22.6633L3.60258 21.9533L5.07258 19.0133C4.90258 18.7833 4.74258 18.5533 4.60258 18.3133L1.32258 18.5533L0.942577 17.6233L3.42258 15.4733C3.35779 15.2023 3.30441 14.9287 3.26258 14.6533L0.142578 13.6133V12.6133L3.26258 11.5733C3.30258 11.3233 3.34258 11.0833 3.40258 10.8433L0.942577 8.60328L1.32258 7.67328L4.65258 7.83328C4.76258 7.64328 4.88258 7.46328 5.01258 7.29328L3.59258 4.27328L4.30258 3.57328L7.32258 4.98328C7.49258 4.85328 7.67258 4.73328 7.86258 4.62328L7.70258 1.29328L8.63258 0.91328L10.8726 3.37328C10.8726 3.37328 11.2926 3.27328 11.5126 3.24328L12.6426 0.113281H13.6426ZM13.1426 11.1133C12.6121 11.1133 12.1034 11.324 11.7284 11.6991C11.3533 12.0741 11.1426 12.5828 11.1426 13.1133C11.1426 13.6437 11.3533 14.1524 11.7284 14.5275C12.1034 14.9026 12.6121 15.1133 13.1426 15.1133C13.673 15.1133 14.1817 14.9026 14.5568 14.5275C14.9319 14.1524 15.1426 13.6437 15.1426 13.1133C15.1426 12.5828 14.9319 12.0741 14.5568 11.6991C14.1817 11.324 13.673 11.1133 13.1426 11.1133Z" fill="#7A73FF"/>
</svg>
