<svg width="29" height="25" viewBox="0 0 29 25" fill="none" xmlns="http://www.w3.org/2000/svg">
<path fill-rule="evenodd" clip-rule="evenodd" d="M28.1426 5.61328C28.1426 2.57568 25.6802 0.113281 22.6426 0.113281H5.64258C2.60498 0.113281 0.142578 2.57568 0.142578 5.61328C0.142578 8.65088 2.60498 11.1133 5.64258 11.1133H22.6426C25.6802 11.1133 28.1426 8.65088 28.1426 5.61328ZM2.14258 5.61328C2.14258 7.54628 3.70958 9.11328 5.64258 9.11328C7.57558 9.11328 9.14258 7.54628 9.14258 5.61328C9.14258 3.68028 7.57558 2.11328 5.64258 2.11328C3.70958 2.11328 2.14258 3.68028 2.14258 5.61328ZM0.142578 18.6133C0.142578 15.5757 2.60498 13.1133 5.64258 13.1133H22.6426C25.6802 13.1133 28.1426 15.5757 28.1426 18.6133C28.1426 21.6509 25.6802 24.1133 22.6426 24.1133H5.64258C2.60498 24.1133 0.142578 21.6509 0.142578 18.6133ZM19.1426 18.6133C19.1426 20.5463 20.7096 22.1133 22.6426 22.1133C24.5756 22.1133 26.1426 20.5463 26.1426 18.6133C26.1426 16.6803 24.5756 15.1133 22.6426 15.1133C20.7096 15.1133 19.1426 16.6803 19.1426 18.6133Z" fill="#7A73FF"/>
</svg>
