<svg width="27" height="28" viewBox="0 0 27 28" fill="none" xmlns="http://www.w3.org/2000/svg">
<path d="M26.1426 8.26319V19.1532C26.1426 19.9166 25.9241 20.664 25.513 21.3072C25.1019 21.9504 24.5154 22.4626 23.8226 22.7832L14.8226 26.9332C14.296 27.1769 13.7228 27.3031 13.1426 27.3031C12.5624 27.3031 11.9891 27.1769 11.4626 26.9332L2.46258 22.7832C1.7698 22.4626 1.18324 21.9504 0.772144 21.3072C0.36105 20.664 0.142597 19.9166 0.142578 19.1532V8.26319C0.144865 7.70467 0.264091 7.15283 0.492579 6.64318L13.1426 12.4832L25.7926 6.64318C26.0211 7.15283 26.1403 7.70467 26.1426 8.26319ZM14.8226 0.483185L23.8226 4.63319C24.2594 4.83709 24.6558 5.11827 24.9926 5.46318L13.1426 10.9332L1.28258 5.46318C1.62236 5.11729 2.02219 4.83605 2.46258 4.63319L11.4626 0.483185C11.9891 0.239501 12.5624 0.113281 13.1426 0.113281C13.7228 0.113281 14.296 0.239501 14.8226 0.483185Z" fill="#7A73FF"/>
</svg>
