<svg width="32" height="21" viewBox="0 0 32 21" fill="none" xmlns="http://www.w3.org/2000/svg">
<path fill-rule="evenodd" clip-rule="evenodd" d="M17.6994 0.113281C17.3682 0.113281 17.0762 0.330581 16.9811 0.647781L11.4311 19.1478C11.2867 19.629 11.647 20.1133 12.1494 20.1133H14.5834C14.9146 20.1133 15.2066 19.896 15.3018 19.5788L20.8518 1.07878C20.9961 0.597581 20.6358 0.113281 20.1334 0.113281H17.6994ZM6.88491 2.81438C7.16591 2.51008 7.64041 2.49108 7.94471 2.77198L9.78171 4.46768C10.0861 4.74868 10.1051 5.22318 9.8241 5.52748L5.58511 10.1199L9.8241 14.7122C10.1051 15.0166 10.0861 15.4911 9.78171 15.772L7.94471 17.4677C7.64041 17.7487 7.16591 17.7297 6.88491 17.4253L0.611006 10.6286C0.345806 10.3413 0.345816 9.89848 0.611006 9.61118L6.88491 2.81438ZM25.3979 2.81438C25.117 2.51008 24.6425 2.49108 24.3381 2.77198L22.5011 4.46768C22.1967 4.74868 22.1778 5.22318 22.4587 5.52748L26.6978 10.1199L22.4587 14.7122C22.1778 15.0166 22.1967 15.4911 22.5011 15.772L24.3381 17.4677C24.6425 17.7487 25.117 17.7297 25.3979 17.4253L31.6718 10.6286C31.937 10.3413 31.937 9.89848 31.6718 9.61118L25.3979 2.81438Z" fill="#7A73FF"/>
</svg>
