<svg width="61" height="26" viewBox="0 0 61 26" fill="none" xmlns="http://www.w3.org/2000/svg">
<path fill-rule="evenodd" clip-rule="evenodd" d="M59.7826 14.3347H51.7226C51.9126 16.2647 53.3226 16.8847 54.9226 16.8847C56.5626 16.8847 57.8826 16.5147 58.9726 15.9347V19.2547C57.5893 20.0506 56.0066 20.4324 54.4126 20.3547C50.4026 20.3547 47.5826 17.8547 47.5826 12.8747C47.5826 8.68469 49.9726 5.35469 53.8826 5.35469C57.8026 5.35469 59.8426 8.63469 59.8426 12.8547C59.8426 13.2547 59.8026 14.1147 59.7826 14.3347ZM53.8626 8.71469C52.8326 8.71469 51.6926 9.44469 51.6926 11.2947H55.9426C55.9426 9.44469 54.8726 8.71469 53.8626 8.71469ZM41.0926 20.3547C39.6526 20.3547 38.7726 19.7547 38.1926 19.3147L38.1726 23.9447L34.0526 24.8147V5.62469H37.8126L37.8926 6.64469C38.7647 5.81748 39.9206 5.35584 41.1226 5.35469C44.0226 5.35469 46.7426 7.95469 46.7426 12.7547C46.7426 17.9847 44.0426 20.3547 41.0926 20.3547ZM40.1426 9.00469C39.1926 9.00469 38.6026 9.34469 38.1726 9.81469L38.1926 15.9347C38.5926 16.3747 39.1726 16.7147 40.1426 16.7147C41.6626 16.7147 42.6826 15.0647 42.6826 12.8447C42.6826 10.6947 41.6426 9.00469 40.1426 9.00469ZM28.3826 5.62469H32.5126V20.0647H28.3826V5.62469ZM28.3826 0.924688L32.5126 0.0546875V3.41469L28.3826 4.29469V0.934687V0.924688ZM24.0626 10.2747V20.0647H19.9426V5.62469H23.6426L23.7626 6.84469C24.7626 5.07469 26.8326 5.43469 27.3826 5.62469V9.41469C26.8626 9.24469 25.0926 8.98469 24.0626 10.2747ZM15.5126 14.9947C15.5126 17.4247 18.1126 16.6747 18.6326 16.4547V19.8147C18.0826 20.1147 17.0926 20.3547 15.7426 20.3547C15.1799 20.3711 14.6198 20.2729 14.0963 20.066C13.5728 19.8591 13.0969 19.5479 12.6974 19.1513C12.298 18.7546 11.9834 18.2809 11.7729 17.7589C11.5623 17.2369 11.4601 16.6774 11.4726 16.1147L11.4826 2.94469L15.5026 2.08469V5.62469H18.6426V9.15469H15.5126V15.0047V14.9947ZM10.6026 15.6947C10.6026 18.6647 8.29258 20.3547 4.87258 20.3547C3.3379 20.3535 1.81983 20.037 0.412578 19.4247V15.4947C1.79258 16.2447 3.51258 16.8047 4.87258 16.8047C5.79258 16.8047 6.40258 16.5647 6.40258 15.8047C6.40258 13.8247 0.142578 14.5647 0.142578 10.0047C0.142578 7.09469 2.42258 5.35469 5.76258 5.35469C7.12258 5.35469 8.48258 5.55469 9.85258 6.10469V9.98469C8.58653 9.31837 7.18293 8.95549 5.75258 8.92469C4.89258 8.92469 4.31258 9.17469 4.31258 9.82469C4.31258 11.6747 10.6026 10.7947 10.6026 15.7047V15.6947Z" fill="#0A2540"/>
</svg>
