<svg width="34" height="33" viewBox="0 0 34 33" fill="none" xmlns="http://www.w3.org/2000/svg">
<path d="M32.9352 2.82083L33.0271 14.6083C33.0324 15.1392 32.932 15.6658 32.7316 16.1575C32.5313 16.6492 32.2351 17.0961 31.8603 17.4721L17.3647 31.9678C16.802 32.5304 16.039 32.8465 15.2433 32.8465C14.4477 32.8465 13.6846 32.5304 13.122 31.9678L1.8083 20.6541C1.24569 20.0915 0.929619 19.3284 0.92962 18.5327C0.929621 17.7371 1.24569 16.974 1.8083 16.4114L16.304 1.91573C16.68 1.54094 17.1269 1.24475 17.6186 1.04444C18.1103 0.844124 18.6369 0.743696 19.1678 0.749006L30.9553 0.840927C31.4787 0.846162 31.9793 1.05644 32.3495 1.42661C32.7196 1.79679 32.9299 2.29735 32.9352 2.82083ZM27.9713 5.80482C27.4087 5.24221 26.6456 4.92614 25.8499 4.92614C25.0543 4.92614 24.2912 5.24221 23.7286 5.80482C23.166 6.36743 22.8499 7.13049 22.8499 7.92614C22.8499 8.72179 23.166 9.48485 23.7286 10.0475C24.2912 10.6101 25.0543 10.9261 25.8499 10.9261C26.6456 10.9261 27.4087 10.6101 27.9713 10.0475C28.5339 9.48485 28.8499 8.72179 28.8499 7.92614C28.8499 7.13049 28.5339 6.36743 27.9713 5.80482Z" fill="black"/>
</svg>
