<svg width="23" height="37" viewBox="0 0 23 37" fill="none" xmlns="http://www.w3.org/2000/svg">
<path d="M12.5426 1.44476L20.9426 9.71476C21.3217 10.0864 21.6231 10.5298 21.8291 11.0191C22.0351 11.5084 22.1417 12.0338 22.1426 12.5648V33.0648C22.1426 33.8604 21.8265 34.6235 21.2639 35.1861C20.7013 35.7487 19.9382 36.0648 19.1426 36.0648H3.14258C2.34693 36.0648 1.58387 35.7487 1.02126 35.1861C0.458648 34.6235 0.142578 33.8604 0.142578 33.0648V12.5648C0.143451 12.0338 0.250007 11.5084 0.456032 11.0191C0.662057 10.5298 0.963429 10.0864 1.34258 9.71476L9.74258 1.44476C10.1164 1.07831 10.6191 0.873047 11.1426 0.873047C11.6661 0.873047 12.1687 1.07831 12.5426 1.44476ZM11.1426 7.06476C10.3469 7.06476 9.58387 7.38083 9.02126 7.94344C8.45865 8.50605 8.14258 9.26911 8.14258 10.0648C8.14258 10.8604 8.45865 11.6235 9.02126 12.1861C9.58387 12.7487 10.3469 13.0648 11.1426 13.0648C11.9382 13.0648 12.7013 12.7487 13.2639 12.1861C13.8265 11.6235 14.1426 10.8604 14.1426 10.0648C14.1426 9.26911 13.8265 8.50605 13.2639 7.94344C12.7013 7.38083 11.9382 7.06476 11.1426 7.06476Z" fill="#7A73FF"/>
</svg>
