<svg width="87" height="41" viewBox="0 0 87 41" fill="none" xmlns="http://www.w3.org/2000/svg">
<rect x="0.143066" y="0.953125" width="86" height="40" rx="4" fill="#F6F9FC"/>
<mask id="mask0_4003_1110" style="mask-type:luminance" maskUnits="userSpaceOnUse" x="10" y="10" width="21" height="21">
<path d="M10.1431 10.9531H30.1431V30.9531H10.1431V10.9531Z" fill="white"/>
</mask>
<g mask="url(#mask0_4003_1110)">
<path d="M20.3978 11.1035C20.8978 11.1035 21.3578 11.3885 21.5778 11.8385L25.6878 20.0485L30.0128 28.7035C30.1004 28.8777 30.1484 29.0691 30.1533 29.2641C30.1581 29.459 30.1197 29.6526 30.0408 29.8309C29.962 30.0092 29.8446 30.1679 29.6971 30.2954C29.5496 30.4229 29.3756 30.5162 29.1878 30.5685L29.1028 30.5885C29.0428 30.6035 28.9828 30.6085 28.9228 30.6135H28.8328L20.3928 28.9485L15.1128 20.0485L19.2128 11.8385C19.3224 11.6169 19.492 11.4304 19.7024 11.3005C19.9128 11.1705 20.1555 11.1023 20.4028 11.1035H20.3978Z" fill="#FFBB00"/>
<path d="M20.3978 11.1035C20.8978 11.1035 21.3578 11.3885 21.5778 11.8385L25.6878 20.0485L20.3928 28.9435L11.9678 30.6185C11.7418 30.6197 11.5193 30.5628 11.3216 30.4533C11.1239 30.3438 10.9576 30.1853 10.8386 29.9931C10.7197 29.8009 10.6521 29.5814 10.6423 29.3556C10.6326 29.1298 10.6809 28.9053 10.7828 28.7035L15.1128 20.0535L19.2128 11.8385C19.3224 11.6169 19.4921 11.4304 19.7025 11.3005C19.9129 11.1705 20.1555 11.1023 20.4028 11.1035H20.3978Z" fill="url(#paint0_linear_4003_1110)"/>
<path d="M20.3978 11.1035C20.8978 11.1035 21.3578 11.3885 21.5778 11.8385L25.6878 20.0485L20.3928 28.9435L15.1128 20.0485L19.2128 11.8385C19.3153 11.63 19.4709 11.4523 19.6641 11.3233C19.8572 11.1942 20.081 11.1184 20.3128 11.1035H20.4028H20.3978Z" fill="url(#paint1_linear_4003_1110)"/>
</g>
<path d="M43.7331 25.4531H42.4227L45.3671 17.2713H46.7933L49.7376 25.4531H48.4272L46.1141 18.7575H46.0502L43.7331 25.4531ZM43.9528 22.2491H48.2035V23.2878H43.9528V22.2491ZM53.3032 19.3168V20.2756H49.9513V19.3168H53.3032ZM50.8502 17.8466H52.0447V23.6514C52.0447 23.8831 52.0794 24.0575 52.1486 24.1747C52.2179 24.2892 52.3071 24.3678 52.4163 24.4104C52.5281 24.4504 52.6493 24.4703 52.7798 24.4703C52.8757 24.4703 52.9596 24.4637 53.0315 24.4504C53.1034 24.4371 53.1594 24.4264 53.1993 24.4184L53.415 25.4052C53.3458 25.4318 53.2472 25.4585 53.1194 25.4851C52.9916 25.5144 52.8318 25.5304 52.64 25.533C52.3257 25.5384 52.0328 25.4824 51.7611 25.3652C51.4894 25.248 51.2697 25.0669 51.1019 24.8219C50.9341 24.5769 50.8502 24.2693 50.8502 23.8991V17.8466ZM55.9509 17.2713V25.4531H54.7564V17.2713H55.9509ZM59.3437 25.589C58.9548 25.589 58.6032 25.517 58.289 25.3732C57.9747 25.2267 57.7257 25.015 57.5419 24.738C57.3608 24.461 57.2702 24.1214 57.2702 23.7193C57.2702 23.373 57.3368 23.0881 57.47 22.8643C57.6032 22.6406 57.7829 22.4635 58.0093 22.333C58.2357 22.2025 58.4887 22.104 58.7684 22.0374C59.048 21.9708 59.333 21.9202 59.6233 21.8856C59.9909 21.843 60.2892 21.8083 60.5182 21.7817C60.7472 21.7524 60.9137 21.7058 61.0176 21.6419C61.1214 21.5779 61.1734 21.4741 61.1734 21.3303V21.3023C61.1734 20.9534 61.0748 20.6831 60.8778 20.4913C60.6833 20.2995 60.393 20.2037 60.0068 20.2037C59.6047 20.2037 59.2877 20.2929 59.056 20.4713C58.827 20.6471 58.6685 20.8429 58.5806 21.0586L57.458 20.8029C57.5912 20.43 57.7856 20.1291 58.0413 19.9C58.2996 19.6683 58.5966 19.5005 58.9322 19.3967C59.2678 19.2901 59.6206 19.2369 59.9909 19.2369C60.2359 19.2369 60.4956 19.2662 60.7699 19.3248C61.0469 19.3807 61.3052 19.4846 61.5449 19.6364C61.7873 19.7882 61.9857 20.0052 62.1402 20.2876C62.2947 20.5672 62.3719 20.9308 62.3719 21.3782V25.4531H61.2053V24.6142H61.1574C61.0802 24.7686 60.9643 24.9205 60.8098 25.0696C60.6554 25.2187 60.4569 25.3426 60.2146 25.4411C59.9722 25.5397 59.6819 25.589 59.3437 25.589ZM59.6033 24.6301C59.9336 24.6301 60.2159 24.5649 60.4503 24.4344C60.6873 24.3039 60.8671 24.1334 60.9896 23.923C61.1148 23.71 61.1774 23.4822 61.1774 23.2399V22.4489C61.1348 22.4915 61.0522 22.5314 60.9297 22.5687C60.8098 22.6033 60.6727 22.634 60.5182 22.6606C60.3637 22.6846 60.2132 22.7072 60.0668 22.7285C59.9203 22.7472 59.7978 22.7631 59.6992 22.7765C59.4675 22.8058 59.2558 22.855 59.064 22.9243C58.8749 22.9935 58.7231 23.0934 58.6086 23.2239C58.4967 23.3517 58.4408 23.5222 58.4408 23.7353C58.4408 24.0309 58.55 24.2546 58.7684 24.4064C58.9868 24.5556 59.2651 24.6301 59.6033 24.6301ZM68.5612 20.8149L67.4785 21.0067C67.4333 20.8682 67.3614 20.7363 67.2628 20.6112C67.1669 20.486 67.0364 20.3834 66.8713 20.3035C66.7062 20.2236 66.4998 20.1837 66.2521 20.1837C65.9138 20.1837 65.6315 20.2596 65.4051 20.4114C65.1787 20.5605 65.0655 20.7536 65.0655 20.9907C65.0655 21.1958 65.1414 21.3609 65.2933 21.4861C65.4451 21.6112 65.6901 21.7138 66.0283 21.7937L67.0031 22.0174C67.5678 22.1479 67.9886 22.349 68.2656 22.6206C68.5425 22.8923 68.681 23.2452 68.681 23.6793C68.681 24.0469 68.5745 24.3745 68.3614 24.6621C68.151 24.9471 67.8567 25.1708 67.4785 25.3333C67.103 25.4957 66.6675 25.577 66.1722 25.577C65.485 25.577 64.9244 25.4305 64.4903 25.1375C64.0561 24.8419 63.7898 24.4224 63.6913 23.8791L64.8458 23.7033C64.9177 24.0043 65.0655 24.232 65.2893 24.3865C65.513 24.5383 65.8046 24.6142 66.1642 24.6142C66.5557 24.6142 66.8686 24.5329 67.103 24.3705C67.3374 24.2053 67.4546 24.0043 67.4546 23.7672C67.4546 23.5755 67.3827 23.4143 67.2388 23.2838C67.0977 23.1533 66.8806 23.0548 66.5876 22.9882L65.5489 22.7605C64.9763 22.63 64.5528 22.4222 64.2785 22.1373C64.0069 21.8523 63.871 21.4914 63.871 21.0546C63.871 20.6924 63.9722 20.3754 64.1746 20.1038C64.3771 19.8321 64.6567 19.6204 65.0136 19.4686C65.3705 19.3141 65.7793 19.2369 66.2401 19.2369C66.9033 19.2369 67.4253 19.3807 67.8061 19.6683C68.187 19.9533 68.4387 20.3355 68.5612 20.8149Z" fill="#2E3A55"/>
<defs>
<linearGradient id="paint0_linear_4003_1110" x1="18.1578" y1="19.9585" x2="18.1128" y2="30.6185" gradientUnits="userSpaceOnUse">
<stop stop-color="#FFD748"/>
<stop offset="0.54" stop-color="#FFCD48"/>
<stop offset="1" stop-color="#FFCB48"/>
</linearGradient>
<linearGradient id="paint1_linear_4003_1110" x1="20.3978" y1="28.3135" x2="20.3978" y2="18.4585" gradientUnits="userSpaceOnUse">
<stop stop-color="#FFAD00"/>
<stop offset="1" stop-color="#FF7600"/>
</linearGradient>
</defs>
</svg>
