<svg width="340" height="225" viewBox="0 0 340 225" fill="none" xmlns="http://www.w3.org/2000/svg">
<g clip-path="url(#clip0_4003_1799)">
<rect x="4.80322" y="4.22266" width="330.67" height="220.44" rx="4" fill="#F6F9FC"/>
<g clip-path="url(#clip1_4003_1799)">
<g clip-path="url(#clip2_4003_1799)">
<g clip-path="url(#clip3_4003_1799)">
<g clip-path="url(#clip4_4003_1799)">
<mask id="mask0_4003_1799" style="mask-type:luminance" maskUnits="userSpaceOnUse" x="124" y="109" width="10" height="10">
<path d="M124.312 109.961H133.184V118.832H124.312V109.961Z" fill="white"/>
</mask>
<g mask="url(#mask0_4003_1799)">
<path d="M127.467 118.116C127.39 118.193 127.293 118.246 127.186 118.267C127.08 118.288 126.969 118.278 126.869 118.236C126.769 118.195 126.683 118.124 126.623 118.034C126.563 117.944 126.531 117.837 126.531 117.729V111.065C126.531 110.956 126.563 110.85 126.623 110.759C126.683 110.669 126.769 110.599 126.869 110.557C126.969 110.516 127.08 110.505 127.186 110.526C127.293 110.548 127.39 110.6 127.467 110.677L130.806 114.01C130.856 114.061 130.897 114.121 130.924 114.187C130.952 114.254 130.966 114.325 130.966 114.397C130.966 114.469 130.952 114.54 130.924 114.606C130.897 114.673 130.856 114.733 130.806 114.784L127.467 118.116Z" fill="#7A73FF"/>
</g>
<mask id="mask1_4003_1799" style="mask-type:luminance" maskUnits="userSpaceOnUse" x="133" y="109" width="10" height="10">
<path d="M133.184 109.961H142.055V118.832H133.184V109.961Z" fill="white"/>
</mask>
<g mask="url(#mask1_4003_1799)">
<path d="M136.338 118.116C136.261 118.193 136.163 118.246 136.057 118.267C135.95 118.288 135.84 118.278 135.74 118.236C135.639 118.195 135.554 118.124 135.493 118.034C135.433 117.944 135.401 117.837 135.401 117.729V111.065C135.401 110.956 135.433 110.85 135.493 110.759C135.554 110.669 135.639 110.599 135.74 110.557C135.84 110.516 135.95 110.505 136.057 110.526C136.163 110.548 136.261 110.6 136.338 110.677L139.676 114.01C139.727 114.061 139.767 114.121 139.795 114.187C139.822 114.254 139.837 114.325 139.837 114.397C139.837 114.469 139.822 114.54 139.795 114.606C139.767 114.673 139.727 114.733 139.676 114.784L136.338 118.116Z" fill="#7A73FF"/>
</g>
<mask id="mask2_4003_1799" style="mask-type:luminance" maskUnits="userSpaceOnUse" x="142" y="109" width="9" height="10">
<path d="M142.054 109.961H150.926V118.832H142.054V109.961Z" fill="white"/>
</mask>
<g mask="url(#mask2_4003_1799)">
<path d="M145.209 118.116C145.132 118.193 145.034 118.246 144.928 118.267C144.822 118.288 144.711 118.278 144.611 118.236C144.51 118.195 144.425 118.124 144.365 118.034C144.304 117.944 144.272 117.837 144.272 117.729V111.065C144.272 110.956 144.304 110.85 144.365 110.759C144.425 110.669 144.51 110.599 144.611 110.557C144.711 110.516 144.822 110.505 144.928 110.526C145.034 110.548 145.132 110.6 145.209 110.677L148.546 114.01C148.597 114.06 148.638 114.121 148.666 114.187C148.693 114.254 148.708 114.325 148.708 114.397C148.708 114.469 148.693 114.54 148.666 114.606C148.638 114.673 148.597 114.733 148.546 114.784L145.209 118.116Z" fill="#7A73FF"/>
</g>
<mask id="mask3_4003_1799" style="mask-type:luminance" maskUnits="userSpaceOnUse" x="150" y="109" width="10" height="10">
<path d="M150.926 109.961H159.797V118.832H150.926V109.961Z" fill="white"/>
</mask>
<g mask="url(#mask3_4003_1799)">
<path d="M154.079 118.116C154.003 118.193 153.905 118.246 153.799 118.267C153.692 118.288 153.582 118.278 153.481 118.236C153.381 118.195 153.295 118.124 153.235 118.034C153.175 117.944 153.143 117.837 153.143 117.729V111.065C153.143 110.956 153.175 110.85 153.235 110.759C153.295 110.669 153.381 110.599 153.481 110.557C153.582 110.516 153.692 110.505 153.799 110.526C153.905 110.548 154.003 110.6 154.079 110.677L157.418 114.01C157.469 114.061 157.509 114.121 157.537 114.187C157.564 114.254 157.578 114.325 157.578 114.397C157.578 114.469 157.564 114.54 157.537 114.606C157.509 114.673 157.469 114.733 157.418 114.784L154.079 118.116Z" fill="#7A73FF"/>
</g>
<mask id="mask4_4003_1799" style="mask-type:luminance" maskUnits="userSpaceOnUse" x="159" y="109" width="10" height="10">
<path d="M159.796 109.961H168.667V118.832H159.796V109.961Z" fill="white"/>
</mask>
<g mask="url(#mask4_4003_1799)">
<path d="M162.95 118.116C162.874 118.193 162.776 118.246 162.67 118.267C162.563 118.288 162.453 118.278 162.352 118.236C162.252 118.195 162.166 118.124 162.106 118.034C162.046 117.944 162.014 117.837 162.014 117.729V111.065C162.014 110.956 162.046 110.85 162.106 110.759C162.166 110.669 162.252 110.599 162.352 110.557C162.453 110.516 162.563 110.505 162.67 110.526C162.776 110.548 162.874 110.6 162.95 110.677L166.288 114.01C166.339 114.06 166.38 114.121 166.407 114.187C166.435 114.254 166.449 114.325 166.449 114.397C166.449 114.469 166.435 114.54 166.407 114.606C166.38 114.673 166.339 114.733 166.288 114.784L162.95 118.116Z" fill="#7A73FF"/>
</g>
<mask id="mask5_4003_1799" style="mask-type:luminance" maskUnits="userSpaceOnUse" x="168" y="109" width="10" height="10">
<path d="M168.667 109.961H177.539V118.832H168.667V109.961Z" fill="white"/>
</mask>
<g mask="url(#mask5_4003_1799)">
<path d="M171.821 118.116C171.744 118.193 171.647 118.246 171.54 118.267C171.434 118.288 171.323 118.278 171.223 118.236C171.123 118.195 171.037 118.124 170.977 118.034C170.917 117.944 170.885 117.837 170.885 117.729V111.065C170.885 110.956 170.917 110.85 170.977 110.759C171.037 110.669 171.123 110.599 171.223 110.557C171.323 110.516 171.434 110.505 171.54 110.526C171.647 110.548 171.744 110.6 171.821 110.677L175.16 114.01C175.21 114.061 175.251 114.121 175.278 114.187C175.306 114.254 175.32 114.325 175.32 114.397C175.32 114.469 175.306 114.54 175.278 114.606C175.251 114.673 175.21 114.733 175.16 114.784L171.821 118.116Z" fill="#7A73FF"/>
</g>
<mask id="mask6_4003_1799" style="mask-type:luminance" maskUnits="userSpaceOnUse" x="177" y="109" width="10" height="10">
<path d="M177.538 109.961H186.409V118.832H177.538V109.961Z" fill="white"/>
</mask>
<g mask="url(#mask6_4003_1799)">
<path d="M180.692 118.116C180.616 118.193 180.518 118.246 180.411 118.267C180.305 118.288 180.195 118.278 180.094 118.236C179.994 118.195 179.908 118.124 179.848 118.034C179.788 117.944 179.756 117.837 179.756 117.729V111.065C179.756 110.956 179.788 110.85 179.848 110.759C179.908 110.669 179.994 110.599 180.094 110.557C180.195 110.516 180.305 110.505 180.411 110.526C180.518 110.548 180.616 110.6 180.692 110.677L184.03 114.01C184.081 114.06 184.121 114.121 184.149 114.187C184.177 114.254 184.191 114.325 184.191 114.397C184.191 114.469 184.177 114.54 184.149 114.606C184.121 114.673 184.081 114.733 184.03 114.784L180.692 118.116Z" fill="#7A73FF"/>
</g>
<mask id="mask7_4003_1799" style="mask-type:luminance" maskUnits="userSpaceOnUse" x="186" y="109" width="10" height="10">
<path d="M186.409 109.961H195.28V118.832H186.409V109.961Z" fill="white"/>
</mask>
<g mask="url(#mask7_4003_1799)">
<path d="M189.563 118.116C189.486 118.193 189.388 118.246 189.282 118.267C189.176 118.288 189.065 118.278 188.965 118.236C188.864 118.195 188.779 118.124 188.719 118.034C188.658 117.944 188.626 117.837 188.626 117.729V111.065C188.626 110.956 188.658 110.85 188.719 110.759C188.779 110.669 188.864 110.599 188.965 110.557C189.065 110.516 189.176 110.505 189.282 110.526C189.388 110.548 189.486 110.6 189.563 110.677L192.901 114.01C192.952 114.061 192.992 114.121 193.02 114.187C193.048 114.254 193.062 114.325 193.062 114.397C193.062 114.469 193.048 114.54 193.02 114.606C192.992 114.673 192.952 114.733 192.901 114.784L189.563 118.116Z" fill="#7A73FF"/>
</g>
<mask id="mask8_4003_1799" style="mask-type:luminance" maskUnits="userSpaceOnUse" x="195" y="109" width="10" height="10">
<path d="M195.279 109.961H204.151V118.832H195.279V109.961Z" fill="white"/>
</mask>
<g mask="url(#mask8_4003_1799)">
<path d="M198.434 118.116C198.357 118.193 198.26 118.246 198.153 118.267C198.047 118.288 197.936 118.278 197.836 118.236C197.736 118.195 197.65 118.124 197.59 118.034C197.529 117.944 197.497 117.837 197.498 117.729V111.065C197.497 110.956 197.529 110.85 197.59 110.759C197.65 110.669 197.736 110.599 197.836 110.557C197.936 110.516 198.047 110.505 198.153 110.526C198.26 110.548 198.357 110.6 198.434 110.677L201.771 114.01C201.822 114.06 201.863 114.121 201.891 114.187C201.918 114.254 201.933 114.325 201.933 114.397C201.933 114.469 201.918 114.54 201.891 114.606C201.863 114.673 201.822 114.733 201.771 114.784L198.434 118.116Z" fill="#7A73FF"/>
</g>
<mask id="mask9_4003_1799" style="mask-type:luminance" maskUnits="userSpaceOnUse" x="204" y="109" width="10" height="10">
<path d="M204.15 109.961H213.022V118.832H204.15V109.961Z" fill="white"/>
</mask>
<g mask="url(#mask9_4003_1799)">
<path d="M207.304 118.116C207.227 118.193 207.13 118.246 207.023 118.267C206.917 118.288 206.806 118.278 206.706 118.236C206.606 118.195 206.52 118.124 206.46 118.034C206.399 117.944 206.367 117.837 206.368 117.729V111.065C206.367 110.956 206.399 110.85 206.46 110.759C206.52 110.669 206.606 110.599 206.706 110.557C206.806 110.516 206.917 110.505 207.023 110.526C207.13 110.548 207.227 110.6 207.304 110.677L210.642 114.01C210.693 114.061 210.734 114.121 210.761 114.187C210.789 114.254 210.803 114.325 210.803 114.397C210.803 114.469 210.789 114.54 210.761 114.606C210.734 114.673 210.693 114.733 210.642 114.784L207.304 118.116Z" fill="#7A73FF"/>
</g>
<mask id="mask10_4003_1799" style="mask-type:luminance" maskUnits="userSpaceOnUse" x="213" y="109" width="9" height="10">
<path d="M213.021 109.961H221.892V118.832H213.021V109.961Z" fill="white"/>
</mask>
<g mask="url(#mask10_4003_1799)">
<path d="M216.175 118.116C216.099 118.193 216.001 118.246 215.895 118.267C215.788 118.288 215.678 118.278 215.578 118.236C215.477 118.195 215.392 118.124 215.331 118.034C215.271 117.944 215.239 117.837 215.239 117.729V111.065C215.239 110.956 215.271 110.85 215.331 110.759C215.392 110.669 215.477 110.599 215.578 110.557C215.678 110.516 215.788 110.505 215.895 110.526C216.001 110.548 216.099 110.6 216.175 110.677L219.513 114.01C219.564 114.06 219.605 114.121 219.632 114.187C219.66 114.254 219.674 114.325 219.674 114.397C219.674 114.469 219.66 114.54 219.632 114.606C219.605 114.673 219.564 114.733 219.513 114.784L216.175 118.116Z" fill="#7A73FF"/>
</g>
<path d="M254.788 163.744C282.292 163.744 304.588 141.448 304.588 113.944C304.588 86.4406 282.292 64.1445 254.788 64.1445C227.284 64.1445 204.988 86.4406 204.988 113.944C204.988 141.448 227.284 163.744 254.788 163.744Z" fill="white"/>
<path fill-rule="evenodd" clip-rule="evenodd" d="M243.047 96.9844C241.464 96.9844 239.945 97.6133 238.825 98.7329C237.706 99.8524 237.076 101.371 237.076 102.954V117.395C237.076 118.979 237.705 120.498 238.825 121.617C239.945 122.737 241.464 123.366 243.047 123.366H265.025C266.608 123.366 268.127 122.737 269.247 121.617C270.367 120.498 270.996 118.979 270.996 117.395V102.954C270.995 101.371 270.366 99.8524 269.247 98.7329C268.127 97.6133 266.608 96.9844 265.025 96.9844H243.047ZM241.316 102.638C241.502 102.638 241.686 102.601 241.857 102.53C242.029 102.459 242.185 102.354 242.316 102.223C242.447 102.092 242.551 101.936 242.622 101.764C242.693 101.592 242.73 101.409 242.73 101.223C242.73 101.037 242.693 100.853 242.622 100.682C242.551 100.51 242.447 100.354 242.315 100.223C242.184 100.092 242.028 99.9875 241.856 99.9165C241.685 99.8455 241.501 99.8089 241.315 99.809C240.94 99.8091 240.58 99.9583 240.315 100.224C240.05 100.489 239.901 100.849 239.901 101.224C239.901 101.599 240.051 101.959 240.316 102.224C240.581 102.489 240.941 102.638 241.316 102.638ZM247.44 101.223C247.44 101.409 247.404 101.593 247.333 101.764C247.262 101.936 247.158 102.091 247.027 102.223C246.895 102.354 246.739 102.458 246.568 102.529C246.397 102.6 246.213 102.637 246.027 102.637C245.842 102.637 245.658 102.6 245.486 102.529C245.315 102.458 245.159 102.354 245.028 102.223C244.897 102.091 244.792 101.936 244.721 101.764C244.65 101.593 244.614 101.409 244.614 101.223C244.614 100.848 244.763 100.489 245.028 100.224C245.293 99.9589 245.652 99.81 246.027 99.81C246.402 99.81 246.761 99.9589 247.027 100.224C247.292 100.489 247.44 100.848 247.44 101.223ZM250.738 102.638C251.113 102.638 251.473 102.489 251.738 102.224C252.003 101.959 252.152 101.599 252.152 101.224C252.152 100.849 252.003 100.49 251.738 100.225C251.473 99.9599 251.113 99.811 250.738 99.811C250.363 99.811 250.004 99.9599 249.739 100.225C249.474 100.49 249.325 100.849 249.325 101.224C249.325 101.599 249.474 101.959 249.739 102.224C250.004 102.489 250.363 102.638 250.738 102.638Z" fill="#80E9FF"/>
<path fill-rule="evenodd" clip-rule="evenodd" d="M269.933 107.348C271.613 107.348 272.222 107.523 272.836 107.852C273.451 108.18 273.932 108.662 274.261 109.276C274.589 109.89 274.765 110.5 274.765 112.179V126.072C274.765 127.752 274.589 128.361 274.261 128.976C273.939 129.582 273.443 130.079 272.836 130.4C272.222 130.729 271.613 130.903 269.933 130.903H249.445C247.765 130.903 247.156 130.729 246.541 130.4C245.934 130.078 245.438 129.582 245.117 128.976C244.788 128.361 244.614 127.752 244.614 126.072V112.179C244.614 110.5 244.788 109.89 245.117 109.276C245.445 108.662 245.927 108.18 246.541 107.852C247.156 107.523 247.765 107.348 249.445 107.348H269.933ZM259.993 113.001C256.984 113.001 254.978 114.535 254.978 117.098C254.978 121.106 260.617 120.456 260.617 122.184C260.617 122.853 260.022 123.069 259.194 123.069C257.965 123.069 256.379 122.574 255.134 121.913V125.37C256.514 125.95 257.911 126.192 259.19 126.192C262.275 126.192 264.4 124.705 264.4 122.098C264.4 117.782 258.73 118.556 258.73 116.926C258.73 116.361 259.212 116.142 259.99 116.142C261.117 116.142 262.551 116.479 263.679 117.074V113.664C262.45 113.185 261.222 113.001 259.993 113.001Z" fill="#7A73FF"/>
<path fill-rule="evenodd" clip-rule="evenodd" d="M270.996 107.38C270.642 107.357 270.287 107.346 269.933 107.348H249.445C247.765 107.348 247.156 107.523 246.541 107.852C245.927 108.18 245.445 108.663 245.117 109.276C244.788 109.891 244.614 110.5 244.614 112.179V123.365H255.134V121.913C256.379 122.575 257.965 123.07 259.194 123.07C260.022 123.07 260.617 122.853 260.617 122.184C260.617 121.499 259.731 121.188 258.661 120.812C257.033 120.24 254.978 119.518 254.978 117.099C254.978 114.535 256.984 113.001 259.993 113.001C261.222 113.001 262.45 113.185 263.679 113.664V117.074C262.551 116.479 261.117 116.142 259.99 116.142C259.212 116.142 258.73 116.362 258.73 116.926C258.73 117.547 259.551 117.819 260.569 118.155C262.224 118.704 264.4 119.424 264.4 122.098C264.4 122.557 264.334 122.979 264.21 123.365H265.025C265.809 123.366 266.585 123.211 267.31 122.911C268.034 122.611 268.692 122.172 269.247 121.617C269.801 121.063 270.241 120.405 270.541 119.68C270.841 118.956 270.996 118.179 270.996 117.395V107.38Z" fill="#0048E5"/>
<path d="M86.4647 163.744C113.968 163.744 136.264 141.448 136.264 113.944C136.264 86.4406 113.968 64.1445 86.4647 64.1445C58.9611 64.1445 36.665 86.4406 36.665 113.944C36.665 141.448 58.9611 163.744 86.4647 163.744Z" fill="white"/>
<path fill-rule="evenodd" clip-rule="evenodd" d="M86.1662 98.8047C95.8473 98.8047 103.696 106.653 103.696 116.334C103.696 121.908 101.095 126.874 97.0405 130.084C96.0684 126.456 91.5695 123.715 86.1662 123.715C80.763 123.715 76.2641 126.456 75.29 130.083C73.2137 128.443 71.5363 126.354 70.3839 123.973C69.2315 121.591 68.6341 118.98 68.6367 116.334C68.6367 106.653 76.4852 98.8047 86.1662 98.8047ZM86.1662 109.761C84.7134 109.761 83.32 110.338 82.2927 111.365C81.2654 112.392 80.6883 113.786 80.6883 115.239C80.6883 116.691 81.2654 118.085 82.2927 119.112C83.32 120.139 84.7134 120.717 86.1662 120.717C87.6191 120.717 89.0124 120.139 90.0397 119.112C91.067 118.085 91.6442 116.691 91.6442 115.239C91.6442 113.786 91.067 112.392 90.0397 111.365C89.0124 110.338 87.6191 109.761 86.1662 109.761Z" fill="#80E9FF"/>
<path fill-rule="evenodd" clip-rule="evenodd" d="M101.445 92.5664C102.586 93.3233 105.597 95.1042 109.086 95.4547C109.737 95.5195 110.269 96.0444 110.269 96.6997V101.54C110.269 111.202 102.199 115.235 100.957 115.235C99.7156 115.235 91.644 111.202 91.644 101.54V96.6997C91.644 96.0444 92.1759 95.5195 92.8273 95.4547C96.3163 95.1042 99.3281 93.3233 100.469 92.5664C100.613 92.4708 100.783 92.4199 100.957 92.4199C101.13 92.4199 101.3 92.4708 101.445 92.5664ZM99.2833 105.546L105.79 98.9178C106.448 98.2505 107.444 99.0274 106.623 99.9039C106.623 99.9039 100.378 107.748 100.049 108.197C99.951 108.356 99.8139 108.487 99.6509 108.578C99.4879 108.668 99.3045 108.716 99.118 108.716C98.9315 108.716 98.748 108.668 98.5851 108.578C98.4221 108.487 98.285 108.356 98.1867 108.197L96.138 104.692C96.0339 104.501 96.0011 104.28 96.0457 104.068C96.0904 103.856 96.2093 103.666 96.3812 103.534C96.5531 103.402 96.7666 103.336 96.9831 103.347C97.1997 103.358 97.4051 103.447 97.5622 103.596L99.2833 105.546Z" fill="#7A73FF"/>
<path fill-rule="evenodd" clip-rule="evenodd" d="M103.552 114.08C102.337 114.865 101.333 115.235 100.958 115.235C99.7156 115.235 91.645 111.202 91.645 101.54V99.6777C94.7814 100.712 97.5625 102.61 99.6688 105.154L99.2833 105.546L97.5632 103.596C97.4061 103.447 97.2007 103.358 96.9841 103.347C96.7676 103.336 96.5541 103.402 96.3822 103.534C96.2103 103.666 96.0913 103.856 96.0467 104.068C96.0021 104.28 96.0348 104.501 96.1389 104.692L98.1877 108.197C98.286 108.356 98.4231 108.487 98.586 108.578C98.749 108.668 98.9324 108.716 99.119 108.716C99.3055 108.716 99.4889 108.668 99.6519 108.578C99.8149 108.487 99.952 108.356 100.05 108.197C100.122 108.099 100.481 107.641 100.998 106.987C102.357 109.137 103.229 111.558 103.552 114.08Z" fill="#0048E5"/>
</g>
</g>
</g>
</g>
<g opacity="0.3">
<path d="M4.80322 4.22266H335.473V220.663C335.473 222.872 333.682 224.663 331.473 224.663H8.80322C6.59408 224.663 4.80322 222.872 4.80322 220.663V4.22266Z" fill="url(#paint0_linear_4003_1799)"/>
</g>
</g>
<defs>
<linearGradient id="paint0_linear_4003_1799" x1="170.138" y1="4.22266" x2="170.138" y2="224.663" gradientUnits="userSpaceOnUse">
<stop stop-color="#BEC9DC" stop-opacity="0"/>
<stop offset="1" stop-color="#BEC9DC" stop-opacity="0.4"/>
</linearGradient>
<clipPath id="clip0_4003_1799">
<rect x="4.80322" y="4.22266" width="330.67" height="220.44" rx="4" fill="white"/>
</clipPath>
<clipPath id="clip1_4003_1799">
<rect x="4.80322" y="4.22266" width="330.67" height="220.44" rx="4" fill="white"/>
</clipPath>
<clipPath id="clip2_4003_1799">
<rect width="330.67" height="220.44" fill="white" transform="translate(4.80322 4.22266)"/>
</clipPath>
<clipPath id="clip3_4003_1799">
<rect width="330.67" height="220.12" fill="white" transform="translate(4.79346 4.38281)"/>
</clipPath>
<clipPath id="clip4_4003_1799">
<rect width="330.67" height="220.12" fill="white" transform="translate(4.79346 4.38281)"/>
</clipPath>
</defs>
</svg>
