<svg width="110" height="41" viewBox="0 0 110 41" fill="none" xmlns="http://www.w3.org/2000/svg">
<rect x="0.143066" y="0.273438" width="109" height="40" rx="4" fill="#F6F9FC"/>
<path d="M25.9131 12.2734H16.0631C15.6431 12.2734 15.2481 12.4884 15.0181 12.8434C14.905 13.0195 14.8376 13.2209 14.8219 13.4296C14.8062 13.6382 14.8427 13.8474 14.9281 14.0384L17.4781 19.7684C17.6281 20.0884 17.6281 20.4584 17.4781 20.7784L14.1431 28.2734H25.9131C26.3981 28.2734 26.8431 27.9834 27.0431 27.5334L30.0331 20.7834C30.1831 20.4584 30.1831 20.0884 30.0331 19.7634L27.0431 13.0134C26.9464 12.7941 26.7882 12.6074 26.5877 12.4761C26.3871 12.3447 26.1528 12.2744 25.9131 12.2734Z" fill="#9966FF"/>
<path d="M13.7582 28.2734C13.5888 28.2733 13.4214 28.2358 13.2682 28.1634H13.2882C13.0143 28.0413 12.7953 27.8223 12.6732 27.5484L10.2532 22.0384C10.1688 21.8483 10.1324 21.6403 10.1473 21.4328C10.1621 21.2253 10.2277 21.0247 10.3382 20.8484C10.4481 20.6729 10.6006 20.5281 10.7816 20.4276C10.9626 20.327 11.1661 20.274 11.3732 20.2734H21.1232C21.6082 20.2734 22.0432 20.5584 22.2382 21.0034L24.6382 26.4284L24.9782 27.1934C25.0282 27.3034 25.0932 27.4034 25.1682 27.4934C25.4132 27.8134 25.7682 28.1434 26.1582 28.2484C26.1032 28.2634 26.0082 28.2734 25.8832 28.2734H13.7532H13.7582Z" fill="url(#paint0_linear_4003_1229)"/>
<path d="M21.1281 20.2726C21.5781 20.2726 21.9881 20.5226 22.1981 20.9226L22.2381 21.0026L24.6381 26.4276L24.9781 27.1926C25.2301 27.6533 25.6377 28.0095 26.1281 28.1976L26.2181 28.2326C26.1181 28.2576 26.0181 28.2726 25.9131 28.2726H14.1431L17.4781 20.7726C17.5531 20.6126 17.5881 20.4426 17.5881 20.2676H21.1281V20.2726Z" fill="url(#paint1_linear_4003_1229)"/>
<path d="M49.7093 19.3443H48.4836C48.4364 19.0824 48.3487 18.852 48.2204 18.6529C48.092 18.4539 47.9349 18.285 47.749 18.1462C47.563 18.0073 47.3548 17.9026 47.1243 17.8319C46.8965 17.7612 46.6542 17.7258 46.3976 17.7258C45.934 17.7258 45.5189 17.8424 45.1523 18.0754C44.7882 18.3085 44.5001 18.6503 44.288 19.1008C44.0785 19.5512 43.9737 20.1012 43.9737 20.7507C43.9737 21.4055 44.0785 21.9581 44.288 22.4085C44.5001 22.859 44.7895 23.1994 45.1562 23.4299C45.5228 23.6604 45.9353 23.7756 46.3936 23.7756C46.6477 23.7756 46.8886 23.7416 47.1165 23.6735C47.3469 23.6028 47.5552 23.4993 47.7411 23.3631C47.927 23.2269 48.0842 23.0606 48.2125 22.8642C48.3435 22.6652 48.4338 22.4373 48.4836 22.1807L49.7093 22.1846C49.6438 22.5801 49.5168 22.9441 49.3282 23.2767C49.1422 23.6067 48.9026 23.8922 48.6093 24.1331C48.3186 24.3714 47.986 24.5561 47.6115 24.687C47.2369 24.818 46.8284 24.8834 46.3858 24.8834C45.6891 24.8834 45.0684 24.7184 44.5237 24.3884C43.979 24.0558 43.5494 23.5805 43.2352 22.9624C42.9235 22.3443 42.7677 21.6071 42.7677 20.7507C42.7677 19.8917 42.9248 19.1545 43.2391 18.539C43.5534 17.9209 43.9829 17.4469 44.5276 17.1169C45.0724 16.7843 45.6918 16.618 46.3858 16.618C46.8127 16.618 47.2108 16.6795 47.58 16.8026C47.9519 16.9231 48.2858 17.1012 48.5818 17.3369C48.8777 17.57 49.1226 17.8554 49.3164 18.1933C49.5102 18.5285 49.6412 18.9122 49.7093 19.3443ZM52.2421 21.1907V24.7734H51.0675V16.728H52.2264V19.7215H52.301C52.4425 19.3967 52.6585 19.1387 52.9492 18.9476C53.2399 18.7564 53.6197 18.6608 54.0885 18.6608C54.5023 18.6608 54.8637 18.7459 55.1727 18.9161C55.4844 19.0864 55.7253 19.3404 55.8956 19.6782C56.0684 20.0135 56.1548 20.4325 56.1548 20.9353V24.7734H54.9802V21.0768C54.9802 20.6342 54.8663 20.2911 54.6385 20.0475C54.4106 19.8013 54.0937 19.6782 53.6878 19.6782C53.4102 19.6782 53.1614 19.7372 52.9414 19.855C52.724 19.9729 52.5525 20.1457 52.4268 20.3736C52.3037 20.5988 52.2421 20.8712 52.2421 21.1907ZM60.3229 24.8952C59.7284 24.8952 59.2164 24.7682 58.7869 24.5142C58.36 24.2575 58.03 23.8974 57.7969 23.4338C57.5665 22.9677 57.4512 22.4216 57.4512 21.7957C57.4512 21.1776 57.5665 20.6329 57.7969 20.1614C58.03 19.69 58.3548 19.3221 58.7712 19.0576C59.1902 18.793 59.68 18.6608 60.2404 18.6608C60.5809 18.6608 60.9109 18.7171 61.2304 18.8297C61.5499 18.9423 61.8367 19.1191 62.0907 19.36C62.3448 19.601 62.5451 19.914 62.6918 20.2989C62.8384 20.6813 62.9118 21.1462 62.9118 21.6935V22.11H58.1151V21.23H61.7607C61.7607 20.9209 61.6979 20.6473 61.5722 20.4089C61.4465 20.168 61.2697 19.9781 61.0418 19.8393C60.8166 19.7005 60.5521 19.6311 60.2483 19.6311C59.9183 19.6311 59.6302 19.7123 59.384 19.8747C59.1405 20.0344 58.9519 20.2439 58.8183 20.5032C58.6874 20.7599 58.6219 21.0388 58.6219 21.34V22.0275C58.6219 22.4308 58.6926 22.7739 58.834 23.0567C58.9781 23.3396 59.1784 23.5556 59.4351 23.7049C59.6918 23.8516 59.9916 23.9249 60.3347 23.9249C60.5573 23.9249 60.7603 23.8935 60.9436 23.8306C61.1269 23.7651 61.2854 23.6682 61.419 23.5399C61.5525 23.4116 61.6547 23.2531 61.7254 23.0646L62.8371 23.2649C62.7481 23.5923 62.5883 23.8791 62.3579 24.1252C62.13 24.3688 61.8432 24.5587 61.4975 24.6949C61.1544 24.8284 60.7629 24.8952 60.3229 24.8952ZM66.7567 24.8952C66.1727 24.8952 65.6699 24.763 65.2482 24.4984C64.8292 24.2313 64.507 23.8633 64.2818 23.3946C64.0566 22.9258 63.944 22.3889 63.944 21.7839C63.944 21.1711 64.0592 20.6302 64.2897 20.1614C64.5201 19.69 64.8449 19.3221 65.2639 19.0576C65.683 18.793 66.1766 18.6608 66.745 18.6608C67.2033 18.6608 67.6118 18.7459 67.9706 18.9161C68.3294 19.0837 68.6188 19.3194 68.8388 19.6232C69.0614 19.927 69.1937 20.2819 69.2356 20.6879H68.0924C68.0296 20.405 67.8855 20.1614 67.6603 19.9572C67.4377 19.7529 67.1391 19.6507 66.7646 19.6507C66.4372 19.6507 66.1504 19.7372 65.9043 19.91C65.6607 20.0803 65.4708 20.3238 65.3346 20.6407C65.1985 20.955 65.1304 21.3269 65.1304 21.7564C65.1304 22.1964 65.1971 22.5761 65.3307 22.8956C65.4643 23.2152 65.6528 23.4626 65.8964 23.6381C66.1426 23.8136 66.432 23.9013 66.7646 23.9013C66.9872 23.9013 67.1889 23.8607 67.3696 23.7795C67.5529 23.6957 67.7061 23.5766 67.8292 23.4221C67.9549 23.2675 68.0426 23.0816 68.0924 22.8642H69.2356C69.1937 23.2544 69.0667 23.6028 68.8545 23.9092C68.6424 24.2156 68.3582 24.4565 68.0021 24.632C67.6485 24.8075 67.2334 24.8952 66.7567 24.8952ZM71.572 22.7267L71.5642 21.2928H71.7684L74.1727 18.7393H75.579L72.837 21.6464H72.6523L71.572 22.7267ZM70.4917 24.7734V16.728H71.6663V24.7734H70.4917ZM74.3023 24.7734L72.1417 21.9057L72.9509 21.0846L75.744 24.7734H74.3023ZM78.9428 24.8952C78.3771 24.8952 77.8834 24.7656 77.4617 24.5063C77.0401 24.247 76.7127 23.8843 76.4796 23.4181C76.2465 22.9519 76.13 22.4072 76.13 21.7839C76.13 21.158 76.2465 20.6106 76.4796 20.1418C76.7127 19.673 77.0401 19.309 77.4617 19.0497C77.8834 18.7904 78.3771 18.6608 78.9428 18.6608C79.5085 18.6608 80.0021 18.7904 80.4238 19.0497C80.8454 19.309 81.1728 19.673 81.4059 20.1418C81.639 20.6106 81.7555 21.158 81.7555 21.7839C81.7555 22.4072 81.639 22.9519 81.4059 23.4181C81.1728 23.8843 80.8454 24.247 80.4238 24.5063C80.0021 24.7656 79.5085 24.8952 78.9428 24.8952ZM78.9467 23.9092C79.3134 23.9092 79.6172 23.8123 79.8581 23.6185C80.099 23.4247 80.2771 23.1667 80.3924 22.8446C80.5102 22.5224 80.5691 22.1676 80.5691 21.78C80.5691 21.395 80.5102 21.0414 80.3924 20.7193C80.2771 20.3945 80.099 20.1339 79.8581 19.9375C79.6172 19.7411 79.3134 19.6429 78.9467 19.6429C78.5774 19.6429 78.271 19.7411 78.0274 19.9375C77.7865 20.1339 77.6071 20.3945 77.4892 20.7193C77.374 21.0414 77.3164 21.395 77.3164 21.78C77.3164 22.1676 77.374 22.5224 77.4892 22.8446C77.6071 23.1667 77.7865 23.4247 78.0274 23.6185C78.271 23.8123 78.5774 23.9092 78.9467 23.9092ZM86.889 22.271V18.7393H88.0676V24.7734H86.9126V23.7285H86.8497C86.7109 24.0506 86.4883 24.319 86.1819 24.5338C85.8781 24.7459 85.4997 24.852 85.0466 24.852C84.659 24.852 84.3159 24.7669 84.0173 24.5967C83.7214 24.4238 83.4883 24.1685 83.3181 23.8306C83.1505 23.4928 83.0667 23.075 83.0667 22.5774V18.7393H84.2413V22.436C84.2413 22.8472 84.3552 23.1746 84.583 23.4181C84.8109 23.6617 85.1068 23.7835 85.4709 23.7835C85.6909 23.7835 85.9095 23.7285 86.1269 23.6185C86.3469 23.5085 86.5289 23.3422 86.673 23.1196C86.8196 22.897 86.8917 22.6141 86.889 22.271ZM92.4625 18.7393V19.6822H89.1665V18.7393H92.4625ZM90.0504 17.2937H91.2251V23.0017C91.2251 23.2296 91.2591 23.4011 91.3272 23.5163C91.3953 23.629 91.483 23.7062 91.5904 23.7481C91.7004 23.7874 91.8196 23.807 91.9479 23.807C92.0422 23.807 92.1247 23.8005 92.1954 23.7874C92.2661 23.7743 92.3211 23.7638 92.3604 23.756L92.5725 24.7263C92.5044 24.7525 92.4075 24.7787 92.2818 24.8049C92.1561 24.8337 91.999 24.8494 91.8104 24.852C91.5014 24.8572 91.2133 24.8022 90.9461 24.687C90.679 24.5718 90.4629 24.3937 90.2979 24.1527C90.1329 23.9118 90.0504 23.6093 90.0504 23.2453V17.2937Z" fill="#2E3A55"/>
<defs>
<linearGradient id="paint0_linear_4003_1229" x1="18.1482" y1="28.0684" x2="18.1482" y2="20.8534" gradientUnits="userSpaceOnUse">
<stop stop-color="#21CFE0"/>
<stop offset="0.17" stop-color="#20D1E0"/>
<stop offset="0.38" stop-color="#18E2E2"/>
<stop offset="0.61" stop-color="#13ECE3"/>
<stop offset="1" stop-color="#11EFE3"/>
</linearGradient>
<linearGradient id="paint1_linear_4003_1229" x1="20.6781" y1="31.7726" x2="20.6781" y2="17.5226" gradientUnits="userSpaceOnUse">
<stop stop-color="#0048E5"/>
<stop offset="1" stop-color="#9B66FF"/>
</linearGradient>
</defs>
</svg>
