<svg width="339" height="225" viewBox="0 0 339 225" fill="none" xmlns="http://www.w3.org/2000/svg">
<g clip-path="url(#clip0_4003_1764)">
<rect x="4.14307" y="4.22266" width="330.66" height="220.44" rx="4" fill="#F6F9FC"/>
<g clip-path="url(#clip1_4003_1764)">
<g clip-path="url(#clip2_4003_1764)">
<g clip-path="url(#clip3_4003_1764)">
<g clip-path="url(#clip4_4003_1764)">
<g clip-path="url(#clip5_4003_1764)">
<mask id="mask0_4003_1764" style="mask-type:luminance" maskUnits="userSpaceOnUse" x="4" y="7" width="359" height="251">
<path d="M362.433 7.18555H4.14307V257.89H362.433V7.18555Z" fill="white"/>
</mask>
<g mask="url(#mask0_4003_1764)">
<path d="M98.7145 257.901C125.97 257.901 148.066 235.582 148.066 208.051C148.066 180.52 125.97 158.201 98.7145 158.201C71.4586 158.201 49.3633 180.52 49.3633 208.051C49.3633 235.582 71.4586 257.901 98.7145 257.901Z" fill="#0077C5"/>
<path fill-rule="evenodd" clip-rule="evenodd" d="M118.705 213.618C118.577 213.617 118.454 213.563 118.363 213.47C118.271 213.375 118.22 213.246 118.22 213.113C118.225 212.983 118.279 212.861 118.369 212.771C118.459 212.681 118.58 212.631 118.705 212.631C118.831 212.631 118.951 212.681 119.042 212.771C119.133 212.861 119.186 212.983 119.192 213.113C119.192 213.39 118.975 213.618 118.705 213.618ZM118.705 212.516C118.386 212.516 118.128 212.782 118.128 213.113C118.128 213.445 118.386 213.704 118.705 213.704C119.025 213.704 119.284 213.444 119.284 213.113C119.284 212.782 119.025 212.516 118.705 212.516ZM118.597 213.068V212.876H118.703C118.764 212.876 118.833 212.896 118.833 212.969C118.833 213.05 118.757 213.068 118.69 213.068H118.597ZM118.949 212.971C118.949 212.827 118.83 212.774 118.708 212.774H118.481V213.446H118.597V213.166H118.681L118.833 213.447H118.975L118.799 213.153C118.891 213.132 118.949 213.069 118.949 212.971ZM115.313 204.444C115.47 204.448 115.626 204.418 115.772 204.358C115.918 204.298 116.051 204.208 116.164 204.095C116.275 203.98 116.365 203.844 116.425 203.694C116.486 203.544 116.518 203.382 116.518 203.219C116.518 203.056 116.486 202.896 116.425 202.744C116.365 202.594 116.276 202.458 116.164 202.345C116.051 202.23 115.919 202.14 115.773 202.08C115.627 202.02 115.471 201.991 115.314 201.994C115.005 202 114.711 202.133 114.494 202.362C114.277 202.591 114.156 202.898 114.156 203.219C114.156 203.54 114.277 203.848 114.494 204.077C114.711 204.306 115.005 204.438 115.314 204.444H115.313ZM112.145 205.502V207.3H114.336V213.619H116.29V207.3H118.48V205.502H112.145ZM95.0971 204.444C95.2522 204.444 95.4058 204.413 95.549 204.351C95.6922 204.289 95.8224 204.199 95.932 204.086C96.0417 203.972 96.1286 203.837 96.188 203.688C96.2474 203.539 96.2779 203.38 96.2779 203.219C96.2779 203.058 96.2474 202.899 96.188 202.75C96.1286 202.601 96.0417 202.467 95.932 202.353C95.8224 202.239 95.6922 202.149 95.549 202.087C95.4058 202.026 95.2522 201.994 95.0971 201.994C94.7882 202 94.4938 202.133 94.2776 202.362C94.0612 202.591 93.94 202.898 93.94 203.219C93.94 203.54 94.0612 203.848 94.2776 204.077C94.4938 204.306 94.7882 204.438 95.0971 204.444ZM91.9294 207.299H94.1199V213.619H96.0735V207.3H98.2645V205.502H91.9298V207.3L91.9294 207.299ZM108.822 213.619H110.776V205.507H108.822V213.619ZM104.868 209.969C104.868 211.05 104.281 212.165 103.044 212.165C101.791 212.165 101.579 210.965 101.579 210.002V205.507H99.6248V210.577C99.6248 212.233 100.471 213.854 102.507 213.854C103.663 213.854 104.591 213.128 104.933 212.317H104.966V213.619H106.821V205.507H104.868V209.969ZM88.0521 205.27C86.896 205.27 85.9681 205.998 85.6262 206.808H85.5932V205.507H83.7374V213.619H85.6912V209.157C85.6912 208.075 86.2776 206.96 87.515 206.96C88.7683 206.96 88.9804 208.16 88.9804 209.124V213.619H90.9341V208.548C90.9341 206.893 90.0882 205.27 88.0521 205.27ZM79.7817 213.619H81.7354V205.507H79.7817V213.619Z" fill="white"/>
<path d="M176.167 136.486C203.423 136.486 225.518 114.39 225.518 87.1344C225.518 59.8785 203.423 37.7832 176.167 37.7832C148.911 37.7832 126.815 59.8785 126.815 87.1344C126.815 114.39 148.911 136.486 176.167 136.486Z" fill="black"/>
<path fill-rule="evenodd" clip-rule="evenodd" d="M146.156 84.8162C146.891 84.8162 147.581 85.1136 148.098 85.6537C149.169 86.7706 149.169 88.5881 148.098 89.7049L144.017 93.9622L143.279 93.1935L147.361 88.9359C147.682 88.6008 147.859 88.1546 147.859 87.6791C147.859 87.2039 147.682 86.7578 147.361 86.4228C146.696 85.7302 145.616 85.73 144.951 86.4229L140.221 91.3572L139.484 90.5881L144.214 85.6541C144.732 85.1138 145.422 84.8164 146.156 84.8162ZM145.783 87.2881L146.517 88.0583L141.809 92.9996C141.293 93.5407 140.607 93.8385 139.877 93.8387C139.146 93.8387 138.46 93.5408 137.944 93L137.577 92.615L138.311 91.8448L138.678 92.2298C139.339 92.9237 140.414 92.9234 141.075 92.2296L145.783 87.2881ZM161.051 84.4454C161.498 84.4454 161.906 84.5253 162.277 84.6851C162.646 84.845 162.961 85.0686 163.22 85.3563C163.479 85.6441 163.68 85.9884 163.824 86.3893C163.967 86.7903 164.039 87.2291 164.039 87.7055C164.039 88.1997 163.963 88.6456 163.811 89.0437C163.659 89.4419 163.443 89.786 163.162 90.0765L163.956 91.0617V91.3668H162.947L162.392 90.6522C162.199 90.745 161.991 90.8176 161.771 90.8699C161.55 90.9222 161.313 90.9484 161.06 90.9484C160.602 90.9484 160.189 90.8683 159.822 90.7087C159.455 90.5488 159.143 90.3251 158.886 90.0374C158.629 89.7497 158.431 89.407 158.291 89.0087C158.15 88.6107 158.08 88.1764 158.08 87.7055C158.08 87.2291 158.15 86.7919 158.291 86.3935C158.431 85.9957 158.631 85.6527 158.891 85.365C159.15 85.0773 159.463 84.8522 159.83 84.6893C160.197 84.5269 160.605 84.4454 161.051 84.4454ZM166.748 84.4454V88.2805C166.748 88.8527 166.865 89.2773 167.102 89.5547C167.339 89.832 167.669 89.9705 168.092 89.9705C168.516 89.9705 168.845 89.832 169.082 89.5547C169.318 89.2773 169.436 88.8527 169.436 88.2805V84.4454H170.476V88.3068C170.476 88.7622 170.421 89.1517 170.311 89.4758C170.2 89.7998 170.044 90.0654 169.841 90.2727C169.638 90.48 169.387 90.6317 169.09 90.7281C168.793 90.8244 168.46 90.8724 168.092 90.8724C167.718 90.8724 167.383 90.8244 167.09 90.7281C166.795 90.6317 166.546 90.48 166.343 90.2727C166.14 90.0654 165.983 89.7998 165.873 89.4758C165.763 89.1517 165.708 88.7622 165.708 88.3068V84.4454H166.748ZM154.532 84.3218C155.145 84.3218 155.631 84.475 155.99 84.7814C156.348 85.0881 156.559 85.4982 156.619 86.012L155.625 86.0995C155.565 85.8368 155.443 85.6324 155.261 85.4866C155.079 85.3406 154.824 85.2675 154.5 85.2675C154.196 85.2675 153.958 85.342 153.787 85.4909C153.615 85.6399 153.53 85.8311 153.53 86.0646C153.53 86.1988 153.555 86.311 153.605 86.4015C153.655 86.4922 153.726 86.571 153.821 86.638C153.914 86.7052 154.029 86.7651 154.164 86.8175C154.299 86.8701 154.452 86.9258 154.623 86.984L155.046 87.1241C155.311 87.2117 155.55 87.3036 155.762 87.3999C155.974 87.4962 156.155 87.6116 156.304 87.746C156.453 87.8802 156.569 88.0408 156.648 88.2276C156.728 88.4145 156.768 88.6451 156.768 88.9194C156.768 89.2115 156.713 89.4786 156.603 89.7207C156.492 89.9631 156.338 90.1689 156.139 90.3381C155.94 90.5075 155.704 90.6389 155.431 90.7321C155.157 90.8255 154.855 90.8724 154.524 90.8724C153.911 90.8724 153.4 90.7207 152.993 90.417C152.584 90.1133 152.332 89.6551 152.238 89.0419L153.249 88.9456C153.309 89.2608 153.452 89.5077 153.676 89.6856C153.899 89.8638 154.193 89.9528 154.557 89.9528C154.916 89.9528 155.194 89.8652 155.389 89.69C155.585 89.515 155.683 89.2843 155.683 88.9982C155.683 88.858 155.658 88.7399 155.605 88.6435C155.552 88.5471 155.479 88.4655 155.385 88.3983C155.291 88.3314 155.176 88.2742 155.038 88.2276C154.9 88.1808 154.745 88.1313 154.574 88.0787L154.127 87.9474C153.861 87.8715 153.624 87.7796 153.414 87.6714C153.205 87.5635 153.025 87.4364 152.876 87.2905C152.727 87.1446 152.614 86.9768 152.537 86.787C152.46 86.5973 152.421 86.3767 152.421 86.1258C152.421 85.863 152.47 85.6208 152.57 85.3988C152.669 85.1772 152.81 84.9871 152.993 84.8296C153.174 84.6721 153.395 84.548 153.655 84.4573C153.914 84.3672 154.207 84.3218 154.532 84.3218ZM210.047 84.4454C210.704 84.4454 211.255 84.6036 211.698 84.9192C212.141 85.235 212.455 85.6544 212.639 86.177L211.577 86.3923C211.432 86.0765 211.23 85.828 210.97 85.6471C210.712 85.4662 210.398 85.3758 210.03 85.3758C209.735 85.3758 209.471 85.4345 209.24 85.5518C209.008 85.6692 208.814 85.8307 208.655 86.0367C208.496 86.2426 208.375 86.4858 208.291 86.7663C208.208 87.0467 208.165 87.347 208.165 87.6674C208.165 87.9935 208.209 88.2954 208.295 88.573C208.381 88.8507 208.507 89.0908 208.672 89.294C208.835 89.4971 209.035 89.6558 209.269 89.7702C209.503 89.8848 209.771 89.942 210.072 89.942C210.462 89.942 210.784 89.8443 211.038 89.6489C211.291 89.4537 211.488 89.2153 211.627 88.9338L212.672 89.1149C212.577 89.3562 212.454 89.5832 212.3 89.7962C212.147 90.0092 211.961 90.1958 211.744 90.3552C211.527 90.5145 211.274 90.6405 210.987 90.7332C210.7 90.8259 210.381 90.8724 210.03 90.8724C209.584 90.8724 209.179 90.7918 208.814 90.6309C208.449 90.4703 208.137 90.2477 207.878 89.9635C207.62 89.6791 207.421 89.3404 207.281 88.9469C207.14 88.5535 207.07 88.1271 207.07 87.6674C207.07 87.2081 207.14 86.7816 207.281 86.3881C207.421 85.9948 207.621 85.6544 207.883 85.3671C208.144 85.0802 208.456 84.8545 208.822 84.691C209.187 84.5272 209.595 84.4454 210.047 84.4454ZM192.08 84.3218C192.693 84.3218 193.178 84.475 193.538 84.7814C193.896 85.0881 194.106 85.4982 194.166 86.012L193.173 86.0995C193.112 85.8368 192.991 85.6324 192.809 85.4866C192.627 85.3406 192.373 85.2675 192.047 85.2675C191.743 85.2675 191.505 85.342 191.335 85.4909C191.164 85.6399 191.078 85.8311 191.078 86.0646C191.078 86.1988 191.103 86.311 191.153 86.4015C191.202 86.4922 191.274 86.571 191.368 86.638C191.462 86.7052 191.576 86.7651 191.712 86.8175C191.847 86.8701 192 86.9258 192.171 86.984L192.593 87.1241C192.859 87.2117 193.097 87.3036 193.31 87.3999C193.522 87.4962 193.703 87.6116 193.851 87.746C194 87.8802 194.116 88.0408 194.196 88.2276C194.276 88.4145 194.315 88.6451 194.315 88.9194C194.315 89.2115 194.26 89.4786 194.151 89.7207C194.039 89.9631 193.885 90.1689 193.687 90.3381C193.487 90.5075 193.251 90.6389 192.978 90.7321C192.705 90.8255 192.402 90.8724 192.072 90.8724C191.459 90.8724 190.949 90.7207 190.54 90.417C190.131 90.1133 189.88 89.6551 189.786 89.0419L190.797 88.9456C190.857 89.2608 190.999 89.5077 191.223 89.6856C191.446 89.8638 191.74 89.9528 192.104 89.9528C192.464 89.9528 192.741 89.8652 192.937 89.69C193.133 89.515 193.231 89.2843 193.231 88.9982C193.231 88.858 193.205 88.7399 193.153 88.6435C193.1 88.5471 193.026 88.4655 192.933 88.3983C192.839 88.3314 192.723 88.2742 192.585 88.2276C192.447 88.1808 192.292 88.1313 192.121 88.0787L191.674 87.9474C191.41 87.8715 191.172 87.7796 190.962 87.6714C190.752 87.5635 190.573 87.4364 190.424 87.2905C190.274 87.1446 190.162 86.9768 190.084 86.787C190.007 86.5973 189.968 86.3767 189.968 86.1258C189.968 85.863 190.018 85.6208 190.118 85.3988C190.217 85.1772 190.357 84.9871 190.54 84.8296C190.722 84.6721 190.943 84.548 191.202 84.4573C191.462 84.3672 191.754 84.3218 192.08 84.3218ZM175.275 84.569L177.39 90.4475V90.7488H176.349L175.744 88.9843H173.135L172.531 90.7488H171.549V90.4475L173.689 84.569H175.275ZM180.637 84.569C180.942 84.569 181.231 84.5904 181.506 84.6335C181.78 84.6765 182.028 84.7755 182.25 84.9304C182.721 85.2516 182.956 85.7365 182.956 86.3846C182.956 86.6658 182.916 86.911 182.835 87.1205C182.755 87.3298 182.649 87.5076 182.515 87.654C182.382 87.8003 182.228 87.9193 182.055 88.0109C181.88 88.1028 181.698 88.1716 181.51 88.2174L183.23 90.4474V90.7488H182.224L180.404 88.3216H179.731V90.7488H178.701V84.569H180.637ZM188.417 84.569V85.5157H185.566V87.1338H188.217V88.0633H185.566V89.8019H188.475V90.7488H184.542V84.569H188.417ZM198.079 84.569C198.49 84.569 198.835 84.6177 199.114 84.7153C199.393 84.8128 199.618 84.9476 199.79 85.1199C199.961 85.2919 200.085 85.4942 200.161 85.7267C200.237 85.959 200.276 86.2101 200.276 86.4797C200.276 86.8012 200.224 87.0807 200.119 87.3188C200.015 87.5569 199.864 87.7534 199.667 87.9084C199.471 88.0633 199.231 88.1795 198.949 88.257C198.667 88.3345 198.349 88.3732 197.995 88.3732H196.921V90.7488H195.865V84.569H198.079ZM204.24 84.569L206.355 90.4475V90.7488H205.315L204.71 88.9843H202.1L201.496 90.7488H200.514V90.4475L202.654 84.569H204.24ZM217.933 84.4944V85.4502H215.067V87.0841H217.733V88.0225H215.067V89.778H217.992V90.7341H214.036V84.4944H217.933ZM138.886 81.3555L139.623 82.1244L135.541 86.3818C134.877 87.0747 134.877 88.2022 135.541 88.8951C136.205 89.5878 137.286 89.5877 137.95 88.8948L142.68 83.9605L143.417 84.7296L138.688 89.6638C138.169 90.2039 137.48 90.5016 136.745 90.5016C136.012 90.5016 135.322 90.2039 134.805 89.6639C133.734 88.5472 133.734 86.7298 134.805 85.6129L138.886 81.3555ZM161.043 85.3868C160.745 85.3868 160.478 85.4449 160.244 85.5609C160.009 85.677 159.811 85.8378 159.648 86.0436C159.485 86.2496 159.361 86.4934 159.275 86.7744C159.19 87.056 159.148 87.362 159.148 87.6925C159.148 88.0232 159.191 88.3306 159.28 88.6149C159.368 88.8991 159.493 89.1456 159.656 89.3545C159.819 89.5632 160.017 89.727 160.252 89.8462C160.487 89.9649 160.753 90.0242 161.051 90.0242C161.349 90.0242 161.615 89.9679 161.85 89.8547C162.084 89.7416 162.283 89.5836 162.446 89.3804C162.608 89.1775 162.734 88.9323 162.822 88.6453C162.91 88.3581 162.955 88.0435 162.955 87.7013C162.955 87.3648 162.91 87.0545 162.822 86.7703C162.734 86.4862 162.608 86.2425 162.446 86.0394C162.283 85.8366 162.083 85.677 161.845 85.5609C161.608 85.4449 161.341 85.3868 161.043 85.3868ZM174.596 85.4987H174.335L174.234 85.7913C174.201 85.8889 174.163 85.9979 174.121 86.1183C174.079 86.2388 174.033 86.3765 173.983 86.5315C173.932 86.6862 173.87 86.8671 173.798 87.0736L173.454 88.0548H175.442L175.116 87.0736C174.986 86.6894 174.883 86.3765 174.805 86.1356C174.727 85.8946 174.657 85.6823 174.596 85.4987ZM203.561 85.4987H203.3L203.2 85.7913C203.166 85.8889 203.128 85.9979 203.086 86.1183C203.045 86.2388 202.998 86.3765 202.948 86.5315C202.898 86.6862 202.836 86.8671 202.763 87.0736L202.419 88.0548H204.408L204.081 87.0736C203.952 86.6894 203.848 86.3765 203.77 86.1356C203.692 85.8946 203.622 85.6823 203.561 85.4987ZM143.026 81.4791C143.757 81.4791 144.443 81.7769 144.958 82.3178L145.325 82.7028L144.591 83.4729L144.225 83.088C143.905 82.7522 143.48 82.5678 143.026 82.5678C142.573 82.5678 142.147 82.7524 141.826 83.0882L137.119 88.0296L136.385 87.2595L141.093 82.3181C141.608 81.7771 142.295 81.4792 143.026 81.4791ZM197.953 85.4985H196.921V87.4436H197.936C198.121 87.4436 198.292 87.428 198.447 87.3967C198.601 87.3655 198.736 87.313 198.852 87.2389C198.967 87.165 199.058 87.0655 199.122 86.9403C199.187 86.8152 199.22 86.6616 199.22 86.4795C199.22 86.2919 199.187 86.1343 199.122 86.0062C199.058 85.8783 198.969 85.7773 198.857 85.7033C198.743 85.6293 198.61 85.5767 198.455 85.5455C198.3 85.5143 198.132 85.4985 197.953 85.4985ZM180.637 85.4985H179.731V87.3921H180.637C181.036 87.3921 181.351 87.3166 181.581 87.1661C181.811 87.0155 181.925 86.7695 181.925 86.4281C181.925 86.0812 181.809 85.8396 181.576 85.7031C181.344 85.5668 181.031 85.4985 180.637 85.4985Z" fill="white"/>
<path d="M255.835 243.085C283.091 243.085 305.186 220.99 305.186 193.734C305.186 166.478 283.091 144.383 255.835 144.383C228.579 144.383 206.483 166.478 206.483 193.734C206.483 220.99 228.579 243.085 255.835 243.085Z" fill="white"/>
<path d="M254.802 179.584L256.183 182.095C256.46 182.614 256.46 183.249 256.183 183.768L247.953 198.688L251.847 205.729C252.455 206.826 253.587 207.519 254.802 207.519C256.017 207.519 257.149 206.826 257.757 205.729L261.651 198.688L260.63 196.783L256.211 204.777C255.934 205.296 255.383 205.614 254.83 205.614C254.25 205.614 253.725 205.296 253.449 204.777L250.052 198.688L257.702 184.836L259.083 187.347C259.359 187.866 259.359 188.501 259.083 189.021L253.753 198.688L254.802 200.593L260.602 190.088L264.413 196.985C264.993 198.053 264.993 199.352 264.413 200.419L260.547 207.432C259.967 208.5 258.117 210.894 254.802 210.894C251.488 210.894 249.666 208.5 249.058 207.432L245.192 200.419C244.611 199.352 244.611 198.053 245.192 196.985L254.802 179.584Z" fill="#ED5153"/>
<path d="M312.072 105.888C339.328 105.888 361.424 83.7927 361.424 56.5368C361.424 29.2808 339.328 7.18555 312.072 7.18555C284.816 7.18555 262.721 29.2808 262.721 56.5368C262.721 83.7927 284.816 105.888 312.072 105.888Z" fill="#FF7A59"/>
<path d="M315.511 50.8869V46.6607C316.05 46.3998 316.507 45.9856 316.828 45.4664C317.148 44.9471 317.32 44.3441 317.323 43.7277V43.6291C317.321 42.7676 316.989 41.9421 316.401 41.333C315.813 40.7238 315.015 40.3806 314.182 40.3782H314.088C313.256 40.3806 312.458 40.7238 311.87 41.333C311.281 41.9421 310.95 42.7676 310.947 43.6291V43.7277C310.95 44.3441 311.122 44.9471 311.442 45.4664C311.763 45.9856 312.22 46.3998 312.76 46.6607V50.8869C311.208 51.1325 309.748 51.7978 308.525 52.8158L297.314 43.7869C297.394 43.489 297.436 43.1819 297.441 42.8728C297.442 42.1475 297.235 41.4382 296.846 40.8346C296.457 40.2311 295.905 39.7604 295.258 39.482C294.611 39.2036 293.899 39.1302 293.211 39.2708C292.524 39.4115 291.892 39.76 291.396 40.2721C290.9 40.7844 290.562 41.4375 290.425 42.1487C290.287 42.8599 290.357 43.5973 290.624 44.2678C290.892 44.9382 291.345 45.5116 291.927 45.9153C292.509 46.3188 293.193 46.5348 293.894 46.5357C294.51 46.5333 295.114 46.3633 295.645 46.0425L306.667 54.9246C305.675 56.475 305.157 58.2994 305.182 60.1592C305.206 62.0192 305.772 63.8282 306.805 65.3499L303.45 68.822C303.182 68.7333 302.902 68.686 302.618 68.6818C302.043 68.6818 301.479 68.8585 301.001 69.1897C300.522 69.5209 300.149 69.9916 299.929 70.5424C299.709 71.0932 299.65 71.6992 299.763 72.2838C299.875 72.8685 300.153 73.4056 300.559 73.827C300.967 74.2486 301.486 74.5356 302.051 74.652C302.615 74.7683 303.201 74.7085 303.733 74.4804C304.265 74.2523 304.72 73.866 305.04 73.3703C305.359 72.8747 305.53 72.2919 305.53 71.6958C305.526 71.4033 305.481 71.113 305.395 70.8344L308.713 67.3994C309.796 68.2559 311.054 68.8448 312.391 69.1213C313.727 69.3978 315.107 69.3544 316.425 68.9947C317.744 68.6349 318.964 67.9682 319.995 67.0454C321.026 66.1226 321.841 64.9681 322.375 63.6702C322.909 62.3721 323.149 60.9649 323.078 59.5559C323.007 58.1469 322.626 56.7733 321.964 55.5401C321.302 54.3068 320.376 53.2466 319.258 52.4401C318.139 51.6337 316.857 51.1024 315.511 50.8869ZM314.136 64.7887C313.228 64.7887 312.341 64.51 311.586 63.9878C310.83 63.4656 310.242 62.7234 309.895 61.855C309.547 60.9866 309.456 60.0311 309.633 59.1093C309.811 58.1874 310.248 57.3407 310.89 56.676C311.532 56.0113 312.35 55.5588 313.241 55.3754C314.131 55.192 315.054 55.2862 315.893 55.6458C316.732 56.0055 317.449 56.6146 317.954 57.3961C318.458 58.1777 318.728 59.0965 318.728 60.0364C318.728 61.2968 318.243 62.5056 317.382 63.3968C316.522 64.288 315.354 64.7887 314.136 64.7887Z" fill="white"/>
</g>
</g>
</g>
</g>
</g>
</g>
<g opacity="0.3">
<path d="M4.14307 4.22266H334.803V220.663C334.803 222.872 333.012 224.663 330.803 224.663H8.14306C5.93392 224.663 4.14307 222.872 4.14307 220.663V4.22266Z" fill="url(#paint0_linear_4003_1764)"/>
</g>
</g>
<defs>
<linearGradient id="paint0_linear_4003_1764" x1="169.473" y1="4.22266" x2="169.473" y2="224.663" gradientUnits="userSpaceOnUse">
<stop stop-color="#BEC9DC" stop-opacity="0"/>
<stop offset="1" stop-color="#BEC9DC" stop-opacity="0.4"/>
</linearGradient>
<clipPath id="clip0_4003_1764">
<rect x="4.14307" y="4.22266" width="330.66" height="220.44" rx="4" fill="white"/>
</clipPath>
<clipPath id="clip1_4003_1764">
<rect x="4.14307" y="4.22266" width="330.66" height="220.44" rx="4" fill="white"/>
</clipPath>
<clipPath id="clip2_4003_1764">
<rect width="330.66" height="220.44" fill="white" transform="translate(4.14307 4.22266)"/>
</clipPath>
<clipPath id="clip3_4003_1764">
<rect width="358.29" height="256.63" fill="white" transform="translate(4.14307 4.22266)"/>
</clipPath>
<clipPath id="clip4_4003_1764">
<rect width="358.29" height="256.63" fill="white" transform="translate(4.14307 4.22266)"/>
</clipPath>
<clipPath id="clip5_4003_1764">
<rect width="358.29" height="250.704" fill="white" transform="translate(4.14307 7.18555)"/>
</clipPath>
</defs>
</svg>
