<svg width="201" height="41" viewBox="0 0 201 41" fill="none" xmlns="http://www.w3.org/2000/svg">
<path fill-rule="evenodd" clip-rule="evenodd" d="M71.7021 26.7994V12.9444H75.4182L80.1252 23.2984L84.7622 12.9434H88.3212V26.7984H85.2571V18.7384L81.7232 26.7984H78.4582L74.8782 18.7824V26.7984L71.7021 26.7994ZM100.649 21.4354L98.0862 15.5614L95.5812 21.4344L100.649 21.4354ZM93.2902 26.7994H89.6871L95.8801 12.9444H100.315L106.552 26.7994H102.996L101.769 24.0394H94.4791L93.2902 26.7994ZM107.989 26.7994V12.9444H121.318V15.7144H111.208V18.4664H119.877V21.1704H111.208V24.0284H121.343V26.7994H107.989ZM127.2 19.3064H134.204V15.7134H127.2V19.3064ZM123.935 26.7994V12.9444H135.09C136.58 12.9444 137.445 13.7994 137.445 15.2674V19.9224C137.445 20.9934 136.49 21.9614 134.637 21.9614C134.532 21.9664 134.425 21.9614 134.315 21.9614L137.562 26.7994H133.979L130.9 22.0624H127.2V26.7994H123.935ZM143.319 26.8074H142.214C140.771 26.8074 140.076 25.9804 140.076 24.7754V22.9654H143.319V24.0374H150.209V21.2014H142.306C141.044 21.2014 140.135 20.3594 140.135 19.1914V15.0774C140.135 13.8324 141.124 12.9524 142.328 12.9524H151.363C152.584 12.9524 153.428 13.8574 153.428 15.1654V16.8184H150.209V15.7234H143.319V18.4524H151.199C152.363 18.4524 153.428 19.2164 153.428 20.6864V24.6414C153.428 25.9884 152.676 26.8074 151.268 26.8074H143.319ZM156.54 26.8074V12.9504H159.85V18.4924L166.154 12.9504H170.635L163.115 19.3874L170.906 26.8074H166.266L159.85 20.5054V26.8074H156.54Z" fill="#AAB4C1"/>
<path fill-rule="evenodd" clip-rule="evenodd" d="M54.5396 4.05273H31.7506C30.7916 4.05273 29.8726 4.43273 29.1956 5.10773C28.8606 5.44135 28.5951 5.83803 28.4144 6.27485C28.2337 6.71168 28.1413 7.17999 28.1426 7.65273V31.9597C28.1426 33.9407 29.7576 35.5477 31.7506 35.5477H54.5406C56.5356 35.5477 58.1536 33.9377 58.1536 31.9537V7.64673C58.1536 5.66173 56.5356 4.05273 54.5396 4.05273ZM53.8536 11.5597L47.9296 18.9167L56.4896 22.9957L56.4836 23.0247H46.9806L49.0986 32.1907L49.0696 32.2077L43.1456 24.8507L37.2216 32.2077L37.1976 32.1957L39.3106 23.0237H29.8126L29.8016 22.9957L38.3616 18.9157L32.4376 11.5597L32.4546 11.5367L41.0146 15.6157L43.1276 6.44873H43.1626L45.2756 15.6157L53.8356 11.5357L53.8536 11.5597Z" fill="#AAB4C1"/>
</svg>
