<svg width="21" height="21" viewBox="0 0 21 21" fill="none" xmlns="http://www.w3.org/2000/svg">
<path d="M17.4481 6.58428C17.3057 6.35011 17.0919 6.16783 16.8381 6.06428L4.41311 1.04428C4.2172 0.964422 4.00461 0.934172 3.7942 0.956211C3.58379 0.97825 3.38209 1.0519 3.20698 1.17061C3.03187 1.28933 2.88878 1.44944 2.79042 1.63674C2.69205 1.82404 2.64145 2.03273 2.64311 2.24428V8.44428C2.64311 8.96928 2.96311 9.44428 3.44811 9.64428L6.66811 10.9443L17.4481 15.3043C17.5781 15.1043 17.6481 14.8643 17.6431 14.6243V7.26428C17.6431 7.02428 17.5781 6.78428 17.4481 6.57928V6.58428Z" fill="url(#paint0_linear_4003_903)"/>
<path d="M17.4581 6.58398L6.67308 10.944L3.44807 12.244C3.20944 12.3408 3.00525 12.5068 2.86179 12.7207C2.71832 12.9346 2.64215 13.1865 2.64307 13.444V19.654C2.64346 19.8647 2.69545 20.0721 2.7945 20.258C2.89354 20.444 3.03663 20.6029 3.21125 20.7208C3.38587 20.8387 3.58671 20.912 3.79622 20.9343C4.00572 20.9567 4.21751 20.9274 4.41307 20.849L16.8431 15.824C17.0931 15.719 17.3081 15.539 17.4481 15.304C17.5781 15.099 17.6481 14.864 17.6431 14.624V7.26398C17.6431 7.02398 17.5831 6.78898 17.4581 6.58398Z" fill="#9966FF"/>
<path d="M17.4529 6.58398L17.5029 6.66898C17.5929 6.85398 17.6429 7.05398 17.6429 7.26398V7.24898V14.624C17.6429 14.864 17.5779 15.099 17.4479 15.304L6.67285 10.944L17.4529 6.58398Z" fill="url(#paint1_linear_4003_903)"/>
<defs>
<linearGradient id="paint0_linear_4003_903" x1="10.1431" y1="3.00928" x2="10.1431" y2="11.5093" gradientUnits="userSpaceOnUse">
<stop stop-color="#11EFE3"/>
<stop offset="1" stop-color="#21CFE0"/>
</linearGradient>
<linearGradient id="paint1_linear_4003_903" x1="17.6429" y1="6.58398" x2="17.6429" y2="15.304" gradientUnits="userSpaceOnUse">
<stop stop-color="#0048E5"/>
<stop offset="1" stop-color="#9B66FF"/>
</linearGradient>
</defs>
</svg>
