<svg width="37" height="29" viewBox="0 0 37 29" fill="none" xmlns="http://www.w3.org/2000/svg">
<path fill-rule="evenodd" clip-rule="evenodd" d="M4.14307 0.732422C1.93393 0.732422 0.143066 2.52328 0.143066 4.73242V24.7324C0.143066 26.9415 1.93393 28.7324 4.14307 28.7324H32.1431C34.3522 28.7324 36.1431 26.9415 36.1431 24.7324V4.73242C36.1431 2.52328 34.3522 0.732422 32.1431 0.732422H4.14307ZM4.64307 6.73242C5.4715 6.73242 6.14307 6.06085 6.14307 5.23242C6.14307 4.40399 5.4715 3.73242 4.64307 3.73242C3.81464 3.73242 3.14307 4.40399 3.14307 5.23242C3.14307 6.06085 3.81464 6.73242 4.64307 6.73242ZM11.1431 5.23242C11.1431 6.06085 10.4715 6.73242 9.64307 6.73242C8.81464 6.73242 8.14307 6.06085 8.14307 5.23242C8.14307 4.40399 8.81464 3.73242 9.64307 3.73242C10.4715 3.73242 11.1431 4.40399 11.1431 5.23242ZM14.6431 6.73242C15.4715 6.73242 16.1431 6.06085 16.1431 5.23242C16.1431 4.40399 15.4715 3.73242 14.6431 3.73242C13.8147 3.73242 13.1431 4.40399 13.1431 5.23242C13.1431 6.06085 13.8147 6.73242 14.6431 6.73242Z" fill="rgba(0, 212, 255, 1)"/>
</svg>
