<svg width="33" height="26" viewBox="0 0 33 26" fill="none" xmlns="http://www.w3.org/2000/svg">
<path d="M28.1431 0.732422C29.2039 0.732422 30.2213 1.15385 30.9715 1.904C31.7216 2.65414 32.1431 3.67156 32.1431 4.73242V21.7324C32.1431 22.7933 31.7216 23.8107 30.9715 24.5608C30.2213 25.311 29.2039 25.7324 28.1431 25.7324H4.14307C3.0822 25.7324 2.06479 25.311 1.31464 24.5608C0.564495 23.8107 0.143066 22.7933 0.143066 21.7324V4.73242C0.143066 3.67156 0.564495 2.65414 1.31464 1.904C2.06479 1.15385 3.0822 0.732422 4.14307 0.732422H28.1431ZM4.94307 5.90242L4.27307 6.65242C4.19538 6.7399 4.15084 6.85186 4.14718 6.9688C4.14353 7.08574 4.181 7.20026 4.25307 7.29242L4.31307 7.35242L7.60307 10.2724L4.30307 13.1924C4.20734 13.2819 4.15057 13.4054 4.14495 13.5363C4.13934 13.6672 4.18535 13.7951 4.27307 13.8924L4.93307 14.6524C5.11307 14.8524 5.43307 14.8724 5.63307 14.6924L10.6031 10.2724L5.64307 5.86242C5.54446 5.77595 5.41582 5.73168 5.28488 5.73917C5.15394 5.74665 5.03118 5.80528 4.94307 5.90242Z" fill="rgba(0, 212, 255, 1)"/>
</svg>
