<svg width="27" height="27" viewBox="0 0 27 27" fill="none" xmlns="http://www.w3.org/2000/svg">
<path d="M13.6431 0.732422L14.7731 3.86242L15.4131 3.99242L17.6531 1.53242L18.5831 1.91242L18.4231 5.24242C18.6131 5.35242 18.7931 5.47242 18.9631 5.60242L21.9831 4.18242L22.6831 4.89242L21.2731 7.91242C21.4031 8.08242 21.5231 8.26242 21.6331 8.45242L24.9631 8.29242L25.3431 9.22242L22.8831 11.4624C22.9331 11.6724 22.9831 11.8824 23.0131 12.1024L26.1431 13.2324V14.2324L23.0131 15.3624C22.9731 15.6124 22.9131 15.8624 22.8631 16.0924L25.3431 18.2424L24.9631 19.1724L21.6831 18.9324C21.5431 19.1724 21.3831 19.4024 21.2131 19.6324L22.6931 22.5724L21.9831 23.2724L19.0431 21.8024C18.8131 21.9724 18.5831 22.1324 18.3431 22.2724L18.5831 25.5524L17.6531 25.9324L15.5031 23.4524C15.2331 23.5124 14.9631 23.5724 14.6831 23.6124L13.6431 26.7324H12.6431L11.6031 23.6124C11.3231 23.5724 11.0531 23.5124 10.7831 23.4524L8.63307 25.9324L7.70307 25.5524L7.94307 22.2724C7.70307 22.1324 7.47306 21.9724 7.24306 21.8024L4.30307 23.2824L3.60307 22.5724L5.07307 19.6324C4.90307 19.4024 4.74307 19.1724 4.60307 18.9324L1.32307 19.1724L0.943066 18.2424L3.42307 16.0924C3.35827 15.8215 3.30489 15.5479 3.26307 15.2724L0.143066 14.2324V13.2324L3.26307 12.1924C3.30307 11.9424 3.34306 11.7024 3.40306 11.4624L0.943066 9.22242L1.32307 8.29242L4.65306 8.45242C4.76306 8.26242 4.88307 8.08242 5.01307 7.91242L3.59307 4.89242L4.30307 4.19242L7.32307 5.60242C7.49307 5.47242 7.67307 5.35242 7.86307 5.24242L7.70307 1.91242L8.63307 1.53242L10.8731 3.99242C10.8731 3.99242 11.2931 3.89242 11.5131 3.86242L12.6431 0.732422H13.6431ZM13.1431 11.7324C12.6126 11.7324 12.1039 11.9431 11.7289 12.3182C11.3538 12.6933 11.1431 13.202 11.1431 13.7324C11.1431 14.2629 11.3538 14.7716 11.7289 15.1466C12.1039 15.5217 12.6126 15.7324 13.1431 15.7324C13.6735 15.7324 14.1822 15.5217 14.5573 15.1466C14.9324 14.7716 15.1431 14.2629 15.1431 13.7324C15.1431 13.202 14.9324 12.6933 14.5573 12.3182C14.1822 11.9431 13.6735 11.7324 13.1431 11.7324Z" fill="rgba(122, 115, 255, 0.43)"/>
</svg>
