<svg width="27" height="28" viewBox="0 0 27 28" fill="none" xmlns="http://www.w3.org/2000/svg">
<path d="M26.1431 8.88233V19.7723C26.143 20.5357 25.9246 21.2831 25.5135 21.9263C25.1024 22.5696 24.5158 23.0817 23.8231 23.4023L14.8231 27.5523C14.2965 27.796 13.7233 27.9222 13.1431 27.9222C12.5629 27.9222 11.9896 27.796 11.4631 27.5523L2.46307 23.4023C1.77029 23.0817 1.18373 22.5696 0.772633 21.9263C0.361539 21.2831 0.143085 20.5357 0.143066 19.7723V8.88233C0.145354 8.32381 0.26458 7.77197 0.493067 7.26233L13.1431 13.1023L25.7931 7.26233C26.0216 7.77197 26.1408 8.32381 26.1431 8.88233ZM14.8231 1.10233L23.8231 5.25233C24.2599 5.45623 24.6563 5.73742 24.9931 6.08232L13.1431 11.5523L1.28307 6.08232C1.62284 5.73643 2.02268 5.45519 2.46307 5.25233L11.4631 1.10233C11.9896 0.858642 12.5629 0.732422 13.1431 0.732422C13.7233 0.732422 14.2965 0.858642 14.8231 1.10233Z" fill="rgba(122, 115, 255, 0.43)"/>
</svg>
