<svg width="29" height="25" viewBox="0 0 29 25" fill="none" xmlns="http://www.w3.org/2000/svg">
<path fill-rule="evenodd" clip-rule="evenodd" d="M28.1431 6.23242C28.1431 3.19482 25.6807 0.732422 22.6431 0.732422H5.64307C2.60547 0.732422 0.143066 3.19482 0.143066 6.23242C0.143066 9.27002 2.60547 11.7324 5.64307 11.7324H22.6431C25.6807 11.7324 28.1431 9.27002 28.1431 6.23242ZM2.14307 6.23242C2.14307 8.16542 3.71007 9.73242 5.64307 9.73242C7.57607 9.73242 9.14307 8.16542 9.14307 6.23242C9.14307 4.29942 7.57607 2.73242 5.64307 2.73242C3.71007 2.73242 2.14307 4.29942 2.14307 6.23242ZM0.143066 19.2324C0.143066 16.1948 2.60547 13.7324 5.64307 13.7324H22.6431C25.6807 13.7324 28.1431 16.1948 28.1431 19.2324C28.1431 22.27 25.6807 24.7324 22.6431 24.7324H5.64307C2.60547 24.7324 0.143066 22.27 0.143066 19.2324ZM19.1431 19.2324C19.1431 21.1654 20.7101 22.7324 22.6431 22.7324C24.5761 22.7324 26.1431 21.1654 26.1431 19.2324C26.1431 17.2994 24.5761 15.7324 22.6431 15.7324C20.7101 15.7324 19.1431 17.2994 19.1431 19.2324Z" fill="rgba(122, 115, 255, 0.43)"/>
</svg>
