<svg width="100" height="31" viewBox="0 0 100 31" fill="none" xmlns="http://www.w3.org/2000/svg">
<path d="M14.5426 11.3527C14.5426 13.0527 13.1426 14.4527 11.4426 14.4527C9.74258 14.4527 8.34258 13.0527 8.34258 11.3527C8.34258 9.65273 9.74258 8.25273 11.4426 8.25273C13.1426 8.25273 14.5426 9.65273 14.5426 11.3527ZM11.4426 15.6527C9.74258 15.6527 8.34258 17.0527 8.34258 18.7527C8.34258 20.4527 9.74258 21.8527 11.4426 21.8527C13.1426 21.8527 14.5426 20.4527 14.5426 18.7527C14.5426 17.0527 13.1426 15.6527 11.4426 15.6527ZM30.1426 15.0527C30.1426 23.3527 23.4426 30.0527 15.1426 30.0527C6.84258 30.0527 0.142578 23.3527 0.142578 15.0527C0.142578 6.75273 6.84258 0.0527344 15.1426 0.0527344C23.4426 0.0527344 30.1426 6.75273 30.1426 15.0527ZM26.1426 15.0527C26.1426 8.95273 21.2426 4.05273 15.1426 4.05273C9.04258 4.05273 4.14258 8.95273 4.14258 15.0527C4.14258 21.1527 9.04258 26.0527 15.1426 26.0527C21.2426 26.0527 26.1426 21.1527 26.1426 15.0527ZM18.8426 15.6527C17.1426 15.6527 15.7426 17.0527 15.7426 18.7527C15.7426 20.4527 17.1426 21.8527 18.8426 21.8527C20.5426 21.8527 21.9426 20.4527 21.9426 18.7527C21.9426 17.0527 20.5426 15.6527 18.8426 15.6527ZM18.8426 8.25273C17.1426 8.25273 15.7426 9.65273 15.7426 11.3527C15.7426 13.0527 17.1426 14.4527 18.8426 14.4527C20.5426 14.4527 21.9426 13.0527 21.9426 11.3527C21.9426 9.65273 20.5426 8.25273 18.8426 8.25273ZM70.4426 5.95273C70.5426 5.95273 70.6426 6.05273 70.7426 6.15273V9.35273C70.7426 9.55273 70.5426 9.65273 70.4426 9.65273H65.1426C64.9426 9.65273 64.8426 9.45273 64.8426 9.35273V6.25273C64.8426 6.05273 65.0426 5.95273 65.1426 5.95273H70.4426ZM70.3426 10.4527H60.1426C60.0426 10.4527 59.8426 10.5527 59.8426 10.7527L58.5426 15.7527L58.4426 16.0527L56.8426 10.7527C56.8426 10.6527 56.6426 10.4527 56.5426 10.4527H52.5426C52.4426 10.4527 52.2426 10.5527 52.2426 10.7527L50.7426 15.7527L50.6426 16.0527L50.5426 15.7527L49.9426 13.2527L49.3426 10.7527C49.3426 10.6527 49.1426 10.4527 49.0426 10.4527H41.0426V6.15273C41.0426 6.05273 40.8426 5.85273 40.6426 5.95273L35.6426 7.55273C35.4426 7.55273 35.3426 7.65273 35.3426 7.85273V10.5527H34.0426C33.9426 10.5527 33.7426 10.6527 33.7426 10.8527V14.6527C33.7426 14.7527 33.8426 14.9527 34.0426 14.9527H35.3426V19.6527C35.3426 22.9527 37.1426 24.4527 40.4426 24.4527C41.8426 24.4527 43.1426 24.1527 44.0426 23.6527V19.6527C44.0426 19.4527 43.8426 19.3527 43.7426 19.4527C43.2426 19.6527 42.7426 19.7527 42.3426 19.7527C41.4426 19.7527 40.9426 19.3527 40.9426 18.3527V14.9527H43.8426C43.9426 14.9527 44.1426 14.8527 44.1426 14.6527V11.4527L47.9426 24.0527C47.9426 24.1527 48.1426 24.3527 48.2426 24.3527H52.4426C52.5426 24.3527 52.7426 24.2527 52.7426 24.0527L54.5426 18.4527L55.4426 21.3527L56.2426 24.0527C56.2426 24.1527 56.4426 24.3527 56.5426 24.3527H60.7426C60.8426 24.3527 61.0426 24.2527 61.0426 24.0527L64.8426 11.4527V24.0527C64.8426 24.1527 64.9426 24.3527 65.1426 24.3527H70.2426C70.3426 24.3527 70.5426 24.2527 70.5426 24.0527V10.7527C70.5426 10.6527 70.4426 10.4527 70.3426 10.4527ZM77.0426 5.95273H71.9426C71.8426 5.95273 71.6426 6.05273 71.6426 6.25273V23.9527C71.6426 24.0527 71.7426 24.2527 71.9426 24.2527H77.0426C77.1426 24.2527 77.3426 24.1527 77.3426 23.9527V6.15273C77.3426 6.05273 77.2426 5.95273 77.0426 5.95273ZM83.8426 5.95273H78.5426C78.4426 5.95273 78.2426 6.05273 78.2426 6.25273V9.35273C78.2426 9.45273 78.3426 9.65273 78.5426 9.65273H83.8426C83.9426 9.65273 84.1426 9.55273 84.1426 9.35273V6.15273C84.1426 6.05273 84.0426 5.95273 83.8426 5.95273ZM83.7426 10.4527H78.6426C78.5426 10.4527 78.3426 10.5527 78.3426 10.7527V23.8527C78.3426 23.9527 78.4426 24.1527 78.6426 24.1527H83.7426C83.8426 24.1527 84.0426 24.0527 84.0426 23.8527V10.7527C84.0426 10.6527 83.9426 10.4527 83.7426 10.4527ZM99.8426 17.2527C99.8426 21.0527 96.6426 24.3527 92.1426 24.3527C87.7426 24.3527 84.5426 21.0527 84.5426 17.2527C84.5426 13.4527 87.7426 10.1527 92.2426 10.1527C96.6426 10.1527 99.8426 13.4527 99.8426 17.2527ZM94.4426 17.3527C94.4426 15.9527 93.4426 14.8527 92.2426 14.9527C90.9426 14.9527 90.0426 16.0527 90.0426 17.3527C90.0426 18.6527 91.0426 19.7527 92.2426 19.7527C93.5426 19.7527 94.4426 18.6527 94.4426 17.3527Z" fill="#AAB4C1"/>
</svg>
