<svg width="32" height="21" viewBox="0 0 32 21" fill="none" xmlns="http://www.w3.org/2000/svg">
<path fill-rule="evenodd" clip-rule="evenodd" d="M17.7004 0.732422C17.3692 0.732422 17.0772 0.949722 16.9821 1.26692L11.4321 19.7669C11.2877 20.2481 11.648 20.7324 12.1504 20.7324H14.5844C14.9156 20.7324 15.2076 20.5151 15.3028 20.1979L20.8528 1.69792C20.9971 1.21672 20.6368 0.732422 20.1344 0.732422H17.7004ZM6.88588 3.43352C7.16688 3.12922 7.64138 3.11022 7.94568 3.39112L9.78268 5.08682C10.0871 5.36782 10.1061 5.84232 9.82508 6.14662L5.58608 10.739L9.82508 15.3313C10.1061 15.6357 10.0871 16.1102 9.78268 16.3911L7.94568 18.0868C7.64138 18.3678 7.16688 18.3488 6.88588 18.0444L0.611982 11.2477C0.346782 10.9604 0.346792 10.5176 0.611982 10.2303L6.88588 3.43352ZM25.3989 3.43352C25.118 3.12922 24.6435 3.11022 24.3391 3.39112L22.5021 5.08682C22.1977 5.36782 22.1788 5.84232 22.4597 6.14662L26.6988 10.739L22.4597 15.3313C22.1788 15.6357 22.1977 16.1102 22.5021 16.3911L24.3391 18.0868C24.6435 18.3678 25.118 18.3488 25.3989 18.0444L31.6728 11.2477C31.938 10.9604 31.938 10.5176 31.6728 10.2303L25.3989 3.43352Z" fill="rgba(122, 115, 255, 0.43)"/>
</svg>
