<svg width="20" height="21" viewBox="0 0 20 21" fill="none" xmlns="http://www.w3.org/2000/svg">
<path d="M6.235 0.505615C4.56266 0.611519 2.99569 1.35869 1.86066 2.59143C0.725627 3.82416 0.110087 5.44735 0.142318 7.12273C0.174549 8.79811 0.852066 10.3964 2.03367 11.5846C3.21528 12.7728 4.80982 13.4591 6.485 13.5006H11.76C12.445 13.5006 13 12.9506 13 12.2606V7.00562C13.0014 6.12906 12.8254 5.26128 12.4826 4.45455C12.1397 3.64782 11.6371 2.91885 11.005 2.31153C10.3729 1.70421 9.62447 1.23112 8.80469 0.920754C7.98492 0.61039 7.1108 0.469175 6.235 0.505615Z" fill="url(#paint0_linear_4003_699)"/>
<path d="M13.765 20.495C15.4373 20.3891 17.0043 19.6419 18.1393 18.4092C19.2744 17.1765 19.8899 15.5533 19.8577 13.8779C19.8255 12.2025 19.1479 10.6042 17.9663 9.41602C16.7847 8.22786 15.1902 7.5415 13.515 7.5H8.24001C7.91114 7.5 7.59574 7.63064 7.3632 7.86319C7.13065 8.09573 7.00001 8.41113 7.00001 8.74V13.995C6.99858 14.8716 7.17459 15.7393 7.51745 16.5461C7.8603 17.3528 8.36291 18.0818 8.99499 18.6891C9.62707 19.2964 10.3755 19.7695 11.1953 20.0799C12.0151 20.3902 12.8892 20.5314 13.765 20.495Z" fill="#0073E6"/>
<path d="M13 7.49914V12.2591C13 12.588 12.8694 12.9034 12.6368 13.136C12.4043 13.3685 12.0889 13.4991 11.76 13.4991H7V8.73914C6.99935 8.42367 7.11895 8.11982 7.33446 7.88944C7.54998 7.65907 7.84519 7.51949 8.16 7.49914L8.24 7.49414H13V7.49914Z" fill="url(#paint1_linear_4003_699)"/>
<defs>
<linearGradient id="paint0_linear_4003_699" x1="6.5" y1="1.35562" x2="6.5" y2="8.12562" gradientUnits="userSpaceOnUse">
<stop stop-color="#11EFE3"/>
<stop offset="0.33" stop-color="#15E8E2"/>
<stop offset="0.74" stop-color="#1FD3E0"/>
<stop offset="1" stop-color="#21CFE0"/>
</linearGradient>
<linearGradient id="paint1_linear_4003_699" x1="10" y1="8.35914" x2="10" y2="14.1191" gradientUnits="userSpaceOnUse">
<stop stop-color="#00299C"/>
<stop offset="1" stop-color="#0073E6"/>
</linearGradient>
</defs>
</svg>
