<svg width="508" height="560" viewBox="0 0 508 560" fill="none" xmlns="http://www.w3.org/2000/svg">
<g filter="url(#filter0_dd_4003_11900)">
<rect x="80.7139" y="30.7148" width="347" height="213" rx="14" fill="white" fill-opacity="0.01" shape-rendering="crispEdges"/>
</g>
<mask id="mask0_4003_11900" style="mask-type:luminance" maskUnits="userSpaceOnUse" x="79" y="29" width="350" height="216">
<path d="M414.058 29.7148H94.3701C86.2757 29.7148 79.7139 36.2766 79.7139 44.371V230.321C79.7139 238.415 86.2757 244.977 94.3701 244.977H414.058C422.152 244.977 428.714 238.415 428.714 230.321V44.371C428.714 36.2766 422.152 29.7148 414.058 29.7148Z" fill="white"/>
</mask>
<g mask="url(#mask0_4003_11900)">
<path d="M414.54 29.7148H93.8876C86.0596 29.7148 79.7139 36.0606 79.7139 43.8885V230.803C79.7139 238.631 86.0596 244.977 93.8876 244.977H414.54C422.368 244.977 428.714 238.631 428.714 230.803V43.8885C428.714 36.0606 422.368 29.7148 414.54 29.7148Z" fill="black"/>
<mask id="mask1_4003_11900" style="mask-type:alpha" maskUnits="userSpaceOnUse" x="79" y="29" width="350" height="216">
<path d="M428.714 29.7148H79.7139V244.977H428.714V29.7148Z" fill="white"/>
</mask>
<g mask="url(#mask1_4003_11900)">
<mask id="mask2_4003_11900" style="mask-type:luminance" maskUnits="userSpaceOnUse" x="343" y="186" width="72" height="45">
<path d="M414.628 186.715H343.522V230.659H414.628V186.715Z" fill="white"/>
</mask>
<g mask="url(#mask2_4003_11900)">
<path d="M388.693 191.412H369.46V225.962H388.693V191.412Z" fill="#F16122"/>
<path d="M370.685 208.694C370.685 201.684 373.96 195.44 379.075 191.412C375.34 188.471 370.615 186.715 365.5 186.715C353.361 186.715 343.522 196.555 343.522 208.694C343.522 220.833 353.361 230.673 365.5 230.673C370.629 230.673 375.34 228.916 379.075 225.976C373.96 221.948 370.685 215.704 370.685 208.694Z" fill="#ED1C24"/>
<path d="M412.521 222.311V221.601H412.8V221.461H412.075V221.601H412.354V222.311H412.507H412.521ZM413.929 222.311V221.461H413.706L413.456 222.046L413.204 221.461H412.981V222.311H413.135V221.67L413.372 222.227H413.539L413.776 221.67V222.311H413.929Z" fill="#F99F1C"/>
<path d="M414.628 208.694C414.628 220.833 404.788 230.673 392.649 230.673C387.52 230.673 382.809 228.916 379.074 225.976C384.189 221.948 387.464 215.704 387.464 208.694C387.464 201.684 384.189 195.44 379.074 191.412C382.809 188.471 387.534 186.715 392.649 186.715C404.788 186.715 414.628 196.555 414.628 208.694Z" fill="#F99F1C"/>
</g>
<path d="M347.692 163.859C348.151 163.859 348.581 163.942 348.97 164.109C349.373 164.276 349.706 164.512 349.97 164.845L349.109 165.762C348.886 165.553 348.665 165.401 348.428 165.289C348.192 165.178 347.928 165.123 347.636 165.123C347.386 165.123 347.137 165.165 346.914 165.262C346.692 165.359 346.498 165.484 346.344 165.665C346.178 165.831 346.053 166.04 345.969 166.29C345.872 166.526 345.831 166.79 345.831 167.081C345.831 167.373 345.872 167.637 345.969 167.874C346.067 168.11 346.192 168.318 346.344 168.498C346.511 168.665 346.692 168.804 346.914 168.901C347.137 168.998 347.373 169.04 347.636 169.04C347.928 169.04 348.206 168.984 348.456 168.86C348.706 168.734 348.942 168.582 349.137 168.401L349.956 169.318C349.679 169.638 349.345 169.887 348.942 170.054C348.554 170.221 348.123 170.304 347.664 170.304C347.178 170.304 346.734 170.221 346.344 170.054C345.942 169.887 345.609 169.665 345.33 169.374C345.053 169.082 344.831 168.748 344.678 168.359C344.525 167.971 344.442 167.54 344.442 167.081C344.442 166.623 344.525 166.193 344.678 165.804C344.831 165.415 345.053 165.067 345.33 164.79C345.609 164.498 345.956 164.276 346.344 164.109C346.747 163.942 347.178 163.859 347.664 163.859H347.692Z" fill="white"/>
<path d="M354.192 163.859C354.665 163.859 355.109 163.942 355.512 164.109C355.915 164.276 356.262 164.498 356.553 164.79C356.845 165.081 357.082 165.415 357.248 165.804C357.415 166.193 357.498 166.623 357.498 167.081C357.498 167.54 357.415 167.971 357.248 168.359C357.082 168.748 356.845 169.096 356.553 169.374C356.262 169.665 355.915 169.887 355.512 170.054C355.109 170.221 354.678 170.304 354.192 170.304C353.706 170.304 353.276 170.221 352.873 170.054C352.47 169.887 352.123 169.665 351.831 169.374C351.54 169.082 351.303 168.748 351.15 168.359C350.984 167.971 350.901 167.54 350.901 167.081C350.901 166.623 350.984 166.193 351.15 165.804C351.317 165.415 351.54 165.067 351.831 164.79C352.123 164.498 352.47 164.276 352.873 164.109C353.276 163.942 353.72 163.859 354.192 163.859ZM354.192 165.123C353.915 165.123 353.664 165.165 353.428 165.262C353.192 165.359 352.998 165.484 352.817 165.665C352.65 165.831 352.511 166.04 352.414 166.29C352.317 166.526 352.262 166.79 352.262 167.081C352.262 167.373 352.317 167.637 352.414 167.874C352.511 168.11 352.65 168.318 352.817 168.498C352.984 168.665 353.192 168.804 353.428 168.901C353.664 168.998 353.915 169.04 354.192 169.04C354.47 169.04 354.72 168.998 354.956 168.901C355.192 168.804 355.387 168.665 355.567 168.498C355.734 168.332 355.873 168.123 355.97 167.874C356.067 167.637 356.123 167.373 356.123 167.081C356.123 166.79 356.067 166.526 355.97 166.29C355.873 166.054 355.734 165.845 355.567 165.665C355.4 165.484 355.192 165.359 354.956 165.262C354.72 165.165 354.47 165.123 354.192 165.123Z" fill="white"/>
<path d="M366.707 163.859C367.068 163.859 367.402 163.915 367.707 164.04C368.013 164.164 368.277 164.331 368.499 164.539C368.721 164.748 368.888 165.012 369.013 165.304C369.138 165.595 369.194 165.928 369.194 166.29V170.137H367.846V166.734C367.846 166.22 367.722 165.818 367.471 165.54C367.221 165.262 366.874 165.123 366.416 165.123C366.194 165.123 365.999 165.165 365.804 165.234C365.61 165.304 365.443 165.401 365.304 165.54C365.165 165.679 365.054 165.845 364.957 166.054C364.874 166.262 364.832 166.484 364.832 166.748V170.137H363.485V166.734C363.485 166.22 363.36 165.818 363.11 165.54C362.86 165.262 362.512 165.123 362.054 165.123C361.832 165.123 361.637 165.165 361.443 165.234C361.249 165.304 361.082 165.401 360.943 165.54C360.804 165.679 360.693 165.845 360.595 166.054C360.512 166.262 360.471 166.484 360.471 166.748V170.137H359.123V164.012H360.456V164.762C360.582 164.582 360.72 164.428 360.874 164.318C361.026 164.207 361.179 164.109 361.346 164.04C361.512 163.97 361.679 163.928 361.845 163.901C362.012 163.873 362.179 163.859 362.332 163.859C362.804 163.859 363.221 163.956 363.582 164.151C363.943 164.345 364.235 164.609 364.443 164.957C364.568 164.734 364.735 164.554 364.916 164.415C365.096 164.276 365.276 164.164 365.485 164.081C365.679 163.998 365.888 163.943 366.096 163.915C366.305 163.887 366.499 163.873 366.693 163.873L366.707 163.859Z" fill="white"/>
<path d="M378.78 163.859C379.141 163.859 379.474 163.915 379.78 164.04C380.085 164.164 380.349 164.331 380.572 164.539C380.794 164.748 380.96 165.012 381.086 165.304C381.21 165.595 381.266 165.928 381.266 166.29V170.137H379.918V166.734C379.918 166.22 379.794 165.818 379.543 165.54C379.294 165.262 378.947 165.123 378.488 165.123C378.266 165.123 378.071 165.165 377.877 165.234C377.682 165.304 377.516 165.401 377.376 165.54C377.238 165.679 377.127 165.845 377.029 166.054C376.946 166.262 376.905 166.484 376.905 166.748V170.137H375.557V166.734C375.557 166.22 375.432 165.818 375.182 165.54C374.932 165.262 374.585 165.123 374.127 165.123C373.904 165.123 373.709 165.165 373.516 165.234C373.321 165.304 373.154 165.401 373.015 165.54C372.876 165.679 372.765 165.845 372.668 166.054C372.585 166.262 372.543 166.484 372.543 166.748V170.137H371.195V164.012H372.529V164.762C372.654 164.582 372.793 164.428 372.946 164.318C373.098 164.207 373.251 164.109 373.418 164.04C373.585 163.97 373.752 163.928 373.918 163.901C374.084 163.873 374.251 163.859 374.404 163.859C374.877 163.859 375.293 163.956 375.655 164.151C376.015 164.345 376.307 164.609 376.516 164.957C376.641 164.734 376.807 164.554 376.988 164.415C377.168 164.276 377.349 164.164 377.557 164.081C377.752 163.998 377.96 163.943 378.169 163.915C378.377 163.887 378.572 163.873 378.765 163.873L378.78 163.859Z" fill="white"/>
<path d="M385.906 163.859C386.336 163.859 386.725 163.942 387.072 164.095C387.433 164.248 387.739 164.47 387.989 164.748C388.239 165.026 388.434 165.373 388.586 165.762C388.725 166.151 388.795 166.595 388.795 167.068C388.795 167.151 388.795 167.234 388.795 167.318C388.795 167.401 388.795 167.484 388.781 167.568H384.252C384.294 167.846 384.378 168.082 384.489 168.276C384.6 168.47 384.739 168.637 384.905 168.762C385.072 168.888 385.253 168.984 385.447 169.04C385.641 169.096 385.85 169.124 386.072 169.124C386.378 169.124 386.683 169.068 386.989 168.957C387.295 168.845 387.587 168.679 387.836 168.485L388.503 169.443C388.128 169.762 387.725 169.985 387.308 170.11C386.892 170.234 386.447 170.304 385.989 170.304C385.531 170.304 385.114 170.234 384.725 170.068C384.336 169.915 384.016 169.693 383.739 169.415C383.461 169.137 383.253 168.79 383.1 168.401C382.947 167.998 382.863 167.568 382.863 167.081C382.863 166.595 382.933 166.165 383.086 165.776C383.238 165.373 383.447 165.04 383.711 164.762C383.975 164.484 384.294 164.262 384.67 164.109C385.045 163.956 385.461 163.873 385.906 163.873V163.859ZM385.878 165.054C385.641 165.054 385.433 165.095 385.239 165.165C385.058 165.234 384.892 165.345 384.766 165.47C384.627 165.609 384.516 165.762 384.433 165.956C384.35 166.137 384.294 166.346 384.252 166.567H387.433C387.364 166.095 387.197 165.72 386.92 165.456C386.656 165.193 386.308 165.054 385.878 165.054Z" fill="white"/>
<path d="M393.558 163.859C393.766 163.859 393.947 163.873 394.113 163.901C394.28 163.928 394.433 163.97 394.586 164.026L394.266 165.345C394.127 165.276 393.96 165.22 393.78 165.178C393.585 165.137 393.419 165.123 393.252 165.123C393.044 165.123 392.85 165.165 392.669 165.234C392.488 165.304 392.335 165.415 392.211 165.553C392.085 165.692 391.988 165.873 391.905 166.067C391.836 166.276 391.793 166.498 391.793 166.762V170.124H390.46V164.012H391.78V164.706C391.988 164.415 392.238 164.192 392.544 164.067C392.85 163.928 393.182 163.859 393.558 163.859Z" fill="white"/>
<path d="M398.462 163.859C398.921 163.859 399.352 163.942 399.741 164.109C400.143 164.276 400.477 164.512 400.74 164.845L399.879 165.762C399.658 165.553 399.435 165.401 399.199 165.289C398.963 165.178 398.699 165.123 398.407 165.123C398.157 165.123 397.907 165.165 397.685 165.262C397.463 165.359 397.268 165.484 397.116 165.665C396.949 165.831 396.824 166.04 396.741 166.29C396.643 166.526 396.601 166.79 396.601 167.081C396.601 167.373 396.643 167.637 396.741 167.874C396.837 168.11 396.962 168.318 397.116 168.498C397.282 168.665 397.463 168.804 397.685 168.901C397.907 168.998 398.143 169.04 398.407 169.04C398.699 169.04 398.976 168.984 399.227 168.86C399.477 168.734 399.713 168.582 399.907 168.401L400.727 169.318C400.449 169.638 400.116 169.887 399.713 170.054C399.324 170.221 398.893 170.304 398.435 170.304C397.949 170.304 397.504 170.221 397.116 170.054C396.713 169.887 396.379 169.665 396.102 169.374C395.823 169.082 395.601 168.748 395.448 168.359C395.296 167.971 395.212 167.54 395.212 167.081C395.212 166.623 395.296 166.193 395.448 165.804C395.601 165.415 395.823 165.067 396.102 164.79C396.379 164.498 396.726 164.276 397.116 164.109C397.518 163.942 397.949 163.859 398.435 163.859H398.462Z" fill="white"/>
<path d="M403.586 170.137H402.239V164.012H403.586V170.137Z" fill="white"/>
<path d="M411.558 170.137H410.225V169.401C410.017 169.679 409.753 169.887 409.434 170.054C409.114 170.221 408.739 170.29 408.308 170.29C407.878 170.29 407.475 170.207 407.113 170.054C406.738 169.901 406.419 169.665 406.142 169.387C405.863 169.096 405.641 168.762 405.488 168.373C405.336 167.984 405.252 167.554 405.252 167.081C405.252 166.609 405.336 166.179 405.488 165.789C405.641 165.401 405.863 165.054 406.142 164.775C406.419 164.484 406.738 164.262 407.113 164.109C407.488 163.956 407.878 163.873 408.308 163.873C408.739 163.873 409.128 163.956 409.434 164.123C409.753 164.289 410.017 164.498 410.225 164.775V164.04H411.558V170.137ZM408.461 165.109C408.169 165.109 407.919 165.165 407.683 165.262C407.461 165.373 407.267 165.512 407.1 165.678C406.947 165.859 406.822 166.067 406.738 166.303C406.655 166.539 406.614 166.79 406.614 167.068C406.614 167.345 406.655 167.596 406.738 167.832C406.822 168.067 406.947 168.276 407.1 168.457C407.252 168.637 407.447 168.776 407.683 168.873C407.906 168.97 408.169 169.026 408.461 169.026C408.753 169.026 408.989 168.97 409.211 168.873C409.434 168.776 409.628 168.637 409.794 168.457C409.961 168.276 410.086 168.082 410.169 167.832C410.253 167.596 410.308 167.332 410.308 167.054C410.308 166.776 410.267 166.512 410.169 166.276C410.086 166.04 409.961 165.832 409.794 165.651C409.628 165.47 409.434 165.345 409.211 165.234C408.989 165.137 408.739 165.081 408.461 165.081V165.109Z" fill="white"/>
<path d="M415.005 170.135H413.657V161.51H415.005V170.135Z" fill="white"/>
<path d="M402.905 161.305C403.03 161.305 403.156 161.333 403.28 161.374C403.391 161.43 403.488 161.486 403.586 161.569C403.669 161.653 403.739 161.749 403.78 161.874C403.836 161.985 403.85 162.111 403.85 162.25C403.85 162.388 403.822 162.5 403.78 162.624C403.725 162.736 403.669 162.833 403.586 162.916C403.503 162.999 403.405 163.069 403.28 163.111C403.156 163.153 403.044 163.181 402.905 163.181C402.766 163.181 402.655 163.153 402.53 163.111C402.405 163.069 402.322 162.999 402.238 162.916C402.155 162.833 402.086 162.736 402.044 162.624C402.003 162.514 401.975 162.388 401.975 162.25C401.975 162.111 402.003 162 402.044 161.874C402.086 161.764 402.155 161.666 402.238 161.569C402.322 161.486 402.419 161.416 402.53 161.374C402.641 161.319 402.766 161.305 402.905 161.305Z" fill="white"/>
<path d="M302.671 62.2792L307.574 57.4426H304.892L297.989 64.4116V57.4426H296.12V71.6884H297.989V66.72L300.319 64.5435L301.088 63.7961C302.253 64.5435 304.76 66.764 304.826 71.7104H306.98C306.914 66.2803 304.298 63.4883 302.671 62.2792ZM317.947 57.4426H315.287L309.922 71.6884H311.901L313.44 67.4235H319.552L321.003 71.6884H323.113L317.947 57.4426ZM313.99 65.8626L316.276 59.5531H316.804L318.936 65.8626H313.99ZM334.153 57.4426L330.108 69.5779H329.8L325.777 57.4426H323.645L328.833 71.6884H331.119L336.307 57.4426H334.153ZM349.364 57.4426V63.3344H341.559V57.4426H339.625V71.6884H341.559V65.0272H349.364V71.6884H351.32V57.4426H349.364ZM362.259 57.0469C358.191 57.0469 355.136 60.4105 355.136 64.5435C355.136 68.6766 358.191 72.0402 362.259 72.0402C366.326 72.0402 369.403 68.6766 369.403 64.5435C369.403 60.4105 366.326 57.0469 362.259 57.0469ZM362.259 70.2595C359.159 70.2595 357.114 67.6873 357.114 64.5435C357.114 61.3778 359.159 58.8276 362.259 58.8276C365.358 58.8276 367.403 61.3998 367.403 64.5435C367.403 67.6873 365.358 70.2595 362.259 70.2595ZM375.142 69.9297V57.4426H373.229V71.6884H382.771V69.9297H375.142ZM397.217 57.4426L393.15 67.5774L389.039 57.4426H386.049V71.6884H387.874V63.2904C387.874 62.9387 387.874 62.4111 387.852 61.7076C387.83 60.9821 387.83 60.0148 387.83 59.663H388.028L388.072 59.685L392.161 69.7758H394.073L398.163 59.685C398.163 59.707 398.382 59.663 398.382 59.707C398.382 60.4105 398.382 61.2019 398.382 61.8395C398.36 62.499 398.36 62.9827 398.36 63.2904V71.6884H400.207V57.4426H397.217Z" fill="white"/>
<path d="M107.541 216.731C107.977 216.821 108.361 216.86 108.849 216.86C110.631 216.86 111.657 216.039 111.657 214.192V207.549H110.426V214.102C110.426 215.359 109.849 215.757 108.708 215.757C108.297 215.757 107.989 215.718 107.541 215.628V216.731ZM118.301 215.295V211.833C118.301 210.601 117.377 209.922 115.89 209.922C114.454 209.922 113.338 210.601 113.235 212.025H114.364C114.454 211.307 114.941 210.935 115.826 210.935C116.647 210.935 117.185 211.255 117.185 211.999V212.41L115.518 212.743C114.018 213.038 112.966 213.602 112.966 214.936C112.966 216.141 113.966 216.872 115.185 216.872C116.057 216.872 116.8 216.552 117.211 216.064C117.224 216.334 117.236 216.565 117.262 216.757H118.403C118.339 216.334 118.301 215.795 118.301 215.295ZM117.185 214.474C117.185 215.334 116.326 215.936 115.338 215.936C114.607 215.936 114.12 215.539 114.12 214.885C114.12 214.077 114.8 213.795 115.826 213.589L117.185 213.307V214.474ZM120.166 216.757H121.32V212.756C121.32 211.64 122.167 210.999 123 210.999C124.001 210.999 124.398 211.704 124.398 212.64V216.757H125.552V212.333C125.552 210.909 124.744 209.922 123.321 209.922C122.372 209.922 121.705 210.409 121.32 210.96V210.05H120.166V216.757ZM130.085 216.898C131.419 216.898 132.432 216.167 132.842 214.974L131.829 214.615C131.624 215.41 130.983 215.898 130.085 215.898C128.918 215.898 128.11 215 128.046 213.589H132.894V213.205C132.894 211.345 131.906 209.922 130.034 209.922C128.213 209.922 126.943 211.409 126.943 213.41C126.943 215.475 128.226 216.898 130.085 216.898ZM130.021 210.909C131.188 210.909 131.701 211.756 131.727 212.705H128.11C128.315 211.563 129.046 210.909 130.021 210.909ZM137.087 216.757H140.011C142.806 216.757 144.576 214.962 144.576 212.153C144.576 209.345 142.806 207.549 140.011 207.549H137.087V216.757ZM138.292 215.693V208.614H139.998C142.101 208.614 143.371 209.999 143.371 212.153C143.371 214.295 142.101 215.693 140.011 215.693H138.292ZM145.976 208.883H147.233V207.549H145.976V208.883ZM147.182 210.05H146.027V216.757H147.182V210.05ZM153.943 215.295V211.833C153.943 210.601 153.02 209.922 151.532 209.922C150.096 209.922 148.98 210.601 148.877 212.025H150.006C150.096 211.307 150.583 210.935 151.468 210.935C152.289 210.935 152.827 211.255 152.827 211.999V212.41L151.16 212.743C149.66 213.038 148.608 213.602 148.608 214.936C148.608 216.141 149.608 216.872 150.827 216.872C151.699 216.872 152.443 216.552 152.853 216.064C152.866 216.334 152.879 216.565 152.904 216.757H154.046C153.981 216.334 153.943 215.795 153.943 215.295ZM152.827 214.474C152.827 215.334 151.968 215.936 150.981 215.936C150.25 215.936 149.762 215.539 149.762 214.885C149.762 214.077 150.442 213.795 151.468 213.589L152.827 213.307V214.474ZM160.656 215.77H156.821L160.617 210.935V210.05H155.424V211.037H159.245L155.372 215.885V216.757H160.656V215.77Z" fill="white"/>
</g>
</g>
<g filter="url(#filter1_dd_4003_11900)">
<rect x="80.7139" y="123.715" width="347" height="213" rx="14" fill="white" fill-opacity="0.01" shape-rendering="crispEdges"/>
</g>
<mask id="mask3_4003_11900" style="mask-type:luminance" maskUnits="userSpaceOnUse" x="79" y="122" width="350" height="216">
<path d="M414.069 122.715H94.3587C86.2706 122.715 79.7139 129.272 79.7139 137.36V323.166C79.7139 331.254 86.2706 337.811 94.3587 337.811H414.069C422.157 337.811 428.714 331.254 428.714 323.166V137.36C428.714 129.272 422.157 122.715 414.069 122.715Z" fill="white"/>
</mask>
<g mask="url(#mask3_4003_11900)">
<path d="M79.7158 325.554C79.7158 332.295 85.3646 337.81 92.2708 337.81H416.16C423.066 337.81 428.716 332.295 428.716 325.554V134.972C428.716 128.23 423.066 122.715 416.16 122.715H92.2708C85.3646 122.715 79.7158 128.23 79.7158 134.972V325.554Z" fill="#27BB86"/>
<g style="mix-blend-mode:overlay" opacity="0.65">
<path d="M5.84961 227.281C25.8717 199.168 52.5456 180.752 91.7058 176.5C212.993 163.328 319.537 267.89 438.759 210.539" stroke="url(#paint0_linear_4003_11900)" stroke-linecap="round"/>
<path d="M6.20312 234.878C26.2252 206.765 52.8992 188.35 92.0593 184.097C213.347 170.926 319.89 275.488 439.112 218.136" stroke="url(#paint1_linear_4003_11900)" stroke-linecap="round"/>
<path d="M5.43262 221.445C25.4547 193.332 52.1286 174.916 91.2888 170.664C212.576 157.492 319.12 262.055 438.342 204.703" stroke="url(#paint2_linear_4003_11900)" stroke-linecap="round"/>
<path d="M3.4834 214.379C23.5055 186.265 50.1794 167.85 89.3396 163.597C210.627 150.426 317.17 254.988 436.393 197.636" stroke="url(#paint3_linear_4003_11900)" stroke-linecap="round"/>
<path d="M2.65723 208.138C22.6793 180.025 49.3533 161.61 88.5135 157.357C209.801 144.185 316.344 248.748 435.566 191.396" stroke="url(#paint4_linear_4003_11900)" stroke-linecap="round"/>
<path d="M1.8291 201.9C21.8512 173.787 48.5251 155.371 87.6853 151.119C208.973 137.947 315.516 242.509 434.738 185.158" stroke="url(#paint5_linear_4003_11900)" stroke-linecap="round"/>
<path d="M10.2754 260.579C30.2975 232.466 56.9714 214.051 96.1316 209.798C217.419 196.627 323.962 301.189 443.185 243.837" stroke="url(#paint6_linear_4003_11900)" stroke-linecap="round"/>
<path d="M10.6289 268.178C30.651 240.064 57.3249 221.649 96.4851 217.396C217.773 204.225 324.316 308.787 443.538 251.435" stroke="url(#paint7_linear_4003_11900)" stroke-linecap="round"/>
<path d="M9.8584 254.744C29.8805 226.63 56.5544 208.215 95.7146 203.963C217.002 190.791 323.545 295.353 442.768 238.001" stroke="url(#paint8_linear_4003_11900)" stroke-linecap="round"/>
<path d="M7.90918 247.678C27.9312 219.564 54.6052 201.149 93.7654 196.896C215.053 183.725 321.596 288.287 440.818 230.935" stroke="url(#paint9_linear_4003_11900)" stroke-linecap="round"/>
<path d="M7.08301 241.437C27.1051 213.324 53.779 194.909 92.9392 190.656C214.227 177.484 320.77 282.047 439.992 224.695" stroke="url(#paint10_linear_4003_11900)" stroke-linecap="round"/>
<path d="M6.25488 235.199C26.2769 207.085 52.9509 188.67 92.1111 184.418C213.399 171.246 319.942 275.808 439.164 218.457" stroke="url(#paint11_linear_4003_11900)" stroke-linecap="round"/>
</g>
<path d="M107.714 309.916V300.715H108.944V308.839H113.532V309.916H107.714ZM119.614 308.455C119.614 308.955 119.652 309.493 119.717 309.916H118.577C118.55 309.686 118.533 309.455 118.525 309.224C118.115 309.711 117.372 310.031 116.5 310.031C115.283 310.031 114.283 309.301 114.283 308.096C114.283 306.763 115.334 306.199 116.833 305.905L118.499 305.572V305.162C118.499 304.418 117.961 304.098 117.141 304.098C116.257 304.098 115.77 304.47 115.681 305.187H114.553C114.655 303.765 115.77 303.086 117.205 303.086C118.691 303.086 119.615 303.765 119.615 304.995L119.614 308.455ZM118.499 307.635V306.469L117.141 306.75C116.116 306.956 115.437 307.237 115.437 308.045C115.437 308.698 115.924 309.095 116.654 309.095C117.641 309.095 118.499 308.493 118.499 307.635ZM122.17 306.571C122.17 308.096 122.99 309.044 124.182 309.044C125.104 309.044 125.655 308.455 125.848 307.622L126.873 308.096C126.553 309.211 125.579 310.057 124.182 310.057C122.311 310.057 121.017 308.634 121.017 306.571C121.017 304.495 122.311 303.086 124.182 303.086C125.579 303.086 126.527 303.893 126.847 305.008L125.847 305.508C125.655 304.687 125.105 304.085 124.182 304.085C122.99 304.085 122.17 305.033 122.17 306.571ZM128.136 309.916V300.715H129.289V304.124C129.511 303.8 129.809 303.535 130.158 303.354C130.507 303.173 130.895 303.081 131.288 303.086C132.71 303.086 133.518 304.072 133.518 305.495V309.916H132.364V305.802C132.364 304.867 131.967 304.162 130.967 304.162C130.134 304.162 129.289 304.803 129.289 305.918V309.916H128.134H128.136ZM136.522 300.715V309.916H135.368V300.715H136.522ZM143.278 308.455C143.278 308.955 143.316 309.493 143.38 309.916H142.24C142.214 309.686 142.197 309.455 142.189 309.224C141.779 309.711 141.035 310.031 140.164 310.031C138.947 310.031 137.947 309.301 137.947 308.096C137.947 306.763 138.997 306.199 140.497 305.905L142.163 305.572V305.162C142.163 304.418 141.625 304.098 140.805 304.098C139.92 304.098 139.434 304.47 139.344 305.187H138.216C138.319 303.765 139.434 303.086 140.869 303.086C142.355 303.086 143.278 303.765 143.278 304.995V308.455ZM142.163 307.635V306.469L140.805 306.75C139.78 306.956 139.1 307.237 139.1 308.045C139.1 308.698 139.587 309.095 140.318 309.095C141.304 309.095 142.163 308.493 142.163 307.635ZM145.142 309.916V303.214H146.295V304.124C146.517 303.799 146.816 303.535 147.165 303.354C147.513 303.173 147.902 303.081 148.295 303.086C149.716 303.086 150.524 304.072 150.524 305.495V309.916H149.37V305.802C149.37 304.867 148.973 304.162 147.974 304.162C147.141 304.162 146.295 304.803 146.295 305.918V309.916H145.142ZM155.129 309.916V300.715H158.525C160.473 300.715 161.511 301.574 161.511 303.111C161.511 304.29 160.793 304.88 160.088 305.123C161.126 305.405 161.818 306.212 161.818 307.378C161.818 308.98 160.652 309.916 158.794 309.916H155.129ZM156.321 304.662H158.422C159.652 304.662 160.332 304.188 160.332 303.214C160.332 302.227 159.652 301.753 158.422 301.753H156.321V304.662ZM156.321 305.713V308.878H158.743C159.973 308.878 160.639 308.237 160.639 307.289C160.639 306.353 159.973 305.713 158.743 305.713H156.321ZM166.734 303.188V304.354C166.549 304.317 166.36 304.3 166.171 304.303C165.197 304.303 164.415 305.072 164.415 306.251V309.916H163.262V303.214H164.414V304.354C164.709 303.675 165.363 303.163 166.272 303.163C166.452 303.163 166.618 303.175 166.734 303.188ZM173.496 306.571C173.496 308.647 172.214 310.057 170.382 310.057C168.549 310.057 167.268 308.647 167.268 306.571C167.268 304.495 168.549 303.086 170.382 303.086C172.214 303.086 173.496 304.495 173.496 306.571ZM168.434 306.571C168.434 308.096 169.203 309.07 170.382 309.07C171.561 309.07 172.33 308.096 172.33 306.571C172.33 305.033 171.56 304.06 170.382 304.06C169.203 304.06 168.434 305.033 168.434 306.571ZM178.028 303.214H179.002L180.386 308.211L181.783 303.214H182.936L180.898 309.916H179.886L178.489 304.944L177.093 309.916H176.08L174.043 303.214H175.235L176.645 308.199L178.028 303.214ZM184.06 309.916V303.214H185.213V304.124C185.435 303.8 185.734 303.535 186.082 303.354C186.431 303.173 186.819 303.081 187.212 303.086C188.635 303.086 189.442 304.072 189.442 305.495V309.916H188.289V305.802C188.289 304.867 187.891 304.162 186.892 304.162C186.059 304.162 185.213 304.803 185.213 305.918V309.916H184.06Z" fill="white"/>
<path fill-rule="evenodd" clip-rule="evenodd" d="M270.052 154.525C270.052 154.916 269.731 155.237 269.34 155.237H258.043C257.651 155.237 257.33 154.916 257.33 154.525C257.33 154.134 257.651 153.813 258.043 153.813H269.34C269.731 153.813 270.052 154.134 270.052 154.525ZM270.862 157.36C270.862 157.751 270.541 158.072 270.15 158.072H262.078C261.687 158.072 261.366 157.751 261.366 157.36C261.366 156.969 261.687 156.648 262.078 156.648H270.15C270.541 156.648 270.862 156.969 270.862 157.36ZM270.15 152.403H262.888C262.497 152.403 262.176 152.082 262.176 151.691C262.176 151.299 262.497 150.978 262.888 150.978H270.15C270.541 150.978 270.862 151.299 270.862 151.691C270.862 152.082 270.541 152.403 270.15 152.403ZM278.514 154.525C278.514 156.48 276.937 158.058 274.981 158.058C273.027 158.058 271.449 156.466 271.449 154.525C271.449 152.584 273.027 150.992 274.981 150.992C276.937 150.992 278.514 152.584 278.514 154.525ZM272.873 154.525C272.873 155.698 273.823 156.648 274.995 156.648C276.168 156.648 277.118 155.698 277.118 154.525C277.118 153.352 276.168 152.403 274.995 152.403C273.823 152.403 272.873 153.352 272.873 154.525ZM274.995 148.157C278.501 148.157 281.349 151.02 281.349 154.525C281.349 158.03 278.501 160.893 274.995 160.893H265.318C264.927 160.893 264.606 160.572 264.606 160.181C264.606 159.79 264.927 159.469 265.318 159.469H274.995C277.718 159.469 279.939 157.248 279.939 154.511C279.939 151.774 277.718 149.553 274.995 149.553H259.662C259.271 149.553 258.95 149.232 258.95 148.842C258.95 148.451 259.271 148.13 259.662 148.13H274.995V148.157ZM299.559 156.885V152.179C299.559 149.358 301.458 147.376 304.196 147.376C306.933 147.376 308.832 149.358 308.832 152.179V156.885C308.832 159.692 306.918 161.647 304.196 161.647C301.472 161.647 299.559 159.678 299.559 156.885ZM306.137 156.983V152.082C306.137 150.531 305.215 149.959 304.196 149.959C303.232 149.959 302.282 150.475 302.282 152.054V156.955C302.282 158.505 303.19 159.05 304.196 159.05C305.117 159.05 306.137 158.561 306.137 156.969V156.983ZM315.73 149.959C314.794 149.959 313.817 150.475 313.817 152.054V156.955C313.817 158.589 314.794 159.077 315.73 159.077C316.987 159.077 317.671 158.463 317.671 156.452V156.271H320.38C320.38 159.804 318.872 161.661 315.744 161.661C313.007 161.661 311.108 159.692 311.108 156.871V152.123C311.108 149.317 313.007 147.361 315.744 147.361C318.816 147.361 320.38 149.387 320.38 152.598H317.671V152.403C317.671 150.364 316.68 149.945 315.73 149.945V149.959ZM329.275 161.451L326.538 155.698H325.519V161.451H322.81V147.612H325.519V153.31H326.538L329.275 147.612H332.306L328.857 154.483L332.306 161.451H329.275ZM337.347 150.224V153.366H341.09V155.726H337.347V158.868H342.402V161.451H334.652V147.612H342.402V150.224H337.347ZM349.664 150.224V161.451H346.955V150.224H344.078V147.612H352.54V150.224H349.664ZM371.1 161.451V147.612H373.809V161.451H371.1ZM376.978 147.612H381.517C384.254 147.612 386.153 149.302 386.153 152.682V156.327C386.153 159.664 384.254 161.451 381.517 161.451H376.978V147.612ZM379.688 158.882H381.21C382.509 158.882 383.486 158.365 383.486 155.67V152.975C383.486 151.481 383.095 150.21 381.21 150.21H379.688V158.882ZM391.628 150.224V153.366H395.37V155.726H391.628V158.868H396.682V161.451H388.933V147.612H396.682V150.224H391.628ZM398.54 151.425C398.54 148.897 400.341 147.361 403.078 147.361C405.815 147.361 407.589 149.149 407.589 151.997H404.921C404.921 150.531 404.195 149.833 403.037 149.833C401.878 149.833 401.235 150.377 401.235 151.425C401.235 154.176 407.756 152.542 407.756 157.486C407.756 160.111 405.871 161.689 403.078 161.689C400.285 161.689 398.359 159.86 398.359 156.899H401.067C401.067 158.505 401.891 159.175 403.078 159.175C404.265 159.175 405.061 158.645 405.061 157.514C405.061 154.889 398.54 156.34 398.54 151.425ZM295.3 157.248L297.632 161.451H294.672L292.814 157.877L292.479 157.276H291.013V161.451H288.304V147.612H292.689C296.585 147.612 297.311 150.852 297.311 152.612C297.311 154.567 296.333 155.977 294.937 156.634C295.063 156.857 295.188 157.081 295.286 157.248H295.3ZM291.013 150.21V154.721H292.368C293.498 154.721 294.644 154.218 294.644 152.445C294.644 150.657 293.555 150.21 292.368 150.21H291.013ZM366.337 157.248L368.67 161.451H365.71L363.852 157.877L363.517 157.276H362.051V161.451H359.355V147.612H363.74C367.636 147.612 368.362 150.852 368.362 152.612C368.362 154.567 367.385 155.977 365.988 156.634C366.114 156.857 366.24 157.081 366.337 157.248ZM362.051 150.21V154.721H363.405C364.536 154.721 365.681 154.218 365.681 152.445C365.681 150.657 364.592 150.21 363.405 150.21H362.051Z" fill="white"/>
<path d="M372.185 295.143L367.31 318.562H361.389L366.265 295.143H372.185ZM396.739 310.275L399.874 301.448L401.615 310.275H396.739ZM403.356 318.562H408.755L404.053 295.143H399.003C397.958 295.143 396.913 295.863 396.565 296.944L387.858 318.562H393.953L395.172 315.139H402.66L403.356 318.562ZM388.032 310.816C388.032 304.691 379.848 304.33 379.848 301.628C380.022 300.367 381.067 299.646 382.286 299.646C384.201 299.466 386.291 299.827 388.032 300.727L389.077 295.683C387.336 294.963 385.42 294.602 383.679 294.602C377.932 294.602 373.753 297.845 373.753 302.349C373.753 305.772 376.713 307.573 378.803 308.654C381.067 309.735 381.937 310.456 381.763 311.536C381.763 313.158 380.022 313.878 378.28 313.878C376.191 313.878 374.101 313.338 372.185 312.437L371.141 317.481C373.23 318.382 375.494 318.742 377.584 318.742C384.027 318.923 388.032 315.68 388.032 310.816ZM363.827 295.143L354.423 318.562H348.154L343.452 299.827C343.452 298.926 342.756 298.205 342.059 297.845C340.318 296.944 338.402 296.224 336.313 295.863L336.487 295.143H346.413C347.806 295.143 348.851 296.224 349.025 297.485L351.463 310.996L357.732 295.143H363.827Z" fill="white"/>
</g>
<g filter="url(#filter2_dd_4003_11900)">
<rect x="80.7139" y="216.715" width="347" height="213" rx="14" fill="white" fill-opacity="0.01" shape-rendering="crispEdges"/>
</g>
<path d="M414.54 215.715H93.8876C86.0596 215.715 79.7139 222.061 79.7139 229.889V416.803C79.7139 424.631 86.0596 430.977 93.8876 430.977H414.54C422.368 430.977 428.714 424.631 428.714 416.803V229.889C428.714 222.061 422.368 215.715 414.54 215.715Z" fill="white"/>
<mask id="mask4_4003_11900" style="mask-type:alpha" maskUnits="userSpaceOnUse" x="79" y="215" width="350" height="216">
<path d="M414.544 215.715H93.8839C86.058 215.715 79.7139 222.059 79.7139 229.885V416.807C79.7139 424.633 86.058 430.977 93.8839 430.977H414.544C422.37 430.977 428.714 424.633 428.714 416.807V229.885C428.714 222.059 422.37 215.715 414.544 215.715Z" fill="black"/>
</mask>
<g mask="url(#mask4_4003_11900)">
<path d="M251.285 452.013C230.114 451.059 223.687 428.559 224.632 417.5C222.634 403.199 236.919 400.72 247.882 396.335C258.846 391.949 278.127 401.292 283.798 417.5C289.468 433.708 272.456 452.966 251.285 452.013Z" fill="#C9EBDA"/>
<path d="M191.619 212.855C162.83 194.445 136.659 187.332 93.04 194.863C71.6668 196.955 25.2615 228.329 65.124 318.297C79.9554 351.771 109.615 367.252 141.893 374.365C174.171 381.478 178.097 364.323 184.64 347.586C191.182 330.849 199.47 324.573 227.822 299.049C256.174 273.526 220.407 231.265 191.619 212.855Z" fill="#C9EBDA"/>
<path d="M262.361 320.502C273.797 311.179 279.452 301.705 279.325 283.904C280.05 275.347 268.404 253.986 220.802 260.207C203.091 262.521 193.027 272.488 186.871 284.345C180.715 296.202 188.844 299.513 196.553 303.802C204.262 308.091 206.673 311.976 216.919 325.687C227.166 339.397 250.926 329.825 262.361 320.502Z" fill="#C9EBDA"/>
<path fill-rule="evenodd" clip-rule="evenodd" d="M234.077 259.127C229.999 259.236 225.582 259.583 220.803 260.208C203.092 262.522 193.027 272.489 186.871 284.346C181.138 295.387 187.793 299.018 194.961 302.928C195.49 303.217 196.023 303.508 196.553 303.803C201.923 306.791 204.722 309.583 209.39 315.636C212.556 312.739 216.141 309.527 220.228 305.866C222.587 303.752 225.113 301.489 227.822 299.05C240.288 287.828 240.359 273.37 234.077 259.127Z" fill="#9ED9BA"/>
<path d="M411.87 359.487C423.021 371.117 433.829 376.441 453.194 374.741C462.571 374.78 484.801 360.232 473.856 308.964C469.783 289.888 458.052 279.808 444.607 274.146C431.161 268.485 428.269 277.624 424.277 286.391C420.284 295.158 416.267 298.124 402.242 310.479C388.217 322.833 400.719 347.856 411.87 359.487Z" fill="#C9EBDA"/>
<path d="M108.76 401.757H107.54V392.549H113.49V393.626H108.76V396.589H112.76V397.666H108.76V401.757ZM117.728 395.024V396.191C117.542 396.154 117.353 396.137 117.164 396.14C116.189 396.14 115.407 396.909 115.407 398.089V401.757H114.253V395.05H115.407V396.191C115.702 395.512 116.356 394.999 117.267 394.999C117.447 394.999 117.614 395.011 117.728 395.024ZM123.696 400.295C123.696 400.795 123.735 401.334 123.799 401.757H122.657C122.631 401.527 122.614 401.295 122.607 401.064C122.196 401.552 121.452 401.872 120.58 401.872C119.362 401.872 118.36 401.141 118.36 399.936C118.36 398.602 119.413 398.038 120.913 397.743L122.58 397.41V396.999C122.58 396.255 122.042 395.935 121.22 395.935C120.336 395.935 119.849 396.307 119.759 397.025H118.631C118.733 395.601 119.849 394.922 121.285 394.922C122.773 394.922 123.695 395.601 123.695 396.833L123.696 400.295ZM122.58 399.474V398.307L121.22 398.589C120.195 398.795 119.516 399.077 119.516 399.885C119.516 400.539 120.003 400.936 120.734 400.936C121.721 400.936 122.58 400.334 122.58 399.474ZM125.562 401.757V395.05H126.716V395.96C126.938 395.636 127.237 395.371 127.586 395.19C127.935 395.009 128.323 394.917 128.716 394.922C130.14 394.922 130.948 395.909 130.948 397.333V401.757H129.794V397.64C129.794 396.704 129.396 395.999 128.396 395.999C127.562 395.999 126.716 396.64 126.716 397.756V401.757H125.562ZM133.954 392.549V398.179L136.93 395.05H138.366L135.75 397.692L138.584 401.757H137.237L134.929 398.525L133.954 399.513V401.757H132.8V392.549H133.954ZM147.358 401.757H146.37L143.56 394.178V401.757H142.408V392.549H144.088L146.884 400.116L149.692 392.549H151.321V401.757H150.178V394.178L147.358 401.757ZM153.994 398.41C153.994 399.936 154.814 400.885 156.007 400.885C156.931 400.885 157.482 400.295 157.674 399.461L158.7 399.936C158.38 401.052 157.405 401.898 156.007 401.898C154.135 401.898 152.84 400.475 152.84 398.41C152.84 396.332 154.135 394.922 156.007 394.922C157.405 394.922 158.354 395.73 158.675 396.845L157.675 397.345C157.482 396.525 156.931 395.922 156.007 395.922C154.815 395.922 153.994 396.871 153.994 398.41ZM167.287 392.549V401.757H166.222L161.195 394.345V401.757H160.014V392.549H161.31L166.093 399.667V392.549H167.287ZM174.091 400.295C174.091 400.795 174.13 401.334 174.194 401.757H173.052C173.026 401.527 173.009 401.295 173.001 401.064C172.591 401.552 171.847 401.872 170.975 401.872C169.757 401.872 168.755 401.141 168.755 399.936C168.755 398.602 169.808 398.038 171.308 397.743L172.975 397.41V396.999C172.975 396.255 172.437 395.935 171.615 395.935C170.731 395.935 170.244 396.307 170.154 397.025H169.026C169.128 395.601 170.244 394.922 171.68 394.922C173.168 394.922 174.09 395.601 174.09 396.833L174.091 400.295ZM172.975 399.474V398.307L171.615 398.589C170.59 398.795 169.91 399.077 169.91 399.885C169.91 400.539 170.398 400.936 171.129 400.936C172.116 400.936 172.975 400.334 172.975 399.474ZM177.111 397.743V401.757H175.957V395.05H177.111V395.96C177.318 395.635 177.604 395.37 177.943 395.188C178.282 395.006 178.662 394.914 179.047 394.922C179.945 394.922 180.573 395.371 180.907 396.063C181.142 395.711 181.46 395.422 181.834 395.223C182.208 395.024 182.625 394.92 183.048 394.922C184.433 394.922 185.267 395.909 185.267 397.333V401.757H184.113V397.64C184.113 396.704 183.728 395.999 182.779 395.999C182.01 395.999 181.189 396.653 181.189 397.743V401.757H180.035V397.64C180.035 396.704 179.65 395.999 178.701 395.999C177.931 395.999 177.111 396.653 177.111 397.743ZM191.962 400.295C191.962 400.795 192.001 401.334 192.065 401.757H190.924C190.897 401.527 190.88 401.295 190.872 401.064C190.462 401.552 189.718 401.872 188.846 401.872C187.628 401.872 186.627 401.141 186.627 399.936C186.627 398.602 187.679 398.038 189.179 397.743L190.847 397.41V396.999C190.847 396.255 190.308 395.935 189.487 395.935C188.602 395.935 188.115 396.307 188.025 397.025H186.897C186.999 395.601 188.115 394.922 189.551 394.922C191.039 394.922 191.962 395.601 191.962 396.833V400.295ZM190.847 399.474V398.307L189.487 398.589C188.461 398.795 187.782 399.077 187.782 399.885C187.782 400.539 188.269 400.936 189 400.936C189.987 400.936 190.847 400.334 190.847 399.474ZM197.303 395.024V396.191C197.117 396.154 196.928 396.137 196.739 396.14C195.764 396.14 194.982 396.909 194.982 398.089V401.757H193.828V395.05H194.982V396.191C195.277 395.512 195.931 394.999 196.841 394.999C197.021 394.999 197.188 395.011 197.303 395.024ZM203.271 400.295C203.271 400.795 203.31 401.334 203.374 401.757H202.232C202.206 401.527 202.189 401.295 202.181 401.064C201.771 401.552 201.027 401.872 200.155 401.872C198.937 401.872 197.936 401.141 197.936 399.936C197.936 398.602 198.988 398.038 200.488 397.743L202.155 397.41V396.999C202.155 396.255 201.617 395.935 200.796 395.935C199.911 395.935 199.424 396.307 199.334 397.025H198.206C198.308 395.601 199.424 394.922 200.86 394.922C202.348 394.922 203.271 395.601 203.271 396.833V400.295ZM202.155 399.474V398.307L200.796 398.589C199.77 398.795 199.09 399.077 199.09 399.885C199.09 400.539 199.578 400.936 200.309 400.936C201.296 400.936 202.155 400.334 202.155 399.474Z" fill="black"/>
<path d="M372.413 388.275L367.534 411.713H361.608L366.488 388.275H372.413ZM396.986 403.419L400.123 394.585L401.866 403.419H396.986ZM403.609 411.713H409.011L404.306 388.275H399.252C398.206 388.275 397.16 388.996 396.812 390.078L388.098 411.713H394.198L395.418 408.287H402.911L403.609 411.713ZM388.272 403.96C388.272 397.83 380.082 397.47 380.082 394.765C380.256 393.503 381.301 392.782 382.521 392.782C384.438 392.602 386.53 392.962 388.272 393.864L389.318 388.816C387.575 388.095 385.658 387.734 383.916 387.734C378.164 387.734 373.982 390.979 373.982 395.487C373.982 398.912 376.945 400.715 379.036 401.797C381.301 402.878 382.173 403.6 381.999 404.681C381.999 406.304 380.256 407.025 378.513 407.025C376.422 407.025 374.33 406.484 372.413 405.583L371.368 410.631C373.459 411.532 375.725 411.893 377.816 411.893C384.264 412.073 388.272 408.828 388.272 403.96ZM364.048 388.275L354.637 411.713H348.364L343.658 392.962C343.658 392.061 342.961 391.34 342.264 390.979C340.521 390.078 338.604 389.357 336.513 388.996L336.687 388.275H346.621C348.015 388.275 349.061 389.357 349.235 390.619L351.675 404.14L357.949 388.275H364.048Z" fill="black"/>
</g>
<path fill-rule="evenodd" clip-rule="evenodd" d="M375.399 249.875C375.399 250.691 375.52 251.285 375.763 251.657C376.007 252.03 376.442 252.216 377.067 252.216V252.774C376.528 252.721 375.989 252.694 375.451 252.694C373.903 252.694 372.635 252.818 371.645 253.067V250.78C371.053 252.375 369.925 253.173 368.256 253.173C366.622 253.173 365.319 252.57 364.346 251.364C363.39 250.141 362.921 248.306 362.938 245.86C362.938 244.3 363.182 242.988 363.668 241.924C364.172 240.843 364.858 240.037 365.727 239.505C366.614 238.955 367.621 238.68 368.751 238.68C370.02 238.68 370.984 239.017 371.645 239.691V235.17C371.645 234.354 371.514 233.76 371.253 233.389C371.01 233.016 370.584 232.83 369.976 232.83V232.271C370.532 232.325 371.071 232.351 371.593 232.351C373.105 232.351 374.374 232.226 375.399 231.979V249.875ZM369.325 252.03C369.898 252.03 370.402 251.817 370.837 251.391C371.288 250.966 371.558 250.39 371.645 249.663V240.355C371.211 239.753 370.576 239.451 369.741 239.451C368.821 239.451 368.108 239.992 367.604 241.074C367.1 242.155 366.857 243.768 366.875 245.914C366.857 248.077 367.057 249.636 367.473 250.593C367.908 251.551 368.525 252.03 369.325 252.03ZM317.648 239.043C318.552 239.043 319.352 239.298 320.047 239.807C320.759 240.317 321.315 241.081 321.715 242.099C322.115 243.118 322.315 244.364 322.315 245.838C322.315 248.438 321.767 250.44 320.672 251.84C319.595 253.224 318.127 253.914 316.267 253.914C315.746 253.914 315.25 253.842 314.781 253.696C314.329 253.55 313.938 253.332 313.608 253.042V255.77C313.608 256.571 313.799 257.125 314.181 257.435C314.564 257.743 315.155 257.898 315.954 257.898V258.471L315.25 258.444C313.322 258.389 312.096 258.362 311.575 258.362C311.054 258.362 309.958 258.399 308.29 258.471V257.898C308.863 257.898 309.263 257.762 309.489 257.489C309.732 257.234 309.854 256.753 309.854 256.042V242.399C309.854 241.563 309.724 240.954 309.463 240.571C309.22 240.19 308.794 239.998 308.186 239.998V239.425C308.742 239.48 309.281 239.507 309.802 239.507C311.314 239.507 312.582 239.38 313.608 239.126V241.635C313.973 240.799 314.503 240.162 315.198 239.725C315.893 239.27 316.71 239.043 317.648 239.043ZM315.25 253.178C316.362 253.178 317.162 252.604 317.648 251.459C318.135 250.294 318.378 248.603 318.378 246.383C318.378 244.164 318.179 242.581 317.779 241.635C317.397 240.69 316.841 240.216 316.11 240.216C315.519 240.216 314.99 240.425 314.521 240.844C314.068 241.263 313.765 241.845 313.608 242.59V252.441C314.025 252.932 314.573 253.178 315.25 253.178ZM331.147 239.043C333.357 239.043 335.087 239.614 336.337 240.754C337.586 241.878 338.211 243.667 338.211 246.122C338.211 248.575 337.586 250.364 336.337 251.488C335.087 252.611 333.357 253.173 331.147 253.173C328.955 253.173 327.225 252.611 325.955 251.488C324.707 250.364 324.081 248.575 324.081 246.122C324.081 243.667 324.707 241.878 325.955 240.754C327.225 239.614 328.955 239.043 331.147 239.043ZM331.147 239.562C330.32 239.562 329.656 240.107 329.157 241.195C328.676 242.266 328.435 243.909 328.435 246.122C328.435 248.333 328.676 249.976 329.157 251.047C329.656 252.119 330.32 252.654 331.147 252.654C331.992 252.654 332.656 252.127 333.136 251.073C333.616 250.002 333.857 248.351 333.857 246.122C333.857 243.891 333.607 242.24 333.108 241.169C332.627 240.097 331.972 239.562 331.147 239.562ZM359.142 239.151C360.051 239.151 360.727 239.124 361.171 239.07V239.613C360.798 239.722 360.46 239.948 360.157 240.293C359.854 240.637 359.587 241.189 359.357 241.95L355.806 253.173C355.611 253.154 355.317 253.146 354.925 253.146C354.551 253.146 354.267 253.154 354.071 253.173L350.44 243.091L347.478 253.173C347.3 253.154 347.015 253.146 346.623 253.146C346.232 253.146 345.938 253.154 345.742 253.173L341.525 241.162C341.312 240.529 341.072 240.121 340.805 239.939C340.538 239.741 340.261 239.64 339.977 239.64V239.07C341.134 239.179 342.397 239.233 343.767 239.233C344.657 239.233 345.814 239.179 347.238 239.07V239.64C346.65 239.64 346.224 239.686 345.956 239.777C345.707 239.867 345.582 240.085 345.582 240.428C345.582 240.664 345.627 240.909 345.716 241.162L348.118 248.852L351.028 239.043L352.016 239.07L352.976 239.043L356.447 249.423L358.128 243.961C358.378 243.11 358.502 242.421 358.502 241.896C358.502 240.483 357.799 239.722 356.393 239.613V239.07C357.23 239.124 358.146 239.151 359.142 239.151ZM391.186 249.966C391.186 250.766 391.317 251.349 391.575 251.713C391.853 252.078 392.315 252.261 392.962 252.261V252.808C392.388 252.756 391.816 252.73 391.242 252.73C389.633 252.73 388.284 252.851 387.192 253.095V250.748C386.342 252.365 384.853 253.173 382.726 253.173C381.339 253.173 380.331 252.835 379.702 252.156C379.406 251.826 379.185 251.4 379.037 250.878C378.907 250.34 378.843 249.636 378.843 248.767V242.171C378.843 241.372 378.704 240.79 378.426 240.425C378.168 240.06 377.714 239.877 377.067 239.877V239.329C377.64 239.382 378.213 239.408 378.787 239.408C380.396 239.408 381.745 239.286 382.837 239.043V249.836C382.837 250.566 382.947 251.114 383.169 251.478C383.41 251.844 383.855 252.026 384.501 252.026C385.241 252.026 385.87 251.739 386.387 251.165C386.924 250.575 387.192 249.853 387.192 249.002V242.171C387.192 241.372 387.054 240.79 386.776 240.425C386.517 240.06 386.064 239.877 385.417 239.877V239.329C386.008 239.382 386.582 239.408 387.137 239.408C388.746 239.408 390.095 239.286 391.186 239.043V249.966ZM406.437 239.762C406.003 239.283 405.358 239.043 404.505 239.043C403.653 239.043 402.885 239.283 402.203 239.762C401.521 240.223 401 240.835 400.641 241.598V239.123C399.56 239.371 398.177 239.495 396.491 239.495C395.923 239.495 395.335 239.469 394.728 239.415V239.974C395.411 239.974 395.885 240.161 396.15 240.533C396.415 240.906 396.547 241.5 396.547 242.316V250.697C396.547 251.425 396.415 251.931 396.15 252.215C395.885 252.48 395.411 252.614 394.728 252.614V253.173C394.956 253.173 395.145 253.163 395.297 253.146C397.115 253.093 398.281 253.066 398.792 253.066C399.437 253.066 400.725 253.093 402.658 253.146C402.829 253.163 403.046 253.173 403.312 253.173V252.614C402.384 252.614 401.701 252.454 401.265 252.135C400.848 251.815 400.641 251.248 400.641 250.431V243.38C400.641 242.636 400.886 241.908 401.379 241.198C401.891 240.489 402.506 240.081 403.226 239.974C403.341 239.939 403.491 239.921 403.681 239.921C403.833 239.921 403.947 239.93 404.022 239.948C403.189 240.48 402.772 241.172 402.772 242.023C402.772 242.538 402.961 242.955 403.34 243.274C403.72 243.576 404.231 243.727 404.875 243.727C405.538 243.727 406.069 243.523 406.466 243.114C406.883 242.689 407.092 242.147 407.092 241.491C407.092 240.818 406.874 240.24 406.437 239.762Z" fill="black"/>
<defs>
<filter id="filter0_dd_4003_11900" x="0.713867" y="0.714844" width="507" height="373" filterUnits="userSpaceOnUse" color-interpolation-filters="sRGB">
<feFlood flood-opacity="0" result="BackgroundImageFix"/>
<feColorMatrix in="SourceAlpha" type="matrix" values="0 0 0 0 0 0 0 0 0 0 0 0 0 0 0 0 0 0 127 0" result="hardAlpha"/>
<feMorphology radius="30" operator="erode" in="SourceAlpha" result="effect1_dropShadow_4003_11900"/>
<feOffset dy="30"/>
<feGaussianBlur stdDeviation="30"/>
<feComposite in2="hardAlpha" operator="out"/>
<feColorMatrix type="matrix" values="0 0 0 0 0 0 0 0 0 0 0 0 0 0 0 0 0 0 0.3 0"/>
<feBlend mode="normal" in2="BackgroundImageFix" result="effect1_dropShadow_4003_11900"/>
<feColorMatrix in="SourceAlpha" type="matrix" values="0 0 0 0 0 0 0 0 0 0 0 0 0 0 0 0 0 0 127 0" result="hardAlpha"/>
<feMorphology radius="20" operator="erode" in="SourceAlpha" result="effect2_dropShadow_4003_11900"/>
<feOffset dy="50"/>
<feGaussianBlur stdDeviation="50"/>
<feComposite in2="hardAlpha" operator="out"/>
<feColorMatrix type="matrix" values="0 0 0 0 0.196078 0 0 0 0 0.196078 0 0 0 0 0.364706 0 0 0 0.25 0"/>
<feBlend mode="normal" in2="effect1_dropShadow_4003_11900" result="effect2_dropShadow_4003_11900"/>
<feBlend mode="normal" in="SourceGraphic" in2="effect2_dropShadow_4003_11900" result="shape"/>
</filter>
<filter id="filter1_dd_4003_11900" x="0.713867" y="93.7148" width="507" height="373" filterUnits="userSpaceOnUse" color-interpolation-filters="sRGB">
<feFlood flood-opacity="0" result="BackgroundImageFix"/>
<feColorMatrix in="SourceAlpha" type="matrix" values="0 0 0 0 0 0 0 0 0 0 0 0 0 0 0 0 0 0 127 0" result="hardAlpha"/>
<feMorphology radius="30" operator="erode" in="SourceAlpha" result="effect1_dropShadow_4003_11900"/>
<feOffset dy="30"/>
<feGaussianBlur stdDeviation="30"/>
<feComposite in2="hardAlpha" operator="out"/>
<feColorMatrix type="matrix" values="0 0 0 0 0 0 0 0 0 0 0 0 0 0 0 0 0 0 0.3 0"/>
<feBlend mode="normal" in2="BackgroundImageFix" result="effect1_dropShadow_4003_11900"/>
<feColorMatrix in="SourceAlpha" type="matrix" values="0 0 0 0 0 0 0 0 0 0 0 0 0 0 0 0 0 0 127 0" result="hardAlpha"/>
<feMorphology radius="20" operator="erode" in="SourceAlpha" result="effect2_dropShadow_4003_11900"/>
<feOffset dy="50"/>
<feGaussianBlur stdDeviation="50"/>
<feComposite in2="hardAlpha" operator="out"/>
<feColorMatrix type="matrix" values="0 0 0 0 0.196078 0 0 0 0 0.196078 0 0 0 0 0.364706 0 0 0 0.25 0"/>
<feBlend mode="normal" in2="effect1_dropShadow_4003_11900" result="effect2_dropShadow_4003_11900"/>
<feBlend mode="normal" in="SourceGraphic" in2="effect2_dropShadow_4003_11900" result="shape"/>
</filter>
<filter id="filter2_dd_4003_11900" x="0.713867" y="186.715" width="507" height="373" filterUnits="userSpaceOnUse" color-interpolation-filters="sRGB">
<feFlood flood-opacity="0" result="BackgroundImageFix"/>
<feColorMatrix in="SourceAlpha" type="matrix" values="0 0 0 0 0 0 0 0 0 0 0 0 0 0 0 0 0 0 127 0" result="hardAlpha"/>
<feMorphology radius="30" operator="erode" in="SourceAlpha" result="effect1_dropShadow_4003_11900"/>
<feOffset dy="30"/>
<feGaussianBlur stdDeviation="30"/>
<feComposite in2="hardAlpha" operator="out"/>
<feColorMatrix type="matrix" values="0 0 0 0 0 0 0 0 0 0 0 0 0 0 0 0 0 0 0.3 0"/>
<feBlend mode="normal" in2="BackgroundImageFix" result="effect1_dropShadow_4003_11900"/>
<feColorMatrix in="SourceAlpha" type="matrix" values="0 0 0 0 0 0 0 0 0 0 0 0 0 0 0 0 0 0 127 0" result="hardAlpha"/>
<feMorphology radius="20" operator="erode" in="SourceAlpha" result="effect2_dropShadow_4003_11900"/>
<feOffset dy="50"/>
<feGaussianBlur stdDeviation="50"/>
<feComposite in2="hardAlpha" operator="out"/>
<feColorMatrix type="matrix" values="0 0 0 0 0.196078 0 0 0 0 0.196078 0 0 0 0 0.364706 0 0 0 0.25 0"/>
<feBlend mode="normal" in2="effect1_dropShadow_4003_11900" result="effect2_dropShadow_4003_11900"/>
<feBlend mode="normal" in="SourceGraphic" in2="effect2_dropShadow_4003_11900" result="shape"/>
</filter>
<linearGradient id="paint0_linear_4003_11900" x1="858.258" y1="92.5618" x2="847.146" y2="296.544" gradientUnits="userSpaceOnUse">
<stop offset="0.614583" stop-color="#27BB86"/>
<stop offset="1" stop-color="white"/>
</linearGradient>
<linearGradient id="paint1_linear_4003_11900" x1="858.612" y1="100.159" x2="847.499" y2="304.142" gradientUnits="userSpaceOnUse">
<stop offset="0.614583" stop-color="#27BB86"/>
<stop offset="1" stop-color="white"/>
</linearGradient>
<linearGradient id="paint2_linear_4003_11900" x1="857.841" y1="86.7259" x2="846.729" y2="290.709" gradientUnits="userSpaceOnUse">
<stop offset="0.614583" stop-color="#27BB86"/>
<stop offset="1" stop-color="white"/>
</linearGradient>
<linearGradient id="paint3_linear_4003_11900" x1="855.892" y1="79.6595" x2="844.78" y2="283.642" gradientUnits="userSpaceOnUse">
<stop offset="0.614583" stop-color="#27BB86"/>
<stop offset="1" stop-color="white"/>
</linearGradient>
<linearGradient id="paint4_linear_4003_11900" x1="855.066" y1="73.4192" x2="843.953" y2="277.402" gradientUnits="userSpaceOnUse">
<stop offset="0.614583" stop-color="#27BB86"/>
<stop offset="1" stop-color="white"/>
</linearGradient>
<linearGradient id="paint5_linear_4003_11900" x1="854.238" y1="67.181" x2="843.125" y2="271.163" gradientUnits="userSpaceOnUse">
<stop offset="0.614583" stop-color="#27BB86"/>
<stop offset="1" stop-color="white"/>
</linearGradient>
<linearGradient id="paint6_linear_4003_11900" x1="862.684" y1="125.861" x2="851.572" y2="329.843" gradientUnits="userSpaceOnUse">
<stop offset="0.614583" stop-color="#27BB86"/>
<stop offset="1" stop-color="white"/>
</linearGradient>
<linearGradient id="paint7_linear_4003_11900" x1="863.037" y1="133.458" x2="851.925" y2="337.441" gradientUnits="userSpaceOnUse">
<stop offset="0.614583" stop-color="#27BB86"/>
<stop offset="1" stop-color="white"/>
</linearGradient>
<linearGradient id="paint8_linear_4003_11900" x1="862.267" y1="120.025" x2="851.155" y2="324.007" gradientUnits="userSpaceOnUse">
<stop offset="0.614583" stop-color="#27BB86"/>
<stop offset="1" stop-color="white"/>
</linearGradient>
<linearGradient id="paint9_linear_4003_11900" x1="860.318" y1="112.958" x2="849.205" y2="316.941" gradientUnits="userSpaceOnUse">
<stop offset="0.614583" stop-color="#27BB86"/>
<stop offset="1" stop-color="white"/>
</linearGradient>
<linearGradient id="paint10_linear_4003_11900" x1="859.492" y1="106.718" x2="848.379" y2="310.701" gradientUnits="userSpaceOnUse">
<stop offset="0.614583" stop-color="#27BB86"/>
<stop offset="1" stop-color="white"/>
</linearGradient>
<linearGradient id="paint11_linear_4003_11900" x1="858.663" y1="100.48" x2="847.551" y2="304.462" gradientUnits="userSpaceOnUse">
<stop offset="0.614583" stop-color="#27BB86"/>
<stop offset="1" stop-color="white"/>
</linearGradient>
</defs>
</svg>
