<svg width="79" height="79" viewBox="0 0 79 79" fill="none" xmlns="http://www.w3.org/2000/svg">
<rect x="0.642578" y="1.39258" width="77" height="77" rx="7.5" fill="#F6F9FC"/>
<rect x="0.642578" y="1.39258" width="77" height="77" rx="7.5" stroke="#C4CCD8"/>
<path d="M33.744 27.4286C34.0491 25.9934 35.488 24.8281 36.9554 24.8281H54.6677C56.135 24.8281 57.0786 25.9934 56.7735 27.4286L51.2903 53.2249C51.0869 54.1818 50.1276 54.9586 49.1495 54.9586H27.9121L33.744 27.4286Z" stroke="#C4CCD8"/>
<path d="M21.5104 41.6083C21.2054 40.1731 22.1489 39.0078 23.6162 39.0078H41.3285C42.7959 39.0078 44.2348 40.1731 44.5399 41.6083L47.0092 53.2256C47.2126 54.1824 48.1719 54.9592 49.1502 54.9592H26.1206C25.1424 54.9592 24.1831 54.1824 23.9798 53.2256L21.5104 41.6083Z" stroke="#C4CCD8"/>
</svg>
