<svg width="79" height="79" viewBox="0 0 79 79" fill="none" xmlns="http://www.w3.org/2000/svg">
<rect x="0.642578" y="1.39258" width="77" height="77" rx="7.5" fill="#F6F9FC"/>
<rect x="0.642578" y="1.39258" width="77" height="77" rx="7.5" stroke="#C4CCD8"/>
<path d="M39.5971 22.4375C40.4843 22.4375 41.2952 22.9393 41.691 23.7332L48.9697 38.2905L56.6374 53.6314C57.0007 54.3573 56.9622 55.2197 56.5357 55.9104C56.2229 56.4169 55.734 56.7784 55.1755 56.9352L55.0215 56.9726C54.9178 56.9943 54.8121 57.0091 54.705 57.0164L54.5435 57.0221L39.5971 54.0501L30.2246 38.2905L37.5032 23.7332C37.8991 22.9393 38.71 22.4375 39.5971 22.4375Z" stroke="#C4CCD8"/>
<path d="M39.5955 22.4375C40.4827 22.4375 41.2935 22.9393 41.6894 23.7332L48.9681 38.2905L39.5955 54.0501L24.6492 57.0221C23.8373 57.0221 23.0836 56.6012 22.657 55.9104C22.2305 55.2197 22.192 54.3573 22.5553 53.6314L30.223 38.2905L37.5016 23.7332C37.8975 22.9393 38.7083 22.4375 39.5955 22.4375Z" stroke="#C4CCD8"/>
</svg>
