<svg width="43" height="43" viewBox="0 0 43 43" fill="none" xmlns="http://www.w3.org/2000/svg">
<rect x="0.490234" y="0.490234" width="41.55" height="41.55" rx="7.5" fill="#F6F9FC"/>
<rect x="0.490234" y="0.490234" width="41.55" height="41.55" rx="7.5" stroke="#C4CCD8"/>
<path d="M26.833 16.4475L22.7229 29.0003L22.7126 29.0472L22.7 29.0942L22.6848 29.1388C22.6809 29.1524 22.6763 29.1657 22.6711 29.1788L22.6387 29.257L22.6009 29.3327L22.5888 29.3542L22.5464 29.4252L22.4989 29.4927L22.4836 29.5127L22.4306 29.5759L22.3739 29.6358L22.3602 29.6466C22.3203 29.6857 22.2775 29.7217 22.2322 29.7543L22.1579 29.8015L22.0798 29.842L22.0646 29.8512L21.9893 29.8849L21.9122 29.9143H21.8894L21.8093 29.9373C21.7956 29.9401 21.7861 29.924 21.7952 29.9134L21.8103 29.8956C22.0047 29.6468 22.0948 29.3305 22.0587 29.0143C22.0223 28.6954 21.8482 28.4892 21.5971 28.3044L21.5267 28.2545L16.3888 24.5174L16.3228 24.4658C16.2993 24.4461 16.2767 24.4257 16.255 24.4045C16.2504 24.4 16.2454 24.395 16.2403 24.3899C16.2253 24.3748 16.2109 24.3595 16.197 24.3438L16.1779 24.3218C16.1665 24.3084 16.1557 24.2951 16.1452 24.2815C16.1373 24.2714 16.1294 24.2608 16.1216 24.2501L16.1084 24.2315L16.0957 24.213C16.0887 24.2025 16.0817 24.1918 16.0749 24.1809C16.0669 24.1681 16.0592 24.1552 16.0517 24.1421C16.0466 24.1333 16.0417 24.1244 16.0369 24.1155C16.0279 24.099 16.0193 24.0822 16.0112 24.0652L15.9987 24.0385C15.9922 24.024 15.9858 24.0092 15.9797 23.9942C15.9756 23.984 15.9717 23.9739 15.9679 23.9639C15.9613 23.946 15.9549 23.9278 15.9491 23.9095C15.9466 23.9017 15.9442 23.8941 15.942 23.8865C15.9369 23.8697 15.9322 23.8526 15.9279 23.8354L15.9203 23.8035C15.9169 23.7885 15.9139 23.7735 15.9111 23.7584L15.9053 23.7237C15.8983 23.6787 15.8939 23.6333 15.8921 23.5878C15.8906 23.5516 15.8908 23.5152 15.8926 23.4789C15.8956 23.4222 15.902 23.3683 15.9121 23.3148C15.915 23.2996 15.9182 23.2842 15.9217 23.269C15.9244 23.2575 15.9272 23.2461 15.9301 23.2348L15.9415 23.194C15.9457 23.18 15.9502 23.166 15.9549 23.152L15.9581 23.1427C15.9753 23.0217 16.0103 22.9019 16.064 22.7873L16.1078 22.7024L19.6278 16.4282M26.833 16.4475L26.8351 16.4462C26.998 15.9462 26.819 15.3982 26.3923 15.0907L23.2189 12.8074C22.9414 12.6079 22.5925 12.5352 22.2585 12.6072L22.1686 12.6302C21.8731 12.7181 21.621 12.9161 21.4659 13.1852L19.6256 16.4279M26.833 16.4475L26.8406 16.4281" stroke="#C4CCD8" stroke-width="1.83333"/>
<path d="M29.2444 16.4277H13.2866C12.6189 16.4277 12.0776 16.969 12.0776 17.6367V28.7588C12.0776 29.4265 12.6189 29.9677 13.2866 29.9677H29.2444C29.9121 29.9677 30.4534 29.4265 30.4534 28.7588V17.6367C30.4534 16.969 29.9121 16.4277 29.2444 16.4277Z" stroke="#C4CCD8" stroke-width="1.83333"/>
</svg>
