<svg width="44" height="43" viewBox="0 0 44 43" fill="none" xmlns="http://www.w3.org/2000/svg">
<rect x="0.960449" y="0.490234" width="41.55" height="41.55" rx="7.5" fill="#F6F9FC"/>
<rect x="0.960449" y="0.490234" width="41.55" height="41.55" rx="7.5" stroke="#C4CCD8"/>
<path d="M26.0875 18.604C26.0875 18.4311 26.0517 18.26 25.9824 18.102L24.0861 13.7767C23.8904 13.3305 23.4537 13.043 22.9719 13.043H13.2834C12.6099 13.043 12.064 13.5963 12.064 14.2788V22.9293C12.064 23.6118 12.6099 24.1651 13.2834 24.1651H22.9719C23.4537 24.1651 23.8904 23.8776 24.0861 23.4313L25.9824 19.1061C26.0517 18.9481 26.0875 18.777 26.0875 18.604Z" stroke="#C4CCD8" stroke-width="1.83333"/>
<path d="M17.3833 23.9244C17.3833 24.0973 17.4191 24.2684 17.4885 24.4264L19.3847 28.7517C19.5805 29.1979 20.0171 29.4854 20.499 29.4854H30.1874C30.8609 29.4854 31.4069 28.9321 31.4069 28.2496V19.5991C31.4069 18.9166 30.8609 18.3633 30.1874 18.3633H20.499C20.0171 18.3633 19.5805 18.6508 19.3847 19.0971L17.4885 23.4223C17.4191 23.5803 17.3833 23.7514 17.3833 23.9244Z" stroke="#C4CCD8" stroke-width="1.83333"/>
</svg>
