<svg width="44" height="43" viewBox="0 0 44 43" fill="none" xmlns="http://www.w3.org/2000/svg">
<rect x="0.960449" y="0.490234" width="41.55" height="41.55" rx="7.5" fill="#F6F9FC"/>
<rect x="0.960449" y="0.490234" width="41.55" height="41.55" rx="7.5" stroke="#C4CCD8"/>
<path d="M23.6479 18.3858L18.9358 19.4113L13.0457 20.6322C12.4566 20.7787 12.064 21.267 12.064 21.853V29.7153C12.064 30.399 12.6039 30.9361 13.2911 30.9361H25.1204V19.6067C25.1204 18.8253 24.4332 18.2393 23.6479 18.3858Z" stroke="#C4CCD8" stroke-width="1.83333"/>
<path d="M29.8854 11.6161L19.3323 13.8435C18.7432 13.9888 18.3506 14.473 18.3506 15.0541V19.4605V30.9366H30.1799C30.8671 30.8397 31.407 30.3071 31.407 29.6292V12.8267C31.407 12.0519 30.6707 11.4708 29.8854 11.6161Z" stroke="#C4CCD8" stroke-width="1.83333"/>
</svg>
