<svg width="20" height="21" viewBox="0 0 20 21" fill="none" xmlns="http://www.w3.org/2000/svg">
<path d="M17.305 6.14092C17.1626 5.90675 16.9488 5.72447 16.695 5.62092L4.27004 0.600918C4.07413 0.521063 3.86154 0.490812 3.65113 0.512851C3.44073 0.534891 3.23902 0.608537 3.06391 0.727254C2.8888 0.845971 2.74572 1.00609 2.64735 1.19338C2.54898 1.38068 2.49838 1.58937 2.50004 1.80092V8.00092C2.50004 8.52592 2.82004 9.00092 3.30504 9.20092L6.52504 10.5009L17.305 14.8609C17.435 14.6609 17.505 14.4209 17.5 14.1809V6.82092C17.5 6.58092 17.435 6.34092 17.305 6.13592V6.14092Z" fill="url(#paint0_linear_4003_614)"/>
<path d="M17.315 6.14062L6.53001 10.5006L3.30501 11.8006C3.06638 11.8974 2.86219 12.0635 2.71872 12.2773C2.57525 12.4912 2.49908 12.7431 2.50001 13.0006V19.2106C2.5004 19.4213 2.55238 19.6287 2.65143 19.8147C2.75047 20.0006 2.89356 20.1595 3.06818 20.2774C3.2428 20.3953 3.44364 20.4686 3.65315 20.491C3.86265 20.5133 4.07444 20.484 4.27001 20.4056L16.7 15.3806C16.95 15.2756 17.165 15.0956 17.305 14.8606C17.435 14.6556 17.505 14.4206 17.5 14.1806V6.82063C17.5 6.58063 17.44 6.34562 17.315 6.14062Z" fill="#9966FF"/>
<path d="M17.3098 6.14062L17.3598 6.22563C17.4498 6.41063 17.4998 6.61063 17.4998 6.82063V6.80562V14.1806C17.4998 14.4206 17.4348 14.6556 17.3048 14.8606L6.52979 10.5006L17.3098 6.14062Z" fill="url(#paint1_linear_4003_614)"/>
<defs>
<linearGradient id="paint0_linear_4003_614" x1="10" y1="2.56592" x2="10" y2="11.0659" gradientUnits="userSpaceOnUse">
<stop stop-color="#11EFE3"/>
<stop offset="1" stop-color="#21CFE0"/>
</linearGradient>
<linearGradient id="paint1_linear_4003_614" x1="17.4998" y1="6.14062" x2="17.4998" y2="14.8606" gradientUnits="userSpaceOnUse">
<stop stop-color="#0048E5"/>
<stop offset="1" stop-color="#9B66FF"/>
</linearGradient>
</defs>
</svg>
