<svg width="79" height="79" viewBox="0 0 79 79" fill="none" xmlns="http://www.w3.org/2000/svg">
<rect x="0.642578" y="1.39258" width="77" height="77" rx="7.5" fill="#F6F9FC"/>
<rect x="0.642578" y="1.39258" width="77" height="77" rx="7.5" stroke="#C4CCD8"/>
<path d="M44.4589 24.3542C44.4589 23.1479 43.4789 22.1699 42.27 22.1699H23.6069C22.398 22.1699 21.418 23.1479 21.418 24.3542V51.0023C21.418 51.7417 21.7929 52.431 22.4142 52.8339C23.0356 53.2367 23.819 53.2986 24.4961 52.9982L33.5254 48.99L43.1592 44.7089C43.9496 44.3583 44.4589 43.5761 44.4589 42.7131V32.1739V24.3542Z" stroke="#C4CCD8"/>
<path d="M44.902 56.7299C51.5093 56.7299 56.8656 51.3736 56.8656 44.7663C56.8656 38.159 51.5093 32.8027 44.902 32.8027C38.2948 32.8027 32.9385 38.159 32.9385 44.7663C32.9385 51.3736 38.2948 56.7299 44.902 56.7299Z" stroke="#C4CCD8"/>
</svg>
