<svg width="116" height="117" viewBox="0 0 116 117" fill="none" xmlns="http://www.w3.org/2000/svg">
<g filter="url(#filter0_dd_4003_6731)">
<g clip-path="url(#clip0_4003_6731)">
<rect x="14.1426" y="1.89258" width="88" height="88" rx="8" fill="white"/>
<path d="M52.4953 19.901C49.9868 20.0599 47.6364 21.1806 45.9338 23.0297C44.2313 24.8788 43.308 27.3136 43.3563 29.8267C43.4046 32.3397 44.4209 34.7372 46.1933 36.5195C47.9657 38.3017 50.3576 39.3312 52.8703 39.3935H60.7828C61.8103 39.3935 62.6428 38.5685 62.6428 37.5335V29.651C62.645 28.3362 62.3809 27.0345 61.8667 25.8244C61.3524 24.6143 60.5985 23.5208 59.6503 22.6099C58.7022 21.6989 57.5795 20.9893 56.3499 20.5237C55.1202 20.0582 53.809 19.8463 52.4953 19.901Z" fill="url(#paint0_linear_4003_6731)"/>
<path d="M63.7901 49.8851C66.2986 49.7262 68.649 48.6055 70.3516 46.7564C72.0541 44.9073 72.9775 42.4725 72.9291 39.9594C72.8808 37.4463 71.8645 35.0489 70.0921 33.2666C68.3197 31.4844 65.9279 30.4548 63.4151 30.3926H55.5026C55.0093 30.3926 54.5362 30.5885 54.1874 30.9374C53.8386 31.2862 53.6426 31.7593 53.6426 32.2526V40.1351C53.6404 41.4499 53.9045 42.7516 54.4187 43.9617C54.933 45.1718 55.6869 46.2652 56.6351 47.1762C57.5832 48.0872 58.7059 48.7968 59.9355 49.2624C61.1652 49.7279 62.4764 49.9397 63.7901 49.8851Z" fill="#0073E6"/>
<path d="M62.6426 30.3923V37.5323C62.6426 38.0256 62.4466 38.4987 62.0978 38.8475C61.749 39.1963 61.2759 39.3923 60.7826 39.3923H53.6426V32.2523C53.6416 31.7791 53.821 31.3233 54.1443 30.9777C54.4675 30.6322 54.9104 30.4228 55.3826 30.3923L55.5026 30.3848H62.6426V30.3923Z" fill="url(#paint1_linear_4003_6731)"/>
<path d="M42.4019 69.3714H41.1555C41.1075 69.1051 41.0183 68.8707 40.8878 68.6683C40.7573 68.4659 40.5975 68.2941 40.4084 68.153C40.2193 68.0118 40.0076 67.9053 39.7732 67.8334C39.5415 67.7615 39.2951 67.7255 39.0341 67.7255C38.5627 67.7255 38.1406 67.844 37.7677 68.0811C37.3975 68.3181 37.1045 68.6657 36.8888 69.1238C36.6757 69.5819 36.5692 70.1412 36.5692 70.8017C36.5692 71.4675 36.6757 72.0295 36.8888 72.4876C37.1045 72.9457 37.3988 73.2919 37.7717 73.5263C38.1446 73.7607 38.564 73.8778 39.0301 73.8778C39.2885 73.8778 39.5335 73.8432 39.7652 73.774C39.9996 73.7021 40.2113 73.5969 40.4004 73.4584C40.5895 73.3199 40.7493 73.1507 40.8798 72.951C41.013 72.7486 41.1049 72.5169 41.1555 72.2559L42.4019 72.2599C42.3353 72.662 42.2062 73.0322 42.0144 73.3705C41.8253 73.7061 41.5816 73.9964 41.2833 74.2414C40.9877 74.4838 40.6494 74.6715 40.2686 74.8047C39.8877 74.9379 39.4722 75.0044 39.0221 75.0044C38.3137 75.0044 37.6825 74.8366 37.1285 74.5011C36.5745 74.1628 36.1377 73.6794 35.8181 73.0509C35.5012 72.4223 35.3427 71.6726 35.3427 70.8017C35.3427 69.9281 35.5025 69.1784 35.8221 68.5525C36.1417 67.9239 36.5785 67.4418 37.1325 67.1063C37.6865 66.768 38.3163 66.5989 39.0221 66.5989C39.4563 66.5989 39.8611 66.6615 40.2366 66.7867C40.6148 66.9092 40.9544 67.0903 41.2553 67.33C41.5563 67.567 41.8053 67.8573 42.0024 68.2009C42.1995 68.5418 42.3327 68.932 42.4019 69.3714ZM46.568 75.0164C45.9927 75.0164 45.4907 74.8846 45.0619 74.6209C44.6331 74.3572 44.3001 73.9884 44.0631 73.5143C43.8261 73.0402 43.7075 72.4862 43.7075 71.8524C43.7075 71.2158 43.8261 70.6592 44.0631 70.1824C44.3001 69.7057 44.6331 69.3355 45.0619 69.0718C45.4907 68.8081 45.9927 68.6763 46.568 68.6763C47.1433 68.6763 47.6453 68.8081 48.0741 69.0718C48.5029 69.3355 48.8358 69.7057 49.0729 70.1824C49.3099 70.6592 49.4284 71.2158 49.4284 71.8524C49.4284 72.4862 49.3099 73.0402 49.0729 73.5143C48.8358 73.9884 48.5029 74.3572 48.0741 74.6209C47.6453 74.8846 47.1433 75.0164 46.568 75.0164ZM46.572 74.0137C46.9448 74.0137 47.2538 73.9151 47.4988 73.718C47.7439 73.521 47.925 73.2586 48.0421 72.931C48.162 72.6034 48.2219 72.2425 48.2219 71.8484C48.2219 71.4569 48.162 71.0973 48.0421 70.7697C47.925 70.4395 47.7439 70.1744 47.4988 69.9747C47.2538 69.7749 46.9448 69.6751 46.572 69.6751C46.1964 69.6751 45.8848 69.7749 45.6371 69.9747C45.3921 70.1744 45.2097 70.4395 45.0898 70.7697C44.9726 71.0973 44.914 71.4569 44.914 71.8484C44.914 72.2425 44.9726 72.6034 45.0898 72.931C45.2097 73.2586 45.3921 73.521 45.6371 73.718C45.8848 73.9151 46.1964 74.0137 46.572 74.0137ZM52.1563 71.2491V74.8926H50.9618V68.7562H52.1083V69.755H52.1842C52.3254 69.43 52.5465 69.169 52.8474 68.9719C53.151 68.7749 53.5332 68.6763 53.994 68.6763C54.4121 68.6763 54.7783 68.7642 55.0926 68.94C55.4069 69.1131 55.6506 69.3714 55.8237 69.715C55.9968 70.0586 56.0834 70.4834 56.0834 70.9894V74.8926H54.8889V71.1333C54.8889 70.6885 54.773 70.3409 54.5413 70.0906C54.3096 69.8375 53.9913 69.711 53.5865 69.711C53.3095 69.711 53.0631 69.771 52.8474 69.8908C52.6343 70.0107 52.4652 70.1864 52.34 70.4181C52.2175 70.6472 52.1563 70.9242 52.1563 71.2491ZM59.0799 71.2491V74.8926H57.8854V68.7562H59.032V69.755H59.1079C59.249 69.43 59.4701 69.169 59.7711 68.9719C60.0747 68.7749 60.4569 68.6763 60.9176 68.6763C61.3358 68.6763 61.702 68.7642 62.0163 68.94C62.3305 69.1131 62.5742 69.3714 62.7473 69.715C62.9205 70.0586 63.007 70.4834 63.007 70.9894V74.8926H61.8125V71.1333C61.8125 70.6885 61.6967 70.3409 61.4649 70.0906C61.2332 69.8375 60.915 69.711 60.5101 69.711C60.2331 69.711 59.9868 69.771 59.7711 69.8908C59.558 70.0107 59.3889 70.1864 59.2637 70.4181C59.1412 70.6472 59.0799 70.9242 59.0799 71.2491ZM67.4537 75.0164C66.8492 75.0164 66.3285 74.8873 65.8917 74.6289C65.4576 74.3679 65.122 74.0017 64.8849 73.5303C64.6506 73.0562 64.5334 72.5009 64.5334 71.8643C64.5334 71.2358 64.6506 70.6818 64.8849 70.2024C65.122 69.723 65.4522 69.3488 65.8757 69.0798C66.3018 68.8108 66.7999 68.6763 67.3698 68.6763C67.7161 68.6763 68.0517 68.7336 68.3766 68.8481C68.7015 68.9626 68.9932 69.1424 69.2515 69.3874C69.5098 69.6325 69.7136 69.9507 69.8627 70.3422C70.0119 70.7311 70.0865 71.2038 70.0865 71.7605V72.1839H65.2085V71.2891H68.9159C68.9159 70.9748 68.852 70.6965 68.7242 70.4541C68.5963 70.2091 68.4165 70.016 68.1848 69.8748C67.9558 69.7337 67.6868 69.6631 67.3778 69.6631C67.0423 69.6631 66.7493 69.7456 66.4989 69.9108C66.2512 70.0732 66.0595 70.2863 65.9236 70.55C65.7905 70.811 65.7239 71.0946 65.7239 71.4009V72.1001C65.7239 72.5102 65.7958 72.8591 65.9396 73.1468C66.0861 73.4344 66.2899 73.6541 66.5509 73.8059C66.8119 73.9551 67.1168 74.0297 67.4657 74.0297C67.6921 74.0297 67.8985 73.9977 68.085 73.9338C68.2714 73.8672 68.4325 73.7686 68.5684 73.6381C68.7042 73.5076 68.8081 73.3465 68.88 73.1547L70.0106 73.3585C69.92 73.6914 69.7575 73.983 69.5232 74.2334C69.2915 74.4811 68.9998 74.6742 68.6483 74.8127C68.2994 74.9485 67.9012 75.0164 67.4537 75.0164ZM74.1966 75.0164C73.6027 75.0164 73.0913 74.8819 72.6625 74.6129C72.2364 74.3413 71.9088 73.9671 71.6797 73.4903C71.4507 73.0136 71.3362 72.4676 71.3362 71.8524C71.3362 71.2291 71.4533 70.6792 71.6877 70.2024C71.9221 69.723 72.2524 69.3488 72.6785 69.0798C73.1046 68.8108 73.6067 68.6763 74.1846 68.6763C74.6507 68.6763 75.0662 68.7629 75.4311 68.936C75.7959 69.1064 76.0902 69.3461 76.314 69.6551C76.5403 69.964 76.6748 70.3249 76.7175 70.7377H75.5549C75.491 70.4501 75.3445 70.2024 75.1155 69.9947C74.8891 69.7869 74.5854 69.6831 74.2046 69.6831C73.8717 69.6831 73.58 69.771 73.3297 69.9467C73.082 70.1199 72.8889 70.3675 72.7504 70.6898C72.6119 71.0094 72.5427 71.3876 72.5427 71.8244C72.5427 72.2718 72.6106 72.658 72.7464 72.983C72.8822 73.3079 73.074 73.5596 73.3217 73.738C73.572 73.9165 73.8663 74.0057 74.2046 74.0057C74.431 74.0057 74.6361 73.9644 74.8198 73.8818C75.0063 73.7966 75.1621 73.6754 75.2872 73.5183C75.4151 73.3612 75.5043 73.1721 75.5549 72.951H76.7175C76.6748 73.3478 76.5457 73.7021 76.3299 74.0137C76.1142 74.3253 75.8252 74.5703 75.463 74.7488C75.1035 74.9272 74.6813 75.0164 74.1966 75.0164ZM81.0593 68.7562V69.715H77.7075V68.7562H81.0593ZM78.6064 67.286H79.8009V73.0908C79.8009 73.3225 79.8355 73.497 79.9047 73.6142C79.974 73.7287 80.0632 73.8073 80.1724 73.8499C80.2843 73.8898 80.4055 73.9098 80.536 73.9098C80.6318 73.9098 80.7157 73.9031 80.7876 73.8898C80.8596 73.8765 80.9155 73.8659 80.9554 73.8579L81.1712 74.8446C81.1019 74.8713 81.0034 74.8979 80.8755 74.9245C80.7477 74.9538 80.5879 74.9698 80.3961 74.9725C80.0819 74.9778 79.7889 74.9219 79.5172 74.8047C79.2456 74.6875 79.0258 74.5064 78.858 74.2614C78.6903 74.0163 78.6064 73.7087 78.6064 73.3385V67.286Z" fill="#2E3A55"/>
</g>
</g>
<defs>
<filter id="filter0_dd_4003_6731" x="0.515878" y="0.865878" width="115.253" height="115.253" filterUnits="userSpaceOnUse" color-interpolation-filters="sRGB">
<feFlood flood-opacity="0" result="BackgroundImageFix"/>
<feColorMatrix in="SourceAlpha" type="matrix" values="0 0 0 0 0 0 0 0 0 0 0 0 0 0 0 0 0 0 127 0" result="hardAlpha"/>
<feMorphology radius="7.56" operator="erode" in="SourceAlpha" result="effect1_dropShadow_4003_6731"/>
<feOffset dy="7.56"/>
<feGaussianBlur stdDeviation="7.56"/>
<feComposite in2="hardAlpha" operator="out"/>
<feColorMatrix type="matrix" values="0 0 0 0 0 0 0 0 0 0 0 0 0 0 0 0 0 0 0.1 0"/>
<feBlend mode="normal" in2="BackgroundImageFix" result="effect1_dropShadow_4003_6731"/>
<feColorMatrix in="SourceAlpha" type="matrix" values="0 0 0 0 0 0 0 0 0 0 0 0 0 0 0 0 0 0 127 0" result="hardAlpha"/>
<feMorphology radius="11.5733" operator="erode" in="SourceAlpha" result="effect2_dropShadow_4003_6731"/>
<feOffset dy="12.6"/>
<feGaussianBlur stdDeviation="12.6"/>
<feComposite in2="hardAlpha" operator="out"/>
<feColorMatrix type="matrix" values="0 0 0 0 0.196078 0 0 0 0 0.196078 0 0 0 0 0.364706 0 0 0 0.25 0"/>
<feBlend mode="normal" in2="effect1_dropShadow_4003_6731" result="effect2_dropShadow_4003_6731"/>
<feBlend mode="normal" in="SourceGraphic" in2="effect2_dropShadow_4003_6731" result="shape"/>
</filter>
<linearGradient id="paint0_linear_4003_6731" x1="52.8928" y1="21.176" x2="52.8928" y2="31.331" gradientUnits="userSpaceOnUse">
<stop stop-color="#11EFE3"/>
<stop offset="0.33" stop-color="#15E8E2"/>
<stop offset="0.74" stop-color="#1FD3E0"/>
<stop offset="1" stop-color="#21CFE0"/>
</linearGradient>
<linearGradient id="paint1_linear_4003_6731" x1="58.1426" y1="31.6823" x2="58.1426" y2="40.3223" gradientUnits="userSpaceOnUse">
<stop stop-color="#00299C"/>
<stop offset="1" stop-color="#0073E6"/>
</linearGradient>
<clipPath id="clip0_4003_6731">
<rect x="14.1426" y="1.89258" width="88" height="88" rx="8" fill="white"/>
</clipPath>
</defs>
</svg>
